<svg id="logosandtypes_com" xmlns="http://www.w3.org/2000/svg" viewBox="0 0 150 150"><style>.st1{fill:#ed1c24}</style><path d="M0 0h150v150H0V0z" fill="none" id="Layer_3"/><g id="logosandtypes_com"><path class="st1" d="M40 54.5c-24.1 28.6-27 47.8-20.8 63.4 6.2 15.8 26.7 15.3 52.1-1.8 16.5-11 31.4-24.5 46-42.1 9.4-11.3 19.4-24 27.3-39.8 2.1-4.1 3.4-8.6 3.9-13.2.6-6.3-4.1-8.8-8.6-9.4 8.5 1.4 10.6 9.3 2.3 21.7-21.8 32.6-46.7 59.4-76.9 74.9-14.6 7.5-26.1 7.9-24.2-3.4 2.4-14.4 13.8-27.1 28.2-39.5l-3.1-2.1-16.3.2c-6.3.1-6.7-3.9-5.9-6.8l-4-2.1z"/><path class="st1" d="M45.9 47.3c3.7-5.6 13-17.5 23.8-17.8 12.4-.4 15.6 9.6 15.1 15.3-1.3 13.8-12.1 14.9-19.3 14.4-2.5-3.3-5.7-4.5-10-4.2-.4-2-.6-3.9-1.2-5.9-2.2.1-4.6 0-6.8.1-2 .1-2.6-.4-1.6-1.9z"/></g></svg>