<?xml version="1.0" encoding="utf-8" standalone="no"?>
<!DOCTYPE svg PUBLIC "-//W3C//DTD SVG 1.1//EN"
  "http://www.w3.org/Graphics/SVG/1.1/DTD/svg11.dtd">
<svg xmlns:xlink="http://www.w3.org/1999/xlink" width="432pt" height="288pt" viewBox="0 0 432 288" xmlns="http://www.w3.org/2000/svg" version="1.1">
 <metadata>
  <rdf:RDF xmlns:dc="http://purl.org/dc/elements/1.1/" xmlns:cc="http://creativecommons.org/ns#" xmlns:rdf="http://www.w3.org/1999/02/22-rdf-syntax-ns#">
   <cc:Work>
    <dc:type rdf:resource="http://purl.org/dc/dcmitype/StillImage"/>
    <dc:date>2023-06-12T17:17:43.747451</dc:date>
    <dc:format>image/svg+xml</dc:format>
    <dc:creator>
     <cc:Agent>
      <dc:title>Matplotlib v3.7.1, https://matplotlib.org/</dc:title>
     </cc:Agent>
    </dc:creator>
   </cc:Work>
  </rdf:RDF>
 </metadata>
 <defs>
  <style type="text/css">*{stroke-linejoin: round; stroke-linecap: butt}</style>
 </defs>
 <g id="figure_1">
  <g id="patch_1">
   <path d="M 0 288 
L 432 288 
L 432 0 
L 0 0 
z
" style="fill: #ffffff"/>
  </g>
  <g id="axes_1">
   <g id="patch_2">
    <path d="M 99.525852 273.025354 
L 352.19656 273.025354 
L 352.19656 20.354646 
L 99.525852 20.354646 
z
" style="fill: #ffffff"/>
   </g>
   <g id="PathCollection_1">
    <defs>
     <path id="m3651a38f4f" d="M -1 1 
L 1 1 
L 1 -1 
L -1 -1 
z
"/>
    </defs>
    <g clip-path="url(#pc2d21c3cfa)">
     <use xlink:href="#m3651a38f4f" x="106.67691" y="27.505703"/>
     <use xlink:href="#m3651a38f4f" x="107.924913" y="28.753707"/>
     <use xlink:href="#m3651a38f4f" x="109.172916" y="30.00171"/>
     <use xlink:href="#m3651a38f4f" x="110.420919" y="31.249713"/>
     <use xlink:href="#m3651a38f4f" x="111.668922" y="32.497716"/>
     <use xlink:href="#m3651a38f4f" x="112.916925" y="33.745719"/>
     <use xlink:href="#m3651a38f4f" x="114.164928" y="34.993722"/>
     <use xlink:href="#m3651a38f4f" x="115.412931" y="36.241725"/>
     <use xlink:href="#m3651a38f4f" x="116.660934" y="37.489728"/>
     <use xlink:href="#m3651a38f4f" x="117.908937" y="38.737731"/>
     <use xlink:href="#m3651a38f4f" x="119.156941" y="39.985735"/>
     <use xlink:href="#m3651a38f4f" x="120.404944" y="41.233738"/>
     <use xlink:href="#m3651a38f4f" x="121.652947" y="43.729744"/>
     <use xlink:href="#m3651a38f4f" x="122.90095" y="42.481741"/>
     <use xlink:href="#m3651a38f4f" x="124.148953" y="46.22575"/>
     <use xlink:href="#m3651a38f4f" x="125.396956" y="44.977747"/>
     <use xlink:href="#m3651a38f4f" x="126.644959" y="48.721756"/>
     <use xlink:href="#m3651a38f4f" x="127.892962" y="47.473753"/>
     <use xlink:href="#m3651a38f4f" x="129.140965" y="51.217762"/>
     <use xlink:href="#m3651a38f4f" x="130.388969" y="49.969759"/>
     <use xlink:href="#m3651a38f4f" x="131.636972" y="53.713769"/>
     <use xlink:href="#m3651a38f4f" x="132.884975" y="52.465766"/>
     <use xlink:href="#m3651a38f4f" x="134.132978" y="56.209775"/>
     <use xlink:href="#m3651a38f4f" x="135.380981" y="54.961772"/>
     <use xlink:href="#m3651a38f4f" x="136.628984" y="57.457778"/>
     <use xlink:href="#m3651a38f4f" x="137.876987" y="58.705781"/>
     <use xlink:href="#m3651a38f4f" x="139.12499" y="59.953784"/>
     <use xlink:href="#m3651a38f4f" x="140.372993" y="61.201787"/>
     <use xlink:href="#m3651a38f4f" x="141.620996" y="62.44979"/>
     <use xlink:href="#m3651a38f4f" x="142.869" y="63.697794"/>
     <use xlink:href="#m3651a38f4f" x="144.117003" y="64.945797"/>
     <use xlink:href="#m3651a38f4f" x="145.365006" y="66.1938"/>
     <use xlink:href="#m3651a38f4f" x="146.613009" y="67.441803"/>
     <use xlink:href="#m3651a38f4f" x="147.861012" y="68.689806"/>
     <use xlink:href="#m3651a38f4f" x="149.109015" y="69.937809"/>
     <use xlink:href="#m3651a38f4f" x="150.357018" y="71.185812"/>
     <use xlink:href="#m3651a38f4f" x="151.605021" y="73.681818"/>
     <use xlink:href="#m3651a38f4f" x="152.853024" y="72.433815"/>
     <use xlink:href="#m3651a38f4f" x="154.101028" y="76.177825"/>
     <use xlink:href="#m3651a38f4f" x="155.349031" y="74.929821"/>
     <use xlink:href="#m3651a38f4f" x="156.597034" y="78.673831"/>
     <use xlink:href="#m3651a38f4f" x="157.845037" y="77.425828"/>
     <use xlink:href="#m3651a38f4f" x="159.09304" y="81.169837"/>
     <use xlink:href="#m3651a38f4f" x="160.341043" y="79.921834"/>
     <use xlink:href="#m3651a38f4f" x="161.589046" y="83.665843"/>
     <use xlink:href="#m3651a38f4f" x="162.837049" y="82.41784"/>
     <use xlink:href="#m3651a38f4f" x="164.085052" y="86.161849"/>
     <use xlink:href="#m3651a38f4f" x="165.333055" y="84.913846"/>
     <use xlink:href="#m3651a38f4f" x="166.581059" y="87.409853"/>
     <use xlink:href="#m3651a38f4f" x="167.829062" y="88.657856"/>
     <use xlink:href="#m3651a38f4f" x="169.077065" y="89.905859"/>
     <use xlink:href="#m3651a38f4f" x="170.325068" y="91.153862"/>
     <use xlink:href="#m3651a38f4f" x="171.573071" y="92.401865"/>
     <use xlink:href="#m3651a38f4f" x="172.821074" y="93.649868"/>
     <use xlink:href="#m3651a38f4f" x="174.069077" y="94.897871"/>
     <use xlink:href="#m3651a38f4f" x="175.31708" y="96.145874"/>
     <use xlink:href="#m3651a38f4f" x="176.565083" y="97.393877"/>
     <use xlink:href="#m3651a38f4f" x="177.813087" y="98.64188"/>
     <use xlink:href="#m3651a38f4f" x="179.06109" y="99.889884"/>
     <use xlink:href="#m3651a38f4f" x="180.309093" y="101.137887"/>
     <use xlink:href="#m3651a38f4f" x="181.557096" y="103.633893"/>
     <use xlink:href="#m3651a38f4f" x="182.805099" y="102.38589"/>
     <use xlink:href="#m3651a38f4f" x="184.053102" y="106.129899"/>
     <use xlink:href="#m3651a38f4f" x="185.301105" y="104.881896"/>
     <use xlink:href="#m3651a38f4f" x="186.549108" y="108.625905"/>
     <use xlink:href="#m3651a38f4f" x="187.797111" y="107.377902"/>
     <use xlink:href="#m3651a38f4f" x="189.045114" y="111.121912"/>
     <use xlink:href="#m3651a38f4f" x="190.293118" y="109.873908"/>
     <use xlink:href="#m3651a38f4f" x="191.541121" y="113.617918"/>
     <use xlink:href="#m3651a38f4f" x="192.789124" y="112.369915"/>
     <use xlink:href="#m3651a38f4f" x="194.037127" y="116.113924"/>
     <use xlink:href="#m3651a38f4f" x="195.28513" y="114.865921"/>
     <use xlink:href="#m3651a38f4f" x="196.533133" y="117.361927"/>
     <use xlink:href="#m3651a38f4f" x="197.781136" y="118.60993"/>
     <use xlink:href="#m3651a38f4f" x="199.029139" y="119.857933"/>
     <use xlink:href="#m3651a38f4f" x="200.277142" y="121.105936"/>
     <use xlink:href="#m3651a38f4f" x="201.525146" y="122.353939"/>
     <use xlink:href="#m3651a38f4f" x="202.773149" y="123.601943"/>
     <use xlink:href="#m3651a38f4f" x="204.021152" y="124.849946"/>
     <use xlink:href="#m3651a38f4f" x="205.269155" y="126.097949"/>
     <use xlink:href="#m3651a38f4f" x="206.517158" y="127.345952"/>
     <use xlink:href="#m3651a38f4f" x="207.765161" y="128.593955"/>
     <use xlink:href="#m3651a38f4f" x="209.013164" y="129.841958"/>
     <use xlink:href="#m3651a38f4f" x="210.261167" y="131.089961"/>
     <use xlink:href="#m3651a38f4f" x="211.50917" y="133.585967"/>
     <use xlink:href="#m3651a38f4f" x="212.757173" y="132.337964"/>
     <use xlink:href="#m3651a38f4f" x="214.005177" y="136.081974"/>
     <use xlink:href="#m3651a38f4f" x="215.25318" y="134.833971"/>
     <use xlink:href="#m3651a38f4f" x="216.501183" y="138.57798"/>
     <use xlink:href="#m3651a38f4f" x="217.749186" y="137.329977"/>
     <use xlink:href="#m3651a38f4f" x="218.997189" y="141.073986"/>
     <use xlink:href="#m3651a38f4f" x="220.245192" y="139.825983"/>
     <use xlink:href="#m3651a38f4f" x="221.493195" y="143.569992"/>
     <use xlink:href="#m3651a38f4f" x="222.741198" y="142.321989"/>
     <use xlink:href="#m3651a38f4f" x="223.989201" y="146.065998"/>
     <use xlink:href="#m3651a38f4f" x="225.237205" y="144.817995"/>
     <use xlink:href="#m3651a38f4f" x="226.485208" y="147.314002"/>
     <use xlink:href="#m3651a38f4f" x="227.733211" y="148.562005"/>
     <use xlink:href="#m3651a38f4f" x="228.981214" y="149.810008"/>
     <use xlink:href="#m3651a38f4f" x="230.229217" y="151.058011"/>
     <use xlink:href="#m3651a38f4f" x="231.47722" y="152.306014"/>
     <use xlink:href="#m3651a38f4f" x="232.725223" y="153.554017"/>
     <use xlink:href="#m3651a38f4f" x="233.973226" y="154.80202"/>
     <use xlink:href="#m3651a38f4f" x="235.221229" y="156.050023"/>
     <use xlink:href="#m3651a38f4f" x="236.469232" y="157.298026"/>
     <use xlink:href="#m3651a38f4f" x="237.717236" y="158.546029"/>
     <use xlink:href="#m3651a38f4f" x="238.965239" y="159.794033"/>
     <use xlink:href="#m3651a38f4f" x="240.213242" y="161.042036"/>
     <use xlink:href="#m3651a38f4f" x="241.461245" y="163.538042"/>
     <use xlink:href="#m3651a38f4f" x="242.709248" y="162.290039"/>
     <use xlink:href="#m3651a38f4f" x="243.957251" y="166.034048"/>
     <use xlink:href="#m3651a38f4f" x="245.205254" y="164.786045"/>
     <use xlink:href="#m3651a38f4f" x="246.453257" y="168.530054"/>
     <use xlink:href="#m3651a38f4f" x="247.70126" y="167.282051"/>
     <use xlink:href="#m3651a38f4f" x="248.949263" y="171.026061"/>
     <use xlink:href="#m3651a38f4f" x="250.197267" y="169.778057"/>
     <use xlink:href="#m3651a38f4f" x="251.44527" y="173.522067"/>
     <use xlink:href="#m3651a38f4f" x="252.693273" y="172.274064"/>
     <use xlink:href="#m3651a38f4f" x="253.941276" y="176.018073"/>
     <use xlink:href="#m3651a38f4f" x="255.189279" y="174.77007"/>
     <use xlink:href="#m3651a38f4f" x="256.437282" y="177.266076"/>
     <use xlink:href="#m3651a38f4f" x="257.685285" y="178.514079"/>
     <use xlink:href="#m3651a38f4f" x="258.933288" y="179.762082"/>
     <use xlink:href="#m3651a38f4f" x="260.181291" y="181.010085"/>
     <use xlink:href="#m3651a38f4f" x="261.429295" y="182.258088"/>
     <use xlink:href="#m3651a38f4f" x="262.677298" y="183.506092"/>
     <use xlink:href="#m3651a38f4f" x="263.925301" y="184.754095"/>
     <use xlink:href="#m3651a38f4f" x="265.173304" y="186.002098"/>
     <use xlink:href="#m3651a38f4f" x="266.421307" y="187.250101"/>
     <use xlink:href="#m3651a38f4f" x="267.66931" y="188.498104"/>
     <use xlink:href="#m3651a38f4f" x="268.917313" y="189.746107"/>
     <use xlink:href="#m3651a38f4f" x="270.165316" y="190.99411"/>
     <use xlink:href="#m3651a38f4f" x="271.413319" y="193.490116"/>
     <use xlink:href="#m3651a38f4f" x="272.661322" y="192.242113"/>
     <use xlink:href="#m3651a38f4f" x="273.909326" y="195.986123"/>
     <use xlink:href="#m3651a38f4f" x="275.157329" y="194.73812"/>
     <use xlink:href="#m3651a38f4f" x="276.405332" y="198.482129"/>
     <use xlink:href="#m3651a38f4f" x="277.653335" y="197.234126"/>
     <use xlink:href="#m3651a38f4f" x="278.901338" y="200.978135"/>
     <use xlink:href="#m3651a38f4f" x="280.149341" y="199.730132"/>
     <use xlink:href="#m3651a38f4f" x="281.397344" y="203.474141"/>
     <use xlink:href="#m3651a38f4f" x="282.645347" y="202.226138"/>
     <use xlink:href="#m3651a38f4f" x="283.89335" y="205.970147"/>
     <use xlink:href="#m3651a38f4f" x="285.141354" y="204.722144"/>
     <use xlink:href="#m3651a38f4f" x="286.389357" y="207.218151"/>
     <use xlink:href="#m3651a38f4f" x="287.63736" y="208.466154"/>
     <use xlink:href="#m3651a38f4f" x="288.885363" y="209.714157"/>
     <use xlink:href="#m3651a38f4f" x="290.133366" y="210.96216"/>
     <use xlink:href="#m3651a38f4f" x="291.381369" y="212.210163"/>
     <use xlink:href="#m3651a38f4f" x="292.629372" y="213.458166"/>
     <use xlink:href="#m3651a38f4f" x="293.877375" y="214.706169"/>
     <use xlink:href="#m3651a38f4f" x="295.125378" y="215.954172"/>
     <use xlink:href="#m3651a38f4f" x="296.373381" y="217.202175"/>
     <use xlink:href="#m3651a38f4f" x="297.621385" y="218.450179"/>
     <use xlink:href="#m3651a38f4f" x="298.869388" y="219.698182"/>
     <use xlink:href="#m3651a38f4f" x="300.117391" y="220.946185"/>
     <use xlink:href="#m3651a38f4f" x="301.365394" y="223.442191"/>
     <use xlink:href="#m3651a38f4f" x="302.613397" y="222.194188"/>
     <use xlink:href="#m3651a38f4f" x="303.8614" y="225.938197"/>
     <use xlink:href="#m3651a38f4f" x="305.109403" y="224.690194"/>
     <use xlink:href="#m3651a38f4f" x="306.357406" y="228.434203"/>
     <use xlink:href="#m3651a38f4f" x="307.605409" y="227.1862"/>
     <use xlink:href="#m3651a38f4f" x="308.853413" y="230.93021"/>
     <use xlink:href="#m3651a38f4f" x="310.101416" y="229.682206"/>
     <use xlink:href="#m3651a38f4f" x="311.349419" y="233.426216"/>
     <use xlink:href="#m3651a38f4f" x="312.597422" y="232.178213"/>
     <use xlink:href="#m3651a38f4f" x="313.845425" y="235.922222"/>
     <use xlink:href="#m3651a38f4f" x="315.093428" y="234.674219"/>
     <use xlink:href="#m3651a38f4f" x="316.341431" y="237.170225"/>
     <use xlink:href="#m3651a38f4f" x="317.589434" y="238.418228"/>
     <use xlink:href="#m3651a38f4f" x="318.837437" y="239.666231"/>
     <use xlink:href="#m3651a38f4f" x="320.08544" y="240.914234"/>
     <use xlink:href="#m3651a38f4f" x="321.333444" y="242.162238"/>
     <use xlink:href="#m3651a38f4f" x="322.581447" y="243.410241"/>
     <use xlink:href="#m3651a38f4f" x="323.82945" y="244.658244"/>
     <use xlink:href="#m3651a38f4f" x="325.077453" y="245.906247"/>
     <use xlink:href="#m3651a38f4f" x="326.325456" y="247.15425"/>
     <use xlink:href="#m3651a38f4f" x="327.573459" y="248.402253"/>
     <use xlink:href="#m3651a38f4f" x="328.821462" y="249.650256"/>
     <use xlink:href="#m3651a38f4f" x="330.069465" y="250.898259"/>
     <use xlink:href="#m3651a38f4f" x="331.317468" y="253.394265"/>
     <use xlink:href="#m3651a38f4f" x="332.565472" y="252.146262"/>
     <use xlink:href="#m3651a38f4f" x="333.813475" y="255.890272"/>
     <use xlink:href="#m3651a38f4f" x="335.061478" y="254.642269"/>
     <use xlink:href="#m3651a38f4f" x="336.309481" y="258.386278"/>
     <use xlink:href="#m3651a38f4f" x="337.557484" y="257.138275"/>
     <use xlink:href="#m3651a38f4f" x="338.805487" y="260.882284"/>
     <use xlink:href="#m3651a38f4f" x="340.05349" y="259.634281"/>
     <use xlink:href="#m3651a38f4f" x="341.301493" y="263.37829"/>
     <use xlink:href="#m3651a38f4f" x="342.549496" y="262.130287"/>
     <use xlink:href="#m3651a38f4f" x="343.797499" y="265.874297"/>
     <use xlink:href="#m3651a38f4f" x="345.045503" y="264.626293"/>
    </g>
   </g>
   <g id="matplotlib.axis_1">
    <g id="xtick_1">
     <g id="line2d_1">
      <defs>
       <path id="m0e0ed4c223" d="M 0 0 
L 0 -2.5 
" style="stroke: #000000; stroke-width: 0.5"/>
      </defs>
      <g>
       <use xlink:href="#m0e0ed4c223" x="105.428906" y="273.025354" style="stroke: #000000; stroke-width: 0.5"/>
      </g>
     </g>
     <g id="text_1">
      <!-- $0$ -->
      <g transform="translate(102.868906 282.604104) scale(0.08 -0.08)">
       <defs>
        <path id="DejaVuSerif-30" d="M 2034 219 
Q 2513 219 2750 744 
Q 2988 1269 2988 2328 
Q 2988 3391 2750 3916 
Q 2513 4441 2034 4441 
Q 1556 4441 1318 3916 
Q 1081 3391 1081 2328 
Q 1081 1269 1318 744 
Q 1556 219 2034 219 
z
M 2034 -91 
Q 1275 -91 848 546 
Q 422 1184 422 2328 
Q 422 3475 848 4112 
Q 1275 4750 2034 4750 
Q 2797 4750 3222 4112 
Q 3647 3475 3647 2328 
Q 3647 1184 3222 546 
Q 2797 -91 2034 -91 
z
" transform="scale(0.015625)"/>
       </defs>
       <use xlink:href="#DejaVuSerif-30" transform="translate(0 0.78125)"/>
      </g>
     </g>
    </g>
    <g id="xtick_2">
     <g id="line2d_2">
      <g>
       <use xlink:href="#m0e0ed4c223" x="167.829062" y="273.025354" style="stroke: #000000; stroke-width: 0.5"/>
      </g>
     </g>
     <g id="text_2">
      <!-- $50$ -->
      <g transform="translate(162.709062 282.604104) scale(0.08 -0.08)">
       <defs>
        <path id="DejaVuSerif-35" d="M 3219 4666 
L 3219 4153 
L 1081 4153 
L 1081 2816 
Q 1244 2928 1461 2984 
Q 1678 3041 1947 3041 
Q 2703 3041 3140 2622 
Q 3578 2203 3578 1478 
Q 3578 738 3136 323 
Q 2694 -91 1894 -91 
Q 1572 -91 1234 -12 
Q 897 66 544 225 
L 544 1131 
L 897 1131 
Q 925 688 1179 453 
Q 1434 219 1894 219 
Q 2388 219 2653 544 
Q 2919 869 2919 1478 
Q 2919 2084 2655 2407 
Q 2391 2731 1894 2731 
Q 1613 2731 1398 2631 
Q 1184 2531 1019 2322 
L 750 2322 
L 750 4666 
L 3219 4666 
z
" transform="scale(0.015625)"/>
       </defs>
       <use xlink:href="#DejaVuSerif-35" transform="translate(0 0.78125)"/>
       <use xlink:href="#DejaVuSerif-30" transform="translate(63.623047 0.78125)"/>
      </g>
     </g>
    </g>
    <g id="xtick_3">
     <g id="line2d_3">
      <g>
       <use xlink:href="#m0e0ed4c223" x="230.229217" y="273.025354" style="stroke: #000000; stroke-width: 0.5"/>
      </g>
     </g>
     <g id="text_3">
      <!-- $100$ -->
      <g transform="translate(222.589217 282.604104) scale(0.08 -0.08)">
       <defs>
        <path id="DejaVuSerif-31" d="M 909 0 
L 909 331 
L 1722 331 
L 1722 4213 
L 781 3603 
L 781 4013 
L 1919 4750 
L 2350 4750 
L 2350 331 
L 3163 331 
L 3163 0 
L 909 0 
z
" transform="scale(0.015625)"/>
       </defs>
       <use xlink:href="#DejaVuSerif-31" transform="translate(0 0.78125)"/>
       <use xlink:href="#DejaVuSerif-30" transform="translate(63.623047 0.78125)"/>
       <use xlink:href="#DejaVuSerif-30" transform="translate(127.246094 0.78125)"/>
      </g>
     </g>
    </g>
    <g id="xtick_4">
     <g id="line2d_4">
      <g>
       <use xlink:href="#m0e0ed4c223" x="292.629372" y="273.025354" style="stroke: #000000; stroke-width: 0.5"/>
      </g>
     </g>
     <g id="text_4">
      <!-- $150$ -->
      <g transform="translate(284.989372 282.604104) scale(0.08 -0.08)">
       <use xlink:href="#DejaVuSerif-31" transform="translate(0 0.78125)"/>
       <use xlink:href="#DejaVuSerif-35" transform="translate(63.623047 0.78125)"/>
       <use xlink:href="#DejaVuSerif-30" transform="translate(127.246094 0.78125)"/>
      </g>
     </g>
    </g>
   </g>
   <g id="matplotlib.axis_2">
    <g id="ytick_1">
     <g id="line2d_5">
      <defs>
       <path id="m5f62713fbf" d="M 0 0 
L 2.5 0 
" style="stroke: #000000; stroke-width: 0.5"/>
      </defs>
      <g>
       <use xlink:href="#m5f62713fbf" x="99.525852" y="26.2577" style="stroke: #000000; stroke-width: 0.5"/>
      </g>
     </g>
     <g id="text_5">
      <!-- $0$ -->
      <g transform="translate(90.905852 29.297075) scale(0.08 -0.08)">
       <use xlink:href="#DejaVuSerif-30" transform="translate(0 0.78125)"/>
      </g>
     </g>
    </g>
    <g id="ytick_2">
     <g id="line2d_6">
      <g>
       <use xlink:href="#m5f62713fbf" x="99.525852" y="88.657856" style="stroke: #000000; stroke-width: 0.5"/>
      </g>
     </g>
     <g id="text_6">
      <!-- $50$ -->
      <g transform="translate(85.785852 91.697231) scale(0.08 -0.08)">
       <use xlink:href="#DejaVuSerif-35" transform="translate(0 0.78125)"/>
       <use xlink:href="#DejaVuSerif-30" transform="translate(63.623047 0.78125)"/>
      </g>
     </g>
    </g>
    <g id="ytick_3">
     <g id="line2d_7">
      <g>
       <use xlink:href="#m5f62713fbf" x="99.525852" y="151.058011" style="stroke: #000000; stroke-width: 0.5"/>
      </g>
     </g>
     <g id="text_7">
      <!-- $100$ -->
      <g transform="translate(80.745852 154.097386) scale(0.08 -0.08)">
       <use xlink:href="#DejaVuSerif-31" transform="translate(0 0.78125)"/>
       <use xlink:href="#DejaVuSerif-30" transform="translate(63.623047 0.78125)"/>
       <use xlink:href="#DejaVuSerif-30" transform="translate(127.246094 0.78125)"/>
      </g>
     </g>
    </g>
    <g id="ytick_4">
     <g id="line2d_8">
      <g>
       <use xlink:href="#m5f62713fbf" x="99.525852" y="213.458166" style="stroke: #000000; stroke-width: 0.5"/>
      </g>
     </g>
     <g id="text_8">
      <!-- $150$ -->
      <g transform="translate(80.745852 216.497541) scale(0.08 -0.08)">
       <use xlink:href="#DejaVuSerif-31" transform="translate(0 0.78125)"/>
       <use xlink:href="#DejaVuSerif-35" transform="translate(63.623047 0.78125)"/>
       <use xlink:href="#DejaVuSerif-30" transform="translate(127.246094 0.78125)"/>
      </g>
     </g>
    </g>
   </g>
   <g id="patch_3">
    <path d="M 99.525852 273.025354 
L 99.525852 20.354646 
" style="fill: none; stroke: #000000; stroke-linejoin: miter; stroke-linecap: square"/>
   </g>
   <g id="patch_4">
    <path d="M 99.525852 273.025354 
L 352.19656 273.025354 
" style="fill: none; stroke: #000000; stroke-linejoin: miter; stroke-linecap: square"/>
   </g>
   <g id="text_9">
    <!-- $i \rightarrow j$ -->
    <g transform="translate(212.911206 14.354646) scale(0.14 -0.14)">
     <defs>
      <path id="DejaVuSerif-Italic-69" d="M 1009 4353 
Q 1038 4497 1163 4603 
Q 1288 4709 1434 4709 
Q 1578 4709 1663 4603 
Q 1728 4522 1728 4422 
Q 1728 4388 1719 4353 
Q 1691 4206 1567 4103 
Q 1444 4000 1297 4000 
Q 1150 4000 1066 4103 
Q 1003 4181 1003 4281 
Q 1003 4316 1009 4353 
z
M 963 331 
L 1506 331 
L 1444 0 
L 325 0 
L 903 2988 
L 353 2988 
L 419 3322 
L 1544 3322 
L 963 331 
z
" transform="scale(0.015625)"/>
      <path id="DejaVuSerif-2192" d="M 366 2322 
L 4391 2322 
L 3788 3375 
L 3822 3375 
L 5125 2084 
L 5125 2053 
L 3822 763 
L 3788 763 
L 4391 1816 
L 366 1816 
L 366 2322 
z
" transform="scale(0.015625)"/>
      <path id="DejaVuSerif-Italic-6a" d="M 1172 4353 
Q 1197 4497 1323 4603 
Q 1450 4709 1597 4709 
Q 1741 4709 1825 4603 
Q 1888 4522 1888 4422 
Q 1888 4388 1881 4353 
Q 1850 4206 1729 4103 
Q 1609 4000 1459 4000 
Q 1313 4000 1225 4103 
Q 1163 4181 1163 4281 
Q 1163 4316 1172 4353 
z
M 1047 2988 
L 503 2988 
L 566 3322 
L 1684 3322 
L 978 -325 
Q 878 -838 515 -1130 
Q 153 -1422 -381 -1422 
Q -606 -1422 -800 -1370 
Q -994 -1319 -1169 -1216 
L -1034 -531 
L -738 -531 
Q -747 -609 -747 -675 
Q -747 -869 -669 -972 
Q -563 -1113 -306 -1113 
Q -22 -1113 150 -920 
Q 322 -728 403 -325 
L 1047 2988 
z
" transform="scale(0.015625)"/>
     </defs>
     <use xlink:href="#DejaVuSerif-Italic-69" transform="translate(0 0.421875)"/>
     <use xlink:href="#DejaVuSerif-2192" transform="translate(50.947266 0.421875)"/>
     <use xlink:href="#DejaVuSerif-Italic-6a" transform="translate(153.701172 0.421875)"/>
    </g>
   </g>
  </g>
 </g>
 <defs>
  <clipPath id="pc2d21c3cfa">
   <rect x="99.525852" y="20.354646" width="252.670709" height="252.670709"/>
  </clipPath>
 </defs>
</svg>
