<?xml version="1.0" encoding="utf-8" standalone="no"?>
<!DOCTYPE svg PUBLIC "-//W3C//DTD SVG 1.1//EN"
  "http://www.w3.org/Graphics/SVG/1.1/DTD/svg11.dtd">
<svg xmlns:xlink="http://www.w3.org/1999/xlink" width="288pt" height="230.4pt" viewBox="0 0 288 230.4" xmlns="http://www.w3.org/2000/svg" version="1.1">
 <metadata>
  <rdf:RDF xmlns:dc="http://purl.org/dc/elements/1.1/" xmlns:cc="http://creativecommons.org/ns#" xmlns:rdf="http://www.w3.org/1999/02/22-rdf-syntax-ns#">
   <cc:Work>
    <dc:type rdf:resource="http://purl.org/dc/dcmitype/StillImage"/>
    <dc:date>2024-04-08T14:29:05.485579</dc:date>
    <dc:format>image/svg+xml</dc:format>
    <dc:creator>
     <cc:Agent>
      <dc:title>Matplotlib v3.7.1, https://matplotlib.org/</dc:title>
     </cc:Agent>
    </dc:creator>
   </cc:Work>
  </rdf:RDF>
 </metadata>
 <defs>
  <style type="text/css">*{stroke-linejoin: round; stroke-linecap: butt}</style>
 </defs>
 <g id="figure_1">
  <g id="patch_1">
   <path d="M 0 230.4 
L 288 230.4 
L 288 0 
L 0 0 
z
" style="fill: #ffffff"/>
  </g>
  <g id="axes_1">
   <g id="patch_2">
    <path d="M 30.384396 198.465354 
L 284.674284 198.465354 
L 284.674284 18.914646 
L 30.384396 18.914646 
z
" style="fill: #ffffff"/>
   </g>
   <g id="matplotlib.axis_1">
    <g id="xtick_1">
     <g id="line2d_1">
      <path d="M 37.581279 198.465354 
L 37.581279 18.914646 
" clip-path="url(#p2dc198ad70)" style="fill: none; stroke: #222255; stroke-opacity: 0.1; stroke-width: 0.5; stroke-linecap: square"/>
     </g>
     <g id="line2d_2">
      <defs>
       <path id="m157cd6017a" d="M 0 0 
L 0 -2.5 
" style="stroke: #222255; stroke-opacity: 0.1; stroke-width: 0.5"/>
      </defs>
      <g>
       <use xlink:href="#m157cd6017a" x="37.581279" y="198.465354" style="fill: #222255; fill-opacity: 0.1; stroke: #222255; stroke-opacity: 0.1; stroke-width: 0.5"/>
      </g>
     </g>
     <g id="text_1">
      <!-- $0.0$ -->
      <g transform="translate(31.181279 208.044104) scale(0.08 -0.08)">
       <defs>
        <path id="DejaVuSerif-30" d="M 2034 219 
Q 2513 219 2750 744 
Q 2988 1269 2988 2328 
Q 2988 3391 2750 3916 
Q 2513 4441 2034 4441 
Q 1556 4441 1318 3916 
Q 1081 3391 1081 2328 
Q 1081 1269 1318 744 
Q 1556 219 2034 219 
z
M 2034 -91 
Q 1275 -91 848 546 
Q 422 1184 422 2328 
Q 422 3475 848 4112 
Q 1275 4750 2034 4750 
Q 2797 4750 3222 4112 
Q 3647 3475 3647 2328 
Q 3647 1184 3222 546 
Q 2797 -91 2034 -91 
z
" transform="scale(0.015625)"/>
        <path id="DejaVuSerif-2e" d="M 603 325 
Q 603 500 722 622 
Q 841 744 1019 744 
Q 1191 744 1312 622 
Q 1434 500 1434 325 
Q 1434 153 1312 31 
Q 1191 -91 1019 -91 
Q 841 -91 722 29 
Q 603 150 603 325 
z
" transform="scale(0.015625)"/>
       </defs>
       <use xlink:href="#DejaVuSerif-30" transform="translate(0 0.78125)"/>
       <use xlink:href="#DejaVuSerif-2e" transform="translate(63.623047 0.78125)"/>
       <use xlink:href="#DejaVuSerif-30" transform="translate(95.410156 0.78125)"/>
      </g>
     </g>
    </g>
    <g id="xtick_2">
     <g id="line2d_3">
      <path d="M 117.546653 198.465354 
L 117.546653 18.914646 
" clip-path="url(#p2dc198ad70)" style="fill: none; stroke: #222255; stroke-opacity: 0.1; stroke-width: 0.5; stroke-linecap: square"/>
     </g>
     <g id="line2d_4">
      <g>
       <use xlink:href="#m157cd6017a" x="117.546653" y="198.465354" style="fill: #222255; fill-opacity: 0.1; stroke: #222255; stroke-opacity: 0.1; stroke-width: 0.5"/>
      </g>
     </g>
     <g id="text_2">
      <!-- $0.5$ -->
      <g transform="translate(111.146653 208.044104) scale(0.08 -0.08)">
       <defs>
        <path id="DejaVuSerif-35" d="M 3219 4666 
L 3219 4153 
L 1081 4153 
L 1081 2816 
Q 1244 2928 1461 2984 
Q 1678 3041 1947 3041 
Q 2703 3041 3140 2622 
Q 3578 2203 3578 1478 
Q 3578 738 3136 323 
Q 2694 -91 1894 -91 
Q 1572 -91 1234 -12 
Q 897 66 544 225 
L 544 1131 
L 897 1131 
Q 925 688 1179 453 
Q 1434 219 1894 219 
Q 2388 219 2653 544 
Q 2919 869 2919 1478 
Q 2919 2084 2655 2407 
Q 2391 2731 1894 2731 
Q 1613 2731 1398 2631 
Q 1184 2531 1019 2322 
L 750 2322 
L 750 4666 
L 3219 4666 
z
" transform="scale(0.015625)"/>
       </defs>
       <use xlink:href="#DejaVuSerif-30" transform="translate(0 0.78125)"/>
       <use xlink:href="#DejaVuSerif-2e" transform="translate(63.623047 0.78125)"/>
       <use xlink:href="#DejaVuSerif-35" transform="translate(95.410156 0.78125)"/>
      </g>
     </g>
    </g>
    <g id="xtick_3">
     <g id="line2d_5">
      <path d="M 197.512026 198.465354 
L 197.512026 18.914646 
" clip-path="url(#p2dc198ad70)" style="fill: none; stroke: #222255; stroke-opacity: 0.1; stroke-width: 0.5; stroke-linecap: square"/>
     </g>
     <g id="line2d_6">
      <g>
       <use xlink:href="#m157cd6017a" x="197.512026" y="198.465354" style="fill: #222255; fill-opacity: 0.1; stroke: #222255; stroke-opacity: 0.1; stroke-width: 0.5"/>
      </g>
     </g>
     <g id="text_3">
      <!-- $1.0$ -->
      <g transform="translate(191.112026 208.044104) scale(0.08 -0.08)">
       <defs>
        <path id="DejaVuSerif-31" d="M 909 0 
L 909 331 
L 1722 331 
L 1722 4213 
L 781 3603 
L 781 4013 
L 1919 4750 
L 2350 4750 
L 2350 331 
L 3163 331 
L 3163 0 
L 909 0 
z
" transform="scale(0.015625)"/>
       </defs>
       <use xlink:href="#DejaVuSerif-31" transform="translate(0 0.78125)"/>
       <use xlink:href="#DejaVuSerif-2e" transform="translate(63.623047 0.78125)"/>
       <use xlink:href="#DejaVuSerif-30" transform="translate(95.410156 0.78125)"/>
      </g>
     </g>
    </g>
    <g id="xtick_4">
     <g id="line2d_7">
      <path d="M 277.4774 198.465354 
L 277.4774 18.914646 
" clip-path="url(#p2dc198ad70)" style="fill: none; stroke: #222255; stroke-opacity: 0.1; stroke-width: 0.5; stroke-linecap: square"/>
     </g>
     <g id="line2d_8">
      <g>
       <use xlink:href="#m157cd6017a" x="277.4774" y="198.465354" style="fill: #222255; fill-opacity: 0.1; stroke: #222255; stroke-opacity: 0.1; stroke-width: 0.5"/>
      </g>
     </g>
     <g id="text_4">
      <!-- $1.5$ -->
      <g transform="translate(271.0774 208.044104) scale(0.08 -0.08)">
       <use xlink:href="#DejaVuSerif-31" transform="translate(0 0.78125)"/>
       <use xlink:href="#DejaVuSerif-2e" transform="translate(63.623047 0.78125)"/>
       <use xlink:href="#DejaVuSerif-35" transform="translate(95.410156 0.78125)"/>
      </g>
     </g>
    </g>
    <g id="xtick_5">
     <g id="line2d_9">
      <path d="M 53.574354 198.465354 
L 53.574354 18.914646 
" clip-path="url(#p2dc198ad70)" style="fill: none; stroke: #222255; stroke-opacity: 0.05; stroke-width: 0.5; stroke-linecap: square"/>
     </g>
     <g id="line2d_10">
      <defs>
       <path id="m55ed95ac68" d="M 0 0 
L 0 -0.5 
" style="stroke: #222255; stroke-opacity: 0.1; stroke-width: 0.6"/>
      </defs>
      <g>
       <use xlink:href="#m55ed95ac68" x="53.574354" y="198.465354" style="fill: #222255; fill-opacity: 0.1; stroke: #222255; stroke-opacity: 0.1; stroke-width: 0.6"/>
      </g>
     </g>
    </g>
    <g id="xtick_6">
     <g id="line2d_11">
      <path d="M 69.567429 198.465354 
L 69.567429 18.914646 
" clip-path="url(#p2dc198ad70)" style="fill: none; stroke: #222255; stroke-opacity: 0.05; stroke-width: 0.5; stroke-linecap: square"/>
     </g>
     <g id="line2d_12">
      <g>
       <use xlink:href="#m55ed95ac68" x="69.567429" y="198.465354" style="fill: #222255; fill-opacity: 0.1; stroke: #222255; stroke-opacity: 0.1; stroke-width: 0.6"/>
      </g>
     </g>
    </g>
    <g id="xtick_7">
     <g id="line2d_13">
      <path d="M 85.560503 198.465354 
L 85.560503 18.914646 
" clip-path="url(#p2dc198ad70)" style="fill: none; stroke: #222255; stroke-opacity: 0.05; stroke-width: 0.5; stroke-linecap: square"/>
     </g>
     <g id="line2d_14">
      <g>
       <use xlink:href="#m55ed95ac68" x="85.560503" y="198.465354" style="fill: #222255; fill-opacity: 0.1; stroke: #222255; stroke-opacity: 0.1; stroke-width: 0.6"/>
      </g>
     </g>
    </g>
    <g id="xtick_8">
     <g id="line2d_15">
      <path d="M 101.553578 198.465354 
L 101.553578 18.914646 
" clip-path="url(#p2dc198ad70)" style="fill: none; stroke: #222255; stroke-opacity: 0.05; stroke-width: 0.5; stroke-linecap: square"/>
     </g>
     <g id="line2d_16">
      <g>
       <use xlink:href="#m55ed95ac68" x="101.553578" y="198.465354" style="fill: #222255; fill-opacity: 0.1; stroke: #222255; stroke-opacity: 0.1; stroke-width: 0.6"/>
      </g>
     </g>
    </g>
    <g id="xtick_9">
     <g id="line2d_17">
      <path d="M 133.539728 198.465354 
L 133.539728 18.914646 
" clip-path="url(#p2dc198ad70)" style="fill: none; stroke: #222255; stroke-opacity: 0.05; stroke-width: 0.5; stroke-linecap: square"/>
     </g>
     <g id="line2d_18">
      <g>
       <use xlink:href="#m55ed95ac68" x="133.539728" y="198.465354" style="fill: #222255; fill-opacity: 0.1; stroke: #222255; stroke-opacity: 0.1; stroke-width: 0.6"/>
      </g>
     </g>
    </g>
    <g id="xtick_10">
     <g id="line2d_19">
      <path d="M 149.532802 198.465354 
L 149.532802 18.914646 
" clip-path="url(#p2dc198ad70)" style="fill: none; stroke: #222255; stroke-opacity: 0.05; stroke-width: 0.5; stroke-linecap: square"/>
     </g>
     <g id="line2d_20">
      <g>
       <use xlink:href="#m55ed95ac68" x="149.532802" y="198.465354" style="fill: #222255; fill-opacity: 0.1; stroke: #222255; stroke-opacity: 0.1; stroke-width: 0.6"/>
      </g>
     </g>
    </g>
    <g id="xtick_11">
     <g id="line2d_21">
      <path d="M 165.525877 198.465354 
L 165.525877 18.914646 
" clip-path="url(#p2dc198ad70)" style="fill: none; stroke: #222255; stroke-opacity: 0.05; stroke-width: 0.5; stroke-linecap: square"/>
     </g>
     <g id="line2d_22">
      <g>
       <use xlink:href="#m55ed95ac68" x="165.525877" y="198.465354" style="fill: #222255; fill-opacity: 0.1; stroke: #222255; stroke-opacity: 0.1; stroke-width: 0.6"/>
      </g>
     </g>
    </g>
    <g id="xtick_12">
     <g id="line2d_23">
      <path d="M 181.518952 198.465354 
L 181.518952 18.914646 
" clip-path="url(#p2dc198ad70)" style="fill: none; stroke: #222255; stroke-opacity: 0.05; stroke-width: 0.5; stroke-linecap: square"/>
     </g>
     <g id="line2d_24">
      <g>
       <use xlink:href="#m55ed95ac68" x="181.518952" y="198.465354" style="fill: #222255; fill-opacity: 0.1; stroke: #222255; stroke-opacity: 0.1; stroke-width: 0.6"/>
      </g>
     </g>
    </g>
    <g id="xtick_13">
     <g id="line2d_25">
      <path d="M 213.505101 198.465354 
L 213.505101 18.914646 
" clip-path="url(#p2dc198ad70)" style="fill: none; stroke: #222255; stroke-opacity: 0.05; stroke-width: 0.5; stroke-linecap: square"/>
     </g>
     <g id="line2d_26">
      <g>
       <use xlink:href="#m55ed95ac68" x="213.505101" y="198.465354" style="fill: #222255; fill-opacity: 0.1; stroke: #222255; stroke-opacity: 0.1; stroke-width: 0.6"/>
      </g>
     </g>
    </g>
    <g id="xtick_14">
     <g id="line2d_27">
      <path d="M 229.498176 198.465354 
L 229.498176 18.914646 
" clip-path="url(#p2dc198ad70)" style="fill: none; stroke: #222255; stroke-opacity: 0.05; stroke-width: 0.5; stroke-linecap: square"/>
     </g>
     <g id="line2d_28">
      <g>
       <use xlink:href="#m55ed95ac68" x="229.498176" y="198.465354" style="fill: #222255; fill-opacity: 0.1; stroke: #222255; stroke-opacity: 0.1; stroke-width: 0.6"/>
      </g>
     </g>
    </g>
    <g id="xtick_15">
     <g id="line2d_29">
      <path d="M 245.491251 198.465354 
L 245.491251 18.914646 
" clip-path="url(#p2dc198ad70)" style="fill: none; stroke: #222255; stroke-opacity: 0.05; stroke-width: 0.5; stroke-linecap: square"/>
     </g>
     <g id="line2d_30">
      <g>
       <use xlink:href="#m55ed95ac68" x="245.491251" y="198.465354" style="fill: #222255; fill-opacity: 0.1; stroke: #222255; stroke-opacity: 0.1; stroke-width: 0.6"/>
      </g>
     </g>
    </g>
    <g id="xtick_16">
     <g id="line2d_31">
      <path d="M 261.484325 198.465354 
L 261.484325 18.914646 
" clip-path="url(#p2dc198ad70)" style="fill: none; stroke: #222255; stroke-opacity: 0.05; stroke-width: 0.5; stroke-linecap: square"/>
     </g>
     <g id="line2d_32">
      <g>
       <use xlink:href="#m55ed95ac68" x="261.484325" y="198.465354" style="fill: #222255; fill-opacity: 0.1; stroke: #222255; stroke-opacity: 0.1; stroke-width: 0.6"/>
      </g>
     </g>
    </g>
    <g id="text_5">
     <!-- $\phi$ -->
     <g transform="translate(153.73434 222.067854) scale(0.11 -0.11)">
      <defs>
       <path id="DejaVuSerif-Italic-3d5" d="M 2169 234 
Q 2731 297 2975 584 
Q 3281 950 3420 1662 
Q 3559 2375 3394 2738 
Q 3263 3031 2722 3091 
L 2169 234 
z
M 1863 -1331 
L 1284 -1331 
L 1528 -81 
Q 706 -16 413 388 
Q 66 869 220 1662 
Q 375 2456 906 2934 
Q 1356 3338 2206 3403 
L 2491 4863 
L 3069 4863 
L 2784 3403 
Q 3606 3338 3900 2934 
Q 4247 2456 4092 1662 
Q 3938 869 3403 388 
Q 2953 -16 2106 -81 
L 1863 -1331 
z
M 1591 234 
L 2144 3091 
Q 1581 3031 1338 2738 
Q 1031 2375 892 1662 
Q 753 950 922 584 
Q 1050 297 1591 234 
z
" transform="scale(0.015625)"/>
      </defs>
      <use xlink:href="#DejaVuSerif-Italic-3d5" transform="translate(0 0.015625)"/>
     </g>
    </g>
   </g>
   <g id="matplotlib.axis_2">
    <g id="ytick_1">
     <g id="line2d_33">
      <path d="M 30.384396 193.383731 
L 284.674284 193.383731 
" clip-path="url(#p2dc198ad70)" style="fill: none; stroke: #222255; stroke-opacity: 0.1; stroke-width: 0.5; stroke-linecap: square"/>
     </g>
     <g id="line2d_34">
      <defs>
       <path id="m0e4157ac68" d="M 0 0 
L 2.5 0 
" style="stroke: #222255; stroke-opacity: 0.1; stroke-width: 0.5"/>
      </defs>
      <g>
       <use xlink:href="#m0e4157ac68" x="30.384396" y="193.383731" style="fill: #222255; fill-opacity: 0.1; stroke: #222255; stroke-opacity: 0.1; stroke-width: 0.5"/>
      </g>
     </g>
     <g id="text_6">
      <!-- $0$ -->
      <g transform="translate(21.764396 196.423106) scale(0.08 -0.08)">
       <use xlink:href="#DejaVuSerif-30" transform="translate(0 0.78125)"/>
      </g>
     </g>
    </g>
    <g id="ytick_2">
     <g id="line2d_35">
      <path d="M 30.384396 153.581217 
L 284.674284 153.581217 
" clip-path="url(#p2dc198ad70)" style="fill: none; stroke: #222255; stroke-opacity: 0.1; stroke-width: 0.5; stroke-linecap: square"/>
     </g>
     <g id="line2d_36">
      <g>
       <use xlink:href="#m0e4157ac68" x="30.384396" y="153.581217" style="fill: #222255; fill-opacity: 0.1; stroke: #222255; stroke-opacity: 0.1; stroke-width: 0.5"/>
      </g>
     </g>
     <g id="text_7">
      <!-- $1$ -->
      <g transform="translate(21.764396 156.620592) scale(0.08 -0.08)">
       <use xlink:href="#DejaVuSerif-31" transform="translate(0 0.78125)"/>
      </g>
     </g>
    </g>
    <g id="ytick_3">
     <g id="line2d_37">
      <path d="M 30.384396 113.778703 
L 284.674284 113.778703 
" clip-path="url(#p2dc198ad70)" style="fill: none; stroke: #222255; stroke-opacity: 0.1; stroke-width: 0.5; stroke-linecap: square"/>
     </g>
     <g id="line2d_38">
      <g>
       <use xlink:href="#m0e4157ac68" x="30.384396" y="113.778703" style="fill: #222255; fill-opacity: 0.1; stroke: #222255; stroke-opacity: 0.1; stroke-width: 0.5"/>
      </g>
     </g>
     <g id="text_8">
      <!-- $2$ -->
      <g transform="translate(21.764396 116.818078) scale(0.08 -0.08)">
       <defs>
        <path id="DejaVuSerif-32" d="M 819 3553 
L 469 3553 
L 469 4384 
Q 803 4563 1142 4656 
Q 1481 4750 1806 4750 
Q 2534 4750 2956 4397 
Q 3378 4044 3378 3438 
Q 3378 2753 2422 1800 
Q 2347 1728 2309 1691 
L 1131 513 
L 3078 513 
L 3078 1088 
L 3444 1088 
L 3444 0 
L 434 0 
L 434 341 
L 1850 1753 
Q 2319 2222 2519 2614 
Q 2719 3006 2719 3438 
Q 2719 3909 2473 4175 
Q 2228 4441 1797 4441 
Q 1350 4441 1106 4219 
Q 863 3997 819 3553 
z
" transform="scale(0.015625)"/>
       </defs>
       <use xlink:href="#DejaVuSerif-32" transform="translate(0 0.78125)"/>
      </g>
     </g>
    </g>
    <g id="ytick_4">
     <g id="line2d_39">
      <path d="M 30.384396 73.97619 
L 284.674284 73.97619 
" clip-path="url(#p2dc198ad70)" style="fill: none; stroke: #222255; stroke-opacity: 0.1; stroke-width: 0.5; stroke-linecap: square"/>
     </g>
     <g id="line2d_40">
      <g>
       <use xlink:href="#m0e4157ac68" x="30.384396" y="73.97619" style="fill: #222255; fill-opacity: 0.1; stroke: #222255; stroke-opacity: 0.1; stroke-width: 0.5"/>
      </g>
     </g>
     <g id="text_9">
      <!-- $3$ -->
      <g transform="translate(21.764396 77.015565) scale(0.08 -0.08)">
       <defs>
        <path id="DejaVuSerif-33" d="M 622 4469 
Q 988 4606 1323 4678 
Q 1659 4750 1953 4750 
Q 2638 4750 3022 4454 
Q 3406 4159 3406 3634 
Q 3406 3213 3140 2930 
Q 2875 2647 2388 2547 
Q 2963 2466 3280 2130 
Q 3597 1794 3597 1259 
Q 3597 606 3158 257 
Q 2719 -91 1894 -91 
Q 1528 -91 1179 -12 
Q 831 66 488 225 
L 488 1131 
L 838 1131 
Q 869 681 1141 450 
Q 1413 219 1906 219 
Q 2384 219 2661 495 
Q 2938 772 2938 1253 
Q 2938 1803 2653 2086 
Q 2369 2369 1819 2369 
L 1522 2369 
L 1522 2688 
L 1678 2688 
Q 2225 2688 2498 2914 
Q 2772 3141 2772 3597 
Q 2772 4006 2547 4223 
Q 2322 4441 1900 4441 
Q 1478 4441 1245 4241 
Q 1013 4041 972 3647 
L 622 3647 
L 622 4469 
z
" transform="scale(0.015625)"/>
       </defs>
       <use xlink:href="#DejaVuSerif-33" transform="translate(0 0.78125)"/>
      </g>
     </g>
    </g>
    <g id="ytick_5">
     <g id="line2d_41">
      <path d="M 30.384396 34.173676 
L 284.674284 34.173676 
" clip-path="url(#p2dc198ad70)" style="fill: none; stroke: #222255; stroke-opacity: 0.1; stroke-width: 0.5; stroke-linecap: square"/>
     </g>
     <g id="line2d_42">
      <g>
       <use xlink:href="#m0e4157ac68" x="30.384396" y="34.173676" style="fill: #222255; fill-opacity: 0.1; stroke: #222255; stroke-opacity: 0.1; stroke-width: 0.5"/>
      </g>
     </g>
     <g id="text_10">
      <!-- $4$ -->
      <g transform="translate(21.764396 37.213051) scale(0.08 -0.08)">
       <defs>
        <path id="DejaVuSerif-34" d="M 2234 1581 
L 2234 4063 
L 641 1581 
L 2234 1581 
z
M 3609 0 
L 1484 0 
L 1484 331 
L 2234 331 
L 2234 1247 
L 197 1247 
L 197 1588 
L 2241 4750 
L 2859 4750 
L 2859 1581 
L 3750 1581 
L 3750 1247 
L 2859 1247 
L 2859 331 
L 3609 331 
L 3609 0 
z
" transform="scale(0.015625)"/>
       </defs>
       <use xlink:href="#DejaVuSerif-34" transform="translate(0 0.78125)"/>
      </g>
     </g>
    </g>
    <g id="ytick_6">
     <g id="line2d_43">
      <path d="M 30.384396 185.423228 
L 284.674284 185.423228 
" clip-path="url(#p2dc198ad70)" style="fill: none; stroke: #222255; stroke-opacity: 0.05; stroke-width: 0.5; stroke-linecap: square"/>
     </g>
     <g id="line2d_44">
      <defs>
       <path id="m204bae7e16" d="M 0 0 
L 0.5 0 
" style="stroke: #222255; stroke-opacity: 0.1; stroke-width: 0.6"/>
      </defs>
      <g>
       <use xlink:href="#m204bae7e16" x="30.384396" y="185.423228" style="fill: #222255; fill-opacity: 0.1; stroke: #222255; stroke-opacity: 0.1; stroke-width: 0.6"/>
      </g>
     </g>
    </g>
    <g id="ytick_7">
     <g id="line2d_45">
      <path d="M 30.384396 177.462725 
L 284.674284 177.462725 
" clip-path="url(#p2dc198ad70)" style="fill: none; stroke: #222255; stroke-opacity: 0.05; stroke-width: 0.5; stroke-linecap: square"/>
     </g>
     <g id="line2d_46">
      <g>
       <use xlink:href="#m204bae7e16" x="30.384396" y="177.462725" style="fill: #222255; fill-opacity: 0.1; stroke: #222255; stroke-opacity: 0.1; stroke-width: 0.6"/>
      </g>
     </g>
    </g>
    <g id="ytick_8">
     <g id="line2d_47">
      <path d="M 30.384396 169.502222 
L 284.674284 169.502222 
" clip-path="url(#p2dc198ad70)" style="fill: none; stroke: #222255; stroke-opacity: 0.05; stroke-width: 0.5; stroke-linecap: square"/>
     </g>
     <g id="line2d_48">
      <g>
       <use xlink:href="#m204bae7e16" x="30.384396" y="169.502222" style="fill: #222255; fill-opacity: 0.1; stroke: #222255; stroke-opacity: 0.1; stroke-width: 0.6"/>
      </g>
     </g>
    </g>
    <g id="ytick_9">
     <g id="line2d_49">
      <path d="M 30.384396 161.54172 
L 284.674284 161.54172 
" clip-path="url(#p2dc198ad70)" style="fill: none; stroke: #222255; stroke-opacity: 0.05; stroke-width: 0.5; stroke-linecap: square"/>
     </g>
     <g id="line2d_50">
      <g>
       <use xlink:href="#m204bae7e16" x="30.384396" y="161.54172" style="fill: #222255; fill-opacity: 0.1; stroke: #222255; stroke-opacity: 0.1; stroke-width: 0.6"/>
      </g>
     </g>
    </g>
    <g id="ytick_10">
     <g id="line2d_51">
      <path d="M 30.384396 145.620714 
L 284.674284 145.620714 
" clip-path="url(#p2dc198ad70)" style="fill: none; stroke: #222255; stroke-opacity: 0.05; stroke-width: 0.5; stroke-linecap: square"/>
     </g>
     <g id="line2d_52">
      <g>
       <use xlink:href="#m204bae7e16" x="30.384396" y="145.620714" style="fill: #222255; fill-opacity: 0.1; stroke: #222255; stroke-opacity: 0.1; stroke-width: 0.6"/>
      </g>
     </g>
    </g>
    <g id="ytick_11">
     <g id="line2d_53">
      <path d="M 30.384396 137.660211 
L 284.674284 137.660211 
" clip-path="url(#p2dc198ad70)" style="fill: none; stroke: #222255; stroke-opacity: 0.05; stroke-width: 0.5; stroke-linecap: square"/>
     </g>
     <g id="line2d_54">
      <g>
       <use xlink:href="#m204bae7e16" x="30.384396" y="137.660211" style="fill: #222255; fill-opacity: 0.1; stroke: #222255; stroke-opacity: 0.1; stroke-width: 0.6"/>
      </g>
     </g>
    </g>
    <g id="ytick_12">
     <g id="line2d_55">
      <path d="M 30.384396 129.699709 
L 284.674284 129.699709 
" clip-path="url(#p2dc198ad70)" style="fill: none; stroke: #222255; stroke-opacity: 0.05; stroke-width: 0.5; stroke-linecap: square"/>
     </g>
     <g id="line2d_56">
      <g>
       <use xlink:href="#m204bae7e16" x="30.384396" y="129.699709" style="fill: #222255; fill-opacity: 0.1; stroke: #222255; stroke-opacity: 0.1; stroke-width: 0.6"/>
      </g>
     </g>
    </g>
    <g id="ytick_13">
     <g id="line2d_57">
      <path d="M 30.384396 121.739206 
L 284.674284 121.739206 
" clip-path="url(#p2dc198ad70)" style="fill: none; stroke: #222255; stroke-opacity: 0.05; stroke-width: 0.5; stroke-linecap: square"/>
     </g>
     <g id="line2d_58">
      <g>
       <use xlink:href="#m204bae7e16" x="30.384396" y="121.739206" style="fill: #222255; fill-opacity: 0.1; stroke: #222255; stroke-opacity: 0.1; stroke-width: 0.6"/>
      </g>
     </g>
    </g>
    <g id="ytick_14">
     <g id="line2d_59">
      <path d="M 30.384396 105.8182 
L 284.674284 105.8182 
" clip-path="url(#p2dc198ad70)" style="fill: none; stroke: #222255; stroke-opacity: 0.05; stroke-width: 0.5; stroke-linecap: square"/>
     </g>
     <g id="line2d_60">
      <g>
       <use xlink:href="#m204bae7e16" x="30.384396" y="105.8182" style="fill: #222255; fill-opacity: 0.1; stroke: #222255; stroke-opacity: 0.1; stroke-width: 0.6"/>
      </g>
     </g>
    </g>
    <g id="ytick_15">
     <g id="line2d_61">
      <path d="M 30.384396 97.857698 
L 284.674284 97.857698 
" clip-path="url(#p2dc198ad70)" style="fill: none; stroke: #222255; stroke-opacity: 0.05; stroke-width: 0.5; stroke-linecap: square"/>
     </g>
     <g id="line2d_62">
      <g>
       <use xlink:href="#m204bae7e16" x="30.384396" y="97.857698" style="fill: #222255; fill-opacity: 0.1; stroke: #222255; stroke-opacity: 0.1; stroke-width: 0.6"/>
      </g>
     </g>
    </g>
    <g id="ytick_16">
     <g id="line2d_63">
      <path d="M 30.384396 89.897195 
L 284.674284 89.897195 
" clip-path="url(#p2dc198ad70)" style="fill: none; stroke: #222255; stroke-opacity: 0.05; stroke-width: 0.5; stroke-linecap: square"/>
     </g>
     <g id="line2d_64">
      <g>
       <use xlink:href="#m204bae7e16" x="30.384396" y="89.897195" style="fill: #222255; fill-opacity: 0.1; stroke: #222255; stroke-opacity: 0.1; stroke-width: 0.6"/>
      </g>
     </g>
    </g>
    <g id="ytick_17">
     <g id="line2d_65">
      <path d="M 30.384396 81.936692 
L 284.674284 81.936692 
" clip-path="url(#p2dc198ad70)" style="fill: none; stroke: #222255; stroke-opacity: 0.05; stroke-width: 0.5; stroke-linecap: square"/>
     </g>
     <g id="line2d_66">
      <g>
       <use xlink:href="#m204bae7e16" x="30.384396" y="81.936692" style="fill: #222255; fill-opacity: 0.1; stroke: #222255; stroke-opacity: 0.1; stroke-width: 0.6"/>
      </g>
     </g>
    </g>
    <g id="ytick_18">
     <g id="line2d_67">
      <path d="M 30.384396 66.015687 
L 284.674284 66.015687 
" clip-path="url(#p2dc198ad70)" style="fill: none; stroke: #222255; stroke-opacity: 0.05; stroke-width: 0.5; stroke-linecap: square"/>
     </g>
     <g id="line2d_68">
      <g>
       <use xlink:href="#m204bae7e16" x="30.384396" y="66.015687" style="fill: #222255; fill-opacity: 0.1; stroke: #222255; stroke-opacity: 0.1; stroke-width: 0.6"/>
      </g>
     </g>
    </g>
    <g id="ytick_19">
     <g id="line2d_69">
      <path d="M 30.384396 58.055184 
L 284.674284 58.055184 
" clip-path="url(#p2dc198ad70)" style="fill: none; stroke: #222255; stroke-opacity: 0.05; stroke-width: 0.5; stroke-linecap: square"/>
     </g>
     <g id="line2d_70">
      <g>
       <use xlink:href="#m204bae7e16" x="30.384396" y="58.055184" style="fill: #222255; fill-opacity: 0.1; stroke: #222255; stroke-opacity: 0.1; stroke-width: 0.6"/>
      </g>
     </g>
    </g>
    <g id="ytick_20">
     <g id="line2d_71">
      <path d="M 30.384396 50.094681 
L 284.674284 50.094681 
" clip-path="url(#p2dc198ad70)" style="fill: none; stroke: #222255; stroke-opacity: 0.05; stroke-width: 0.5; stroke-linecap: square"/>
     </g>
     <g id="line2d_72">
      <g>
       <use xlink:href="#m204bae7e16" x="30.384396" y="50.094681" style="fill: #222255; fill-opacity: 0.1; stroke: #222255; stroke-opacity: 0.1; stroke-width: 0.6"/>
      </g>
     </g>
    </g>
    <g id="ytick_21">
     <g id="line2d_73">
      <path d="M 30.384396 42.134179 
L 284.674284 42.134179 
" clip-path="url(#p2dc198ad70)" style="fill: none; stroke: #222255; stroke-opacity: 0.05; stroke-width: 0.5; stroke-linecap: square"/>
     </g>
     <g id="line2d_74">
      <g>
       <use xlink:href="#m204bae7e16" x="30.384396" y="42.134179" style="fill: #222255; fill-opacity: 0.1; stroke: #222255; stroke-opacity: 0.1; stroke-width: 0.6"/>
      </g>
     </g>
    </g>
    <g id="ytick_22">
     <g id="line2d_75">
      <path d="M 30.384396 26.213173 
L 284.674284 26.213173 
" clip-path="url(#p2dc198ad70)" style="fill: none; stroke: #222255; stroke-opacity: 0.05; stroke-width: 0.5; stroke-linecap: square"/>
     </g>
     <g id="line2d_76">
      <g>
       <use xlink:href="#m204bae7e16" x="30.384396" y="26.213173" style="fill: #222255; fill-opacity: 0.1; stroke: #222255; stroke-opacity: 0.1; stroke-width: 0.6"/>
      </g>
     </g>
    </g>
    <g id="text_11">
     <!-- $f_\phi$ -->
     <g transform="translate(14.354396 113.53) rotate(-90) scale(0.11 -0.11)">
      <defs>
       <path id="DejaVuSerif-Italic-66" d="M 3191 4078 
L 2888 4078 
Q 2900 4144 2900 4203 
Q 2900 4347 2825 4434 
Q 2719 4556 2472 4556 
Q 2150 4556 1984 4379 
Q 1819 4203 1731 3750 
L 1647 3322 
L 2575 3322 
L 2509 2988 
L 1581 2988 
L 963 -206 
Q 853 -763 509 -1047 
Q 166 -1331 -394 -1331 
L -356 -1025 
Q -28 -1025 131 -850 
Q 297 -663 388 -206 
L 1006 2988 
L 456 2988 
L 522 3322 
L 1072 3322 
L 1153 3738 
Q 1263 4297 1606 4578 
Q 1950 4863 2509 4863 
Q 2719 4863 2920 4825 
Q 3122 4788 3316 4709 
L 3191 4078 
z
" transform="scale(0.015625)"/>
      </defs>
      <use xlink:href="#DejaVuSerif-Italic-66" transform="translate(0 0.015625)"/>
      <use xlink:href="#DejaVuSerif-Italic-3d5" transform="translate(37.011719 -15.55625) scale(0.7)"/>
     </g>
    </g>
   </g>
   <g id="line2d_77">
    <path d="M 37.581279 193.383731 
L 42.384004 135.831478 
L 45.025503 106.912203 
L 47.18673 85.694909 
L 49.10782 69.108529 
L 50.788773 56.570275 
L 52.229591 47.394313 
L 53.670409 39.725277 
L 54.87109 34.505764 
L 56.071771 30.354174 
L 57.032316 27.795849 
L 57.992861 25.905209 
L 58.71327 24.916967 
L 59.433679 24.288836 
L 60.154087 24.012098 
L 60.63436 24.018009 
L 61.354769 24.304543 
L 62.075178 24.913962 
L 62.795586 25.833847 
L 63.756131 27.520347 
L 64.716676 29.701923 
L 65.917358 33.07143 
L 67.118039 37.087772 
L 68.558856 42.656745 
L 70.23981 50.022377 
L 72.401037 60.549894 
L 75.522808 77.061602 
L 82.486759 114.36824 
L 85.128258 127.243403 
L 87.529621 137.91953 
L 89.690847 146.586381 
L 91.852073 154.319647 
L 93.773163 160.408195 
L 95.694253 165.777113 
L 97.615344 170.46056 
L 99.536434 174.503546 
L 101.217387 177.556784 
L 102.898341 180.19743 
L 104.579295 182.464322 
L 106.260249 184.396211 
L 107.941203 186.030834 
L 109.862293 187.581067 
L 111.783383 188.840084 
L 113.944609 189.964968 
L 116.105835 190.836426 
L 118.507198 191.567673 
L 121.388833 192.192702 
L 124.750741 192.67127 
L 128.833057 193.013721 
L 134.356191 193.239289 
L 143.481369 193.357071 
L 170.616766 193.383665 
L 277.4774 193.383731 
L 277.4774 193.383731 
" clip-path="url(#p2dc198ad70)" style="fill: none; stroke: #4c72b0; stroke-width: 1.2"/>
   </g>
   <g id="line2d_78">
    <path d="M 37.581279 193.383731 
L 84.647986 193.276254 
L 92.09221 193.029883 
L 96.894935 192.665992 
L 100.737115 192.162481 
L 103.858886 191.544237 
L 106.740521 190.745803 
L 109.141884 189.866904 
L 111.543246 188.749457 
L 113.704473 187.501831 
L 115.865699 185.988035 
L 117.786789 184.389251 
L 119.707879 182.525306 
L 121.628969 180.371345 
L 123.550059 177.904423 
L 125.471149 175.104605 
L 127.632376 171.537499 
L 129.793602 167.515239 
L 131.954828 163.034707 
L 134.356191 157.531438 
L 136.99769 150.881852 
L 139.879325 143.011188 
L 143.721505 131.792838 
L 152.126274 106.973108 
L 154.767773 99.984697 
L 156.928999 94.856198 
L 158.850089 90.852358 
L 160.531043 87.843289 
L 161.97186 85.669086 
L 163.412678 83.895697 
L 164.613359 82.739292 
L 165.814041 81.885398 
L 167.014722 81.341083 
L 167.975267 81.131636 
L 168.935812 81.124334 
L 169.896357 81.319171 
L 170.856902 81.715056 
L 172.057583 82.489219 
L 173.258265 83.567476 
L 174.458946 84.940763 
L 175.899763 86.961899 
L 177.340581 89.367393 
L 179.021535 92.622005 
L 180.942625 96.870194 
L 183.103851 102.222737 
L 185.74535 109.40736 
L 189.347394 119.926923 
L 197.512026 143.987841 
L 200.633798 152.370986 
L 203.275297 158.85751 
L 205.676659 164.204901 
L 208.078022 168.998737 
L 210.239248 172.833619 
L 212.400474 176.221739 
L 214.561701 179.180604 
L 216.722927 181.735397 
L 218.884153 183.916826 
L 221.04538 185.759128 
L 223.206606 187.298287 
L 225.367832 188.570532 
L 227.769195 189.713908 
L 230.170557 190.616778 
L 232.812056 191.381619 
L 235.933828 192.041409 
L 239.535871 192.557077 
L 243.858324 192.936761 
L 249.621594 193.197618 
L 258.2665 193.339403 
L 277.4774 193.382641 
L 277.4774 193.382641 
" clip-path="url(#p2dc198ad70)" style="fill: none; stroke: #55a868; stroke-width: 1.2"/>
   </g>
   <g id="line2d_79">
    <path d="M 37.581279 193.383731 
L 43.344549 178.860451 
L 46.706457 169.791049 
L 49.828228 160.745615 
L 52.95 151.037934 
L 56.552044 139.090177 
L 62.795586 117.398467 
L 66.877903 103.659829 
L 69.519401 95.510384 
L 71.680628 89.511322 
L 73.601718 84.813223 
L 75.282672 81.270212 
L 76.723489 78.699886 
L 78.164307 76.59198 
L 79.364988 75.206454 
L 80.565669 74.170166 
L 81.526214 73.59806 
L 82.486759 73.257285 
L 83.447304 73.149175 
L 84.407849 73.273741 
L 85.368394 73.629674 
L 86.328939 74.214363 
L 87.529621 75.260869 
L 88.730302 76.64834 
L 89.930983 78.363617 
L 91.371801 80.83221 
L 93.052755 84.2371 
L 94.733708 88.151692 
L 96.654799 93.166649 
L 99.056161 100.094337 
L 102.177932 109.866799 
L 113.2242 145.179001 
L 116.105835 153.266385 
L 118.507198 159.39252 
L 120.90856 164.912228 
L 123.069787 169.346188 
L 125.231013 173.277046 
L 127.392239 176.720193 
L 129.313329 179.391594 
L 131.23442 181.72022 
L 133.15551 183.731976 
L 135.0766 185.454736 
L 137.237826 187.083206 
L 139.399052 188.423098 
L 141.560279 189.513803 
L 143.961641 190.478328 
L 146.60314 191.291668 
L 149.484775 191.944303 
L 152.846683 192.472142 
L 156.928999 192.875613 
L 162.211997 193.156513 
L 169.896357 193.319794 
L 185.74535 193.38048 
L 277.4774 193.383731 
L 277.4774 193.383731 
" clip-path="url(#p2dc198ad70)" style="fill: none; stroke: #c44e52; stroke-width: 1.2"/>
   </g>
   <g id="text_12">
    <!-- Densidades Condicionales -->
    <g transform="translate(64.511371 12.914646) scale(0.14 -0.14)">
     <defs>
      <path id="DejaVuSerif-44" d="M 1581 331 
L 2163 331 
Q 3072 331 3558 850 
Q 4044 1369 4044 2338 
Q 4044 3306 3559 3818 
Q 3075 4331 2163 4331 
L 1581 4331 
L 1581 331 
z
M 353 0 
L 353 331 
L 947 331 
L 947 4331 
L 353 4331 
L 353 4666 
L 2209 4666 
Q 3416 4666 4089 4050 
Q 4763 3434 4763 2338 
Q 4763 1238 4088 619 
Q 3413 0 2209 0 
L 353 0 
z
" transform="scale(0.015625)"/>
      <path id="DejaVuSerif-65" d="M 3469 1600 
L 991 1600 
L 991 1575 
Q 991 903 1244 561 
Q 1497 219 1991 219 
Q 2369 219 2611 417 
Q 2853 616 2950 1006 
L 3413 1006 
Q 3275 459 2904 184 
Q 2534 -91 1931 -91 
Q 1203 -91 761 389 
Q 319 869 319 1663 
Q 319 2450 753 2931 
Q 1188 3413 1894 3413 
Q 2647 3413 3050 2948 
Q 3453 2484 3469 1600 
z
M 2791 1931 
Q 2772 2513 2545 2808 
Q 2319 3103 1894 3103 
Q 1497 3103 1269 2806 
Q 1041 2509 991 1931 
L 2791 1931 
z
" transform="scale(0.015625)"/>
      <path id="DejaVuSerif-6e" d="M 263 0 
L 263 331 
L 781 331 
L 781 2988 
L 231 2988 
L 231 3322 
L 1356 3322 
L 1356 2731 
Q 1516 3069 1770 3241 
Q 2025 3413 2363 3413 
Q 2913 3413 3172 3097 
Q 3431 2781 3431 2113 
L 3431 331 
L 3944 331 
L 3944 0 
L 2356 0 
L 2356 331 
L 2853 331 
L 2853 1931 
Q 2853 2541 2703 2767 
Q 2553 2994 2175 2994 
Q 1775 2994 1565 2701 
Q 1356 2409 1356 1850 
L 1356 331 
L 1856 331 
L 1856 0 
L 263 0 
z
" transform="scale(0.015625)"/>
      <path id="DejaVuSerif-73" d="M 359 184 
L 359 959 
L 691 959 
Q 703 588 923 403 
Q 1144 219 1575 219 
Q 1963 219 2166 364 
Q 2369 509 2369 788 
Q 2369 1006 2220 1140 
Q 2072 1275 1594 1428 
L 1178 1569 
Q 750 1706 558 1912 
Q 366 2119 366 2438 
Q 366 2894 700 3153 
Q 1034 3413 1625 3413 
Q 1888 3413 2178 3344 
Q 2469 3275 2778 3144 
L 2778 2419 
L 2447 2419 
Q 2434 2741 2221 2922 
Q 2009 3103 1644 3103 
Q 1281 3103 1095 2975 
Q 909 2847 909 2591 
Q 909 2381 1050 2254 
Q 1191 2128 1613 1997 
L 2069 1856 
Q 2541 1709 2748 1489 
Q 2956 1269 2956 922 
Q 2956 450 2595 179 
Q 2234 -91 1600 -91 
Q 1278 -91 972 -22 
Q 666 47 359 184 
z
" transform="scale(0.015625)"/>
      <path id="DejaVuSerif-69" d="M 622 4353 
Q 622 4497 726 4603 
Q 831 4709 978 4709 
Q 1122 4709 1226 4603 
Q 1331 4497 1331 4353 
Q 1331 4206 1228 4103 
Q 1125 4000 978 4000 
Q 831 4000 726 4103 
Q 622 4206 622 4353 
z
M 1356 331 
L 1900 331 
L 1900 0 
L 231 0 
L 231 331 
L 781 331 
L 781 2988 
L 231 2988 
L 231 3322 
L 1356 3322 
L 1356 331 
z
" transform="scale(0.015625)"/>
      <path id="DejaVuSerif-64" d="M 3359 331 
L 3909 331 
L 3909 0 
L 2784 0 
L 2784 519 
Q 2616 206 2355 57 
Q 2094 -91 1709 -91 
Q 1097 -91 708 395 
Q 319 881 319 1663 
Q 319 2444 706 2928 
Q 1094 3413 1709 3413 
Q 2094 3413 2355 3264 
Q 2616 3116 2784 2803 
L 2784 4531 
L 2241 4531 
L 2241 4863 
L 3359 4863 
L 3359 331 
z
M 2784 1497 
L 2784 1825 
Q 2784 2422 2554 2737 
Q 2325 3053 1888 3053 
Q 1444 3053 1217 2703 
Q 991 2353 991 1663 
Q 991 975 1217 622 
Q 1444 269 1888 269 
Q 2325 269 2554 583 
Q 2784 897 2784 1497 
z
" transform="scale(0.015625)"/>
      <path id="DejaVuSerif-61" d="M 2547 1044 
L 2547 1747 
L 1806 1747 
Q 1378 1747 1168 1562 
Q 959 1378 959 997 
Q 959 650 1171 447 
Q 1384 244 1747 244 
Q 2106 244 2326 466 
Q 2547 688 2547 1044 
z
M 3122 2075 
L 3122 331 
L 3634 331 
L 3634 0 
L 2547 0 
L 2547 359 
Q 2356 128 2106 18 
Q 1856 -91 1522 -91 
Q 969 -91 644 203 
Q 319 497 319 997 
Q 319 1513 691 1797 
Q 1063 2081 1741 2081 
L 2547 2081 
L 2547 2309 
Q 2547 2688 2317 2895 
Q 2088 3103 1672 3103 
Q 1328 3103 1125 2947 
Q 922 2791 872 2484 
L 575 2484 
L 575 3156 
Q 875 3284 1158 3348 
Q 1441 3413 1709 3413 
Q 2400 3413 2761 3070 
Q 3122 2728 3122 2075 
z
" transform="scale(0.015625)"/>
      <path id="DejaVuSerif-20" transform="scale(0.015625)"/>
      <path id="DejaVuSerif-43" d="M 4513 1234 
Q 4306 581 3820 245 
Q 3334 -91 2591 -91 
Q 2134 -91 1743 65 
Q 1353 222 1050 525 
Q 700 875 529 1320 
Q 359 1766 359 2328 
Q 359 3416 987 4083 
Q 1616 4750 2644 4750 
Q 3025 4750 3456 4650 
Q 3888 4550 4384 4347 
L 4384 3272 
L 4031 3272 
Q 3916 3859 3567 4137 
Q 3219 4416 2591 4416 
Q 1844 4416 1459 3886 
Q 1075 3356 1075 2328 
Q 1075 1303 1459 773 
Q 1844 244 2591 244 
Q 3113 244 3450 492 
Q 3788 741 3938 1234 
L 4513 1234 
z
" transform="scale(0.015625)"/>
      <path id="DejaVuSerif-6f" d="M 1925 219 
Q 2388 219 2623 584 
Q 2859 950 2859 1663 
Q 2859 2375 2623 2739 
Q 2388 3103 1925 3103 
Q 1463 3103 1227 2739 
Q 991 2375 991 1663 
Q 991 950 1228 584 
Q 1466 219 1925 219 
z
M 1925 -91 
Q 1200 -91 759 389 
Q 319 869 319 1663 
Q 319 2456 758 2934 
Q 1197 3413 1925 3413 
Q 2653 3413 3092 2934 
Q 3531 2456 3531 1663 
Q 3531 869 3092 389 
Q 2653 -91 1925 -91 
z
" transform="scale(0.015625)"/>
      <path id="DejaVuSerif-63" d="M 3291 997 
Q 3169 466 2822 187 
Q 2475 -91 1925 -91 
Q 1200 -91 759 389 
Q 319 869 319 1663 
Q 319 2459 759 2936 
Q 1200 3413 1925 3413 
Q 2241 3413 2553 3339 
Q 2866 3266 3181 3116 
L 3181 2266 
L 2847 2266 
Q 2781 2703 2561 2903 
Q 2341 3103 1931 3103 
Q 1466 3103 1228 2742 
Q 991 2381 991 1663 
Q 991 944 1227 581 
Q 1463 219 1931 219 
Q 2303 219 2525 412 
Q 2747 606 2828 997 
L 3291 997 
z
" transform="scale(0.015625)"/>
      <path id="DejaVuSerif-6c" d="M 1313 331 
L 1856 331 
L 1856 0 
L 184 0 
L 184 331 
L 738 331 
L 738 4531 
L 184 4531 
L 184 4863 
L 1313 4863 
L 1313 331 
z
" transform="scale(0.015625)"/>
     </defs>
     <use xlink:href="#DejaVuSerif-44"/>
     <use xlink:href="#DejaVuSerif-65" x="80.175781"/>
     <use xlink:href="#DejaVuSerif-6e" x="139.355469"/>
     <use xlink:href="#DejaVuSerif-73" x="203.759766"/>
     <use xlink:href="#DejaVuSerif-69" x="255.078125"/>
     <use xlink:href="#DejaVuSerif-64" x="287.060547"/>
     <use xlink:href="#DejaVuSerif-61" x="351.074219"/>
     <use xlink:href="#DejaVuSerif-64" x="410.693359"/>
     <use xlink:href="#DejaVuSerif-65" x="474.707031"/>
     <use xlink:href="#DejaVuSerif-73" x="533.886719"/>
     <use xlink:href="#DejaVuSerif-20" x="585.205078"/>
     <use xlink:href="#DejaVuSerif-43" x="616.992188"/>
     <use xlink:href="#DejaVuSerif-6f" x="693.505859"/>
     <use xlink:href="#DejaVuSerif-6e" x="753.710938"/>
     <use xlink:href="#DejaVuSerif-64" x="818.115234"/>
     <use xlink:href="#DejaVuSerif-69" x="882.128906"/>
     <use xlink:href="#DejaVuSerif-63" x="914.111328"/>
     <use xlink:href="#DejaVuSerif-69" x="970.117188"/>
     <use xlink:href="#DejaVuSerif-6f" x="1002.099609"/>
     <use xlink:href="#DejaVuSerif-6e" x="1062.304688"/>
     <use xlink:href="#DejaVuSerif-61" x="1126.708984"/>
     <use xlink:href="#DejaVuSerif-6c" x="1186.328125"/>
     <use xlink:href="#DejaVuSerif-65" x="1218.310547"/>
     <use xlink:href="#DejaVuSerif-73" x="1277.490234"/>
    </g>
   </g>
   <g id="legend_1">
    <g id="patch_3">
     <path d="M 164.674284 67.954646 
L 280.674284 67.954646 
L 280.674284 22.914646 
L 164.674284 22.914646 
z
" style="fill: #ffffff; opacity: 0.9; stroke: #222255; stroke-linejoin: miter"/>
    </g>
    <g id="line2d_80">
     <path d="M 171.074284 32.674646 
L 179.074284 32.674646 
L 187.074284 32.674646 
" style="fill: none; stroke: #4c72b0; stroke-linejoin: miter"/>
    </g>
    <g id="text_13">
     <!-- $\phi|H_0$ -->
     <g transform="translate(193.474284 35.474646) scale(0.08 -0.08)">
      <defs>
       <path id="DejaVuSans-Oblique-3d5" d="M 2991 4863 
L 2738 3572 
Q 3363 3572 3684 3094 
Q 4016 2606 3850 1747 
Q 3681 888 3159 400 
Q 2653 -78 2028 -78 
L 1784 -1331 
L 1213 -1331 
L 1456 -78 
Q 834 -78 509 400 
Q 178 888 347 1747 
Q 513 2606 1034 3094 
Q 1544 3572 2166 3572 
L 2419 4863 
L 2991 4863 
z
M 2128 434 
Q 2481 434 2784 756 
Q 3116 1116 3244 1747 
Q 3369 2372 3169 2738 
Q 2991 3059 2638 3059 
L 2128 434 
z
M 1556 434 
L 2066 3059 
Q 1716 3059 1413 2738 
Q 1072 2372 953 1747 
Q 834 1116 1028 756 
Q 1203 434 1556 434 
z
" transform="scale(0.015625)"/>
       <path id="DejaVuSans-7c" d="M 1344 4891 
L 1344 -1509 
L 813 -1509 
L 813 4891 
L 1344 4891 
z
" transform="scale(0.015625)"/>
       <path id="DejaVuSans-Oblique-48" d="M 1081 4666 
L 1716 4666 
L 1344 2753 
L 3634 2753 
L 4006 4666 
L 4641 4666 
L 3731 0 
L 3097 0 
L 3531 2222 
L 1241 2222 
L 806 0 
L 172 0 
L 1081 4666 
z
" transform="scale(0.015625)"/>
       <path id="DejaVuSans-30" d="M 2034 4250 
Q 1547 4250 1301 3770 
Q 1056 3291 1056 2328 
Q 1056 1369 1301 889 
Q 1547 409 2034 409 
Q 2525 409 2770 889 
Q 3016 1369 3016 2328 
Q 3016 3291 2770 3770 
Q 2525 4250 2034 4250 
z
M 2034 4750 
Q 2819 4750 3233 4129 
Q 3647 3509 3647 2328 
Q 3647 1150 3233 529 
Q 2819 -91 2034 -91 
Q 1250 -91 836 529 
Q 422 1150 422 2328 
Q 422 3509 836 4129 
Q 1250 4750 2034 4750 
z
" transform="scale(0.015625)"/>
      </defs>
      <use xlink:href="#DejaVuSans-Oblique-3d5" transform="translate(0 0.578125)"/>
      <use xlink:href="#DejaVuSans-7c" transform="translate(65.966797 0.578125)"/>
      <use xlink:href="#DejaVuSans-Oblique-48" transform="translate(99.658203 0.578125)"/>
      <use xlink:href="#DejaVuSans-30" transform="translate(174.853516 -15.828125) scale(0.7)"/>
     </g>
    </g>
    <g id="line2d_81">
     <path d="M 171.074284 44.754646 
L 179.074284 44.754646 
L 187.074284 44.754646 
" style="fill: none; stroke: #55a868; stroke-linejoin: miter"/>
    </g>
    <g id="text_14">
     <!-- $\phi|H_1,\;\mathrm{SNR}=-10\mathrm{dB}$ -->
     <g transform="translate(193.474284 47.554646) scale(0.08 -0.08)">
      <defs>
       <path id="DejaVuSans-31" d="M 794 531 
L 1825 531 
L 1825 4091 
L 703 3866 
L 703 4441 
L 1819 4666 
L 2450 4666 
L 2450 531 
L 3481 531 
L 3481 0 
L 794 0 
L 794 531 
z
" transform="scale(0.015625)"/>
       <path id="DejaVuSans-2c" d="M 750 794 
L 1409 794 
L 1409 256 
L 897 -744 
L 494 -744 
L 750 256 
L 750 794 
z
" transform="scale(0.015625)"/>
       <path id="DejaVuSans-53" d="M 3425 4513 
L 3425 3897 
Q 3066 4069 2747 4153 
Q 2428 4238 2131 4238 
Q 1616 4238 1336 4038 
Q 1056 3838 1056 3469 
Q 1056 3159 1242 3001 
Q 1428 2844 1947 2747 
L 2328 2669 
Q 3034 2534 3370 2195 
Q 3706 1856 3706 1288 
Q 3706 609 3251 259 
Q 2797 -91 1919 -91 
Q 1588 -91 1214 -16 
Q 841 59 441 206 
L 441 856 
Q 825 641 1194 531 
Q 1563 422 1919 422 
Q 2459 422 2753 634 
Q 3047 847 3047 1241 
Q 3047 1584 2836 1778 
Q 2625 1972 2144 2069 
L 1759 2144 
Q 1053 2284 737 2584 
Q 422 2884 422 3419 
Q 422 4038 858 4394 
Q 1294 4750 2059 4750 
Q 2388 4750 2728 4690 
Q 3069 4631 3425 4513 
z
" transform="scale(0.015625)"/>
       <path id="DejaVuSans-4e" d="M 628 4666 
L 1478 4666 
L 3547 763 
L 3547 4666 
L 4159 4666 
L 4159 0 
L 3309 0 
L 1241 3903 
L 1241 0 
L 628 0 
L 628 4666 
z
" transform="scale(0.015625)"/>
       <path id="DejaVuSans-52" d="M 2841 2188 
Q 3044 2119 3236 1894 
Q 3428 1669 3622 1275 
L 4263 0 
L 3584 0 
L 2988 1197 
Q 2756 1666 2539 1819 
Q 2322 1972 1947 1972 
L 1259 1972 
L 1259 0 
L 628 0 
L 628 4666 
L 2053 4666 
Q 2853 4666 3247 4331 
Q 3641 3997 3641 3322 
Q 3641 2881 3436 2590 
Q 3231 2300 2841 2188 
z
M 1259 4147 
L 1259 2491 
L 2053 2491 
Q 2509 2491 2742 2702 
Q 2975 2913 2975 3322 
Q 2975 3731 2742 3939 
Q 2509 4147 2053 4147 
L 1259 4147 
z
" transform="scale(0.015625)"/>
       <path id="DejaVuSans-3d" d="M 678 2906 
L 4684 2906 
L 4684 2381 
L 678 2381 
L 678 2906 
z
M 678 1631 
L 4684 1631 
L 4684 1100 
L 678 1100 
L 678 1631 
z
" transform="scale(0.015625)"/>
       <path id="DejaVuSans-2212" d="M 678 2272 
L 4684 2272 
L 4684 1741 
L 678 1741 
L 678 2272 
z
" transform="scale(0.015625)"/>
       <path id="DejaVuSans-64" d="M 2906 2969 
L 2906 4863 
L 3481 4863 
L 3481 0 
L 2906 0 
L 2906 525 
Q 2725 213 2448 61 
Q 2172 -91 1784 -91 
Q 1150 -91 751 415 
Q 353 922 353 1747 
Q 353 2572 751 3078 
Q 1150 3584 1784 3584 
Q 2172 3584 2448 3432 
Q 2725 3281 2906 2969 
z
M 947 1747 
Q 947 1113 1208 752 
Q 1469 391 1925 391 
Q 2381 391 2643 752 
Q 2906 1113 2906 1747 
Q 2906 2381 2643 2742 
Q 2381 3103 1925 3103 
Q 1469 3103 1208 2742 
Q 947 2381 947 1747 
z
" transform="scale(0.015625)"/>
       <path id="DejaVuSans-42" d="M 1259 2228 
L 1259 519 
L 2272 519 
Q 2781 519 3026 730 
Q 3272 941 3272 1375 
Q 3272 1813 3026 2020 
Q 2781 2228 2272 2228 
L 1259 2228 
z
M 1259 4147 
L 1259 2741 
L 2194 2741 
Q 2656 2741 2882 2914 
Q 3109 3088 3109 3444 
Q 3109 3797 2882 3972 
Q 2656 4147 2194 4147 
L 1259 4147 
z
M 628 4666 
L 2241 4666 
Q 2963 4666 3353 4366 
Q 3744 4066 3744 3513 
Q 3744 3084 3544 2831 
Q 3344 2578 2956 2516 
Q 3422 2416 3680 2098 
Q 3938 1781 3938 1306 
Q 3938 681 3513 340 
Q 3088 0 2303 0 
L 628 0 
L 628 4666 
z
" transform="scale(0.015625)"/>
      </defs>
      <use xlink:href="#DejaVuSans-Oblique-3d5" transform="translate(0 0.578125)"/>
      <use xlink:href="#DejaVuSans-7c" transform="translate(65.966797 0.578125)"/>
      <use xlink:href="#DejaVuSans-Oblique-48" transform="translate(99.658203 0.578125)"/>
      <use xlink:href="#DejaVuSans-31" transform="translate(174.853516 -15.828125) scale(0.7)"/>
      <use xlink:href="#DejaVuSans-2c" transform="translate(222.124023 0.578125)"/>
      <use xlink:href="#DejaVuSans-53" transform="translate(300.45269 0.578125)"/>
      <use xlink:href="#DejaVuSans-4e" transform="translate(363.929253 0.578125)"/>
      <use xlink:href="#DejaVuSans-52" transform="translate(435.10894 0.578125)"/>
      <use xlink:href="#DejaVuSans-3d" transform="translate(524.073784 0.578125)"/>
      <use xlink:href="#DejaVuSans-2212" transform="translate(646.82769 0.578125)"/>
      <use xlink:href="#DejaVuSans-31" transform="translate(750.099175 0.578125)"/>
      <use xlink:href="#DejaVuSans-30" transform="translate(813.722222 0.578125)"/>
      <use xlink:href="#DejaVuSans-64" transform="translate(877.345269 0.578125)"/>
      <use xlink:href="#DejaVuSans-42" transform="translate(940.821831 0.578125)"/>
     </g>
    </g>
    <g id="line2d_82">
     <path d="M 171.074284 56.834646 
L 179.074284 56.834646 
L 187.074284 56.834646 
" style="fill: none; stroke: #c44e52; stroke-linejoin: miter"/>
    </g>
    <g id="text_15">
     <!-- $\phi|H_1,\;\mathrm{SNR}=-20\mathrm{dB}$ -->
     <g transform="translate(193.474284 59.634646) scale(0.08 -0.08)">
      <defs>
       <path id="DejaVuSans-32" d="M 1228 531 
L 3431 531 
L 3431 0 
L 469 0 
L 469 531 
Q 828 903 1448 1529 
Q 2069 2156 2228 2338 
Q 2531 2678 2651 2914 
Q 2772 3150 2772 3378 
Q 2772 3750 2511 3984 
Q 2250 4219 1831 4219 
Q 1534 4219 1204 4116 
Q 875 4013 500 3803 
L 500 4441 
Q 881 4594 1212 4672 
Q 1544 4750 1819 4750 
Q 2544 4750 2975 4387 
Q 3406 4025 3406 3419 
Q 3406 3131 3298 2873 
Q 3191 2616 2906 2266 
Q 2828 2175 2409 1742 
Q 1991 1309 1228 531 
z
" transform="scale(0.015625)"/>
      </defs>
      <use xlink:href="#DejaVuSans-Oblique-3d5" transform="translate(0 0.578125)"/>
      <use xlink:href="#DejaVuSans-7c" transform="translate(65.966797 0.578125)"/>
      <use xlink:href="#DejaVuSans-Oblique-48" transform="translate(99.658203 0.578125)"/>
      <use xlink:href="#DejaVuSans-31" transform="translate(174.853516 -15.828125) scale(0.7)"/>
      <use xlink:href="#DejaVuSans-2c" transform="translate(222.124023 0.578125)"/>
      <use xlink:href="#DejaVuSans-53" transform="translate(300.45269 0.578125)"/>
      <use xlink:href="#DejaVuSans-4e" transform="translate(363.929253 0.578125)"/>
      <use xlink:href="#DejaVuSans-52" transform="translate(435.10894 0.578125)"/>
      <use xlink:href="#DejaVuSans-3d" transform="translate(524.073784 0.578125)"/>
      <use xlink:href="#DejaVuSans-2212" transform="translate(646.82769 0.578125)"/>
      <use xlink:href="#DejaVuSans-32" transform="translate(750.099175 0.578125)"/>
      <use xlink:href="#DejaVuSans-30" transform="translate(813.722222 0.578125)"/>
      <use xlink:href="#DejaVuSans-64" transform="translate(877.345269 0.578125)"/>
      <use xlink:href="#DejaVuSans-42" transform="translate(940.821831 0.578125)"/>
     </g>
    </g>
   </g>
  </g>
 </g>
 <defs>
  <clipPath id="p2dc198ad70">
   <rect x="30.384396" y="18.914646" width="254.289888" height="179.550709"/>
  </clipPath>
 </defs>
</svg>
