<?xml version="1.0" encoding="utf-8" standalone="no"?>
<!DOCTYPE svg PUBLIC "-//W3C//DTD SVG 1.1//EN"
  "http://www.w3.org/Graphics/SVG/1.1/DTD/svg11.dtd">
<svg xmlns:xlink="http://www.w3.org/1999/xlink" width="576pt" height="216pt" viewBox="0 0 576 216" xmlns="http://www.w3.org/2000/svg" version="1.1">
 <metadata>
  <rdf:RDF xmlns:dc="http://purl.org/dc/elements/1.1/" xmlns:cc="http://creativecommons.org/ns#" xmlns:rdf="http://www.w3.org/1999/02/22-rdf-syntax-ns#">
   <cc:Work>
    <dc:type rdf:resource="http://purl.org/dc/dcmitype/StillImage"/>
    <dc:date>2023-09-10T20:47:40.563958</dc:date>
    <dc:format>image/svg+xml</dc:format>
    <dc:creator>
     <cc:Agent>
      <dc:title>Matplotlib v3.7.1, https://matplotlib.org/</dc:title>
     </cc:Agent>
    </dc:creator>
   </cc:Work>
  </rdf:RDF>
 </metadata>
 <defs>
  <style type="text/css">*{stroke-linejoin: round; stroke-linecap: butt}</style>
 </defs>
 <g id="figure_1">
  <g id="patch_1">
   <path d="M 0 216 
L 576 216 
L 576 0 
L 0 0 
z
" style="fill: #1b3041"/>
  </g>
  <g id="axes_1">
   <g id="patch_2">
    <path d="M 16.914646 80.605354 
L 573.165354 80.605354 
L 573.165354 19.994646 
L 16.914646 19.994646 
z
" style="fill: #21252b"/>
   </g>
   <g id="matplotlib.axis_1"/>
   <g id="matplotlib.axis_2">
    <g id="text_1">
     <!-- canal I -->
     <g style="fill: #9eb1be" transform="translate(10.626989 69.160703) rotate(-90) scale(0.11 -0.11)">
      <defs>
       <path id="DejaVuSerif-63" d="M 3291 997 
Q 3169 466 2822 187 
Q 2475 -91 1925 -91 
Q 1200 -91 759 389 
Q 319 869 319 1663 
Q 319 2459 759 2936 
Q 1200 3413 1925 3413 
Q 2241 3413 2553 3339 
Q 2866 3266 3181 3116 
L 3181 2266 
L 2847 2266 
Q 2781 2703 2561 2903 
Q 2341 3103 1931 3103 
Q 1466 3103 1228 2742 
Q 991 2381 991 1663 
Q 991 944 1227 581 
Q 1463 219 1931 219 
Q 2303 219 2525 412 
Q 2747 606 2828 997 
L 3291 997 
z
" transform="scale(0.015625)"/>
       <path id="DejaVuSerif-61" d="M 2547 1044 
L 2547 1747 
L 1806 1747 
Q 1378 1747 1168 1562 
Q 959 1378 959 997 
Q 959 650 1171 447 
Q 1384 244 1747 244 
Q 2106 244 2326 466 
Q 2547 688 2547 1044 
z
M 3122 2075 
L 3122 331 
L 3634 331 
L 3634 0 
L 2547 0 
L 2547 359 
Q 2356 128 2106 18 
Q 1856 -91 1522 -91 
Q 969 -91 644 203 
Q 319 497 319 997 
Q 319 1513 691 1797 
Q 1063 2081 1741 2081 
L 2547 2081 
L 2547 2309 
Q 2547 2688 2317 2895 
Q 2088 3103 1672 3103 
Q 1328 3103 1125 2947 
Q 922 2791 872 2484 
L 575 2484 
L 575 3156 
Q 875 3284 1158 3348 
Q 1441 3413 1709 3413 
Q 2400 3413 2761 3070 
Q 3122 2728 3122 2075 
z
" transform="scale(0.015625)"/>
       <path id="DejaVuSerif-6e" d="M 263 0 
L 263 331 
L 781 331 
L 781 2988 
L 231 2988 
L 231 3322 
L 1356 3322 
L 1356 2731 
Q 1516 3069 1770 3241 
Q 2025 3413 2363 3413 
Q 2913 3413 3172 3097 
Q 3431 2781 3431 2113 
L 3431 331 
L 3944 331 
L 3944 0 
L 2356 0 
L 2356 331 
L 2853 331 
L 2853 1931 
Q 2853 2541 2703 2767 
Q 2553 2994 2175 2994 
Q 1775 2994 1565 2701 
Q 1356 2409 1356 1850 
L 1356 331 
L 1856 331 
L 1856 0 
L 263 0 
z
" transform="scale(0.015625)"/>
       <path id="DejaVuSerif-6c" d="M 1313 331 
L 1856 331 
L 1856 0 
L 184 0 
L 184 331 
L 738 331 
L 738 4531 
L 184 4531 
L 184 4863 
L 1313 4863 
L 1313 331 
z
" transform="scale(0.015625)"/>
       <path id="DejaVuSerif-20" transform="scale(0.015625)"/>
       <path id="DejaVuSerif-49" d="M 1581 331 
L 2175 331 
L 2175 0 
L 353 0 
L 353 331 
L 947 331 
L 947 4331 
L 353 4331 
L 353 4666 
L 2175 4666 
L 2175 4331 
L 1581 4331 
L 1581 331 
z
" transform="scale(0.015625)"/>
      </defs>
      <use xlink:href="#DejaVuSerif-63"/>
      <use xlink:href="#DejaVuSerif-61" x="56.005859"/>
      <use xlink:href="#DejaVuSerif-6e" x="115.625"/>
      <use xlink:href="#DejaVuSerif-61" x="180.029297"/>
      <use xlink:href="#DejaVuSerif-6c" x="239.648438"/>
      <use xlink:href="#DejaVuSerif-20" x="271.630859"/>
      <use xlink:href="#DejaVuSerif-49" x="303.417969"/>
     </g>
    </g>
   </g>
   <g id="line2d_1">
    <path d="M 32.65759 51.605484 
L 34.944147 51.547579 
L 34.944147 49.38665 
L 36.087426 49.38665 
L 36.087426 50.109061 
L 37.230704 50.109061 
L 37.230704 51.578739 
L 38.373983 51.578739 
L 38.373983 51.846836 
L 39.517261 51.846836 
L 39.517261 52.94041 
L 40.66054 52.94041 
L 40.66054 51.694604 
L 41.803818 51.694604 
L 41.803818 53.85463 
L 42.947097 53.85463 
L 42.947097 51.106678 
L 44.090375 51.106678 
L 44.090375 49.413071 
L 45.233653 49.413071 
L 45.233653 49.195258 
L 46.376932 49.195258 
L 46.376932 48.350592 
L 47.52021 48.350592 
L 47.52021 51.660915 
L 48.663489 51.660915 
L 48.663489 49.949787 
L 49.806767 49.949787 
L 49.806767 51.977373 
L 50.950046 51.977373 
L 50.950046 54.659681 
L 52.093324 54.659681 
L 52.093324 50.496116 
L 53.236603 50.496116 
L 53.236603 52.694606 
L 54.379881 52.694606 
L 54.379881 53.983527 
L 55.52316 53.983527 
L 55.52316 48.416358 
L 56.666438 48.416358 
L 56.666438 49.574333 
L 57.809717 49.574333 
L 57.809717 53.288407 
L 60.096274 53.228108 
L 60.096274 50.581895 
L 61.239552 50.581895 
L 61.239552 54.145737 
L 62.382831 54.145737 
L 62.382831 52.441635 
L 63.526109 52.441635 
L 63.526109 51.036484 
L 64.669388 51.036484 
L 64.669388 51.722642 
L 65.812666 51.722642 
L 65.812666 50.161878 
L 66.955944 50.161878 
L 66.955944 50.29321 
L 68.099223 50.29321 
L 68.099223 49.676385 
L 69.242501 49.676385 
L 69.242501 52.827243 
L 70.38578 52.827243 
L 70.38578 51.580246 
L 71.529058 51.580246 
L 71.529058 54.146166 
L 72.672337 54.146166 
L 72.672337 50.014044 
L 73.815615 50.014044 
L 73.815615 50.872252 
L 74.958894 50.872252 
L 74.958894 52.978071 
L 76.102172 52.978071 
L 76.102172 50.346657 
L 77.245451 50.346657 
L 77.245451 48.47231 
L 78.388729 48.47231 
L 78.388729 53.247557 
L 79.532008 53.247557 
L 79.532008 48.092593 
L 80.675286 48.092593 
L 80.675286 49.071767 
L 81.818565 49.071767 
L 81.818565 48.871553 
L 82.961843 48.871553 
L 82.961843 48.59046 
L 84.105122 48.59046 
L 84.105122 54.325879 
L 85.2484 54.325879 
L 85.2484 51.587064 
L 86.391679 51.587064 
L 86.391679 52.561676 
L 87.534957 52.561676 
L 87.534957 51.032526 
L 88.678235 51.032526 
L 88.678235 54.097787 
L 89.821514 54.097787 
L 89.821514 52.760535 
L 90.964792 52.760535 
L 90.964792 51.210947 
L 92.108071 51.210947 
L 92.108071 50.56441 
L 93.251349 50.56441 
L 93.251349 52.020102 
L 94.394628 52.020102 
L 94.394628 51.061957 
L 95.537906 51.061957 
L 95.537906 50.025229 
L 96.681185 50.025229 
L 96.681185 51.540594 
L 97.824463 51.540594 
L 97.824463 50.492588 
L 98.967742 50.492588 
L 98.967742 48.749212 
L 100.11102 48.749212 
L 100.11102 50.346075 
L 102.397577 50.421278 
L 102.397577 53.310518 
L 103.540856 53.310518 
L 103.540856 50.170129 
L 104.684134 50.170129 
L 104.684134 51.847478 
L 105.827413 51.847478 
L 105.827413 53.768108 
L 106.970691 53.768108 
L 106.970691 51.243255 
L 108.11397 51.243255 
L 108.11397 52.468789 
L 109.257248 52.468789 
L 109.257248 51.062125 
L 110.400526 51.062125 
L 110.400526 51.743091 
L 111.543805 51.743091 
L 111.543805 50.155574 
L 112.687083 50.155574 
L 112.687083 49.736676 
L 113.830362 49.736676 
L 113.830362 47.582303 
L 114.97364 47.582303 
L 114.97364 50.330574 
L 116.116919 50.330574 
L 116.116919 53.350501 
L 117.260197 53.350501 
L 117.260197 50.13262 
L 118.403476 50.13262 
L 118.403476 51.579084 
L 119.546754 51.579084 
L 119.546754 50.333343 
L 120.690033 50.333343 
L 120.690033 49.762856 
L 121.833311 49.762856 
L 121.833311 50.031891 
L 122.97659 50.031891 
L 122.97659 50.173772 
L 124.119868 50.173772 
L 124.119868 51.355396 
L 125.263147 51.355396 
L 125.263147 48.195395 
L 126.406425 48.195395 
L 126.406425 51.383694 
L 127.549704 51.383694 
L 127.549704 50.216011 
L 128.692982 50.216011 
L 128.692982 49.889297 
L 129.836261 49.889297 
L 129.836261 46.308881 
L 130.979539 46.308881 
L 130.979539 52.151966 
L 132.122817 52.151966 
L 132.122817 54.833198 
L 133.266096 54.833198 
L 133.266096 50.836836 
L 134.409374 50.836836 
L 134.409374 50.204628 
L 135.552653 50.204628 
L 135.552653 51.875839 
L 136.695931 51.875839 
L 136.695931 48.010144 
L 137.83921 48.010144 
L 137.83921 53.204504 
L 138.982488 53.204504 
L 138.982488 49.00989 
L 140.125767 49.00989 
L 140.125767 52.305917 
L 141.269045 52.305917 
L 141.269045 48.641051 
L 142.412324 48.641051 
L 142.412324 51.043556 
L 143.555602 51.043556 
L 143.555602 49.95059 
L 144.698881 49.95059 
L 144.698881 51.786969 
L 145.842159 51.786969 
L 145.842159 50.046618 
L 146.985438 50.046618 
L 146.985438 49.731636 
L 148.128716 49.731636 
L 148.128716 50.354303 
L 149.271995 50.354303 
L 149.271995 49.391196 
L 151.558552 49.407722 
L 151.558552 50.718747 
L 152.70183 50.718747 
L 152.70183 52.503185 
L 153.845108 52.503185 
L 153.845108 53.067576 
L 154.988387 53.067576 
L 154.988387 51.870292 
L 156.131665 51.870292 
L 156.131665 47.709486 
L 157.274944 47.709486 
L 157.274944 52.110825 
L 158.418222 52.110825 
L 158.418222 49.968601 
L 159.561501 49.968601 
L 159.561501 50.588968 
L 160.704779 50.588968 
L 160.704779 52.049788 
L 161.848058 52.049788 
L 161.848058 49.801493 
L 162.991336 49.801493 
L 162.991336 52.774832 
L 164.134615 52.774832 
L 164.134615 48.234696 
L 165.277893 48.234696 
L 165.277893 50.56082 
L 166.421172 50.56082 
L 166.421172 52.465891 
L 167.56445 52.465891 
L 167.56445 51.567976 
L 169.851007 51.51254 
L 169.851007 48.503643 
L 170.994286 48.503643 
L 170.994286 50.125358 
L 172.137564 50.125358 
L 172.137564 52.079228 
L 173.280843 52.079228 
L 173.280843 50.375447 
L 174.424121 50.375447 
L 174.424121 49.904092 
L 175.567399 49.904092 
L 175.567399 49.229925 
L 176.710678 49.229925 
L 176.710678 49.624503 
L 177.853956 49.624503 
L 177.853956 51.214875 
L 178.997235 51.214875 
L 178.997235 48.404571 
L 180.140513 48.404571 
L 180.140513 47.34604 
L 181.283792 47.34604 
L 181.283792 50.087401 
L 182.42707 50.087401 
L 182.42707 53.346652 
L 183.570349 53.346652 
L 183.570349 50.003256 
L 184.713627 50.003256 
L 184.713627 52.063533 
L 185.856906 52.063533 
L 185.856906 51.871502 
L 187.000184 51.871502 
L 187.000184 52.576068 
L 188.143463 52.576068 
L 188.143463 49.122825 
L 189.286741 49.122825 
L 189.286741 50.089137 
L 190.43002 50.089137 
L 190.43002 50.50012 
L 191.573298 50.50012 
L 191.573298 50.885799 
L 192.716577 50.885799 
L 192.716577 44.715587 
L 193.859855 44.715587 
L 193.859855 73.270806 
L 195.003134 73.270806 
L 195.003134 52.286725 
L 196.146412 52.286725 
L 196.146412 28.926942 
L 197.28969 28.926942 
L 197.28969 36.248169 
L 198.432969 36.248169 
L 198.432969 25.687199 
L 199.576247 25.687199 
L 199.576247 55.247842 
L 200.719526 55.247842 
L 200.719526 73.622907 
L 201.862804 73.622907 
L 201.862804 43.784222 
L 203.006083 43.784222 
L 203.006083 50.954873 
L 204.149361 50.954873 
L 204.149361 65.139185 
L 205.29264 65.139185 
L 205.29264 51.041076 
L 206.435918 51.041076 
L 206.435918 50.172318 
L 207.579197 50.172318 
L 207.579197 52.027395 
L 208.722475 52.027395 
L 208.722475 63.138577 
L 209.865754 63.138577 
L 209.865754 50.143984 
L 211.009032 50.143984 
L 211.009032 44.32566 
L 212.152311 44.32566 
L 212.152311 71.032024 
L 213.295589 71.032024 
L 213.295589 54.620512 
L 214.438868 54.620512 
L 214.438868 27.677015 
L 215.582146 27.677015 
L 215.582146 33.693408 
L 216.725425 33.693408 
L 216.725425 27.215617 
L 217.868703 27.215617 
L 217.868703 54.843876 
L 219.011981 54.843876 
L 219.011981 73.565489 
L 220.15526 73.565489 
L 220.15526 41.920001 
L 221.298538 41.920001 
L 221.298538 52.956294 
L 222.441817 52.956294 
L 222.441817 67.099801 
L 223.585095 67.099801 
L 223.585095 56.993931 
L 224.728374 56.993931 
L 224.728374 47.249654 
L 225.871652 47.249654 
L 225.871652 53.135439 
L 227.014931 53.135439 
L 227.014931 62.602193 
L 228.158209 62.602193 
L 228.158209 51.466208 
L 229.301488 51.466208 
L 229.301488 41.648828 
L 230.444766 41.648828 
L 230.444766 70.854124 
L 231.588045 70.854124 
L 231.588045 55.677846 
L 232.731323 55.677846 
L 232.731323 26.519948 
L 233.874602 26.519948 
L 233.874602 39.374096 
L 235.01788 39.374096 
L 235.01788 26.627749 
L 236.161159 26.627749 
L 236.161159 53.637978 
L 237.304437 53.637978 
L 237.304437 76.613452 
L 238.447716 76.613452 
L 238.447716 42.072498 
L 239.590994 42.072498 
L 239.590994 51.418874 
L 240.734272 51.418874 
L 240.734272 63.612958 
L 241.877551 63.612958 
L 241.877551 53.60351 
L 243.020829 53.60351 
L 243.020829 51.822243 
L 244.164108 51.822243 
L 244.164108 50.150794 
L 245.307386 50.150794 
L 245.307386 62.861783 
L 246.450665 62.861783 
L 246.450665 48.639584 
L 247.593943 48.639584 
L 247.593943 41.880355 
L 248.737222 41.880355 
L 248.737222 74.021664 
L 249.8805 74.021664 
L 249.8805 52.648649 
L 251.023779 52.648649 
L 251.023779 27.531409 
L 252.167057 27.531409 
L 252.167057 33.533724 
L 253.310336 33.533724 
L 253.310336 24.090984 
L 254.453614 24.090984 
L 254.453614 50.739626 
L 255.596893 50.739626 
L 255.596893 71.63324 
L 256.740171 71.63324 
L 256.740171 45.972898 
L 257.88345 45.972898 
L 257.88345 50.726923 
L 259.026728 50.726923 
L 259.026728 63.117131 
L 260.170007 63.117131 
L 260.170007 52.265514 
L 261.313285 52.265514 
L 261.313285 51.237123 
L 262.456563 51.237123 
L 262.456563 50.896645 
L 263.599842 50.896645 
L 263.599842 61.823055 
L 264.74312 61.823055 
L 264.74312 49.010132 
L 265.886399 49.010132 
L 265.886399 42.427934 
L 267.029677 42.427934 
L 267.029677 73.36762 
L 268.172956 73.36762 
L 268.172956 51.798114 
L 269.316234 51.798114 
L 269.316234 24.602593 
L 270.459513 24.602593 
L 270.459513 38.652597 
L 271.602791 38.652597 
L 271.602791 26.467561 
L 272.74607 26.467561 
L 272.74607 51.520711 
L 273.889348 51.520711 
L 273.889348 70.092972 
L 275.032627 70.092972 
L 275.032627 42.790433 
L 276.175905 42.790433 
L 276.175905 53.465171 
L 277.319184 53.465171 
L 277.319184 67.515547 
L 278.462462 67.515547 
L 278.462462 54.0716 
L 279.605741 54.0716 
L 279.605741 51.793216 
L 280.749019 51.793216 
L 280.749019 57.650405 
L 281.892298 57.650405 
L 281.892298 62.837352 
L 283.035576 62.837352 
L 283.035576 51.164476 
L 284.178854 51.164476 
L 284.178854 42.976092 
L 285.322133 42.976092 
L 285.322133 70.492907 
L 286.465411 70.492907 
L 286.465411 55.378923 
L 287.60869 55.378923 
L 287.60869 27.369079 
L 288.751968 27.369079 
L 288.751968 34.420919 
L 289.895247 34.420919 
L 289.895247 26.795025 
L 291.038525 26.795025 
L 291.038525 52.8217 
L 292.181804 52.8217 
L 292.181804 72.670582 
L 293.325082 72.670582 
L 293.325082 40.441155 
L 294.468361 40.441155 
L 294.468361 48.414866 
L 295.611639 48.414866 
L 295.611639 59.483794 
L 296.754918 59.483794 
L 296.754918 54.214744 
L 297.898196 54.214744 
L 297.898196 50.303343 
L 299.041475 50.303343 
L 299.041475 54.295008 
L 300.184753 54.295008 
L 300.184753 65.441339 
L 301.328032 65.441339 
L 301.328032 53.059275 
L 302.47131 53.059275 
L 302.47131 45.152963 
L 303.614589 45.152963 
L 303.614589 68.324811 
L 304.757867 68.324811 
L 304.757867 50.066487 
L 305.901146 50.066487 
L 305.901146 22.507179 
L 307.044424 22.507179 
L 307.044424 32.418211 
L 308.187702 32.418211 
L 308.187702 24.494253 
L 309.330981 24.494253 
L 309.330981 50.562993 
L 310.474259 50.562993 
L 310.474259 72.955457 
L 311.617538 72.955457 
L 311.617538 44.416929 
L 312.760816 44.416929 
L 312.760816 49.03289 
L 313.904095 49.03289 
L 313.904095 65.623155 
L 315.047373 65.623155 
L 315.047373 51.987878 
L 316.190652 51.987878 
L 316.190652 49.393231 
L 317.33393 49.393231 
L 317.33393 54.514925 
L 318.477209 54.514925 
L 318.477209 63.260113 
L 319.620487 63.260113 
L 319.620487 51.099899 
L 320.763766 51.099899 
L 320.763766 43.701751 
L 321.907044 43.701751 
L 321.907044 71.66379 
L 323.050323 71.66379 
L 323.050323 53.493514 
L 324.193601 53.493514 
L 324.193601 21.710043 
L 325.33688 21.710043 
L 325.33688 35.664228 
L 326.480158 35.664228 
L 326.480158 25.806582 
L 327.623437 25.806582 
L 327.623437 53.942201 
L 328.766715 53.942201 
L 328.766715 75.808359 
L 329.909993 75.808359 
L 329.909993 41.861844 
L 331.053272 41.861844 
L 331.053272 52.221009 
L 332.19655 52.221009 
L 332.19655 65.220222 
L 333.339829 65.220222 
L 333.339829 55.169021 
L 334.483107 55.169021 
L 334.483107 49.079263 
L 335.626386 49.079263 
L 335.626386 50.228505 
L 336.769664 50.228505 
L 336.769664 63.750264 
L 337.912943 63.750264 
L 337.912943 51.944051 
L 339.056221 51.944051 
L 339.056221 45.06818 
L 340.1995 45.06818 
L 340.1995 72.301114 
L 341.342778 72.301114 
L 341.342778 52.969683 
L 342.486057 52.969683 
L 342.486057 28.068142 
L 343.629335 28.068142 
L 343.629335 35.695755 
L 344.772614 35.695755 
L 344.772614 25.188922 
L 345.915892 25.188922 
L 345.915892 52.353645 
L 347.059171 52.353645 
L 347.059171 72.387473 
L 348.202449 72.387473 
L 348.202449 40.564315 
L 349.345728 40.564315 
L 349.345728 50.83492 
L 350.489006 50.83492 
L 350.489006 63.995316 
L 351.632284 63.995316 
L 351.632284 52.648995 
L 352.775563 52.648995 
L 352.775563 53.760483 
L 353.918841 53.760483 
L 353.918841 52.672367 
L 355.06212 52.672367 
L 355.06212 63.196528 
L 356.205398 63.196528 
L 356.205398 47.548079 
L 357.348677 47.548079 
L 357.348677 44.017673 
L 358.491955 44.017673 
L 358.491955 72.074033 
L 359.635234 72.074033 
L 359.635234 55.048029 
L 360.778512 55.048029 
L 360.778512 27.390633 
L 361.921791 27.390633 
L 361.921791 36.267155 
L 363.065069 36.267155 
L 363.065069 27.142116 
L 364.208348 27.142116 
L 364.208348 53.927989 
L 365.351626 53.927989 
L 365.351626 73.148214 
L 366.494905 73.148214 
L 366.494905 41.655364 
L 367.638183 41.655364 
L 367.638183 55.249795 
L 368.781462 55.249795 
L 368.781462 61.895557 
L 369.92474 61.895557 
L 369.92474 52.065191 
L 371.068019 52.065191 
L 371.068019 52.287277 
L 372.211297 52.287277 
L 372.211297 54.114816 
L 373.354575 54.114816 
L 373.354575 64.018991 
L 374.497854 64.018991 
L 374.497854 51.13027 
L 375.641132 51.13027 
L 375.641132 75.24533 
L 376.784411 75.24533 
L 376.784411 48.310246 
L 377.927689 48.310246 
L 377.927689 36.810544 
L 379.070968 36.810544 
L 379.070968 63.998498 
L 380.214246 63.998498 
L 380.214246 55.639054 
L 381.357525 55.639054 
L 381.357525 37.620487 
L 382.500803 37.620487 
L 382.500803 73.269553 
L 384.78736 73.218102 
L 384.78736 55.895826 
L 385.930639 55.895826 
L 385.930639 61.975125 
L 387.073917 61.975125 
L 387.073917 58.955234 
L 388.217196 58.955234 
L 388.217196 38.719772 
L 389.360474 38.719772 
L 389.360474 37.270364 
L 390.503753 37.270364 
L 390.503753 70.84081 
L 391.647031 70.84081 
L 391.647031 59.861312 
L 392.79031 59.861312 
L 392.79031 42.258343 
L 393.933588 42.258343 
L 393.933588 41.550623 
L 395.076866 41.550623 
L 395.076866 32.629134 
L 396.220145 32.629134 
L 396.220145 53.575331 
L 397.363423 53.575331 
L 397.363423 42.876178 
L 398.506702 42.876178 
L 398.506702 47.468504 
L 399.64998 47.468504 
L 399.64998 74.773673 
L 400.793259 74.773673 
L 400.793259 48.833492 
L 401.936537 48.833492 
L 401.936537 44.285885 
L 403.079816 44.285885 
L 403.079816 34.347 
L 404.223094 34.347 
L 404.223094 56.420712 
L 405.366373 56.420712 
L 405.366373 71.22313 
L 406.509651 71.22313 
L 406.509651 41.22086 
L 407.65293 41.22086 
L 407.65293 50.184302 
L 408.796208 50.184302 
L 408.796208 35.234013 
L 409.939487 35.234013 
L 409.939487 48.552572 
L 411.082765 48.552572 
L 411.082765 51.460635 
L 412.226044 51.460635 
L 412.226044 24.140541 
L 413.369322 24.140541 
L 413.369322 53.091936 
L 414.512601 53.091936 
L 414.512601 48.097941 
L 415.655879 48.097941 
L 415.655879 33.316624 
L 416.799157 33.316624 
L 416.799157 46.875639 
L 417.942436 46.875639 
L 417.942436 39.873103 
L 419.085714 39.873103 
L 419.085714 70.829116 
L 420.228993 70.829116 
L 420.228993 56.724255 
L 421.372271 56.724255 
L 421.372271 34.215149 
L 422.51555 34.215149 
L 422.51555 41.488642 
L 423.658828 41.488642 
L 423.658828 50.817701 
L 424.802107 50.817701 
L 424.802107 73.922175 
L 425.945385 73.922175 
L 425.945385 47.065728 
L 427.088664 47.065728 
L 427.088664 41.775644 
L 428.231942 41.775644 
L 428.231942 54.009795 
L 429.375221 54.009795 
L 429.375221 30.42091 
L 430.518499 30.42091 
L 430.518499 39.158987 
L 431.661778 39.158987 
L 431.661778 44.711513 
L 432.805056 44.711513 
L 432.805056 60.917355 
L 433.948335 60.917355 
L 433.948335 74.487189 
L 435.091613 74.487189 
L 435.091613 37.73003 
L 436.234892 37.73003 
L 436.234892 39.344172 
L 437.37817 39.344172 
L 437.37817 62.787548 
L 438.521448 62.787548 
L 438.521448 59.455126 
L 439.664727 59.455126 
L 439.664727 61.001265 
L 440.808005 61.001265 
L 440.808005 73.834159 
L 441.951284 73.834159 
L 441.951284 70.694819 
L 443.094562 70.694819 
L 443.094562 38.083674 
L 444.237841 38.083674 
L 444.237841 49.701189 
L 445.381119 49.701189 
L 445.381119 66.193678 
L 446.524398 66.193678 
L 446.524398 35.365331 
L 447.667676 35.365331 
L 447.667676 50.163439 
L 448.810955 50.163439 
L 448.810955 78.889957 
L 449.954233 78.889957 
L 449.954233 48.236904 
L 451.097512 48.236904 
L 451.097512 35.798055 
L 452.24079 35.798055 
L 452.24079 66.104459 
L 453.384069 66.104459 
L 453.384069 50.855784 
L 454.527347 50.855784 
L 454.527347 38.21215 
L 455.670626 38.21215 
L 455.670626 71.427191 
L 456.813904 71.427191 
L 456.813904 72.853591 
L 457.957183 72.853591 
L 457.957183 55.79503 
L 459.100461 55.79503 
L 459.100461 60.963717 
L 460.243739 60.963717 
L 460.243739 62.338771 
L 461.387018 62.338771 
L 461.387018 38.843227 
L 462.530296 38.843227 
L 462.530296 33.696811 
L 463.673575 33.696811 
L 463.673575 72.235845 
L 464.816853 72.235845 
L 464.816853 59.660066 
L 465.960132 59.660066 
L 465.960132 43.973209 
L 467.10341 43.973209 
L 467.10341 39.819167 
L 468.246689 39.819167 
L 468.246689 30.308626 
L 469.389967 30.308626 
L 469.389967 55.287399 
L 470.533246 55.287399 
L 470.533246 39.582986 
L 471.676524 39.582986 
L 471.676524 42.543211 
L 472.819803 42.543211 
L 472.819803 72.133117 
L 473.963081 72.133117 
L 473.963081 52.436407 
L 475.10636 52.436407 
L 475.10636 41.261396 
L 476.249638 41.261396 
L 476.249638 37.280056 
L 477.392917 37.280056 
L 477.392917 55.722225 
L 478.536195 55.722225 
L 478.536195 69.286449 
L 479.679474 69.286449 
L 479.679474 38.026005 
L 480.822752 38.026005 
L 480.822752 50.526595 
L 481.96603 50.526595 
L 481.96603 32.069475 
L 483.109309 32.069475 
L 483.109309 43.895036 
L 484.252587 43.895036 
L 484.252587 49.37321 
L 485.395866 49.37321 
L 485.395866 23.917187 
L 486.539144 23.917187 
L 486.539144 52.613512 
L 487.682423 52.613512 
L 487.682423 45.750099 
L 488.825701 45.750099 
L 488.825701 36.206576 
L 489.96898 36.206576 
L 489.96898 46.490835 
L 491.112258 46.490835 
L 491.112258 41.703414 
L 492.255537 41.703414 
L 492.255537 68.682044 
L 493.398815 68.682044 
L 493.398815 55.61244 
L 494.542094 55.61244 
L 494.542094 33.679204 
L 495.685372 33.679204 
L 495.685372 40.698881 
L 496.828651 40.698881 
L 496.828651 49.01359 
L 497.971929 49.01359 
L 497.971929 73.81968 
L 499.115208 73.81968 
L 499.115208 48.002132 
L 500.258486 48.002132 
L 500.258486 42.939527 
L 501.401765 42.939527 
L 501.401765 54.831367 
L 502.545043 54.831367 
L 502.545043 29.30117 
L 503.688321 29.30117 
L 503.688321 41.620093 
L 504.8316 41.620093 
L 504.8316 46.279331 
L 505.974878 46.279331 
L 505.974878 60.176442 
L 507.118157 60.176442 
L 507.118157 72.940947 
L 508.261435 72.940947 
L 508.261435 38.255963 
L 509.404714 38.255963 
L 509.404714 40.079304 
L 510.547992 40.079304 
L 510.547992 57.654457 
L 511.691271 57.654457 
L 511.691271 61.911774 
L 512.834549 61.911774 
L 512.834549 56.9309 
L 513.977828 56.9309 
L 513.977828 69.780456 
L 515.121106 69.780456 
L 515.121106 73.927013 
L 516.264385 73.927013 
L 516.264385 36.701205 
L 517.407663 36.701205 
L 517.407663 53.54157 
L 518.550942 53.54157 
L 518.550942 66.589722 
L 519.69422 66.589722 
L 519.69422 35.787928 
L 520.837499 35.787928 
L 520.837499 52.308515 
L 521.980777 52.308515 
L 521.980777 78.761731 
L 523.124056 78.761731 
L 523.124056 48.020602 
L 524.267334 48.020602 
L 524.267334 38.31487 
L 525.410612 38.31487 
L 525.410612 67.468579 
L 526.553891 67.468579 
L 526.553891 47.536118 
L 527.697169 47.536118 
L 527.697169 40.302884 
L 528.840448 40.302884 
L 528.840448 74.204754 
L 529.983726 74.204754 
L 529.983726 72.479861 
L 531.127005 72.479861 
L 531.127005 57.147795 
L 532.270283 57.147795 
L 532.270283 60.82319 
L 533.413562 60.82319 
L 533.413562 58.023216 
L 534.55684 58.023216 
L 534.55684 36.905559 
L 536.843397 36.974312 
L 536.843397 70.680235 
L 537.986676 70.680235 
L 537.986676 62.119507 
L 539.129954 62.119507 
L 539.129954 45.148849 
L 540.273233 45.148849 
L 540.273233 39.158791 
L 541.416511 39.158791 
L 541.416511 29.130254 
L 542.55979 29.130254 
L 542.55979 56.576553 
L 543.703068 56.576553 
L 543.703068 39.300968 
L 544.846347 39.300968 
L 544.846347 48.91936 
L 545.989625 48.91936 
L 545.989625 72.583722 
L 547.132903 72.583722 
L 547.132903 52.921565 
L 548.276182 52.921565 
L 548.276182 42.031566 
L 549.41946 42.031566 
L 549.41946 33.803965 
L 550.562739 33.803965 
L 550.562739 57.079824 
L 551.706017 57.079824 
L 551.706017 73.076959 
L 552.849296 73.076959 
L 552.849296 39.852794 
L 553.992574 39.852794 
L 553.992574 46.168134 
L 555.135853 46.168134 
L 555.135853 38.444617 
L 556.279131 38.444617 
L 556.279131 43.666898 
L 557.42241 43.666898 
L 557.42241 50.378439 
L 557.42241 50.378439 
" clip-path="url(#pe79eab58e4)" style="fill: none; stroke: #a1c9f4"/>
   </g>
   <g id="patch_3">
    <path d="M 16.914646 80.605354 
L 16.914646 19.994646 
" style="fill: none; stroke: #adb2b7; stroke-linejoin: miter; stroke-linecap: square"/>
   </g>
   <g id="patch_4">
    <path d="M 16.914646 80.605354 
L 573.165354 80.605354 
" style="fill: none; stroke: #adb2b7; stroke-linejoin: miter; stroke-linecap: square"/>
   </g>
   <g id="text_2">
    <!-- Correlación Short Training Sequence -->
    <g style="fill: #adb2b7" transform="translate(162.183281 13.994646) scale(0.14 -0.14)">
     <defs>
      <path id="DejaVuSerif-43" d="M 4513 1234 
Q 4306 581 3820 245 
Q 3334 -91 2591 -91 
Q 2134 -91 1743 65 
Q 1353 222 1050 525 
Q 700 875 529 1320 
Q 359 1766 359 2328 
Q 359 3416 987 4083 
Q 1616 4750 2644 4750 
Q 3025 4750 3456 4650 
Q 3888 4550 4384 4347 
L 4384 3272 
L 4031 3272 
Q 3916 3859 3567 4137 
Q 3219 4416 2591 4416 
Q 1844 4416 1459 3886 
Q 1075 3356 1075 2328 
Q 1075 1303 1459 773 
Q 1844 244 2591 244 
Q 3113 244 3450 492 
Q 3788 741 3938 1234 
L 4513 1234 
z
" transform="scale(0.015625)"/>
      <path id="DejaVuSerif-6f" d="M 1925 219 
Q 2388 219 2623 584 
Q 2859 950 2859 1663 
Q 2859 2375 2623 2739 
Q 2388 3103 1925 3103 
Q 1463 3103 1227 2739 
Q 991 2375 991 1663 
Q 991 950 1228 584 
Q 1466 219 1925 219 
z
M 1925 -91 
Q 1200 -91 759 389 
Q 319 869 319 1663 
Q 319 2456 758 2934 
Q 1197 3413 1925 3413 
Q 2653 3413 3092 2934 
Q 3531 2456 3531 1663 
Q 3531 869 3092 389 
Q 2653 -91 1925 -91 
z
" transform="scale(0.015625)"/>
      <path id="DejaVuSerif-72" d="M 3059 3328 
L 3059 2497 
L 2728 2497 
Q 2713 2744 2591 2866 
Q 2469 2988 2234 2988 
Q 1809 2988 1582 2694 
Q 1356 2400 1356 1850 
L 1356 331 
L 2022 331 
L 2022 0 
L 263 0 
L 263 331 
L 781 331 
L 781 2994 
L 231 2994 
L 231 3322 
L 1356 3322 
L 1356 2731 
Q 1525 3078 1790 3245 
Q 2056 3413 2438 3413 
Q 2578 3413 2733 3391 
Q 2888 3369 3059 3328 
z
" transform="scale(0.015625)"/>
      <path id="DejaVuSerif-65" d="M 3469 1600 
L 991 1600 
L 991 1575 
Q 991 903 1244 561 
Q 1497 219 1991 219 
Q 2369 219 2611 417 
Q 2853 616 2950 1006 
L 3413 1006 
Q 3275 459 2904 184 
Q 2534 -91 1931 -91 
Q 1203 -91 761 389 
Q 319 869 319 1663 
Q 319 2450 753 2931 
Q 1188 3413 1894 3413 
Q 2647 3413 3050 2948 
Q 3453 2484 3469 1600 
z
M 2791 1931 
Q 2772 2513 2545 2808 
Q 2319 3103 1894 3103 
Q 1497 3103 1269 2806 
Q 1041 2509 991 1931 
L 2791 1931 
z
" transform="scale(0.015625)"/>
      <path id="DejaVuSerif-69" d="M 622 4353 
Q 622 4497 726 4603 
Q 831 4709 978 4709 
Q 1122 4709 1226 4603 
Q 1331 4497 1331 4353 
Q 1331 4206 1228 4103 
Q 1125 4000 978 4000 
Q 831 4000 726 4103 
Q 622 4206 622 4353 
z
M 1356 331 
L 1900 331 
L 1900 0 
L 231 0 
L 231 331 
L 781 331 
L 781 2988 
L 231 2988 
L 231 3322 
L 1356 3322 
L 1356 331 
z
" transform="scale(0.015625)"/>
      <path id="DejaVuSerif-f3" d="M 1925 219 
Q 2388 219 2623 584 
Q 2859 950 2859 1663 
Q 2859 2375 2623 2739 
Q 2388 3103 1925 3103 
Q 1463 3103 1227 2739 
Q 991 2375 991 1663 
Q 991 950 1228 584 
Q 1466 219 1925 219 
z
M 1925 -91 
Q 1200 -91 759 389 
Q 319 869 319 1663 
Q 319 2456 758 2934 
Q 1197 3413 1925 3413 
Q 2653 3413 3092 2934 
Q 3531 2456 3531 1663 
Q 3531 869 3092 389 
Q 2653 -91 1925 -91 
z
M 2362 5119 
L 2984 5119 
L 1922 3944 
L 1556 3944 
L 2362 5119 
z
" transform="scale(0.015625)"/>
      <path id="DejaVuSerif-53" d="M 594 225 
L 594 1288 
L 953 1284 
Q 969 753 1261 498 
Q 1553 244 2150 244 
Q 2706 244 2998 464 
Q 3291 684 3291 1106 
Q 3291 1444 3114 1625 
Q 2938 1806 2369 1978 
L 1753 2163 
Q 1084 2366 811 2669 
Q 538 2972 538 3500 
Q 538 4094 959 4422 
Q 1381 4750 2144 4750 
Q 2469 4750 2856 4679 
Q 3244 4609 3681 4475 
L 3681 3481 
L 3328 3481 
Q 3275 3975 2998 4195 
Q 2722 4416 2156 4416 
Q 1663 4416 1405 4214 
Q 1147 4013 1147 3628 
Q 1147 3294 1340 3103 
Q 1534 2913 2163 2725 
L 2741 2553 
Q 3375 2363 3645 2067 
Q 3916 1772 3916 1275 
Q 3916 597 3481 253 
Q 3047 -91 2188 -91 
Q 1803 -91 1404 -12 
Q 1006 66 594 225 
z
" transform="scale(0.015625)"/>
      <path id="DejaVuSerif-68" d="M 263 0 
L 263 331 
L 781 331 
L 781 4531 
L 231 4531 
L 231 4863 
L 1356 4863 
L 1356 2731 
Q 1516 3069 1770 3241 
Q 2025 3413 2363 3413 
Q 2913 3413 3172 3097 
Q 3431 2781 3431 2113 
L 3431 331 
L 3944 331 
L 3944 0 
L 2356 0 
L 2356 331 
L 2853 331 
L 2853 1931 
Q 2853 2541 2704 2764 
Q 2556 2988 2175 2988 
Q 1775 2988 1565 2697 
Q 1356 2406 1356 1850 
L 1356 331 
L 1856 331 
L 1856 0 
L 263 0 
z
" transform="scale(0.015625)"/>
      <path id="DejaVuSerif-74" d="M 691 2988 
L 184 2988 
L 184 3322 
L 691 3322 
L 691 4353 
L 1269 4353 
L 1269 3322 
L 2350 3322 
L 2350 2988 
L 1269 2988 
L 1269 878 
Q 1269 456 1350 337 
Q 1431 219 1650 219 
Q 1875 219 1978 351 
Q 2081 484 2088 781 
L 2522 781 
Q 2497 328 2275 118 
Q 2053 -91 1600 -91 
Q 1103 -91 897 129 
Q 691 350 691 878 
L 691 2988 
z
" transform="scale(0.015625)"/>
      <path id="DejaVuSerif-54" d="M 1222 0 
L 1222 331 
L 1819 331 
L 1819 4294 
L 447 4294 
L 447 3566 
L 63 3566 
L 63 4666 
L 4206 4666 
L 4206 3566 
L 3822 3566 
L 3822 4294 
L 2450 4294 
L 2450 331 
L 3047 331 
L 3047 0 
L 1222 0 
z
" transform="scale(0.015625)"/>
      <path id="DejaVuSerif-67" d="M 3359 2988 
L 3359 72 
Q 3359 -644 2965 -1033 
Q 2572 -1422 1844 -1422 
Q 1516 -1422 1216 -1362 
Q 916 -1303 641 -1184 
L 641 -488 
L 941 -488 
Q 997 -813 1206 -963 
Q 1416 -1113 1806 -1113 
Q 2313 -1113 2548 -827 
Q 2784 -541 2784 72 
L 2784 519 
Q 2616 206 2355 57 
Q 2094 -91 1709 -91 
Q 1097 -91 708 395 
Q 319 881 319 1663 
Q 319 2444 706 2928 
Q 1094 3413 1709 3413 
Q 2094 3413 2355 3264 
Q 2616 3116 2784 2803 
L 2784 3322 
L 3909 3322 
L 3909 2988 
L 3359 2988 
z
M 2784 1825 
Q 2784 2422 2554 2737 
Q 2325 3053 1888 3053 
Q 1444 3053 1217 2703 
Q 991 2353 991 1663 
Q 991 975 1217 622 
Q 1444 269 1888 269 
Q 2325 269 2554 583 
Q 2784 897 2784 1497 
L 2784 1825 
z
" transform="scale(0.015625)"/>
      <path id="DejaVuSerif-71" d="M 3359 2988 
L 3359 -997 
L 3909 -997 
L 3909 -1331 
L 2241 -1331 
L 2241 -997 
L 2784 -997 
L 2784 519 
Q 2616 206 2355 57 
Q 2094 -91 1709 -91 
Q 1097 -91 708 395 
Q 319 881 319 1663 
Q 319 2444 706 2928 
Q 1094 3413 1709 3413 
Q 2094 3413 2355 3264 
Q 2616 3116 2784 2803 
L 2784 3322 
L 3909 3322 
L 3909 2988 
L 3359 2988 
z
M 2784 1825 
Q 2784 2422 2554 2737 
Q 2325 3053 1888 3053 
Q 1444 3053 1217 2703 
Q 991 2353 991 1663 
Q 991 975 1217 622 
Q 1444 269 1888 269 
Q 2325 269 2554 583 
Q 2784 897 2784 1497 
L 2784 1825 
z
" transform="scale(0.015625)"/>
      <path id="DejaVuSerif-75" d="M 2266 3322 
L 3341 3322 
L 3341 331 
L 3884 331 
L 3884 0 
L 2766 0 
L 2766 588 
Q 2606 256 2353 82 
Q 2100 -91 1766 -91 
Q 1213 -91 952 223 
Q 691 538 691 1209 
L 691 2988 
L 172 2988 
L 172 3322 
L 1269 3322 
L 1269 1388 
Q 1269 781 1417 556 
Q 1566 331 1947 331 
Q 2347 331 2556 625 
Q 2766 919 2766 1478 
L 2766 2988 
L 2266 2988 
L 2266 3322 
z
" transform="scale(0.015625)"/>
     </defs>
     <use xlink:href="#DejaVuSerif-43"/>
     <use xlink:href="#DejaVuSerif-6f" x="76.513672"/>
     <use xlink:href="#DejaVuSerif-72" x="136.71875"/>
     <use xlink:href="#DejaVuSerif-72" x="184.521484"/>
     <use xlink:href="#DejaVuSerif-65" x="232.324219"/>
     <use xlink:href="#DejaVuSerif-6c" x="291.503906"/>
     <use xlink:href="#DejaVuSerif-61" x="323.486328"/>
     <use xlink:href="#DejaVuSerif-63" x="383.105469"/>
     <use xlink:href="#DejaVuSerif-69" x="439.111328"/>
     <use xlink:href="#DejaVuSerif-f3" x="471.09375"/>
     <use xlink:href="#DejaVuSerif-6e" x="531.298828"/>
     <use xlink:href="#DejaVuSerif-20" x="595.703125"/>
     <use xlink:href="#DejaVuSerif-53" x="627.490234"/>
     <use xlink:href="#DejaVuSerif-68" x="695.996094"/>
     <use xlink:href="#DejaVuSerif-6f" x="760.400391"/>
     <use xlink:href="#DejaVuSerif-72" x="820.605469"/>
     <use xlink:href="#DejaVuSerif-74" x="868.408203"/>
     <use xlink:href="#DejaVuSerif-20" x="908.59375"/>
     <use xlink:href="#DejaVuSerif-54" x="940.380859"/>
     <use xlink:href="#DejaVuSerif-72" x="1007.080078"/>
     <use xlink:href="#DejaVuSerif-61" x="1054.882812"/>
     <use xlink:href="#DejaVuSerif-69" x="1114.501953"/>
     <use xlink:href="#DejaVuSerif-6e" x="1146.484375"/>
     <use xlink:href="#DejaVuSerif-69" x="1210.888672"/>
     <use xlink:href="#DejaVuSerif-6e" x="1242.871094"/>
     <use xlink:href="#DejaVuSerif-67" x="1307.275391"/>
     <use xlink:href="#DejaVuSerif-20" x="1371.289062"/>
     <use xlink:href="#DejaVuSerif-53" x="1403.076172"/>
     <use xlink:href="#DejaVuSerif-65" x="1471.582031"/>
     <use xlink:href="#DejaVuSerif-71" x="1530.761719"/>
     <use xlink:href="#DejaVuSerif-75" x="1594.775391"/>
     <use xlink:href="#DejaVuSerif-65" x="1659.179688"/>
     <use xlink:href="#DejaVuSerif-6e" x="1718.359375"/>
     <use xlink:href="#DejaVuSerif-63" x="1782.763672"/>
     <use xlink:href="#DejaVuSerif-65" x="1838.769531"/>
    </g>
   </g>
  </g>
  <g id="axes_2">
   <g id="patch_5">
    <path d="M 16.914646 146.885354 
L 573.165354 146.885354 
L 573.165354 86.274646 
L 16.914646 86.274646 
z
" style="fill: #21252b"/>
   </g>
   <g id="matplotlib.axis_3"/>
   <g id="matplotlib.axis_4">
    <g id="text_3">
     <!-- canal Q -->
     <g style="fill: #9eb1be" transform="translate(10.626989 137.777344) rotate(-90) scale(0.11 -0.11)">
      <defs>
       <path id="DejaVuSerif-51" d="M 2700 -91 
Q 1628 -91 993 567 
Q 359 1225 359 2328 
Q 359 2894 529 3339 
Q 700 3784 1050 4134 
Q 1356 4441 1750 4595 
Q 2144 4750 2625 4750 
Q 3641 4750 4266 4084 
Q 4891 3419 4891 2328 
Q 4891 1403 4422 773 
Q 3953 144 3128 -38 
Q 3297 -247 3539 -347 
Q 3781 -447 4122 -447 
L 4219 -447 
L 4219 -1025 
Q 3691 -1000 3314 -767 
Q 2938 -534 2700 -91 
z
M 2625 244 
Q 3391 244 3781 770 
Q 4172 1297 4172 2328 
Q 4172 3363 3781 3889 
Q 3391 4416 2625 4416 
Q 1856 4416 1465 3889 
Q 1075 3363 1075 2328 
Q 1075 1297 1465 770 
Q 1856 244 2625 244 
z
" transform="scale(0.015625)"/>
      </defs>
      <use xlink:href="#DejaVuSerif-63"/>
      <use xlink:href="#DejaVuSerif-61" x="56.005859"/>
      <use xlink:href="#DejaVuSerif-6e" x="115.625"/>
      <use xlink:href="#DejaVuSerif-61" x="180.029297"/>
      <use xlink:href="#DejaVuSerif-6c" x="239.648438"/>
      <use xlink:href="#DejaVuSerif-20" x="271.630859"/>
      <use xlink:href="#DejaVuSerif-51" x="303.417969"/>
     </g>
    </g>
   </g>
   <g id="line2d_2">
    <path d="M 32.65759 115.903153 
L 33.800869 115.903153 
L 33.800869 113.651566 
L 34.944147 113.651566 
L 34.944147 116.324134 
L 36.087426 116.324134 
L 36.087426 116.621965 
L 37.230704 116.621965 
L 37.230704 115.43484 
L 38.373983 115.43484 
L 38.373983 114.348097 
L 39.517261 114.348097 
L 39.517261 114.008028 
L 40.66054 114.008028 
L 40.66054 115.988297 
L 41.803818 115.988297 
L 41.803818 115.136795 
L 44.090375 115.207551 
L 44.090375 117.823766 
L 45.233653 117.823766 
L 45.233653 120.423189 
L 46.376932 120.423189 
L 46.376932 120.291793 
L 47.52021 120.291793 
L 47.52021 118.508041 
L 48.663489 118.508041 
L 48.663489 119.060397 
L 49.806767 119.060397 
L 49.806767 116.881228 
L 50.950046 116.881228 
L 50.950046 114.747106 
L 52.093324 114.747106 
L 52.093324 118.386985 
L 53.236603 118.386985 
L 53.236603 114.654317 
L 54.379881 114.654317 
L 54.379881 115.337127 
L 55.52316 115.337127 
L 55.52316 115.200644 
L 56.666438 115.200644 
L 56.666438 118.105867 
L 57.809717 118.105867 
L 57.809717 120.204369 
L 58.952995 120.204369 
L 58.952995 118.466825 
L 60.096274 118.466825 
L 60.096274 113.793629 
L 61.239552 113.793629 
L 61.239552 115.18111 
L 62.382831 115.18111 
L 62.382831 117.819531 
L 63.526109 117.819531 
L 63.526109 118.318672 
L 64.669388 118.318672 
L 64.669388 116.26842 
L 65.812666 116.26842 
L 65.812666 115.809005 
L 66.955944 115.809005 
L 66.955944 116.505395 
L 68.099223 116.505395 
L 68.099223 119.678709 
L 69.242501 119.678709 
L 69.242501 116.441966 
L 70.38578 116.441966 
L 70.38578 115.698699 
L 71.529058 115.698699 
L 71.529058 119.94455 
L 72.672337 119.94455 
L 72.672337 115.265573 
L 73.815615 115.265573 
L 73.815615 117.920043 
L 74.958894 117.920043 
L 74.958894 117.729242 
L 76.102172 117.729242 
L 76.102172 119.135067 
L 77.245451 119.135067 
L 77.245451 117.664701 
L 78.388729 117.664701 
L 78.388729 114.747644 
L 79.532008 114.747644 
L 79.532008 119.418774 
L 80.675286 119.418774 
L 80.675286 114.826246 
L 81.818565 114.826246 
L 81.818565 118.085154 
L 82.961843 118.085154 
L 82.961843 116.0762 
L 84.105122 116.0762 
L 84.105122 119.588305 
L 86.391679 119.604783 
L 86.391679 115.491233 
L 87.534957 115.491233 
L 87.534957 117.899009 
L 88.678235 117.899009 
L 88.678235 115.297489 
L 89.821514 115.297489 
L 89.821514 114.988908 
L 90.964792 114.988908 
L 90.964792 119.4201 
L 92.108071 119.4201 
L 92.108071 120.176936 
L 93.251349 120.176936 
L 93.251349 115.355965 
L 94.394628 115.355965 
L 94.394628 114.988624 
L 95.537906 114.988624 
L 95.537906 118.674828 
L 96.681185 118.674828 
L 96.681185 116.015024 
L 97.824463 116.015024 
L 97.824463 117.902755 
L 98.967742 117.902755 
L 98.967742 117.599085 
L 100.11102 117.599085 
L 100.11102 115.466691 
L 101.254299 115.466691 
L 101.254299 117.1436 
L 102.397577 117.1436 
L 102.397577 118.292466 
L 103.540856 118.292466 
L 103.540856 116.150405 
L 104.684134 116.150405 
L 104.684134 119.811269 
L 105.827413 119.811269 
L 105.827413 115.32989 
L 106.970691 115.32989 
L 106.970691 116.52024 
L 108.11397 116.52024 
L 108.11397 116.95548 
L 109.257248 116.95548 
L 109.257248 115.81035 
L 110.400526 115.81035 
L 110.400526 119.595477 
L 111.543805 119.595477 
L 111.543805 115.839253 
L 112.687083 115.839253 
L 112.687083 117.935491 
L 113.830362 117.935491 
L 113.830362 117.562063 
L 114.97364 117.562063 
L 114.97364 117.934922 
L 116.116919 117.934922 
L 116.116919 117.727961 
L 117.260197 117.727961 
L 117.260197 114.914725 
L 118.403476 114.914725 
L 118.403476 119.11296 
L 119.546754 119.11296 
L 119.546754 116.97529 
L 120.690033 116.97529 
L 120.690033 114.988585 
L 121.833311 114.988585 
L 121.833311 118.545451 
L 122.97659 118.545451 
L 122.97659 115.59274 
L 124.119868 115.59274 
L 124.119868 116.26018 
L 125.263147 116.26018 
L 125.263147 115.646655 
L 126.406425 115.646655 
L 126.406425 116.315657 
L 127.549704 116.315657 
L 127.549704 114.230645 
L 128.692982 114.230645 
L 128.692982 114.610681 
L 129.836261 114.610681 
L 129.836261 115.680018 
L 130.979539 115.680018 
L 130.979539 116.669413 
L 132.122817 116.669413 
L 132.122817 120.376548 
L 133.266096 120.376548 
L 133.266096 116.784532 
L 134.409374 116.784532 
L 134.409374 114.654407 
L 135.552653 114.654407 
L 135.552653 118.588962 
L 136.695931 118.588962 
L 136.695931 120.918779 
L 137.83921 120.918779 
L 137.83921 114.662742 
L 138.982488 114.662742 
L 138.982488 113.690768 
L 140.125767 113.690768 
L 140.125767 111.960876 
L 141.269045 111.960876 
L 141.269045 114.678407 
L 142.412324 114.678407 
L 142.412324 118.145783 
L 143.555602 118.145783 
L 143.555602 116.166419 
L 144.698881 116.166419 
L 144.698881 114.480629 
L 145.842159 114.480629 
L 145.842159 117.5946 
L 146.985438 117.5946 
L 146.985438 119.502247 
L 148.128716 119.502247 
L 148.128716 117.885679 
L 149.271995 117.885679 
L 149.271995 115.557753 
L 150.415273 115.557753 
L 150.415273 115.111175 
L 151.558552 115.111175 
L 151.558552 117.718595 
L 152.70183 117.718595 
L 152.70183 115.835982 
L 154.988387 115.887322 
L 154.988387 117.119942 
L 156.131665 117.119942 
L 156.131665 118.133397 
L 157.274944 118.133397 
L 157.274944 117.453622 
L 158.418222 117.453622 
L 158.418222 118.614671 
L 159.561501 118.614671 
L 159.561501 114.504099 
L 160.704779 114.504099 
L 160.704779 118.481451 
L 161.848058 118.481451 
L 161.848058 119.713059 
L 162.991336 119.713059 
L 162.991336 115.429946 
L 164.134615 115.429946 
L 164.134615 117.183264 
L 165.277893 117.183264 
L 165.277893 119.092199 
L 166.421172 119.092199 
L 166.421172 117.984459 
L 167.56445 117.984459 
L 167.56445 118.151161 
L 168.707729 118.151161 
L 168.707729 118.013524 
L 169.851007 118.013524 
L 169.851007 114.62537 
L 170.994286 114.62537 
L 170.994286 120.544014 
L 172.137564 120.544014 
L 172.137564 120.902397 
L 173.280843 120.902397 
L 173.280843 114.927679 
L 174.424121 114.927679 
L 174.424121 120.050845 
L 175.567399 120.050845 
L 175.567399 116.705038 
L 176.710678 116.705038 
L 176.710678 115.568613 
L 177.853956 115.568613 
L 177.853956 118.009685 
L 178.997235 118.009685 
L 178.997235 115.191226 
L 180.140513 115.191226 
L 180.140513 116.178966 
L 181.283792 116.178966 
L 181.283792 115.33373 
L 182.42707 115.33373 
L 182.42707 117.868964 
L 183.570349 117.868964 
L 183.570349 115.29742 
L 184.713627 115.29742 
L 184.713627 114.236528 
L 185.856906 114.236528 
L 185.856906 121.071827 
L 187.000184 121.071827 
L 187.000184 116.377243 
L 188.143463 116.377243 
L 188.143463 117.68975 
L 189.286741 117.68975 
L 189.286741 113.947394 
L 190.43002 113.947394 
L 190.43002 114.871935 
L 191.573298 114.871935 
L 191.573298 116.808381 
L 192.716577 116.808381 
L 192.716577 109.065741 
L 193.859855 109.065741 
L 193.859855 114.959199 
L 195.003134 114.959199 
L 195.003134 129.605276 
L 196.146412 129.605276 
L 196.146412 119.629572 
L 197.28969 119.629572 
L 197.28969 118.718116 
L 198.432969 118.718116 
L 198.432969 116.633676 
L 199.576247 116.633676 
L 199.576247 129.463945 
L 200.719526 129.463945 
L 200.719526 118.3103 
L 201.862804 118.3103 
L 201.862804 111.321058 
L 203.006083 111.321058 
L 203.006083 137.294429 
L 204.149361 137.294429 
L 204.149361 119.068238 
L 205.29264 119.068238 
L 205.29264 93.021878 
L 206.435918 93.021878 
L 206.435918 103.012446 
L 207.579197 103.012446 
L 207.579197 95.593994 
L 208.722475 95.593994 
L 208.722475 118.725315 
L 209.865754 118.725315 
L 209.865754 138.707159 
L 211.009032 138.707159 
L 211.009032 109.780663 
L 212.152311 109.780663 
L 212.152311 114.29682 
L 213.295589 114.29682 
L 213.295589 127.608107 
L 214.438868 127.608107 
L 214.438868 120.302084 
L 215.582146 120.302084 
L 215.582146 116.748716 
L 216.725425 116.748716 
L 216.725425 116.905503 
L 217.868703 116.905503 
L 217.868703 127.814639 
L 219.011981 127.814639 
L 219.011981 113.533252 
L 220.15526 113.533252 
L 220.15526 110.05769 
L 221.298538 110.05769 
L 221.298538 140.967004 
L 222.441817 140.967004 
L 222.441817 118.81844 
L 223.585095 118.81844 
L 223.585095 92.538854 
L 224.728374 92.538854 
L 224.728374 101.051437 
L 225.871652 101.051437 
L 225.871652 95.699662 
L 227.014931 95.699662 
L 227.014931 118.376829 
L 228.158209 118.376829 
L 228.158209 141.070824 
L 229.301488 141.070824 
L 229.301488 108.156803 
L 230.444766 108.156803 
L 230.444766 116.630741 
L 231.588045 116.630741 
L 231.588045 130.604894 
L 232.731323 130.604894 
L 232.731323 119.818889 
L 233.874602 119.818889 
L 233.874602 116.356455 
L 235.01788 116.356455 
L 235.01788 122.681654 
L 236.161159 122.681654 
L 236.161159 129.185421 
L 237.304437 129.185421 
L 237.304437 114.768412 
L 238.447716 114.768412 
L 238.447716 108.027601 
L 239.590994 108.027601 
L 239.590994 137.876574 
L 240.734272 137.876574 
L 240.734272 121.227779 
L 241.877551 121.227779 
L 241.877551 91.128635 
L 243.020829 91.128635 
L 243.020829 100.890909 
L 244.164108 100.890909 
L 244.164108 92.508293 
L 245.307386 92.508293 
L 245.307386 119.182513 
L 246.450665 119.182513 
L 246.450665 136.686884 
L 247.593943 136.686884 
L 247.593943 108.83753 
L 248.737222 108.83753 
L 248.737222 118.462697 
L 249.8805 118.462697 
L 249.8805 131.22314 
L 251.023779 131.22314 
L 251.023779 119.858034 
L 252.167057 119.858034 
L 252.167057 119.047179 
L 253.310336 119.047179 
L 253.310336 121.34747 
L 254.453614 121.34747 
L 254.453614 128.440362 
L 255.596893 128.440362 
L 255.596893 116.79079 
L 256.740171 116.79079 
L 256.740171 111.894711 
L 257.88345 111.894711 
L 257.88345 139.519417 
L 259.026728 139.519417 
L 259.026728 118.877104 
L 260.170007 118.877104 
L 260.170007 94.465391 
L 261.313285 94.465391 
L 261.313285 103.188649 
L 262.456563 103.188649 
L 262.456563 94.305874 
L 263.599842 94.305874 
L 263.599842 118.619267 
L 264.74312 118.619267 
L 264.74312 141.043903 
L 265.886399 141.043903 
L 265.886399 106.323588 
L 267.029677 106.323588 
L 267.029677 118.15522 
L 268.172956 118.15522 
L 268.172956 129.986728 
L 269.316234 129.986728 
L 269.316234 121.132223 
L 270.459513 121.132223 
L 270.459513 117.09032 
L 271.602791 117.09032 
L 271.602791 118.721902 
L 272.74607 118.721902 
L 272.74607 129.28156 
L 273.889348 129.28156 
L 273.889348 116.948313 
L 275.032627 116.948313 
L 275.032627 111.987869 
L 276.175905 111.987869 
L 276.175905 138.640059 
L 277.319184 138.640059 
L 277.319184 117.996917 
L 278.462462 117.996917 
L 278.462462 93.601167 
L 279.605741 93.601167 
L 279.605741 99.185252 
L 280.749019 99.185252 
L 280.749019 93.895242 
L 281.892298 93.895242 
L 281.892298 121.685704 
L 283.035576 121.685704 
L 283.035576 135.753091 
L 284.178854 135.753091 
L 284.178854 108.187552 
L 285.322133 108.187552 
L 285.322133 116.981349 
L 286.465411 116.981349 
L 286.465411 129.83364 
L 287.60869 129.83364 
L 287.60869 120.227631 
L 288.751968 120.227631 
L 288.751968 117.860452 
L 289.895247 117.860452 
L 289.895247 119.175553 
L 291.038525 119.175553 
L 291.038525 129.533441 
L 292.181804 129.533441 
L 292.181804 118.934257 
L 293.325082 118.934257 
L 293.325082 106.631624 
L 294.468361 106.631624 
L 294.468361 137.010869 
L 295.611639 137.010869 
L 295.611639 122.193214 
L 296.754918 122.193214 
L 296.754918 94.813736 
L 297.898196 94.813736 
L 297.898196 100.670325 
L 299.041475 100.670325 
L 299.041475 93.629242 
L 300.184753 93.629242 
L 300.184753 119.009873 
L 301.328032 119.009873 
L 301.328032 139.768713 
L 302.47131 139.768713 
L 302.47131 108.293863 
L 303.614589 108.293863 
L 303.614589 114.508985 
L 304.757867 114.508985 
L 304.757867 127.268912 
L 305.901146 127.268912 
L 305.901146 120.105219 
L 307.044424 120.105219 
L 307.044424 112.502361 
L 308.187702 112.502361 
L 308.187702 119.320639 
L 309.330981 119.320639 
L 309.330981 130.355112 
L 310.474259 130.355112 
L 310.474259 116.063273 
L 311.617538 116.063273 
L 311.617538 113.452669 
L 312.760816 113.452669 
L 312.760816 138.054479 
L 313.904095 138.054479 
L 313.904095 118.969833 
L 315.047373 118.969833 
L 315.047373 93.521431 
L 316.190652 93.521431 
L 316.190652 100.997622 
L 317.33393 100.997622 
L 317.33393 92.048149 
L 318.477209 92.048149 
L 318.477209 121.31002 
L 319.620487 121.31002 
L 319.620487 138.521952 
L 320.763766 138.521952 
L 320.763766 107.963214 
L 321.907044 107.963214 
L 321.907044 116.062329 
L 323.050323 116.062329 
L 323.050323 128.071829 
L 324.193601 128.071829 
L 324.193601 115.20241 
L 325.33688 115.20241 
L 325.33688 119.411581 
L 326.480158 119.411581 
L 326.480158 117.903044 
L 327.623437 117.903044 
L 327.623437 129.426132 
L 328.766715 129.426132 
L 328.766715 114.602389 
L 329.909993 114.602389 
L 329.909993 106.014106 
L 331.053272 106.014106 
L 331.053272 138.682263 
L 332.19655 138.682263 
L 332.19655 120.261314 
L 333.339829 120.261314 
L 333.339829 94.107784 
L 334.483107 94.107784 
L 334.483107 101.534054 
L 335.626386 101.534054 
L 335.626386 93.935295 
L 336.769664 93.935295 
L 336.769664 123.448395 
L 337.912943 123.448395 
L 337.912943 138.543215 
L 339.056221 138.543215 
L 339.056221 106.090362 
L 340.1995 106.090362 
L 340.1995 115.146504 
L 341.342778 115.146504 
L 341.342778 127.788272 
L 342.486057 127.788272 
L 342.486057 120.773992 
L 343.629335 120.773992 
L 343.629335 119.164341 
L 344.772614 119.164341 
L 344.772614 120.071312 
L 345.915892 120.071312 
L 345.915892 128.552875 
L 347.059171 128.552875 
L 347.059171 115.788775 
L 348.202449 115.788775 
L 348.202449 111.244183 
L 349.345728 111.244183 
L 349.345728 141.510818 
L 350.489006 141.510818 
L 350.489006 118.050277 
L 351.632284 118.050277 
L 351.632284 95.297696 
L 352.775563 95.297696 
L 352.775563 102.803878 
L 353.918841 102.803878 
L 353.918841 95.731099 
L 355.06212 95.731099 
L 355.06212 119.1984 
L 356.205398 119.1984 
L 356.205398 138.863453 
L 357.348677 138.863453 
L 357.348677 109.575918 
L 358.491955 109.575918 
L 358.491955 117.357859 
L 359.635234 117.357859 
L 359.635234 124.444717 
L 360.778512 124.444717 
L 360.778512 117.710441 
L 361.921791 117.710441 
L 361.921791 115.153703 
L 363.065069 115.153703 
L 363.065069 116.935558 
L 364.208348 116.935558 
L 364.208348 130.889638 
L 365.351626 130.889638 
L 365.351626 116.294626 
L 366.494905 116.294626 
L 366.494905 109.777708 
L 367.638183 109.777708 
L 367.638183 138.985074 
L 368.781462 138.985074 
L 368.781462 119.424187 
L 369.92474 119.424187 
L 369.92474 93.727057 
L 371.068019 93.727057 
L 371.068019 101.987894 
L 372.211297 101.987894 
L 372.211297 91.718805 
L 373.354575 91.718805 
L 373.354575 118.331673 
L 374.497854 118.331673 
L 374.497854 136.501946 
L 375.641132 136.501946 
L 375.641132 116.170762 
L 376.784411 116.170762 
L 376.784411 132.048154 
L 377.927689 132.048154 
L 377.927689 133.231143 
L 379.070968 133.231143 
L 379.070968 135.08884 
L 380.214246 135.08884 
L 380.214246 126.093169 
L 381.357525 126.093169 
L 381.357525 107.365153 
L 382.500803 107.365153 
L 382.500803 115.419022 
L 383.644082 115.419022 
L 383.644082 113.513841 
L 384.78736 113.513841 
L 384.78736 91.1778 
L 385.930639 91.1778 
L 385.930639 110.36506 
L 387.073917 110.36506 
L 387.073917 129.718184 
L 388.217196 129.718184 
L 388.217196 120.915428 
L 389.360474 120.915428 
L 389.360474 133.476402 
L 390.503753 133.476402 
L 390.503753 125.285809 
L 391.647031 125.285809 
L 391.647031 125.021657 
L 392.79031 125.021657 
L 392.79031 129.099281 
L 393.933588 129.099281 
L 393.933588 105.885614 
L 395.076866 105.885614 
L 395.076866 114.936648 
L 396.220145 114.936648 
L 396.220145 141.391695 
L 397.363423 141.391695 
L 397.363423 111.450489 
L 398.506702 111.450489 
L 398.506702 105.210724 
L 399.64998 105.210724 
L 399.64998 109.021378 
L 400.793259 109.021378 
L 400.793259 97.965896 
L 401.936537 97.965896 
L 401.936537 116.205083 
L 403.079816 116.205083 
L 403.079816 111.438167 
L 404.223094 111.438167 
L 404.223094 96.430966 
L 405.366373 96.430966 
L 405.366373 107.588118 
L 406.509651 107.588118 
L 406.509651 103.708314 
L 407.65293 103.708314 
L 407.65293 120.949631 
L 408.796208 120.949631 
L 408.796208 129.639223 
L 409.939487 129.639223 
L 409.939487 97.693589 
L 411.082765 97.693589 
L 411.082765 93.769389 
L 412.226044 93.769389 
L 412.226044 117.953561 
L 413.369322 117.953561 
L 413.369322 137.124272 
L 414.512601 137.124272 
L 414.512601 134.835877 
L 415.655879 134.835877 
L 415.655879 101.197091 
L 416.799157 101.197091 
L 416.799157 112.488138 
L 417.942436 112.488138 
L 417.942436 130.320405 
L 419.085714 130.320405 
L 419.085714 123.852421 
L 420.228993 123.852421 
L 420.228993 134.454355 
L 421.372271 134.454355 
L 421.372271 120.745529 
L 422.51555 120.745529 
L 422.51555 114.350508 
L 423.658828 114.350508 
L 423.658828 135.794109 
L 424.802107 135.794109 
L 424.802107 125.296106 
L 425.945385 125.296106 
L 425.945385 124.523201 
L 427.088664 124.523201 
L 427.088664 119.590921 
L 428.231942 119.590921 
L 428.231942 87.990043 
L 429.375221 87.990043 
L 429.375221 114.896882 
L 430.518499 114.896882 
L 430.518499 128.865092 
L 431.661778 128.865092 
L 431.661778 98.738232 
L 432.805056 98.738232 
L 432.805056 107.46733 
L 433.948335 107.46733 
L 433.948335 103.905227 
L 435.091613 103.905227 
L 435.091613 100.668284 
L 436.234892 100.668284 
L 436.234892 113.105942 
L 437.37817 113.105942 
L 437.37817 101.690704 
L 438.521448 101.690704 
L 438.521448 121.661749 
L 439.664727 121.661749 
L 439.664727 141.404045 
L 440.808005 141.404045 
L 440.808005 116.202682 
L 441.951284 116.202682 
L 441.951284 118.462368 
L 443.094562 118.462368 
L 443.094562 132.907024 
L 444.237841 132.907024 
L 444.237841 108.444181 
L 445.381119 108.444181 
L 445.381119 96.530887 
L 446.524398 96.530887 
L 446.524398 100.107983 
L 447.667676 100.107983 
L 447.667676 104.32059 
L 448.810955 104.32059 
L 448.810955 119.189659 
L 449.954233 119.189659 
L 449.954233 132.420588 
L 451.097512 132.420588 
L 451.097512 131.906589 
L 452.24079 131.906589 
L 452.24079 133.907893 
L 453.384069 133.907893 
L 453.384069 125.09655 
L 454.527347 125.09655 
L 454.527347 106.45231 
L 455.670626 106.45231 
L 455.670626 113.2227 
L 457.957183 113.131568 
L 457.957183 91.942943 
L 459.100461 91.942943 
L 459.100461 113.301997 
L 460.243739 113.301997 
L 460.243739 129.511734 
L 461.387018 129.511734 
L 461.387018 120.356681 
L 462.530296 120.356681 
L 462.530296 129.520088 
L 463.673575 129.520088 
L 463.673575 127.11704 
L 464.816853 127.11704 
L 464.816853 122.284746 
L 465.960132 122.284746 
L 465.960132 133.217704 
L 467.10341 133.217704 
L 467.10341 105.488589 
L 468.246689 105.488589 
L 468.246689 119.632925 
L 469.389967 119.632925 
L 469.389967 145.169957 
L 470.533246 145.169957 
L 470.533246 115.586695 
L 471.676524 115.586695 
L 471.676524 106.813521 
L 472.819803 106.813521 
L 472.819803 108.821816 
L 473.963081 108.821816 
L 473.963081 97.529462 
L 475.10636 97.529462 
L 475.10636 119.41587 
L 476.249638 119.41587 
L 476.249638 111.982905 
L 477.392917 111.982905 
L 477.392917 99.190027 
L 478.536195 99.190027 
L 478.536195 107.233339 
L 479.679474 107.233339 
L 479.679474 100.522159 
L 480.822752 100.522159 
L 480.822752 121.482633 
L 481.96603 121.482633 
L 481.96603 129.616203 
L 483.109309 129.616203 
L 483.109309 99.173557 
L 484.252587 99.173557 
L 484.252587 96.366643 
L 485.395866 96.366643 
L 485.395866 117.057654 
L 486.539144 117.057654 
L 486.539144 132.641332 
L 487.682423 132.641332 
L 487.682423 134.944424 
L 488.825701 134.944424 
L 488.825701 100.655861 
L 489.96898 100.655861 
L 489.96898 112.201629 
L 491.112258 112.201629 
L 491.112258 132.487916 
L 492.255537 132.487916 
L 492.255537 125.642063 
L 493.398815 125.642063 
L 493.398815 136.659793 
L 494.542094 136.659793 
L 494.542094 122.24048 
L 495.685372 122.24048 
L 495.685372 114.833348 
L 496.828651 114.833348 
L 496.828651 135.818246 
L 497.971929 135.818246 
L 497.971929 126.332614 
L 499.115208 126.332614 
L 499.115208 124.887215 
L 500.258486 124.887215 
L 500.258486 119.332055 
L 501.401765 119.332055 
L 501.401765 89.170165 
L 502.545043 89.170165 
L 502.545043 116.428769 
L 503.688321 116.428769 
L 503.688321 128.068402 
L 504.8316 128.068402 
L 504.8316 103.208775 
L 505.974878 103.208775 
L 505.974878 110.691627 
L 507.118157 110.691627 
L 507.118157 102.32326 
L 508.261435 102.32326 
L 508.261435 103.166225 
L 509.404714 103.166225 
L 509.404714 113.229826 
L 510.547992 113.229826 
L 510.547992 105.991534 
L 511.691271 105.991534 
L 511.691271 122.808887 
L 512.834549 122.808887 
L 512.834549 140.423178 
L 513.977828 140.423178 
L 513.977828 119.269465 
L 515.121106 119.269465 
L 515.121106 119.729202 
L 516.264385 119.729202 
L 516.264385 128.893925 
L 517.407663 128.893925 
L 517.407663 109.531509 
L 518.550942 109.531509 
L 518.550942 101.035037 
L 520.837499 100.955824 
L 520.837499 100.379732 
L 521.980777 100.379732 
L 521.980777 113.997114 
L 523.124056 113.997114 
L 523.124056 134.349265 
L 524.267334 134.349265 
L 524.267334 135.00382 
L 525.410612 135.00382 
L 525.410612 137.158565 
L 526.553891 137.158565 
L 526.553891 125.134444 
L 527.697169 125.134444 
L 527.697169 106.218674 
L 528.840448 106.218674 
L 528.840448 113.482724 
L 529.983726 113.482724 
L 529.983726 113.280065 
L 531.127005 113.280065 
L 531.127005 91.760995 
L 532.270283 91.760995 
L 532.270283 114.165794 
L 533.413562 114.165794 
L 533.413562 130.291246 
L 534.55684 130.291246 
L 534.55684 121.031109 
L 535.700119 121.031109 
L 535.700119 131.098823 
L 536.843397 131.098823 
L 536.843397 127.701847 
L 537.986676 127.701847 
L 537.986676 123.270482 
L 539.129954 123.270482 
L 539.129954 131.525675 
L 540.273233 131.525675 
L 540.273233 104.723379 
L 541.416511 104.723379 
L 541.416511 117.655307 
L 542.55979 117.655307 
L 542.55979 141.560083 
L 543.703068 141.560083 
L 543.703068 116.042746 
L 544.846347 116.042746 
L 544.846347 108.831412 
L 545.989625 108.831412 
L 545.989625 107.350651 
L 547.132903 107.350651 
L 547.132903 98.385573 
L 548.276182 98.385573 
L 548.276182 115.346946 
L 549.41946 115.346946 
L 549.41946 111.519402 
L 550.562739 111.519402 
L 550.562739 100.710842 
L 551.706017 100.710842 
L 551.706017 110.67559 
L 552.849296 110.67559 
L 552.849296 102.346935 
L 553.992574 102.346935 
L 553.992574 121.184878 
L 555.135853 121.184878 
L 555.135853 128.438664 
L 556.279131 128.438664 
L 556.279131 101.62728 
L 557.42241 101.62728 
L 557.42241 99.28282 
L 557.42241 99.28282 
" clip-path="url(#p795d246f5f)" style="fill: none; stroke: #a1c9f4"/>
   </g>
   <g id="patch_6">
    <path d="M 16.914646 146.885354 
L 16.914646 86.274646 
" style="fill: none; stroke: #adb2b7; stroke-linejoin: miter; stroke-linecap: square"/>
   </g>
   <g id="patch_7">
    <path d="M 16.914646 146.885354 
L 573.165354 146.885354 
" style="fill: none; stroke: #adb2b7; stroke-linejoin: miter; stroke-linecap: square"/>
   </g>
  </g>
  <g id="axes_3">
   <g id="patch_8">
    <path d="M 16.914646 213.165354 
L 573.165354 213.165354 
L 573.165354 152.554646 
L 16.914646 152.554646 
z
" style="fill: #21252b"/>
   </g>
   <g id="matplotlib.axis_5"/>
   <g id="matplotlib.axis_6">
    <g id="text_4">
     <!-- Mag -->
     <g style="fill: #9eb1be" transform="translate(10.470583 195.291719) rotate(-90) scale(0.11 -0.11)">
      <defs>
       <path id="DejaVuSerif-4d" d="M 353 0 
L 353 331 
L 947 331 
L 947 4331 
L 319 4331 
L 319 4666 
L 1678 4666 
L 3316 1344 
L 4953 4666 
L 6228 4666 
L 6228 4331 
L 5606 4331 
L 5606 331 
L 6203 331 
L 6203 0 
L 4378 0 
L 4378 331 
L 4972 331 
L 4972 3938 
L 3372 684 
L 2931 684 
L 1331 3938 
L 1331 331 
L 1925 331 
L 1925 0 
L 353 0 
z
" transform="scale(0.015625)"/>
      </defs>
      <use xlink:href="#DejaVuSerif-4d"/>
      <use xlink:href="#DejaVuSerif-61" x="102.392578"/>
      <use xlink:href="#DejaVuSerif-67" x="162.011719"/>
     </g>
    </g>
   </g>
   <g id="line2d_3">
    <path d="M 32.65759 210.220986 
L 33.800869 210.220986 
L 33.800869 211.015693 
L 34.944147 211.015693 
L 34.944147 210.399235 
L 36.087426 210.399235 
L 36.087426 209.65526 
L 37.230704 209.65526 
L 37.230704 209.158889 
L 38.373983 209.158889 
L 38.373983 210.62244 
L 39.517261 210.62244 
L 39.517261 210.86192 
L 40.66054 210.86192 
L 40.66054 211.449957 
L 41.803818 211.449957 
L 41.803818 209.472452 
L 42.947097 209.472452 
L 42.947097 211.098176 
L 44.090375 211.098176 
L 44.090375 207.716515 
L 45.233653 207.716515 
L 45.233653 209.524159 
L 46.376932 209.524159 
L 46.376932 200.062051 
L 47.52021 200.062051 
L 47.52021 210.14093 
L 48.663489 210.14093 
L 48.663489 207.584221 
L 49.806767 207.584221 
L 49.806767 210.461421 
L 50.950046 210.461421 
L 50.950046 209.83584 
L 52.093324 209.83584 
L 52.093324 210.679953 
L 53.236603 210.679953 
L 53.236603 210.309788 
L 54.379881 210.309788 
L 54.379881 208.907774 
L 55.52316 208.907774 
L 55.52316 209.220395 
L 56.666438 209.220395 
L 56.666438 210.013937 
L 57.809717 210.013937 
L 57.809717 211.050897 
L 58.952995 211.050897 
L 58.952995 210.875894 
L 60.096274 210.875894 
L 60.096274 208.437662 
L 61.239552 208.437662 
L 61.239552 211.165288 
L 62.382831 211.165288 
L 62.382831 206.391406 
L 63.526109 206.391406 
L 63.526109 208.760795 
L 64.669388 208.760795 
L 64.669388 194.48624 
L 65.812666 194.48624 
L 65.812666 209.305341 
L 66.955944 209.305341 
L 66.955944 206.040228 
L 68.099223 206.040228 
L 68.099223 209.969736 
L 69.242501 209.969736 
L 69.242501 208.677081 
L 70.38578 208.677081 
L 70.38578 210.232106 
L 71.529058 210.232106 
L 71.529058 209.749461 
L 72.672337 209.749461 
L 72.672337 207.956355 
L 73.815615 207.956355 
L 73.815615 209.127398 
L 76.102172 209.106646 
L 76.102172 211.069683 
L 77.245451 211.069683 
L 77.245451 210.557191 
L 78.388729 210.557191 
L 78.388729 207.449894 
L 79.532008 207.449894 
L 79.532008 211.02931 
L 80.675286 211.02931 
L 80.675286 204.744774 
L 81.818565 204.744774 
L 81.818565 207.850477 
L 82.961843 207.850477 
L 82.961843 188.693349 
L 84.105122 188.693349 
L 84.105122 208.292761 
L 85.2484 208.292761 
L 85.2484 204.640689 
L 86.391679 204.640689 
L 86.391679 209.652679 
L 87.534957 209.652679 
L 87.534957 207.641842 
L 88.678235 207.641842 
L 88.678235 209.811242 
L 90.964792 209.813129 
L 90.964792 207.038069 
L 92.108071 207.038069 
L 92.108071 209.248632 
L 93.251349 209.248632 
L 93.251349 208.169512 
L 94.394628 208.169512 
L 94.394628 211.132585 
L 95.537906 211.132585 
L 95.537906 210.18651 
L 96.681185 210.18651 
L 96.681185 206.437555 
L 97.824463 206.437555 
L 97.824463 210.59129 
L 98.967742 210.59129 
L 98.967742 203.157781 
L 100.11102 203.157781 
L 100.11102 206.783527 
L 101.254299 206.783527 
L 101.254299 182.809313 
L 102.397577 182.809313 
L 102.397577 207.357455 
L 103.540856 207.357455 
L 103.540856 203.164613 
L 104.684134 203.164613 
L 104.684134 208.985289 
L 105.827413 208.985289 
L 105.827413 206.807078 
L 106.970691 206.807078 
L 106.970691 209.341516 
L 108.11397 209.341516 
L 108.11397 209.513595 
L 109.257248 209.513595 
L 109.257248 205.96367 
L 110.400526 205.96367 
L 110.400526 209.390511 
L 111.543805 209.390511 
L 111.543805 207.039965 
L 112.687083 207.039965 
L 112.687083 210.2881 
L 113.830362 210.2881 
L 113.830362 209.996865 
L 114.97364 209.996865 
L 114.97364 205.769083 
L 116.116919 205.769083 
L 116.116919 210.285335 
L 117.260197 210.285335 
L 117.260197 201.596813 
L 118.403476 201.596813 
L 118.403476 206.068046 
L 119.546754 206.068046 
L 119.546754 177.032576 
L 120.690033 177.032576 
L 120.690033 206.1331 
L 121.833311 206.1331 
L 121.833311 201.530847 
L 122.97659 201.530847 
L 122.97659 208.861033 
L 124.119868 208.861033 
L 124.119868 206.151735 
L 125.263147 206.151735 
L 125.263147 209.263243 
L 126.406425 209.263243 
L 126.406425 209.109495 
L 127.549704 209.109495 
L 127.549704 205.103343 
L 128.692982 205.103343 
L 128.692982 209.418202 
L 129.836261 209.418202 
L 129.836261 206.189382 
L 130.979539 206.189382 
L 130.979539 209.9448 
L 132.122817 209.9448 
L 132.122817 209.162021 
L 133.266096 209.162021 
L 133.266096 204.463052 
L 134.409374 204.463052 
L 134.409374 210.052307 
L 135.552653 210.052307 
L 135.552653 200.296764 
L 136.695931 200.296764 
L 136.695931 204.734267 
L 137.83921 204.734267 
L 137.83921 171.381875 
L 138.982488 171.381875 
L 138.982488 205.076931 
L 140.125767 205.076931 
L 140.125767 200.039224 
L 141.269045 200.039224 
L 141.269045 208.320917 
L 142.412324 208.320917 
L 142.412324 205.059621 
L 143.555602 205.059621 
L 143.555602 208.503286 
L 144.698881 208.503286 
L 144.698881 208.823842 
L 145.842159 208.823842 
L 145.842159 204.347866 
L 146.985438 204.347866 
L 146.985438 209.368368 
L 148.128716 209.368368 
L 148.128716 205.019308 
L 149.271995 205.019308 
L 149.271995 209.400645 
L 150.415273 209.400645 
L 150.415273 209.174487 
L 151.558552 209.174487 
L 151.558552 203.747212 
L 152.70183 203.747212 
L 152.70183 209.54687 
L 153.845108 209.54687 
L 153.845108 198.709134 
L 154.988387 198.709134 
L 154.988387 203.881436 
L 156.131665 203.881436 
L 156.131665 165.453352 
L 157.274944 165.453352 
L 157.274944 204.422411 
L 158.418222 204.422411 
L 158.418222 198.095201 
L 159.561501 198.095201 
L 159.561501 208.169642 
L 160.704779 208.169642 
L 160.704779 204.321373 
L 161.848058 204.321373 
L 161.848058 208.477898 
L 162.991336 208.477898 
L 162.991336 208.228935 
L 164.134615 208.228935 
L 164.134615 203.187944 
L 165.277893 203.187944 
L 165.277893 209.427381 
L 166.421172 209.427381 
L 166.421172 204.480369 
L 167.56445 204.480369 
L 167.56445 209.370639 
L 168.707729 209.370639 
L 168.707729 208.58115 
L 169.851007 208.58115 
L 169.851007 202.60332 
L 170.994286 202.60332 
L 170.994286 209.142631 
L 172.137564 209.142631 
L 172.137564 196.991748 
L 173.280843 196.991748 
L 173.280843 203.153536 
L 174.424121 203.153536 
L 174.424121 159.745005 
L 175.567399 159.745005 
L 175.567399 203.50946 
L 176.710678 203.50946 
L 176.710678 196.695086 
L 177.853956 196.695086 
L 177.853956 207.685092 
L 178.997235 207.685092 
L 178.997235 203.143519 
L 180.140513 203.143519 
L 180.140513 208.32974 
L 182.42707 208.363772 
L 182.42707 202.317226 
L 183.570349 202.317226 
L 183.570349 209.732473 
L 184.713627 209.732473 
L 184.713627 203.442328 
L 185.856906 203.442328 
L 185.856906 209.291462 
L 187.000184 209.291462 
L 187.000184 208.347338 
L 188.143463 208.347338 
L 188.143463 201.423956 
L 189.286741 201.423956 
L 189.286741 208.947866 
L 190.43002 208.947866 
L 190.43002 195.310541 
L 191.573298 195.310541 
L 191.573298 202.070383 
L 192.716577 202.070383 
L 192.716577 154.270043 
L 193.859855 154.270043 
L 193.859855 202.613544 
L 195.003134 202.613544 
L 195.003134 196.172639 
L 196.146412 196.172639 
L 196.146412 207.981336 
L 197.28969 207.981336 
L 197.28969 201.459952 
L 198.432969 201.459952 
L 198.432969 208.546931 
L 199.576247 208.546931 
L 199.576247 208.093485 
L 200.719526 208.093485 
L 200.719526 201.006622 
L 201.862804 201.006622 
L 201.862804 209.156971 
L 203.006083 209.156971 
L 203.006083 204.135516 
L 204.149361 204.135516 
L 204.149361 208.715131 
L 205.29264 208.715131 
L 205.29264 208.372805 
L 206.435918 208.372805 
L 206.435918 204.236103 
L 207.579197 204.236103 
L 207.579197 206.550016 
L 208.722475 206.550016 
L 208.722475 196.106729 
L 209.865754 196.106729 
L 209.865754 203.059036 
L 211.009032 203.059036 
L 211.009032 159.426072 
L 212.152311 159.426072 
L 212.152311 204.796648 
L 213.295589 204.796648 
L 213.295589 196.371816 
L 214.438868 196.371816 
L 214.438868 207.754937 
L 215.582146 207.754937 
L 215.582146 201.136801 
L 216.725425 201.136801 
L 216.725425 207.930258 
L 219.011981 207.901787 
L 219.011981 201.551369 
L 220.15526 201.551369 
L 220.15526 208.337515 
L 221.298538 208.337515 
L 221.298538 206.040418 
L 222.441817 206.040418 
L 222.441817 207.154882 
L 223.585095 207.154882 
L 223.585095 209.01133 
L 224.728374 209.01133 
L 224.728374 207.220175 
L 225.871652 207.220175 
L 225.871652 206.348039 
L 227.014931 206.348039 
L 227.014931 199.485674 
L 228.158209 199.485674 
L 228.158209 204.402369 
L 229.301488 204.402369 
L 229.301488 166.627436 
L 230.444766 166.627436 
L 230.444766 206.475085 
L 231.588045 206.475085 
L 231.588045 197.554582 
L 232.731323 197.554582 
L 232.731323 206.653594 
L 233.874602 206.653594 
L 233.874602 202.277739 
L 235.01788 202.277739 
L 235.01788 206.155924 
L 236.161159 206.155924 
L 236.161159 207.176449 
L 237.304437 207.176449 
L 237.304437 201.962546 
L 238.447716 201.962546 
L 238.447716 208.243891 
L 239.590994 208.243891 
L 239.590994 206.251514 
L 241.877551 206.187431 
L 241.877551 209.831698 
L 243.020829 209.831698 
L 243.020829 207.954845 
L 244.164108 207.954845 
L 244.164108 206.530868 
L 245.307386 206.530868 
L 245.307386 200.979285 
L 246.450665 200.979285 
L 246.450665 206.092943 
L 247.593943 206.092943 
L 247.593943 171.282651 
L 248.737222 171.282651 
L 248.737222 206.8264 
L 249.8805 206.8264 
L 249.8805 198.384579 
L 251.023779 198.384579 
L 251.023779 207.348166 
L 252.167057 207.348166 
L 252.167057 203.819832 
L 253.310336 203.819832 
L 253.310336 206.89833 
L 254.453614 206.89833 
L 254.453614 207.527101 
L 255.596893 207.527101 
L 255.596893 202.593738 
L 256.740171 202.593738 
L 256.740171 208.467627 
L 259.026728 208.489834 
L 259.026728 207.325828 
L 260.170007 207.325828 
L 260.170007 208.747545 
L 261.313285 208.747545 
L 261.313285 209.925956 
L 262.456563 209.925956 
L 262.456563 207.977822 
L 263.599842 207.977822 
L 263.599842 200.744693 
L 264.74312 200.744693 
L 264.74312 207.052612 
L 265.886399 207.052612 
L 265.886399 177.715112 
L 267.029677 177.715112 
L 267.029677 206.383336 
L 268.172956 206.383336 
L 268.172956 202.819132 
L 269.316234 202.819132 
L 269.316234 207.55094 
L 270.459513 207.55094 
L 270.459513 202.71372 
L 271.602791 202.71372 
L 271.602791 206.358565 
L 272.74607 206.358565 
L 272.74607 207.169415 
L 273.889348 207.169415 
L 273.889348 201.293544 
L 275.032627 201.293544 
L 275.032627 208.442716 
L 276.175905 208.442716 
L 276.175905 207.594696 
L 277.319184 207.594696 
L 277.319184 207.190998 
L 278.462462 207.190998 
L 278.462462 208.127915 
L 279.605741 208.127915 
L 279.605741 209.201927 
L 280.749019 209.201927 
L 280.749019 207.64968 
L 281.892298 207.64968 
L 281.892298 202.084499 
L 283.035576 202.084499 
L 283.035576 207.704338 
L 284.178854 207.704338 
L 284.178854 182.864827 
L 285.322133 182.864827 
L 285.322133 208.315257 
L 286.465411 208.315257 
L 286.465411 202.59474 
L 287.60869 202.59474 
L 287.60869 207.541063 
L 288.751968 207.541063 
L 288.751968 202.070409 
L 289.895247 202.070409 
L 289.895247 205.557756 
L 291.038525 205.557756 
L 291.038525 207.636207 
L 292.181804 207.636207 
L 292.181804 200.86134 
L 293.325082 200.86134 
L 293.325082 207.252824 
L 294.468361 207.252824 
L 294.468361 206.968955 
L 295.611639 206.968955 
L 295.611639 206.021887 
L 296.754918 206.021887 
L 296.754918 208.619687 
L 297.898196 208.619687 
L 297.898196 208.008107 
L 299.041475 208.008107 
L 299.041475 207.582957 
L 300.184753 207.582957 
L 300.184753 205.683855 
L 301.328032 205.683855 
L 301.328032 208.496691 
L 302.47131 208.496691 
L 302.47131 189.734293 
L 303.614589 189.734293 
L 303.614589 209.973568 
L 304.757867 209.973568 
L 304.757867 203.34162 
L 305.901146 203.34162 
L 305.901146 206.697364 
L 307.044424 206.697364 
L 307.044424 202.674824 
L 308.187702 202.674824 
L 308.187702 203.607767 
L 309.330981 203.607767 
L 309.330981 205.885728 
L 310.474259 205.885728 
L 310.474259 201.524133 
L 311.617538 201.524133 
L 311.617538 204.846407 
L 312.760816 204.846407 
L 312.760816 205.871101 
L 313.904095 205.871101 
L 313.904095 204.351397 
L 315.047373 204.351397 
L 315.047373 206.069127 
L 316.190652 206.069127 
L 316.190652 207.073812 
L 317.33393 207.073812 
L 317.33393 206.416471 
L 318.477209 206.416471 
L 318.477209 206.955447 
L 319.620487 206.955447 
L 319.620487 210.722012 
L 320.763766 210.722012 
L 320.763766 194.491401 
L 321.907044 194.491401 
L 321.907044 210.285447 
L 323.050323 210.285447 
L 323.050323 204.561113 
L 324.193601 204.561113 
L 324.193601 206.974727 
L 325.33688 206.974727 
L 325.33688 202.845014 
L 326.480158 202.845014 
L 326.480158 204.30042 
L 327.623437 204.30042 
L 327.623437 204.890027 
L 328.766715 204.890027 
L 328.766715 201.320791 
L 329.909993 201.320791 
L 329.909993 204.653102 
L 331.053272 204.653102 
L 331.053272 204.000099 
L 332.19655 204.000099 
L 332.19655 205.622887 
L 333.339829 205.622887 
L 333.339829 204.853709 
L 334.483107 204.853709 
L 334.483107 205.224181 
L 335.626386 205.224181 
L 335.626386 207.124078 
L 336.769664 207.124078 
L 336.769664 206.586507 
L 337.912943 206.586507 
L 337.912943 210.699217 
L 339.056221 210.699217 
L 339.056221 200.896886 
L 340.1995 200.896886 
L 340.1995 209.981887 
L 341.342778 209.981887 
L 341.342778 209.217084 
L 342.486057 209.217084 
L 342.486057 206.430432 
L 343.629335 206.430432 
L 343.629335 201.617044 
L 344.772614 201.617044 
L 344.772614 203.452479 
L 345.915892 203.452479 
L 345.915892 204.615204 
L 347.059171 204.615204 
L 347.059171 199.662878 
L 348.202449 199.662878 
L 348.202449 204.582199 
L 349.345728 204.582199 
L 349.345728 201.382544 
L 350.489006 201.382544 
L 350.489006 205.050759 
L 351.632284 205.050759 
L 351.632284 203.329021 
L 352.775563 203.329021 
L 352.775563 202.543674 
L 353.918841 202.543674 
L 353.918841 206.422677 
L 355.06212 206.422677 
L 355.06212 208.133491 
L 356.205398 208.133491 
L 356.205398 210.701801 
L 357.348677 210.701801 
L 357.348677 205.98007 
L 358.491955 205.98007 
L 358.491955 210.582606 
L 359.635234 210.582606 
L 359.635234 208.263349 
L 360.778512 208.263349 
L 360.778512 206.989496 
L 361.921791 206.989496 
L 361.921791 201.004379 
L 363.065069 201.004379 
L 363.065069 202.828595 
L 364.208348 202.828595 
L 364.208348 205.287238 
L 365.351626 205.287238 
L 365.351626 198.81187 
L 366.494905 198.81187 
L 366.494905 203.783611 
L 367.638183 203.783611 
L 367.638183 199.769981 
L 368.781462 199.769981 
L 368.781462 203.791303 
L 369.92474 203.791303 
L 369.92474 203.595393 
L 371.068019 203.595393 
L 371.068019 200.155663 
L 372.211297 200.155663 
L 372.211297 206.595758 
L 373.354575 206.595758 
L 373.354575 210.884363 
L 374.497854 210.884363 
L 374.497854 209.184942 
L 375.641132 209.184942 
L 375.641132 210.213831 
L 376.784411 210.213831 
L 376.784411 208.714728 
L 377.927689 208.714728 
L 377.927689 208.094925 
L 379.070968 208.094925 
L 379.070968 206.058996 
L 380.214246 206.058996 
L 380.214246 202.51122 
L 381.357525 202.51122 
L 381.357525 202.034977 
L 382.500803 202.034977 
L 382.500803 204.121566 
L 383.644082 204.121566 
L 383.644082 199.71767 
L 384.78736 199.71767 
L 384.78736 201.493353 
L 385.930639 201.493353 
L 385.930639 200.234302 
L 387.073917 200.234302 
L 387.073917 203.069628 
L 388.217196 203.069628 
L 388.217196 202.657888 
L 389.360474 202.657888 
L 389.360474 202.016461 
L 390.503753 202.016461 
L 390.503753 206.531327 
L 391.647031 206.531327 
L 391.647031 209.85001 
L 392.79031 209.85001 
L 392.79031 209.570086 
L 396.220145 209.5561 
L 396.220145 209.787761 
L 397.363423 209.787761 
L 397.363423 205.70362 
L 398.506702 205.70362 
L 398.506702 203.883976 
L 399.64998 203.883976 
L 399.64998 202.955454 
L 400.793259 202.955454 
L 400.793259 203.458061 
L 401.936537 203.458061 
L 401.936537 200.894082 
L 403.079816 200.894082 
L 403.079816 201.868385 
L 404.223094 201.868385 
L 404.223094 201.37539 
L 405.366373 201.37539 
L 405.366373 204.328289 
L 406.509651 204.328289 
L 406.509651 202.086828 
L 407.65293 202.086828 
L 407.65293 203.615378 
L 408.796208 203.615378 
L 408.796208 206.095733 
L 409.939487 206.095733 
L 409.939487 211.110829 
L 411.082765 211.110829 
L 411.082765 209.838696 
L 412.226044 209.838696 
L 412.226044 210.96137 
L 413.369322 210.96137 
L 413.369322 210.659603 
L 414.512601 210.659603 
L 414.512601 210.34924 
L 415.655879 210.34924 
L 415.655879 207.813677 
L 416.799157 207.813677 
L 416.799157 203.409656 
L 417.942436 203.409656 
L 417.942436 205.41812 
L 419.085714 205.41812 
L 419.085714 205.610731 
L 420.228993 205.610731 
L 420.228993 201.149622 
L 421.372271 201.149622 
L 421.372271 205.093424 
L 422.51555 205.093424 
L 422.51555 201.523371 
L 423.658828 201.523371 
L 423.658828 207.005332 
L 424.802107 207.005332 
L 424.802107 204.59044 
L 425.945385 204.59044 
L 425.945385 203.318689 
L 427.088664 203.318689 
L 427.088664 208.073122 
L 428.231942 208.073122 
L 428.231942 211.17707 
L 429.375221 211.17707 
L 429.375221 210.830934 
L 430.518499 210.830934 
L 430.518499 209.442669 
L 431.661778 209.442669 
L 431.661778 210.479337 
L 432.805056 210.479337 
L 432.805056 208.615051 
L 433.948335 208.615051 
L 433.948335 207.406934 
L 435.091613 207.406934 
L 435.091613 204.871868 
L 437.37817 204.903847 
L 437.37817 206.897784 
L 438.521448 206.897784 
L 438.521448 202.257948 
L 439.664727 202.257948 
L 439.664727 205.588048 
L 440.808005 205.588048 
L 440.808005 203.353486 
L 441.951284 203.353486 
L 441.951284 205.65693 
L 443.094562 205.65693 
L 443.094562 205.47433 
L 444.237841 205.47433 
L 444.237841 204.614723 
L 445.381119 204.614723 
L 445.381119 208.038452 
L 446.524398 208.038452 
L 446.524398 208.680378 
L 447.667676 208.680378 
L 447.667676 210.261912 
L 448.810955 210.261912 
L 448.810955 210.513311 
L 449.954233 210.513311 
L 449.954233 209.121763 
L 451.097512 209.121763 
L 451.097512 207.819946 
L 452.24079 207.819946 
L 452.24079 207.652312 
L 453.384069 207.652312 
L 453.384069 206.595332 
L 454.527347 206.595332 
L 454.527347 205.787654 
L 455.670626 205.787654 
L 455.670626 207.217028 
L 456.813904 207.217028 
L 456.813904 204.552503 
L 457.957183 204.552503 
L 457.957183 205.695101 
L 459.100461 205.695101 
L 459.100461 205.526583 
L 460.243739 205.526583 
L 460.243739 206.063996 
L 461.387018 206.063996 
L 461.387018 206.176953 
L 463.673575 206.174055 
L 463.673575 208.621019 
L 464.816853 208.621019 
L 464.816853 209.19574 
L 465.960132 209.19574 
L 465.960132 210.468584 
L 467.10341 210.468584 
L 467.10341 210.066465 
L 468.246689 210.066465 
L 468.246689 210.479716 
L 469.389967 210.479716 
L 469.389967 209.66084 
L 470.533246 209.66084 
L 470.533246 207.695215 
L 472.819803 207.754011 
L 472.819803 206.934286 
L 473.963081 206.934286 
L 473.963081 206.514583 
L 475.10636 206.514583 
L 475.10636 205.849411 
L 476.249638 205.849411 
L 476.249638 206.537937 
L 477.392917 206.537937 
L 477.392917 206.672621 
L 478.536195 206.672621 
L 478.536195 207.829383 
L 479.679474 207.829383 
L 479.679474 206.154137 
L 480.822752 206.154137 
L 480.822752 207.321402 
L 481.96603 207.321402 
L 481.96603 208.557605 
L 483.109309 208.557605 
L 483.109309 211.277493 
L 484.252587 211.277493 
L 484.252587 210.669528 
L 485.395866 210.669528 
L 485.395866 211.291448 
L 487.682423 211.252589 
L 487.682423 210.688549 
L 488.825701 210.688549 
L 488.825701 209.178768 
L 489.96898 209.178768 
L 489.96898 207.829301 
L 491.112258 207.829301 
L 491.112258 209.064323 
L 492.255537 209.064323 
L 492.255537 208.71504 
L 493.398815 208.71504 
L 493.398815 205.932577 
L 494.542094 205.932577 
L 494.542094 208.929118 
L 495.685372 208.929118 
L 495.685372 206.863756 
L 496.828651 206.863756 
L 496.828651 209.837224 
L 497.971929 209.837224 
L 497.971929 208.525359 
L 499.115208 208.525359 
L 499.115208 207.011262 
L 500.258486 207.011262 
L 500.258486 210.416086 
L 501.401765 210.416086 
L 501.401765 210.577861 
L 502.545043 210.577861 
L 502.545043 211.002092 
L 503.688321 211.002092 
L 503.688321 209.644849 
L 504.8316 209.644849 
L 504.8316 210.884544 
L 505.974878 210.884544 
L 505.974878 208.822507 
L 507.118157 208.822507 
L 507.118157 209.128025 
L 509.404714 209.192487 
L 509.404714 208.537787 
L 510.547992 208.537787 
L 510.547992 209.757589 
L 511.691271 209.757589 
L 511.691271 206.84788 
L 512.834549 206.84788 
L 512.834549 209.366023 
L 513.977828 209.366023 
L 513.977828 208.277793 
L 515.121106 208.277793 
L 515.121106 208.958626 
L 516.264385 208.958626 
L 516.264385 209.25875 
L 517.407663 209.25875 
L 517.407663 208.258212 
L 518.550942 208.258212 
L 518.550942 210.412252 
L 519.69422 210.412252 
L 519.69422 208.608522 
L 520.837499 208.608522 
L 520.837499 209.984309 
L 521.980777 209.984309 
L 521.980777 210.613133 
L 523.124056 210.613133 
L 523.124056 209.562739 
L 524.267334 209.562739 
L 524.267334 207.983998 
L 525.410612 207.983998 
L 525.410612 209.681814 
L 526.553891 209.681814 
L 526.553891 210.547825 
L 527.697169 210.547825 
L 527.697169 209.410315 
L 528.840448 209.410315 
L 528.840448 210.321346 
L 529.983726 210.321346 
L 529.983726 209.176852 
L 531.127005 209.176852 
L 531.127005 209.722621 
L 532.270283 209.722621 
L 532.270283 210.148757 
L 533.413562 210.148757 
L 533.413562 209.303135 
L 534.55684 209.303135 
L 534.55684 210.106393 
L 535.700119 210.106393 
L 535.700119 209.387264 
L 536.843397 209.387264 
L 536.843397 211.061369 
L 537.986676 211.061369 
L 537.986676 209.295917 
L 539.129954 209.295917 
L 539.129954 210.842279 
L 540.273233 210.842279 
L 540.273233 209.940165 
L 541.416511 209.940165 
L 541.416511 210.868139 
L 542.55979 210.868139 
L 542.55979 210.184906 
L 543.703068 210.184906 
L 543.703068 209.870146 
L 544.846347 209.870146 
L 544.846347 210.329792 
L 547.132903 210.231145 
L 547.132903 209.758521 
L 548.276182 209.758521 
L 548.276182 210.096669 
L 550.562739 210.097069 
L 550.562739 210.969159 
L 552.849296 211.064193 
L 552.849296 210.60206 
L 553.992574 210.60206 
L 553.992574 210.822959 
L 555.135853 210.822959 
L 555.135853 211.096204 
L 556.279131 211.096204 
L 556.279131 210.845266 
L 557.42241 210.845266 
L 557.42241 211.421525 
L 557.42241 211.421525 
" clip-path="url(#pb49337d2a8)" style="fill: none; stroke: #a1c9f4"/>
   </g>
   <g id="patch_9">
    <path d="M 16.914646 213.165354 
L 16.914646 152.554646 
" style="fill: none; stroke: #adb2b7; stroke-linejoin: miter; stroke-linecap: square"/>
   </g>
   <g id="patch_10">
    <path d="M 16.914646 213.165354 
L 573.165354 213.165354 
" style="fill: none; stroke: #adb2b7; stroke-linejoin: miter; stroke-linecap: square"/>
   </g>
  </g>
 </g>
 <defs>
  <clipPath id="pe79eab58e4">
   <rect x="16.914646" y="19.994646" width="556.250709" height="60.610709"/>
  </clipPath>
  <clipPath id="p795d246f5f">
   <rect x="16.914646" y="86.274646" width="556.250709" height="60.610709"/>
  </clipPath>
  <clipPath id="pb49337d2a8">
   <rect x="16.914646" y="152.554646" width="556.250709" height="60.610709"/>
  </clipPath>
 </defs>
</svg>
