<?xml version="1.0" encoding="utf-8" standalone="no"?>
<!DOCTYPE svg PUBLIC "-//W3C//DTD SVG 1.1//EN"
  "http://www.w3.org/Graphics/SVG/1.1/DTD/svg11.dtd">
<svg xmlns:xlink="http://www.w3.org/1999/xlink" width="576pt" height="216pt" viewBox="0 0 576 216" xmlns="http://www.w3.org/2000/svg" version="1.1">
 <metadata>
  <rdf:RDF xmlns:dc="http://purl.org/dc/elements/1.1/" xmlns:cc="http://creativecommons.org/ns#" xmlns:rdf="http://www.w3.org/1999/02/22-rdf-syntax-ns#">
   <cc:Work>
    <dc:type rdf:resource="http://purl.org/dc/dcmitype/StillImage"/>
    <dc:date>2023-09-10T20:45:06.246491</dc:date>
    <dc:format>image/svg+xml</dc:format>
    <dc:creator>
     <cc:Agent>
      <dc:title>Matplotlib v3.7.1, https://matplotlib.org/</dc:title>
     </cc:Agent>
    </dc:creator>
   </cc:Work>
  </rdf:RDF>
 </metadata>
 <defs>
  <style type="text/css">*{stroke-linejoin: round; stroke-linecap: butt}</style>
 </defs>
 <g id="figure_1">
  <g id="patch_1">
   <path d="M 0 216 
L 576 216 
L 576 0 
L 0 0 
z
" style="fill: #1b3041"/>
  </g>
  <g id="axes_1">
   <g id="patch_2">
    <path d="M 16.914646 63.765354 
L 573.165354 63.765354 
L 573.165354 19.634646 
L 16.914646 19.634646 
z
" style="fill: #21252b"/>
   </g>
   <g id="matplotlib.axis_1"/>
   <g id="matplotlib.axis_2">
    <g id="text_1">
     <!-- canal I -->
     <g style="fill: #9eb1be" transform="translate(10.626989 60.560703) rotate(-90) scale(0.11 -0.11)">
      <defs>
       <path id="DejaVuSerif-63" d="M 3291 997 
Q 3169 466 2822 187 
Q 2475 -91 1925 -91 
Q 1200 -91 759 389 
Q 319 869 319 1663 
Q 319 2459 759 2936 
Q 1200 3413 1925 3413 
Q 2241 3413 2553 3339 
Q 2866 3266 3181 3116 
L 3181 2266 
L 2847 2266 
Q 2781 2703 2561 2903 
Q 2341 3103 1931 3103 
Q 1466 3103 1228 2742 
Q 991 2381 991 1663 
Q 991 944 1227 581 
Q 1463 219 1931 219 
Q 2303 219 2525 412 
Q 2747 606 2828 997 
L 3291 997 
z
" transform="scale(0.015625)"/>
       <path id="DejaVuSerif-61" d="M 2547 1044 
L 2547 1747 
L 1806 1747 
Q 1378 1747 1168 1562 
Q 959 1378 959 997 
Q 959 650 1171 447 
Q 1384 244 1747 244 
Q 2106 244 2326 466 
Q 2547 688 2547 1044 
z
M 3122 2075 
L 3122 331 
L 3634 331 
L 3634 0 
L 2547 0 
L 2547 359 
Q 2356 128 2106 18 
Q 1856 -91 1522 -91 
Q 969 -91 644 203 
Q 319 497 319 997 
Q 319 1513 691 1797 
Q 1063 2081 1741 2081 
L 2547 2081 
L 2547 2309 
Q 2547 2688 2317 2895 
Q 2088 3103 1672 3103 
Q 1328 3103 1125 2947 
Q 922 2791 872 2484 
L 575 2484 
L 575 3156 
Q 875 3284 1158 3348 
Q 1441 3413 1709 3413 
Q 2400 3413 2761 3070 
Q 3122 2728 3122 2075 
z
" transform="scale(0.015625)"/>
       <path id="DejaVuSerif-6e" d="M 263 0 
L 263 331 
L 781 331 
L 781 2988 
L 231 2988 
L 231 3322 
L 1356 3322 
L 1356 2731 
Q 1516 3069 1770 3241 
Q 2025 3413 2363 3413 
Q 2913 3413 3172 3097 
Q 3431 2781 3431 2113 
L 3431 331 
L 3944 331 
L 3944 0 
L 2356 0 
L 2356 331 
L 2853 331 
L 2853 1931 
Q 2853 2541 2703 2767 
Q 2553 2994 2175 2994 
Q 1775 2994 1565 2701 
Q 1356 2409 1356 1850 
L 1356 331 
L 1856 331 
L 1856 0 
L 263 0 
z
" transform="scale(0.015625)"/>
       <path id="DejaVuSerif-6c" d="M 1313 331 
L 1856 331 
L 1856 0 
L 184 0 
L 184 331 
L 738 331 
L 738 4531 
L 184 4531 
L 184 4863 
L 1313 4863 
L 1313 331 
z
" transform="scale(0.015625)"/>
       <path id="DejaVuSerif-20" transform="scale(0.015625)"/>
       <path id="DejaVuSerif-49" d="M 1581 331 
L 2175 331 
L 2175 0 
L 353 0 
L 353 331 
L 947 331 
L 947 4331 
L 353 4331 
L 353 4666 
L 2175 4666 
L 2175 4331 
L 1581 4331 
L 1581 331 
z
" transform="scale(0.015625)"/>
      </defs>
      <use xlink:href="#DejaVuSerif-63"/>
      <use xlink:href="#DejaVuSerif-61" x="56.005859"/>
      <use xlink:href="#DejaVuSerif-6e" x="115.625"/>
      <use xlink:href="#DejaVuSerif-61" x="180.029297"/>
      <use xlink:href="#DejaVuSerif-6c" x="239.648438"/>
      <use xlink:href="#DejaVuSerif-20" x="271.630859"/>
      <use xlink:href="#DejaVuSerif-49" x="303.417969"/>
     </g>
    </g>
   </g>
   <g id="line2d_1">
    <path d="M 32.65759 42.650524 
L 34.944147 42.608363 
L 34.944147 41.034989 
L 36.087426 41.034989 
L 36.087426 41.560977 
L 37.230704 41.560977 
L 37.230704 42.631051 
L 38.373983 42.631051 
L 38.373983 42.826253 
L 39.517261 42.826253 
L 39.517261 43.622485 
L 40.66054 43.622485 
L 40.66054 42.715413 
L 41.803818 42.715413 
L 41.803818 44.288129 
L 42.947097 44.288129 
L 42.947097 42.287343 
L 44.090375 42.287343 
L 44.090375 41.054227 
L 45.233653 41.054227 
L 45.233653 40.895637 
L 46.376932 40.895637 
L 46.376932 40.280634 
L 47.52021 40.280634 
L 47.52021 42.690883 
L 48.663489 42.690883 
L 48.663489 41.44501 
L 49.806767 41.44501 
L 49.806767 42.921297 
L 50.950046 42.921297 
L 50.950046 44.874288 
L 52.093324 44.874288 
L 52.093324 41.842792 
L 53.236603 41.842792 
L 53.236603 43.443515 
L 54.379881 43.443515 
L 54.379881 44.381979 
L 55.52316 44.381979 
L 55.52316 40.328519 
L 56.666438 40.328519 
L 56.666438 41.171641 
L 57.809717 41.171641 
L 57.809717 43.875861 
L 60.096274 43.831958 
L 60.096274 41.905248 
L 61.239552 41.905248 
L 61.239552 44.500085 
L 62.382831 44.500085 
L 62.382831 43.259326 
L 63.526109 43.259326 
L 63.526109 42.236235 
L 64.669388 42.236235 
L 64.669388 42.735827 
L 65.812666 42.735827 
L 65.812666 41.599433 
L 68.099223 41.695056 
L 68.099223 41.245945 
L 69.242501 41.245945 
L 69.242501 43.540088 
L 70.38578 43.540088 
L 70.38578 42.632148 
L 71.529058 42.632148 
L 71.529058 44.500397 
L 72.672337 44.500397 
L 72.672337 41.491795 
L 73.815615 41.491795 
L 73.815615 42.116657 
L 74.958894 42.116657 
L 74.958894 43.649906 
L 76.102172 43.649906 
L 76.102172 41.733971 
L 77.245451 41.733971 
L 77.245451 40.369257 
L 78.388729 40.369257 
L 78.388729 43.846119 
L 79.532008 43.846119 
L 79.532008 40.092785 
L 80.675286 40.092785 
L 80.675286 40.805722 
L 81.818565 40.805722 
L 81.818565 40.659946 
L 82.961843 40.659946 
L 82.961843 40.455283 
L 84.105122 40.455283 
L 84.105122 44.631246 
L 85.2484 44.631246 
L 85.2484 42.637112 
L 86.391679 42.637112 
L 86.391679 43.346728 
L 87.534957 43.346728 
L 87.534957 42.233352 
L 88.678235 42.233352 
L 88.678235 44.465172 
L 89.821514 44.465172 
L 89.821514 43.491518 
L 90.964792 43.491518 
L 90.964792 42.363261 
L 92.108071 42.363261 
L 92.108071 41.892517 
L 93.251349 41.892517 
L 93.251349 42.952408 
L 94.394628 42.952408 
L 94.394628 42.254781 
L 95.537906 42.254781 
L 95.537906 41.499939 
L 96.681185 41.499939 
L 96.681185 42.603277 
L 97.824463 42.603277 
L 97.824463 41.840224 
L 98.967742 41.840224 
L 98.967742 40.57087 
L 100.11102 40.57087 
L 100.11102 41.733547 
L 102.397577 41.788302 
L 102.397577 43.891961 
L 103.540856 43.891961 
L 103.540856 41.605441 
L 104.684134 41.605441 
L 104.684134 42.82672 
L 105.827413 42.82672 
L 105.827413 44.225132 
L 106.970691 44.225132 
L 106.970691 42.386785 
L 108.11397 42.386785 
L 108.11397 43.279097 
L 109.257248 43.279097 
L 109.257248 42.254904 
L 110.400526 42.254904 
L 110.400526 42.750715 
L 111.543805 42.750715 
L 111.543805 41.594843 
L 112.687083 41.594843 
L 112.687083 41.289843 
L 113.830362 41.289843 
L 113.830362 39.721242 
L 114.97364 39.721242 
L 114.97364 41.722261 
L 116.116919 41.722261 
L 116.116919 43.921073 
L 117.260197 43.921073 
L 117.260197 41.57813 
L 118.403476 41.57813 
L 118.403476 42.631302 
L 119.546754 42.631302 
L 119.546754 41.724277 
L 120.690033 41.724277 
L 120.690033 41.308905 
L 121.833311 41.308905 
L 121.833311 41.50479 
L 124.119868 41.608093 
L 124.119868 42.468435 
L 125.263147 42.468435 
L 125.263147 40.167635 
L 126.406425 40.167635 
L 126.406425 42.489039 
L 127.549704 42.489039 
L 127.549704 41.638847 
L 128.692982 41.638847 
L 128.692982 41.400967 
L 129.836261 41.400967 
L 129.836261 38.794063 
L 130.979539 38.794063 
L 130.979539 43.048418 
L 132.122817 43.048418 
L 132.122817 45.000625 
L 133.266096 45.000625 
L 133.266096 42.09087 
L 134.409374 42.09087 
L 134.409374 41.63056 
L 135.552653 41.63056 
L 135.552653 42.847369 
L 136.695931 42.847369 
L 136.695931 40.032754 
L 137.83921 40.032754 
L 137.83921 43.814772 
L 138.982488 43.814772 
L 138.982488 40.76067 
L 140.125767 40.76067 
L 140.125767 43.16051 
L 141.269045 43.16051 
L 141.269045 40.492118 
L 142.412324 40.492118 
L 142.412324 42.241384 
L 143.555602 42.241384 
L 143.555602 41.445595 
L 144.698881 41.445595 
L 144.698881 42.782663 
L 145.842159 42.782663 
L 145.842159 41.515512 
L 146.985438 41.515512 
L 146.985438 41.286174 
L 148.128716 41.286174 
L 148.128716 41.739538 
L 149.271995 41.739538 
L 149.271995 41.038299 
L 151.558552 41.050331 
L 151.558552 42.00489 
L 152.70183 42.00489 
L 152.70183 43.304141 
L 153.845108 43.304141 
L 153.845108 43.715074 
L 154.988387 43.715074 
L 154.988387 42.843331 
L 156.131665 42.843331 
L 156.131665 39.813845 
L 157.274944 39.813845 
L 157.274944 43.018463 
L 158.418222 43.018463 
L 158.418222 41.458708 
L 159.561501 41.458708 
L 159.561501 41.910398 
L 160.704779 41.910398 
L 160.704779 42.974022 
L 161.848058 42.974022 
L 161.848058 41.337036 
L 162.991336 41.337036 
L 162.991336 43.501928 
L 164.134615 43.501928 
L 164.134615 40.196251 
L 165.277893 40.196251 
L 165.277893 41.889903 
L 166.421172 41.889903 
L 166.421172 43.276987 
L 167.56445 43.276987 
L 167.56445 42.623215 
L 169.851007 42.582852 
L 169.851007 40.392071 
L 170.994286 40.392071 
L 170.994286 41.572843 
L 172.137564 41.572843 
L 172.137564 42.995458 
L 173.280843 42.995458 
L 173.280843 41.754933 
L 174.424121 41.754933 
L 174.424121 41.411739 
L 175.567399 41.411739 
L 175.567399 40.920877 
L 176.710678 40.920877 
L 176.710678 41.20817 
L 177.853956 41.20817 
L 177.853956 42.366121 
L 178.997235 42.366121 
L 178.997235 40.319936 
L 180.140513 40.319936 
L 180.140513 39.549219 
L 181.283792 39.549219 
L 181.283792 41.545206 
L 182.42707 41.545206 
L 182.42707 43.91827 
L 183.570349 43.91827 
L 183.570349 41.48394 
L 184.713627 41.48394 
L 184.713627 42.98403 
L 185.856906 42.98403 
L 185.856906 42.844212 
L 187.000184 42.844212 
L 187.000184 43.357207 
L 188.143463 43.357207 
L 188.143463 40.842898 
L 189.286741 40.842898 
L 189.286741 41.546471 
L 190.43002 41.546471 
L 190.43002 41.845708 
L 191.573298 41.845708 
L 191.573298 42.126521 
L 192.716577 42.126521 
L 192.716577 37.633984 
L 193.859855 37.633984 
L 193.859855 58.425064 
L 195.003134 58.425064 
L 195.003134 43.146536 
L 196.146412 43.146536 
L 196.146412 26.138258 
L 197.28969 26.138258 
L 197.28969 31.46885 
L 198.432969 31.46885 
L 198.432969 23.779399 
L 199.576247 23.779399 
L 199.576247 45.302528 
L 200.719526 45.302528 
L 200.719526 58.681429 
L 201.862804 58.681429 
L 201.862804 36.955856 
L 203.006083 36.955856 
L 203.006083 42.176814 
L 204.149361 42.176814 
L 204.149361 52.504423 
L 205.29264 52.504423 
L 205.29264 42.239578 
L 206.435918 42.239578 
L 206.435918 41.607035 
L 207.579197 41.607035 
L 207.579197 42.957718 
L 208.722475 42.957718 
L 208.722475 51.047779 
L 209.865754 51.047779 
L 209.865754 41.586405 
L 211.009032 41.586405 
L 211.009032 37.350078 
L 212.152311 37.350078 
L 212.152311 56.795005 
L 213.295589 56.795005 
L 213.295589 44.845768 
L 214.438868 44.845768 
L 214.438868 25.228185 
L 215.582146 25.228185 
L 215.582146 29.608726 
L 216.725425 29.608726 
L 216.725425 24.892241 
L 217.868703 24.892241 
L 217.868703 45.0084 
L 219.011981 45.0084 
L 219.011981 58.639623 
L 220.15526 58.639623 
L 220.15526 35.598516 
L 221.298538 35.598516 
L 221.298538 43.63405 
L 222.441817 43.63405 
L 222.441817 53.931949 
L 223.585095 53.931949 
L 223.585095 46.573857 
L 224.728374 46.573857 
L 224.728374 39.479041 
L 225.871652 39.479041 
L 225.871652 43.764486 
L 227.014931 43.764486 
L 227.014931 50.657237 
L 228.158209 50.657237 
L 228.158209 42.549117 
L 229.301488 42.549117 
L 229.301488 35.401074 
L 230.444766 35.401074 
L 230.444766 56.665475 
L 231.588045 56.665475 
L 231.588045 45.615614 
L 232.731323 45.615614 
L 232.731323 24.385724 
L 233.874602 24.385724 
L 233.874602 33.74484 
L 235.01788 33.74484 
L 235.01788 24.464214 
L 236.161159 24.464214 
L 236.161159 44.130384 
L 237.304437 44.130384 
L 237.304437 60.858847 
L 238.447716 60.858847 
L 238.447716 35.709549 
L 239.590994 35.709549 
L 239.590994 42.514653 
L 240.734272 42.514653 
L 240.734272 51.393176 
L 241.877551 51.393176 
L 241.877551 44.105288 
L 243.020829 44.105288 
L 243.020829 42.808347 
L 244.164108 42.808347 
L 244.164108 41.591363 
L 245.307386 41.591363 
L 245.307386 50.846245 
L 246.450665 50.846245 
L 246.450665 40.49105 
L 247.593943 40.49105 
L 247.593943 35.569649 
L 248.737222 35.569649 
L 248.737222 58.971764 
L 249.8805 58.971764 
L 249.8805 43.410053 
L 251.023779 43.410053 
L 251.023779 25.122169 
L 252.167057 25.122169 
L 252.167057 29.49246 
L 253.310336 29.49246 
L 253.310336 22.617193 
L 254.453614 22.617193 
L 254.453614 42.020092 
L 255.596893 42.020092 
L 255.596893 57.23275 
L 256.740171 57.23275 
L 256.740171 38.549433 
L 257.88345 38.549433 
L 257.88345 42.010843 
L 259.026728 42.010843 
L 259.026728 51.032164 
L 260.170007 51.032164 
L 260.170007 43.131093 
L 261.313285 43.131093 
L 261.313285 42.38232 
L 262.456563 42.38232 
L 262.456563 42.134418 
L 263.599842 42.134418 
L 263.599842 50.089946 
L 264.74312 50.089946 
L 264.74312 40.760846 
L 265.886399 40.760846 
L 265.886399 35.968342 
L 267.029677 35.968342 
L 267.029677 58.495554 
L 268.172956 58.495554 
L 268.172956 42.790778 
L 269.316234 42.790778 
L 269.316234 22.989696 
L 270.459513 22.989696 
L 270.459513 33.219516 
L 271.602791 33.219516 
L 271.602791 24.347581 
L 272.74607 24.347581 
L 272.74607 42.5888 
L 273.889348 42.5888 
L 273.889348 56.11128 
L 275.032627 56.11128 
L 275.032627 36.232278 
L 276.175905 36.232278 
L 276.175905 44.004564 
L 277.319184 44.004564 
L 277.319184 54.234654 
L 278.462462 54.234654 
L 278.462462 44.446105 
L 279.605741 44.446105 
L 279.605741 42.787211 
L 280.749019 42.787211 
L 280.749019 47.051836 
L 281.892298 47.051836 
L 281.892298 50.828457 
L 283.035576 50.828457 
L 283.035576 42.329425 
L 284.178854 42.329425 
L 284.178854 36.367456 
L 285.322133 36.367456 
L 285.322133 56.402473 
L 286.465411 56.402473 
L 286.465411 45.397968 
L 287.60869 45.397968 
L 287.60869 25.003977 
L 288.751968 25.003977 
L 288.751968 30.138428 
L 289.895247 30.138428 
L 289.895247 24.586008 
L 291.038525 24.586008 
L 291.038525 43.536052 
L 292.181804 43.536052 
L 292.181804 57.98804 
L 293.325082 57.98804 
L 293.325082 34.521767 
L 294.468361 34.521767 
L 294.468361 40.327432 
L 295.611639 40.327432 
L 295.611639 48.386728 
L 296.754918 48.386728 
L 296.754918 44.550329 
L 297.898196 44.550329 
L 297.898196 41.702434 
L 299.041475 41.702434 
L 299.041475 44.608769 
L 300.184753 44.608769 
L 300.184753 52.724422 
L 301.328032 52.724422 
L 301.328032 43.70903 
L 302.47131 43.70903 
L 302.47131 37.952438 
L 303.614589 37.952438 
L 303.614589 54.82388 
L 304.757867 54.82388 
L 304.757867 41.529979 
L 305.901146 41.529979 
L 305.901146 21.464024 
L 307.044424 21.464024 
L 307.044424 28.680254 
L 308.187702 28.680254 
L 308.187702 22.910813 
L 309.330981 22.910813 
L 309.330981 41.891486 
L 310.474259 41.891486 
L 310.474259 58.195458 
L 311.617538 58.195458 
L 311.617538 37.416531 
L 312.760816 37.416531 
L 312.760816 40.777416 
L 313.904095 40.777416 
L 313.904095 52.856802 
L 315.047373 52.856802 
L 315.047373 42.928945 
L 316.190652 42.928945 
L 316.190652 41.03978 
L 317.33393 41.03978 
L 317.33393 44.76889 
L 318.477209 44.76889 
L 318.477209 51.136269 
L 319.620487 51.136269 
L 319.620487 42.282407 
L 320.763766 42.282407 
L 320.763766 36.895809 
L 321.907044 36.895809 
L 321.907044 57.254994 
L 323.050323 57.254994 
L 323.050323 44.0252 
L 324.193601 44.0252 
L 324.193601 20.883628 
L 325.33688 20.883628 
L 325.33688 31.043682 
L 326.480158 31.043682 
L 326.480158 23.866322 
L 327.623437 23.866322 
L 327.623437 44.35189 
L 328.766715 44.35189 
L 328.766715 60.272658 
L 329.909993 60.272658 
L 329.909993 35.556171 
L 331.053272 35.556171 
L 331.053272 43.098688 
L 332.19655 43.098688 
L 332.19655 52.563426 
L 333.339829 52.563426 
L 333.339829 45.245138 
L 334.483107 45.245138 
L 334.483107 40.81118 
L 335.626386 40.81118 
L 335.626386 41.647945 
L 336.769664 41.647945 
L 336.769664 51.493149 
L 337.912943 51.493149 
L 337.912943 42.897035 
L 339.056221 42.897035 
L 339.056221 37.890707 
L 340.1995 37.890707 
L 340.1995 57.71903 
L 341.342778 57.71903 
L 341.342778 43.643798 
L 342.486057 43.643798 
L 342.486057 25.512966 
L 343.629335 25.512966 
L 343.629335 31.066637 
L 344.772614 31.066637 
L 344.772614 23.416603 
L 345.915892 23.416603 
L 345.915892 43.195261 
L 347.059171 43.195261 
L 347.059171 57.781908 
L 348.202449 57.781908 
L 348.202449 34.611439 
L 349.345728 34.611439 
L 349.345728 42.089476 
L 350.489006 42.089476 
L 350.489006 51.671572 
L 351.632284 51.671572 
L 351.632284 43.410305 
L 352.775563 43.410305 
L 352.775563 44.21958 
L 353.918841 44.21958 
L 353.918841 43.427323 
L 355.06212 43.427323 
L 355.06212 51.089973 
L 356.205398 51.089973 
L 356.205398 39.696324 
L 357.348677 39.696324 
L 357.348677 37.125833 
L 358.491955 37.125833 
L 358.491955 57.553692 
L 359.635234 57.553692 
L 359.635234 45.157044 
L 360.778512 45.157044 
L 360.778512 25.01967 
L 361.921791 25.01967 
L 361.921791 31.482674 
L 363.065069 31.482674 
L 363.065069 24.838725 
L 364.208348 24.838725 
L 364.208348 44.341542 
L 365.351626 44.341542 
L 365.351626 58.335804 
L 366.494905 58.335804 
L 366.494905 35.405833 
L 367.638183 35.405833 
L 367.638183 45.30395 
L 368.781462 45.30395 
L 368.781462 50.142735 
L 369.92474 50.142735 
L 369.92474 42.985237 
L 371.068019 42.985237 
L 371.068019 43.146938 
L 372.211297 43.146938 
L 372.211297 44.477571 
L 373.354575 44.477571 
L 373.354575 51.688809 
L 374.497854 51.688809 
L 374.497854 42.304521 
L 375.641132 42.304521 
L 375.641132 59.862716 
L 376.784411 59.862716 
L 376.784411 40.251258 
L 377.927689 40.251258 
L 377.927689 31.878316 
L 379.070968 31.878316 
L 379.070968 51.673888 
L 380.214246 51.673888 
L 380.214246 45.58737 
L 381.357525 45.58737 
L 381.357525 32.468035 
L 382.500803 32.468035 
L 382.500803 58.424151 
L 384.78736 58.38669 
L 384.78736 45.774326 
L 385.930639 45.774326 
L 385.930639 50.200669 
L 387.073917 50.200669 
L 387.073917 48.001883 
L 388.217196 48.001883 
L 388.217196 33.268426 
L 389.360474 33.268426 
L 389.360474 32.213111 
L 390.503753 32.213111 
L 390.503753 56.655781 
L 391.647031 56.655781 
L 391.647031 48.661599 
L 392.79031 48.661599 
L 392.79031 35.844863 
L 393.933588 35.844863 
L 393.933588 35.329571 
L 395.076866 35.329571 
L 395.076866 28.833828 
L 396.220145 28.833828 
L 396.220145 44.084772 
L 397.363423 44.084772 
L 397.363423 36.294709 
L 398.506702 36.294709 
L 398.506702 39.638385 
L 399.64998 39.638385 
L 399.64998 59.519302 
L 400.793259 59.519302 
L 400.793259 40.632235 
L 401.936537 40.632235 
L 401.936537 37.321118 
L 403.079816 37.321118 
L 403.079816 30.084607 
L 404.223094 30.084607 
L 404.223094 46.156496 
L 405.366373 46.156496 
L 405.366373 56.934149 
L 406.509651 56.934149 
L 406.509651 35.08947 
L 407.65293 35.08947 
L 407.65293 41.61576 
L 408.796208 41.61576 
L 408.796208 30.730442 
L 409.939487 30.730442 
L 409.939487 40.427696 
L 411.082765 40.427696 
L 411.082765 42.545059 
L 412.226044 42.545059 
L 412.226044 22.653275 
L 413.369322 22.653275 
L 413.369322 43.732811 
L 414.512601 43.732811 
L 414.512601 40.096679 
L 415.655879 40.096679 
L 415.655879 29.334389 
L 416.799157 29.334389 
L 416.799157 39.20672 
L 417.942436 39.20672 
L 417.942436 34.108167 
L 419.085714 34.108167 
L 419.085714 56.647267 
L 420.228993 56.647267 
L 420.228993 46.377505 
L 421.372271 46.377505 
L 421.372271 29.988606 
L 422.51555 29.988606 
L 422.51555 35.284443 
L 423.658828 35.284443 
L 423.658828 42.076938 
L 424.802107 42.076938 
L 424.802107 58.899326 
L 425.945385 58.899326 
L 425.945385 39.345124 
L 427.088664 39.345124 
L 427.088664 35.493409 
L 428.231942 35.493409 
L 428.231942 44.401105 
L 429.375221 44.401105 
L 429.375221 27.226018 
L 430.518499 27.226018 
L 430.518499 33.588219 
L 431.661778 33.588219 
L 431.661778 37.631018 
L 432.805056 37.631018 
L 432.805056 49.430505 
L 433.948335 49.430505 
L 433.948335 59.310713 
L 435.091613 59.310713 
L 435.091613 32.547794 
L 436.234892 32.547794 
L 436.234892 33.723052 
L 437.37817 33.723052 
L 437.37817 50.792194 
L 438.521448 50.792194 
L 438.521448 48.365855 
L 439.664727 48.365855 
L 439.664727 49.4916 
L 440.808005 49.4916 
L 440.808005 58.835241 
L 441.951284 58.835241 
L 441.951284 56.549485 
L 443.094562 56.549485 
L 443.094562 32.805283 
L 444.237841 32.805283 
L 444.237841 41.264005 
L 445.381119 41.264005 
L 445.381119 53.272201 
L 446.524398 53.272201 
L 446.524398 30.826055 
L 447.667676 30.826055 
L 447.667676 41.60057 
L 448.810955 41.60057 
L 448.810955 62.516372 
L 449.954233 62.516372 
L 449.954233 40.197858 
L 451.097512 40.197858 
L 451.097512 31.141122 
L 452.24079 31.141122 
L 452.24079 53.20724 
L 453.384069 53.20724 
L 453.384069 42.104667 
L 454.527347 42.104667 
L 454.527347 32.898826 
L 455.670626 32.898826 
L 455.670626 57.082726 
L 456.813904 57.082726 
L 456.813904 58.121289 
L 457.957183 58.121289 
L 457.957183 45.700936 
L 459.100461 45.700936 
L 459.100461 49.464261 
L 460.243739 49.464261 
L 460.243739 50.465439 
L 461.387018 50.465439 
L 461.387018 33.358313 
L 462.530296 33.358313 
L 462.530296 29.611204 
L 463.673575 29.611204 
L 463.673575 57.671508 
L 464.816853 57.671508 
L 464.816853 48.515072 
L 465.960132 48.515072 
L 465.960132 37.093458 
L 467.10341 37.093458 
L 467.10341 34.068897 
L 468.246689 34.068897 
L 468.246689 27.144263 
L 469.389967 27.144263 
L 469.389967 45.33133 
L 470.533246 45.33133 
L 470.533246 33.896933 
L 471.676524 33.896933 
L 471.676524 36.052275 
L 472.819803 36.052275 
L 472.819803 57.596711 
L 473.963081 57.596711 
L 473.963081 43.25552 
L 475.10636 43.25552 
L 475.10636 35.118985 
L 476.249638 35.118985 
L 476.249638 32.220168 
L 477.392917 32.220168 
L 477.392917 45.647927 
L 478.536195 45.647927 
L 478.536195 55.52405 
L 479.679474 55.52405 
L 479.679474 32.763294 
L 480.822752 32.763294 
L 480.822752 41.864984 
L 481.96603 41.864984 
L 481.96603 28.426339 
L 483.109309 28.426339 
L 483.109309 37.03654 
L 484.252587 37.03654 
L 484.252587 41.025204 
L 485.395866 41.025204 
L 485.395866 22.490652 
L 486.539144 22.490652 
L 486.539144 43.38447 
L 487.682423 43.38447 
L 487.682423 38.387213 
L 488.825701 38.387213 
L 488.825701 31.438566 
L 489.96898 31.438566 
L 489.96898 38.926544 
L 491.112258 38.926544 
L 491.112258 35.440818 
L 492.255537 35.440818 
L 492.255537 55.083982 
L 493.398815 55.083982 
L 493.398815 45.567992 
L 494.542094 45.567992 
L 494.542094 29.598384 
L 495.685372 29.598384 
L 495.685372 34.709417 
L 496.828651 34.709417 
L 496.828651 40.763364 
L 497.971929 40.763364 
L 497.971929 58.824699 
L 499.115208 58.824699 
L 499.115208 40.02692 
L 500.258486 40.02692 
L 500.258486 36.340833 
L 501.401765 36.340833 
L 501.401765 44.999292 
L 502.545043 44.999292 
L 502.545043 26.410734 
L 503.688321 26.410734 
L 503.688321 35.380152 
L 504.8316 35.380152 
L 504.8316 38.772548 
L 505.974878 38.772548 
L 505.974878 48.891046 
L 507.118157 48.891046 
L 507.118157 58.184893 
L 508.261435 58.184893 
L 508.261435 32.930726 
L 509.404714 32.930726 
L 509.404714 34.258303 
L 510.547992 34.258303 
L 510.547992 47.054787 
L 511.691271 47.054787 
L 511.691271 50.154543 
L 512.834549 50.154543 
L 512.834549 46.527964 
L 513.977828 46.527964 
L 513.977828 55.883737 
L 515.121106 55.883737 
L 515.121106 58.902848 
L 516.264385 58.902848 
L 516.264385 31.798706 
L 517.407663 31.798706 
L 517.407663 44.06019 
L 518.550942 44.06019 
L 518.550942 53.560561 
L 519.69422 53.560561 
L 519.69422 31.133748 
L 520.837499 31.133748 
L 520.837499 43.162401 
L 521.980777 43.162401 
L 521.980777 62.423011 
L 523.124056 62.423011 
L 523.124056 40.040368 
L 524.267334 40.040368 
L 524.267334 32.973616 
L 525.410612 32.973616 
L 525.410612 54.200457 
L 526.553891 54.200457 
L 526.553891 39.687615 
L 527.697169 39.687615 
L 527.697169 34.421091 
L 528.840448 34.421091 
L 528.840448 59.105072 
L 529.983726 59.105072 
L 529.983726 57.849176 
L 531.127005 57.849176 
L 531.127005 46.685885 
L 532.270283 46.685885 
L 532.270283 49.361944 
L 533.413562 49.361944 
L 533.413562 47.32328 
L 534.55684 47.32328 
L 534.55684 31.947496 
L 536.843397 31.997555 
L 536.843397 56.538867 
L 537.986676 56.538867 
L 537.986676 50.305793 
L 539.129954 50.305793 
L 539.129954 37.949443 
L 540.273233 37.949443 
L 540.273233 33.588076 
L 541.416511 33.588076 
L 541.416511 26.28629 
L 542.55979 26.28629 
L 542.55979 46.269963 
L 543.703068 46.269963 
L 543.703068 33.691595 
L 544.846347 33.691595 
L 544.846347 40.694755 
L 545.989625 40.694755 
L 545.989625 57.924797 
L 547.132903 57.924797 
L 547.132903 43.608763 
L 548.276182 43.608763 
L 548.276182 35.679746 
L 549.41946 35.679746 
L 549.41946 29.689223 
L 550.562739 29.689223 
L 550.562739 46.636395 
L 551.706017 46.636395 
L 551.706017 58.283923 
L 552.849296 58.283923 
L 552.849296 34.093381 
L 553.992574 34.093381 
L 553.992574 38.691585 
L 555.135853 38.691585 
L 555.135853 33.068086 
L 556.279131 33.068086 
L 556.279131 36.870433 
L 557.42241 36.870433 
L 557.42241 41.757111 
L 557.42241 41.757111 
" clip-path="url(#pc3d032c3bf)" style="fill: none; stroke: #a1c9f4"/>
   </g>
   <g id="patch_3">
    <path d="M 16.914646 63.765354 
L 16.914646 19.634646 
" style="fill: none; stroke: #adb2b7; stroke-linejoin: miter; stroke-linecap: square"/>
   </g>
   <g id="patch_4">
    <path d="M 16.914646 63.765354 
L 573.165354 63.765354 
" style="fill: none; stroke: #adb2b7; stroke-linejoin: miter; stroke-linecap: square"/>
   </g>
   <g id="text_2">
    <!-- Estadístico Delay and Correlate -->
    <g style="fill: #adb2b7" transform="translate(182.119062 13.634646) scale(0.14 -0.14)">
     <defs>
      <path id="DejaVuSerif-45" d="M 353 0 
L 353 331 
L 947 331 
L 947 4331 
L 353 4331 
L 353 4666 
L 4109 4666 
L 4109 3628 
L 3725 3628 
L 3725 4281 
L 1581 4281 
L 1581 2719 
L 3109 2719 
L 3109 3303 
L 3494 3303 
L 3494 1753 
L 3109 1753 
L 3109 2338 
L 1581 2338 
L 1581 384 
L 3775 384 
L 3775 1038 
L 4159 1038 
L 4159 0 
L 353 0 
z
" transform="scale(0.015625)"/>
      <path id="DejaVuSerif-73" d="M 359 184 
L 359 959 
L 691 959 
Q 703 588 923 403 
Q 1144 219 1575 219 
Q 1963 219 2166 364 
Q 2369 509 2369 788 
Q 2369 1006 2220 1140 
Q 2072 1275 1594 1428 
L 1178 1569 
Q 750 1706 558 1912 
Q 366 2119 366 2438 
Q 366 2894 700 3153 
Q 1034 3413 1625 3413 
Q 1888 3413 2178 3344 
Q 2469 3275 2778 3144 
L 2778 2419 
L 2447 2419 
Q 2434 2741 2221 2922 
Q 2009 3103 1644 3103 
Q 1281 3103 1095 2975 
Q 909 2847 909 2591 
Q 909 2381 1050 2254 
Q 1191 2128 1613 1997 
L 2069 1856 
Q 2541 1709 2748 1489 
Q 2956 1269 2956 922 
Q 2956 450 2595 179 
Q 2234 -91 1600 -91 
Q 1278 -91 972 -22 
Q 666 47 359 184 
z
" transform="scale(0.015625)"/>
      <path id="DejaVuSerif-74" d="M 691 2988 
L 184 2988 
L 184 3322 
L 691 3322 
L 691 4353 
L 1269 4353 
L 1269 3322 
L 2350 3322 
L 2350 2988 
L 1269 2988 
L 1269 878 
Q 1269 456 1350 337 
Q 1431 219 1650 219 
Q 1875 219 1978 351 
Q 2081 484 2088 781 
L 2522 781 
Q 2497 328 2275 118 
Q 2053 -91 1600 -91 
Q 1103 -91 897 129 
Q 691 350 691 878 
L 691 2988 
z
" transform="scale(0.015625)"/>
      <path id="DejaVuSerif-64" d="M 3359 331 
L 3909 331 
L 3909 0 
L 2784 0 
L 2784 519 
Q 2616 206 2355 57 
Q 2094 -91 1709 -91 
Q 1097 -91 708 395 
Q 319 881 319 1663 
Q 319 2444 706 2928 
Q 1094 3413 1709 3413 
Q 2094 3413 2355 3264 
Q 2616 3116 2784 2803 
L 2784 4531 
L 2241 4531 
L 2241 4863 
L 3359 4863 
L 3359 331 
z
M 2784 1497 
L 2784 1825 
Q 2784 2422 2554 2737 
Q 2325 3053 1888 3053 
Q 1444 3053 1217 2703 
Q 991 2353 991 1663 
Q 991 975 1217 622 
Q 1444 269 1888 269 
Q 2325 269 2554 583 
Q 2784 897 2784 1497 
z
" transform="scale(0.015625)"/>
      <path id="DejaVuSerif-ed" d="M 1356 331 
L 1900 331 
L 1900 0 
L 231 0 
L 231 331 
L 781 331 
L 781 2988 
L 231 2988 
L 231 3322 
L 1356 3322 
L 1356 331 
z
M 1458 5119 
L 2080 5119 
L 1018 3944 
L 652 3944 
L 1458 5119 
z
" transform="scale(0.015625)"/>
      <path id="DejaVuSerif-69" d="M 622 4353 
Q 622 4497 726 4603 
Q 831 4709 978 4709 
Q 1122 4709 1226 4603 
Q 1331 4497 1331 4353 
Q 1331 4206 1228 4103 
Q 1125 4000 978 4000 
Q 831 4000 726 4103 
Q 622 4206 622 4353 
z
M 1356 331 
L 1900 331 
L 1900 0 
L 231 0 
L 231 331 
L 781 331 
L 781 2988 
L 231 2988 
L 231 3322 
L 1356 3322 
L 1356 331 
z
" transform="scale(0.015625)"/>
      <path id="DejaVuSerif-6f" d="M 1925 219 
Q 2388 219 2623 584 
Q 2859 950 2859 1663 
Q 2859 2375 2623 2739 
Q 2388 3103 1925 3103 
Q 1463 3103 1227 2739 
Q 991 2375 991 1663 
Q 991 950 1228 584 
Q 1466 219 1925 219 
z
M 1925 -91 
Q 1200 -91 759 389 
Q 319 869 319 1663 
Q 319 2456 758 2934 
Q 1197 3413 1925 3413 
Q 2653 3413 3092 2934 
Q 3531 2456 3531 1663 
Q 3531 869 3092 389 
Q 2653 -91 1925 -91 
z
" transform="scale(0.015625)"/>
      <path id="DejaVuSerif-44" d="M 1581 331 
L 2163 331 
Q 3072 331 3558 850 
Q 4044 1369 4044 2338 
Q 4044 3306 3559 3818 
Q 3075 4331 2163 4331 
L 1581 4331 
L 1581 331 
z
M 353 0 
L 353 331 
L 947 331 
L 947 4331 
L 353 4331 
L 353 4666 
L 2209 4666 
Q 3416 4666 4089 4050 
Q 4763 3434 4763 2338 
Q 4763 1238 4088 619 
Q 3413 0 2209 0 
L 353 0 
z
" transform="scale(0.015625)"/>
      <path id="DejaVuSerif-65" d="M 3469 1600 
L 991 1600 
L 991 1575 
Q 991 903 1244 561 
Q 1497 219 1991 219 
Q 2369 219 2611 417 
Q 2853 616 2950 1006 
L 3413 1006 
Q 3275 459 2904 184 
Q 2534 -91 1931 -91 
Q 1203 -91 761 389 
Q 319 869 319 1663 
Q 319 2450 753 2931 
Q 1188 3413 1894 3413 
Q 2647 3413 3050 2948 
Q 3453 2484 3469 1600 
z
M 2791 1931 
Q 2772 2513 2545 2808 
Q 2319 3103 1894 3103 
Q 1497 3103 1269 2806 
Q 1041 2509 991 1931 
L 2791 1931 
z
" transform="scale(0.015625)"/>
      <path id="DejaVuSerif-79" d="M 1381 -609 
L 1600 -56 
L 359 2988 
L -19 2988 
L -19 3322 
L 1509 3322 
L 1509 2988 
L 978 2988 
L 1913 703 
L 2847 2988 
L 2350 2988 
L 2350 3322 
L 3597 3322 
L 3597 2988 
L 3225 2988 
L 1703 -750 
Q 1547 -1138 1356 -1280 
Q 1166 -1422 819 -1422 
Q 672 -1422 517 -1397 
Q 363 -1372 206 -1325 
L 206 -691 
L 500 -691 
Q 519 -903 608 -995 
Q 697 -1088 884 -1088 
Q 1056 -1088 1161 -992 
Q 1266 -897 1381 -609 
z
" transform="scale(0.015625)"/>
      <path id="DejaVuSerif-43" d="M 4513 1234 
Q 4306 581 3820 245 
Q 3334 -91 2591 -91 
Q 2134 -91 1743 65 
Q 1353 222 1050 525 
Q 700 875 529 1320 
Q 359 1766 359 2328 
Q 359 3416 987 4083 
Q 1616 4750 2644 4750 
Q 3025 4750 3456 4650 
Q 3888 4550 4384 4347 
L 4384 3272 
L 4031 3272 
Q 3916 3859 3567 4137 
Q 3219 4416 2591 4416 
Q 1844 4416 1459 3886 
Q 1075 3356 1075 2328 
Q 1075 1303 1459 773 
Q 1844 244 2591 244 
Q 3113 244 3450 492 
Q 3788 741 3938 1234 
L 4513 1234 
z
" transform="scale(0.015625)"/>
      <path id="DejaVuSerif-72" d="M 3059 3328 
L 3059 2497 
L 2728 2497 
Q 2713 2744 2591 2866 
Q 2469 2988 2234 2988 
Q 1809 2988 1582 2694 
Q 1356 2400 1356 1850 
L 1356 331 
L 2022 331 
L 2022 0 
L 263 0 
L 263 331 
L 781 331 
L 781 2994 
L 231 2994 
L 231 3322 
L 1356 3322 
L 1356 2731 
Q 1525 3078 1790 3245 
Q 2056 3413 2438 3413 
Q 2578 3413 2733 3391 
Q 2888 3369 3059 3328 
z
" transform="scale(0.015625)"/>
     </defs>
     <use xlink:href="#DejaVuSerif-45"/>
     <use xlink:href="#DejaVuSerif-73" x="72.998047"/>
     <use xlink:href="#DejaVuSerif-74" x="124.316406"/>
     <use xlink:href="#DejaVuSerif-61" x="164.501953"/>
     <use xlink:href="#DejaVuSerif-64" x="224.121094"/>
     <use xlink:href="#DejaVuSerif-ed" x="288.134766"/>
     <use xlink:href="#DejaVuSerif-73" x="320.117188"/>
     <use xlink:href="#DejaVuSerif-74" x="371.435547"/>
     <use xlink:href="#DejaVuSerif-69" x="411.621094"/>
     <use xlink:href="#DejaVuSerif-63" x="443.603516"/>
     <use xlink:href="#DejaVuSerif-6f" x="499.609375"/>
     <use xlink:href="#DejaVuSerif-20" x="559.814453"/>
     <use xlink:href="#DejaVuSerif-44" x="591.601562"/>
     <use xlink:href="#DejaVuSerif-65" x="671.777344"/>
     <use xlink:href="#DejaVuSerif-6c" x="730.957031"/>
     <use xlink:href="#DejaVuSerif-61" x="762.939453"/>
     <use xlink:href="#DejaVuSerif-79" x="822.558594"/>
     <use xlink:href="#DejaVuSerif-20" x="879.052734"/>
     <use xlink:href="#DejaVuSerif-61" x="910.839844"/>
     <use xlink:href="#DejaVuSerif-6e" x="970.458984"/>
     <use xlink:href="#DejaVuSerif-64" x="1034.863281"/>
     <use xlink:href="#DejaVuSerif-20" x="1098.876953"/>
     <use xlink:href="#DejaVuSerif-43" x="1130.664062"/>
     <use xlink:href="#DejaVuSerif-6f" x="1207.177734"/>
     <use xlink:href="#DejaVuSerif-72" x="1267.382812"/>
     <use xlink:href="#DejaVuSerif-72" x="1315.185547"/>
     <use xlink:href="#DejaVuSerif-65" x="1362.988281"/>
     <use xlink:href="#DejaVuSerif-6c" x="1422.167969"/>
     <use xlink:href="#DejaVuSerif-61" x="1454.150391"/>
     <use xlink:href="#DejaVuSerif-74" x="1513.769531"/>
     <use xlink:href="#DejaVuSerif-65" x="1553.955078"/>
    </g>
   </g>
  </g>
  <g id="axes_2">
   <g id="patch_5">
    <path d="M 16.914646 113.565354 
L 573.165354 113.565354 
L 573.165354 69.434646 
L 16.914646 69.434646 
z
" style="fill: #21252b"/>
   </g>
   <g id="matplotlib.axis_3"/>
   <g id="matplotlib.axis_4">
    <g id="text_3">
     <!-- canal Q -->
     <g style="fill: #9eb1be" transform="translate(10.626989 112.697344) rotate(-90) scale(0.11 -0.11)">
      <defs>
       <path id="DejaVuSerif-51" d="M 2700 -91 
Q 1628 -91 993 567 
Q 359 1225 359 2328 
Q 359 2894 529 3339 
Q 700 3784 1050 4134 
Q 1356 4441 1750 4595 
Q 2144 4750 2625 4750 
Q 3641 4750 4266 4084 
Q 4891 3419 4891 2328 
Q 4891 1403 4422 773 
Q 3953 144 3128 -38 
Q 3297 -247 3539 -347 
Q 3781 -447 4122 -447 
L 4219 -447 
L 4219 -1025 
Q 3691 -1000 3314 -767 
Q 2938 -534 2700 -91 
z
M 2625 244 
Q 3391 244 3781 770 
Q 4172 1297 4172 2328 
Q 4172 3363 3781 3889 
Q 3391 4416 2625 4416 
Q 1856 4416 1465 3889 
Q 1075 3363 1075 2328 
Q 1075 1297 1465 770 
Q 1856 244 2625 244 
z
" transform="scale(0.015625)"/>
      </defs>
      <use xlink:href="#DejaVuSerif-63"/>
      <use xlink:href="#DejaVuSerif-61" x="56.005859"/>
      <use xlink:href="#DejaVuSerif-6e" x="115.625"/>
      <use xlink:href="#DejaVuSerif-61" x="180.029297"/>
      <use xlink:href="#DejaVuSerif-6c" x="239.648438"/>
      <use xlink:href="#DejaVuSerif-20" x="271.630859"/>
      <use xlink:href="#DejaVuSerif-51" x="303.417969"/>
     </g>
    </g>
   </g>
   <g id="line2d_2">
    <path d="M 32.65759 91.007187 
L 33.800869 91.007187 
L 33.800869 89.367805 
L 34.944147 89.367805 
L 34.944147 91.313704 
L 36.087426 91.313704 
L 36.087426 91.530555 
L 37.230704 91.530555 
L 37.230704 90.666208 
L 38.373983 90.666208 
L 38.373983 89.874949 
L 39.517261 89.874949 
L 39.517261 89.627345 
L 40.66054 89.627345 
L 40.66054 91.06918 
L 41.803818 91.06918 
L 41.803818 90.449201 
L 44.090375 90.500719 
L 44.090375 92.405587 
L 45.233653 92.405587 
L 45.233653 94.298229 
L 47.52021 94.202559 
L 47.52021 92.903809 
L 48.663489 92.903809 
L 48.663489 93.305979 
L 49.806767 93.305979 
L 49.806767 91.719324 
L 50.950046 91.719324 
L 50.950046 90.165468 
L 52.093324 90.165468 
L 52.093324 92.815667 
L 53.236603 92.815667 
L 53.236603 90.097909 
L 54.379881 90.097909 
L 54.379881 90.595063 
L 56.666438 90.49569 
L 56.666438 92.610985 
L 57.809717 92.610985 
L 57.809717 94.138906 
L 58.952995 94.138906 
L 58.952995 92.873799 
L 60.096274 92.873799 
L 60.096274 89.471241 
L 61.239552 89.471241 
L 61.239552 90.481467 
L 62.382831 90.481467 
L 62.382831 92.402503 
L 63.526109 92.402503 
L 63.526109 92.765929 
L 64.669388 92.765929 
L 64.669388 91.273138 
L 65.812666 91.273138 
L 65.812666 90.938638 
L 66.955944 90.938638 
L 66.955944 91.44568 
L 68.099223 91.44568 
L 68.099223 93.756172 
L 69.242501 93.756172 
L 69.242501 91.399498 
L 70.38578 91.399498 
L 70.38578 90.858324 
L 71.529058 90.858324 
L 71.529058 93.949732 
L 72.672337 93.949732 
L 72.672337 90.542964 
L 73.815615 90.542964 
L 73.815615 92.475687 
L 74.958894 92.475687 
L 74.958894 92.336764 
L 76.102172 92.336764 
L 76.102172 93.360346 
L 77.245451 93.360346 
L 77.245451 92.289771 
L 78.388729 92.289771 
L 78.388729 90.16586 
L 79.532008 90.16586 
L 79.532008 93.566913 
L 80.675286 93.566913 
L 80.675286 90.22309 
L 81.818565 90.22309 
L 81.818565 92.595904 
L 82.961843 92.595904 
L 82.961843 91.133183 
L 84.105122 91.133183 
L 84.105122 93.69035 
L 86.391679 93.702347 
L 86.391679 90.707268 
L 87.534957 90.707268 
L 87.534957 92.460371 
L 88.678235 92.460371 
L 88.678235 90.566202 
L 89.821514 90.566202 
L 89.821514 90.341525 
L 90.964792 90.341525 
L 90.964792 93.567879 
L 92.108071 93.567879 
L 92.108071 94.118932 
L 93.251349 94.118932 
L 93.251349 90.608779 
L 94.394628 90.608779 
L 94.394628 90.341318 
L 95.537906 90.341318 
L 95.537906 93.025246 
L 96.681185 93.025246 
L 96.681185 91.08864 
L 97.824463 91.08864 
L 97.824463 92.463099 
L 98.967742 92.463099 
L 98.967742 92.241996 
L 100.11102 92.241996 
L 100.11102 90.689399 
L 101.254299 90.689399 
L 101.254299 91.910358 
L 102.397577 91.910358 
L 102.397577 92.746848 
L 103.540856 92.746848 
L 103.540856 91.187211 
L 104.684134 91.187211 
L 104.684134 93.85269 
L 105.827413 93.85269 
L 105.827413 90.589794 
L 106.970691 90.589794 
L 106.970691 91.456489 
L 108.11397 91.456489 
L 108.11397 91.773387 
L 109.257248 91.773387 
L 109.257248 90.939617 
L 110.400526 90.939617 
L 110.400526 93.695571 
L 111.543805 93.695571 
L 111.543805 90.960662 
L 112.687083 90.960662 
L 112.687083 92.486934 
L 113.830362 92.486934 
L 113.830362 92.215041 
L 114.97364 92.215041 
L 114.97364 92.48652 
L 116.116919 92.48652 
L 116.116919 92.335832 
L 117.260197 92.335832 
L 117.260197 90.287512 
L 118.403476 90.287512 
L 118.403476 93.344251 
L 119.546754 93.344251 
L 119.546754 91.787811 
L 120.690033 91.787811 
L 120.690033 90.34129 
L 121.833311 90.34129 
L 121.833311 92.931046 
L 122.97659 92.931046 
L 122.97659 90.781175 
L 124.119868 90.781175 
L 124.119868 91.267139 
L 125.263147 91.267139 
L 125.263147 90.82043 
L 126.406425 90.82043 
L 126.406425 91.307532 
L 127.549704 91.307532 
L 127.549704 89.789433 
L 128.692982 89.789433 
L 128.692982 90.066137 
L 129.836261 90.066137 
L 129.836261 90.844722 
L 130.979539 90.844722 
L 130.979539 91.565102 
L 132.122817 91.565102 
L 132.122817 94.26427 
L 133.266096 94.26427 
L 133.266096 91.64892 
L 134.409374 91.64892 
L 134.409374 90.097974 
L 135.552653 90.097974 
L 135.552653 92.962727 
L 136.695931 92.962727 
L 136.695931 94.659068 
L 137.83921 94.659068 
L 137.83921 90.104043 
L 138.982488 90.104043 
L 138.982488 89.396348 
L 140.125767 89.396348 
L 140.125767 88.136812 
L 141.269045 88.136812 
L 141.269045 90.115449 
L 142.412324 90.115449 
L 142.412324 92.640048 
L 143.555602 92.640048 
L 143.555602 91.198871 
L 144.698881 91.198871 
L 144.698881 89.971446 
L 145.842159 89.971446 
L 145.842159 92.238731 
L 146.985438 92.238731 
L 146.985438 93.627691 
L 148.128716 93.627691 
L 148.128716 92.450666 
L 149.271995 92.450666 
L 149.271995 90.755701 
L 150.415273 90.755701 
L 150.415273 90.430547 
L 151.558552 90.430547 
L 151.558552 92.329012 
L 152.70183 92.329012 
L 152.70183 90.95828 
L 154.988387 90.995661 
L 154.988387 91.893132 
L 156.131665 91.893132 
L 156.131665 92.63103 
L 157.274944 92.63103 
L 157.274944 92.136085 
L 158.418222 92.136085 
L 158.418222 92.981446 
L 159.561501 92.981446 
L 159.561501 89.988535 
L 160.704779 89.988535 
L 160.704779 92.884448 
L 161.848058 92.884448 
L 161.848058 93.781183 
L 162.991336 93.781183 
L 162.991336 90.662645 
L 164.134615 90.662645 
L 164.134615 91.939237 
L 165.277893 91.939237 
L 165.277893 93.329134 
L 166.421172 93.329134 
L 166.421172 92.522588 
L 167.56445 92.522588 
L 167.56445 92.643964 
L 169.851007 92.54375 
L 169.851007 90.076832 
L 170.994286 90.076832 
L 170.994286 94.386202 
L 172.137564 94.386202 
L 172.137564 94.647141 
L 173.280843 94.647141 
L 173.280843 90.296944 
L 174.424121 90.296944 
L 174.424121 94.027125 
L 175.567399 94.027125 
L 175.567399 91.591041 
L 176.710678 91.591041 
L 176.710678 90.763609 
L 177.853956 90.763609 
L 177.853956 92.540955 
L 178.997235 92.540955 
L 178.997235 90.488832 
L 180.140513 90.488832 
L 180.140513 91.208007 
L 181.283792 91.208007 
L 181.283792 90.59259 
L 182.42707 90.59259 
L 182.42707 92.438496 
L 183.570349 92.438496 
L 183.570349 90.566152 
L 184.713627 90.566152 
L 184.713627 89.793716 
L 185.856906 89.793716 
L 185.856906 94.770503 
L 187.000184 94.770503 
L 187.000184 91.352373 
L 188.143463 91.352373 
L 188.143463 92.30801 
L 189.286741 92.30801 
L 189.286741 89.583197 
L 190.43002 89.583197 
L 190.43002 90.256356 
L 191.573298 90.256356 
L 191.573298 91.666284 
L 192.716577 91.666284 
L 192.716577 86.028861 
L 193.859855 86.028861 
L 193.859855 90.319893 
L 195.003134 90.319893 
L 195.003134 100.983715 
L 196.146412 100.983715 
L 196.146412 93.720396 
L 197.28969 93.720396 
L 197.28969 93.056764 
L 198.432969 93.056764 
L 198.432969 91.539081 
L 199.576247 91.539081 
L 199.576247 100.880811 
L 200.719526 100.880811 
L 200.719526 92.759833 
L 201.862804 92.759833 
L 201.862804 87.67096 
L 203.006083 87.67096 
L 203.006083 106.582194 
L 204.149361 106.582194 
L 204.149361 93.311688 
L 205.29264 93.311688 
L 205.29264 74.347312 
L 206.435918 74.347312 
L 206.435918 81.621452 
L 207.579197 81.621452 
L 207.579197 76.220071 
L 208.722475 76.220071 
L 208.722475 93.062006 
L 209.865754 93.062006 
L 209.865754 107.610803 
L 211.009032 107.610803 
L 211.009032 86.549397 
L 212.152311 86.549397 
L 212.152311 89.837615 
L 213.295589 89.837615 
L 213.295589 99.529574 
L 214.438868 99.529574 
L 214.438868 94.210052 
L 215.582146 94.210052 
L 215.582146 91.622842 
L 216.725425 91.622842 
L 216.725425 91.736999 
L 217.868703 91.736999 
L 217.868703 99.67995 
L 219.011981 99.67995 
L 219.011981 89.28166 
L 220.15526 89.28166 
L 220.15526 86.751101 
L 221.298538 86.751101 
L 221.298538 109.256199 
L 222.441817 109.256199 
L 222.441817 93.12981 
L 223.585095 93.12981 
L 223.585095 73.995621 
L 224.728374 73.995621 
L 224.728374 80.19364 
L 225.871652 80.19364 
L 225.871652 76.297008 
L 227.014931 76.297008 
L 227.014931 92.808273 
L 228.158209 92.808273 
L 228.158209 109.33179 
L 229.301488 109.33179 
L 229.301488 85.367063 
L 230.444766 85.367063 
L 230.444766 91.536944 
L 231.588045 91.536944 
L 231.588045 101.711538 
L 232.731323 101.711538 
L 232.731323 93.858238 
L 233.874602 93.858238 
L 233.874602 91.337236 
L 235.01788 91.337236 
L 235.01788 95.94262 
L 236.161159 95.94262 
L 236.161159 100.678018 
L 237.304437 100.678018 
L 237.304437 90.180981 
L 238.447716 90.180981 
L 238.447716 85.272991 
L 239.590994 85.272991 
L 239.590994 107.006054 
L 240.734272 107.006054 
L 240.734272 94.884052 
L 241.877551 94.884052 
L 241.877551 72.968839 
L 243.020829 72.968839 
L 243.020829 80.07676 
L 244.164108 80.07676 
L 244.164108 73.973369 
L 245.307386 73.973369 
L 245.307386 93.394892 
L 246.450665 93.394892 
L 246.450665 106.139839 
L 247.593943 106.139839 
L 247.593943 85.862701 
L 248.737222 85.862701 
L 248.737222 92.870793 
L 249.8805 92.870793 
L 249.8805 102.161683 
L 251.023779 102.161683 
L 251.023779 93.886739 
L 252.167057 93.886739 
L 252.167057 93.296355 
L 253.310336 93.296355 
L 253.310336 94.971199 
L 254.453614 94.971199 
L 254.453614 100.13554 
L 255.596893 100.13554 
L 255.596893 91.653476 
L 256.740171 91.653476 
L 256.740171 88.088637 
L 257.88345 88.088637 
L 257.88345 108.202209 
L 259.026728 108.202209 
L 259.026728 93.172524 
L 260.170007 93.172524 
L 260.170007 75.398334 
L 261.313285 75.398334 
L 261.313285 81.749746 
L 262.456563 81.749746 
L 262.456563 75.28219 
L 263.599842 75.28219 
L 263.599842 92.984792 
L 264.74312 92.984792 
L 264.74312 109.312189 
L 265.886399 109.312189 
L 265.886399 84.032298 
L 267.029677 84.032298 
L 267.029677 92.646919 
L 268.172956 92.646919 
L 268.172956 101.26145 
L 269.316234 101.26145 
L 269.316234 94.814478 
L 270.459513 94.814478 
L 270.459513 91.871564 
L 271.602791 91.871564 
L 271.602791 93.059521 
L 272.74607 93.059521 
L 272.74607 100.748016 
L 273.889348 100.748016 
L 273.889348 91.768169 
L 275.032627 91.768169 
L 275.032627 88.156466 
L 276.175905 88.156466 
L 276.175905 107.561948 
L 277.319184 107.561948 
L 277.319184 92.531659 
L 278.462462 92.531659 
L 278.462462 74.769092 
L 279.605741 74.769092 
L 279.605741 78.834869 
L 280.749019 78.834869 
L 280.749019 74.983208 
L 281.892298 74.983208 
L 281.892298 95.217468 
L 283.035576 95.217468 
L 283.035576 105.459944 
L 284.178854 105.459944 
L 284.178854 85.389452 
L 285.322133 85.389452 
L 285.322133 91.792222 
L 286.465411 91.792222 
L 286.465411 101.149986 
L 287.60869 101.149986 
L 287.60869 94.155843 
L 288.751968 94.155843 
L 288.751968 92.432298 
L 289.895247 92.432298 
L 289.895247 93.389825 
L 291.038525 93.389825 
L 291.038525 100.931412 
L 292.181804 100.931412 
L 292.181804 93.214136 
L 293.325082 93.214136 
L 293.325082 84.256579 
L 294.468361 84.256579 
L 294.468361 106.375733 
L 295.611639 106.375733 
L 295.611639 95.586986 
L 296.754918 95.586986 
L 296.754918 75.651964 
L 297.898196 75.651964 
L 297.898196 79.916152 
L 299.041475 79.916152 
L 299.041475 74.789533 
L 300.184753 74.789533 
L 300.184753 93.269192 
L 301.328032 93.269192 
L 301.328032 108.383722 
L 302.47131 108.383722 
L 302.47131 85.466856 
L 303.614589 85.466856 
L 303.614589 89.992092 
L 304.757867 89.992092 
L 304.757867 99.282606 
L 305.901146 99.282606 
L 305.901146 94.066715 
L 307.044424 94.066715 
L 307.044424 88.531067 
L 308.187702 88.531067 
L 308.187702 93.495462 
L 309.330981 93.495462 
L 309.330981 101.529671 
L 310.474259 101.529671 
L 310.474259 91.123771 
L 311.617538 91.123771 
L 311.617538 89.222988 
L 312.760816 89.222988 
L 312.760816 107.135587 
L 313.904095 107.135587 
L 313.904095 93.24004 
L 315.047373 93.24004 
L 315.047373 74.711036 
L 316.190652 74.711036 
L 316.190652 80.154457 
L 317.33393 80.154457 
L 317.33393 73.638338 
L 318.477209 73.638338 
L 318.477209 94.943932 
L 319.620487 94.943932 
L 319.620487 107.475954 
L 320.763766 107.475954 
L 320.763766 85.22611 
L 321.907044 85.22611 
L 321.907044 91.123084 
L 323.050323 91.123084 
L 323.050323 99.86721 
L 324.193601 99.86721 
L 324.193601 90.496976 
L 325.33688 90.496976 
L 325.33688 93.561676 
L 326.480158 93.561676 
L 326.480158 92.46331 
L 327.623437 92.46331 
L 327.623437 100.85328 
L 328.766715 100.85328 
L 328.766715 90.0601 
L 329.909993 90.0601 
L 329.909993 83.806964 
L 331.053272 83.806964 
L 331.053272 107.592677 
L 332.19655 107.592677 
L 332.19655 94.180368 
L 333.339829 94.180368 
L 333.339829 75.13796 
L 334.483107 75.13796 
L 334.483107 80.545034 
L 335.626386 80.545034 
L 335.626386 75.012371 
L 336.769664 75.012371 
L 336.769664 96.500884 
L 337.912943 96.500884 
L 337.912943 107.491435 
L 339.056221 107.491435 
L 339.056221 83.862485 
L 340.1995 83.862485 
L 340.1995 90.456271 
L 341.342778 90.456271 
L 341.342778 99.660752 
L 342.486057 99.660752 
L 342.486057 94.553649 
L 343.629335 94.553649 
L 343.629335 93.381661 
L 344.772614 93.381661 
L 344.772614 94.042027 
L 345.915892 94.042027 
L 345.915892 100.21746 
L 347.059171 100.21746 
L 347.059171 90.923908 
L 348.202449 90.923908 
L 348.202449 87.614987 
L 349.345728 87.614987 
L 349.345728 109.65215 
L 350.489006 109.65215 
L 350.489006 92.57051 
L 351.632284 92.57051 
L 351.632284 76.004336 
L 352.775563 76.004336 
L 352.775563 81.469594 
L 353.918841 81.469594 
L 353.918841 76.319897 
L 355.06212 76.319897 
L 355.06212 93.406459 
L 356.205398 93.406459 
L 356.205398 107.724601 
L 357.348677 107.724601 
L 357.348677 86.400322 
L 358.491955 86.400322 
L 358.491955 92.06636 
L 359.635234 92.06636 
L 359.635234 97.226307 
L 360.778512 97.226307 
L 360.778512 92.323075 
L 361.921791 92.323075 
L 361.921791 90.461512 
L 363.065069 90.461512 
L 363.065069 91.758882 
L 364.208348 91.758882 
L 364.208348 101.91886 
L 365.351626 101.91886 
L 365.351626 91.292219 
L 366.494905 91.292219 
L 366.494905 86.547245 
L 367.638183 86.547245 
L 367.638183 107.813153 
L 368.781462 107.813153 
L 368.781462 93.570855 
L 369.92474 93.570855 
L 369.92474 74.860753 
L 371.068019 74.860753 
L 371.068019 80.875475 
L 372.211297 80.875475 
L 372.211297 73.398543 
L 373.354575 73.398543 
L 373.354575 92.775395 
L 374.497854 92.775395 
L 374.497854 106.005186 
L 375.641132 106.005186 
L 375.641132 91.202033 
L 376.784411 91.202033 
L 376.784411 102.762376 
L 377.927689 102.762376 
L 377.927689 103.623712 
L 379.070968 103.623712 
L 379.070968 104.976302 
L 380.214246 104.976302 
L 380.214246 98.426547 
L 381.357525 98.426547 
L 381.357525 84.790662 
L 382.500803 84.790662 
L 382.500803 90.654691 
L 383.644082 90.654691 
L 383.644082 89.267527 
L 384.78736 89.267527 
L 384.78736 73.004637 
L 385.930639 73.004637 
L 385.930639 86.974897 
L 387.073917 86.974897 
L 387.073917 101.065923 
L 388.217196 101.065923 
L 388.217196 94.656629 
L 389.360474 94.656629 
L 389.360474 103.802285 
L 390.503753 103.802285 
L 390.503753 97.838707 
L 391.647031 97.838707 
L 391.647031 97.646378 
L 392.79031 97.646378 
L 392.79031 100.615299 
L 393.933588 100.615299 
L 393.933588 83.713409 
L 395.076866 83.713409 
L 395.076866 90.303474 
L 396.220145 90.303474 
L 396.220145 109.565417 
L 397.363423 109.565417 
L 397.363423 87.765199 
L 398.506702 87.765199 
L 398.506702 83.22202 
L 399.64998 83.22202 
L 399.64998 85.996561 
L 400.793259 85.996561 
L 400.793259 77.947055 
L 401.936537 77.947055 
L 401.936537 91.227023 
L 403.079816 91.227023 
L 403.079816 87.756227 
L 404.223094 87.756227 
L 404.223094 76.829471 
L 405.366373 76.829471 
L 405.366373 84.953003 
L 406.509651 84.953003 
L 406.509651 82.128114 
L 407.65293 82.128114 
L 407.65293 94.681532 
L 408.796208 94.681532 
L 408.796208 101.008432 
L 409.939487 101.008432 
L 409.939487 77.748788 
L 411.082765 77.748788 
L 411.082765 74.891575 
L 412.226044 74.891575 
L 412.226044 92.500091 
L 413.369322 92.500091 
L 413.369322 106.458302 
L 414.512601 106.458302 
L 414.512601 104.79212 
L 415.655879 104.79212 
L 415.655879 80.299691 
L 416.799157 80.299691 
L 416.799157 88.520711 
L 417.942436 88.520711 
L 417.942436 101.5044 
L 419.085714 101.5044 
L 419.085714 96.795056 
L 420.228993 96.795056 
L 420.228993 104.514333 
L 421.372271 104.514333 
L 421.372271 94.532925 
L 422.51555 94.532925 
L 422.51555 89.876705 
L 423.658828 89.876705 
L 423.658828 105.489809 
L 424.802107 105.489809 
L 424.802107 97.846204 
L 425.945385 97.846204 
L 425.945385 97.283451 
L 427.088664 97.283451 
L 427.088664 93.692254 
L 428.231942 93.692254 
L 428.231942 70.683628 
L 429.375221 70.683628 
L 429.375221 90.27452 
L 430.518499 90.27452 
L 430.518499 100.444786 
L 431.661778 100.444786 
L 431.661778 78.509393 
L 432.805056 78.509393 
L 432.805056 84.865057 
L 433.948335 84.865057 
L 433.948335 82.271487 
L 435.091613 82.271487 
L 435.091613 79.914666 
L 436.234892 79.914666 
L 436.234892 88.970536 
L 437.37817 88.970536 
L 437.37817 80.659091 
L 438.521448 80.659091 
L 438.521448 95.200026 
L 439.664727 95.200026 
L 439.664727 109.574408 
L 440.808005 109.574408 
L 440.808005 91.225275 
L 441.951284 91.225275 
L 441.951284 92.870554 
L 443.094562 92.870554 
L 443.094562 103.38772 
L 444.237841 103.38772 
L 444.237841 85.576303 
L 445.381119 85.576303 
L 445.381119 76.902223 
L 446.524398 76.902223 
L 446.524398 79.506711 
L 447.667676 79.506711 
L 447.667676 82.573913 
L 448.810955 82.573913 
L 448.810955 93.400095 
L 449.954233 93.400095 
L 449.954233 103.033546 
L 451.097512 103.033546 
L 451.097512 102.659303 
L 452.24079 102.659303 
L 452.24079 104.116453 
L 453.384069 104.116453 
L 453.384069 97.700907 
L 454.527347 97.700907 
L 454.527347 84.12602 
L 455.670626 84.12602 
L 455.670626 89.055547 
L 457.957183 88.989194 
L 457.957183 73.561737 
L 459.100461 73.561737 
L 459.100461 89.113283 
L 460.243739 89.113283 
L 460.243739 100.915607 
L 461.387018 100.915607 
L 461.387018 94.249804 
L 462.530296 94.249804 
L 462.530296 100.921689 
L 463.673575 100.921689 
L 463.673575 99.172028 
L 464.816853 99.172028 
L 464.816853 95.653631 
L 465.960132 95.653631 
L 465.960132 103.613927 
L 467.10341 103.613927 
L 467.10341 83.424334 
L 468.246689 83.424334 
L 468.246689 93.722837 
L 469.389967 93.722837 
L 469.389967 112.316372 
L 470.533246 112.316372 
L 470.533246 90.776774 
L 471.676524 90.776774 
L 471.676524 84.389019 
L 472.819803 84.389019 
L 472.819803 85.85126 
L 473.963081 85.85126 
L 473.963081 77.629287 
L 475.10636 77.629287 
L 475.10636 93.5648 
L 476.249638 93.5648 
L 476.249638 88.152851 
L 477.392917 88.152851 
L 477.392917 78.838346 
L 478.536195 78.838346 
L 478.536195 84.694688 
L 479.679474 84.694688 
L 479.679474 79.808272 
L 480.822752 79.808272 
L 480.822752 95.069611 
L 481.96603 95.069611 
L 481.96603 100.991671 
L 483.109309 100.991671 
L 483.109309 78.826354 
L 484.252587 78.826354 
L 484.252587 76.782637 
L 485.395866 76.782637 
L 485.395866 91.84778 
L 486.539144 91.84778 
L 486.539144 103.19427 
L 487.682423 103.19427 
L 487.682423 104.871153 
L 488.825701 104.871153 
L 488.825701 79.905621 
L 489.96898 79.905621 
L 489.96898 88.312104 
L 491.112258 88.312104 
L 491.112258 103.082567 
L 492.255537 103.082567 
L 492.255537 98.098096 
L 493.398815 98.098096 
L 493.398815 106.120114 
L 494.542094 106.120114 
L 494.542094 95.6214 
L 495.685372 95.6214 
L 495.685372 90.228261 
L 496.828651 90.228261 
L 496.828651 105.507383 
L 497.971929 105.507383 
L 497.971929 98.600887 
L 499.115208 98.600887 
L 499.115208 97.548491 
L 500.258486 97.548491 
L 500.258486 93.503773 
L 501.401765 93.503773 
L 501.401765 71.542876 
L 502.545043 71.542876 
L 502.545043 91.389889 
L 503.688321 91.389889 
L 503.688321 99.864715 
L 504.8316 99.864715 
L 504.8316 81.764399 
L 505.974878 81.764399 
L 505.974878 87.212671 
L 507.118157 87.212671 
L 507.118157 81.119655 
L 508.261435 81.119655 
L 508.261435 81.733419 
L 509.404714 81.733419 
L 509.404714 89.060736 
L 510.547992 89.060736 
L 510.547992 83.790529 
L 511.691271 83.790529 
L 511.691271 96.035258 
L 512.834549 96.035258 
L 512.834549 108.860238 
L 513.977828 108.860238 
L 513.977828 93.458202 
L 515.121106 93.458202 
L 515.121106 93.792937 
L 516.264385 93.792937 
L 516.264385 100.465779 
L 517.407663 100.465779 
L 517.407663 86.367988 
L 518.550942 86.367988 
L 518.550942 80.181699 
L 520.837499 80.124024 
L 520.837499 79.704571 
L 521.980777 79.704571 
L 521.980777 89.619398 
L 523.124056 89.619398 
L 523.124056 104.437817 
L 524.267334 104.437817 
L 524.267334 104.914399 
L 525.410612 104.914399 
L 525.410612 106.483271 
L 526.553891 106.483271 
L 526.553891 97.728498 
L 527.697169 97.728498 
L 527.697169 83.95591 
L 528.840448 83.95591 
L 528.840448 89.244871 
L 529.983726 89.244871 
L 529.983726 89.097315 
L 531.127005 89.097315 
L 531.127005 73.429261 
L 532.270283 73.429261 
L 532.270283 89.742215 
L 533.413562 89.742215 
L 533.413562 101.48317 
L 534.55684 101.48317 
L 534.55684 94.740856 
L 535.700119 94.740856 
L 535.700119 102.071168 
L 536.843397 102.071168 
L 536.843397 99.597827 
L 537.986676 99.597827 
L 537.986676 96.371346 
L 539.129954 96.371346 
L 539.129954 102.381959 
L 540.273233 102.381959 
L 540.273233 82.867184 
L 541.416511 82.867184 
L 541.416511 92.282932 
L 542.55979 92.282932 
L 542.55979 109.68802 
L 543.703068 109.68802 
L 543.703068 91.108825 
L 544.846347 91.108825 
L 544.846347 85.858247 
L 545.989625 85.858247 
L 545.989625 84.780103 
L 547.132903 84.780103 
L 547.132903 78.252622 
L 548.276182 78.252622 
L 548.276182 90.602212 
L 549.41946 90.602212 
L 549.41946 87.815374 
L 550.562739 87.815374 
L 550.562739 79.945652 
L 551.706017 79.945652 
L 551.706017 87.200994 
L 552.849296 87.200994 
L 552.849296 81.136894 
L 553.992574 81.136894 
L 553.992574 94.852816 
L 555.135853 94.852816 
L 555.135853 100.134304 
L 556.279131 100.134304 
L 556.279131 80.612911 
L 557.42241 80.612911 
L 557.42241 78.905909 
L 557.42241 78.905909 
" clip-path="url(#p12f7fe42bf)" style="fill: none; stroke: #a1c9f4"/>
   </g>
   <g id="patch_6">
    <path d="M 16.914646 113.565354 
L 16.914646 69.434646 
" style="fill: none; stroke: #adb2b7; stroke-linejoin: miter; stroke-linecap: square"/>
   </g>
   <g id="patch_7">
    <path d="M 16.914646 113.565354 
L 573.165354 113.565354 
" style="fill: none; stroke: #adb2b7; stroke-linejoin: miter; stroke-linecap: square"/>
   </g>
  </g>
  <g id="axes_3">
   <g id="patch_8">
    <path d="M 16.914646 163.365354 
L 573.165354 163.365354 
L 573.165354 119.234646 
L 16.914646 119.234646 
z
" style="fill: #21252b"/>
   </g>
   <g id="matplotlib.axis_5"/>
   <g id="matplotlib.axis_6">
    <g id="text_4">
     <!-- Mag -->
     <g style="fill: #9eb1be" transform="translate(10.470583 153.731719) rotate(-90) scale(0.11 -0.11)">
      <defs>
       <path id="DejaVuSerif-4d" d="M 353 0 
L 353 331 
L 947 331 
L 947 4331 
L 319 4331 
L 319 4666 
L 1678 4666 
L 3316 1344 
L 4953 4666 
L 6228 4666 
L 6228 4331 
L 5606 4331 
L 5606 331 
L 6203 331 
L 6203 0 
L 4378 0 
L 4378 331 
L 4972 331 
L 4972 3938 
L 3372 684 
L 2931 684 
L 1331 3938 
L 1331 331 
L 1925 331 
L 1925 0 
L 353 0 
z
" transform="scale(0.015625)"/>
       <path id="DejaVuSerif-67" d="M 3359 2988 
L 3359 72 
Q 3359 -644 2965 -1033 
Q 2572 -1422 1844 -1422 
Q 1516 -1422 1216 -1362 
Q 916 -1303 641 -1184 
L 641 -488 
L 941 -488 
Q 997 -813 1206 -963 
Q 1416 -1113 1806 -1113 
Q 2313 -1113 2548 -827 
Q 2784 -541 2784 72 
L 2784 519 
Q 2616 206 2355 57 
Q 2094 -91 1709 -91 
Q 1097 -91 708 395 
Q 319 881 319 1663 
Q 319 2444 706 2928 
Q 1094 3413 1709 3413 
Q 2094 3413 2355 3264 
Q 2616 3116 2784 2803 
L 2784 3322 
L 3909 3322 
L 3909 2988 
L 3359 2988 
z
M 2784 1825 
Q 2784 2422 2554 2737 
Q 2325 3053 1888 3053 
Q 1444 3053 1217 2703 
Q 991 2353 991 1663 
Q 991 975 1217 622 
Q 1444 269 1888 269 
Q 2325 269 2554 583 
Q 2784 897 2784 1497 
L 2784 1825 
z
" transform="scale(0.015625)"/>
      </defs>
      <use xlink:href="#DejaVuSerif-4d"/>
      <use xlink:href="#DejaVuSerif-61" x="102.392578"/>
      <use xlink:href="#DejaVuSerif-67" x="162.011719"/>
     </g>
    </g>
   </g>
   <g id="line2d_3">
    <path d="M 32.65759 161.932009 
L 40.66054 162.000986 
L 40.66054 161.809637 
L 64.669388 161.90705 
L 64.669388 161.959002 
L 68.099223 161.884602 
L 68.099223 161.813365 
L 71.529058 161.898368 
L 71.529058 161.933176 
L 79.532008 162.014217 
L 79.532008 162.082502 
L 84.105122 162.015686 
L 84.105122 161.961285 
L 88.678235 161.990452 
L 88.678235 162.088921 
L 95.537906 162.004575 
L 95.537906 161.938848 
L 102.397577 161.834876 
L 102.397577 161.21328 
L 103.540856 161.21328 
L 103.540856 161.020467 
L 104.684134 161.020467 
L 104.684134 160.251137 
L 105.827413 160.251137 
L 105.827413 159.883989 
L 106.970691 159.883989 
L 106.970691 158.948822 
L 108.11397 158.948822 
L 108.11397 158.677763 
L 109.257248 158.677763 
L 109.257248 157.975421 
L 110.400526 157.975421 
L 110.400526 157.783848 
L 111.543805 157.783848 
L 111.543805 157.111781 
L 112.687083 157.111781 
L 112.687083 156.885267 
L 113.830362 156.885267 
L 113.830362 156.042066 
L 114.97364 156.042066 
L 114.97364 155.667421 
L 116.116919 155.667421 
L 116.116919 154.867746 
L 117.260197 154.867746 
L 117.260197 154.580015 
L 118.403476 154.580015 
L 118.403476 153.786523 
L 120.690033 153.71352 
L 120.690033 153.204974 
L 121.833311 153.204974 
L 121.833311 153.010471 
L 122.97659 153.010471 
L 122.97659 152.073312 
L 124.119868 152.073312 
L 124.119868 151.631671 
L 125.263147 151.631671 
L 125.263147 150.727686 
L 126.406425 150.727686 
L 126.406425 150.587336 
L 127.549704 150.587336 
L 127.549704 149.857756 
L 128.692982 149.857756 
L 128.692982 149.733921 
L 129.836261 149.733921 
L 129.836261 148.976229 
L 130.979539 148.976229 
L 130.979539 148.562772 
L 132.122817 148.562772 
L 132.122817 147.703859 
L 133.266096 147.703859 
L 133.266096 147.197985 
L 134.409374 147.197985 
L 134.409374 146.368816 
L 135.552653 146.368816 
L 135.552653 146.220895 
L 136.695931 146.220895 
L 136.695931 145.423662 
L 138.982488 145.351305 
L 138.982488 144.75459 
L 140.125767 144.75459 
L 140.125767 144.448482 
L 141.269045 144.448482 
L 141.269045 143.338241 
L 142.412324 143.338241 
L 142.412324 143.156048 
L 143.555602 143.156048 
L 143.555602 142.264568 
L 144.698881 142.264568 
L 144.698881 142.03613 
L 145.842159 142.03613 
L 145.842159 141.071844 
L 146.985438 141.071844 
L 146.985438 140.772885 
L 148.128716 140.772885 
L 148.128716 140.041089 
L 149.271995 140.041089 
L 149.271995 139.790498 
L 150.415273 139.790498 
L 150.415273 138.822522 
L 151.558552 138.822522 
L 151.558552 138.514374 
L 152.70183 138.514374 
L 152.70183 137.622206 
L 153.845108 137.622206 
L 153.845108 137.409466 
L 154.988387 137.409466 
L 154.988387 136.78388 
L 156.131665 136.78388 
L 156.131665 136.57667 
L 157.274944 136.57667 
L 157.274944 135.903697 
L 158.418222 135.903697 
L 158.418222 135.696378 
L 159.561501 135.696378 
L 159.561501 134.952961 
L 160.704779 134.952961 
L 160.704779 134.56433 
L 161.848058 134.56433 
L 161.848058 133.53362 
L 162.991336 133.53362 
L 162.991336 133.389106 
L 164.134615 133.389106 
L 164.134615 132.725855 
L 165.277893 132.725855 
L 165.277893 132.531741 
L 166.421172 132.531741 
L 166.421172 131.647697 
L 167.56445 131.647697 
L 167.56445 131.455071 
L 168.707729 131.455071 
L 168.707729 130.713401 
L 169.851007 130.713401 
L 169.851007 130.371489 
L 170.994286 130.371489 
L 170.994286 129.674458 
L 172.137564 129.674458 
L 172.137564 129.346608 
L 173.280843 129.346608 
L 173.280843 128.535731 
L 174.424121 128.535731 
L 174.424121 128.260687 
L 175.567399 128.260687 
L 175.567399 127.539412 
L 176.710678 127.539412 
L 176.710678 127.32735 
L 177.853956 127.32735 
L 177.853956 126.406456 
L 178.997235 126.406456 
L 178.997235 126.146539 
L 180.140513 126.146539 
L 180.140513 125.357054 
L 181.283792 125.357054 
L 181.283792 125.204967 
L 182.42707 125.204967 
L 182.42707 124.56256 
L 184.713627 124.468303 
L 184.713627 123.725298 
L 185.856906 123.725298 
L 185.856906 123.373728 
L 187.000184 123.373728 
L 187.000184 122.559067 
L 188.143463 122.559067 
L 188.143463 122.170715 
L 189.286741 122.170715 
L 189.286741 121.218604 
L 190.43002 121.218604 
L 190.43002 121.082447 
L 191.573298 121.082447 
L 191.573298 120.483628 
L 192.716577 120.483628 
L 192.716577 120.740901 
L 193.859855 120.740901 
L 193.859855 120.971427 
L 195.003134 120.971427 
L 195.003134 121.345985 
L 196.146412 121.345985 
L 196.146412 121.982628 
L 197.28969 121.982628 
L 197.28969 122.839878 
L 199.576247 122.753631 
L 199.576247 123.597965 
L 200.719526 123.597965 
L 200.719526 123.178088 
L 201.862804 123.178088 
L 201.862804 123.544782 
L 203.006083 123.544782 
L 203.006083 123.992153 
L 204.149361 123.992153 
L 204.149361 124.426425 
L 205.29264 124.426425 
L 205.29264 124.826019 
L 206.435918 124.826019 
L 206.435918 126.057965 
L 207.579197 126.057965 
L 207.579197 126.608083 
L 208.722475 126.608083 
L 208.722475 127.16835 
L 209.865754 127.16835 
L 209.865754 127.01088 
L 211.009032 127.01088 
L 211.009032 127.561827 
L 212.152311 127.561827 
L 212.152311 128.163503 
L 213.295589 128.163503 
L 213.295589 128.283901 
L 214.438868 128.283901 
L 214.438868 128.149128 
L 215.582146 128.149128 
L 215.582146 128.928111 
L 216.725425 128.928111 
L 216.725425 130.309023 
L 217.868703 130.309023 
L 217.868703 131.590673 
L 219.011981 131.590673 
L 219.011981 132.032255 
L 220.15526 132.032255 
L 220.15526 132.576538 
L 221.298538 132.576538 
L 221.298538 133.389434 
L 222.441817 133.389434 
L 222.441817 133.797435 
L 224.728374 133.69297 
L 224.728374 134.683662 
L 225.871652 134.683662 
L 225.871652 135.668803 
L 227.014931 135.668803 
L 227.014931 136.674428 
L 228.158209 136.674428 
L 228.158209 137.67152 
L 229.301488 137.67152 
L 229.301488 138.222142 
L 230.444766 138.222142 
L 230.444766 138.405297 
L 231.588045 138.405297 
L 231.588045 138.696107 
L 232.731323 138.696107 
L 232.731323 138.167918 
L 233.874602 138.167918 
L 233.874602 139.109723 
L 235.01788 139.109723 
L 235.01788 138.950236 
L 236.161159 138.950236 
L 236.161159 139.606056 
L 238.447716 139.710898 
L 238.447716 140.490347 
L 239.590994 140.490347 
L 239.590994 140.854528 
L 240.734272 140.854528 
L 240.734272 141.458876 
L 241.877551 141.458876 
L 241.877551 141.847779 
L 243.020829 141.847779 
L 243.020829 142.961973 
L 244.164108 142.961973 
L 244.164108 143.447099 
L 245.307386 143.447099 
L 245.307386 144.58631 
L 246.450665 144.58631 
L 246.450665 144.896234 
L 247.593943 144.896234 
L 247.593943 145.677301 
L 248.737222 145.677301 
L 248.737222 146.056619 
L 249.8805 146.056619 
L 249.8805 146.89353 
L 251.023779 146.89353 
L 251.023779 147.982574 
L 252.167057 147.982574 
L 252.167057 148.507499 
L 254.453614 148.469016 
L 254.453614 149.748223 
L 256.740171 149.68589 
L 256.740171 150.708725 
L 257.88345 150.708725 
L 257.88345 150.888484 
L 259.026728 150.888484 
L 259.026728 151.383563 
L 260.170007 151.383563 
L 260.170007 152.186118 
L 261.313285 152.186118 
L 261.313285 152.760748 
L 262.456563 152.760748 
L 262.456563 152.358044 
L 263.599842 152.358044 
L 263.599842 153.432483 
L 264.74312 153.432483 
L 264.74312 154.06043 
L 265.886399 154.06043 
L 265.886399 155.201594 
L 267.029677 155.201594 
L 267.029677 155.45011 
L 268.172956 155.45011 
L 268.172956 156.010314 
L 269.316234 156.010314 
L 269.316234 156.710665 
L 270.459513 156.710665 
L 270.459513 157.629867 
L 271.602791 157.629867 
L 271.602791 157.443441 
L 272.74607 157.443441 
L 272.74607 158.271903 
L 273.889348 158.271903 
L 273.889348 157.839558 
L 275.032627 157.839558 
L 275.032627 158.243491 
L 276.175905 158.243491 
L 276.175905 158.463299 
L 277.319184 158.463299 
L 277.319184 159.004123 
L 278.462462 159.004123 
L 278.462462 159.383135 
L 279.605741 159.383135 
L 279.605741 160.430792 
L 280.749019 160.430792 
L 280.749019 161.296673 
L 281.892298 161.296673 
L 281.892298 161.766565 
L 283.035576 161.766565 
L 283.035576 161.416402 
L 285.322133 161.461558 
L 285.322133 161.723169 
L 286.465411 161.723169 
L 286.465411 161.172499 
L 288.751968 161.203745 
L 288.751968 161.90377 
L 289.895247 161.90377 
L 289.895247 161.59148 
L 292.181804 161.490595 
L 292.181804 161.386965 
L 293.325082 161.386965 
L 293.325082 160.734969 
L 294.468361 160.734969 
L 294.468361 160.313312 
L 296.754918 160.391494 
L 296.754918 160.523179 
L 297.898196 160.523179 
L 297.898196 160.96093 
L 299.041475 160.96093 
L 299.041475 161.231023 
L 300.184753 161.231023 
L 300.184753 160.948423 
L 301.328032 160.948423 
L 301.328032 160.482241 
L 302.47131 160.482241 
L 302.47131 160.054871 
L 303.614589 160.054871 
L 303.614589 159.55535 
L 304.757867 159.55535 
L 304.757867 160.573519 
L 307.044424 160.644899 
L 307.044424 160.272762 
L 308.187702 160.272762 
L 308.187702 159.905866 
L 309.330981 159.905866 
L 309.330981 160.544066 
L 312.760816 160.527685 
L 312.760816 160.199729 
L 313.904095 160.199729 
L 313.904095 160.915812 
L 316.190652 160.958283 
L 316.190652 160.704873 
L 317.33393 160.704873 
L 317.33393 161.045705 
L 318.477209 161.045705 
L 318.477209 161.449766 
L 319.620487 161.449766 
L 319.620487 161.592998 
L 320.763766 161.592998 
L 320.763766 160.457052 
L 321.907044 160.457052 
L 321.907044 161.148639 
L 324.193601 161.192923 
L 324.193601 161.870011 
L 325.33688 161.870011 
L 325.33688 161.487075 
L 326.480158 161.487075 
L 326.480158 161.616755 
L 327.623437 161.616755 
L 327.623437 161.351785 
L 329.909993 161.405748 
L 329.909993 160.469456 
L 332.19655 160.473036 
L 332.19655 159.841732 
L 334.483107 159.769136 
L 334.483107 159.111411 
L 335.626386 159.111411 
L 335.626386 159.284797 
L 337.912943 159.21305 
L 337.912943 160.332252 
L 339.056221 160.332252 
L 339.056221 159.14639 
L 341.342778 159.057028 
L 341.342778 159.481895 
L 342.486057 159.481895 
L 342.486057 160.522873 
L 344.772614 160.588951 
L 344.772614 160.327415 
L 345.915892 160.327415 
L 345.915892 160.603918 
L 347.059171 160.603918 
L 347.059171 160.755535 
L 348.202449 160.755535 
L 348.202449 159.661719 
L 349.345728 159.661719 
L 349.345728 160.123241 
L 350.489006 160.123241 
L 350.489006 161.371915 
L 351.632284 161.371915 
L 351.632284 161.600346 
L 352.775563 161.600346 
L 352.775563 161.812857 
L 353.918841 161.812857 
L 353.918841 161.483765 
L 355.06212 161.483765 
L 355.06212 160.991432 
L 358.491955 161.006802 
L 358.491955 161.399843 
L 359.635234 161.399843 
L 359.635234 161.063505 
L 361.921791 160.955638 
L 361.921791 161.701479 
L 364.208348 161.633418 
L 364.208348 161.230797 
L 366.494905 161.161602 
L 366.494905 160.3699 
L 367.638183 160.3699 
L 367.638183 159.988089 
L 369.92474 160.069065 
L 369.92474 160.107783 
L 371.068019 160.107783 
L 371.068019 160.628504 
L 372.211297 160.628504 
L 372.211297 161.201592 
L 373.354575 161.201592 
L 373.354575 160.706952 
L 374.497854 160.706952 
L 374.497854 160.340252 
L 375.641132 160.340252 
L 375.641132 159.778453 
L 376.784411 159.778453 
L 376.784411 160.350699 
L 377.927689 160.350699 
L 377.927689 159.97379 
L 379.070968 159.97379 
L 379.070968 159.711385 
L 380.214246 159.711385 
L 380.214246 159.842264 
L 381.357525 159.842264 
L 381.357525 159.955363 
L 383.644082 159.978872 
L 383.644082 160.189331 
L 384.78736 160.189331 
L 384.78736 160.535797 
L 387.073917 160.603175 
L 387.073917 160.317546 
L 388.217196 160.317546 
L 388.217196 160.104795 
L 391.647031 160.065204 
L 391.647031 160.369379 
L 392.79031 160.369379 
L 392.79031 160.662606 
L 393.933588 160.662606 
L 393.933588 160.976329 
L 395.076866 160.976329 
L 395.076866 160.758758 
L 396.220145 160.758758 
L 396.220145 160.907456 
L 397.363423 160.907456 
L 397.363423 160.356948 
L 398.506702 160.356948 
L 398.506702 160.051039 
L 399.64998 160.051039 
L 399.64998 159.911417 
L 400.793259 159.911417 
L 400.793259 160.427267 
L 401.936537 160.427267 
L 401.936537 160.624547 
L 403.079816 160.624547 
L 403.079816 160.762248 
L 404.223094 160.762248 
L 404.223094 160.480338 
L 406.509651 160.518201 
L 406.509651 160.754389 
L 407.65293 160.754389 
L 407.65293 161.0551 
L 409.939487 160.98789 
L 409.939487 160.771911 
L 411.082765 160.771911 
L 411.082765 159.938245 
L 412.226044 159.938245 
L 412.226044 160.194557 
L 413.369322 160.194557 
L 413.369322 159.902622 
L 414.512601 159.902622 
L 414.512601 160.37011 
L 415.655879 160.37011 
L 415.655879 160.664686 
L 419.085714 160.571588 
L 419.085714 160.397112 
L 421.372271 160.449958 
L 421.372271 160.216043 
L 423.658828 160.175657 
L 423.658828 160.509729 
L 424.802107 160.509729 
L 424.802107 160.217636 
L 425.945385 160.217636 
L 425.945385 160.728902 
L 428.231942 160.811941 
L 428.231942 161.073155 
L 429.375221 161.073155 
L 429.375221 160.193509 
L 430.518499 160.193509 
L 430.518499 160.407858 
L 431.661778 160.407858 
L 431.661778 160.605819 
L 432.805056 160.605819 
L 432.805056 160.730573 
L 433.948335 160.730573 
L 433.948335 160.879618 
L 435.091613 160.879618 
L 435.091613 161.785291 
L 436.234892 161.785291 
L 436.234892 161.659717 
L 438.521448 161.562473 
L 438.521448 161.201814 
L 439.664727 161.201814 
L 439.664727 161.008031 
L 440.808005 161.008031 
L 440.808005 161.373203 
L 441.951284 161.373203 
L 441.951284 161.134466 
L 444.237841 161.198652 
L 444.237841 160.919209 
L 447.667676 160.960762 
L 447.667676 161.304509 
L 448.810955 161.304509 
L 448.810955 161.593867 
L 449.954233 161.593867 
L 449.954233 161.855676 
L 451.097512 161.855676 
L 451.097512 161.705246 
L 453.384069 161.734652 
L 453.384069 162.052333 
L 455.670626 162.078175 
L 455.670626 161.491182 
L 456.813904 161.491182 
L 456.813904 162.04291 
L 457.957183 162.04291 
L 457.957183 161.775184 
L 459.100461 161.775184 
L 459.100461 161.251809 
L 460.243739 161.251809 
L 460.243739 160.976889 
L 461.387018 160.976889 
L 461.387018 160.329631 
L 462.530296 160.329631 
L 462.530296 160.615385 
L 464.816853 160.519664 
L 464.816853 161.088166 
L 469.389967 161.173384 
L 469.389967 161.253475 
L 483.109309 161.194517 
L 483.109309 161.0943 
L 489.96898 161.141533 
L 489.96898 161.238422 
L 493.398815 161.277765 
L 493.398815 161.356438 
L 497.971929 161.421254 
L 497.971929 161.493551 
L 505.974878 161.382688 
L 505.974878 161.377725 
L 513.977828 161.420457 
L 513.977828 161.512559 
L 521.980777 161.616127 
L 521.980777 161.647614 
L 536.843397 161.735616 
L 536.843397 161.827984 
L 542.55979 161.915607 
L 542.55979 161.968363 
L 543.703068 161.968363 
L 543.703068 161.829895 
L 553.992574 161.94071 
L 553.992574 162.005473 
L 557.42241 162.073713 
L 557.42241 162.116372 
" clip-path="url(#p99845d024a)" style="fill: none; stroke: #a1c9f4"/>
   </g>
   <g id="patch_9">
    <path d="M 16.914646 163.365354 
L 16.914646 119.234646 
" style="fill: none; stroke: #adb2b7; stroke-linejoin: miter; stroke-linecap: square"/>
   </g>
   <g id="patch_10">
    <path d="M 16.914646 163.365354 
L 573.165354 163.365354 
" style="fill: none; stroke: #adb2b7; stroke-linejoin: miter; stroke-linecap: square"/>
   </g>
  </g>
  <g id="axes_4">
   <g id="patch_11">
    <path d="M 16.914646 213.165354 
L 573.165354 213.165354 
L 573.165354 169.034646 
L 16.914646 169.034646 
z
" style="fill: #21252b"/>
   </g>
   <g id="matplotlib.axis_7"/>
   <g id="matplotlib.axis_8">
    <g id="text_5">
     <!-- Fase -->
     <g style="fill: #9eb1be" transform="translate(10.626989 203.902109) rotate(-90) scale(0.11 -0.11)">
      <defs>
       <path id="DejaVuSerif-46" d="M 353 0 
L 353 331 
L 947 331 
L 947 4331 
L 353 4331 
L 353 4666 
L 4172 4666 
L 4172 3628 
L 3788 3628 
L 3788 4281 
L 1581 4281 
L 1581 2719 
L 3175 2719 
L 3175 3303 
L 3559 3303 
L 3559 1753 
L 3175 1753 
L 3175 2338 
L 1581 2338 
L 1581 331 
L 2328 331 
L 2328 0 
L 353 0 
z
" transform="scale(0.015625)"/>
      </defs>
      <use xlink:href="#DejaVuSerif-46"/>
      <use xlink:href="#DejaVuSerif-61" x="62.634766"/>
      <use xlink:href="#DejaVuSerif-73" x="122.253906"/>
      <use xlink:href="#DejaVuSerif-65" x="173.572266"/>
     </g>
    </g>
   </g>
   <g id="line2d_4">
    <path d="M 32.65759 171.216472 
L 33.800869 171.216472 
L 33.800869 211.190115 
L 34.944147 211.190115 
L 34.944147 170.984998 
L 36.087426 170.984998 
L 36.087426 175.049054 
L 37.230704 175.049054 
L 37.230704 175.459652 
L 38.373983 175.459652 
L 38.373983 208.731559 
L 39.517261 208.731559 
L 39.517261 209.311669 
L 40.66054 209.311669 
L 40.66054 206.498557 
L 41.803818 206.498557 
L 41.803818 206.33045 
L 42.947097 206.33045 
L 42.947097 205.442443 
L 44.090375 205.442443 
L 44.090375 204.760096 
L 45.233653 204.760096 
L 45.233653 200.95808 
L 46.376932 200.95808 
L 46.376932 201.540316 
L 47.52021 201.540316 
L 47.52021 202.280866 
L 48.663489 202.280866 
L 48.663489 204.641797 
L 49.806767 204.641797 
L 49.806767 202.17707 
L 52.093324 202.240053 
L 52.093324 201.58033 
L 53.236603 201.58033 
L 53.236603 202.439534 
L 54.379881 202.439534 
L 54.379881 203.195719 
L 55.52316 203.195719 
L 55.52316 203.799287 
L 56.666438 203.799287 
L 56.666438 203.036216 
L 57.809717 203.036216 
L 57.809717 203.957185 
L 58.952995 203.957185 
L 58.952995 202.485504 
L 60.096274 202.485504 
L 60.096274 202.869193 
L 61.239552 202.869193 
L 61.239552 201.571354 
L 62.382831 201.571354 
L 62.382831 200.95124 
L 63.526109 200.95124 
L 63.526109 200.834634 
L 64.669388 200.834634 
L 64.669388 199.614551 
L 65.812666 199.614551 
L 65.812666 198.198321 
L 66.955944 198.198321 
L 66.955944 197.565128 
L 68.099223 197.565128 
L 68.099223 198.562815 
L 70.38578 198.452366 
L 70.38578 195.439818 
L 71.529058 195.439818 
L 71.529058 195.0097 
L 72.672337 195.0097 
L 72.672337 197.221863 
L 74.958894 197.15037 
L 74.958894 192.51887 
L 76.102172 192.51887 
L 76.102172 193.727335 
L 77.245451 193.727335 
L 77.245451 196.520067 
L 78.388729 196.520067 
L 78.388729 191.591117 
L 79.532008 191.591117 
L 79.532008 176.375806 
L 80.675286 176.375806 
L 80.675286 204.728082 
L 81.818565 204.728082 
L 81.818565 208.625495 
L 82.961843 208.625495 
L 82.961843 170.888251 
L 84.105122 170.888251 
L 84.105122 171.210506 
L 85.2484 171.210506 
L 85.2484 211.876172 
L 86.391679 211.876172 
L 86.391679 171.620867 
L 87.534957 171.620867 
L 87.534957 170.404181 
L 88.678235 170.404181 
L 88.678235 202.581427 
L 89.821514 202.581427 
L 89.821514 205.252828 
L 90.964792 205.252828 
L 90.964792 196.935996 
L 92.108071 196.935996 
L 92.108071 196.07314 
L 93.251349 196.07314 
L 93.251349 206.864022 
L 94.394628 206.864022 
L 94.394628 201.065552 
L 95.537906 201.065552 
L 95.537906 199.807288 
L 96.681185 199.807288 
L 96.681185 200.256799 
L 97.824463 200.256799 
L 97.824463 194.393205 
L 98.967742 194.393205 
L 98.967742 193.339825 
L 100.11102 193.339825 
L 100.11102 193.720462 
L 101.254299 193.720462 
L 101.254299 192.340988 
L 102.397577 192.340988 
L 102.397577 191.027758 
L 105.827413 191.022705 
L 105.827413 191.24453 
L 111.543805 191.16492 
L 111.543805 191.066406 
L 112.687083 191.066406 
L 112.687083 190.926367 
L 113.830362 190.926367 
L 113.830362 190.780822 
L 114.97364 190.780822 
L 114.97364 190.908483 
L 126.406425 190.855493 
L 126.406425 190.78281 
L 137.83921 190.678987 
L 137.83921 190.625882 
L 157.274944 190.689686 
L 157.274944 190.739349 
L 190.43002 190.83523 
L 190.43002 190.856055 
L 193.859855 190.809984 
L 193.859855 190.734931 
L 200.719526 190.806918 
L 200.719526 190.847195 
L 206.435918 190.898351 
L 206.435918 190.979961 
L 207.579197 190.979961 
L 207.579197 190.842799 
L 215.582146 190.74263 
L 215.582146 190.683529 
L 223.585095 190.745 
L 223.585095 190.831876 
L 227.014931 190.925039 
L 227.014931 191.019764 
L 229.301488 191.041986 
L 229.301488 191.148897 
L 230.444766 191.148897 
L 230.444766 190.981 
L 232.731323 190.943044 
L 232.731323 190.77346 
L 235.01788 190.786414 
L 235.01788 190.911886 
L 236.161159 190.911886 
L 236.161159 191.064453 
L 237.304437 191.064453 
L 237.304437 190.86288 
L 240.734272 190.867788 
L 240.734272 190.725624 
L 241.877551 190.725624 
L 241.877551 190.435394 
L 245.307386 190.542458 
L 245.307386 190.737253 
L 246.450665 190.737253 
L 246.450665 190.505742 
L 248.737222 190.559784 
L 248.737222 190.828529 
L 251.023779 190.856111 
L 251.023779 190.695311 
L 252.167057 190.695311 
L 252.167057 190.464969 
L 255.596893 190.453466 
L 255.596893 190.350864 
L 257.88345 190.447722 
L 257.88345 190.919883 
L 260.170007 190.916725 
L 260.170007 191.147778 
L 262.456563 191.211744 
L 262.456563 190.944414 
L 263.599842 190.944414 
L 263.599842 191.180712 
L 265.886399 191.129712 
L 265.886399 190.939538 
L 267.029677 190.939538 
L 267.029677 190.427598 
L 268.172956 190.427598 
L 268.172956 190.059767 
L 269.316234 190.059767 
L 269.316234 190.615565 
L 270.459513 190.615565 
L 270.459513 190.980138 
L 271.602791 190.980138 
L 271.602791 190.503198 
L 272.74607 190.503198 
L 272.74607 191.283685 
L 275.032627 191.3505 
L 275.032627 190.67558 
L 276.175905 190.67558 
L 276.175905 191.340142 
L 277.319184 191.340142 
L 277.319184 190.929439 
L 278.462462 190.929439 
L 278.462462 192.033892 
L 279.605741 192.033892 
L 279.605741 193.899734 
L 280.749019 193.899734 
L 280.749019 190.020878 
L 281.892298 190.020878 
L 281.892298 181.666164 
L 283.035576 181.666164 
L 283.035576 183.688506 
L 284.178854 183.688506 
L 284.178854 172.092979 
L 285.322133 172.092979 
L 285.322133 176.587911 
L 286.465411 176.587911 
L 286.465411 197.901743 
L 287.60869 197.901743 
L 287.60869 201.502182 
L 288.751968 201.502182 
L 288.751968 196.875314 
L 289.895247 196.875314 
L 289.895247 179.902451 
L 291.038525 179.902451 
L 291.038525 205.740248 
L 292.181804 205.740248 
L 292.181804 211.55557 
L 293.325082 211.55557 
L 293.325082 209.863082 
L 294.468361 209.863082 
L 294.468361 207.351064 
L 295.611639 207.351064 
L 295.611639 206.227735 
L 296.754918 206.227735 
L 296.754918 207.250109 
L 299.041475 207.351834 
L 299.041475 171.764424 
L 300.184753 171.764424 
L 300.184753 207.920548 
L 301.328032 207.920548 
L 301.328032 209.771047 
L 302.47131 209.771047 
L 302.47131 207.387917 
L 303.614589 207.387917 
L 303.614589 207.096954 
L 304.757867 207.096954 
L 304.757867 205.087399 
L 305.901146 205.087399 
L 305.901146 205.776408 
L 307.044424 205.776408 
L 307.044424 205.626474 
L 308.187702 205.626474 
L 308.187702 207.562951 
L 309.330981 207.562951 
L 309.330981 206.815672 
L 310.474259 206.815672 
L 310.474259 205.071882 
L 311.617538 205.071882 
L 311.617538 202.441455 
L 312.760816 202.441455 
L 312.760816 202.968471 
L 313.904095 202.968471 
L 313.904095 201.853907 
L 315.047373 201.853907 
L 315.047373 208.167286 
L 316.190652 208.167286 
L 316.190652 210.723264 
L 317.33393 210.723264 
L 317.33393 211.092692 
L 318.477209 211.092692 
L 318.477209 183.867533 
L 319.620487 183.867533 
L 319.620487 188.638363 
L 320.763766 188.638363 
L 320.763766 191.883949 
L 321.907044 191.883949 
L 321.907044 189.339086 
L 323.050323 189.339086 
L 323.050323 195.836562 
L 324.193601 195.836562 
L 324.193601 186.238476 
L 325.33688 186.238476 
L 325.33688 206.254847 
L 326.480158 206.254847 
L 326.480158 207.437415 
L 327.623437 207.437415 
L 327.623437 209.966469 
L 328.766715 209.966469 
L 328.766715 210.816153 
L 329.909993 210.816153 
L 329.909993 205.070162 
L 331.053272 205.070162 
L 331.053272 207.294534 
L 332.19655 207.294534 
L 332.19655 204.74327 
L 333.339829 204.74327 
L 333.339829 206.021057 
L 334.483107 206.021057 
L 334.483107 204.759907 
L 335.626386 204.759907 
L 335.626386 205.255356 
L 336.769664 205.255356 
L 336.769664 203.296044 
L 337.912943 203.296044 
L 337.912943 203.524285 
L 339.056221 203.524285 
L 339.056221 203.667537 
L 340.1995 203.667537 
L 340.1995 204.457843 
L 341.342778 204.457843 
L 341.342778 205.926258 
L 342.486057 205.926258 
L 342.486057 208.248846 
L 343.629335 208.248846 
L 343.629335 204.406972 
L 344.772614 204.406972 
L 344.772614 203.915172 
L 345.915892 203.915172 
L 345.915892 204.047513 
L 347.059171 204.047513 
L 347.059171 201.874186 
L 348.202449 201.874186 
L 348.202449 204.884848 
L 349.345728 204.884848 
L 349.345728 203.198236 
L 350.489006 203.198236 
L 350.489006 203.765619 
L 351.632284 203.765619 
L 351.632284 205.080848 
L 352.775563 205.080848 
L 352.775563 198.343373 
L 353.918841 198.343373 
L 353.918841 181.030309 
L 355.06212 181.030309 
L 355.06212 172.081763 
L 356.205398 172.081763 
L 356.205398 172.91906 
L 357.348677 172.91906 
L 357.348677 211.416203 
L 358.491955 211.416203 
L 358.491955 171.325435 
L 359.635234 171.325435 
L 359.635234 202.613192 
L 360.778512 202.613192 
L 360.778512 204.697026 
L 361.921791 204.697026 
L 361.921791 204.040328 
L 363.065069 204.040328 
L 363.065069 174.634422 
L 364.208348 174.634422 
L 364.208348 206.808356 
L 365.351626 206.808356 
L 365.351626 210.014874 
L 366.494905 210.014874 
L 366.494905 208.582841 
L 367.638183 208.582841 
L 367.638183 206.952318 
L 368.781462 206.952318 
L 368.781462 205.879844 
L 369.92474 205.879844 
L 369.92474 206.507971 
L 372.211297 206.577125 
L 372.211297 210.773474 
L 373.354575 210.773474 
L 373.354575 205.58482 
L 374.497854 205.58482 
L 374.497854 207.744194 
L 375.641132 207.744194 
L 375.641132 208.224343 
L 376.784411 208.224343 
L 376.784411 209.103132 
L 377.927689 209.103132 
L 377.927689 208.016471 
L 379.070968 208.016471 
L 379.070968 210.598871 
L 380.214246 210.598871 
L 380.214246 209.616934 
L 381.357525 209.616934 
L 381.357525 209.427405 
L 382.500803 209.427405 
L 382.500803 207.596971 
L 383.644082 207.596971 
L 383.644082 209.622972 
L 384.78736 209.622972 
L 384.78736 209.26291 
L 385.930639 209.26291 
L 385.930639 211.61812 
L 387.073917 211.61812 
L 387.073917 170.681272 
L 388.217196 170.681272 
L 388.217196 172.255437 
L 389.360474 172.255437 
L 389.360474 170.908366 
L 390.503753 170.908366 
L 390.503753 170.715879 
L 391.647031 170.715879 
L 391.647031 209.923199 
L 392.79031 209.923199 
L 392.79031 210.662501 
L 393.933588 210.662501 
L 393.933588 208.462797 
L 395.076866 208.462797 
L 395.076866 211.299938 
L 396.220145 211.299938 
L 396.220145 171.88702 
L 397.363423 171.88702 
L 397.363423 170.626626 
L 398.506702 170.626626 
L 398.506702 170.283628 
L 399.64998 170.283628 
L 399.64998 170.591362 
L 400.793259 170.591362 
L 400.793259 211.136379 
L 401.936537 211.136379 
L 401.936537 208.993059 
L 403.079816 208.993059 
L 403.079816 209.717714 
L 404.223094 209.717714 
L 404.223094 211.266425 
L 405.366373 211.266425 
L 405.366373 171.002123 
L 406.509651 171.002123 
L 406.509651 209.875927 
L 407.65293 209.875927 
L 407.65293 207.119471 
L 408.796208 207.119471 
L 408.796208 207.264911 
L 409.939487 207.264911 
L 409.939487 207.679561 
L 411.082765 207.679561 
L 411.082765 208.655894 
L 412.226044 208.655894 
L 412.226044 210.865981 
L 413.369322 210.865981 
L 413.369322 170.382595 
L 414.512601 170.382595 
L 414.512601 211.916372 
L 415.655879 211.916372 
L 415.655879 171.454221 
L 416.799157 171.454221 
L 416.799157 208.876942 
L 417.942436 208.876942 
L 417.942436 209.090902 
L 419.085714 209.090902 
L 419.085714 208.157078 
L 420.228993 208.157078 
L 420.228993 209.810429 
L 421.372271 209.810429 
L 421.372271 211.26021 
L 422.51555 211.26021 
L 422.51555 171.5282 
L 424.802107 171.552657 
L 424.802107 173.828185 
L 425.945385 173.828185 
L 425.945385 172.231556 
L 427.088664 172.231556 
L 427.088664 172.611737 
L 429.375221 172.551348 
L 429.375221 174.301363 
L 430.518499 174.301363 
L 430.518499 172.601749 
L 431.661778 172.601749 
L 431.661778 175.541462 
L 432.805056 175.541462 
L 432.805056 178.2571 
L 433.948335 178.2571 
L 433.948335 179.786882 
L 435.091613 179.786882 
L 435.091613 174.051985 
L 436.234892 174.051985 
L 436.234892 177.097198 
L 437.37817 177.097198 
L 437.37817 173.629139 
L 438.521448 173.629139 
L 438.521448 210.952294 
L 439.664727 210.952294 
L 439.664727 170.775662 
L 440.808005 170.775662 
L 440.808005 178.397673 
L 441.951284 178.397673 
L 441.951284 176.123726 
L 443.094562 176.123726 
L 443.094562 173.23589 
L 444.237841 173.23589 
L 444.237841 171.537142 
L 445.381119 171.537142 
L 445.381119 173.003442 
L 446.524398 173.003442 
L 446.524398 209.833649 
L 447.667676 209.833649 
L 447.667676 207.953901 
L 448.810955 207.953901 
L 448.810955 207.613535 
L 449.954233 207.613535 
L 449.954233 184.079697 
L 451.097512 184.079697 
L 451.097512 199.882903 
L 452.24079 199.882903 
L 452.24079 174.567341 
L 453.384069 174.567341 
L 453.384069 208.160805 
L 454.527347 208.160805 
L 454.527347 194.472158 
L 455.670626 194.472158 
L 455.670626 198.670093 
L 456.813904 198.670093 
L 456.813904 192.440211 
L 457.957183 192.440211 
L 457.957183 188.675892 
L 459.100461 188.675892 
L 459.100461 182.644341 
L 460.243739 182.644341 
L 460.243739 181.095646 
L 461.387018 181.095646 
L 461.387018 179.954968 
L 462.530296 179.954968 
L 462.530296 179.236649 
L 463.673575 179.236649 
L 463.673575 178.23872 
L 464.816853 178.23872 
L 464.816853 177.969796 
L 465.960132 177.969796 
L 465.960132 179.474277 
L 467.10341 179.474277 
L 467.10341 182.519474 
L 468.246689 182.519474 
L 468.246689 182.930916 
L 469.389967 182.930916 
L 469.389967 183.117194 
L 470.533246 183.117194 
L 470.533246 183.357242 
L 471.676524 183.357242 
L 471.676524 182.985864 
L 472.819803 182.985864 
L 472.819803 183.15462 
L 473.963081 183.15462 
L 473.963081 183.702466 
L 475.10636 183.702466 
L 475.10636 183.394925 
L 476.249638 183.394925 
L 476.249638 183.55613 
L 478.536195 183.561797 
L 478.536195 183.222772 
L 479.679474 183.222772 
L 479.679474 183.338522 
L 480.822752 183.338522 
L 480.822752 183.981135 
L 481.96603 183.981135 
L 481.96603 183.701319 
L 483.109309 183.701319 
L 483.109309 182.738198 
L 484.252587 182.738198 
L 484.252587 182.513716 
L 485.395866 182.513716 
L 485.395866 183.144348 
L 486.539144 183.144348 
L 486.539144 182.747125 
L 488.825701 182.781749 
L 488.825701 182.184976 
L 489.96898 182.184976 
L 489.96898 181.713858 
L 492.255537 181.757991 
L 492.255537 182.116963 
L 496.828651 182.069439 
L 496.828651 181.940774 
L 497.971929 181.940774 
L 497.971929 181.585898 
L 499.115208 181.585898 
L 499.115208 181.811873 
L 501.401765 181.908292 
L 501.401765 181.99567 
L 503.688321 181.945134 
L 503.688321 182.155865 
L 504.8316 182.155865 
L 504.8316 181.848825 
L 505.974878 181.848825 
L 505.974878 181.30004 
L 507.118157 181.30004 
L 507.118157 181.163851 
L 508.261435 181.163851 
L 508.261435 180.051562 
L 509.404714 180.051562 
L 509.404714 180.341367 
L 511.691271 180.30047 
L 511.691271 179.876863 
L 512.834549 179.876863 
L 512.834549 180.474027 
L 513.977828 180.474027 
L 513.977828 181.035835 
L 516.264385 181.134572 
L 516.264385 180.45783 
L 517.407663 180.45783 
L 517.407663 179.907233 
L 518.550942 179.907233 
L 518.550942 180.180686 
L 520.837499 180.143672 
L 520.837499 180.341882 
L 521.980777 180.341882 
L 521.980777 179.296943 
L 523.124056 179.296943 
L 523.124056 179.725446 
L 524.267334 179.725446 
L 524.267334 179.380286 
L 525.410612 179.380286 
L 525.410612 178.024862 
L 526.553891 178.024862 
L 526.553891 179.595041 
L 528.840448 179.495578 
L 528.840448 180.885597 
L 529.983726 180.885597 
L 529.983726 181.017315 
L 531.127005 181.017315 
L 531.127005 180.381617 
L 532.270283 180.381617 
L 532.270283 179.697527 
L 534.55684 179.624526 
L 534.55684 180.195514 
L 535.700119 180.195514 
L 535.700119 179.856744 
L 536.843397 179.856744 
L 536.843397 179.424459 
L 537.986676 179.424459 
L 537.986676 179.875461 
L 539.129954 179.875461 
L 539.129954 179.354551 
L 540.273233 179.354551 
L 540.273233 178.97533 
L 541.416511 178.97533 
L 541.416511 179.754301 
L 542.55979 179.754301 
L 542.55979 177.480814 
L 544.846347 177.556012 
L 544.846347 176.933002 
L 545.989625 176.933002 
L 545.989625 177.497242 
L 547.132903 177.497242 
L 547.132903 177.338425 
L 548.276182 177.338425 
L 548.276182 178.104203 
L 549.41946 178.104203 
L 549.41946 178.4562 
L 550.562739 178.4562 
L 550.562739 178.646077 
L 551.706017 178.646077 
L 551.706017 177.495247 
L 552.849296 177.495247 
L 552.849296 176.197063 
L 553.992574 176.197063 
L 553.992574 171.808764 
L 555.135853 171.808764 
L 555.135853 172.000984 
L 556.279131 172.000984 
L 556.279131 172.211532 
L 557.42241 172.211532 
L 557.42241 175.392934 
L 557.42241 175.392934 
" clip-path="url(#pf8bd99fbc5)" style="fill: none; stroke: #a1c9f4"/>
   </g>
   <g id="patch_12">
    <path d="M 16.914646 213.165354 
L 16.914646 169.034646 
" style="fill: none; stroke: #adb2b7; stroke-linejoin: miter; stroke-linecap: square"/>
   </g>
   <g id="patch_13">
    <path d="M 16.914646 213.165354 
L 573.165354 213.165354 
" style="fill: none; stroke: #adb2b7; stroke-linejoin: miter; stroke-linecap: square"/>
   </g>
  </g>
 </g>
 <defs>
  <clipPath id="pc3d032c3bf">
   <rect x="16.914646" y="19.634646" width="556.250709" height="44.130709"/>
  </clipPath>
  <clipPath id="p12f7fe42bf">
   <rect x="16.914646" y="69.434646" width="556.250709" height="44.130709"/>
  </clipPath>
  <clipPath id="p99845d024a">
   <rect x="16.914646" y="119.234646" width="556.250709" height="44.130709"/>
  </clipPath>
  <clipPath id="pf8bd99fbc5">
   <rect x="16.914646" y="169.034646" width="556.250709" height="44.130709"/>
  </clipPath>
 </defs>
</svg>
