<?xml version="1.0" encoding="UTF-8" standalone="no"?>
<!-- Created with Inkscape (http://www.inkscape.org/) -->

<svg
   width="126.17317mm"
   height="49.212502mm"
   viewBox="0 0 126.17317 49.212501"
   version="1.1"
   id="svg1"
   inkscape:version="1.3.2 (091e20ef0f, 2023-11-25, custom)"
   sodipodi:docname="IFFT.svg"
   xmlns:inkscape="http://www.inkscape.org/namespaces/inkscape"
   xmlns:sodipodi="http://sodipodi.sourceforge.net/DTD/sodipodi-0.dtd"
   xmlns="http://www.w3.org/2000/svg"
   xmlns:svg="http://www.w3.org/2000/svg">
  <sodipodi:namedview
     id="namedview1"
     pagecolor="#ffffff"
     bordercolor="#000000"
     borderopacity="0.25"
     inkscape:showpageshadow="2"
     inkscape:pageopacity="0.0"
     inkscape:pagecheckerboard="0"
     inkscape:deskcolor="#d1d1d1"
     inkscape:document-units="mm"
     showgrid="true"
     inkscape:zoom="1.2743573"
     inkscape:cx="269.15528"
     inkscape:cy="117.70639"
     inkscape:window-width="1920"
     inkscape:window-height="1130"
     inkscape:window-x="0"
     inkscape:window-y="0"
     inkscape:window-maximized="1"
     inkscape:current-layer="layer1">
    <inkscape:grid
       id="grid1"
       units="px"
       originx="-61.630096"
       originy="-75.273956"
       spacingx="0.26458333"
       spacingy="0.26458334"
       empcolor="#0099e5"
       empopacity="0.30196078"
       color="#0099e5"
       opacity="0.14901961"
       empspacing="5"
       dotted="false"
       gridanglex="30"
       gridanglez="30"
       visible="true" />
  </sodipodi:namedview>
  <defs
     id="defs1">
    <clipPath
       clipPathUnits="userSpaceOnUse"
       id="clipPath49">
      <path
         d="M 0,792.03 H 612 V 0.03 H 0 Z"
         id="path49" />
    </clipPath>
    <clipPath
       clipPathUnits="userSpaceOnUse"
       id="clipPath51">
      <path
         d="M 0,792.03 H 612 V 0.03 H 0 Z"
         id="path51" />
    </clipPath>
    <clipPath
       clipPathUnits="userSpaceOnUse"
       id="clipPath53">
      <path
         d="M 0,792.03 H 612 V 0.03 H 0 Z"
         id="path53" />
    </clipPath>
    <clipPath
       clipPathUnits="userSpaceOnUse"
       id="clipPath55">
      <path
         d="M 0,792.03 H 612 V 0.03 H 0 Z"
         id="path55" />
    </clipPath>
    <clipPath
       clipPathUnits="userSpaceOnUse"
       id="clipPath57">
      <path
         d="M 0,792.03 H 612 V 0.03 H 0 Z"
         transform="matrix(1,0,0,-1,-215.46001,461.40001)"
         id="path57" />
    </clipPath>
    <clipPath
       clipPathUnits="userSpaceOnUse"
       id="clipPath59">
      <path
         d="M 0,792.03 H 612 V 0.03 H 0 Z"
         id="path59" />
    </clipPath>
    <clipPath
       clipPathUnits="userSpaceOnUse"
       id="clipPath61">
      <path
         d="M 0,792.03 H 612 V 0.03 H 0 Z"
         id="path61" />
    </clipPath>
    <clipPath
       clipPathUnits="userSpaceOnUse"
       id="clipPath63">
      <path
         d="M 0,792.03 H 612 V 0.03 H 0 Z"
         id="path63" />
    </clipPath>
    <clipPath
       clipPathUnits="userSpaceOnUse"
       id="clipPath65">
      <path
         d="M 0,792.03 H 612 V 0.03 H 0 Z"
         id="path65" />
    </clipPath>
    <clipPath
       clipPathUnits="userSpaceOnUse"
       id="clipPath67">
      <path
         d="M 0,792.03 H 612 V 0.03 H 0 Z"
         id="path67" />
    </clipPath>
    <clipPath
       clipPathUnits="userSpaceOnUse"
       id="clipPath69">
      <path
         d="M 0,792.03 H 612 V 0.03 H 0 Z"
         id="path69" />
    </clipPath>
    <clipPath
       clipPathUnits="userSpaceOnUse"
       id="clipPath71">
      <path
         d="M 0,792.03 H 612 V 0.03 H 0 Z"
         id="path71" />
    </clipPath>
    <clipPath
       clipPathUnits="userSpaceOnUse"
       id="clipPath73">
      <path
         d="M 0,792.03 H 612 V 0.03 H 0 Z"
         id="path73" />
    </clipPath>
    <clipPath
       clipPathUnits="userSpaceOnUse"
       id="clipPath75">
      <path
         d="M 0,792.03 H 612 V 0.03 H 0 Z"
         id="path75" />
    </clipPath>
    <clipPath
       clipPathUnits="userSpaceOnUse"
       id="clipPath77">
      <path
         d="M 0,792.03 H 612 V 0.03 H 0 Z"
         id="path77" />
    </clipPath>
    <clipPath
       clipPathUnits="userSpaceOnUse"
       id="clipPath79">
      <path
         d="M 0,792.03 H 612 V 0.03 H 0 Z"
         id="path79" />
    </clipPath>
    <clipPath
       clipPathUnits="userSpaceOnUse"
       id="clipPath81">
      <path
         d="M 0,792.03 H 612 V 0.03 H 0 Z"
         id="path81" />
    </clipPath>
    <clipPath
       clipPathUnits="userSpaceOnUse"
       id="clipPath83">
      <path
         d="M 0,792.03 H 612 V 0.03 H 0 Z"
         id="path83" />
    </clipPath>
    <clipPath
       clipPathUnits="userSpaceOnUse"
       id="clipPath85">
      <path
         d="M 0,792.03 H 612 V 0.03 H 0 Z"
         id="path85" />
    </clipPath>
    <clipPath
       clipPathUnits="userSpaceOnUse"
       id="clipPath87">
      <path
         d="M 0,792.03 H 612 V 0.03 H 0 Z"
         id="path87" />
    </clipPath>
    <clipPath
       clipPathUnits="userSpaceOnUse"
       id="clipPath89">
      <path
         d="M 0,792.03 H 612 V 0.03 H 0 Z"
         id="path89" />
    </clipPath>
    <clipPath
       clipPathUnits="userSpaceOnUse"
       id="clipPath91">
      <path
         d="M 0,792.03 H 612 V 0.03 H 0 Z"
         id="path91" />
    </clipPath>
    <clipPath
       clipPathUnits="userSpaceOnUse"
       id="clipPath93">
      <path
         d="M 0,792.03 H 612 V 0.03 H 0 Z"
         id="path93" />
    </clipPath>
    <clipPath
       clipPathUnits="userSpaceOnUse"
       id="clipPath95">
      <path
         d="M 0,792.03 H 612 V 0.03 H 0 Z"
         id="path95" />
    </clipPath>
    <clipPath
       clipPathUnits="userSpaceOnUse"
       id="clipPath97">
      <path
         d="M 0,792.03 H 612 V 0.03 H 0 Z"
         id="path97" />
    </clipPath>
    <clipPath
       clipPathUnits="userSpaceOnUse"
       id="clipPath99">
      <path
         d="M 0,792.03 H 612 V 0.03 H 0 Z"
         id="path99" />
    </clipPath>
    <clipPath
       clipPathUnits="userSpaceOnUse"
       id="clipPath101">
      <path
         d="M 0,792.03 H 612 V 0.03 H 0 Z"
         id="path101" />
    </clipPath>
    <clipPath
       clipPathUnits="userSpaceOnUse"
       id="clipPath103">
      <path
         d="M 0,792.03 H 612 V 0.03 H 0 Z"
         id="path103" />
    </clipPath>
    <clipPath
       clipPathUnits="userSpaceOnUse"
       id="clipPath105">
      <path
         d="M 0,792.03 H 612 V 0.03 H 0 Z"
         id="path105" />
    </clipPath>
    <clipPath
       clipPathUnits="userSpaceOnUse"
       id="clipPath107">
      <path
         d="M 0,792.03 H 612 V 0.03 H 0 Z"
         id="path107" />
    </clipPath>
    <clipPath
       clipPathUnits="userSpaceOnUse"
       id="clipPath109">
      <path
         d="M 0,792.03 H 612 V 0.03 H 0 Z"
         id="path109" />
    </clipPath>
    <clipPath
       clipPathUnits="userSpaceOnUse"
       id="clipPath111">
      <path
         d="M 0,792.03 H 612 V 0.03 H 0 Z"
         id="path111" />
    </clipPath>
    <clipPath
       clipPathUnits="userSpaceOnUse"
       id="clipPath113">
      <path
         d="M 0,792.03 H 612 V 0.03 H 0 Z"
         id="path113" />
    </clipPath>
    <clipPath
       clipPathUnits="userSpaceOnUse"
       id="clipPath115">
      <path
         d="M 0,792.03 H 612 V 0.03 H 0 Z"
         transform="matrix(1,0,0,-0.93892323,-223.08001,394.91111)"
         id="path115" />
    </clipPath>
    <clipPath
       clipPathUnits="userSpaceOnUse"
       id="clipPath117">
      <path
         d="M 0,792.03 H 612 V 0.03 H 0 Z"
         transform="matrix(1,0,0,-1,-223.08001,430.02001)"
         id="path117" />
    </clipPath>
    <clipPath
       clipPathUnits="userSpaceOnUse"
       id="clipPath119">
      <path
         d="M 0,792.03 H 612 V 0.03 H 0 Z"
         id="path119" />
    </clipPath>
    <clipPath
       clipPathUnits="userSpaceOnUse"
       id="clipPath121">
      <path
         d="M 0,792.03 H 612 V 0.03 H 0 Z"
         id="path121" />
    </clipPath>
    <clipPath
       clipPathUnits="userSpaceOnUse"
       id="clipPath123">
      <path
         d="M 0,792.03 H 612 V 0.03 H 0 Z"
         id="path123" />
    </clipPath>
    <clipPath
       clipPathUnits="userSpaceOnUse"
       id="clipPath125">
      <path
         d="M 0,792.03 H 612 V 0.03 H 0 Z"
         id="path125" />
    </clipPath>
    <clipPath
       clipPathUnits="userSpaceOnUse"
       id="clipPath127">
      <path
         d="M 0,792.03 H 612 V 0.03 H 0 Z"
         id="path127" />
    </clipPath>
    <clipPath
       clipPathUnits="userSpaceOnUse"
       id="clipPath129">
      <path
         d="M 0,792.03 H 612 V 0.03 H 0 Z"
         id="path129" />
    </clipPath>
    <clipPath
       clipPathUnits="userSpaceOnUse"
       id="clipPath131">
      <path
         d="M 0,792.03 H 612 V 0.03 H 0 Z"
         id="path131" />
    </clipPath>
    <clipPath
       clipPathUnits="userSpaceOnUse"
       id="clipPath133">
      <path
         d="M 0,792.03 H 612 V 0.03 H 0 Z"
         id="path133" />
    </clipPath>
    <clipPath
       clipPathUnits="userSpaceOnUse"
       id="clipPath135">
      <path
         d="M 0,792.03 H 612 V 0.03 H 0 Z"
         id="path135" />
    </clipPath>
    <clipPath
       clipPathUnits="userSpaceOnUse"
       id="clipPath137">
      <path
         d="M 0,792.03 H 612 V 0.03 H 0 Z"
         id="path137" />
    </clipPath>
    <clipPath
       clipPathUnits="userSpaceOnUse"
       id="clipPath139">
      <path
         d="M 0,792.03 H 612 V 0.03 H 0 Z"
         id="path139" />
    </clipPath>
    <clipPath
       clipPathUnits="userSpaceOnUse"
       id="clipPath141">
      <path
         d="M 0,792.03 H 612 V 0.03 H 0 Z"
         id="path141" />
    </clipPath>
    <clipPath
       clipPathUnits="userSpaceOnUse"
       id="clipPath143">
      <path
         d="M 0,792.03 H 612 V 0.03 H 0 Z"
         id="path143" />
    </clipPath>
    <clipPath
       clipPathUnits="userSpaceOnUse"
       id="clipPath145">
      <path
         d="M 0,792.03 H 612 V 0.03 H 0 Z"
         id="path145" />
    </clipPath>
    <clipPath
       clipPathUnits="userSpaceOnUse"
       id="clipPath147">
      <path
         d="M 0,792.03 H 612 V 0.03 H 0 Z"
         id="path147" />
    </clipPath>
    <clipPath
       clipPathUnits="userSpaceOnUse"
       id="clipPath149">
      <path
         d="M 0,792.03 H 612 V 0.03 H 0 Z"
         id="path149" />
    </clipPath>
    <clipPath
       clipPathUnits="userSpaceOnUse"
       id="clipPath151">
      <path
         d="M 0,792.03 H 612 V 0.03 H 0 Z"
         id="path151" />
    </clipPath>
    <clipPath
       clipPathUnits="userSpaceOnUse"
       id="clipPath153">
      <path
         d="M 0,792.03 H 612 V 0.03 H 0 Z"
         id="path153" />
    </clipPath>
    <clipPath
       clipPathUnits="userSpaceOnUse"
       id="clipPath155">
      <path
         d="M 0,792.03 H 612 V 0.03 H 0 Z"
         id="path155" />
    </clipPath>
    <clipPath
       clipPathUnits="userSpaceOnUse"
       id="clipPath157">
      <path
         d="M 0,792.03 H 612 V 0.03 H 0 Z"
         id="path157" />
    </clipPath>
    <clipPath
       clipPathUnits="userSpaceOnUse"
       id="clipPath159">
      <path
         d="M 0,792.03 H 612 V 0.03 H 0 Z"
         id="path159" />
    </clipPath>
    <clipPath
       clipPathUnits="userSpaceOnUse"
       id="clipPath161">
      <path
         d="M 0,792.03 H 612 V 0.03 H 0 Z"
         id="path161" />
    </clipPath>
    <clipPath
       clipPathUnits="userSpaceOnUse"
       id="clipPath163">
      <path
         d="M 0,792.03 H 612 V 0.03 H 0 Z"
         id="path163" />
    </clipPath>
    <clipPath
       clipPathUnits="userSpaceOnUse"
       id="clipPath165">
      <path
         d="M 0,792.03 H 612 V 0.03 H 0 Z"
         id="path165" />
    </clipPath>
    <clipPath
       clipPathUnits="userSpaceOnUse"
       id="clipPath167">
      <path
         d="M 0,792.03 H 612 V 0.03 H 0 Z"
         id="path167" />
    </clipPath>
    <clipPath
       clipPathUnits="userSpaceOnUse"
       id="clipPath169">
      <path
         d="M 0,792.03 H 612 V 0.03 H 0 Z"
         id="path169" />
    </clipPath>
    <clipPath
       clipPathUnits="userSpaceOnUse"
       id="clipPath171">
      <path
         d="M 0,792.03 H 612 V 0.03 H 0 Z"
         id="path171" />
    </clipPath>
    <clipPath
       clipPathUnits="userSpaceOnUse"
       id="clipPath173">
      <path
         d="M 0,792.03 H 612 V 0.03 H 0 Z"
         id="path173" />
    </clipPath>
    <clipPath
       clipPathUnits="userSpaceOnUse"
       id="clipPath175">
      <path
         d="M 0,792.03 H 612 V 0.03 H 0 Z"
         transform="matrix(1,0,0,-1,-390.42001,388.20001)"
         id="path175" />
    </clipPath>
    <clipPath
       clipPathUnits="userSpaceOnUse"
       id="clipPath177">
      <path
         d="M 0,792.03 H 612 V 0.03 H 0 Z"
         transform="matrix(1,0,0,-0.93892323,-310.14001,394.91111)"
         id="path177" />
    </clipPath>
    <clipPath
       clipPathUnits="userSpaceOnUse"
       id="clipPath179">
      <path
         d="M 0,792.03 H 612 V 0.03 H 0 Z"
         transform="matrix(1,0,0,-1,-310.08001,430.02001)"
         id="path179" />
    </clipPath>
    <clipPath
       clipPathUnits="userSpaceOnUse"
       id="clipPath183">
      <path
         d="M 0,792.03 H 612 V 0.03 H 0 Z"
         transform="matrix(1,0,0,-1,-310.08001,385.80001)"
         id="path183" />
    </clipPath>
    <clipPath
       clipPathUnits="userSpaceOnUse"
       id="clipPath105-3">
      <path
         d="M 0,792.03 H 612 V 0.03 H 0 Z"
         id="path105-8" />
    </clipPath>
    <clipPath
       clipPathUnits="userSpaceOnUse"
       id="clipPath101-5">
      <path
         d="M 0,792.03 H 612 V 0.03 H 0 Z"
         id="path101-1" />
    </clipPath>
    <clipPath
       clipPathUnits="userSpaceOnUse"
       id="clipPath93-0">
      <path
         d="M 0,792.03 H 612 V 0.03 H 0 Z"
         id="path93-8" />
    </clipPath>
    <clipPath
       clipPathUnits="userSpaceOnUse"
       id="clipPath89-7">
      <path
         d="M 0,792.03 H 612 V 0.03 H 0 Z"
         id="path89-6" />
    </clipPath>
    <clipPath
       clipPathUnits="userSpaceOnUse"
       id="clipPath81-3">
      <path
         d="M 0,792.03 H 612 V 0.03 H 0 Z"
         id="path81-5" />
    </clipPath>
    <clipPath
       clipPathUnits="userSpaceOnUse"
       id="clipPath77-0">
      <path
         d="M 0,792.03 H 612 V 0.03 H 0 Z"
         id="path77-8" />
    </clipPath>
    <clipPath
       clipPathUnits="userSpaceOnUse"
       id="clipPath69-0">
      <path
         d="M 0,792.03 H 612 V 0.03 H 0 Z"
         id="path69-4" />
    </clipPath>
    <clipPath
       clipPathUnits="userSpaceOnUse"
       id="clipPath65-1">
      <path
         d="M 0,792.03 H 612 V 0.03 H 0 Z"
         id="path65-1" />
    </clipPath>
    <clipPath
       clipPathUnits="userSpaceOnUse"
       id="clipPath61-3">
      <path
         d="M 0,792.03 H 612 V 0.03 H 0 Z"
         id="path61-5" />
    </clipPath>
  </defs>
  <g
     inkscape:label="Layer 1"
     inkscape:groupmode="layer"
     id="layer1"
     transform="translate(-61.630103,-75.273959)">
    <path
       id="path60"
       d="m 241.32,462.36 h 23.04 v 0.48 h -23.04 z"
       style="fill:#000000;fill-opacity:1;fill-rule:nonzero;stroke:none"
       transform="matrix(0.35277776,0,0,-0.35277776,16.637001,241.16241)"
       clip-path="url(#clipPath61)" />
    <path
       id="path62"
       d="m 263.94,451.56 h 0.24 v 0.48 h -0.24 z"
       style="fill:#000000;fill-opacity:1;fill-rule:nonzero;stroke:none"
       transform="matrix(0.35277776,0,0,-0.35277776,16.639809,241.38466)"
       clip-path="url(#clipPath63)" />
    <path
       id="path64"
       d="m 240.9,451.56 h 23.04 v 0.48 H 240.9 Z"
       style="fill:#000000;fill-opacity:1;fill-rule:nonzero;stroke:none;stroke-width:1.00063;stroke-dasharray:none"
       transform="matrix(0.35277776,0,0,-0.35277776,16.639809,241.46933)"
       clip-path="url(#clipPath65)" />
    <path
       id="path66"
       d="m 264,440.7 h 0.24 v 0.48 H 264 Z"
       style="fill:#000000;fill-opacity:1;fill-rule:nonzero;stroke:none"
       transform="matrix(0.35277776,0,0,-0.35277776,16.639809,241.38466)"
       clip-path="url(#clipPath67)" />
    <path
       id="path68"
       d="M 240.96,440.7 H 264 v 0.48 h -23.04 z"
       style="fill:#000000;fill-opacity:1;fill-rule:nonzero;stroke:none"
       transform="matrix(0.35277776,0,0,-0.35277776,16.764001,241.45874)"
       clip-path="url(#clipPath69)" />
    <path
       id="path70"
       d="m 264.3,429.9 h 0.24 v 0.48 h -0.24 z"
       style="fill:#000000;fill-opacity:1;fill-rule:nonzero;stroke:none"
       transform="matrix(0.35277776,0,0,-0.35277776,16.639809,241.38466)"
       clip-path="url(#clipPath71)" />
    <path
       id="path74"
       d="m 264.06,419.1 h 0.24 v 0.48 h -0.24 z"
       style="fill:#000000;fill-opacity:1;fill-rule:nonzero;stroke:none"
       transform="matrix(0.35277776,0,0,-0.35277776,16.639809,241.38466)"
       clip-path="url(#clipPath75)" />
    <path
       id="path76"
       d="m 241.02,419.1 h 23.04 v 0.48 h -23.04 z"
       style="fill:#000000;fill-opacity:1;fill-rule:nonzero;stroke:none"
       transform="matrix(0.35277776,0,0,-0.35277776,16.742835,241.77625)"
       clip-path="url(#clipPath77)" />
    <path
       id="path78"
       d="m 264.06,408.3 h 0.24 v 0.48 h -0.24 z"
       style="fill:#000000;fill-opacity:1;fill-rule:nonzero;stroke:none"
       transform="matrix(0.35277776,0,0,-0.35277776,16.639809,241.38466)"
       clip-path="url(#clipPath79)" />
    <path
       id="path80"
       d="m 241.02,408.3 h 23.04 v 0.48 h -23.04 z"
       style="fill:#000000;fill-opacity:1;fill-rule:nonzero;stroke:none"
       transform="matrix(0.35277776,0,0,-0.35277776,16.647585,241.935)"
       clip-path="url(#clipPath81)" />
    <path
       id="path82"
       d="m 263.88,397.5 h 0.24 v 0.48 h -0.24 z"
       style="fill:#000000;fill-opacity:1;fill-rule:nonzero;stroke:none"
       transform="matrix(0.35277776,0,0,-0.35277776,16.639809,241.38466)"
       clip-path="url(#clipPath83)" />
    <path
       id="path86"
       d="m 264.42,386.7 h 0.24 v 0.48 h -0.24 z"
       style="fill:#000000;fill-opacity:1;fill-rule:nonzero;stroke:none"
       transform="matrix(0.35277776,0,0,-0.35277776,16.639809,241.38466)"
       clip-path="url(#clipPath87)" />
    <path
       id="path88"
       d="m 241.38,386.7 h 23.04 v 0.48 h -23.04 z"
       style="fill:#000000;fill-opacity:1;fill-rule:nonzero;stroke:none"
       transform="matrix(0.35277776,0,0,-0.35277776,16.615835,242.42183)"
       clip-path="url(#clipPath89)" />
    <path
       id="path90"
       d="m 264,375.9 h 0.24 v 0.48 H 264 Z"
       style="fill:#000000;fill-opacity:1;fill-rule:nonzero;stroke:none"
       transform="matrix(0.35277776,0,0,-0.35277776,16.639809,241.38466)"
       clip-path="url(#clipPath91)" />
    <path
       id="path92"
       d="M 240.96,375.9 H 264 v 0.48 h -23.04 z"
       style="fill:#000000;fill-opacity:1;fill-rule:nonzero;stroke:none"
       transform="matrix(0.35277776,0,0,-0.35277776,16.764001,242.41125)"
       clip-path="url(#clipPath93)" />
    <path
       id="path94"
       d="m 264.18,365.04 h 0.24 v 0.48 h -0.24 z"
       style="fill:#000000;fill-opacity:1;fill-rule:nonzero;stroke:none"
       transform="matrix(0.35277776,0,0,-0.35277776,16.639809,241.38466)"
       clip-path="url(#clipPath95)" />
    <path
       id="path98"
       d="m 264.3,354.24 h 0.24 v 0.48 h -0.24 z"
       style="fill:#000000;fill-opacity:1;fill-rule:nonzero;stroke:none"
       transform="matrix(0.35277776,0,0,-0.35277776,16.639809,241.38466)"
       clip-path="url(#clipPath99)" />
    <path
       id="path100"
       d="m 241.26,354.24 h 23.04 v 0.48 h -23.04 z"
       style="fill:#000000;fill-opacity:1;fill-rule:nonzero;stroke:none"
       transform="matrix(0.35277776,0,0,-0.35277776,16.658168,242.70758)"
       clip-path="url(#clipPath101)" />
    <path
       id="path102"
       d="m 264.18,343.44 h 0.24 v 0.48 h -0.24 z"
       style="fill:#000000;fill-opacity:1;fill-rule:nonzero;stroke:none"
       transform="matrix(0.35277776,0,0,-0.35277776,16.639809,241.38466)"
       clip-path="url(#clipPath103)" />
    <path
       id="path104"
       d="m 241.14,343.44 h 23.04 v 0.48 h -23.04 z"
       style="fill:#000000;fill-opacity:1;fill-rule:nonzero;stroke:none"
       transform="matrix(0.35277776,0,0,-0.35277776,16.700501,242.86633)"
       clip-path="url(#clipPath105)" />
    <path
       id="path60-3"
       d="m 241.32,462.36 h 23.04 v 0.48 h -23.04 z"
       style="fill:#000000;fill-opacity:1;fill-rule:nonzero;stroke:none"
       transform="matrix(0.35277776,0,0,-0.35277776,56.3245,241.33174)"
       clip-path="url(#clipPath61-3)" />
    <path
       id="path64-4"
       d="m 240.9,451.56 h 23.04 v 0.48 H 240.9 Z"
       style="fill:#000000;fill-opacity:1;fill-rule:nonzero;stroke:none;stroke-width:1.00063;stroke-dasharray:none"
       transform="matrix(0.35277776,0,0,-0.35277776,56.567917,241.49049)"
       clip-path="url(#clipPath65-1)" />
    <path
       id="path68-1"
       d="M 240.96,440.7 H 264 v 0.48 h -23.04 z"
       style="fill:#000000;fill-opacity:1;fill-rule:nonzero;stroke:none"
       transform="matrix(0.35277776,0,0,-0.35277776,56.4515,241.62807)"
       clip-path="url(#clipPath69-0)" />
    <path
       id="path76-5"
       d="m 241.02,419.1 h 23.04 v 0.48 h -23.04 z"
       style="fill:#000000;fill-opacity:1;fill-rule:nonzero;stroke:none"
       transform="matrix(0.35277776,0,0,-0.35277776,56.430334,241.94558)"
       clip-path="url(#clipPath77-0)" />
    <path
       id="path80-0"
       d="m 241.02,408.3 h 23.04 v 0.48 h -23.04 z"
       style="fill:#000000;fill-opacity:1;fill-rule:nonzero;stroke:none"
       transform="matrix(0.35277776,0,0,-0.35277776,56.525583,242.10433)"
       clip-path="url(#clipPath81-3)" />
    <path
       id="path88-8"
       d="m 241.38,386.7 h 23.04 v 0.48 h -23.04 z"
       style="fill:#000000;fill-opacity:1;fill-rule:nonzero;stroke:none"
       transform="matrix(0.35277776,0,0,-0.35277776,56.303334,242.59116)"
       clip-path="url(#clipPath89-7)" />
    <path
       id="path92-3"
       d="M 240.96,375.9 H 264 v 0.48 h -23.04 z"
       style="fill:#000000;fill-opacity:1;fill-rule:nonzero;stroke:none"
       transform="matrix(0.35277776,0,0,-0.35277776,56.4515,242.58058)"
       clip-path="url(#clipPath93-0)" />
    <path
       id="path100-5"
       d="m 241.26,354.24 h 23.04 v 0.48 h -23.04 z"
       style="fill:#000000;fill-opacity:1;fill-rule:nonzero;stroke:none"
       transform="matrix(0.35277776,0,0,-0.35277776,56.345667,242.87691)"
       clip-path="url(#clipPath101-5)" />
    <path
       id="path104-6"
       d="m 241.14,343.44 h 23.04 v 0.48 h -23.04 z"
       style="fill:#000000;fill-opacity:1;fill-rule:nonzero;stroke:none"
       transform="matrix(0.35277776,0,0,-0.35277776,56.388,243.03566)"
       clip-path="url(#clipPath105-3)" />
    <path
       id="path106"
       d="m 264.24,332.64 h 0.24 v 0.48 h -0.24 z"
       style="fill:#000000;fill-opacity:1;fill-rule:nonzero;stroke:none"
       transform="matrix(0.35277776,0,0,-0.35277776,16.639809,241.38466)"
       clip-path="url(#clipPath107)" />
    <path
       id="path182"
       d="m -10.006758,-18.174609 v 0.175781 h -2.824219 v -0.175781 h 0.234375 c 0.272461,0 0.47168,-0.08203 0.597657,-0.246094 0.07617,-0.09961 0.117187,-0.351563 0.117187,-0.75 v -4.253906 c 0,-0.333985 -0.02344,-0.556641 -0.07031,-0.667969 -0.03223,-0.07617 -0.09961,-0.143555 -0.199219,-0.199219 -0.140625,-0.07617 -0.290039,-0.117187 -0.445313,-0.117187 h -0.234375 v -0.1875 h 2.824219 v 0.1875 h -0.234375 c -0.266601,0 -0.46289,0.0791 -0.585937,0.234375 -0.08789,0.102539 -0.128907,0.351562 -0.128907,0.75 v 4.253906 c 0,0.336914 0.02344,0.55957 0.07031,0.667969 0.0293,0.0791 0.09668,0.149414 0.199219,0.210937 0.140625,0.0791 0.287109,0.117188 0.445312,0.117188 z m 2.2646486,-6.058594 v 2.589844 h 1.1953125 c 0.28125,0 0.4833985,-0.05859 0.609375,-0.175782 0.1230469,-0.123047 0.2109375,-0.366211 0.2578125,-0.726562 h 0.1757813 v 2.226562 h -0.1757813 c -0.00879,-0.249023 -0.043945,-0.433593 -0.1054687,-0.550781 -0.064453,-0.123047 -0.1494141,-0.213867 -0.2578125,-0.269531 -0.1113281,-0.06152 -0.2783203,-0.09375 -0.5039063,-0.09375 h -1.1953125 v 2.0625 c 0,0.336914 0.017578,0.55957 0.058594,0.667969 0.029297,0.0791 0.099609,0.149414 0.2109375,0.210937 0.140625,0.0791 0.2871094,0.117188 0.4453125,0.117188 h 0.234375 v 0.175781 h -2.8242188 v -0.175781 h 0.234375 c 0.2636719,0 0.459961,-0.08203 0.5859375,-0.246094 0.076172,-0.09961 0.1171875,-0.351563 0.1171875,-0.75 v -4.253906 c 0,-0.333985 -0.020508,-0.556641 -0.058594,-0.667969 -0.032227,-0.07617 -0.099609,-0.143555 -0.1992188,-0.199219 -0.140625,-0.07617 -0.290039,-0.117187 -0.4453125,-0.117187 h -0.234375 v -0.1875 h 4.8984375 l 0.070312,1.453125 h -0.1757812 c -0.079102,-0.310547 -0.1757813,-0.539063 -0.2929688,-0.679688 -0.1113281,-0.140625 -0.2460937,-0.240234 -0.4101562,-0.304687 -0.1640625,-0.07031 -0.4189453,-0.105469 -0.7617188,-0.105469 z m 5.5810547,0 v 2.589844 h 1.19531251 c 0.28125,0 0.48339844,-0.05859 0.609375,-0.175782 0.12304688,-0.123047 0.2109375,-0.366211 0.2578125,-0.726562 h 0.17578125 v 2.226562 h -0.17578125 c -0.0087891,-0.249023 -0.04394531,-0.433593 -0.10546875,-0.550781 -0.0644531,-0.123047 -0.14941406,-0.213867 -0.2578125,-0.269531 -0.11132812,-0.06152 -0.27832031,-0.09375 -0.50390625,-0.09375 H -2.1610547 v 2.0625 c 0,0.336914 0.017578,0.55957 0.058594,0.667969 0.029297,0.0791 0.099609,0.149414 0.2109375,0.210937 0.140625,0.0791 0.2871093,0.117188 0.4453125,0.117188 h 0.234375 v 0.175781 h -2.8242188 v -0.175781 h 0.234375 c 0.2636719,0 0.459961,-0.08203 0.5859375,-0.246094 0.076172,-0.09961 0.1171875,-0.351563 0.1171875,-0.75 v -4.253906 c 0,-0.333985 -0.020508,-0.556641 -0.058594,-0.667969 -0.032227,-0.07617 -0.099609,-0.143555 -0.1992188,-0.199219 -0.140625,-0.07617 -0.290039,-0.117187 -0.4453125,-0.117187 h -0.234375 v -0.1875 h 4.89843751 l 0.0703125,1.453125 H 0.75691406 c -0.0791016,-0.310547 -0.17578125,-0.539063 -0.29296875,-0.679688 -0.11132812,-0.140625 -0.24609375,-0.240234 -0.41015625,-0.304687 -0.1640625,-0.07031 -0.41894531,-0.105469 -0.76171875,-0.105469 z m 9.3046875,-0.363281 0.070312,1.546875 h -0.1875 c -0.032227,-0.272461 -0.079102,-0.46875 -0.140625,-0.585938 -0.102539,-0.1875 -0.2402344,-0.322266 -0.4101562,-0.410156 -0.1640625,-0.09375 -0.3837891,-0.140625 -0.65625,-0.140625 H 4.8936328 v 5.039062 c 0,0.407227 0.041016,0.66211 0.1289063,0.761719 0.1230468,0.140625 0.3164062,0.210938 0.5742187,0.210938 h 0.2226563 v 0.175781 H 3.0303516 v -0.175781 h 0.234375 c 0.2724609,0 0.46875,-0.08496 0.5859375,-0.257813 0.070312,-0.09961 0.1054687,-0.339844 0.1054687,-0.714844 v -5.039062 H 3.1709766 c -0.3134766,0 -0.5332032,0.02344 -0.65625,0.07031 -0.1728516,0.06445 -0.3222657,0.184571 -0.4453125,0.363282 -0.1171875,0.172851 -0.1845703,0.407226 -0.1992188,0.703125 h -0.1875 l 0.070312,-1.546875 z"
       style="fill:#000000;fill-opacity:1;fill-rule:nonzero;stroke:none"
       aria-label=".&#10;IFFT"
       transform="matrix(0.42333331,0,0,0.42333331,127.07997,108.30607)"
       clip-path="url(#clipPath183)"
       sodipodi:nodetypes="ccccscssccsccccscssccscccscccccccscsccsccccscssccscccccccscccscccccccscsccsccccscssccscccccccsccccccscscsccccscscscccccc" />
    <path
       id="rect1"
       style="fill:none;fill-rule:evenodd;stroke:#000000;stroke-width:0.264583"
       d="m 109.80208,75.40625 h 31.75 v 48.94792 h -31.75 z" />
    <text
       xml:space="preserve"
       style="font-size:3.175px;line-height:0.95;font-family:'TexMaths Roman';-inkscape-font-specification:'TexMaths Roman, Normal';text-align:center;text-anchor:middle;fill:none;fill-rule:evenodd;stroke:#000000;stroke-width:0.264583;stroke-dasharray:none"
       x="112.70737"
       y="78.105003"
       id="text1"><tspan
         sodipodi:role="line"
         id="tspan1"
         style="stroke-width:0.264583"
         x="112.70737"
         y="78.105003" /></text>
    <text
       xml:space="preserve"
       style="font-style:normal;font-variant:normal;font-weight:normal;font-stretch:normal;font-size:3.175px;line-height:0.95;font-family:'TexMaths Symbols';-inkscape-font-specification:'TexMaths Symbols, Normal';font-variant-ligatures:normal;font-variant-caps:normal;font-variant-numeric:normal;font-variant-east-asian:normal;text-align:center;text-anchor:middle;fill:#000000;fill-rule:evenodd;stroke:none;stroke-width:0.264583;stroke-dasharray:none"
       x="112.44791"
       y="93.927086"
       id="text6"><tspan
         sodipodi:role="line"
         id="tspan6"
         style="stroke-width:0.264583"
         x="112.44791"
         y="93.927086" /></text>
    <text
       xml:space="preserve"
       style="font-style:normal;font-variant:normal;font-weight:normal;font-stretch:normal;font-size:3.175px;line-height:0.95;font-family:'TexMaths Symbols';-inkscape-font-specification:'TexMaths Symbols, Normal';font-variant-ligatures:normal;font-variant-caps:normal;font-variant-numeric:normal;font-variant-east-asian:normal;text-align:start;text-anchor:start;fill:#000000;fill-rule:evenodd;stroke:none;stroke-width:0.264583;stroke-dasharray:none"
       x="112.44791"
       y="79.375"
       id="text11"><tspan
         sodipodi:role="line"
         id="tspan11"
         style="stroke-width:0.264583"
         x="112.44791"
         y="79.375" /></text>
    <path
       d="m 112.58538,78.358008 q 0,0.465088 -0.11783,0.719336 -0.17053,0.368969 -0.5519,0.368969 -0.14263,0 -0.28836,-0.07441 -0.14262,-0.07441 -0.23564,-0.248046 -0.14263,-0.26355 -0.14263,-0.765845 0,-0.465088 0.11783,-0.719336 0.16743,-0.378272 0.5519,-0.378272 0.0589,0 0.12092,0.0155 0.0651,0.0124 0.14263,0.04961 0.0775,0.03411 0.14883,0.10852 0.0744,0.07441 0.12712,0.182935 0.12713,0.269751 0.12713,0.74104 z M 111.91565,79.375 q 0.12712,0 0.23254,-0.09302 0.10852,-0.09612 0.13953,-0.303857 0.0341,-0.204639 0.0341,-0.657324 0,-0.443384 -0.031,-0.620117 -0.0403,-0.20774 -0.15193,-0.288355 -0.11162,-0.08061 -0.22324,-0.08061 -0.0434,0 -0.0868,0.0124 -0.0434,0.0124 -0.10852,0.04961 -0.062,0.03411 -0.11162,0.124023 -0.0496,0.08682 -0.0713,0.220142 -0.0248,0.170532 -0.0248,0.58291 0,0.480591 0.0341,0.669726 0.0372,0.204639 0.14573,0.294556 0.10852,0.08992 0.22324,0.08992 z"
       id="text12"
       style="font-size:3.175px;line-height:0.95;font-family:'TexMaths Symbols';-inkscape-font-specification:'TexMaths Symbols, Normal';fill-rule:evenodd;stroke-width:0.264583"
       aria-label="0" />
    <path
       d="m 112.05828,81.312866 v 1.779737 q 0,0.09612 0.0465,0.124023 0.0465,0.0279 0.24804,0.0279 h 0.10232 v 0.09922 q -0.11162,-0.0093 -0.5147,-0.0093 -0.40307,0 -0.51469,0.0093 v -0.09922 h 0.10232 q 0.20153,0 0.24804,-0.0279 0.0465,-0.03101 0.0465,-0.124023 v -1.643311 q -0.15813,0.08061 -0.41548,0.08061 v -0.09612 q 0.38448,0 0.57981,-0.204639 0.0527,0 0.062,0.0124 0.009,0.0093 0.009,0.07131 z"
       id="text13"
       style="font-size:3.175px;line-height:0.95;font-family:'TexMaths Symbols';-inkscape-font-specification:'TexMaths Symbols, Normal';fill-rule:evenodd;stroke-width:0.264583"
       aria-label="1" />
    <path
       d="m 111.52808,87.067554 h 0.5705 q 0.28216,0 0.30386,-0.02481 0.031,-0.04341 0.0682,-0.282153 h 0.0806 l -0.0899,0.551904 h -1.17822 q 0,-0.05891 0.003,-0.07441 0.006,-0.0186 0.031,-0.04341 l 0.61081,-0.679029 q 0.33487,-0.378271 0.33487,-0.700732 0,-0.21084 -0.11163,-0.362769 -0.11162,-0.155029 -0.31626,-0.155029 -0.13952,0 -0.25734,0.08682 -0.11473,0.08371 -0.17054,0.235644 0.009,-0.0031 0.0403,-0.0031 0.0806,0 0.12402,0.04961 0.0465,0.04651 0.0465,0.114722 0,0.08682 -0.0558,0.130224 -0.0558,0.04031 -0.11162,0.04031 -0.009,0 -0.0217,0 -0.0124,-0.0031 -0.0403,-0.0124 -0.0279,-0.0093 -0.0496,-0.0248 -0.0217,-0.0186 -0.0403,-0.05581 -0.0155,-0.03721 -0.0155,-0.08682 0,-0.223242 0.16743,-0.396875 0.17053,-0.176734 0.42788,-0.176734 0.29146,0 0.48059,0.173633 0.19224,0.173633 0.19224,0.443384 0,0.117822 -0.031,0.21084 -0.031,0.09302 -0.13332,0.21394 -0.0992,0.117823 -0.19844,0.213941 -0.0992,0.09302 -0.32246,0.288354 z"
       id="text14"
       style="font-size:3.175px;line-height:0.95;font-family:'TexMaths Symbols';-inkscape-font-specification:'TexMaths Symbols, Normal';fill-rule:evenodd;stroke-width:0.264583"
       aria-label="2" />
    <path
       d="m 111.84434,95.005054 h 0.57051 q 0.28215,0 0.30385,-0.02481 0.031,-0.04341 0.0682,-0.282153 h 0.0806 L 112.77761,95.25 h -1.17822 q 0,-0.05891 0.003,-0.07441 0.006,-0.0186 0.031,-0.04341 l 0.61081,-0.679029 q 0.33487,-0.378271 0.33487,-0.700732 0,-0.21084 -0.11162,-0.362769 -0.11163,-0.155029 -0.31626,-0.155029 -0.13953,0 -0.25735,0.08682 -0.11472,0.08371 -0.17054,0.235644 0.009,-0.0031 0.0403,-0.0031 0.0806,0 0.12403,0.04961 0.0465,0.04651 0.0465,0.114722 0,0.08682 -0.0558,0.130224 -0.0558,0.04031 -0.11162,0.04031 -0.009,0 -0.0217,0 -0.0124,-0.0031 -0.0403,-0.0124 -0.0279,-0.0093 -0.0496,-0.0248 -0.0217,-0.0186 -0.0403,-0.05581 -0.0155,-0.03721 -0.0155,-0.08682 0,-0.223242 0.16743,-0.396875 0.17054,-0.176734 0.42788,-0.176734 0.29146,0 0.48059,0.173633 0.19224,0.173633 0.19224,0.443384 0,0.117822 -0.031,0.21084 -0.031,0.09302 -0.13332,0.21394 -0.0992,0.117823 -0.19844,0.213941 -0.0992,0.09302 -0.32246,0.288354 z m 1.603,-0.796851 q 0.12712,-0.313159 0.39688,-0.313159 0.26665,0 0.44958,0.204639 0.18604,0.201538 0.18604,0.502295 0,0.310058 -0.19224,0.514697 -0.19224,0.204638 -0.46199,0.204638 -0.12092,0 -0.22944,-0.05271 -0.10852,-0.04961 -0.21084,-0.164332 -0.10232,-0.114721 -0.16433,-0.334863 -0.0589,-0.223242 -0.0589,-0.523999 0,-0.499194 0.25424,-0.803052 0.25425,-0.306958 0.57981,-0.306958 0.18914,0 0.29456,0.09922 0.10852,0.09612 0.10852,0.244946 0,0.08062 -0.0465,0.117823 -0.0465,0.03411 -0.0992,0.03411 -0.0589,0 -0.10232,-0.03721 -0.0434,-0.03721 -0.0434,-0.10852 0,-0.142627 0.17363,-0.142627 -0.0837,-0.127124 -0.27905,-0.127124 -0.0589,0 -0.12093,0.0186 -0.062,0.0155 -0.14262,0.07441 -0.0806,0.05891 -0.14263,0.15503 -0.062,0.09302 -0.10542,0.26665 -0.0434,0.173633 -0.0434,0.403076 z m 0.37827,1.023193 q 0.20774,0 0.31316,-0.207739 0.0558,-0.120923 0.0558,-0.42478 0,-0.310059 -0.0589,-0.434082 -0.10232,-0.198438 -0.29456,-0.198438 -0.19533,0 -0.29145,0.173633 -0.0961,0.173633 -0.0961,0.393775 0,0.300756 0.0589,0.458886 0.009,0.02791 0.0279,0.05891 0.0217,0.031 0.0589,0.07751 0.0372,0.04341 0.0961,0.07441 0.0589,0.02791 0.13022,0.02791 z"
       id="text15"
       style="font-size:3.175px;line-height:0.95;font-family:'TexMaths Symbols';-inkscape-font-specification:'TexMaths Symbols, Normal';fill-rule:evenodd;stroke-width:0.264583"
       aria-label="26" />
    <text
       xml:space="preserve"
       style="font-style:normal;font-variant:normal;font-weight:normal;font-stretch:normal;font-size:3.175px;line-height:0.95;font-family:'TexMaths Symbols';-inkscape-font-specification:'TexMaths Symbols, Normal';font-variant-ligatures:normal;font-variant-caps:normal;font-variant-numeric:normal;font-variant-east-asian:normal;text-align:start;text-anchor:start;fill:#000000;fill-rule:evenodd;stroke:none;stroke-width:0.264583;stroke-dasharray:none"
       x="111.44126"
       y="99.237701"
       id="text16"><tspan
         sodipodi:role="line"
         id="tspan16"
         style="stroke-width:0.264583"
         x="111.44126"
         y="99.237701" /></text>
    <path
       d="m 111.84434,99.058673 h 0.57051 q 0.28215,0 0.30385,-0.02481 0.031,-0.04341 0.0682,-0.282153 h 0.0806 l -0.0899,0.551904 h -1.17822 q 0,-0.05891 0.003,-0.07441 0.006,-0.0186 0.031,-0.04341 l 0.61081,-0.679028 q 0.33487,-0.378272 0.33487,-0.700733 0,-0.210839 -0.11162,-0.362768 -0.11163,-0.155029 -0.31626,-0.155029 -0.13953,0 -0.25735,0.08682 -0.11472,0.08372 -0.17054,0.235644 0.009,-0.0031 0.0403,-0.0031 0.0806,0 0.12403,0.04961 0.0465,0.04651 0.0465,0.114722 0,0.08682 -0.0558,0.130225 -0.0558,0.04031 -0.11162,0.04031 -0.009,0 -0.0217,0 -0.0124,-0.0031 -0.0403,-0.0124 -0.0279,-0.0093 -0.0496,-0.02481 -0.0217,-0.0186 -0.0403,-0.05581 -0.0155,-0.03721 -0.0155,-0.08682 0,-0.223242 0.16743,-0.396875 0.17054,-0.176733 0.42788,-0.176733 0.29146,0 0.48059,0.173633 0.19224,0.173632 0.19224,0.443383 0,0.117823 -0.031,0.21084 -0.031,0.09302 -0.13332,0.213941 -0.0992,0.117822 -0.19844,0.21394 -0.0992,0.09302 -0.32246,0.288355 z m 2.69441,-1.689819 -0.42788,0.604614 q -0.13643,0.192236 -0.19534,0.542603 -0.0372,0.257348 -0.0372,0.520898 v 0.16123 q 0,0.176734 -0.14573,0.176734 -0.14572,0 -0.14572,-0.176734 0,-0.26665 0.093,-0.579809 0.0961,-0.313159 0.29766,-0.613916 0.0403,-0.06201 0.19224,-0.275952 0.15503,-0.213941 0.16433,-0.226343 h -0.65733 q -0.28525,0 -0.31005,0.0217 -0.031,0.03101 -0.0806,0.288355 h -0.0806 l 0.10542,-0.654224 h 0.0806 q 0.009,0.03721 0.0248,0.05581 0.0155,0.0155 0.10542,0.03101 0.093,0.0155 0.27596,0.0155 h 0.77204 q 0,0.06821 -0.031,0.108521 z"
       id="text17"
       style="font-size:3.175px;line-height:0.95;font-family:'TexMaths Symbols';-inkscape-font-specification:'TexMaths Symbols, Normal';fill-rule:evenodd;stroke-width:0.264583"
       aria-label="27" />
    <path
       d="m 112.04587,106.04004 q 0.24185,0.0496 0.38448,0.21084 0.14572,0.16123 0.14572,0.36277 0,0.24804 -0.19533,0.43098 -0.19534,0.18293 -0.48059,0.18293 -0.26355,0 -0.45269,-0.14262 -0.18913,-0.14263 -0.18913,-0.35657 0,-0.0961 0.0527,-0.13953 0.0558,-0.0465 0.12402,-0.0465 0.0744,0 0.12712,0.0496 0.0527,0.0465 0.0527,0.13023 0,0.0868 -0.062,0.13642 -0.0496,0.0403 -0.11472,0.0403 -0.0186,0 -0.0341,-0.003 0.0744,0.12402 0.21704,0.18294 0.14263,0.0589 0.26975,0.0589 0.13643,0 0.24495,-0.11783 0.11162,-0.11782 0.11162,-0.40617 0,-0.24185 -0.093,-0.38448 -0.093,-0.14262 -0.28215,-0.14262 h -0.13953 q -0.0465,0 -0.062,-0.003 -0.0155,-0.006 -0.0155,-0.031 0,-0.0341 0.0465,-0.0403 0.0496,0 0.12402,-0.009 0.18294,-0.006 0.28216,-0.16433 0.0899,-0.14883 0.0899,-0.36277 0,-0.19223 -0.093,-0.27285 -0.0899,-0.0806 -0.21084,-0.0806 -0.11163,0 -0.23565,0.0465 -0.12092,0.0434 -0.18603,0.14883 0.19533,0 0.19533,0.15813 0,0.0713 -0.0434,0.11782 -0.0434,0.0465 -0.11782,0.0465 -0.0713,0 -0.11782,-0.0434 -0.0434,-0.0465 -0.0434,-0.12403 0,-0.18293 0.16123,-0.30696 0.16123,-0.12402 0.39998,-0.12402 0.23564,0 0.40927,0.12402 0.17364,0.12403 0.17364,0.31316 0,0.18604 -0.12403,0.34107 -0.12092,0.15503 -0.31936,0.22014 z m 2.17662,-0.81856 -0.42789,0.60462 q -0.13642,0.19223 -0.19533,0.5426 -0.0372,0.25735 -0.0372,0.5209 v 0.16123 q 0,0.17673 -0.14573,0.17673 -0.14572,0 -0.14572,-0.17673 0,-0.26665 0.093,-0.57981 0.0961,-0.31316 0.29766,-0.61392 0.0403,-0.062 0.19224,-0.27595 0.15502,-0.21394 0.16433,-0.22634 h -0.65733 q -0.28525,0 -0.31006,0.0217 -0.031,0.031 -0.0806,0.28836 h -0.0806 l 0.10542,-0.65423 h 0.0806 q 0.009,0.0372 0.0248,0.0558 0.0155,0.0155 0.10542,0.031 0.093,0.0155 0.27596,0.0155 h 0.77204 q 0,0.0682 -0.031,0.10852 z"
       id="text18"
       style="font-size:3.175px;line-height:0.95;font-family:'TexMaths Symbols';-inkscape-font-specification:'TexMaths Symbols, Normal';fill-rule:evenodd;stroke-width:0.264583"
       aria-label="37" />
    <path
       d="m 112.04587,110.00879 q 0.24185,0.0496 0.38448,0.21084 0.14572,0.16123 0.14572,0.36277 0,0.24804 -0.19533,0.43098 -0.19534,0.18293 -0.48059,0.18293 -0.26355,0 -0.45269,-0.14262 -0.18913,-0.14263 -0.18913,-0.35657 0,-0.0961 0.0527,-0.13953 0.0558,-0.0465 0.12402,-0.0465 0.0744,0 0.12712,0.0496 0.0527,0.0465 0.0527,0.13023 0,0.0868 -0.062,0.13642 -0.0496,0.0403 -0.11472,0.0403 -0.0186,0 -0.0341,-0.003 0.0744,0.12402 0.21704,0.18294 0.14263,0.0589 0.26975,0.0589 0.13643,0 0.24495,-0.11783 0.11162,-0.11782 0.11162,-0.40617 0,-0.24185 -0.093,-0.38448 -0.093,-0.14262 -0.28215,-0.14262 h -0.13953 q -0.0465,0 -0.062,-0.003 -0.0155,-0.006 -0.0155,-0.031 0,-0.0341 0.0465,-0.0403 0.0496,0 0.12402,-0.009 0.18294,-0.006 0.28216,-0.16433 0.0899,-0.14883 0.0899,-0.36277 0,-0.19223 -0.093,-0.27285 -0.0899,-0.0806 -0.21084,-0.0806 -0.11163,0 -0.23565,0.0465 -0.12092,0.0434 -0.18603,0.14883 0.19533,0 0.19533,0.15813 0,0.0713 -0.0434,0.11782 -0.0434,0.0465 -0.11782,0.0465 -0.0713,0 -0.11782,-0.0434 -0.0434,-0.0465 -0.0434,-0.12403 0,-0.18293 0.16123,-0.30696 0.16123,-0.12402 0.39998,-0.12402 0.23564,0 0.40927,0.12402 0.17364,0.12403 0.17364,0.31316 0,0.18604 -0.12403,0.34107 -0.12092,0.15503 -0.31936,0.22014 z m 1.18443,-0.33486 0.39377,0.25424 q 0.31316,-0.18603 0.31316,-0.44338 0,-0.16743 -0.13022,-0.27905 -0.12713,-0.11472 -0.30386,-0.11472 -0.17363,0 -0.30386,0.093 -0.12712,0.093 -0.12712,0.23255 0,0.15193 0.15813,0.25735 z m 0.46199,0.30075 q 0.12712,0.0806 0.16433,0.10542 0.0403,0.0248 0.0806,0.0558 0.0434,0.031 0.0713,0.0651 0.15503,0.17053 0.15503,0.39067 0,0.25425 -0.19533,0.43098 -0.19224,0.17363 -0.46509,0.17363 -0.26355,0 -0.46199,-0.15193 -0.19533,-0.15502 -0.19533,-0.39997 0,-0.35037 0.45578,-0.58291 -0.18293,-0.11782 -0.22944,-0.17053 -0.13953,-0.15503 -0.13953,-0.35037 0,-0.22014 0.16743,-0.37517 0.16743,-0.15503 0.40618,-0.15503 0.22634,0 0.39687,0.13333 0.17364,0.13022 0.17364,0.34106 0,0.29146 -0.38447,0.48989 z m -0.31626,0.13333 q -0.37207,0.20464 -0.37207,0.5364 0,0.19534 0.14572,0.32866 0.14883,0.13333 0.35657,0.13333 0.20154,0 0.35037,-0.11162 0.14882,-0.11473 0.14882,-0.28836 0,-0.0868 -0.0465,-0.16433 -0.0465,-0.0775 -0.0868,-0.10852 -0.0403,-0.0341 -0.10542,-0.0775 z"
       id="text19"
       style="font-size:3.175px;line-height:0.95;font-family:'TexMaths Symbols';-inkscape-font-specification:'TexMaths Symbols, Normal';fill-rule:evenodd;stroke-width:0.264583"
       aria-label="38" />
    <path
       d="m 111.54358,118.0207 q 0.12712,-0.31316 0.39687,-0.31316 0.26665,0 0.44959,0.20464 0.18603,0.20154 0.18603,0.5023 0,0.31006 -0.19223,0.51469 -0.19224,0.20464 -0.46199,0.20464 -0.12092,0 -0.22944,-0.0527 -0.10852,-0.0496 -0.21084,-0.16433 -0.10232,-0.11472 -0.16433,-0.33486 -0.0589,-0.22324 -0.0589,-0.524 0,-0.49919 0.25424,-0.80305 0.25425,-0.30696 0.57981,-0.30696 0.18914,0 0.29456,0.0992 0.10852,0.0961 0.10852,0.24495 0,0.0806 -0.0465,0.11782 -0.0465,0.0341 -0.0992,0.0341 -0.0589,0 -0.10232,-0.0372 -0.0434,-0.0372 -0.0434,-0.10852 0,-0.14263 0.17364,-0.14263 -0.0837,-0.12712 -0.27906,-0.12712 -0.0589,0 -0.12092,0.0186 -0.062,0.0155 -0.14263,0.0744 -0.0806,0.0589 -0.14262,0.15503 -0.062,0.093 -0.10542,0.26665 -0.0434,0.17364 -0.0434,0.40308 z m 0.37827,1.0232 q 0.20774,0 0.31316,-0.20774 0.0558,-0.12093 0.0558,-0.42478 0,-0.31006 -0.0589,-0.43409 -0.10232,-0.19843 -0.29456,-0.19843 -0.19533,0 -0.29145,0.17363 -0.0961,0.17363 -0.0961,0.39377 0,0.30076 0.0589,0.45889 0.009,0.0279 0.0279,0.0589 0.0217,0.031 0.0589,0.0775 0.0372,0.0434 0.0961,0.0744 0.0589,0.0279 0.13022,0.0279 z m 1.19373,-0.22635 h 0.5705 q 0.28216,0 0.30386,-0.0248 0.031,-0.0434 0.0682,-0.28215 h 0.0806 l -0.0899,0.5519 h -1.17822 q 0,-0.0589 0.003,-0.0744 0.006,-0.0186 0.031,-0.0434 l 0.61081,-0.67903 q 0.33486,-0.37827 0.33486,-0.70073 0,-0.21084 -0.11162,-0.36277 -0.11162,-0.15503 -0.31626,-0.15503 -0.13952,0 -0.25734,0.0868 -0.11473,0.0837 -0.17054,0.23564 0.009,-0.003 0.0403,-0.003 0.0806,0 0.12402,0.0496 0.0465,0.0465 0.0465,0.11472 0,0.0868 -0.0558,0.13023 -0.0558,0.0403 -0.11162,0.0403 -0.009,0 -0.0217,0 -0.0124,-0.003 -0.0403,-0.0124 -0.0279,-0.009 -0.0496,-0.0248 -0.0217,-0.0186 -0.0403,-0.0558 -0.0155,-0.0372 -0.0155,-0.0868 0,-0.22324 0.16743,-0.39688 0.17053,-0.17673 0.42788,-0.17673 0.29146,0 0.48059,0.17363 0.19224,0.17364 0.19224,0.44339 0,0.11782 -0.031,0.21084 -0.031,0.093 -0.13332,0.21394 -0.0992,0.11782 -0.19844,0.21394 -0.0992,0.093 -0.32246,0.28835 z"
       id="text20"
       style="font-size:3.175px;line-height:0.95;font-family:'TexMaths Symbols';-inkscape-font-specification:'TexMaths Symbols, Normal';fill-rule:evenodd;stroke-width:0.264583"
       aria-label="62" />
    <path
       d="m 111.54358,121.98945 q 0.12712,-0.31316 0.39687,-0.31316 0.26665,0 0.44959,0.20464 0.18603,0.20154 0.18603,0.5023 0,0.31006 -0.19223,0.51469 -0.19224,0.20464 -0.46199,0.20464 -0.12092,0 -0.22944,-0.0527 -0.10852,-0.0496 -0.21084,-0.16433 -0.10232,-0.11472 -0.16433,-0.33486 -0.0589,-0.22324 -0.0589,-0.524 0,-0.49919 0.25424,-0.80305 0.25425,-0.30696 0.57981,-0.30696 0.18914,0 0.29456,0.0992 0.10852,0.0961 0.10852,0.24495 0,0.0806 -0.0465,0.11782 -0.0465,0.0341 -0.0992,0.0341 -0.0589,0 -0.10232,-0.0372 -0.0434,-0.0372 -0.0434,-0.10852 0,-0.14263 0.17364,-0.14263 -0.0837,-0.12712 -0.27906,-0.12712 -0.0589,0 -0.12092,0.0186 -0.062,0.0155 -0.14263,0.0744 -0.0806,0.0589 -0.14262,0.15503 -0.062,0.093 -0.10542,0.26665 -0.0434,0.17364 -0.0434,0.40308 z m 0.37827,1.0232 q 0.20774,0 0.31316,-0.20774 0.0558,-0.12093 0.0558,-0.42478 0,-0.31006 -0.0589,-0.43409 -0.10232,-0.19843 -0.29456,-0.19843 -0.19533,0 -0.29145,0.17363 -0.0961,0.17363 -0.0961,0.39377 0,0.30076 0.0589,0.45889 0.009,0.0279 0.0279,0.0589 0.0217,0.031 0.0589,0.0775 0.0372,0.0434 0.0961,0.0744 0.0589,0.0279 0.13022,0.0279 z m 1.71152,-1.09761 q 0.24185,0.0496 0.38448,0.21084 0.14572,0.16123 0.14572,0.36277 0,0.24804 -0.19533,0.43098 -0.19534,0.18293 -0.48059,0.18293 -0.26355,0 -0.45269,-0.14262 -0.18913,-0.14263 -0.18913,-0.35657 0,-0.0961 0.0527,-0.13953 0.0558,-0.0465 0.12402,-0.0465 0.0744,0 0.12712,0.0496 0.0527,0.0465 0.0527,0.13023 0,0.0868 -0.062,0.13642 -0.0496,0.0403 -0.11472,0.0403 -0.0186,0 -0.0341,-0.003 0.0744,0.12402 0.21704,0.18294 0.14263,0.0589 0.26975,0.0589 0.13643,0 0.24495,-0.11783 0.11162,-0.11782 0.11162,-0.40617 0,-0.24185 -0.093,-0.38448 -0.093,-0.14262 -0.28215,-0.14262 h -0.13953 q -0.0465,0 -0.062,-0.003 -0.0155,-0.006 -0.0155,-0.031 0,-0.0341 0.0465,-0.0403 0.0496,0 0.12402,-0.009 0.18294,-0.006 0.28216,-0.16433 0.0899,-0.14883 0.0899,-0.36277 0,-0.19223 -0.093,-0.27285 -0.0899,-0.0806 -0.21084,-0.0806 -0.11163,0 -0.23565,0.0465 -0.12092,0.0434 -0.18603,0.14883 0.19533,0 0.19533,0.15813 0,0.0713 -0.0434,0.11782 -0.0434,0.0465 -0.11782,0.0465 -0.0713,0 -0.11782,-0.0434 -0.0434,-0.0465 -0.0434,-0.12403 0,-0.18293 0.16123,-0.30696 0.16123,-0.12402 0.39998,-0.12402 0.23564,0 0.40927,0.12402 0.17364,0.12403 0.17364,0.31316 0,0.18604 -0.12403,0.34107 -0.12092,0.15503 -0.31936,0.22014 z"
       id="text21"
       style="font-size:3.175px;line-height:0.95;font-family:'TexMaths Symbols';-inkscape-font-specification:'TexMaths Symbols, Normal';fill-rule:evenodd;stroke-width:0.264583"
       aria-label="63" />
    <text
       xml:space="preserve"
       style="font-style:normal;font-variant:normal;font-weight:normal;font-stretch:normal;font-size:3.175px;line-height:0.95;font-family:'TexMaths Roman';-inkscape-font-specification:'TexMaths Roman, Normal';font-variant-ligatures:normal;font-variant-caps:normal;font-variant-numeric:normal;font-variant-east-asian:normal;text-align:center;text-anchor:middle;fill:#000000;fill-rule:evenodd;stroke:none;stroke-width:0.264583;stroke-dasharray:none"
       x="99.21875"
       y="99.21875"
       id="text23"><tspan
         sodipodi:role="line"
         id="tspan23"
         style="stroke-width:0.264583"
         x="99.21875"
         y="99.21875" /></text>
    <path
       d="m 95.385997,77.31931 1.119312,1.646411 v -1.354956 q 0,-0.03721 -0.0031,-0.05891 0,-0.0217 -0.0186,-0.05891 -0.0155,-0.04031 -0.04961,-0.06201 -0.03101,-0.0217 -0.09612,-0.03721 -0.06511,-0.0186 -0.15813,-0.0186 v -0.09612 q 0.334863,0.0093 0.36897,0.0093 0.03721,0 0.37207,-0.0093 v 0.09612 q -0.09302,0 -0.15813,0.0186 -0.06511,0.0155 -0.09922,0.03721 -0.031,0.0217 -0.04961,0.06201 -0.0155,0.03721 -0.0186,0.05891 0,0.0217 0,0.05891 v 1.751831 q 0,0.04961 -0.0093,0.06821 -0.0062,0.0155 -0.03721,0.0155 -0.0217,0 -0.05271,-0.04031 l -1.296045,-1.90686 q -0.0124,-0.0186 -0.03101,-0.03721 v 1.649512 q 0,0.03721 0,0.05891 0.0031,0.0217 0.0186,0.06201 0.0186,0.03721 0.04961,0.05891 0.03411,0.0217 0.09922,0.04031 0.06511,0.0155 0.15813,0.0155 v 0.09922 q -0.334864,-0.0093 -0.36897,-0.0093 -0.03721,0 -0.37207,0.0093 v -0.09922 q 0.09302,0 0.158129,-0.0155 0.06511,-0.0186 0.09612,-0.04031 0.03411,-0.0217 0.04961,-0.05891 0.0186,-0.04031 0.0186,-0.06201 0.0031,-0.0217 0.0031,-0.05891 v -1.655713 q 0,-0.04651 -0.0124,-0.05581 -0.0093,-0.0124 -0.06201,-0.0186 -0.09302,-0.0062 -0.16123,-0.0062 h -0.08992 v -0.09612 h 0.539502 q 0.04341,0 0.05581,0.0062 0.0155,0.0062 0.03721,0.03411 z m 2.883545,1.875854 q -0.136426,0.285254 -0.409277,0.285254 -0.139527,0 -0.235645,-0.03411 -0.09612,-0.03721 -0.142627,-0.08062 -0.04651,-0.04341 -0.07131,-0.127124 -0.02481,-0.08682 -0.02791,-0.139527 -0.0031,-0.05271 -0.0031,-0.155029 v -0.47439 q 0,-0.21394 -0.03411,-0.254248 -0.03101,-0.04031 -0.21394,-0.04031 v -0.09612 l 0.465088,-0.03721 v 1.054199 q 0,0.07441 0.0062,0.120923 0.0062,0.04651 0.03101,0.09922 0.02791,0.04961 0.08682,0.07441 0.05891,0.0217 0.155029,0.0217 0.170533,0 0.275953,-0.139527 0.10852,-0.142627 0.10852,-0.353467 v -0.564306 q 0,-0.117823 -0.04341,-0.148828 -0.04031,-0.03101 -0.204639,-0.03101 v -0.09612 l 0.468189,-0.03721 v 1.128613 q 0,0.117822 0.04031,0.148828 0.04031,0.02791 0.20774,0.02791 v 0.09922 l -0.458887,0.03411 z m 1.082104,-1.953369 v 1.962671 q 0,0.10232 0.03721,0.124024 0.04031,0.0186 0.21084,0.0186 v 0.09922 q -0.04031,0 -0.120923,-0.0031 -0.07751,-0.0031 -0.136425,-0.0031 -0.05891,-0.0031 -0.09612,-0.0031 -0.03411,0 -0.350366,0.0093 v -0.09922 q 0.167432,0 0.207739,-0.0186 0.04031,-0.0217 0.04031,-0.124024 v -1.649511 q 0,-0.117823 -0.04341,-0.148829 -0.04031,-0.03101 -0.204639,-0.03101 v -0.09612 z m 0.877464,0 v 1.962671 q 0,0.10232 0.0372,0.124024 0.0403,0.0186 0.21084,0.0186 v 0.09922 q -0.0403,0 -0.12092,-0.0031 -0.0775,-0.0031 -0.13643,-0.0031 -0.0589,-0.0031 -0.0961,-0.0031 -0.0341,0 -0.350364,0.0093 v -0.09922 q 0.167432,0 0.207739,-0.0186 0.04031,-0.0217 0.04031,-0.124024 v -1.649511 q 0,-0.117823 -0.04341,-0.148829 -0.04031,-0.03101 -0.204639,-0.03101 v -0.09612 z"
       id="text33"
       style="font-size:3.175px;line-height:0.95;font-family:'TexMaths Roman';-inkscape-font-specification:'TexMaths Roman, Normal';text-align:end;text-anchor:end;fill-rule:evenodd;stroke-width:0.264583"
       aria-label="Null" />
    <path
       d="m 99.887433,81.312866 v 1.779737 q 0,0.09612 0.04651,0.124023 0.04651,0.0279 0.248047,0.0279 h 0.10232 v 0.09922 q -0.11162,-0.0093 -0.514698,-0.0093 -0.403077,0 -0.514698,0.0093 v -0.09922 h 0.10232 q 0.201538,0 0.248047,-0.0279 0.04651,-0.03101 0.04651,-0.124023 v -1.643311 q -0.15813,0.08061 -0.415478,0.08061 v -0.09612 q 0.384472,0 0.579809,-0.204639 0.05271,0 0.06201,0.0124 0.0093,0.0093 0.0093,0.07131 z"
       id="text34"
       style="font-size:3.175px;line-height:0.95;font-family:'TexMaths Roman';-inkscape-font-specification:'TexMaths Roman, Normal';text-align:end;text-anchor:end;fill-rule:evenodd;stroke-width:0.264583"
       aria-label="1" />
    <path
       d="m 99.357233,87.067554 h 0.570507 q 0.28215,0 0.30386,-0.02481 0.031,-0.04341 0.0682,-0.282153 h 0.0806 l -0.0899,0.551904 h -1.178224 q 0,-0.05891 0.0031,-0.07441 0.0062,-0.0186 0.03101,-0.04341 l 0.610815,-0.679029 q 0.334859,-0.378271 0.334859,-0.700732 0,-0.21084 -0.111617,-0.362769 -0.111621,-0.155029 -0.316259,-0.155029 -0.139527,0 -0.257349,0.08682 -0.114722,0.08371 -0.170532,0.235644 0.0093,-0.0031 0.04031,-0.0031 0.08062,0 0.124024,0.04961 0.04651,0.04651 0.04651,0.114722 0,0.08682 -0.05581,0.130224 -0.05581,0.04031 -0.111621,0.04031 -0.0093,0 -0.0217,0 -0.0124,-0.0031 -0.04031,-0.0124 -0.02791,-0.0093 -0.04961,-0.0248 -0.0217,-0.0186 -0.04031,-0.05581 -0.0155,-0.03721 -0.0155,-0.08682 0,-0.223242 0.167432,-0.396875 0.170532,-0.176734 0.427881,-0.176734 0.291455,0 0.480591,0.173633 0.19224,0.173633 0.19224,0.443384 0,0.117822 -0.031,0.21084 -0.031,0.09302 -0.13333,0.21394 -0.0992,0.117823 -0.19843,0.213941 -0.09922,0.09302 -0.322463,0.288354 z"
       id="text35"
       style="font-size:3.175px;line-height:0.95;font-family:'TexMaths Roman';-inkscape-font-specification:'TexMaths Roman, Normal';text-align:end;text-anchor:end;fill-rule:evenodd;stroke-width:0.264583"
       aria-label="2" />
    <path
       d="m 97.769733,95.005054 h 0.570508 q 0.282153,0 0.303857,-0.02481 0.03101,-0.04341 0.06821,-0.282153 h 0.08061 L 98.703009,95.25 h -1.178223 q 0,-0.05891 0.0031,-0.07441 0.0062,-0.0186 0.03101,-0.04341 l 0.610815,-0.679029 q 0.334864,-0.378271 0.334864,-0.700732 0,-0.21084 -0.111622,-0.362769 -0.111621,-0.155029 -0.316259,-0.155029 -0.139527,0 -0.257349,0.08682 -0.114722,0.08371 -0.170532,0.235644 0.0093,-0.0031 0.04031,-0.0031 0.08062,0 0.124024,0.04961 0.04651,0.04651 0.04651,0.114722 0,0.08682 -0.05581,0.130224 -0.05581,0.04031 -0.111621,0.04031 -0.0093,0 -0.0217,0 -0.0124,-0.0031 -0.04031,-0.0124 -0.02791,-0.0093 -0.04961,-0.0248 -0.0217,-0.0186 -0.04031,-0.05581 -0.0155,-0.03721 -0.0155,-0.08682 0,-0.223242 0.167432,-0.396875 0.170532,-0.176734 0.427881,-0.176734 0.291455,0 0.480591,0.173633 0.192236,0.173633 0.192236,0.443384 0,0.117822 -0.03101,0.21084 -0.03101,0.09302 -0.133325,0.21394 -0.09922,0.117823 -0.198437,0.213941 -0.09922,0.09302 -0.322461,0.288354 z m 1.603003,-0.796851 q 0.127124,-0.313159 0.396875,-0.313159 0.266649,0 0.449589,0.204639 0.18603,0.201538 0.18603,0.502295 0,0.310058 -0.19224,0.514697 -0.19223,0.204638 -0.461983,0.204638 -0.120923,0 -0.229443,-0.05271 -0.108521,-0.04961 -0.21084,-0.164332 -0.102319,-0.114721 -0.164331,-0.334863 -0.05891,-0.223242 -0.05891,-0.523999 0,-0.499194 0.254248,-0.803052 0.254248,-0.306958 0.579809,-0.306958 0.18914,0 0.29455,0.09922 0.10853,0.09612 0.10853,0.244946 0,0.08062 -0.0465,0.117823 -0.0465,0.03411 -0.0992,0.03411 -0.0589,0 -0.10232,-0.03721 -0.0434,-0.03721 -0.0434,-0.10852 0,-0.142627 0.17363,-0.142627 -0.0837,-0.127124 -0.279049,-0.127124 -0.05891,0 -0.120922,0.0186 -0.06201,0.0155 -0.142627,0.07441 -0.08062,0.05891 -0.142627,0.15503 -0.06201,0.09302 -0.10542,0.26665 -0.04341,0.173633 -0.04341,0.403076 z m 0.378271,1.023193 q 0.207739,0 0.313163,-0.207739 0.0558,-0.120923 0.0558,-0.42478 0,-0.310059 -0.0589,-0.434082 -0.102324,-0.198438 -0.29456,-0.198438 -0.195337,0 -0.291455,0.173633 -0.09612,0.173633 -0.09612,0.393775 0,0.300756 0.05891,0.458886 0.0093,0.02791 0.02791,0.05891 0.0217,0.031 0.05891,0.07751 0.03721,0.04341 0.09612,0.07441 0.05891,0.02791 0.130225,0.02791 z"
       id="text36"
       style="font-size:3.175px;line-height:0.95;font-family:'TexMaths Roman';-inkscape-font-specification:'TexMaths Roman, Normal';text-align:end;text-anchor:end;fill-rule:evenodd;stroke-width:0.264583"
       aria-label="26" />
    <path
       d="m 95.245868,96.747701 1.119312,1.646411 v -1.354956 q 0,-0.03721 -0.0031,-0.05891 0,-0.0217 -0.0186,-0.05891 -0.0155,-0.04031 -0.04961,-0.06201 -0.03101,-0.0217 -0.09612,-0.03721 -0.06511,-0.0186 -0.15813,-0.0186 v -0.09612 q 0.334863,0.0093 0.36897,0.0093 0.03721,0 0.37207,-0.0093 v 0.09612 q -0.09302,0 -0.15813,0.0186 -0.06511,0.0155 -0.09922,0.03721 -0.031,0.0217 -0.04961,0.06201 -0.0155,0.03721 -0.0186,0.05891 0,0.0217 0,0.05891 v 1.751831 q 0,0.04961 -0.0093,0.06821 -0.0062,0.0155 -0.03721,0.0155 -0.0217,0 -0.05271,-0.04031 l -1.296045,-1.90686 q -0.0124,-0.0186 -0.03101,-0.03721 v 1.649512 q 0,0.03721 0,0.05891 0.0031,0.0217 0.0186,0.06201 0.0186,0.03721 0.04961,0.05891 0.03411,0.0217 0.09922,0.04031 0.06511,0.0155 0.15813,0.0155 v 0.09922 q -0.334864,-0.0093 -0.36897,-0.0093 -0.03721,0 -0.372071,0.0093 v -0.09922 q 0.09302,0 0.15813,-0.0155 0.06511,-0.0186 0.09612,-0.04031 0.03411,-0.0217 0.04961,-0.05891 0.0186,-0.04031 0.0186,-0.06201 0.0031,-0.0217 0.0031,-0.05891 v -1.655713 q 0,-0.04651 -0.0124,-0.05581 -0.0093,-0.0124 -0.06201,-0.0186 -0.09302,-0.0062 -0.161231,-0.0062 h -0.08992 v -0.09612 h 0.539502 q 0.04341,0 0.05581,0.0062 0.0155,0.0062 0.03721,0.03411 z m 2.883545,1.875854 q -0.136426,0.285254 -0.409278,0.285254 -0.139526,0 -0.235644,-0.03411 -0.09612,-0.03721 -0.142627,-0.08061 -0.04651,-0.04341 -0.07131,-0.127124 -0.02481,-0.08682 -0.02791,-0.139526 -0.0031,-0.05271 -0.0031,-0.155029 v -0.47439 q 0,-0.213941 -0.03411,-0.254248 -0.03101,-0.04031 -0.21394,-0.04031 v -0.09612 l 0.465088,-0.03721 v 1.054199 q 0,0.07441 0.0062,0.120923 0.0062,0.04651 0.03101,0.09922 0.02791,0.04961 0.08682,0.07441 0.05891,0.0217 0.155029,0.0217 0.170533,0 0.275953,-0.139526 0.10852,-0.142627 0.10852,-0.353467 v -0.564307 q 0,-0.117822 -0.04341,-0.148828 -0.04031,-0.03101 -0.204639,-0.03101 v -0.09612 l 0.468189,-0.03721 v 1.128613 q 0,0.117823 0.04031,0.148828 0.04031,0.02791 0.20774,0.02791 v 0.09922 l -0.458887,0.03411 z m 1.082104,-1.953369 v 1.962671 q 0,0.102319 0.03721,0.124023 0.04031,0.0186 0.21084,0.0186 v 0.09922 q -0.04031,0 -0.120923,-0.0031 -0.07751,-0.0031 -0.136426,-0.0031 -0.05891,-0.0031 -0.09612,-0.0031 -0.03411,0 -0.350366,0.0093 v -0.09922 q 0.167432,0 0.207739,-0.0186 0.04031,-0.0217 0.04031,-0.124023 v -1.649512 q 0,-0.117822 -0.04341,-0.148828 -0.04031,-0.03101 -0.204639,-0.03101 v -0.09612 z m 0.877463,0 v 1.962671 q 0,0.102319 0.0372,0.124023 0.0403,0.0186 0.21084,0.0186 v 0.09922 q -0.0403,0 -0.12092,-0.0031 -0.0775,-0.0031 -0.13643,-0.0031 -0.0589,-0.0031 -0.09612,-0.0031 -0.03411,0 -0.350366,0.0093 v -0.09922 q 0.167431,0 0.207739,-0.0186 0.04031,-0.0217 0.04031,-0.124023 v -1.649512 q 0,-0.117822 -0.04341,-0.148828 -0.04031,-0.03101 -0.204638,-0.03101 v -0.09612 z"
       id="text37"
       style="font-size:3.175px;line-height:0.95;font-family:'TexMaths Roman';-inkscape-font-specification:'TexMaths Roman, Normal';text-align:end;text-anchor:end;fill-rule:evenodd;stroke-width:0.264583"
       aria-label="Null" />
    <path
       d="m 95.382282,105.02925 1.119311,1.64641 v -1.35496 q 0,-0.0372 -0.0031,-0.0589 0,-0.0217 -0.0186,-0.0589 -0.0155,-0.0403 -0.04961,-0.062 -0.03101,-0.0217 -0.09612,-0.0372 -0.06511,-0.0186 -0.158129,-0.0186 v -0.0961 q 0.334863,0.009 0.368969,0.009 0.03721,0 0.372071,-0.009 v 0.0961 q -0.09302,0 -0.15813,0.0186 -0.06511,0.0155 -0.09922,0.0372 -0.03101,0.0217 -0.04961,0.062 -0.0155,0.0372 -0.0186,0.0589 0,0.0217 0,0.0589 v 1.75183 q 0,0.0496 -0.0093,0.0682 -0.0062,0.0155 -0.03721,0.0155 -0.0217,0 -0.05271,-0.0403 l -1.296045,-1.90686 q -0.0124,-0.0186 -0.03101,-0.0372 v 1.64951 q 0,0.0372 0,0.0589 0.0031,0.0217 0.0186,0.062 0.0186,0.0372 0.04961,0.0589 0.03411,0.0217 0.09922,0.0403 0.06511,0.0155 0.15813,0.0155 v 0.0992 q -0.334863,-0.009 -0.36897,-0.009 -0.03721,0 -0.37207,0.009 v -0.0992 q 0.09302,0 0.15813,-0.0155 0.06511,-0.0186 0.09612,-0.0403 0.03411,-0.0217 0.04961,-0.0589 0.0186,-0.0403 0.0186,-0.062 0.0031,-0.0217 0.0031,-0.0589 v -1.65572 q 0,-0.0465 -0.0124,-0.0558 -0.0093,-0.0124 -0.06201,-0.0186 -0.09302,-0.006 -0.161231,-0.006 h -0.08992 v -0.0961 h 0.539502 q 0.04341,0 0.05581,0.006 0.0155,0.006 0.03721,0.0341 z m 2.883544,1.87585 q -0.136425,0.28526 -0.409277,0.28526 -0.139526,0 -0.235644,-0.0341 -0.09612,-0.0372 -0.142627,-0.0806 -0.04651,-0.0434 -0.07131,-0.12712 -0.02481,-0.0868 -0.02791,-0.13953 -0.0031,-0.0527 -0.0031,-0.15502 v -0.47439 q 0,-0.21394 -0.03411,-0.25425 -0.03101,-0.0403 -0.213941,-0.0403 v -0.0961 l 0.465088,-0.0372 v 1.0542 q 0,0.0744 0.0062,0.12093 0.0062,0.0465 0.03101,0.0992 0.02791,0.0496 0.08682,0.0744 0.05891,0.0217 0.155029,0.0217 0.170532,0 0.275952,-0.13952 0.108521,-0.14263 0.108521,-0.35347 v -0.56431 q 0,-0.11782 -0.04341,-0.14882 -0.04031,-0.031 -0.204638,-0.031 v -0.0961 l 0.468188,-0.0372 v 1.12862 q 0,0.11782 0.04031,0.14883 0.04031,0.0279 0.207739,0.0279 v 0.0992 l -0.458887,0.0341 z m 1.082105,-1.95337 v 1.96267 q 0,0.10232 0.03721,0.12403 0.04031,0.0186 0.21084,0.0186 v 0.0992 q -0.04031,0 -0.120923,-0.003 -0.07751,-0.003 -0.136426,-0.003 -0.05891,-0.003 -0.09612,-0.003 -0.03411,0 -0.350366,0.009 v -0.0992 q 0.167431,0 0.207739,-0.0186 0.04031,-0.0217 0.04031,-0.12403 v -1.64951 q 0,-0.11782 -0.04341,-0.14883 -0.04031,-0.031 -0.204638,-0.031 v -0.0961 z m 0.877469,0 v 1.96267 q 0,0.10232 0.0372,0.12403 0.0403,0.0186 0.21084,0.0186 v 0.0992 q -0.0403,0 -0.12092,-0.003 -0.0775,-0.003 -0.13643,-0.003 -0.0589,-0.003 -0.0961,-0.003 -0.0341,0 -0.35037,0.009 v -0.0992 q 0.167432,0 0.20774,-0.0186 0.04031,-0.0217 0.04031,-0.12403 v -1.64951 q 0,-0.11782 -0.04341,-0.14883 -0.04031,-0.031 -0.204639,-0.031 v -0.0961 z"
       id="text38"
       style="font-size:3.175px;line-height:0.95;font-family:'TexMaths Roman';-inkscape-font-specification:'TexMaths Roman, Normal';text-align:end;text-anchor:end;fill-rule:evenodd;stroke-width:0.264583"
       aria-label="Null" />
    <path
       d="m 97.189923,110.53279 h -0.843359 v -0.18604 h 0.843359 z m 0.57981,0.34726 h 0.570508 q 0.282153,0 0.303857,-0.0248 0.03101,-0.0434 0.06821,-0.28215 h 0.08061 l -0.08992,0.5519 h -1.178223 q 0,-0.0589 0.0031,-0.0744 0.0062,-0.0186 0.03101,-0.0434 l 0.610815,-0.67903 q 0.334864,-0.37827 0.334864,-0.70073 0,-0.21084 -0.111622,-0.36277 -0.111621,-0.15503 -0.316259,-0.15503 -0.139527,0 -0.257349,0.0868 -0.114722,0.0837 -0.170532,0.23564 0.0093,-0.003 0.04031,-0.003 0.08062,0 0.124024,0.0496 0.04651,0.0465 0.04651,0.11472 0,0.0868 -0.05581,0.13023 -0.05581,0.0403 -0.111621,0.0403 -0.0093,0 -0.0217,0 -0.0124,-0.003 -0.04031,-0.0124 -0.02791,-0.009 -0.04961,-0.0248 -0.0217,-0.0186 -0.04031,-0.0558 -0.0155,-0.0372 -0.0155,-0.0868 0,-0.22324 0.167432,-0.39688 0.170532,-0.17673 0.427881,-0.17673 0.291455,0 0.480591,0.17363 0.192236,0.17364 0.192236,0.44339 0,0.11782 -0.03101,0.21084 -0.03101,0.093 -0.133325,0.21394 -0.09922,0.11782 -0.198437,0.21394 -0.09922,0.093 -0.322461,0.28835 z m 1.603003,-0.79685 q 0.127124,-0.31316 0.396875,-0.31316 0.266649,0 0.449589,0.20464 0.18603,0.20154 0.18603,0.5023 0,0.31006 -0.19224,0.51469 -0.19223,0.20464 -0.461983,0.20464 -0.120923,0 -0.229443,-0.0527 -0.108521,-0.0496 -0.21084,-0.16433 -0.102319,-0.11472 -0.164331,-0.33486 -0.05891,-0.22324 -0.05891,-0.524 0,-0.49919 0.254248,-0.80305 0.254248,-0.30696 0.579809,-0.30696 0.18914,0 0.29456,0.0992 0.10852,0.0961 0.10852,0.24495 0,0.0806 -0.0465,0.11782 -0.0465,0.0341 -0.0992,0.0341 -0.0589,0 -0.10232,-0.0372 -0.0434,-0.0372 -0.0434,-0.10852 0,-0.14263 0.17363,-0.14263 -0.0837,-0.12712 -0.279048,-0.12712 -0.05891,0 -0.120923,0.0186 -0.06201,0.0155 -0.142627,0.0744 -0.08062,0.0589 -0.142627,0.15503 -0.06201,0.093 -0.10542,0.26665 -0.04341,0.17364 -0.04341,0.40308 z m 0.378271,1.0232 q 0.207739,0 0.313163,-0.20774 0.0558,-0.12093 0.0558,-0.42478 0,-0.31006 -0.0589,-0.43409 -0.102324,-0.19843 -0.29456,-0.19843 -0.195337,0 -0.291455,0.17363 -0.09612,0.17363 -0.09612,0.39377 0,0.30076 0.05891,0.45889 0.0093,0.0279 0.02791,0.0589 0.0217,0.031 0.05891,0.0775 0.03721,0.0434 0.09612,0.0744 0.05891,0.0279 0.130224,0.0279 z"
       id="text39"
       style="font-size:3.175px;line-height:0.95;font-family:'TexMaths Roman';-inkscape-font-specification:'TexMaths Roman, Normal';text-align:end;text-anchor:end;fill-rule:evenodd;stroke-width:0.264583"
       aria-label="-26" />
    <path
       d="m 98.777423,118.47029 h -0.843359 v -0.18604 h 0.843359 z m 0.57981,0.34726 h 0.570508 q 0.282149,0 0.303859,-0.0248 0.031,-0.0434 0.0682,-0.28215 h 0.0806 l -0.0899,0.5519 h -1.178224 q 0,-0.0589 0.0031,-0.0744 0.0062,-0.0186 0.03101,-0.0434 l 0.610815,-0.67903 q 0.334859,-0.37827 0.334859,-0.70073 0,-0.21084 -0.111617,-0.36277 -0.111621,-0.15503 -0.316259,-0.15503 -0.139527,0 -0.257349,0.0868 -0.114722,0.0837 -0.170532,0.23564 0.0093,-0.003 0.04031,-0.003 0.08062,0 0.124024,0.0496 0.04651,0.0465 0.04651,0.11472 0,0.0868 -0.05581,0.13023 -0.05581,0.0403 -0.111621,0.0403 -0.0093,0 -0.0217,0 -0.0124,-0.003 -0.04031,-0.0124 -0.02791,-0.009 -0.04961,-0.0248 -0.0217,-0.0186 -0.04031,-0.0558 -0.0155,-0.0372 -0.0155,-0.0868 0,-0.22324 0.167432,-0.39688 0.170532,-0.17673 0.427881,-0.17673 0.291455,0 0.480591,0.17363 0.19224,0.17364 0.19224,0.44339 0,0.11782 -0.031,0.21084 -0.031,0.093 -0.13333,0.21394 -0.0992,0.11782 -0.19843,0.21394 -0.09922,0.093 -0.322463,0.28835 z"
       id="text40"
       style="font-size:3.175px;line-height:0.95;font-family:'TexMaths Roman';-inkscape-font-specification:'TexMaths Roman, Normal';text-align:end;text-anchor:end;fill-rule:evenodd;stroke-width:0.264583"
       aria-label="-2" />
    <path
       d="M 98.777423,122.43904 H 97.934064 V 122.253 h 0.843359 z m 1.11001,-1.43867 v 1.77973 q 0,0.0961 0.04651,0.12403 0.04651,0.0279 0.248047,0.0279 h 0.10232 v 0.0992 q -0.11162,-0.009 -0.514698,-0.009 -0.403077,0 -0.514698,0.009 v -0.0992 h 0.10232 q 0.201538,0 0.248047,-0.0279 0.04651,-0.031 0.04651,-0.12403 v -1.64331 q -0.15813,0.0806 -0.415478,0.0806 v -0.0961 q 0.384473,0 0.579809,-0.20464 0.05271,0 0.06201,0.0124 0.0093,0.009 0.0093,0.0713 z"
       id="text41"
       style="font-size:3.175px;line-height:0.95;font-family:'TexMaths Roman';-inkscape-font-specification:'TexMaths Roman, Normal';text-align:end;text-anchor:end;fill-rule:evenodd;stroke-width:0.264583"
       aria-label="-1" />
    <path
       d="m 140.01861,78.42932 q 0,0.465088 -0.11782,0.719336 -0.17053,0.368969 -0.5519,0.368969 -0.14263,0 -0.28836,-0.07441 -0.14263,-0.07441 -0.23564,-0.248047 -0.14263,-0.263549 -0.14263,-0.765844 0,-0.465088 0.11782,-0.719336 0.16743,-0.378272 0.55191,-0.378272 0.0589,0 0.12092,0.0155 0.0651,0.0124 0.14263,0.04961 0.0775,0.03411 0.14882,0.10852 0.0744,0.07441 0.12713,0.182935 0.12712,0.269751 0.12712,0.74104 z m -0.66972,1.016992 q 0.12712,0 0.23254,-0.09302 0.10852,-0.09612 0.13953,-0.303857 0.0341,-0.204639 0.0341,-0.657324 0,-0.443384 -0.031,-0.620117 -0.0403,-0.20774 -0.15193,-0.288355 -0.11162,-0.08062 -0.22324,-0.08062 -0.0434,0 -0.0868,0.0124 -0.0434,0.0124 -0.10852,0.04961 -0.062,0.03411 -0.11162,0.124023 -0.0496,0.08682 -0.0713,0.220142 -0.0248,0.170532 -0.0248,0.58291 0,0.480591 0.0341,0.669726 0.0372,0.204639 0.14572,0.294556 0.10852,0.08992 0.22325,0.08992 z"
       id="text42"
       style="font-size:3.175px;line-height:0.95;font-family:'TexMaths Roman';-inkscape-font-specification:'TexMaths Roman, Normal';text-align:end;text-anchor:end;fill-rule:evenodd;stroke-width:0.264583"
       aria-label="0" />
    <path
       d="m 139.57495,81.312866 v 1.779737 q 0,0.09612 0.0465,0.124023 0.0465,0.0279 0.24804,0.0279 h 0.10232 v 0.09922 q -0.11162,-0.0093 -0.51469,-0.0093 -0.40308,0 -0.5147,0.0093 v -0.09922 h 0.10232 q 0.20154,0 0.24804,-0.0279 0.0465,-0.03101 0.0465,-0.124023 v -1.643311 q -0.15813,0.08061 -0.41547,0.08061 v -0.09612 q 0.38447,0 0.5798,-0.204639 0.0527,0 0.062,0.0124 0.009,0.0093 0.009,0.07131 z"
       id="text43"
       style="font-size:3.175px;line-height:0.95;font-family:'TexMaths Roman';-inkscape-font-specification:'TexMaths Roman, Normal';text-align:end;text-anchor:end;fill-rule:evenodd;stroke-width:0.264583"
       aria-label="1" />
    <path
       d="m 138.83419,87.40314 h 0.57051 q 0.28215,0 0.30386,-0.0248 0.031,-0.04341 0.0682,-0.282154 h 0.0806 l -0.0899,0.551905 h -1.17822 q 0,-0.05891 0.003,-0.07442 0.006,-0.0186 0.031,-0.04341 l 0.61082,-0.679028 q 0.33486,-0.378272 0.33486,-0.700732 0,-0.21084 -0.11162,-0.362769 -0.11162,-0.155029 -0.31626,-0.155029 -0.13953,0 -0.25735,0.08682 -0.11472,0.08372 -0.17053,0.235645 0.009,-0.0031 0.0403,-0.0031 0.0806,0 0.12402,0.04961 0.0465,0.04651 0.0465,0.114722 0,0.08682 -0.0558,0.130225 -0.0558,0.04031 -0.11162,0.04031 -0.009,0 -0.0217,0 -0.0124,-0.0031 -0.0403,-0.0124 -0.0279,-0.0093 -0.0496,-0.02481 -0.0217,-0.0186 -0.0403,-0.05581 -0.0155,-0.03721 -0.0155,-0.08682 0,-0.223242 0.16743,-0.396875 0.17053,-0.176733 0.42788,-0.176733 0.29145,0 0.48059,0.173633 0.19224,0.173633 0.19224,0.443384 0,0.117822 -0.031,0.210839 -0.031,0.09302 -0.13333,0.213941 -0.0992,0.117822 -0.19843,0.21394 -0.0992,0.09302 -0.32246,0.288355 z"
       id="text44"
       style="font-size:3.175px;line-height:0.95;font-family:'TexMaths Roman';-inkscape-font-specification:'TexMaths Roman, Normal';text-align:end;text-anchor:end;fill-rule:evenodd;stroke-width:0.264583"
       aria-label="2" />
    <path
       d="m 137.53508,95.076366 h 0.57051 q 0.28215,0 0.30386,-0.0248 0.031,-0.04341 0.0682,-0.282153 h 0.0806 l -0.0899,0.551904 h -1.17822 q 0,-0.05891 0.003,-0.07441 0.006,-0.0186 0.031,-0.04341 l 0.61082,-0.679029 q 0.33486,-0.378271 0.33486,-0.700732 0,-0.21084 -0.11162,-0.362769 -0.11162,-0.155029 -0.31626,-0.155029 -0.13953,0 -0.25735,0.08682 -0.11472,0.08371 -0.17053,0.235644 0.009,-0.0031 0.0403,-0.0031 0.0806,0 0.12402,0.04961 0.0465,0.04651 0.0465,0.114722 0,0.08682 -0.0558,0.130224 -0.0558,0.04031 -0.11162,0.04031 -0.009,0 -0.0217,0 -0.0124,-0.0031 -0.0403,-0.0124 -0.0279,-0.0093 -0.0496,-0.0248 -0.0217,-0.0186 -0.0403,-0.05581 -0.0155,-0.03721 -0.0155,-0.08682 0,-0.223242 0.16743,-0.396875 0.17053,-0.176734 0.42788,-0.176734 0.29145,0 0.48059,0.173633 0.19224,0.173633 0.19224,0.443384 0,0.117822 -0.031,0.21084 -0.031,0.09302 -0.13332,0.21394 -0.0992,0.117822 -0.19844,0.213941 -0.0992,0.09302 -0.32246,0.288354 z m 1.60301,-0.796851 q 0.12712,-0.313159 0.39687,-0.313159 0.26665,0 0.44959,0.204639 0.18603,0.201538 0.18603,0.502294 0,0.310059 -0.19224,0.514698 -0.19223,0.204638 -0.46198,0.204638 -0.12093,0 -0.22945,-0.05271 -0.10852,-0.04961 -0.21084,-0.164331 -0.10232,-0.114721 -0.16433,-0.334863 -0.0589,-0.223242 -0.0589,-0.523999 0,-0.499194 0.25425,-0.803052 0.25425,-0.306958 0.57981,-0.306958 0.18914,0 0.29456,0.09922 0.10852,0.09612 0.10852,0.244946 0,0.08062 -0.0465,0.117823 -0.0465,0.03411 -0.0992,0.03411 -0.0589,0 -0.10232,-0.03721 -0.0434,-0.03721 -0.0434,-0.10852 0,-0.142627 0.17363,-0.142627 -0.0837,-0.127124 -0.27905,-0.127124 -0.0589,0 -0.12092,0.0186 -0.062,0.0155 -0.14263,0.07441 -0.0806,0.05891 -0.14263,0.155029 -0.062,0.09302 -0.10542,0.266651 -0.0434,0.173633 -0.0434,0.403076 z m 0.37827,1.023193 q 0.20774,0 0.31316,-0.207739 0.0558,-0.120923 0.0558,-0.42478 0,-0.310059 -0.0589,-0.434082 -0.10232,-0.198438 -0.29456,-0.198438 -0.19534,0 -0.29145,0.173633 -0.0961,0.173633 -0.0961,0.393775 0,0.300756 0.0589,0.458886 0.009,0.02791 0.0279,0.05891 0.0217,0.03101 0.0589,0.07752 0.0372,0.04341 0.0961,0.07441 0.0589,0.0279 0.13023,0.0279 z"
       id="text45"
       style="font-size:3.175px;line-height:0.95;font-family:'TexMaths Roman';-inkscape-font-specification:'TexMaths Roman, Normal';text-align:end;text-anchor:end;fill-rule:evenodd;stroke-width:0.264583"
       aria-label="26" />
    <path
       d="m 137.45725,98.973804 h 0.57051 q 0.28215,0 0.30385,-0.02481 0.031,-0.04341 0.0682,-0.282153 h 0.0806 l -0.0899,0.551904 h -1.17822 q 0,-0.05891 0.003,-0.07441 0.006,-0.0186 0.031,-0.04341 l 0.61081,-0.679029 q 0.33487,-0.378271 0.33487,-0.700732 0,-0.21084 -0.11162,-0.362769 -0.11163,-0.155029 -0.31626,-0.155029 -0.13953,0 -0.25735,0.08682 -0.11472,0.08371 -0.17053,0.235644 0.009,-0.0031 0.0403,-0.0031 0.0806,0 0.12403,0.04961 0.0465,0.04651 0.0465,0.114722 0,0.08682 -0.0558,0.130224 -0.0558,0.04031 -0.11162,0.04031 -0.009,0 -0.0217,0 -0.0124,-0.0031 -0.0403,-0.0124 -0.0279,-0.0093 -0.0496,-0.0248 -0.0217,-0.0186 -0.0403,-0.05581 -0.0155,-0.03721 -0.0155,-0.08682 0,-0.223242 0.16743,-0.396875 0.17054,-0.176734 0.42788,-0.176734 0.29146,0 0.48059,0.173633 0.19224,0.173633 0.19224,0.443384 0,0.117822 -0.031,0.21084 -0.031,0.09302 -0.13333,0.21394 -0.0992,0.117823 -0.19844,0.213941 -0.0992,0.09302 -0.32246,0.288354 z m 2.69441,-1.68982 -0.42788,0.604615 q -0.13643,0.192236 -0.19534,0.542602 -0.0372,0.257349 -0.0372,0.520899 v 0.16123 q 0,0.176733 -0.14573,0.176733 -0.14572,0 -0.14572,-0.176733 0,-0.26665 0.093,-0.579809 0.0961,-0.31316 0.29766,-0.613916 0.0403,-0.06201 0.19224,-0.275953 0.15503,-0.21394 0.16433,-0.226342 h -0.65733 q -0.28525,0 -0.31005,0.0217 -0.031,0.03101 -0.0806,0.288354 h -0.0806 l 0.10542,-0.654223 h 0.0806 q 0.009,0.03721 0.0248,0.05581 0.0155,0.0155 0.10541,0.03101 0.093,0.0155 0.27596,0.0155 h 0.77204 q 0,0.06821 -0.031,0.10852 z"
       id="text46"
       style="font-size:3.175px;line-height:0.95;font-family:'TexMaths Roman';-inkscape-font-specification:'TexMaths Roman, Normal';text-align:end;text-anchor:end;fill-rule:evenodd;stroke-width:0.264583"
       aria-label="27" />
    <path
       d="m 137.92854,106.11135 q 0.24184,0.0496 0.38447,0.21084 0.14573,0.16123 0.14573,0.36277 0,0.24805 -0.19534,0.43098 -0.19534,0.18294 -0.48059,0.18294 -0.26355,0 -0.45269,-0.14263 -0.18913,-0.14263 -0.18913,-0.35657 0,-0.0961 0.0527,-0.13953 0.0558,-0.0465 0.12402,-0.0465 0.0744,0 0.12713,0.0496 0.0527,0.0465 0.0527,0.13022 0,0.0868 -0.062,0.13643 -0.0496,0.0403 -0.11472,0.0403 -0.0186,0 -0.0341,-0.003 0.0744,0.12403 0.21704,0.18294 0.14262,0.0589 0.26975,0.0589 0.13642,0 0.24494,-0.11782 0.11163,-0.11783 0.11163,-0.40618 0,-0.24185 -0.093,-0.38447 -0.093,-0.14263 -0.28216,-0.14263 h -0.13952 q -0.0465,0 -0.062,-0.003 -0.0155,-0.006 -0.0155,-0.031 0,-0.0341 0.0465,-0.0403 0.0496,0 0.12403,-0.009 0.18293,-0.006 0.28215,-0.16433 0.0899,-0.14883 0.0899,-0.36277 0,-0.19223 -0.093,-0.27285 -0.0899,-0.0806 -0.21084,-0.0806 -0.11162,0 -0.23565,0.0465 -0.12092,0.0434 -0.18603,0.14882 0.19534,0 0.19534,0.15813 0,0.0713 -0.0434,0.11783 -0.0434,0.0465 -0.11782,0.0465 -0.0713,0 -0.11783,-0.0434 -0.0434,-0.0465 -0.0434,-0.12403 0,-0.18293 0.16124,-0.30695 0.16123,-0.12403 0.39997,-0.12403 0.23565,0 0.40928,0.12403 0.17363,0.12402 0.17363,0.31315 0,0.18604 -0.12402,0.34107 -0.12093,0.15503 -0.31936,0.22014 z m 2.17661,-0.81855 -0.42788,0.60461 q -0.13643,0.19224 -0.19534,0.5426 -0.0372,0.25735 -0.0372,0.5209 v 0.16123 q 0,0.17674 -0.14572,0.17674 -0.14573,0 -0.14573,-0.17674 0,-0.26665 0.093,-0.57981 0.0961,-0.31316 0.29765,-0.61391 0.0403,-0.062 0.19224,-0.27596 0.15503,-0.21394 0.16433,-0.22634 h -0.65732 q -0.28526,0 -0.31006,0.0217 -0.031,0.031 -0.0806,0.28835 h -0.0806 l 0.10542,-0.65422 h 0.0806 q 0.009,0.0372 0.0248,0.0558 0.0155,0.0155 0.10542,0.031 0.093,0.0155 0.27595,0.0155 h 0.77204 q 0,0.0682 -0.031,0.10852 z"
       id="text47"
       style="font-size:3.175px;line-height:0.95;font-family:'TexMaths Roman';-inkscape-font-specification:'TexMaths Roman, Normal';text-align:end;text-anchor:end;fill-rule:evenodd;stroke-width:0.264583"
       aria-label="37" />
    <path
       d="m 137.97505,110.00879 q 0.24184,0.0496 0.38447,0.21084 0.14573,0.16123 0.14573,0.36277 0,0.24804 -0.19534,0.43098 -0.19534,0.18293 -0.48059,0.18293 -0.26355,0 -0.45269,-0.14262 -0.18913,-0.14263 -0.18913,-0.35657 0,-0.0961 0.0527,-0.13953 0.0558,-0.0465 0.12402,-0.0465 0.0744,0 0.12712,0.0496 0.0527,0.0465 0.0527,0.13023 0,0.0868 -0.062,0.13642 -0.0496,0.0403 -0.11472,0.0403 -0.0186,0 -0.0341,-0.003 0.0744,0.12402 0.21705,0.18294 0.14262,0.0589 0.26975,0.0589 0.13642,0 0.24494,-0.11783 0.11162,-0.11782 0.11162,-0.40617 0,-0.24185 -0.093,-0.38448 -0.093,-0.14262 -0.28216,-0.14262 h -0.13952 q -0.0465,0 -0.062,-0.003 -0.0155,-0.006 -0.0155,-0.031 0,-0.0341 0.0465,-0.0403 0.0496,0 0.12402,-0.009 0.18294,-0.006 0.28216,-0.16433 0.0899,-0.14883 0.0899,-0.36277 0,-0.19223 -0.093,-0.27285 -0.0899,-0.0806 -0.21084,-0.0806 -0.11162,0 -0.23565,0.0465 -0.12092,0.0434 -0.18603,0.14883 0.19533,0 0.19533,0.15813 0,0.0713 -0.0434,0.11782 -0.0434,0.0465 -0.11783,0.0465 -0.0713,0 -0.11782,-0.0434 -0.0434,-0.0465 -0.0434,-0.12403 0,-0.18293 0.16123,-0.30696 0.16123,-0.12402 0.39998,-0.12402 0.23564,0 0.40928,0.12402 0.17363,0.12403 0.17363,0.31316 0,0.18604 -0.12402,0.34107 -0.12093,0.15503 -0.31936,0.22014 z m 1.18442,-0.33486 0.39377,0.25424 q 0.31316,-0.18603 0.31316,-0.44338 0,-0.16743 -0.13022,-0.27905 -0.12713,-0.11472 -0.30386,-0.11472 -0.17363,0 -0.30386,0.093 -0.12712,0.093 -0.12712,0.23255 0,0.15193 0.15813,0.25735 z m 0.46199,0.30075 q 0.12712,0.0806 0.16433,0.10542 0.0403,0.0248 0.0806,0.0558 0.0434,0.031 0.0713,0.0651 0.15503,0.17053 0.15503,0.39067 0,0.25425 -0.19534,0.43098 -0.19224,0.17363 -0.46509,0.17363 -0.26355,0 -0.46199,-0.15193 -0.19533,-0.15502 -0.19533,-0.39997 0,-0.35037 0.45578,-0.58291 -0.18293,-0.11782 -0.22944,-0.17053 -0.13953,-0.15503 -0.13953,-0.35037 0,-0.22014 0.16744,-0.37517 0.16743,-0.15503 0.40617,-0.15503 0.22634,0 0.39688,0.13333 0.17363,0.13022 0.17363,0.34106 0,0.29146 -0.38447,0.48989 z m -0.31626,0.13333 q -0.37207,0.20464 -0.37207,0.5364 0,0.19534 0.14572,0.32866 0.14883,0.13333 0.35657,0.13333 0.20154,0 0.35037,-0.11162 0.14883,-0.11473 0.14883,-0.28836 0,-0.0868 -0.0465,-0.16433 -0.0465,-0.0775 -0.0868,-0.10852 -0.0403,-0.0341 -0.10542,-0.0775 z"
       id="text48"
       style="font-size:3.175px;line-height:0.95;font-family:'TexMaths Roman';-inkscape-font-specification:'TexMaths Roman, Normal';text-align:end;text-anchor:end;fill-rule:evenodd;stroke-width:0.264583"
       aria-label="38" />
    <path
       d="m 137.47275,118.0207 q 0.12712,-0.31316 0.39688,-0.31316 0.26665,0 0.44958,0.20464 0.18604,0.20154 0.18604,0.5023 0,0.31006 -0.19224,0.51469 -0.19224,0.20464 -0.46199,0.20464 -0.12092,0 -0.22944,-0.0527 -0.10852,-0.0496 -0.21084,-0.16433 -0.10232,-0.11472 -0.16433,-0.33486 -0.0589,-0.22324 -0.0589,-0.524 0,-0.49919 0.25425,-0.80305 0.25424,-0.30696 0.5798,-0.30696 0.18914,0 0.29456,0.0992 0.10852,0.0961 0.10852,0.24495 0,0.0806 -0.0465,0.11782 -0.0465,0.0341 -0.0992,0.0341 -0.0589,0 -0.10232,-0.0372 -0.0434,-0.0372 -0.0434,-0.10852 0,-0.14263 0.17363,-0.14263 -0.0837,-0.12712 -0.27905,-0.12712 -0.0589,0 -0.12093,0.0186 -0.062,0.0155 -0.14262,0.0744 -0.0806,0.0589 -0.14263,0.15503 -0.062,0.093 -0.10542,0.26665 -0.0434,0.17364 -0.0434,0.40308 z m 0.37827,1.0232 q 0.20774,0 0.31316,-0.20774 0.0558,-0.12093 0.0558,-0.42478 0,-0.31006 -0.0589,-0.43409 -0.10232,-0.19843 -0.29455,-0.19843 -0.19534,0 -0.29146,0.17363 -0.0961,0.17363 -0.0961,0.39377 0,0.30076 0.0589,0.45889 0.009,0.0279 0.0279,0.0589 0.0217,0.031 0.0589,0.0775 0.0372,0.0434 0.0961,0.0744 0.0589,0.0279 0.13022,0.0279 z m 1.19373,-0.22635 h 0.57051 q 0.28215,0 0.30385,-0.0248 0.031,-0.0434 0.0682,-0.28215 h 0.0806 l -0.0899,0.5519 h -1.17822 q 0,-0.0589 0.003,-0.0744 0.006,-0.0186 0.031,-0.0434 l 0.61081,-0.67903 q 0.33487,-0.37827 0.33487,-0.70073 0,-0.21084 -0.11162,-0.36277 -0.11163,-0.15503 -0.31626,-0.15503 -0.13953,0 -0.25735,0.0868 -0.11472,0.0837 -0.17053,0.23564 0.009,-0.003 0.0403,-0.003 0.0806,0 0.12403,0.0496 0.0465,0.0465 0.0465,0.11472 0,0.0868 -0.0558,0.13023 -0.0558,0.0403 -0.11162,0.0403 -0.009,0 -0.0217,0 -0.0124,-0.003 -0.0403,-0.0124 -0.0279,-0.009 -0.0496,-0.0248 -0.0217,-0.0186 -0.0403,-0.0558 -0.0155,-0.0372 -0.0155,-0.0868 0,-0.22324 0.16743,-0.39688 0.17054,-0.17673 0.42788,-0.17673 0.29146,0 0.48059,0.17363 0.19224,0.17364 0.19224,0.44339 0,0.11782 -0.031,0.21084 -0.031,0.093 -0.13333,0.21394 -0.0992,0.11782 -0.19844,0.21394 -0.0992,0.093 -0.32246,0.28835 z"
       id="text49"
       style="font-size:3.175px;line-height:0.95;font-family:'TexMaths Roman';-inkscape-font-specification:'TexMaths Roman, Normal';text-align:end;text-anchor:end;fill-rule:evenodd;stroke-width:0.264583"
       aria-label="62" />
    <path
       d="m 137.47275,121.98945 q 0.12712,-0.31316 0.39688,-0.31316 0.26665,0 0.44958,0.20464 0.18604,0.20154 0.18604,0.5023 0,0.31006 -0.19224,0.51469 -0.19224,0.20464 -0.46199,0.20464 -0.12092,0 -0.22944,-0.0527 -0.10852,-0.0496 -0.21084,-0.16433 -0.10232,-0.11472 -0.16433,-0.33486 -0.0589,-0.22324 -0.0589,-0.524 0,-0.49919 0.25425,-0.80305 0.25424,-0.30696 0.5798,-0.30696 0.18914,0 0.29456,0.0992 0.10852,0.0961 0.10852,0.24495 0,0.0806 -0.0465,0.11782 -0.0465,0.0341 -0.0992,0.0341 -0.0589,0 -0.10232,-0.0372 -0.0434,-0.0372 -0.0434,-0.10852 0,-0.14263 0.17363,-0.14263 -0.0837,-0.12712 -0.27905,-0.12712 -0.0589,0 -0.12093,0.0186 -0.062,0.0155 -0.14262,0.0744 -0.0806,0.0589 -0.14263,0.15503 -0.062,0.093 -0.10542,0.26665 -0.0434,0.17364 -0.0434,0.40308 z m 0.37827,1.0232 q 0.20774,0 0.31316,-0.20774 0.0558,-0.12093 0.0558,-0.42478 0,-0.31006 -0.0589,-0.43409 -0.10232,-0.19843 -0.29455,-0.19843 -0.19534,0 -0.29146,0.17363 -0.0961,0.17363 -0.0961,0.39377 0,0.30076 0.0589,0.45889 0.009,0.0279 0.0279,0.0589 0.0217,0.031 0.0589,0.0775 0.0372,0.0434 0.0961,0.0744 0.0589,0.0279 0.13022,0.0279 z m 1.71153,-1.09761 q 0.24184,0.0496 0.38447,0.21084 0.14573,0.16123 0.14573,0.36277 0,0.24804 -0.19534,0.43098 -0.19534,0.18293 -0.48059,0.18293 -0.26355,0 -0.45269,-0.14262 -0.18913,-0.14263 -0.18913,-0.35657 0,-0.0961 0.0527,-0.13953 0.0558,-0.0465 0.12402,-0.0465 0.0744,0 0.12712,0.0496 0.0527,0.0465 0.0527,0.13023 0,0.0868 -0.062,0.13642 -0.0496,0.0403 -0.11472,0.0403 -0.0186,0 -0.0341,-0.003 0.0744,0.12402 0.21705,0.18294 0.14262,0.0589 0.26975,0.0589 0.13642,0 0.24494,-0.11783 0.11162,-0.11782 0.11162,-0.40617 0,-0.24185 -0.093,-0.38448 -0.093,-0.14262 -0.28216,-0.14262 h -0.13952 q -0.0465,0 -0.062,-0.003 -0.0155,-0.006 -0.0155,-0.031 0,-0.0341 0.0465,-0.0403 0.0496,0 0.12402,-0.009 0.18294,-0.006 0.28216,-0.16433 0.0899,-0.14883 0.0899,-0.36277 0,-0.19223 -0.093,-0.27285 -0.0899,-0.0806 -0.21084,-0.0806 -0.11162,0 -0.23565,0.0465 -0.12092,0.0434 -0.18603,0.14883 0.19533,0 0.19533,0.15813 0,0.0713 -0.0434,0.11782 -0.0434,0.0465 -0.11783,0.0465 -0.0713,0 -0.11782,-0.0434 -0.0434,-0.0465 -0.0434,-0.12403 0,-0.18293 0.16123,-0.30696 0.16123,-0.12402 0.39998,-0.12402 0.23564,0 0.40928,0.12402 0.17363,0.12403 0.17363,0.31316 0,0.18604 -0.12402,0.34107 -0.12093,0.15503 -0.31936,0.22014 z"
       id="text50"
       style="font-size:3.175px;line-height:0.95;font-family:'TexMaths Roman';-inkscape-font-specification:'TexMaths Roman, Normal';text-align:end;text-anchor:end;fill-rule:evenodd;stroke-width:0.264583"
       aria-label="63" />
    <text
       xml:space="preserve"
       style="font-size:2.46944px;line-height:0.8;font-family:'TexMaths Symbols';-inkscape-font-specification:'TexMaths Symbols, Normal';text-align:start;text-anchor:start;fill:#000000;fill-rule:evenodd;stroke:none;stroke-width:0.264583"
       x="66.145836"
       y="103.18751"
       id="text2"><tspan
         sodipodi:role="line"
         id="tspan2"
         style="text-align:start;text-anchor:start;fill:#000000;stroke:none;stroke-width:0.264583"
         x="66.145836"
         y="103.18751"></tspan></text>
    <text
       xml:space="preserve"
       style="font-size:7.05556px;line-height:0.8;font-family:'TexMaths Symbols';-inkscape-font-specification:'TexMaths Symbols, Normal';text-align:end;text-anchor:end;fill:#000000;fill-rule:evenodd;stroke:none;stroke-width:0.264583"
       x="89.625038"
       y="103.37539"
       id="text3"><tspan
         sodipodi:role="line"
         id="tspan3"
         style="font-size:7.05556px;text-align:end;text-anchor:end;stroke-width:0.264583"
         x="89.625038"
         y="103.37539"></tspan></text>
    <text
       xml:space="preserve"
       style="font-size:4.93889px;line-height:0.8;font-family:'TexMaths Symbols';-inkscape-font-specification:'TexMaths Symbols, Normal';text-align:end;text-anchor:end;fill:#000000;fill-rule:evenodd;stroke:none;stroke-width:0.264583"
       x="92.647682"
       y="102.24741"
       id="text4"><tspan
         sodipodi:role="line"
         id="tspan4"
         style="font-style:normal;font-variant:normal;font-weight:normal;font-stretch:normal;font-size:4.93889px;font-family:'TexMaths Roman';-inkscape-font-specification:'TexMaths Roman, Normal';font-variant-ligatures:normal;font-variant-caps:normal;font-variant-numeric:normal;font-variant-east-asian:normal;stroke-width:0.264583"
         x="92.647682"
         y="102.24741">Subportadoras</tspan></text>
    <text
       xml:space="preserve"
       style="font-style:normal;font-variant:normal;font-weight:normal;font-stretch:normal;font-size:4.9389px;line-height:0.8;font-family:'TexMaths Roman';-inkscape-font-specification:'TexMaths Roman, Normal';font-variant-ligatures:normal;font-variant-caps:normal;font-variant-numeric:normal;font-variant-east-asian:normal;text-align:end;text-anchor:end;fill:#000000;fill-rule:evenodd;stroke:none;stroke-width:0.264583"
       x="92.604172"
       y="103.18751"
       id="text5"><tspan
         sodipodi:role="line"
         id="tspan5"
         style="stroke-width:0.264583"
         x="92.604172"
         y="103.18751"></tspan></text>
    <text
       xml:space="preserve"
       style="font-style:normal;font-variant:normal;font-weight:normal;font-stretch:normal;font-size:4.9389px;line-height:0.8;font-family:'TexMaths Roman';-inkscape-font-specification:'TexMaths Roman, Normal';font-variant-ligatures:normal;font-variant-caps:normal;font-variant-numeric:normal;font-variant-east-asian:normal;text-align:start;text-anchor:start;fill:#000000;fill-rule:evenodd;stroke:none;stroke-width:0.264583"
       x="154.58"
       y="105.08195"
       id="text7"><tspan
         sodipodi:role="line"
         id="tspan7"
         style="text-align:start;text-anchor:start;stroke-width:0.264583"
         x="154.58"
         y="105.08195"></tspan></text>
    <text
       xml:space="preserve"
       style="font-style:normal;font-variant:normal;font-weight:normal;font-stretch:normal;font-size:4.9389px;line-height:0.8;font-family:'TexMaths Roman';-inkscape-font-specification:'TexMaths Roman, Normal';font-variant-ligatures:normal;font-variant-caps:normal;font-variant-numeric:normal;font-variant-east-asian:normal;text-align:start;text-anchor:start;fill:#000000;fill-rule:evenodd;stroke:none;stroke-width:0.264583"
       x="151.87085"
       y="103.18751"
       id="text8"><tspan
         sodipodi:role="line"
         id="tspan8"
         style="stroke-width:0.264583"
         x="151.87085"
         y="103.18751">Muestras tiempo</tspan></text>
  </g>
</svg>
