<?xml version="1.0" encoding="UTF-8" standalone="no"?>
<!-- Created with Inkscape (http://www.inkscape.org/) -->

<svg
   width="94.191711mm"
   height="23.03791mm"
   viewBox="0 0 94.191711 23.037911"
   version="1.1"
   id="svg1"
   inkscape:version="1.3.2 (091e20ef0f, 2023-11-25, custom)"
   sodipodi:docname="prefix.svg"
   xmlns:inkscape="http://www.inkscape.org/namespaces/inkscape"
   xmlns:sodipodi="http://sodipodi.sourceforge.net/DTD/sodipodi-0.dtd"
   xmlns="http://www.w3.org/2000/svg"
   xmlns:svg="http://www.w3.org/2000/svg">
  <sodipodi:namedview
     id="namedview1"
     pagecolor="#ffffff"
     bordercolor="#000000"
     borderopacity="0.25"
     inkscape:showpageshadow="2"
     inkscape:pageopacity="0.0"
     inkscape:pagecheckerboard="0"
     inkscape:deskcolor="#d1d1d1"
     inkscape:document-units="mm"
     showgrid="true"
     inkscape:zoom="1.2608141"
     inkscape:cx="205.42283"
     inkscape:cy="53.140269"
     inkscape:window-width="1920"
     inkscape:window-height="1130"
     inkscape:window-x="0"
     inkscape:window-y="0"
     inkscape:window-maximized="1"
     inkscape:current-layer="layer1">
    <inkscape:grid
       id="grid1"
       units="px"
       originx="-53.578109"
       originy="-111.65403"
       spacingx="0.26458333"
       spacingy="0.26458334"
       empcolor="#0099e5"
       empopacity="0.30196078"
       color="#0099e5"
       opacity="0.14901961"
       empspacing="5"
       dotted="false"
       gridanglex="30"
       gridanglez="30"
       visible="true" />
  </sodipodi:namedview>
  <defs
     id="defs1">
    <rect
       x="505.5"
       y="68.000053"
       width="0.0067047444"
       height="14.500013"
       id="rect25" />
    <rect
       x="505.5"
       y="8.0000525"
       width="1.8189894e-12"
       height="70.000008"
       id="rect24" />
    <marker
       style="overflow:visible"
       id="DartArrow"
       refX="0"
       refY="0"
       orient="auto-start-reverse"
       inkscape:stockid="Dart arrow"
       markerWidth="1"
       markerHeight="1"
       viewBox="0 0 1 1"
       inkscape:isstock="true"
       inkscape:collect="always"
       preserveAspectRatio="xMidYMid">
      <path
         style="fill:context-stroke;fill-rule:evenodd;stroke:none"
         d="M 0,0 5,-5 -12.5,0 5,5 Z"
         transform="scale(-0.5)"
         id="path6" />
    </marker>
    <marker
       style="overflow:visible"
       id="marker2"
       refX="0"
       refY="0"
       orient="auto"
       inkscape:stockid="Stop"
       markerWidth="1"
       markerHeight="1"
       viewBox="0 0 1 1"
       inkscape:isstock="true"
       inkscape:collect="always"
       preserveAspectRatio="xMidYMid">
      <path
         style="fill:none;stroke:context-stroke;stroke-width:1"
         d="M 0,4 V -4"
         id="path2" />
    </marker>
    <marker
       style="overflow:visible"
       id="Stop"
       refX="0"
       refY="0"
       orient="auto"
       inkscape:stockid="Stop"
       markerWidth="1"
       markerHeight="1"
       viewBox="0 0 1 1"
       inkscape:isstock="true"
       inkscape:collect="always"
       preserveAspectRatio="xMidYMid">
      <path
         style="fill:none;stroke:context-stroke;stroke-width:1"
         d="M 0,4 V -4"
         id="path23" />
    </marker>
    <marker
       style="overflow:visible"
       id="marker2-2"
       refX="0"
       refY="0"
       orient="auto"
       inkscape:stockid="Stop"
       markerWidth="1"
       markerHeight="1"
       viewBox="0 0 1 1"
       inkscape:isstock="true"
       inkscape:collect="always"
       preserveAspectRatio="xMidYMid">
      <path
         style="fill:none;stroke:context-stroke;stroke-width:1"
         d="M 0,4 V -4"
         id="path2-2" />
    </marker>
    <marker
       style="overflow:visible"
       id="Stop-8"
       refX="0"
       refY="0"
       orient="auto"
       inkscape:stockid="Stop"
       markerWidth="1"
       markerHeight="1"
       viewBox="0 0 1 1"
       inkscape:isstock="true"
       inkscape:collect="always"
       preserveAspectRatio="xMidYMid">
      <path
         style="fill:none;stroke:context-stroke;stroke-width:1"
         d="M 0,4 V -4"
         id="path23-9" />
    </marker>
    <marker
       style="overflow:visible"
       id="marker2-6"
       refX="0"
       refY="0"
       orient="auto"
       inkscape:stockid="Stop"
       markerWidth="1"
       markerHeight="1"
       viewBox="0 0 1 1"
       inkscape:isstock="true"
       inkscape:collect="always"
       preserveAspectRatio="xMidYMid">
      <path
         style="fill:none;stroke:context-stroke;stroke-width:1"
         d="M 0,4 V -4"
         id="path2-5" />
    </marker>
    <marker
       style="overflow:visible"
       id="Stop-6"
       refX="0"
       refY="0"
       orient="auto"
       inkscape:stockid="Stop"
       markerWidth="1"
       markerHeight="1"
       viewBox="0 0 1 1"
       inkscape:isstock="true"
       inkscape:collect="always"
       preserveAspectRatio="xMidYMid">
      <path
         style="fill:none;stroke:context-stroke;stroke-width:1"
         d="M 0,4 V -4"
         id="path23-3" />
    </marker>
  </defs>
  <g
     inkscape:label="Layer 1"
     inkscape:groupmode="layer"
     id="layer1"
     transform="translate(-53.578111,-111.65403)">
    <path
       id="rect1"
       style="fill:none;fill-rule:evenodd;stroke:#000000;stroke-width:0.264583"
       transform="rotate(90)"
       d="m 120.38542,-85.460403 h 5.29167 v 31.750001 h -5.29167 z" />
    <path
       style="fill:none;fill-rule:evenodd;stroke:#000000;stroke-width:0.264583;stroke-dasharray:none;marker-start:url(#marker2);marker-end:url(#Stop)"
       d="M 53.710417,129.64584 H 85.460416"
       id="path1"
       sodipodi:nodetypes="cc" />
    <path
       style="fill:none;fill-rule:evenodd;stroke:#000000;stroke-width:0.264583;stroke-dasharray:none;marker-start:url(#marker2-2);marker-end:url(#Stop-8)"
       d="m 77.522916,116.41667 h 7.9375"
       id="path1-3"
       sodipodi:nodetypes="cc" />
    <path
       style="fill:none;fill-rule:evenodd;stroke:#000000;stroke-width:0.264583;stroke-dasharray:0.264583, 0.79375;stroke-dashoffset:0"
       d="m 77.522916,125.67709 v -9.26042"
       id="path5"
       sodipodi:nodetypes="cc" />
    <text
       xml:space="preserve"
       style="font-size:3.175px;line-height:0.95;font-family:'TexMaths Roman';-inkscape-font-specification:'TexMaths Roman, Normal';text-align:center;text-anchor:middle;fill:#000000;fill-rule:evenodd;stroke:none;stroke-width:0.264583;stroke-dasharray:0.264583, 0.79375;stroke-dashoffset:0"
       x="48.94791"
       y="124.34413"
       id="text5"><tspan
         sodipodi:role="line"
         id="tspan5"
         style="text-align:center;text-anchor:middle;fill:#000000;stroke:none;stroke-width:0.264583"
         x="48.94791"
         y="124.34413" /></text>
    <path
       d="m 62.04838,123.12322 q 0.204638,0.0465 0.341064,0.22945 0.136426,0.17983 0.136426,0.41238 0,0.26975 -0.176734,0.46508 -0.176733,0.19534 -0.449584,0.19534 -0.195337,0 -0.347266,-0.0651 -0.151929,-0.0651 -0.235645,-0.15813 -0.06511,0.10232 -0.10542,0.16433 l -0.0093,0.0155 q -0.02791,0.0434 -0.04651,0.0434 -0.03721,0 -0.03721,-0.0775 v -0.63562 q 0,-0.0465 0.0062,-0.062 0.0093,-0.0155 0.03721,-0.0155 0.03411,0 0.03721,0.031 0.0093,0.31316 0.195337,0.48679 0.186035,0.17363 0.502295,0.17363 0.192236,0 0.306958,-0.13642 0.117822,-0.13953 0.117822,-0.31936 0,-0.17364 -0.09612,-0.29146 -0.04031,-0.0558 -0.09302,-0.0899 -0.05271,-0.0341 -0.08682,-0.0434 -0.03101,-0.0124 -0.08992,-0.0279 -0.375171,-0.0899 -0.42168,-0.10542 -0.186035,-0.0651 -0.300756,-0.22324 -0.114722,-0.15813 -0.114722,-0.35657 0,-0.25735 0.176733,-0.43718 0.179834,-0.17984 0.443384,-0.17984 0.130225,0 0.238745,0.0434 0.108521,0.0403 0.151929,0.0775 0.04651,0.0341 0.117822,0.10232 l 0.111621,-0.18294 q 0.02481,-0.0403 0.04651,-0.0403 0.02481,0 0.0279,0.0155 0.0062,0.0155 0.0062,0.062 v 0.63562 q 0,0.0341 -0.0031,0.0496 0,0.0124 -0.0093,0.0217 -0.0093,0.006 -0.0279,0.006 -0.03101,0 -0.03721,-0.0372 -0.08682,-0.66353 -0.620117,-0.66353 -0.182935,0 -0.300757,0.12402 -0.117822,0.12093 -0.117822,0.29146 0,0.13953 0.08682,0.25425 0.08992,0.11472 0.232544,0.14883 z m 1.711523,0.98909 q -0.04651,0.12092 -0.15813,0.19844 -0.10852,0.0775 -0.257348,0.0775 -0.114722,0 -0.223243,-0.0279 -0.10852,-0.0279 -0.198437,-0.10542 -0.08682,-0.0806 -0.08682,-0.20154 0,-0.26975 0.31626,-0.41238 0.192237,-0.093 0.586011,-0.11472 v -0.11782 q 0,-0.19534 -0.10542,-0.30076 -0.102319,-0.10542 -0.232544,-0.10542 -0.226343,0 -0.341064,0.14573 0.06511,0 0.10542,0.031 0.04031,0.031 0.04651,0.0589 0.0093,0.0279 0.0093,0.0558 0,0.0651 -0.04031,0.10542 -0.04031,0.0403 -0.10542,0.0403 -0.06511,0 -0.10542,-0.0372 -0.04031,-0.0403 -0.04031,-0.11162 0,-0.15503 0.139526,-0.25735 0.139527,-0.10232 0.337964,-0.10232 0.26045,0 0.437183,0.17673 0.05271,0.0558 0.07752,0.12712 0.0279,0.0682 0.03101,0.11163 0.0031,0.0434 0.0031,0.13332 v 0.63562 q 0,0.0186 0.0062,0.0496 0.0062,0.031 0.03411,0.0713 0.03101,0.0372 0.07751,0.0372 0.114722,0 0.114722,-0.20154 v -0.17673 h 0.08062 v 0.17673 q 0,0.16743 -0.08992,0.23565 -0.08682,0.0651 -0.170532,0.0651 -0.10542,0 -0.173633,-0.0775 -0.06511,-0.0775 -0.07441,-0.18294 z m -0.0217,-0.5209 q -0.186035,0.006 -0.322461,0.0558 -0.136426,0.0465 -0.204639,0.11783 -0.06821,0.0713 -0.09922,0.14262 -0.03101,0.0713 -0.03101,0.14263 0,0.11782 0.08372,0.19534 0.08371,0.0744 0.201538,0.0744 0.133325,0 0.251147,-0.10232 0.120923,-0.10232 0.120923,-0.30696 z m 1.11311,-1.44177 v 1.96267 q 0,0.10232 0.03721,0.12402 0.04031,0.0186 0.21084,0.0186 v 0.0992 q -0.04031,0 -0.120923,-0.003 -0.07751,-0.003 -0.136425,-0.003 -0.05891,-0.003 -0.09612,-0.003 -0.03411,0 -0.350366,0.009 v -0.0992 q 0.167432,0 0.207739,-0.0186 0.04031,-0.0217 0.04031,-0.12402 v -1.64951 q 0,-0.11782 -0.04341,-0.14883 -0.04031,-0.031 -0.204639,-0.031 v -0.0961 z m 0.877466,0.79995 v 1.16582 q 0,0.0961 0.03411,0.11782 0.03411,0.0217 0.189136,0.0217 v 0.0992 q -0.325561,-0.009 -0.331762,-0.009 -0.04031,0 -0.347266,0.009 v -0.0992 q 0.167432,0 0.207739,-0.0186 0.04031,-0.0217 0.04031,-0.12402 v -0.85266 q 0,-0.11782 -0.04031,-0.14573 -0.04031,-0.031 -0.195337,-0.031 v -0.0961 z m -0.03721,-0.67283 q 0.04961,0.0465 0.04961,0.12093 0,0.0744 -0.04961,0.12092 -0.04961,0.0465 -0.117822,0.0465 -0.07131,0 -0.120923,-0.0496 -0.04651,-0.0496 -0.04651,-0.11782 0,-0.0651 0.04651,-0.11472 0.04961,-0.0527 0.120923,-0.0527 0.06821,0 0.117822,0.0465 z m 1.559595,1.90376 q -0.164331,0.20774 -0.424781,0.20774 -0.275952,0 -0.474389,-0.20774 -0.198438,-0.20774 -0.198438,-0.50849 0,-0.30386 0.21084,-0.5116 0.21084,-0.21084 0.496094,-0.21084 0.238745,0 0.399975,0.19844 v -0.68523 q 0,-0.11782 -0.04341,-0.14883 -0.04031,-0.031 -0.204638,-0.031 v -0.0961 l 0.458886,-0.0372 v 1.92856 q 0,0.11783 0.04031,0.14883 0.04031,0.0279 0.207739,0.0279 v 0.0992 l -0.468188,0.0341 z m 0,-0.85266 q 0,-0.0651 -0.03411,-0.11782 -0.130224,-0.18914 -0.344165,-0.18914 -0.217041,0 -0.356567,0.20154 -0.09922,0.15193 -0.09922,0.45269 0,0.29455 0.09302,0.44028 0.130224,0.20464 0.331762,0.20464 0.232544,0 0.375171,-0.22324 0.03411,-0.0527 0.03411,-0.11782 z m 1.612305,0.78445 q -0.04651,0.12092 -0.15813,0.19844 -0.108521,0.0775 -0.257349,0.0775 -0.114721,0 -0.223242,-0.0279 -0.10852,-0.0279 -0.198437,-0.10542 -0.08682,-0.0806 -0.08682,-0.20154 0,-0.26975 0.31626,-0.41238 0.192236,-0.093 0.586011,-0.11472 v -0.11782 q 0,-0.19534 -0.10542,-0.30076 -0.10232,-0.10542 -0.232544,-0.10542 -0.226343,0 -0.341065,0.14573 0.06511,0 0.10542,0.031 0.04031,0.031 0.04651,0.0589 0.0093,0.0279 0.0093,0.0558 0,0.0651 -0.04031,0.10542 -0.04031,0.0403 -0.10542,0.0403 -0.06511,0 -0.10542,-0.0372 -0.04031,-0.0403 -0.04031,-0.11162 0,-0.15503 0.139526,-0.25735 0.139526,-0.10232 0.337964,-0.10232 0.260449,0 0.437183,0.17673 0.05271,0.0558 0.07751,0.12712 0.02791,0.0682 0.03101,0.11163 0.0031,0.0434 0.0031,0.13332 v 0.63562 q 0,0.0186 0.0062,0.0496 0.0062,0.031 0.03411,0.0713 0.03101,0.0372 0.07751,0.0372 0.114722,0 0.114722,-0.20154 v -0.17673 h 0.08062 v 0.17673 q 0,0.16743 -0.08992,0.23565 -0.08682,0.0651 -0.170532,0.0651 -0.10542,0 -0.173633,-0.0775 -0.06511,-0.0775 -0.07441,-0.18294 z m -0.0217,-0.5209 q -0.186036,0.006 -0.322461,0.0558 -0.136426,0.0465 -0.204639,0.11783 -0.06821,0.0713 -0.09922,0.14262 -0.03101,0.0713 -0.03101,0.14263 0,0.11782 0.08372,0.19534 0.08372,0.0744 0.201538,0.0744 0.133325,0 0.251148,-0.10232 0.120923,-0.10232 0.120923,-0.30696 z m 2.319238,-1.15962 v 1.67432 q 0,0.093 0.04031,0.12092 0.04341,0.0279 0.220142,0.0279 h 0.08372 v 0.0992 q -0.111622,-0.009 -0.486792,-0.009 -0.36897,0 -0.480591,0.009 v -0.0992 h 0.08061 q 0.176733,0 0.217041,-0.0279 0.04341,-0.0279 0.04341,-0.12092 v -1.67432 q 0,-0.093 -0.04341,-0.12092 -0.04031,-0.0279 -0.217041,-0.0279 h -0.08061 v -0.0961 q 0.111621,0.009 0.483691,0.009 0.37207,0 0.483692,-0.009 v 0.0961 h -0.08372 q -0.176734,0 -0.220142,0.0279 -0.04031,0.0279 -0.04031,0.12092 z m 2.27893,-0.23564 0.08992,0.71313 h -0.08061 q -0.0217,-0.17983 -0.04961,-0.28215 -0.02791,-0.10542 -0.09302,-0.18604 -0.06511,-0.0837 -0.176733,-0.11472 -0.111621,-0.0341 -0.288355,-0.0341 h -0.378271 q -0.108521,0 -0.133325,0.0217 -0.02481,0.0217 -0.02481,0.10542 v 0.80305 h 0.272851 q 0.217041,0 0.275953,-0.0775 0.06201,-0.0775 0.06201,-0.29146 h 0.08062 v 0.84026 h -0.08062 q 0,-0.21704 -0.06201,-0.29455 -0.05891,-0.0775 -0.275953,-0.0775 h -0.272851 v 0.78135 q 0,0.0651 0.0124,0.093 0.0124,0.0248 0.07751,0.0434 0.06511,0.0155 0.21394,0.0155 h 0.10232 v 0.0992 q -0.114722,-0.009 -0.533301,-0.009 -0.36897,0 -0.480591,0.009 v -0.0992 h 0.07441 q 0.173633,0 0.21084,-0.0279 0.04031,-0.0279 0.04031,-0.12092 v -1.66191 q 0,-0.093 -0.04031,-0.12093 -0.03721,-0.031 -0.21084,-0.031 h -0.07441 v -0.0961 z m 2.068091,0 0.08992,0.71313 h -0.08061 q -0.0217,-0.17983 -0.04961,-0.28215 -0.02791,-0.10542 -0.09302,-0.18604 -0.06511,-0.0837 -0.176734,-0.11472 -0.111621,-0.0341 -0.288354,-0.0341 h -0.378272 q -0.10852,0 -0.133325,0.0217 -0.02481,0.0217 -0.02481,0.10542 v 0.80305 h 0.272852 q 0.217041,0 0.275952,-0.0775 0.06201,-0.0775 0.06201,-0.29146 h 0.08061 v 0.84026 h -0.08061 q 0,-0.21704 -0.06201,-0.29455 -0.05891,-0.0775 -0.275952,-0.0775 h -0.272852 v 0.78135 q 0,0.0651 0.0124,0.093 0.0124,0.0248 0.07751,0.0434 0.06511,0.0155 0.213941,0.0155 h 0.102319 v 0.0992 q -0.114722,-0.009 -0.533301,-0.009 -0.368969,0 -0.48059,0.009 v -0.0992 h 0.07441 q 0.173632,0 0.210839,-0.0279 0.04031,-0.0279 0.04031,-0.12092 v -1.66191 q 0,-0.093 -0.04031,-0.12093 -0.03721,-0.031 -0.210839,-0.031 h -0.07441 v -0.0961 z m 2.334741,0.009 0.05891,0.71314 h -0.07751 q -0.0186,-0.21395 -0.04031,-0.31626 -0.0186,-0.10232 -0.08061,-0.17984 -0.06201,-0.0775 -0.164331,-0.0992 -0.09922,-0.0217 -0.285254,-0.0217 -0.130224,0 -0.182934,0.009 -0.03721,0.009 -0.04651,0.0341 -0.0093,0.0248 -0.0093,0.0837 v 1.67432 q 0,0.0651 0.0124,0.0899 0.0124,0.0248 0.08371,0.0434 0.07131,0.0186 0.235645,0.0186 h 0.127124 v 0.0992 q -0.130225,-0.009 -0.601514,-0.009 -0.471289,0 -0.601513,0.009 v -0.0992 h 0.127124 q 0.164331,0 0.235644,-0.0186 0.07441,-0.0186 0.08682,-0.0434 0.0124,-0.0248 0.0124,-0.0899 v -1.67432 q 0,-0.0434 -0.0031,-0.062 -0.0031,-0.0186 -0.0186,-0.0341 -0.0124,-0.0155 -0.04651,-0.0217 -0.04651,-0.009 -0.170532,-0.009 -0.124024,0 -0.20774,0.009 -0.08062,0.009 -0.145727,0.0403 -0.06201,0.0279 -0.09922,0.0651 -0.03411,0.0372 -0.05891,0.11782 -0.02481,0.0775 -0.03721,0.16123 -0.0124,0.0806 -0.02481,0.22325 h -0.07751 l 0.05891,-0.71314 z"
       id="text6"
       style="font-size:3.175px;line-height:0.95;font-family:'TexMaths Roman';-inkscape-font-specification:'TexMaths Roman, Normal';text-align:center;text-anchor:middle;fill-rule:evenodd;stroke-width:0.264583;stroke-dasharray:0.264583, 0.79375"
       aria-label="Salida IFFT" />
    <path
       id="rect1-4"
       style="fill:none;fill-rule:evenodd;stroke:#000000;stroke-width:0.264583"
       transform="rotate(90)"
       d="m 120.38542,-147.63753 h 5.29167 v 31.75 h -5.29167 z" />
    <path
       style="fill:none;fill-rule:evenodd;stroke:#000000;stroke-width:0.264583;stroke-dasharray:none;marker-start:url(#marker2-6);marker-end:url(#Stop-6)"
       d="m 107.95,129.64584 h 39.68751"
       id="path1-8"
       sodipodi:nodetypes="cc" />
    <path
       d="m 124.43528,123.12322 q 0.20464,0.0465 0.34107,0.22945 0.13642,0.17983 0.13642,0.41238 0,0.26975 -0.17673,0.46508 -0.17674,0.19534 -0.44959,0.19534 -0.19533,0 -0.34726,-0.0651 -0.15193,-0.0651 -0.23565,-0.15813 -0.0651,0.10232 -0.10542,0.16433 l -0.009,0.0155 q -0.0279,0.0434 -0.0465,0.0434 -0.0372,0 -0.0372,-0.0775 v -0.63562 q 0,-0.0465 0.006,-0.062 0.009,-0.0155 0.0372,-0.0155 0.0341,0 0.0372,0.031 0.009,0.31316 0.19534,0.48679 0.18603,0.17363 0.50229,0.17363 0.19224,0 0.30696,-0.13642 0.11782,-0.13953 0.11782,-0.31936 0,-0.17364 -0.0961,-0.29146 -0.0403,-0.0558 -0.093,-0.0899 -0.0527,-0.0341 -0.0868,-0.0434 -0.031,-0.0124 -0.0899,-0.0279 -0.37517,-0.0899 -0.42168,-0.10542 -0.18603,-0.0651 -0.30075,-0.22324 -0.11472,-0.15813 -0.11472,-0.35657 0,-0.25735 0.17673,-0.43718 0.17983,-0.17984 0.44338,-0.17984 0.13023,0 0.23875,0.0434 0.10852,0.0403 0.15193,0.0775 0.0465,0.0341 0.11782,0.10232 l 0.11162,-0.18294 q 0.0248,-0.0403 0.0465,-0.0403 0.0248,0 0.0279,0.0155 0.006,0.0155 0.006,0.062 v 0.63562 q 0,0.0341 -0.003,0.0496 0,0.0124 -0.009,0.0217 -0.009,0.006 -0.0279,0.006 -0.031,0 -0.0372,-0.0372 -0.0868,-0.66353 -0.62012,-0.66353 -0.18293,0 -0.30075,0.12402 -0.11783,0.12093 -0.11783,0.29146 0,0.13953 0.0868,0.25425 0.0899,0.11472 0.23254,0.14883 z m 1.71152,0.98909 q -0.0465,0.12092 -0.15812,0.19844 -0.10853,0.0775 -0.25735,0.0775 -0.11473,0 -0.22325,-0.0279 -0.10852,-0.0279 -0.19843,-0.10542 -0.0868,-0.0806 -0.0868,-0.20154 0,-0.26975 0.31626,-0.41238 0.19224,-0.093 0.58601,-0.11472 v -0.11782 q 0,-0.19534 -0.10542,-0.30076 -0.10232,-0.10542 -0.23254,-0.10542 -0.22635,0 -0.34107,0.14573 0.0651,0 0.10542,0.031 0.0403,0.031 0.0465,0.0589 0.009,0.0279 0.009,0.0558 0,0.0651 -0.0403,0.10542 -0.0403,0.0403 -0.10542,0.0403 -0.0651,0 -0.10542,-0.0372 -0.0403,-0.0403 -0.0403,-0.11162 0,-0.15503 0.13952,-0.25735 0.13953,-0.10232 0.33797,-0.10232 0.26045,0 0.43718,0.17673 0.0527,0.0558 0.0775,0.12712 0.0279,0.0682 0.031,0.11163 0.003,0.0434 0.003,0.13332 v 0.63562 q 0,0.0186 0.006,0.0496 0.006,0.031 0.0341,0.0713 0.031,0.0372 0.0775,0.0372 0.11473,0 0.11473,-0.20154 v -0.17673 h 0.0806 v 0.17673 q 0,0.16743 -0.0899,0.23565 -0.0868,0.0651 -0.17053,0.0651 -0.10542,0 -0.17363,-0.0775 -0.0651,-0.0775 -0.0744,-0.18294 z m -0.0217,-0.5209 q -0.18603,0.006 -0.32246,0.0558 -0.13643,0.0465 -0.20464,0.11783 -0.0682,0.0713 -0.0992,0.14262 -0.031,0.0713 -0.031,0.14263 0,0.11782 0.0837,0.19534 0.0837,0.0744 0.20154,0.0744 0.13333,0 0.25115,-0.10232 0.12092,-0.10232 0.12092,-0.30696 z m 1.11311,-1.44177 v 1.96267 q 0,0.10232 0.0372,0.12402 0.0403,0.0186 0.21084,0.0186 v 0.0992 q -0.0403,0 -0.12092,-0.003 -0.0775,-0.003 -0.13643,-0.003 -0.0589,-0.003 -0.0961,-0.003 -0.0341,0 -0.35036,0.009 v -0.0992 q 0.16743,0 0.20773,-0.0186 0.0403,-0.0217 0.0403,-0.12402 v -1.64951 q 0,-0.11782 -0.0434,-0.14883 -0.0403,-0.031 -0.20463,-0.031 v -0.0961 z m 0.87747,0.79995 v 1.16582 q 0,0.0961 0.0341,0.11782 0.0341,0.0217 0.18914,0.0217 v 0.0992 q -0.32556,-0.009 -0.33176,-0.009 -0.0403,0 -0.34727,0.009 v -0.0992 q 0.16743,0 0.20774,-0.0186 0.0403,-0.0217 0.0403,-0.12402 v -0.85266 q 0,-0.11782 -0.0403,-0.14573 -0.0403,-0.031 -0.19534,-0.031 v -0.0961 z m -0.0372,-0.67283 q 0.0496,0.0465 0.0496,0.12093 0,0.0744 -0.0496,0.12092 -0.0496,0.0465 -0.11782,0.0465 -0.0713,0 -0.12093,-0.0496 -0.0465,-0.0496 -0.0465,-0.11782 0,-0.0651 0.0465,-0.11472 0.0496,-0.0527 0.12093,-0.0527 0.0682,0 0.11782,0.0465 z m 1.55959,1.90376 q -0.16433,0.20774 -0.42478,0.20774 -0.27595,0 -0.47439,-0.20774 -0.19843,-0.20774 -0.19843,-0.50849 0,-0.30386 0.21084,-0.5116 0.21084,-0.21084 0.49609,-0.21084 0.23875,0 0.39998,0.19844 v -0.68523 q 0,-0.11782 -0.0434,-0.14883 -0.0403,-0.031 -0.20464,-0.031 v -0.0961 l 0.45889,-0.0372 v 1.92856 q 0,0.11783 0.0403,0.14883 0.0403,0.0279 0.20774,0.0279 v 0.0992 l -0.46819,0.0341 z m 0,-0.85266 q 0,-0.0651 -0.0341,-0.11782 -0.13023,-0.18914 -0.34417,-0.18914 -0.21704,0 -0.35656,0.20154 -0.0992,0.15193 -0.0992,0.45269 0,0.29455 0.093,0.44028 0.13023,0.20464 0.33177,0.20464 0.23254,0 0.37517,-0.22324 0.0341,-0.0527 0.0341,-0.11782 z m 1.61231,0.78445 q -0.0465,0.12092 -0.15813,0.19844 -0.10852,0.0775 -0.25735,0.0775 -0.11472,0 -0.22324,-0.0279 -0.10852,-0.0279 -0.19844,-0.10542 -0.0868,-0.0806 -0.0868,-0.20154 0,-0.26975 0.31626,-0.41238 0.19224,-0.093 0.58602,-0.11472 v -0.11782 q 0,-0.19534 -0.10542,-0.30076 -0.10232,-0.10542 -0.23255,-0.10542 -0.22634,0 -0.34106,0.14573 0.0651,0 0.10542,0.031 0.0403,0.031 0.0465,0.0589 0.009,0.0279 0.009,0.0558 0,0.0651 -0.0403,0.10542 -0.0403,0.0403 -0.10542,0.0403 -0.0651,0 -0.10542,-0.0372 -0.0403,-0.0403 -0.0403,-0.11162 0,-0.15503 0.13953,-0.25735 0.13953,-0.10232 0.33796,-0.10232 0.26045,0 0.43719,0.17673 0.0527,0.0558 0.0775,0.12712 0.0279,0.0682 0.031,0.11163 0.003,0.0434 0.003,0.13332 v 0.63562 q 0,0.0186 0.006,0.0496 0.006,0.031 0.0341,0.0713 0.031,0.0372 0.0775,0.0372 0.11472,0 0.11472,-0.20154 v -0.17673 h 0.0806 v 0.17673 q 0,0.16743 -0.0899,0.23565 -0.0868,0.0651 -0.17053,0.0651 -0.10542,0 -0.17364,-0.0775 -0.0651,-0.0775 -0.0744,-0.18294 z m -0.0217,-0.5209 q -0.18604,0.006 -0.32247,0.0558 -0.13642,0.0465 -0.20463,0.11783 -0.0682,0.0713 -0.0992,0.14262 -0.031,0.0713 -0.031,0.14263 0,0.11782 0.0837,0.19534 0.0837,0.0744 0.20154,0.0744 0.13332,0 0.25114,-0.10232 0.12093,-0.10232 0.12093,-0.30696 z m 2.31923,-1.15962 v 1.67432 q 0,0.093 0.0403,0.12092 0.0434,0.0279 0.22014,0.0279 h 0.0837 v 0.0992 q -0.11162,-0.009 -0.48679,-0.009 -0.36897,0 -0.48059,0.009 v -0.0992 h 0.0806 q 0.17673,0 0.21704,-0.0279 0.0434,-0.0279 0.0434,-0.12092 v -1.67432 q 0,-0.093 -0.0434,-0.12092 -0.0403,-0.0279 -0.21704,-0.0279 h -0.0806 v -0.0961 q 0.11162,0.009 0.48369,0.009 0.37207,0 0.48369,-0.009 v 0.0961 h -0.0837 q -0.17673,0 -0.22014,0.0279 -0.0403,0.0279 -0.0403,0.12092 z m 2.27893,-0.23564 0.0899,0.71313 h -0.0806 q -0.0217,-0.17983 -0.0496,-0.28215 -0.0279,-0.10542 -0.093,-0.18604 -0.0651,-0.0837 -0.17673,-0.11472 -0.11163,-0.0341 -0.28836,-0.0341 h -0.37827 q -0.10852,0 -0.13333,0.0217 -0.0248,0.0217 -0.0248,0.10542 v 0.80305 h 0.27285 q 0.21704,0 0.27595,-0.0775 0.062,-0.0775 0.062,-0.29146 h 0.0806 v 0.84026 h -0.0806 q 0,-0.21704 -0.062,-0.29455 -0.0589,-0.0775 -0.27595,-0.0775 h -0.27285 v 0.78135 q 0,0.0651 0.0124,0.093 0.0124,0.0248 0.0775,0.0434 0.0651,0.0155 0.21394,0.0155 h 0.10232 v 0.0992 q -0.11473,-0.009 -0.5333,-0.009 -0.36897,0 -0.4806,0.009 v -0.0992 h 0.0744 q 0.17363,0 0.21084,-0.0279 0.0403,-0.0279 0.0403,-0.12092 v -1.66191 q 0,-0.093 -0.0403,-0.12093 -0.0372,-0.031 -0.21084,-0.031 h -0.0744 v -0.0961 z m 2.06809,0 0.0899,0.71313 h -0.0806 q -0.0217,-0.17983 -0.0496,-0.28215 -0.0279,-0.10542 -0.093,-0.18604 -0.0651,-0.0837 -0.17673,-0.11472 -0.11163,-0.0341 -0.28836,-0.0341 h -0.37827 q -0.10852,0 -0.13333,0.0217 -0.0248,0.0217 -0.0248,0.10542 v 0.80305 h 0.27285 q 0.21704,0 0.27595,-0.0775 0.062,-0.0775 0.062,-0.29146 h 0.0806 v 0.84026 h -0.0806 q 0,-0.21704 -0.062,-0.29455 -0.0589,-0.0775 -0.27595,-0.0775 h -0.27285 v 0.78135 q 0,0.0651 0.0124,0.093 0.0124,0.0248 0.0775,0.0434 0.0651,0.0155 0.21394,0.0155 h 0.10232 v 0.0992 q -0.11472,-0.009 -0.5333,-0.009 -0.36897,0 -0.48059,0.009 v -0.0992 h 0.0744 q 0.17363,0 0.21084,-0.0279 0.0403,-0.0279 0.0403,-0.12092 v -1.66191 q 0,-0.093 -0.0403,-0.12093 -0.0372,-0.031 -0.21084,-0.031 h -0.0744 v -0.0961 z m 2.33475,0.009 0.0589,0.71314 h -0.0775 q -0.0186,-0.21395 -0.0403,-0.31626 -0.0186,-0.10232 -0.0806,-0.17984 -0.062,-0.0775 -0.16433,-0.0992 -0.0992,-0.0217 -0.28526,-0.0217 -0.13022,0 -0.18293,0.009 -0.0372,0.009 -0.0465,0.0341 -0.009,0.0248 -0.009,0.0837 v 1.67432 q 0,0.0651 0.0124,0.0899 0.0124,0.0248 0.0837,0.0434 0.0713,0.0186 0.23564,0.0186 h 0.12713 v 0.0992 q -0.13023,-0.009 -0.60152,-0.009 -0.47129,0 -0.60151,0.009 v -0.0992 h 0.12712 q 0.16433,0 0.23565,-0.0186 0.0744,-0.0186 0.0868,-0.0434 0.0124,-0.0248 0.0124,-0.0899 v -1.67432 q 0,-0.0434 -0.003,-0.062 -0.003,-0.0186 -0.0186,-0.0341 -0.0124,-0.0155 -0.0465,-0.0217 -0.0465,-0.009 -0.17053,-0.009 -0.12402,0 -0.20774,0.009 -0.0806,0.009 -0.14573,0.0403 -0.062,0.0279 -0.0992,0.0651 -0.0341,0.0372 -0.0589,0.11782 -0.0248,0.0775 -0.0372,0.16123 -0.0124,0.0806 -0.0248,0.22325 h -0.0775 l 0.0589,-0.71314 z"
       id="text6-9"
       style="font-size:3.175px;line-height:0.95;font-family:'TexMaths Roman';-inkscape-font-specification:'TexMaths Roman, Normal';text-align:center;text-anchor:middle;fill-rule:evenodd;stroke-width:0.264583;stroke-dasharray:0.264583, 0.79375"
       aria-label="Salida IFFT" />
    <g
       id="text8"
       style="font-size:2.82222px;line-height:0.95;font-family:'TexMaths Roman';-inkscape-font-specification:'TexMaths Roman, Normal';text-align:center;text-anchor:middle;fill-rule:evenodd;stroke-width:0.264583;stroke-dasharray:0.264583, 0.79375"
       aria-label="TFFT (NFFT muestras)">
      <path
         style="font-family:'TexMaths Symbols';-inkscape-font-specification:'TexMaths Symbols'"
         d="m 57.875962,132.27207 -0.374827,1.4993 q -0.01102,0.0413 -0.01102,0.0606 0,0.0331 0.01929,0.0441 0.02205,0.011 0.08544,0.0165 0.07441,0.006 0.179145,0.006 0.05788,0 0.07717,0.006 0.01929,0.006 0.01929,0.0276 0,0.0551 -0.06063,0.0551 -0.03858,0 -0.121267,-0.003 -0.08268,-0.003 -0.124024,-0.003 -0.03859,0 -0.115755,0 -0.07717,-0.003 -0.118511,-0.003 -0.04134,0 -0.121267,0.003 -0.07993,0 -0.118512,0 -0.03858,0 -0.115755,0.003 -0.07717,0.003 -0.115755,0.003 -0.04961,0 -0.04961,-0.0331 0,-0.0386 0.01929,-0.0469 0.01929,-0.008 0.09922,-0.008 0.151584,0 0.21773,-0.0138 0.0689,-0.0138 0.08544,-0.0358 0.01929,-0.0248 0.03307,-0.0854 l 0.377582,-1.50757 q 0.01103,-0.0331 0.01103,-0.0579 0,-0.011 -0.0028,-0.0138 0,-0.006 -0.0055,-0.011 -0.0055,-0.008 -0.02205,-0.008 -0.01654,-0.003 -0.04685,-0.003 h -0.110243 q -0.16812,0 -0.25907,0.0138 -0.08819,0.0138 -0.162609,0.0689 -0.07441,0.0551 -0.118511,0.14332 -0.0441,0.0882 -0.104731,0.26458 -0.01929,0.0524 -0.03307,0.0551 -0.0055,0.003 -0.01378,0.003 -0.03307,0 -0.03307,-0.0303 0,-0.0193 0.01654,-0.0524 l 0.168121,-0.49609 q 0.01378,-0.0386 0.02481,-0.0469 0.01378,-0.008 0.06614,-0.008 h 1.565451 q 0.07717,0 0.07717,0.0303 0,0.0248 -0.0055,0.0469 l -0.07717,0.49334 q -0.0083,0.0634 -0.04134,0.0634 -0.03307,0 -0.03307,-0.0358 0,-0.0221 0.0083,-0.0551 0.02205,-0.14883 0.02205,-0.226 0,-0.15434 -0.08819,-0.19292 -0.08544,-0.0386 -0.325217,-0.0386 -0.14056,0 -0.176389,0.008 -0.0248,0.006 -0.03858,0.0248 -0.01378,0.0193 -0.02756,0.0772 z"
         id="path19" />
      <path
         style="font-size:1.83444px;font-family:'TexMaths Symbols';-inkscape-font-specification:'TexMaths Symbols';baseline-shift:sub"
         d="m 58.875038,133.95424 -0.112861,0.45681 q -0.0072,0.0269 -0.0072,0.043 0,0.0179 0.009,0.0251 0.01075,0.007 0.04837,0.0108 0.04658,0.004 0.09674,0.004 0.04479,0 0.05016,0.002 l 0.0018,0.002 q 0.0036,0.004 0.0072,0.009 0.0036,0.004 0.0036,0.0108 0,0.034 -0.03941,0.034 -0.03045,0 -0.137942,-0.002 -0.105695,-0.004 -0.13615,-0.004 -0.02687,0 -0.121818,0.004 -0.09316,0.002 -0.120027,0.002 -0.02687,0 -0.02687,-0.0215 0,-0.0161 0.0072,-0.0233 0.0072,-0.009 0.01612,-0.0108 0.01075,-0.002 0.02866,-0.002 0.103904,0 0.127193,-0.0143 0.02508,-0.0143 0.03941,-0.0717 l 0.241845,-0.97096 q 0.009,-0.0323 0.009,-0.043 0,-0.0215 -0.02866,-0.0269 -0.02866,-0.007 -0.09136,-0.007 -0.03045,0 -0.0412,-0.002 -0.009,-0.004 -0.009,-0.0179 0,-0.0251 0.01075,-0.0305 0.01254,-0.005 0.04479,-0.005 h 0.897515 q 0.03762,0 0.04479,0.007 0.009,0.005 0.0054,0.0412 l -0.03762,0.31708 q -0.0018,0.0197 -0.0036,0.0287 -0.0018,0.007 -0.0072,0.0125 -0.0054,0.005 -0.01433,0.005 -0.0215,0 -0.0215,-0.0215 0,-0.0108 0.0036,-0.034 0.0054,-0.0502 0.0054,-0.0985 0,-0.11286 -0.05374,-0.15765 -0.05374,-0.0448 -0.214974,-0.0448 h -0.241846 q -0.05912,0 -0.07345,0.0108 -0.01254,0.0108 -0.02508,0.0609 l -0.118236,0.46578 h 0.168396 q 0.116444,0 0.161231,-0.034 0.04479,-0.034 0.07524,-0.14152 0.0054,-0.0233 0.009,-0.0305 0.0054,-0.007 0.01791,-0.007 0.0215,0 0.0215,0.0197 0,0.009 -0.0054,0.0287 l -0.100321,0.39949 q -0.01791,0.0358 -0.02687,0.0376 -0.02329,0 -0.02329,-0.0215 0,-0.009 0.0054,-0.0215 0.01433,-0.0627 0.01433,-0.0896 0,-0.0448 -0.02866,-0.0627 -0.02687,-0.0197 -0.12361,-0.0197 z m 1.178773,0 -0.112861,0.45681 q -0.0072,0.0269 -0.0072,0.043 0,0.0179 0.009,0.0251 0.01075,0.007 0.04837,0.0108 0.04658,0.004 0.09674,0.004 0.04479,0 0.05016,0.002 l 0.0018,0.002 q 0.0036,0.004 0.0072,0.009 0.0036,0.004 0.0036,0.0108 0,0.034 -0.03941,0.034 -0.03045,0 -0.137942,-0.002 -0.105695,-0.004 -0.13615,-0.004 -0.02687,0 -0.121818,0.004 -0.09316,0.002 -0.120027,0.002 -0.02687,0 -0.02687,-0.0215 0,-0.0161 0.0072,-0.0233 0.0072,-0.009 0.01612,-0.0108 0.01075,-0.002 0.02866,-0.002 0.103904,0 0.127193,-0.0143 0.02508,-0.0143 0.03941,-0.0717 l 0.241845,-0.97096 q 0.009,-0.0323 0.009,-0.043 0,-0.0215 -0.02866,-0.0269 -0.02866,-0.007 -0.09136,-0.007 -0.03045,0 -0.0412,-0.002 -0.009,-0.004 -0.009,-0.0179 0,-0.0251 0.01075,-0.0305 0.01254,-0.005 0.04479,-0.005 h 0.897515 q 0.03762,0 0.04479,0.007 0.009,0.005 0.0054,0.0412 l -0.03762,0.31708 q -0.0018,0.0197 -0.0036,0.0287 -0.0018,0.007 -0.0072,0.0125 -0.0054,0.005 -0.01433,0.005 -0.0215,0 -0.0215,-0.0215 0,-0.0108 0.0036,-0.034 0.0054,-0.0502 0.0054,-0.0985 0,-0.11286 -0.05374,-0.15765 -0.05374,-0.0448 -0.214973,-0.0448 h -0.241846 q -0.05912,0 -0.07345,0.0108 -0.01254,0.0108 -0.02508,0.0609 l -0.118235,0.46578 h 0.168396 q 0.116444,0 0.16123,-0.034 0.04479,-0.034 0.07524,-0.14152 0.0054,-0.0233 0.009,-0.0305 0.0054,-0.007 0.01792,-0.007 0.0215,0 0.0215,0.0197 0,0.009 -0.0054,0.0287 l -0.100321,0.39949 q -0.01792,0.0358 -0.02687,0.0376 -0.02329,0 -0.02329,-0.0215 0,-0.009 0.0054,-0.0215 0.01433,-0.0627 0.01433,-0.0896 0,-0.0448 -0.02866,-0.0627 -0.02687,-0.0197 -0.12361,-0.0197 z m 1.406287,-0.51773 -0.243637,0.97454 q -0.0072,0.0269 -0.0072,0.0394 0,0.0215 0.01254,0.0287 0.01433,0.007 0.05553,0.0108 0.04837,0.004 0.116445,0.004 0.03762,0 0.05016,0.004 0.01254,0.004 0.01254,0.0179 0,0.0358 -0.03941,0.0358 -0.02508,0 -0.07882,-0.002 -0.05374,-0.002 -0.08062,-0.002 -0.02508,0 -0.07524,0 -0.05016,-0.002 -0.07703,-0.002 -0.02687,0 -0.07882,0.002 -0.05195,0 -0.07703,0 -0.02508,0 -0.07524,0.002 -0.05016,0.002 -0.07524,0.002 -0.03225,0 -0.03225,-0.0215 0,-0.0251 0.01254,-0.0305 0.01254,-0.005 0.06449,-0.005 0.09853,0 0.141524,-0.009 0.04479,-0.009 0.05554,-0.0233 0.01254,-0.0161 0.0215,-0.0555 l 0.245428,-0.97992 q 0.0072,-0.0215 0.0072,-0.0376 0,-0.007 -0.0018,-0.009 0,-0.004 -0.0036,-0.007 -0.0036,-0.005 -0.01433,-0.005 -0.01075,-0.002 -0.03045,-0.002 h -0.07166 q -0.109278,0 -0.168396,0.009 -0.05733,0.009 -0.105695,0.0448 -0.04837,0.0358 -0.07703,0.0932 -0.02866,0.0573 -0.06808,0.17198 -0.01254,0.034 -0.0215,0.0358 -0.0036,0.002 -0.009,0.002 -0.0215,0 -0.0215,-0.0197 0,-0.0125 0.01075,-0.034 l 0.109279,-0.32246 q 0.009,-0.0251 0.01612,-0.0304 0.009,-0.005 0.04299,-0.005 h 1.017543 q 0.05016,0 0.05016,0.0197 0,0.0161 -0.0036,0.0304 l -0.05016,0.32067 q -0.0054,0.0412 -0.02687,0.0412 -0.0215,0 -0.0215,-0.0233 0,-0.0143 0.0054,-0.0358 0.01433,-0.0967 0.01433,-0.1469 0,-0.10032 -0.05733,-0.1254 -0.05553,-0.0251 -0.21139,-0.0251 -0.09136,0 -0.114653,0.005 -0.01612,0.004 -0.02508,0.0161 -0.009,0.0125 -0.01791,0.0502 z"
         id="path20" />
      <path
         d="m 63.619896,134.66434 q 0,0.0276 -0.02756,0.0276 -0.01929,0 -0.08819,-0.0579 -0.06615,-0.0551 -0.170877,-0.18741 -0.104731,-0.12954 -0.181901,-0.28663 -0.187413,-0.38861 -0.187413,-0.87919 0,-0.47129 0.179145,-0.8599 0.07441,-0.16261 0.181901,-0.29765 0.107487,-0.13505 0.176389,-0.19293 0.07166,-0.0606 0.09095,-0.0606 0.02756,0 0.02756,0.0276 0,0.0165 -0.03583,0.0496 -0.454752,0.46302 -0.454752,1.33394 0,0.87367 0.443728,1.32016 0.04685,0.0468 0.04685,0.0634 z"
         id="path21" />
      <path
         style="font-family:'TexMaths Symbols';-inkscape-font-specification:'TexMaths Symbols'"
         d="m 65.91295,132.35475 -0.394119,1.57096 q -0.01102,0.0413 -0.01929,0.0524 -0.0055,0.008 -0.02756,0.008 -0.01929,0 -0.03032,-0.008 -0.0083,-0.011 -0.02205,-0.0441 l -0.702799,-1.66467 -0.0248,-0.0496 -0.37207,1.49104 q -0.01378,0.0496 -0.01378,0.0634 0,0.11851 0.187413,0.12402 0.05788,0 0.05788,0.0331 0,0.0551 -0.05237,0.0551 -0.04685,0 -0.143316,-0.003 -0.09646,-0.006 -0.146072,-0.006 -0.04685,0 -0.143316,0.006 -0.09646,0.003 -0.14056,0.003 -0.03583,0 -0.03583,-0.0303 0,-0.0579 0.04685,-0.0579 0.157097,-0.006 0.21773,-0.0579 0.06339,-0.0551 0.08819,-0.15434 l 0.377582,-1.51308 q 0,-0.0276 -0.190169,-0.0276 -0.04685,0 -0.06339,-0.003 -0.01654,-0.006 -0.01654,-0.0276 0,-0.0386 0.01654,-0.0469 0.01929,-0.008 0.06615,-0.008 h 0.377582 q 0.04961,0 0.06063,0.008 0.01378,0.006 0.03032,0.0441 l 0.622873,1.4745 0.316949,-1.25677 q 0.0083,-0.0248 0.0083,-0.0606 0,-0.12127 -0.192925,-0.12402 -0.04961,0 -0.04961,-0.0303 0,-0.0551 0.04961,-0.0551 0.04685,0 0.14056,0.006 0.09646,0.003 0.146071,0.003 0.04685,0 0.143316,-0.003 0.09646,-0.006 0.143316,-0.006 0.03583,0 0.03583,0.0303 0,0.0551 -0.04685,0.0551 -0.15434,0.006 -0.21773,0.0579 -0.06339,0.0524 -0.08819,0.15159 z"
         id="path22" />
      <path
         style="font-size:1.83444px;font-family:'TexMaths Symbols';-inkscape-font-specification:'TexMaths Symbols';baseline-shift:sub"
         d="m 66.60059,133.95424 -0.112861,0.45681 q -0.0072,0.0269 -0.0072,0.043 0,0.0179 0.009,0.0251 0.01075,0.007 0.04837,0.0108 0.04658,0.004 0.09674,0.004 0.04479,0 0.05016,0.002 l 0.0018,0.002 q 0.0036,0.004 0.0072,0.009 0.0036,0.004 0.0036,0.0108 0,0.034 -0.03941,0.034 -0.03045,0 -0.137941,-0.002 -0.105696,-0.004 -0.13615,-0.004 -0.02687,0 -0.121819,0.004 -0.09315,0.002 -0.120027,0.002 -0.02687,0 -0.02687,-0.0215 0,-0.0161 0.0072,-0.0233 0.0072,-0.009 0.01612,-0.0108 0.01075,-0.002 0.02866,-0.002 0.103904,0 0.127192,-0.0143 0.02508,-0.0143 0.03941,-0.0717 l 0.241846,-0.97096 q 0.009,-0.0323 0.009,-0.043 0,-0.0215 -0.02866,-0.0269 -0.02866,-0.007 -0.09136,-0.007 -0.03045,0 -0.0412,-0.002 -0.009,-0.004 -0.009,-0.0179 0,-0.0251 0.01075,-0.0305 0.01254,-0.005 0.04479,-0.005 h 0.897516 q 0.03762,0 0.04479,0.007 0.009,0.005 0.0054,0.0412 l -0.03762,0.31708 q -0.0018,0.0197 -0.0036,0.0287 -0.0018,0.007 -0.0072,0.0125 -0.0054,0.005 -0.01433,0.005 -0.0215,0 -0.0215,-0.0215 0,-0.0108 0.0036,-0.034 0.0054,-0.0502 0.0054,-0.0985 0,-0.11286 -0.05374,-0.15765 -0.05374,-0.0448 -0.214974,-0.0448 h -0.241845 q -0.05912,0 -0.07345,0.0108 -0.01254,0.0108 -0.02508,0.0609 l -0.118235,0.46578 h 0.168396 q 0.116444,0 0.16123,-0.034 0.04479,-0.034 0.07524,-0.14152 0.0054,-0.0233 0.009,-0.0305 0.0054,-0.007 0.01792,-0.007 0.0215,0 0.0215,0.0197 0,0.009 -0.0054,0.0287 l -0.100321,0.39949 q -0.01792,0.0358 -0.02687,0.0376 -0.02329,0 -0.02329,-0.0215 0,-0.009 0.0054,-0.0215 0.01433,-0.0627 0.01433,-0.0896 0,-0.0448 -0.02866,-0.0627 -0.02687,-0.0197 -0.12361,-0.0197 z m 1.178773,0 -0.112861,0.45681 q -0.0072,0.0269 -0.0072,0.043 0,0.0179 0.009,0.0251 0.01075,0.007 0.04837,0.0108 0.04658,0.004 0.09674,0.004 0.04479,0 0.05016,0.002 l 0.0018,0.002 q 0.0036,0.004 0.0072,0.009 0.0036,0.004 0.0036,0.0108 0,0.034 -0.03941,0.034 -0.03045,0 -0.137941,-0.002 -0.105696,-0.004 -0.13615,-0.004 -0.02687,0 -0.121819,0.004 -0.09316,0.002 -0.120027,0.002 -0.02687,0 -0.02687,-0.0215 0,-0.0161 0.0072,-0.0233 0.0072,-0.009 0.01612,-0.0108 0.01075,-0.002 0.02866,-0.002 0.103904,0 0.127193,-0.0143 0.02508,-0.0143 0.03941,-0.0717 l 0.241846,-0.97096 q 0.009,-0.0323 0.009,-0.043 0,-0.0215 -0.02866,-0.0269 -0.02866,-0.007 -0.09136,-0.007 -0.03046,0 -0.0412,-0.002 -0.009,-0.004 -0.009,-0.0179 0,-0.0251 0.01075,-0.0305 0.01254,-0.005 0.04479,-0.005 h 0.897516 q 0.03762,0 0.04479,0.007 0.009,0.005 0.0054,0.0412 l -0.03762,0.31708 q -0.0018,0.0197 -0.0036,0.0287 -0.0018,0.007 -0.0072,0.0125 -0.0054,0.005 -0.01433,0.005 -0.0215,0 -0.0215,-0.0215 0,-0.0108 0.0036,-0.034 0.0054,-0.0502 0.0054,-0.0985 0,-0.11286 -0.05374,-0.15765 -0.05374,-0.0448 -0.214974,-0.0448 H 68.01046 q -0.05912,0 -0.07345,0.0108 -0.01254,0.0108 -0.02508,0.0609 l -0.118236,0.46578 h 0.168397 q 0.116444,0 0.16123,-0.034 0.04479,-0.034 0.07524,-0.14152 0.0054,-0.0233 0.009,-0.0305 0.0054,-0.007 0.01792,-0.007 0.0215,0 0.0215,0.0197 0,0.009 -0.0054,0.0287 l -0.100322,0.39949 q -0.01791,0.0358 -0.02687,0.0376 -0.02329,0 -0.02329,-0.0215 0,-0.009 0.0054,-0.0215 0.01433,-0.0627 0.01433,-0.0896 0,-0.0448 -0.02866,-0.0627 -0.02687,-0.0197 -0.12361,-0.0197 z m 1.406287,-0.51773 -0.243637,0.97454 q -0.0072,0.0269 -0.0072,0.0394 0,0.0215 0.01254,0.0287 0.01433,0.007 0.05553,0.0108 0.04837,0.004 0.116444,0.004 0.03762,0 0.05016,0.004 0.01254,0.004 0.01254,0.0179 0,0.0358 -0.03941,0.0358 -0.02508,0 -0.07882,-0.002 -0.05374,-0.002 -0.08061,-0.002 -0.02508,0 -0.07524,0 -0.05016,-0.002 -0.07703,-0.002 -0.02687,0 -0.07882,0.002 -0.05195,0 -0.07703,0 -0.02508,0 -0.07524,0.002 -0.05016,0.002 -0.07524,0.002 -0.03225,0 -0.03225,-0.0215 0,-0.0251 0.01254,-0.0305 0.01254,-0.005 0.06449,-0.005 0.09853,0 0.141524,-0.009 0.04479,-0.009 0.05554,-0.0233 0.01254,-0.0161 0.0215,-0.0555 l 0.245429,-0.97992 q 0.0072,-0.0215 0.0072,-0.0376 0,-0.007 -0.0018,-0.009 0,-0.004 -0.0036,-0.007 -0.0036,-0.005 -0.01433,-0.005 -0.01075,-0.002 -0.03046,-0.002 h -0.07166 q -0.109278,0 -0.168396,0.009 -0.05733,0.009 -0.105696,0.0448 -0.04837,0.0358 -0.07703,0.0932 -0.02866,0.0573 -0.06807,0.17198 -0.01254,0.034 -0.0215,0.0358 -0.0036,0.002 -0.009,0.002 -0.0215,0 -0.0215,-0.0197 0,-0.0125 0.01075,-0.034 l 0.109278,-0.32246 q 0.009,-0.0251 0.01612,-0.0304 0.009,-0.005 0.04299,-0.005 h 1.017542 q 0.05016,0 0.05016,0.0197 0,0.0161 -0.0036,0.0304 l -0.05016,0.32067 q -0.0054,0.0412 -0.02687,0.0412 -0.0215,0 -0.0215,-0.0233 0,-0.0143 0.0054,-0.0358 0.01433,-0.0967 0.01433,-0.1469 0,-0.10032 -0.05733,-0.1254 -0.05553,-0.0251 -0.211391,-0.0251 -0.09136,0 -0.114652,0.005 -0.01612,0.004 -0.02508,0.0161 -0.009,0.0125 -0.01791,0.0502 z"
         id="path24" />
      <path
         d="m 70.722575,133.01621 q 0,-0.10474 -0.03859,-0.1323 -0.03583,-0.0276 -0.181901,-0.0276 v -0.0854 l 0.396874,-0.0331 v 0.29766 q 0.137804,-0.29766 0.418924,-0.29766 0.330729,0 0.374826,0.27837 0.04685,-0.10749 0.148828,-0.19293 0.101975,-0.0854 0.259071,-0.0854 0.212217,0 0.297656,0.10473 0.06063,0.0717 0.07441,0.15159 0.01378,0.0772 0.01378,0.28112 v 0.54019 q 0.0028,0.0579 0.0441,0.0717 0.0441,0.011 0.162609,0.011 0.0083,0 0.01378,0 v 0.0882 q -0.289388,-0.008 -0.316948,-0.008 -0.02205,0 -0.319705,0.008 v -0.0882 q 0.148828,0 0.184657,-0.0165 0.03583,-0.0193 0.03583,-0.11024 v -0.65595 q 0,-0.14331 -0.0441,-0.22875 -0.0441,-0.0854 -0.165365,-0.0854 -0.148828,0 -0.264583,0.12402 -0.115755,0.12127 -0.115755,0.32798 v 0.51814 q 0,0.091 0.03583,0.11024 0.03583,0.0165 0.184657,0.0165 v 0.0882 q -0.289388,-0.008 -0.316949,-0.008 -0.02205,0 -0.319704,0.008 v -0.0882 q 0.151584,0 0.184657,-0.0165 0.03583,-0.0193 0.03583,-0.11024 v -0.65595 q 0,-0.14331 -0.0441,-0.22875 -0.04134,-0.0854 -0.162609,-0.0854 -0.148828,0 -0.267339,0.12402 -0.115755,0.12127 -0.115755,0.32798 v 0.51814 q 0,0.091 0.03307,0.11024 0.03583,0.0165 0.187413,0.0165 v 0.0882 q -0.289388,-0.008 -0.316949,-0.008 -0.01929,0 -0.316948,0.008 v -0.0882 q 0.151584,0 0.184657,-0.0165 0.03583,-0.0193 0.03583,-0.11024 z m 3.139169,0.74689 q -0.121267,0.25356 -0.363802,0.25356 -0.124023,0 -0.209462,-0.0303 -0.08544,-0.0331 -0.126779,-0.0717 -0.04134,-0.0386 -0.06339,-0.113 -0.02205,-0.0772 -0.0248,-0.12403 -0.0028,-0.0469 -0.0028,-0.1378 v -0.42168 q 0,-0.19017 -0.03032,-0.226 -0.02756,-0.0358 -0.190169,-0.0358 v -0.0854 l 0.413411,-0.0331 v 0.93707 q 0,0.0661 0.0055,0.10748 0.0055,0.0413 0.02756,0.0882 0.0248,0.0441 0.07717,0.0661 0.05236,0.0193 0.137803,0.0193 0.151585,0 0.245291,-0.12403 0.09646,-0.12678 0.09646,-0.31419 v -0.5016 q 0,-0.10474 -0.03858,-0.1323 -0.03583,-0.0276 -0.181901,-0.0276 v -0.0854 l 0.416167,-0.0331 v 1.00321 q 0,0.10473 0.03583,0.13229 0.03583,0.0248 0.184657,0.0248 v 0.0882 l -0.407899,0.0303 z m 0.779969,-0.48782 h 0.66697 q 0,-0.0606 -0.01102,-0.12678 -0.0083,-0.0662 -0.03858,-0.1571 -0.02756,-0.0909 -0.09646,-0.14883 -0.0689,-0.0579 -0.170876,-0.0579 -0.0441,0 -0.09371,0.0193 -0.04961,0.0193 -0.110243,0.0661 -0.05788,0.0469 -0.09922,0.15159 -0.04134,0.10473 -0.04685,0.25356 z m -0.0028,0.0579 q 0,0.2949 0.08268,0.42444 0.121267,0.19017 0.319704,0.19017 0.02756,0 0.06063,-0.006 0.03307,-0.008 0.09922,-0.0303 0.06615,-0.0248 0.126779,-0.091 0.06063,-0.0661 0.09371,-0.16537 0.01102,-0.0386 0.03858,-0.0386 0.03583,0 0.03583,0.0331 0,0.0248 -0.02756,0.0799 -0.02481,0.0551 -0.07717,0.12402 -0.05237,0.0661 -0.151584,0.11576 -0.09646,0.0469 -0.214974,0.0469 -0.250803,0 -0.43546,-0.18466 -0.184657,-0.18741 -0.184657,-0.46577 0,-0.26459 0.170877,-0.45476 0.170876,-0.19016 0.416167,-0.19016 0.248047,0 0.374826,0.1626 0.129535,0.16261 0.129535,0.39137 0,0.0441 -0.01102,0.0524 -0.01102,0.006 -0.06063,0.006 z m 1.524109,0.10473 q -0.168121,-0.0331 -0.239779,-0.0551 -0.0689,-0.022 -0.132291,-0.0744 -0.121268,-0.0992 -0.121268,-0.23978 0,-0.14056 0.107487,-0.24253 0.107487,-0.10473 0.34451,-0.10473 0.157096,0 0.264583,0.0799 0.03032,-0.0248 0.04685,-0.0441 0.03858,-0.0358 0.05788,-0.0358 0.02205,0 0.02481,0.0138 0.0055,0.0138 0.0055,0.0551 v 0.28387 q 0,0.0303 -0.0028,0.0441 0,0.011 -0.0083,0.0193 -0.0083,0.006 -0.02481,0.006 -0.03307,0 -0.03583,-0.0248 -0.0028,-0.0579 -0.01102,-0.0937 -0.0083,-0.0386 -0.03858,-0.10473 -0.02756,-0.0689 -0.09922,-0.10473 -0.07166,-0.0386 -0.179144,-0.0386 -0.165365,0 -0.242535,0.0634 -0.07441,0.0634 -0.07441,0.15158 0,0.0579 0.02756,0.0992 0.03032,0.0413 0.09095,0.0661 0.06063,0.0248 0.101975,0.0358 0.0441,0.011 0.126779,0.0276 0.223242,0.0414 0.322461,0.13781 0.118511,0.11851 0.118511,0.26734 0,0.16812 -0.112999,0.28112 -0.112999,0.11024 -0.341753,0.11024 -0.184657,0 -0.311436,-0.12127 -0.02205,0.0221 -0.03583,0.0386 -0.01103,0.0138 -0.01654,0.0193 l -0.0028,0.008 q -0.05512,0.0551 -0.07166,0.0551 -0.02205,0 -0.02756,-0.0138 -0.0028,-0.011 -0.0028,-0.0524 v -0.37207 q 0,-0.0303 0,-0.0413 0.0028,-0.0138 0.01102,-0.0221 0.0083,-0.008 0.0248,-0.008 0.01929,0 0.02481,0.008 0.0083,0.008 0.01378,0.0386 0.04134,0.19568 0.132292,0.30041 0.09371,0.10198 0.261827,0.10198 0.157096,0 0.237022,-0.0717 0.07993,-0.0717 0.07993,-0.18466 0,-0.0717 -0.03583,-0.12402 -0.03307,-0.0524 -0.09095,-0.0799 -0.05512,-0.0276 -0.09095,-0.0386 -0.03583,-0.0138 -0.07441,-0.0193 z m 1.01148,-0.58153 v 0.78548 q 0,0.30593 0.190169,0.30593 0.08268,0 0.135047,-0.0827 0.05237,-0.0827 0.05237,-0.23427 v -0.15434 h 0.07166 v 0.15985 q 0,0.15434 -0.0689,0.26734 -0.0689,0.113 -0.209462,0.113 -0.05236,0 -0.104731,-0.0138 -0.04961,-0.011 -0.115755,-0.0441 -0.06339,-0.0358 -0.10473,-0.11851 -0.04134,-0.0827 -0.04134,-0.20395 v -0.77997 h -0.239778 v -0.0606 q 0.187413,-0.008 0.275607,-0.17088 0.08819,-0.16536 0.09095,-0.37482 h 0.0689 v 0.52089 h 0.405143 v 0.0854 z m 1.077623,0.19293 q 0.03859,-0.12127 0.124024,-0.21498 0.08544,-0.0965 0.223242,-0.0965 0.08819,0 0.148828,0.0524 0.06063,0.0524 0.06063,0.12126 0,0.0606 -0.03858,0.0937 -0.03859,0.0303 -0.08268,0.0303 -0.04961,0 -0.08544,-0.0303 -0.03583,-0.0331 -0.03583,-0.0909 0,-0.0331 0.01378,-0.0606 0.01654,-0.0276 0.02756,-0.0358 0.01378,-0.011 0.02205,-0.0138 -0.0055,-0.003 -0.03032,-0.003 -0.15434,0 -0.245291,0.15434 -0.08819,0.15434 -0.08819,0.37483 v 0.43546 q 0,0.0827 0.03307,0.10748 0.03307,0.0248 0.1819,0.0248 h 0.05788 v 0.0882 q -0.112999,-0.008 -0.35829,-0.008 -0.03583,0 -0.08819,0.003 -0.05236,0 -0.124023,0.003 -0.0689,0.003 -0.107487,0.003 v -0.0882 q 0.151584,0 0.184657,-0.0165 0.03583,-0.0193 0.03583,-0.11024 v -0.75516 q 0,-0.10474 -0.03858,-0.1323 -0.03583,-0.0276 -0.181901,-0.0276 v -0.0854 l 0.391362,-0.0331 z m 1.570963,0.72209 q -0.04134,0.10749 -0.14056,0.17639 -0.09646,0.0689 -0.228754,0.0689 -0.101974,0 -0.198437,-0.0248 -0.09646,-0.0248 -0.176389,-0.0937 -0.07717,-0.0717 -0.07717,-0.17915 0,-0.23977 0.28112,-0.36655 0.170876,-0.0827 0.520898,-0.10198 v -0.10473 q 0,-0.17363 -0.09371,-0.26734 -0.09095,-0.0937 -0.206705,-0.0937 -0.201194,0 -0.303169,0.12954 0.05788,0 0.09371,0.0276 0.03583,0.0276 0.04134,0.0524 0.0083,0.0248 0.0083,0.0496 0,0.0579 -0.03583,0.0937 -0.03583,0.0358 -0.09371,0.0358 -0.05788,0 -0.09371,-0.0331 -0.03583,-0.0358 -0.03583,-0.0992 0,-0.1378 0.124024,-0.22875 0.124023,-0.091 0.300412,-0.091 0.23151,0 0.388606,0.15709 0.04685,0.0496 0.0689,0.113 0.02481,0.0606 0.02756,0.0992 0.0028,0.0386 0.0028,0.11851 v 0.565 q 0,0.0165 0.0055,0.0441 0.0055,0.0276 0.03032,0.0634 0.02756,0.0331 0.0689,0.0331 0.101975,0 0.101975,-0.17915 v -0.1571 h 0.07166 v 0.1571 q 0,0.14883 -0.07993,0.20946 -0.07717,0.0579 -0.151584,0.0579 -0.09371,0 -0.15434,-0.0689 -0.05788,-0.0689 -0.06615,-0.16261 z m -0.01929,-0.46302 q -0.165365,0.006 -0.286632,0.0496 -0.121267,0.0413 -0.181901,0.10473 -0.06063,0.0634 -0.08819,0.12678 -0.02756,0.0634 -0.02756,0.12678 0,0.10473 0.07441,0.17363 0.07441,0.0661 0.179145,0.0661 0.118511,0 0.223242,-0.0909 0.107487,-0.0909 0.107487,-0.27286 z m 1.077625,0.12953 q -0.168121,-0.0331 -0.239779,-0.0551 -0.0689,-0.022 -0.132291,-0.0744 -0.121268,-0.0992 -0.121268,-0.23978 0,-0.14056 0.107487,-0.24253 0.107487,-0.10473 0.34451,-0.10473 0.157096,0 0.264583,0.0799 0.03032,-0.0248 0.04685,-0.0441 0.03858,-0.0358 0.05788,-0.0358 0.02205,0 0.0248,0.0138 0.0055,0.0138 0.0055,0.0551 v 0.28387 q 0,0.0303 -0.0028,0.0441 0,0.011 -0.0083,0.0193 -0.0083,0.006 -0.02481,0.006 -0.03307,0 -0.03583,-0.0248 -0.0028,-0.0579 -0.01102,-0.0937 -0.0083,-0.0386 -0.03858,-0.10473 -0.02756,-0.0689 -0.09922,-0.10473 -0.07166,-0.0386 -0.179144,-0.0386 -0.165365,0 -0.242535,0.0634 -0.07441,0.0634 -0.07441,0.15158 0,0.0579 0.02756,0.0992 0.03032,0.0413 0.09095,0.0661 0.06063,0.0248 0.101975,0.0358 0.0441,0.011 0.126779,0.0276 0.223242,0.0414 0.322461,0.13781 0.118511,0.11851 0.118511,0.26734 0,0.16812 -0.112999,0.28112 -0.112999,0.11024 -0.341753,0.11024 -0.184657,0 -0.311436,-0.12127 -0.02205,0.0221 -0.03583,0.0386 -0.01103,0.0138 -0.01654,0.0193 l -0.0028,0.008 q -0.05512,0.0551 -0.07166,0.0551 -0.02205,0 -0.02756,-0.0138 -0.0028,-0.011 -0.0028,-0.0524 v -0.37207 q 0,-0.0303 0,-0.0413 0.0028,-0.0138 0.01103,-0.0221 0.0083,-0.008 0.0248,-0.008 0.01929,0 0.02481,0.008 0.0083,0.008 0.01378,0.0386 0.04134,0.19568 0.132292,0.30041 0.09371,0.10198 0.261827,0.10198 0.157096,0 0.237022,-0.0717 0.07993,-0.0717 0.07993,-0.18466 0,-0.0717 -0.03583,-0.12402 -0.03307,-0.0524 -0.09095,-0.0799 -0.05512,-0.0276 -0.09095,-0.0386 -0.03583,-0.0138 -0.07441,-0.0193 z m 1.339453,-0.15709 q 0,0.47129 -0.179145,0.85989 -0.07441,0.16261 -0.181901,0.29766 -0.104731,0.13505 -0.176389,0.19292 -0.0689,0.0606 -0.08819,0.0606 -0.03032,0 -0.03032,-0.0276 0,-0.0138 0.03858,-0.0496 0.454752,-0.46302 0.454752,-1.33394 0,-0.87368 -0.438216,-1.31741 -0.05512,-0.0524 -0.05512,-0.0661 0,-0.0276 0.03032,-0.0276 0.01929,0 0.08544,0.0579 0.0689,0.0551 0.170877,0.18741 0.10473,0.12953 0.181901,0.28663 0.187413,0.38861 0.187413,0.87919 z"
         id="path26" />
    </g>
    <g
       id="text11"
       style="font-size:2.82222px;line-height:0.95;font-family:'TexMaths Symbols';-inkscape-font-specification:'TexMaths Symbols';text-align:center;text-anchor:middle;fill-rule:evenodd;stroke-width:0.264583;stroke-dasharray:0.264583, 0.79375"
       aria-label="TGI (NFFT/4 muestras)">
      <path
         d="m 69.236011,112.05655 -0.374826,1.4993 q -0.01102,0.0413 -0.01102,0.0606 0,0.0331 0.01929,0.0441 0.02205,0.011 0.08544,0.0165 0.07441,0.006 0.179145,0.006 0.05788,0 0.07717,0.006 0.01929,0.006 0.01929,0.0276 0,0.0551 -0.06063,0.0551 -0.03858,0 -0.121267,-0.003 -0.08268,-0.003 -0.124023,-0.003 -0.03858,0 -0.115755,0 -0.07717,-0.003 -0.118511,-0.003 -0.04134,0 -0.121268,0.003 -0.07993,0 -0.118511,0 -0.03858,0 -0.115755,0.003 -0.07717,0.003 -0.115755,0.003 -0.04961,0 -0.04961,-0.0331 0,-0.0386 0.01929,-0.0469 0.01929,-0.008 0.09922,-0.008 0.151584,0 0.21773,-0.0138 0.0689,-0.0138 0.08544,-0.0358 0.01929,-0.0248 0.03307,-0.0854 l 0.377582,-1.50758 q 0.01102,-0.0331 0.01102,-0.0579 0,-0.011 -0.0028,-0.0138 0,-0.006 -0.0055,-0.011 -0.0055,-0.008 -0.02205,-0.008 -0.01654,-0.003 -0.04685,-0.003 h -0.110243 q -0.16812,0 -0.259071,0.0138 -0.08819,0.0138 -0.162608,0.0689 -0.07441,0.0551 -0.118511,0.14332 -0.0441,0.0882 -0.104731,0.26458 -0.01929,0.0524 -0.03307,0.0551 -0.0055,0.003 -0.01378,0.003 -0.03307,0 -0.03307,-0.0303 0,-0.0193 0.01654,-0.0524 l 0.168121,-0.49609 q 0.01378,-0.0386 0.0248,-0.0468 0.01378,-0.008 0.06615,-0.008 h 1.56545 q 0.07717,0 0.07717,0.0303 0,0.0248 -0.0055,0.0469 l -0.07717,0.49334 q -0.0083,0.0634 -0.04134,0.0634 -0.03307,0 -0.03307,-0.0358 0,-0.022 0.0083,-0.0551 0.02205,-0.14883 0.02205,-0.226 0,-0.15434 -0.08819,-0.19293 -0.08544,-0.0386 -0.325217,-0.0386 -0.14056,0 -0.176389,0.008 -0.02481,0.006 -0.03858,0.0248 -0.01378,0.0193 -0.02756,0.0772 z"
         id="path11" />
      <path
         style="font-size:1.83444px;baseline-shift:sub"
         d="m 71.073486,113.05976 -0.114653,0.46757 q -0.0072,0.0251 -0.01254,0.0322 -0.0054,0.005 -0.0215,0.005 -0.02687,0 -0.02687,-0.0179 0,-0.002 0.0018,-0.0269 0.0036,-0.0251 0.0036,-0.0681 0,-0.16123 -0.07882,-0.25618 -0.07882,-0.0967 -0.216766,-0.0967 -0.128984,0 -0.254385,0.0681 -0.125402,0.0681 -0.204225,0.16839 -0.08778,0.10749 -0.139733,0.25081 -0.05195,0.14152 -0.0627,0.21855 -0.009,0.0752 -0.009,0.12899 0,0.10032 0.03225,0.17735 0.03225,0.077 0.08599,0.12182 0.05554,0.043 0.118236,0.0645 0.0627,0.0215 0.132567,0.0215 0.03583,0 0.07703,-0.007 0.04299,-0.007 0.102113,-0.0269 0.06091,-0.0197 0.109278,-0.0681 0.04837,-0.0502 0.06628,-0.12003 0.03762,-0.14332 0.03762,-0.16661 0,-0.0179 -0.01075,-0.0251 -0.009,-0.007 -0.04479,-0.0107 -0.04299,-0.004 -0.09853,-0.004 -0.03404,0 -0.04479,-0.002 -0.009,-0.004 -0.009,-0.0179 0,-0.0376 0.03762,-0.0376 0.02866,0 0.127193,0.004 0.100321,0.004 0.128984,0.004 0.0215,0 0.09674,-0.004 0.07524,-0.004 0.09674,-0.004 0.02329,0 0.02329,0.0215 0,0.0358 -0.02866,0.0358 -0.07703,0.002 -0.09495,0.0143 -0.01791,0.0108 -0.03225,0.0734 -0.0036,0.0161 -0.01254,0.0484 -0.0072,0.0322 -0.01075,0.0466 l -0.03583,0.13973 q -0.02508,0.10749 -0.03045,0.11287 0,0.007 -0.01254,0.007 -0.01254,0 -0.0412,-0.0394 -0.02866,-0.0394 -0.0412,-0.0752 -0.06987,0.077 -0.159439,0.11286 -0.11107,0.0448 -0.229305,0.0448 -0.22214,0 -0.361873,-0.14153 -0.139733,-0.14152 -0.139733,-0.36187 0,-0.15586 0.07166,-0.30813 0.07166,-0.15407 0.186311,-0.26693 0.114652,-0.11465 0.263343,-0.18452 0.150481,-0.0717 0.300963,-0.0717 0.200642,0 0.304546,0.16302 l 0.128984,-0.14153 q 0.0215,-0.0215 0.02687,-0.0215 0.01971,0 0.01971,0.0179 z m 0.732702,0.16302 -0.245428,0.97813 q -0.0072,0.0251 -0.0072,0.043 0,0.0161 0.0072,0.0233 0.009,0.005 0.03762,0.007 0.03583,0.004 0.07882,0.004 0.03404,0 0.04479,0.004 0.01075,0.004 0.01075,0.0197 0,0.034 -0.03583,0.034 -0.02866,0 -0.12361,-0.002 -0.09495,-0.004 -0.12361,-0.004 -0.02687,0 -0.120027,0.004 -0.09315,0.002 -0.120027,0.002 -0.02687,0 -0.02687,-0.0197 0,-0.0251 0.01075,-0.0305 0.01254,-0.007 0.04837,-0.007 0.102112,0 0.127193,-0.0143 0.02687,-0.0161 0.03941,-0.0717 l 0.247219,-0.98888 q 0.0036,-0.0161 0.0036,-0.0287 0,-0.0233 -0.03045,-0.0287 -0.02866,-0.007 -0.09674,-0.007 -0.02866,0 -0.03941,-0.002 -0.01075,-0.004 -0.01075,-0.0179 0,-0.0358 0.03583,-0.0358 0.02687,0 0.120027,0.004 0.09495,0.002 0.12361,0.002 0.02687,0 0.121818,-0.002 0.09495,-0.004 0.121819,-0.004 0.02687,0 0.02687,0.0215 0,0.0233 -0.01075,0.0287 -0.01075,0.005 -0.04837,0.005 -0.102113,0 -0.128985,0.0161 -0.02508,0.0143 -0.03762,0.0681 z"
         id="path12" />
      <path
         style="font-family:'TexMaths Roman';-inkscape-font-specification:'TexMaths Roman, '"
         d="m 73.250096,114.44882 q 0,0.0276 -0.02756,0.0276 -0.01929,0 -0.08819,-0.0579 -0.06615,-0.0551 -0.170877,-0.18742 -0.104731,-0.12953 -0.181901,-0.28663 -0.187413,-0.38861 -0.187413,-0.87919 0,-0.47129 0.179145,-0.85989 0.07441,-0.16261 0.181901,-0.29766 0.107487,-0.13505 0.176388,-0.19292 0.07166,-0.0606 0.09095,-0.0606 0.02756,0 0.02756,0.0276 0,0.0165 -0.03583,0.0496 -0.454753,0.46302 -0.454753,1.33394 0,0.87368 0.443728,1.32016 0.04685,0.0469 0.04685,0.0634 z"
         id="path14" />
      <path
         d="m 75.543149,112.13923 -0.394118,1.57096 q -0.01102,0.0414 -0.01929,0.0524 -0.0055,0.008 -0.02756,0.008 -0.01929,0 -0.03032,-0.008 -0.0083,-0.011 -0.02205,-0.0441 l -0.702799,-1.66467 -0.0248,-0.0496 -0.37207,1.49104 q -0.01378,0.0496 -0.01378,0.0634 0,0.11851 0.187413,0.12402 0.05788,0 0.05788,0.0331 0,0.0551 -0.05237,0.0551 -0.04685,0 -0.143315,-0.003 -0.09646,-0.006 -0.146072,-0.006 -0.04685,0 -0.143316,0.006 -0.09646,0.003 -0.14056,0.003 -0.03583,0 -0.03583,-0.0303 0,-0.0579 0.04685,-0.0579 0.157096,-0.006 0.21773,-0.0579 0.06339,-0.0551 0.08819,-0.15434 l 0.377583,-1.51309 q 0,-0.0276 -0.190169,-0.0276 -0.04685,0 -0.06339,-0.003 -0.01654,-0.006 -0.01654,-0.0276 0,-0.0386 0.01654,-0.0469 0.01929,-0.008 0.06615,-0.008 h 0.377582 q 0.04961,0 0.06063,0.008 0.01378,0.006 0.03032,0.0441 l 0.622873,1.4745 0.316949,-1.25677 q 0.0083,-0.0248 0.0083,-0.0606 0,-0.12126 -0.192925,-0.12402 -0.04961,0 -0.04961,-0.0303 0,-0.0551 0.04961,-0.0551 0.04685,0 0.140559,0.006 0.09646,0.003 0.146072,0.003 0.04685,0 0.143316,-0.003 0.09646,-0.006 0.143316,-0.006 0.03583,0 0.03583,0.0303 0,0.0551 -0.04685,0.0551 -0.15434,0.006 -0.21773,0.0579 -0.06339,0.0524 -0.08819,0.15158 z"
         id="path15" />
      <path
         style="font-size:1.83444px;baseline-shift:sub"
         d="m 76.23079,113.73872 -0.112861,0.45682 q -0.0072,0.0269 -0.0072,0.043 0,0.0179 0.009,0.0251 0.01075,0.007 0.04837,0.0108 0.04658,0.004 0.09674,0.004 0.04479,0 0.05016,0.002 l 0.0018,0.002 q 0.0036,0.004 0.0072,0.009 0.0036,0.004 0.0036,0.0107 0,0.034 -0.03941,0.034 -0.03045,0 -0.137941,-0.002 -0.105696,-0.004 -0.13615,-0.004 -0.02687,0 -0.121819,0.004 -0.09315,0.002 -0.120027,0.002 -0.02687,0 -0.02687,-0.0215 0,-0.0161 0.0072,-0.0233 0.0072,-0.009 0.01612,-0.0108 0.01075,-0.002 0.02866,-0.002 0.103904,0 0.127193,-0.0143 0.02508,-0.0143 0.03941,-0.0717 l 0.241846,-0.97097 q 0.009,-0.0322 0.009,-0.043 0,-0.0215 -0.02866,-0.0269 -0.02866,-0.007 -0.09136,-0.007 -0.03046,0 -0.0412,-0.002 -0.009,-0.004 -0.009,-0.0179 0,-0.0251 0.01075,-0.0305 0.01254,-0.005 0.04479,-0.005 h 0.897516 q 0.03762,0 0.04479,0.007 0.009,0.005 0.0054,0.0412 l -0.03762,0.31709 q -0.0018,0.0197 -0.0036,0.0287 -0.0018,0.007 -0.0072,0.0125 -0.0054,0.005 -0.01433,0.005 -0.0215,0 -0.0215,-0.0215 0,-0.0108 0.0036,-0.034 0.0054,-0.0502 0.0054,-0.0985 0,-0.11286 -0.05374,-0.15764 -0.05374,-0.0448 -0.214974,-0.0448 h -0.241845 q -0.05912,0 -0.07345,0.0107 -0.01254,0.0108 -0.02508,0.0609 l -0.118236,0.46577 h 0.168397 q 0.116444,0 0.16123,-0.034 0.04479,-0.034 0.07524,-0.14153 0.0054,-0.0233 0.009,-0.0305 0.0054,-0.007 0.01791,-0.007 0.0215,0 0.0215,0.0197 0,0.009 -0.0054,0.0287 l -0.100321,0.39949 q -0.01791,0.0358 -0.02687,0.0376 -0.02329,0 -0.02329,-0.0215 0,-0.009 0.0054,-0.0215 0.01433,-0.0627 0.01433,-0.0896 0,-0.0448 -0.02866,-0.0627 -0.02687,-0.0197 -0.12361,-0.0197 z m 1.178773,0 -0.112861,0.45682 q -0.0072,0.0269 -0.0072,0.043 0,0.0179 0.009,0.0251 0.01075,0.007 0.04837,0.0108 0.04658,0.004 0.09674,0.004 0.04479,0 0.05016,0.002 l 0.0018,0.002 q 0.0036,0.004 0.0072,0.009 0.0036,0.004 0.0036,0.0107 0,0.034 -0.03941,0.034 -0.03045,0 -0.137941,-0.002 -0.105696,-0.004 -0.13615,-0.004 -0.02687,0 -0.121819,0.004 -0.09315,0.002 -0.120027,0.002 -0.02687,0 -0.02687,-0.0215 0,-0.0161 0.0072,-0.0233 0.0072,-0.009 0.01612,-0.0108 0.01075,-0.002 0.02866,-0.002 0.103904,0 0.127193,-0.0143 0.02508,-0.0143 0.03941,-0.0717 l 0.241846,-0.97097 q 0.009,-0.0322 0.009,-0.043 0,-0.0215 -0.02866,-0.0269 -0.02866,-0.007 -0.09136,-0.007 -0.03046,0 -0.0412,-0.002 -0.009,-0.004 -0.009,-0.0179 0,-0.0251 0.01075,-0.0305 0.01254,-0.005 0.04479,-0.005 h 0.897516 q 0.03762,0 0.04479,0.007 0.009,0.005 0.0054,0.0412 l -0.03762,0.31709 q -0.0018,0.0197 -0.0036,0.0287 -0.0018,0.007 -0.0072,0.0125 -0.0054,0.005 -0.01433,0.005 -0.0215,0 -0.0215,-0.0215 0,-0.0108 0.0036,-0.034 0.0054,-0.0502 0.0054,-0.0985 0,-0.11286 -0.05374,-0.15764 -0.05374,-0.0448 -0.214974,-0.0448 H 77.64066 q -0.05912,0 -0.07345,0.0107 -0.01254,0.0108 -0.02508,0.0609 l -0.118236,0.46577 h 0.168396 q 0.116445,0 0.161231,-0.034 0.04479,-0.034 0.07524,-0.14153 0.0054,-0.0233 0.009,-0.0305 0.0054,-0.007 0.01791,-0.007 0.0215,0 0.0215,0.0197 0,0.009 -0.0054,0.0287 l -0.100321,0.39949 q -0.01791,0.0358 -0.02687,0.0376 -0.02329,0 -0.02329,-0.0215 0,-0.009 0.0054,-0.0215 0.01433,-0.0627 0.01433,-0.0896 0,-0.0448 -0.02866,-0.0627 -0.02687,-0.0197 -0.12361,-0.0197 z m 1.406287,-0.51773 -0.243637,0.97455 q -0.0072,0.0269 -0.0072,0.0394 0,0.0215 0.01254,0.0287 0.01433,0.007 0.05554,0.0108 0.04837,0.004 0.116444,0.004 0.03762,0 0.05016,0.004 0.01254,0.004 0.01254,0.0179 0,0.0358 -0.03941,0.0358 -0.02508,0 -0.07882,-0.002 -0.05374,-0.002 -0.08061,-0.002 -0.02508,0 -0.07524,0 -0.05016,-0.002 -0.07703,-0.002 -0.02687,0 -0.07882,0.002 -0.05195,0 -0.07703,0 -0.02508,0 -0.07524,0.002 -0.05016,0.002 -0.07524,0.002 -0.03225,0 -0.03225,-0.0215 0,-0.0251 0.01254,-0.0305 0.01254,-0.005 0.06449,-0.005 0.09853,0 0.141525,-0.009 0.04479,-0.009 0.05554,-0.0233 0.01254,-0.0161 0.0215,-0.0555 l 0.245429,-0.97992 q 0.0072,-0.0215 0.0072,-0.0376 0,-0.007 -0.0018,-0.009 0,-0.004 -0.0036,-0.007 -0.0036,-0.005 -0.01433,-0.005 -0.01075,-0.002 -0.03045,-0.002 h -0.07166 q -0.109278,0 -0.168396,0.009 -0.05733,0.009 -0.105696,0.0448 -0.04837,0.0358 -0.07703,0.0931 -0.02866,0.0573 -0.06808,0.17198 -0.01254,0.034 -0.0215,0.0358 -0.0036,0.002 -0.009,0.002 -0.0215,0 -0.0215,-0.0197 0,-0.0125 0.01075,-0.034 l 0.109278,-0.32246 q 0.009,-0.0251 0.01612,-0.0305 0.009,-0.005 0.043,-0.005 h 1.017542 q 0.05016,0 0.05016,0.0197 0,0.0161 -0.0036,0.0305 l -0.05016,0.32067 q -0.0054,0.0412 -0.02687,0.0412 -0.0215,0 -0.0215,-0.0233 0,-0.0143 0.0054,-0.0358 0.01433,-0.0967 0.01433,-0.14689 0,-0.10033 -0.05733,-0.12541 -0.05554,-0.0251 -0.211391,-0.0251 -0.09136,0 -0.114653,0.005 -0.01612,0.004 -0.02508,0.0161 -0.009,0.0125 -0.01791,0.0502 z"
         id="path16" />
      <path
         d="m 80.34175,111.76165 -0.964626,2.65961 q -0.01654,0.0551 -0.05788,0.0551 -0.02205,0 -0.04134,-0.0165 -0.01654,-0.0165 -0.01654,-0.0386 0,-0.0165 0.01378,-0.0524 l 0.964626,-2.65962 q 0.01654,-0.0551 0.05788,-0.0551 0.02205,0 0.03858,0.0165 0.01929,0.0165 0.01929,0.0386 0,0.0165 -0.01378,0.0524 z m 1.003211,1.5434 h -0.749652 v -0.0882 l 0.865407,-1.32292 q 0.02205,-0.0331 0.05788,-0.0331 0.01654,0 0.02481,0.003 0.0083,0.003 0.01378,0.0138 0.0055,0.011 0.0055,0.022 0,0.008 0,0.0331 v 1.28433 h 0.28112 v 0.0882 h -0.28112 v 0.24529 q 0,0.0827 0.03307,0.10749 0.03307,0.0248 0.181901,0.0248 h 0.05788 v 0.0882 q -0.115755,-0.008 -0.383094,-0.008 -0.264583,0 -0.380338,0.008 v -0.0882 h 0.05788 q 0.148828,0 0.181901,-0.0248 0.03307,-0.0248 0.03307,-0.10749 z m 0.01654,-0.0882 v -1.05282 l -0.689019,1.05282 z"
         id="path17" />
      <path
         style="font-family:'TexMaths Roman';-inkscape-font-specification:'TexMaths Roman, '"
         d="m 83.174994,112.80069 q 0,-0.10473 -0.03858,-0.13229 -0.03583,-0.0276 -0.181901,-0.0276 v -0.0854 l 0.396875,-0.0331 v 0.29765 q 0.137804,-0.29765 0.418923,-0.29765 0.330729,0 0.374826,0.27836 0.04685,-0.10749 0.148828,-0.19293 0.101975,-0.0854 0.259071,-0.0854 0.212218,0 0.297657,0.10473 0.06063,0.0717 0.07441,0.15158 0.01378,0.0772 0.01378,0.28112 v 0.54019 q 0.0028,0.0579 0.0441,0.0717 0.0441,0.011 0.162608,0.011 0.0083,0 0.01378,0 v 0.0882 q -0.289388,-0.008 -0.316949,-0.008 -0.02205,0 -0.319704,0.008 v -0.0882 q 0.148828,0 0.184657,-0.0165 0.03583,-0.0193 0.03583,-0.11025 v -0.65594 q 0,-0.14332 -0.0441,-0.22876 -0.0441,-0.0854 -0.165364,-0.0854 -0.148828,0 -0.264583,0.12402 -0.115755,0.12127 -0.115755,0.32797 v 0.51814 q 0,0.0909 0.03583,0.11025 0.03583,0.0165 0.184657,0.0165 v 0.0882 q -0.289388,-0.008 -0.316949,-0.008 -0.02205,0 -0.319705,0.008 v -0.0882 q 0.151585,0 0.184657,-0.0165 0.03583,-0.0193 0.03583,-0.11025 v -0.65594 q 0,-0.14332 -0.0441,-0.22876 -0.04134,-0.0854 -0.162608,-0.0854 -0.148828,0 -0.267339,0.12402 -0.115755,0.12127 -0.115755,0.32797 v 0.51814 q 0,0.0909 0.03307,0.11025 0.03583,0.0165 0.187413,0.0165 v 0.0882 q -0.289387,-0.008 -0.316948,-0.008 -0.01929,0 -0.316949,0.008 v -0.0882 q 0.151584,0 0.184657,-0.0165 0.03583,-0.0193 0.03583,-0.11025 z m 3.139169,0.7469 q -0.121268,0.25356 -0.363802,0.25356 -0.124023,0 -0.209462,-0.0303 -0.08544,-0.0331 -0.126779,-0.0717 -0.04134,-0.0386 -0.06339,-0.113 -0.02205,-0.0772 -0.02481,-0.12402 -0.0028,-0.0469 -0.0028,-0.13781 v -0.42168 q 0,-0.19016 -0.03032,-0.22599 -0.02756,-0.0358 -0.19017,-0.0358 v -0.0854 l 0.413412,-0.0331 v 0.93706 q 0,0.0662 0.0055,0.10749 0.0055,0.0413 0.02756,0.0882 0.02481,0.0441 0.07717,0.0662 0.05236,0.0193 0.137803,0.0193 0.151584,0 0.245291,-0.12402 0.09646,-0.12678 0.09646,-0.31419 v -0.50161 q 0,-0.10473 -0.03858,-0.13229 -0.03583,-0.0276 -0.1819,-0.0276 v -0.0854 l 0.416167,-0.0331 v 1.00321 q 0,0.10473 0.03583,0.13229 0.03583,0.0248 0.184657,0.0248 v 0.0882 l -0.407899,0.0303 z m 0.779969,-0.48783 h 0.66697 q 0,-0.0606 -0.01102,-0.12678 -0.0083,-0.0661 -0.03858,-0.15709 -0.02756,-0.091 -0.09646,-0.14883 -0.0689,-0.0579 -0.170876,-0.0579 -0.0441,0 -0.09371,0.0193 -0.04961,0.0193 -0.110243,0.0661 -0.05788,0.0469 -0.09922,0.15158 -0.04134,0.10473 -0.04685,0.25356 z m -0.0028,0.0579 q 0,0.2949 0.08268,0.42443 0.121268,0.19017 0.319705,0.19017 0.02756,0 0.06063,-0.006 0.03307,-0.008 0.09922,-0.0303 0.06615,-0.0248 0.12678,-0.091 0.06063,-0.0661 0.09371,-0.16536 0.01103,-0.0386 0.03858,-0.0386 0.03583,0 0.03583,0.0331 0,0.0248 -0.02756,0.0799 -0.0248,0.0551 -0.07717,0.12403 -0.05236,0.0661 -0.151584,0.11575 -0.09646,0.0469 -0.214973,0.0469 -0.250803,0 -0.43546,-0.18466 -0.184657,-0.18741 -0.184657,-0.46578 0,-0.26458 0.170876,-0.45475 0.170877,-0.19017 0.416168,-0.19017 0.248046,0 0.374826,0.16261 0.129535,0.16261 0.129535,0.39136 0,0.0441 -0.01102,0.0524 -0.01102,0.006 -0.06063,0.006 z m 1.524108,0.10473 q -0.16812,-0.0331 -0.239778,-0.0551 -0.0689,-0.022 -0.132292,-0.0744 -0.121267,-0.0992 -0.121267,-0.23977 0,-0.14056 0.107487,-0.24254 0.107487,-0.10473 0.344509,-0.10473 0.157097,0 0.264583,0.0799 0.03032,-0.0248 0.04685,-0.0441 0.03858,-0.0358 0.05788,-0.0358 0.02205,0 0.02481,0.0138 0.0055,0.0138 0.0055,0.0551 v 0.28388 q 0,0.0303 -0.0028,0.0441 0,0.011 -0.0083,0.0193 -0.0083,0.006 -0.02481,0.006 -0.03307,0 -0.03583,-0.0248 -0.0028,-0.0579 -0.01102,-0.0937 -0.0083,-0.0386 -0.03858,-0.10473 -0.02756,-0.0689 -0.09922,-0.10473 -0.07166,-0.0386 -0.179145,-0.0386 -0.165364,0 -0.242534,0.0634 -0.07441,0.0634 -0.07441,0.15159 0,0.0579 0.02756,0.0992 0.03032,0.0413 0.09095,0.0661 0.06063,0.0248 0.101975,0.0358 0.0441,0.011 0.126779,0.0276 0.223242,0.0413 0.322461,0.1378 0.118511,0.11851 0.118511,0.26734 0,0.16812 -0.112999,0.28112 -0.112999,0.11025 -0.341753,0.11025 -0.184657,0 -0.311437,-0.12127 -0.02205,0.0221 -0.03583,0.0386 -0.01102,0.0138 -0.01654,0.0193 l -0.0028,0.008 q -0.05512,0.0551 -0.07166,0.0551 -0.02205,0 -0.02756,-0.0138 -0.0028,-0.011 -0.0028,-0.0524 v -0.37207 q 0,-0.0303 0,-0.0413 0.0028,-0.0138 0.01102,-0.0221 0.0083,-0.008 0.02481,-0.008 0.01929,0 0.02481,0.008 0.0083,0.008 0.01378,0.0386 0.04134,0.19569 0.132292,0.30042 0.09371,0.10197 0.261827,0.10197 0.157096,0 0.237022,-0.0717 0.07993,-0.0717 0.07993,-0.18465 0,-0.0717 -0.03583,-0.12403 -0.03307,-0.0524 -0.09095,-0.0799 -0.05512,-0.0276 -0.09095,-0.0386 -0.03583,-0.0138 -0.07441,-0.0193 z m 1.01148,-0.58153 v 0.78548 q 0,0.30592 0.19017,0.30592 0.08268,0 0.135047,-0.0827 0.05237,-0.0827 0.05237,-0.23427 v -0.15434 h 0.07166 v 0.15986 q 0,0.15434 -0.0689,0.26734 -0.0689,0.113 -0.209462,0.113 -0.05237,0 -0.104731,-0.0138 -0.04961,-0.011 -0.115755,-0.0441 -0.06339,-0.0358 -0.104731,-0.11851 -0.04134,-0.0827 -0.04134,-0.20395 v -0.77997 H 89.19147 v -0.0606 q 0.187413,-0.008 0.275607,-0.17087 0.08819,-0.16537 0.09095,-0.37483 h 0.0689 v 0.5209 h 0.405143 v 0.0854 z m 1.077626,0.19292 q 0.03858,-0.12126 0.124023,-0.21497 0.08544,-0.0965 0.223242,-0.0965 0.08819,0 0.148828,0.0524 0.06063,0.0524 0.06063,0.12127 0,0.0606 -0.03859,0.0937 -0.03858,0.0303 -0.08268,0.0303 -0.04961,0 -0.08544,-0.0303 -0.03583,-0.0331 -0.03583,-0.091 0,-0.0331 0.01378,-0.0606 0.01654,-0.0276 0.02756,-0.0358 0.01378,-0.011 0.02205,-0.0138 -0.0055,-0.003 -0.03032,-0.003 -0.15434,0 -0.24529,0.15434 -0.0882,0.15434 -0.0882,0.37482 v 0.43546 q 0,0.0827 0.03307,0.10749 0.03307,0.0248 0.181901,0.0248 h 0.05788 v 0.0882 q -0.112999,-0.008 -0.35829,-0.008 -0.03583,0 -0.08819,0.003 -0.05237,0 -0.124024,0.003 -0.0689,0.003 -0.107487,0.003 v -0.0882 q 0.151585,0 0.184657,-0.0165 0.03583,-0.0193 0.03583,-0.11025 v -0.75516 q 0,-0.10473 -0.03859,-0.13229 -0.03583,-0.0276 -0.181901,-0.0276 v -0.0854 l 0.391363,-0.0331 z m 1.570963,0.72209 q -0.04134,0.10749 -0.14056,0.17639 -0.09646,0.0689 -0.228754,0.0689 -0.101975,0 -0.198437,-0.0248 -0.09646,-0.0248 -0.176389,-0.0937 -0.07717,-0.0717 -0.07717,-0.17914 0,-0.23978 0.281119,-0.36656 0.170877,-0.0827 0.520898,-0.10197 v -0.10473 q 0,-0.17364 -0.09371,-0.26734 -0.09095,-0.0937 -0.206706,-0.0937 -0.201193,0 -0.303168,0.12954 0.05788,0 0.09371,0.0276 0.03583,0.0276 0.04134,0.0524 0.0083,0.0248 0.0083,0.0496 0,0.0579 -0.03583,0.0937 -0.03583,0.0358 -0.09371,0.0358 -0.05788,0 -0.09371,-0.0331 -0.03583,-0.0358 -0.03583,-0.0992 0,-0.1378 0.124023,-0.22875 0.124024,-0.0909 0.300412,-0.0909 0.231511,0 0.388607,0.1571 0.04685,0.0496 0.0689,0.113 0.0248,0.0606 0.02756,0.0992 0.0028,0.0386 0.0028,0.11852 v 0.56499 q 0,0.0165 0.0055,0.0441 0.0055,0.0276 0.03032,0.0634 0.02756,0.0331 0.0689,0.0331 0.101975,0 0.101975,-0.17914 v -0.1571 h 0.07166 v 0.1571 q 0,0.14882 -0.07993,0.20946 -0.07717,0.0579 -0.151584,0.0579 -0.09371,0 -0.15434,-0.0689 -0.05788,-0.0689 -0.06615,-0.16261 z m -0.01929,-0.46302 q -0.165364,0.006 -0.286631,0.0496 -0.121268,0.0413 -0.181901,0.10473 -0.06063,0.0634 -0.08819,0.12678 -0.02756,0.0634 -0.02756,0.12678 0,0.10473 0.07441,0.17364 0.07441,0.0661 0.179145,0.0661 0.118511,0 0.223242,-0.091 0.107486,-0.0909 0.107486,-0.27285 z m 1.077625,0.12954 q -0.16812,-0.0331 -0.239778,-0.0551 -0.0689,-0.022 -0.132292,-0.0744 -0.121267,-0.0992 -0.121267,-0.23977 0,-0.14056 0.107487,-0.24254 0.107487,-0.10473 0.344509,-0.10473 0.157096,0 0.264583,0.0799 0.03032,-0.0248 0.04685,-0.0441 0.03858,-0.0358 0.05788,-0.0358 0.02205,0 0.02481,0.0138 0.0055,0.0138 0.0055,0.0551 v 0.28388 q 0,0.0303 -0.0028,0.0441 0,0.011 -0.0083,0.0193 -0.0083,0.006 -0.02481,0.006 -0.03307,0 -0.03583,-0.0248 -0.0028,-0.0579 -0.01102,-0.0937 -0.0083,-0.0386 -0.03858,-0.10473 -0.02756,-0.0689 -0.09922,-0.10473 -0.07166,-0.0386 -0.179145,-0.0386 -0.165364,0 -0.242534,0.0634 -0.07441,0.0634 -0.07441,0.15159 0,0.0579 0.02756,0.0992 0.03032,0.0413 0.09095,0.0661 0.06063,0.0248 0.101975,0.0358 0.0441,0.011 0.126779,0.0276 0.223242,0.0413 0.322461,0.1378 0.118511,0.11851 0.118511,0.26734 0,0.16812 -0.112999,0.28112 -0.112999,0.11025 -0.341753,0.11025 -0.184657,0 -0.311437,-0.12127 -0.02205,0.0221 -0.03583,0.0386 -0.01102,0.0138 -0.01654,0.0193 l -0.0028,0.008 q -0.05512,0.0551 -0.07166,0.0551 -0.02205,0 -0.02756,-0.0138 -0.0028,-0.011 -0.0028,-0.0524 v -0.37207 q 0,-0.0303 0,-0.0413 0.0028,-0.0138 0.01102,-0.0221 0.0083,-0.008 0.02481,-0.008 0.01929,0 0.02481,0.008 0.0083,0.008 0.01378,0.0386 0.04134,0.19569 0.132292,0.30042 0.09371,0.10197 0.261827,0.10197 0.157096,0 0.237022,-0.0717 0.07993,-0.0717 0.07993,-0.18465 0,-0.0717 -0.03583,-0.12403 -0.03307,-0.0524 -0.09095,-0.0799 -0.05512,-0.0276 -0.09095,-0.0386 -0.03583,-0.0138 -0.07441,-0.0193 z m 1.339451,-0.1571 q 0,0.47129 -0.179144,0.8599 -0.07442,0.16261 -0.181901,0.29765 -0.104731,0.13505 -0.176389,0.19293 -0.0689,0.0606 -0.08819,0.0606 -0.03032,0 -0.03032,-0.0276 0,-0.0138 0.03858,-0.0496 0.454752,-0.46302 0.454752,-1.33394 0,-0.87367 -0.438216,-1.3174 -0.05512,-0.0524 -0.05512,-0.0662 0,-0.0276 0.03032,-0.0276 0.01929,0 0.08544,0.0579 0.0689,0.0551 0.170876,0.18741 0.104731,0.12954 0.181901,0.28664 0.187413,0.3886 0.187413,0.87918 z"
         id="path18" />
    </g>
    <path
       style="fill:none;fill-rule:evenodd;stroke:#000000;stroke-width:0.264583;stroke-dasharray:none;stroke-dashoffset:0;marker-end:url(#DartArrow)"
       d="M 88.106248,123.03125 H 103.98124"
       id="path13" />
    <path
       id="rect13"
       style="fill:none;fill-rule:evenodd;stroke:#000000;stroke-width:0.264583"
       d="m 107.94999,120.38541 h 7.9375 v 5.29166 h -7.9375 z" />
    <path
       d="m 111.9854,124.15262 q -0.0775,0.13332 -0.24184,0.20154 -0.16433,0.0713 -0.35037,0.0713 -0.45579,0 -0.78445,-0.33486 -0.32866,-0.33797 -0.32866,-0.82166 0,-0.48059 0.32866,-0.81545 0.32866,-0.33797 0.77825,-0.33797 0.14263,0 0.26975,0.0527 0.13022,0.0527 0.18603,0.0992 0.0558,0.0465 0.13023,0.12093 l 0.15813,-0.23565 q 0.0248,-0.0372 0.0527,-0.0372 0.0248,0 0.0279,0.0155 0.006,0.0155 0.006,0.062 v 0.75034 q 0,0.0527 -0.006,0.0651 -0.006,0.0124 -0.0434,0.0124 -0.0217,0 -0.0341,-0.003 -0.009,-0.006 -0.0124,-0.0155 -0.003,-0.009 -0.006,-0.0341 -0.0465,-0.34416 -0.23875,-0.5488 -0.19223,-0.20464 -0.45268,-0.20464 -0.0744,0 -0.16123,0.0186 -0.0837,0.0155 -0.20774,0.0806 -0.12093,0.0651 -0.21704,0.17363 -0.093,0.10542 -0.16124,0.31006 -0.0682,0.20154 -0.0682,0.47129 0,0.26665 0.0682,0.47129 0.0682,0.20464 0.16434,0.31316 0.0961,0.10542 0.22014,0.17363 0.12402,0.0651 0.21084,0.0837 0.0899,0.0155 0.17053,0.0155 0.0403,0 0.0868,-0.003 0.0465,-0.006 0.12402,-0.0279 0.0775,-0.0248 0.13643,-0.062 0.0589,-0.0403 0.10231,-0.11472 0.0434,-0.0775 0.0434,-0.17673 v -0.20464 q 0,-0.0961 -0.0465,-0.12402 -0.0465,-0.0279 -0.24804,-0.0279 h -0.10232 v -0.0992 q 0.15193,0.0124 0.51159,0.0124 0.0558,0 0.20154,-0.006 0.14883,-0.006 0.18604,-0.006 v 0.0992 q -0.15193,0 -0.18604,0.0217 -0.0341,0.0217 -0.0341,0.11782 v 0.5519 q 0,0.0744 -0.0279,0.0744 -0.0248,0 -0.0992,-0.0713 -0.0744,-0.0744 -0.10542,-0.12712 z m 1.31775,-1.72083 v 1.67432 q 0,0.093 0.0403,0.12092 0.0434,0.0279 0.22014,0.0279 h 0.0837 v 0.0992 q -0.11163,-0.009 -0.4868,-0.009 -0.36897,0 -0.48059,0.009 v -0.0992 h 0.0806 q 0.17673,0 0.21704,-0.0279 0.0434,-0.0279 0.0434,-0.12092 v -1.67432 q 0,-0.093 -0.0434,-0.12092 -0.0403,-0.0279 -0.21704,-0.0279 h -0.0806 v -0.0961 q 0.11162,0.009 0.48369,0.009 0.37207,0 0.4837,-0.009 v 0.0961 h -0.0837 q -0.17673,0 -0.22014,0.0279 -0.0403,0.0279 -0.0403,0.12092 z"
       id="text14"
       style="font-size:3.175px;line-height:0.95;font-family:'TexMaths Roman';-inkscape-font-specification:'TexMaths Roman, ';text-align:center;text-anchor:middle;fill-rule:evenodd;stroke-width:0.264583"
       aria-label="GI" />
    <g
       id="text15"
       style="font-size:2.82222px;line-height:0.95;font-family:'TexMaths Roman';-inkscape-font-specification:'TexMaths Roman, ';text-align:center;text-anchor:middle;fill-rule:evenodd;stroke-width:0.264583"
       aria-label="TSYM (1,25 NFFT muestras)">
      <path
         style="font-family:'TexMaths Symbols';-inkscape-font-specification:'TexMaths Symbols'"
         d="m 113.20234,132.27207 -0.37483,1.4993 q -0.011,0.0413 -0.011,0.0606 0,0.0331 0.0193,0.0441 0.0221,0.011 0.0854,0.0165 0.0744,0.006 0.17915,0.006 0.0579,0 0.0772,0.006 0.0193,0.006 0.0193,0.0276 0,0.0551 -0.0606,0.0551 -0.0386,0 -0.12127,-0.003 -0.0827,-0.003 -0.12403,-0.003 -0.0386,0 -0.11575,0 -0.0772,-0.003 -0.11851,-0.003 -0.0413,0 -0.12127,0.003 -0.0799,0 -0.11851,0 -0.0386,0 -0.11576,0.003 -0.0772,0.003 -0.11575,0.003 -0.0496,0 -0.0496,-0.0331 0,-0.0386 0.0193,-0.0469 0.0193,-0.008 0.0992,-0.008 0.15159,0 0.21773,-0.0138 0.0689,-0.0138 0.0854,-0.0358 0.0193,-0.0248 0.0331,-0.0854 l 0.37758,-1.50757 q 0.011,-0.0331 0.011,-0.0579 0,-0.011 -0.003,-0.0138 0,-0.006 -0.006,-0.011 -0.006,-0.008 -0.0221,-0.008 -0.0165,-0.003 -0.0469,-0.003 h -0.11024 q -0.16812,0 -0.25908,0.0138 -0.0882,0.0138 -0.1626,0.0689 -0.0744,0.0551 -0.11851,0.14332 -0.0441,0.0882 -0.10474,0.26458 -0.0193,0.0524 -0.0331,0.0551 -0.006,0.003 -0.0138,0.003 -0.0331,0 -0.0331,-0.0303 0,-0.0193 0.0165,-0.0524 l 0.16813,-0.49609 q 0.0138,-0.0386 0.0248,-0.0469 0.0138,-0.008 0.0661,-0.008 h 1.56545 q 0.0772,0 0.0772,0.0303 0,0.0248 -0.006,0.0469 l -0.0772,0.49334 q -0.008,0.0634 -0.0413,0.0634 -0.0331,0 -0.0331,-0.0358 0,-0.0221 0.008,-0.0551 0.022,-0.14883 0.022,-0.226 0,-0.15434 -0.0882,-0.19292 -0.0854,-0.0386 -0.32521,-0.0386 -0.14056,0 -0.17639,0.008 -0.0248,0.006 -0.0386,0.0248 -0.0138,0.0193 -0.0276,0.0772 z"
         id="path3" />
      <path
         style="font-size:1.83444px;font-family:'TexMaths Symbols';-inkscape-font-specification:'TexMaths Symbols';baseline-shift:sub"
         d="m 114.82842,133.27528 -0.0985,0.40307 q -0.005,0.0233 -0.0108,0.0305 -0.004,0.005 -0.0161,0.005 -0.0215,0 -0.0215,-0.0179 0,-0.004 0.002,-0.0161 0.002,-0.0143 0.004,-0.0376 0.002,-0.0251 0.002,-0.0502 0,-0.1469 -0.0717,-0.21497 -0.0717,-0.0681 -0.19347,-0.0681 -0.1272,0 -0.22393,0.0949 -0.0967,0.095 -0.0967,0.2096 0,0.0663 0.0322,0.10928 0.034,0.043 0.0788,0.0573 0.007,0.002 0.0269,0.007 0.0215,0.005 0.0519,0.0143 0.0305,0.007 0.0448,0.0108 0.12898,0.034 0.16481,0.0484 0.0376,0.0143 0.0681,0.0448 0.0896,0.0842 0.0896,0.21318 0,0.17556 -0.14153,0.32425 -0.14152,0.14869 -0.32425,0.14869 -0.21139,0 -0.30992,-0.13257 l -0.0896,0.10391 q -0.0251,0.0287 -0.0322,0.0287 -0.0215,0 -0.0215,-0.0197 0,-0.005 0.0519,-0.21497 0.0537,-0.2096 0.0591,-0.21497 0.007,-0.007 0.0179,-0.007 0.0215,0 0.0215,0.0197 0,0.002 -0.002,0.005 -0.002,0.004 -0.002,0.007 -0.0107,0.0645 -0.0107,0.0985 0,0.0806 0.0322,0.13794 0.0323,0.0555 0.0842,0.0824 0.0537,0.0269 0.10211,0.0376 0.0502,0.0107 0.10211,0.0107 0.13078,0 0.2311,-0.10569 0.10032,-0.1057 0.10032,-0.23289 0,-0.0537 -0.0161,-0.0896 -0.0143,-0.0376 -0.0448,-0.0573 -0.0305,-0.0215 -0.0537,-0.0287 -0.0215,-0.009 -0.0555,-0.0179 l -0.19527,-0.052 q -0.0788,-0.0233 -0.13615,-0.0896 -0.0555,-0.0663 -0.0555,-0.17019 0,-0.1666 0.13974,-0.29917 0.13973,-0.13436 0.3135,-0.13436 0.1881,0 0.26334,0.13257 l 0.0878,-0.1057 q 0.0233,-0.0269 0.0322,-0.0269 0.0197,0 0.0197,0.0179 z m 1.03546,0.23109 -0.45503,0.52311 q -0.0143,0.0161 -0.0251,0.0573 l -0.0645,0.25797 q -0.0251,0.11107 -0.0251,0.11644 0,0.0161 0.009,0.0215 0.0108,0.004 0.0412,0.007 0.0305,0.004 0.0681,0.004 0.0519,0 0.0519,0.0215 0,0.0358 -0.034,0.0358 -0.0269,0 -0.11823,-0.002 -0.0914,-0.004 -0.11645,-0.004 -0.0251,0 -0.11465,0.004 -0.0896,0.002 -0.11645,0.002 -0.0269,0 -0.0269,-0.0197 0,-0.0251 0.0107,-0.0305 0.0108,-0.007 0.0394,-0.007 0.10928,-0.002 0.13078,-0.0161 0.0233,-0.0143 0.0412,-0.0914 0.007,-0.0251 0.0448,-0.17735 0.0376,-0.15406 0.0376,-0.15765 0,-0.009 -0.007,-0.0305 l -0.22572,-0.60372 q -0.0125,-0.0376 -0.0358,-0.0502 -0.0215,-0.0125 -0.0985,-0.0125 -0.0412,0 -0.0412,-0.0197 0,-0.0358 0.034,-0.0358 0.0233,0 0.10211,0.004 0.0806,0.002 0.1039,0.002 0.0251,0 0.11466,-0.002 0.0896,-0.004 0.11644,-0.004 0.0269,0 0.0269,0.0197 0,0.0251 -0.0107,0.0305 -0.009,0.005 -0.0322,0.005 -0.10928,0 -0.10928,0.0448 0,0.002 0.0125,0.0305 l 0.20064,0.5446 0.42637,-0.48906 q 0.0484,-0.0609 0.0484,-0.0878 0,-0.043 -0.0645,-0.043 -0.0287,0 -0.0287,-0.0215 0,-0.034 0.0358,-0.034 0.0287,0 0.0896,0.004 0.0627,0.002 0.0932,0.002 0.0251,0 0.0752,-0.002 0.0519,-0.004 0.0752,-0.004 0.0233,0 0.0233,0.0215 0,0.0215 -0.009,0.0269 -0.007,0.005 -0.0269,0.007 -0.0573,0.004 -0.10749,0.0269 -0.0502,0.0233 -0.0717,0.043 -0.0215,0.0179 -0.0609,0.0573 z m 1.66605,-0.0681 -0.24364,0.97813 q -0.009,0.0322 -0.009,0.0448 0,0.0215 0.0269,0.0269 0.0287,0.005 0.0914,0.005 0.0519,0 0.0519,0.0215 0,0.0358 -0.034,0.0358 -0.0376,0 -0.11465,-0.002 -0.077,-0.004 -0.11465,-0.004 -0.0269,0 -0.11465,0.004 -0.0878,0.002 -0.11286,0.002 -0.0287,0 -0.0287,-0.0215 0,-0.0161 0.007,-0.0233 0.007,-0.009 0.0161,-0.0108 0.0108,-0.002 0.0287,-0.002 0.10391,0 0.1272,-0.0143 0.0251,-0.0143 0.0394,-0.0717 l 0.26334,-1.05158 h -0.002 l -0.74166,1.16265 q -0.0233,0.0323 -0.0412,0.0323 -0.0197,0 -0.0269,-0.043 l -0.15765,-1.13578 h -0.002 l -0.24901,0.99963 q -0.007,0.0269 -0.007,0.0412 0,0.0376 0.0251,0.0591 0.0269,0.0197 0.0985,0.0215 0.034,0 0.034,0.0215 0,0.0358 -0.034,0.0358 -0.0305,0 -0.0932,-0.002 -0.0627,-0.004 -0.0949,-0.004 -0.0305,0 -0.0932,0.004 -0.0627,0.002 -0.0914,0.002 -0.0251,0 -0.0251,-0.0215 0,-0.0358 0.0322,-0.0358 0.10212,-0.004 0.14153,-0.0376 0.0412,-0.0358 0.0573,-0.10032 l 0.23289,-0.93334 q 0.007,-0.0287 0.007,-0.034 0,-0.0251 -0.0394,-0.0305 -0.043,-0.004 -0.0788,-0.004 -0.0215,0 -0.0305,0 -0.009,-0.002 -0.0161,-0.005 -0.007,-0.005 -0.007,-0.0161 0,-0.0233 0.0125,-0.0287 0.0125,-0.005 0.043,-0.005 h 0.25081 q 0.0287,0 0.0358,0.002 0.009,0.002 0.0125,0.009 0.005,0.007 0.009,0.0305 l 0.14332,1.03904 0.66821,-1.04621 q 0.0161,-0.0251 0.0251,-0.0287 0.0108,-0.005 0.0466,-0.005 h 0.24184 q 0.0502,0 0.0502,0.0197 0,0.0251 -0.0125,0.0305 -0.0108,0.005 -0.0466,0.005 -0.0967,0 -0.12182,0.0161 -0.0233,0.0143 -0.0358,0.0681 z"
         id="path4" />
      <path
         d="m 119.48192,134.66434 q 0,0.0276 -0.0276,0.0276 -0.0193,0 -0.0882,-0.0579 -0.0661,-0.0551 -0.17087,-0.18741 -0.10473,-0.12954 -0.1819,-0.28663 -0.18742,-0.38861 -0.18742,-0.87919 0,-0.47129 0.17915,-0.8599 0.0744,-0.16261 0.1819,-0.29765 0.10749,-0.13505 0.17639,-0.19293 0.0716,-0.0606 0.0909,-0.0606 0.0276,0 0.0276,0.0276 0,0.0165 -0.0358,0.0496 -0.45475,0.46302 -0.45475,1.33394 0,0.87367 0.44372,1.32016 0.0469,0.0468 0.0469,0.0634 z"
         id="path7" />
      <path
         style="font-family:'TexMaths Symbols';-inkscape-font-specification:'TexMaths Symbols'"
         d="m 120.47135,132.18111 v 1.58199 q 0,0.0854 0.0413,0.11024 0.0413,0.0248 0.22049,0.0248 h 0.0909 v 0.0882 q -0.0992,-0.008 -0.45751,-0.008 -0.35829,0 -0.45751,0.008 v -0.0882 h 0.091 q 0.17915,0 0.22049,-0.0248 0.0413,-0.0276 0.0413,-0.11024 v -1.46072 q -0.14056,0.0717 -0.36932,0.0717 v -0.0854 q 0.34176,0 0.51539,-0.1819 0.0468,0 0.0551,0.011 0.008,0.008 0.008,0.0634 z m 1.15479,1.80248 q 0,0.14607 -0.0606,0.28112 -0.0579,0.1378 -0.11575,0.20119 -0.0579,0.0661 -0.0799,0.0661 -0.0303,0 -0.0303,-0.0331 0,-0.008 0.022,-0.0303 0.20119,-0.21498 0.20119,-0.48507 0,-0.0413 -0.006,-0.0413 l -0.006,0.006 q -0.0469,0.0386 -0.10749,0.0386 -0.0716,0 -0.11024,-0.0441 -0.0386,-0.0441 -0.0386,-0.10473 0,-0.0606 0.0386,-0.10474 0.0413,-0.0468 0.11024,-0.0468 0.0854,0 0.13229,0.0799 0.0496,0.0799 0.0496,0.21773 z m 0.565,-0.21498 h 0.50712 q 0.2508,0 0.27009,-0.0221 0.0276,-0.0386 0.0606,-0.2508 h 0.0717 l -0.0799,0.49058 h -1.04731 q 0,-0.0524 0.003,-0.0661 0.006,-0.0165 0.0276,-0.0386 l 0.54294,-0.60358 q 0.29766,-0.33624 0.29766,-0.62287 0,-0.18741 -0.0992,-0.32246 -0.0992,-0.1378 -0.28112,-0.1378 -0.12402,0 -0.22875,0.0772 -0.10198,0.0744 -0.15159,0.20946 0.008,-0.003 0.0358,-0.003 0.0717,0 0.11024,0.0441 0.0413,0.0413 0.0413,0.10197 0,0.0772 -0.0496,0.11576 -0.0496,0.0358 -0.0992,0.0358 -0.008,0 -0.0193,0 -0.011,-0.003 -0.0358,-0.011 -0.0248,-0.008 -0.0441,-0.0221 -0.0193,-0.0165 -0.0358,-0.0496 -0.0138,-0.0331 -0.0138,-0.0772 0,-0.19843 0.14883,-0.35277 0.15158,-0.1571 0.38034,-0.1571 0.25907,0 0.42719,0.15434 0.17087,0.15434 0.17087,0.39412 0,0.10473 -0.0276,0.18741 -0.0276,0.0827 -0.11851,0.19017 -0.0882,0.10473 -0.17639,0.19017 -0.0882,0.0827 -0.28663,0.25632 z m 2.32061,-0.35002 q 0,0.26459 -0.1819,0.44924 -0.1819,0.1819 -0.4327,0.1819 -0.226,0 -0.36931,-0.15985 -0.14332,-0.16261 -0.14332,-0.35829 0,-0.0854 0.0441,-0.11575 0.0469,-0.0331 0.0937,-0.0331 0.0662,0 0.10473,0.0413 0.0386,0.0413 0.0386,0.0965 0,0.0551 -0.0386,0.0965 -0.0386,0.0413 -0.10473,0.0413 -0.0303,0 -0.0468,-0.006 0.0358,0.12953 0.14883,0.22324 0.11575,0.0937 0.26458,0.0937 0.18741,0 0.30317,-0.18466 0.0689,-0.11851 0.0689,-0.38585 0,-0.23151 -0.0524,-0.35553 -0.0799,-0.1819 -0.23978,-0.1819 -0.22876,0 -0.3638,0.19843 -0.0165,0.0248 -0.0358,0.0248 -0.0276,0 -0.0358,-0.0138 -0.006,-0.0165 -0.006,-0.0579 v -0.83509 q 0,-0.0689 0.0303,-0.0689 0.011,0 0.0331,0.008 0.17364,0.0799 0.37483,0.0799 0.19844,0 0.3831,-0.0827 0.0138,-0.008 0.0248,-0.008 0.0276,0 0.0276,0.0303 0,0.0138 -0.0221,0.0469 -0.022,0.0303 -0.0717,0.0744 -0.0469,0.0413 -0.11024,0.0799 -0.0606,0.0386 -0.15158,0.0661 -0.091,0.0276 -0.19017,0.0276 -0.11024,0 -0.23978,-0.0386 v 0.55122 q 0.14607,-0.14332 0.35829,-0.14332 0.226,0 0.38034,0.1819 0.15709,0.1819 0.15709,0.43546 z m 2.66788,-1.06384 -0.39411,1.57096 q -0.011,0.0413 -0.0193,0.0524 -0.006,0.008 -0.0276,0.008 -0.0193,0 -0.0303,-0.008 -0.008,-0.011 -0.022,-0.0441 l -0.7028,-1.66467 -0.0248,-0.0496 -0.37207,1.49104 q -0.0138,0.0496 -0.0138,0.0634 0,0.11851 0.18742,0.12402 0.0579,0 0.0579,0.0331 0,0.0551 -0.0524,0.0551 -0.0469,0 -0.14332,-0.003 -0.0965,-0.006 -0.14607,-0.006 -0.0469,0 -0.14332,0.006 -0.0965,0.003 -0.14056,0.003 -0.0358,0 -0.0358,-0.0303 0,-0.0579 0.0469,-0.0579 0.1571,-0.006 0.21773,-0.0579 0.0634,-0.0551 0.0882,-0.15434 l 0.37759,-1.51308 q 0,-0.0276 -0.19017,-0.0276 -0.0469,0 -0.0634,-0.003 -0.0165,-0.006 -0.0165,-0.0276 0,-0.0386 0.0165,-0.0469 0.0193,-0.008 0.0661,-0.008 h 0.37758 q 0.0496,0 0.0606,0.008 0.0138,0.006 0.0303,0.0441 l 0.62288,1.4745 0.31695,-1.25677 q 0.008,-0.0248 0.008,-0.0606 0,-0.12127 -0.19292,-0.12402 -0.0496,0 -0.0496,-0.0303 0,-0.0551 0.0496,-0.0551 0.0468,0 0.14056,0.006 0.0965,0.003 0.14607,0.003 0.0468,0 0.14332,-0.003 0.0965,-0.006 0.14331,-0.006 0.0358,0 0.0358,0.0303 0,0.0551 -0.0468,0.0551 -0.15434,0.006 -0.21773,0.0579 -0.0634,0.0524 -0.0882,0.15159 z"
         id="path8" />
      <path
         style="font-size:1.83444px;font-family:'TexMaths Symbols';-inkscape-font-specification:'TexMaths Symbols';baseline-shift:sub"
         d="m 127.86727,133.95424 -0.11286,0.45681 q -0.007,0.0269 -0.007,0.043 0,0.0179 0.009,0.0251 0.0107,0.007 0.0484,0.0108 0.0466,0.004 0.0967,0.004 0.0448,0 0.0502,0.002 l 0.002,0.002 q 0.004,0.004 0.007,0.009 0.004,0.004 0.004,0.0108 0,0.034 -0.0394,0.034 -0.0305,0 -0.13794,-0.002 -0.1057,-0.004 -0.13615,-0.004 -0.0269,0 -0.12182,0.004 -0.0931,0.002 -0.12003,0.002 -0.0269,0 -0.0269,-0.0215 0,-0.0161 0.007,-0.0233 0.007,-0.009 0.0161,-0.0108 0.0108,-0.002 0.0287,-0.002 0.10391,0 0.1272,-0.0143 0.0251,-0.0143 0.0394,-0.0717 l 0.24184,-0.97096 q 0.009,-0.0323 0.009,-0.043 0,-0.0215 -0.0287,-0.0269 -0.0287,-0.007 -0.0914,-0.007 -0.0305,0 -0.0412,-0.002 -0.009,-0.004 -0.009,-0.0179 0,-0.0251 0.0108,-0.0305 0.0125,-0.005 0.0448,-0.005 h 0.89751 q 0.0376,0 0.0448,0.007 0.009,0.005 0.005,0.0412 l -0.0376,0.31708 q -0.002,0.0197 -0.004,0.0287 -0.002,0.007 -0.007,0.0125 -0.005,0.005 -0.0143,0.005 -0.0215,0 -0.0215,-0.0215 0,-0.0108 0.004,-0.034 0.005,-0.0502 0.005,-0.0985 0,-0.11286 -0.0537,-0.15765 -0.0537,-0.0448 -0.21497,-0.0448 h -0.24185 q -0.0591,0 -0.0734,0.0108 -0.0125,0.0108 -0.0251,0.0609 l -0.11823,0.46578 H 128.05 q 0.11645,0 0.16123,-0.034 0.0448,-0.034 0.0752,-0.14152 0.005,-0.0233 0.009,-0.0305 0.005,-0.007 0.0179,-0.007 0.0215,0 0.0215,0.0197 0,0.009 -0.005,0.0287 l -0.10032,0.39949 q -0.0179,0.0358 -0.0269,0.0376 -0.0233,0 -0.0233,-0.0215 0,-0.009 0.005,-0.0215 0.0143,-0.0627 0.0143,-0.0896 0,-0.0448 -0.0287,-0.0627 -0.0269,-0.0197 -0.12361,-0.0197 z m 1.17878,0 -0.11286,0.45681 q -0.007,0.0269 -0.007,0.043 0,0.0179 0.009,0.0251 0.0108,0.007 0.0484,0.0108 0.0466,0.004 0.0967,0.004 0.0448,0 0.0502,0.002 l 0.002,0.002 q 0.004,0.004 0.007,0.009 0.004,0.004 0.004,0.0108 0,0.034 -0.0394,0.034 -0.0305,0 -0.13794,-0.002 -0.10569,-0.004 -0.13615,-0.004 -0.0269,0 -0.12182,0.004 -0.0932,0.002 -0.12002,0.002 -0.0269,0 -0.0269,-0.0215 0,-0.0161 0.007,-0.0233 0.007,-0.009 0.0161,-0.0108 0.0108,-0.002 0.0287,-0.002 0.1039,0 0.12719,-0.0143 0.0251,-0.0143 0.0394,-0.0717 l 0.24185,-0.97096 q 0.009,-0.0323 0.009,-0.043 0,-0.0215 -0.0287,-0.0269 -0.0287,-0.007 -0.0914,-0.007 -0.0305,0 -0.0412,-0.002 -0.009,-0.004 -0.009,-0.0179 0,-0.0251 0.0108,-0.0305 0.0125,-0.005 0.0448,-0.005 h 0.89752 q 0.0376,0 0.0448,0.007 0.009,0.005 0.005,0.0412 l -0.0376,0.31708 q -0.002,0.0197 -0.004,0.0287 -0.002,0.007 -0.007,0.0125 -0.005,0.005 -0.0143,0.005 -0.0215,0 -0.0215,-0.0215 0,-0.0108 0.004,-0.034 0.005,-0.0502 0.005,-0.0985 0,-0.11286 -0.0538,-0.15765 -0.0537,-0.0448 -0.21497,-0.0448 h -0.24185 q -0.0591,0 -0.0735,0.0108 -0.0125,0.0108 -0.0251,0.0609 l -0.11823,0.46578 h 0.16839 q 0.11645,0 0.16124,-0.034 0.0448,-0.034 0.0752,-0.14152 0.005,-0.0233 0.009,-0.0305 0.005,-0.007 0.0179,-0.007 0.0215,0 0.0215,0.0197 0,0.009 -0.005,0.0287 l -0.10032,0.39949 q -0.0179,0.0358 -0.0269,0.0376 -0.0233,0 -0.0233,-0.0215 0,-0.009 0.005,-0.0215 0.0143,-0.0627 0.0143,-0.0896 0,-0.0448 -0.0287,-0.0627 -0.0269,-0.0197 -0.12361,-0.0197 z m 1.40628,-0.51773 -0.24363,0.97454 q -0.007,0.0269 -0.007,0.0394 0,0.0215 0.0125,0.0287 0.0143,0.007 0.0555,0.0108 0.0484,0.004 0.11644,0.004 0.0376,0 0.0502,0.004 0.0125,0.004 0.0125,0.0179 0,0.0358 -0.0394,0.0358 -0.0251,0 -0.0788,-0.002 -0.0538,-0.002 -0.0806,-0.002 -0.0251,0 -0.0752,0 -0.0502,-0.002 -0.077,-0.002 -0.0269,0 -0.0788,0.002 -0.052,0 -0.077,0 -0.0251,0 -0.0752,0.002 -0.0502,0.002 -0.0752,0.002 -0.0323,0 -0.0323,-0.0215 0,-0.0251 0.0125,-0.0305 0.0125,-0.005 0.0645,-0.005 0.0985,0 0.14152,-0.009 0.0448,-0.009 0.0555,-0.0233 0.0125,-0.0161 0.0215,-0.0555 l 0.24543,-0.97992 q 0.007,-0.0215 0.007,-0.0376 0,-0.007 -0.002,-0.009 0,-0.004 -0.004,-0.007 -0.004,-0.005 -0.0143,-0.005 -0.0108,-0.002 -0.0305,-0.002 h -0.0717 q -0.10928,0 -0.1684,0.009 -0.0573,0.009 -0.10569,0.0448 -0.0484,0.0358 -0.077,0.0932 -0.0287,0.0573 -0.0681,0.17198 -0.0125,0.034 -0.0215,0.0358 -0.004,0.002 -0.009,0.002 -0.0215,0 -0.0215,-0.0197 0,-0.0125 0.0108,-0.034 l 0.10928,-0.32246 q 0.009,-0.0251 0.0161,-0.0304 0.009,-0.005 0.043,-0.005 h 1.01755 q 0.0502,0 0.0502,0.0197 0,0.0161 -0.004,0.0304 l -0.0502,0.32067 q -0.005,0.0412 -0.0269,0.0412 -0.0215,0 -0.0215,-0.0233 0,-0.0143 0.005,-0.0358 0.0143,-0.0967 0.0143,-0.1469 0,-0.10032 -0.0573,-0.1254 -0.0555,-0.0251 -0.21139,-0.0251 -0.0914,0 -0.11465,0.005 -0.0161,0.004 -0.0251,0.0161 -0.009,0.0125 -0.0179,0.0502 z"
         id="path9" />
      <path
         d="m 131.98926,133.01621 q 0,-0.10474 -0.0386,-0.1323 -0.0358,-0.0276 -0.1819,-0.0276 v -0.0854 l 0.39688,-0.0331 v 0.29766 q 0.1378,-0.29766 0.41892,-0.29766 0.33073,0 0.37483,0.27837 0.0469,-0.10749 0.14882,-0.19293 0.10198,-0.0854 0.25908,-0.0854 0.21221,0 0.29765,0.10473 0.0606,0.0717 0.0744,0.15159 0.0138,0.0772 0.0138,0.28112 v 0.54019 q 0.003,0.0579 0.0441,0.0717 0.0441,0.011 0.16261,0.011 0.008,0 0.0138,0 v 0.0882 q -0.28939,-0.008 -0.31695,-0.008 -0.022,0 -0.3197,0.008 v -0.0882 q 0.14883,0 0.18466,-0.0165 0.0358,-0.0193 0.0358,-0.11024 v -0.65595 q 0,-0.14331 -0.0441,-0.22875 -0.0441,-0.0854 -0.16537,-0.0854 -0.14882,0 -0.26458,0.12402 -0.11575,0.12127 -0.11575,0.32798 v 0.51814 q 0,0.091 0.0358,0.11024 0.0358,0.0165 0.18466,0.0165 v 0.0882 q -0.28939,-0.008 -0.31695,-0.008 -0.022,0 -0.3197,0.008 v -0.0882 q 0.15158,0 0.18465,-0.0165 0.0358,-0.0193 0.0358,-0.11024 v -0.65595 q 0,-0.14331 -0.0441,-0.22875 -0.0413,-0.0854 -0.16261,-0.0854 -0.14883,0 -0.26734,0.12402 -0.11576,0.12127 -0.11576,0.32798 v 0.51814 q 0,0.091 0.0331,0.11024 0.0358,0.0165 0.18741,0.0165 v 0.0882 q -0.28939,-0.008 -0.31695,-0.008 -0.0193,0 -0.31695,0.008 v -0.0882 q 0.15159,0 0.18466,-0.0165 0.0358,-0.0193 0.0358,-0.11024 z m 3.13917,0.74689 q -0.12127,0.25356 -0.3638,0.25356 -0.12403,0 -0.20947,-0.0303 -0.0854,-0.0331 -0.12678,-0.0717 -0.0413,-0.0386 -0.0634,-0.113 -0.022,-0.0772 -0.0248,-0.12403 -0.003,-0.0469 -0.003,-0.1378 v -0.42168 q 0,-0.19017 -0.0303,-0.226 -0.0276,-0.0358 -0.19017,-0.0358 v -0.0854 l 0.41341,-0.0331 v 0.93707 q 0,0.0661 0.006,0.10748 0.006,0.0413 0.0276,0.0882 0.0248,0.0441 0.0772,0.0661 0.0524,0.0193 0.13781,0.0193 0.15158,0 0.24529,-0.12403 0.0965,-0.12678 0.0965,-0.31419 v -0.5016 q 0,-0.10474 -0.0386,-0.1323 -0.0358,-0.0276 -0.1819,-0.0276 v -0.0854 l 0.41617,-0.0331 v 1.00321 q 0,0.10473 0.0358,0.13229 0.0358,0.0248 0.18466,0.0248 v 0.0882 l -0.4079,0.0303 z m 0.77997,-0.48782 h 0.66697 q 0,-0.0606 -0.011,-0.12678 -0.008,-0.0662 -0.0386,-0.1571 -0.0276,-0.0909 -0.0965,-0.14883 -0.0689,-0.0579 -0.17087,-0.0579 -0.0441,0 -0.0937,0.0193 -0.0496,0.0193 -0.11024,0.0661 -0.0579,0.0469 -0.0992,0.15159 -0.0413,0.10473 -0.0469,0.25356 z m -0.003,0.0579 q 0,0.2949 0.0827,0.42444 0.12127,0.19017 0.31971,0.19017 0.0276,0 0.0606,-0.006 0.0331,-0.008 0.0992,-0.0303 0.0661,-0.0248 0.12678,-0.091 0.0606,-0.0661 0.0937,-0.16537 0.011,-0.0386 0.0386,-0.0386 0.0358,0 0.0358,0.0331 0,0.0248 -0.0276,0.0799 -0.0248,0.0551 -0.0772,0.12402 -0.0524,0.0661 -0.15159,0.11576 -0.0965,0.0469 -0.21497,0.0469 -0.2508,0 -0.43546,-0.18466 -0.18466,-0.18741 -0.18466,-0.46577 0,-0.26459 0.17088,-0.45476 0.17088,-0.19016 0.41617,-0.19016 0.24804,0 0.37482,0.1626 0.12954,0.16261 0.12954,0.39137 0,0.0441 -0.011,0.0524 -0.011,0.006 -0.0606,0.006 z m 1.52411,0.10473 q -0.16812,-0.0331 -0.23978,-0.0551 -0.0689,-0.022 -0.13229,-0.0744 -0.12127,-0.0992 -0.12127,-0.23978 0,-0.14056 0.10749,-0.24253 0.10749,-0.10473 0.34451,-0.10473 0.1571,0 0.26458,0.0799 0.0303,-0.0248 0.0469,-0.0441 0.0386,-0.0358 0.0579,-0.0358 0.0221,0 0.0248,0.0138 0.006,0.0138 0.006,0.0551 v 0.28387 q 0,0.0303 -0.003,0.0441 0,0.011 -0.008,0.0193 -0.008,0.006 -0.0248,0.006 -0.0331,0 -0.0358,-0.0248 -0.003,-0.0579 -0.011,-0.0937 -0.008,-0.0386 -0.0386,-0.10473 -0.0276,-0.0689 -0.0992,-0.10473 -0.0717,-0.0386 -0.17914,-0.0386 -0.16536,0 -0.24253,0.0634 -0.0744,0.0634 -0.0744,0.15158 0,0.0579 0.0276,0.0992 0.0303,0.0413 0.0909,0.0661 0.0606,0.0248 0.10198,0.0358 0.0441,0.011 0.12678,0.0276 0.22324,0.0414 0.32246,0.13781 0.11851,0.11851 0.11851,0.26734 0,0.16812 -0.113,0.28112 -0.113,0.11024 -0.34175,0.11024 -0.18466,0 -0.31144,-0.12127 -0.0221,0.0221 -0.0358,0.0386 -0.011,0.0138 -0.0165,0.0193 l -0.003,0.008 q -0.0551,0.0551 -0.0717,0.0551 -0.0221,0 -0.0276,-0.0138 -0.003,-0.011 -0.003,-0.0524 v -0.37207 q 0,-0.0303 0,-0.0413 0.003,-0.0138 0.011,-0.0221 0.008,-0.008 0.0248,-0.008 0.0193,0 0.0248,0.008 0.008,0.008 0.0138,0.0386 0.0413,0.19568 0.13229,0.30041 0.0937,0.10198 0.26183,0.10198 0.15709,0 0.23702,-0.0717 0.0799,-0.0717 0.0799,-0.18466 0,-0.0717 -0.0358,-0.12402 -0.0331,-0.0524 -0.0909,-0.0799 -0.0551,-0.0276 -0.091,-0.0386 -0.0358,-0.0138 -0.0744,-0.0193 z m 1.01148,-0.58153 v 0.78548 q 0,0.30593 0.19017,0.30593 0.0827,0 0.13505,-0.0827 0.0524,-0.0827 0.0524,-0.23427 v -0.15434 h 0.0717 v 0.15985 q 0,0.15434 -0.0689,0.26734 -0.0689,0.113 -0.20946,0.113 -0.0524,0 -0.10474,-0.0138 -0.0496,-0.011 -0.11575,-0.0441 -0.0634,-0.0358 -0.10473,-0.11851 -0.0413,-0.0827 -0.0413,-0.20395 v -0.77997 h -0.23978 v -0.0606 q 0.18741,-0.008 0.27561,-0.17088 0.0882,-0.16536 0.0909,-0.37482 h 0.0689 v 0.52089 h 0.40514 v 0.0854 z m 1.07762,0.19293 q 0.0386,-0.12127 0.12403,-0.21498 0.0854,-0.0965 0.22324,-0.0965 0.0882,0 0.14883,0.0524 0.0606,0.0524 0.0606,0.12126 0,0.0606 -0.0386,0.0937 -0.0386,0.0303 -0.0827,0.0303 -0.0496,0 -0.0854,-0.0303 -0.0358,-0.0331 -0.0358,-0.0909 0,-0.0331 0.0138,-0.0606 0.0165,-0.0276 0.0276,-0.0358 0.0138,-0.011 0.0221,-0.0138 -0.006,-0.003 -0.0303,-0.003 -0.15434,0 -0.24529,0.15434 -0.0882,0.15434 -0.0882,0.37483 v 0.43546 q 0,0.0827 0.0331,0.10748 0.0331,0.0248 0.1819,0.0248 h 0.0579 v 0.0882 q -0.113,-0.008 -0.35829,-0.008 -0.0358,0 -0.0882,0.003 -0.0524,0 -0.12402,0.003 -0.0689,0.003 -0.10749,0.003 v -0.0882 q 0.15159,0 0.18466,-0.0165 0.0358,-0.0193 0.0358,-0.11024 v -0.75516 q 0,-0.10474 -0.0386,-0.1323 -0.0358,-0.0276 -0.1819,-0.0276 v -0.0854 l 0.39136,-0.0331 z m 1.57097,0.72209 q -0.0413,0.10749 -0.14056,0.17639 -0.0965,0.0689 -0.22876,0.0689 -0.10197,0 -0.19843,-0.0248 -0.0965,-0.0248 -0.17639,-0.0937 -0.0772,-0.0717 -0.0772,-0.17915 0,-0.23977 0.28112,-0.36655 0.17087,-0.0827 0.52089,-0.10198 v -0.10473 q 0,-0.17363 -0.0937,-0.26734 -0.0909,-0.0937 -0.20671,-0.0937 -0.20119,0 -0.30317,0.12954 0.0579,0 0.0937,0.0276 0.0358,0.0276 0.0413,0.0524 0.008,0.0248 0.008,0.0496 0,0.0579 -0.0358,0.0937 -0.0358,0.0358 -0.0937,0.0358 -0.0579,0 -0.0937,-0.0331 -0.0358,-0.0358 -0.0358,-0.0992 0,-0.1378 0.12402,-0.22875 0.12403,-0.091 0.30041,-0.091 0.23152,0 0.38861,0.15709 0.0469,0.0496 0.0689,0.113 0.0248,0.0606 0.0276,0.0992 0.003,0.0386 0.003,0.11851 v 0.565 q 0,0.0165 0.006,0.0441 0.006,0.0276 0.0303,0.0634 0.0276,0.0331 0.0689,0.0331 0.10198,0 0.10198,-0.17915 v -0.1571 h 0.0717 v 0.1571 q 0,0.14883 -0.0799,0.20946 -0.0772,0.0579 -0.15159,0.0579 -0.0937,0 -0.15434,-0.0689 -0.0579,-0.0689 -0.0661,-0.16261 z m -0.0193,-0.46302 q -0.16536,0.006 -0.28663,0.0496 -0.12126,0.0413 -0.1819,0.10473 -0.0606,0.0634 -0.0882,0.12678 -0.0276,0.0634 -0.0276,0.12678 0,0.10473 0.0744,0.17363 0.0744,0.0661 0.17915,0.0661 0.11851,0 0.22324,-0.0909 0.10748,-0.0909 0.10748,-0.27286 z m 1.07763,0.12953 q -0.16812,-0.0331 -0.23978,-0.0551 -0.0689,-0.022 -0.13229,-0.0744 -0.12127,-0.0992 -0.12127,-0.23978 0,-0.14056 0.10749,-0.24253 0.10749,-0.10473 0.34451,-0.10473 0.15709,0 0.26458,0.0799 0.0303,-0.0248 0.0469,-0.0441 0.0386,-0.0358 0.0579,-0.0358 0.022,0 0.0248,0.0138 0.006,0.0138 0.006,0.0551 v 0.28387 q 0,0.0303 -0.003,0.0441 0,0.011 -0.008,0.0193 -0.008,0.006 -0.0248,0.006 -0.0331,0 -0.0358,-0.0248 -0.003,-0.0579 -0.011,-0.0937 -0.008,-0.0386 -0.0386,-0.10473 -0.0276,-0.0689 -0.0992,-0.10473 -0.0717,-0.0386 -0.17914,-0.0386 -0.16537,0 -0.24254,0.0634 -0.0744,0.0634 -0.0744,0.15158 0,0.0579 0.0276,0.0992 0.0303,0.0413 0.0909,0.0661 0.0606,0.0248 0.10198,0.0358 0.0441,0.011 0.12678,0.0276 0.22324,0.0414 0.32246,0.13781 0.11851,0.11851 0.11851,0.26734 0,0.16812 -0.113,0.28112 -0.113,0.11024 -0.34175,0.11024 -0.18466,0 -0.31144,-0.12127 -0.0221,0.0221 -0.0358,0.0386 -0.011,0.0138 -0.0165,0.0193 l -0.003,0.008 q -0.0551,0.0551 -0.0717,0.0551 -0.022,0 -0.0276,-0.0138 -0.003,-0.011 -0.003,-0.0524 v -0.37207 q 0,-0.0303 0,-0.0413 0.003,-0.0138 0.011,-0.0221 0.008,-0.008 0.0248,-0.008 0.0193,0 0.0248,0.008 0.008,0.008 0.0138,0.0386 0.0413,0.19568 0.13229,0.30041 0.0937,0.10198 0.26183,0.10198 0.15709,0 0.23702,-0.0717 0.0799,-0.0717 0.0799,-0.18466 0,-0.0717 -0.0358,-0.12402 -0.0331,-0.0524 -0.0909,-0.0799 -0.0551,-0.0276 -0.091,-0.0386 -0.0358,-0.0138 -0.0744,-0.0193 z m 1.33945,-0.15709 q 0,0.47129 -0.17914,0.85989 -0.0744,0.16261 -0.18191,0.29766 -0.10473,0.13505 -0.17638,0.19292 -0.0689,0.0606 -0.0882,0.0606 -0.0303,0 -0.0303,-0.0276 0,-0.0138 0.0386,-0.0496 0.45475,-0.46302 0.45475,-1.33394 0,-0.87368 -0.43821,-1.31741 -0.0551,-0.0524 -0.0551,-0.0661 0,-0.0276 0.0303,-0.0276 0.0193,0 0.0854,0.0579 0.0689,0.0551 0.17088,0.18741 0.10473,0.12953 0.1819,0.28663 0.18741,0.38861 0.18741,0.87919 z"
         id="path10" />
    </g>
    <text
       xml:space="preserve"
       style="font-size:3.175px;line-height:0.95;font-family:'TexMaths Roman';-inkscape-font-specification:'TexMaths Roman, Normal';text-align:center;text-anchor:middle;fill:#000000;fill-rule:evenodd;stroke:none;stroke-width:0.264583;stroke-dasharray:0.264583, 0.79375;stroke-dashoffset:0"
       x="48.947914"
       y="99.20871"
       id="text5-5"><tspan
         sodipodi:role="line"
         id="tspan5-3"
         style="text-align:center;text-anchor:middle;fill:#000000;stroke:none;stroke-width:0.264583"
         x="48.947914"
         y="99.20871" /></text>
    <text
       xml:space="preserve"
       transform="matrix(0.26458333,0,0,0.26458333,32.940621,111.65416)"
       id="text24"
       style="font-style:normal;font-variant:normal;font-weight:normal;font-stretch:normal;font-size:10.6667px;line-height:0.95;font-family:'TexMaths Symbols';-inkscape-font-specification:'TexMaths Symbols';text-align:center;white-space:pre;shape-inside:url(#rect24);fill:#000000;fill-rule:evenodd;stroke:none;stroke-width:0.999999;stroke-dasharray:none;stroke-dashoffset:0" />
    <text
       xml:space="preserve"
       transform="matrix(0.26458333,0,0,0.26458333,32.940621,111.65416)"
       id="text25"
       style="font-style:normal;font-variant:normal;font-weight:normal;font-stretch:normal;font-size:10.6667px;line-height:0.95;font-family:'TexMaths Symbols';-inkscape-font-specification:'TexMaths Symbols';text-align:center;white-space:pre;shape-inside:url(#rect25);fill:#000000;fill-rule:evenodd;stroke:none;stroke-width:0.999999;stroke-dasharray:none;stroke-dashoffset:0" />
    <path
       style="fill:none;fill-rule:evenodd;stroke:none;stroke-width:0.264583;stroke-dasharray:none;stroke-dashoffset:0"
       d="m 166.68749,111.12501 0.002,23.56688"
       id="path25" />
    <path
       style="fill:none;fill-rule:evenodd;stroke:none;stroke-width:0.264583;stroke-dasharray:none;stroke-dashoffset:0"
       d="M 32.940621,111.12501 V 134.6919"
       id="path25-5"
       sodipodi:nodetypes="cc" />
  </g>
</svg>
