<?xml version="1.0" encoding="utf-8" standalone="no"?>
<!DOCTYPE svg PUBLIC "-//W3C//DTD SVG 1.1//EN"
  "http://www.w3.org/Graphics/SVG/1.1/DTD/svg11.dtd">
<svg xmlns:xlink="http://www.w3.org/1999/xlink" width="576pt" height="216pt" viewBox="0 0 576 216" xmlns="http://www.w3.org/2000/svg" version="1.1">
 <metadata>
  <rdf:RDF xmlns:dc="http://purl.org/dc/elements/1.1/" xmlns:cc="http://creativecommons.org/ns#" xmlns:rdf="http://www.w3.org/1999/02/22-rdf-syntax-ns#">
   <cc:Work>
    <dc:type rdf:resource="http://purl.org/dc/dcmitype/StillImage"/>
    <dc:date>2023-11-08T14:13:20.051130</dc:date>
    <dc:format>image/svg+xml</dc:format>
    <dc:creator>
     <cc:Agent>
      <dc:title>Matplotlib v3.7.1, https://matplotlib.org/</dc:title>
     </cc:Agent>
    </dc:creator>
   </cc:Work>
  </rdf:RDF>
 </metadata>
 <defs>
  <style type="text/css">*{stroke-linejoin: round; stroke-linecap: butt}</style>
 </defs>
 <g id="figure_1">
  <g id="patch_1">
   <path d="M 0 216 
L 576 216 
L 576 0 
L 0 0 
z
" style="fill: #1b3041"/>
  </g>
  <g id="axes_1">
   <g id="patch_2">
    <path d="M 16.914646 80.605354 
L 573.165354 80.605354 
L 573.165354 19.994646 
L 16.914646 19.994646 
z
" style="fill: #21252b"/>
   </g>
   <g id="matplotlib.axis_1"/>
   <g id="matplotlib.axis_2">
    <g id="text_1">
     <!-- canal I -->
     <g style="fill: #9eb1be" transform="translate(10.626989 69.160703) rotate(-90) scale(0.11 -0.11)">
      <defs>
       <path id="DejaVuSerif-63" d="M 3291 997 
Q 3169 466 2822 187 
Q 2475 -91 1925 -91 
Q 1200 -91 759 389 
Q 319 869 319 1663 
Q 319 2459 759 2936 
Q 1200 3413 1925 3413 
Q 2241 3413 2553 3339 
Q 2866 3266 3181 3116 
L 3181 2266 
L 2847 2266 
Q 2781 2703 2561 2903 
Q 2341 3103 1931 3103 
Q 1466 3103 1228 2742 
Q 991 2381 991 1663 
Q 991 944 1227 581 
Q 1463 219 1931 219 
Q 2303 219 2525 412 
Q 2747 606 2828 997 
L 3291 997 
z
" transform="scale(0.015625)"/>
       <path id="DejaVuSerif-61" d="M 2547 1044 
L 2547 1747 
L 1806 1747 
Q 1378 1747 1168 1562 
Q 959 1378 959 997 
Q 959 650 1171 447 
Q 1384 244 1747 244 
Q 2106 244 2326 466 
Q 2547 688 2547 1044 
z
M 3122 2075 
L 3122 331 
L 3634 331 
L 3634 0 
L 2547 0 
L 2547 359 
Q 2356 128 2106 18 
Q 1856 -91 1522 -91 
Q 969 -91 644 203 
Q 319 497 319 997 
Q 319 1513 691 1797 
Q 1063 2081 1741 2081 
L 2547 2081 
L 2547 2309 
Q 2547 2688 2317 2895 
Q 2088 3103 1672 3103 
Q 1328 3103 1125 2947 
Q 922 2791 872 2484 
L 575 2484 
L 575 3156 
Q 875 3284 1158 3348 
Q 1441 3413 1709 3413 
Q 2400 3413 2761 3070 
Q 3122 2728 3122 2075 
z
" transform="scale(0.015625)"/>
       <path id="DejaVuSerif-6e" d="M 263 0 
L 263 331 
L 781 331 
L 781 2988 
L 231 2988 
L 231 3322 
L 1356 3322 
L 1356 2731 
Q 1516 3069 1770 3241 
Q 2025 3413 2363 3413 
Q 2913 3413 3172 3097 
Q 3431 2781 3431 2113 
L 3431 331 
L 3944 331 
L 3944 0 
L 2356 0 
L 2356 331 
L 2853 331 
L 2853 1931 
Q 2853 2541 2703 2767 
Q 2553 2994 2175 2994 
Q 1775 2994 1565 2701 
Q 1356 2409 1356 1850 
L 1356 331 
L 1856 331 
L 1856 0 
L 263 0 
z
" transform="scale(0.015625)"/>
       <path id="DejaVuSerif-6c" d="M 1313 331 
L 1856 331 
L 1856 0 
L 184 0 
L 184 331 
L 738 331 
L 738 4531 
L 184 4531 
L 184 4863 
L 1313 4863 
L 1313 331 
z
" transform="scale(0.015625)"/>
       <path id="DejaVuSerif-20" transform="scale(0.015625)"/>
       <path id="DejaVuSerif-49" d="M 1581 331 
L 2175 331 
L 2175 0 
L 353 0 
L 353 331 
L 947 331 
L 947 4331 
L 353 4331 
L 353 4666 
L 2175 4666 
L 2175 4331 
L 1581 4331 
L 1581 331 
z
" transform="scale(0.015625)"/>
      </defs>
      <use xlink:href="#DejaVuSerif-63"/>
      <use xlink:href="#DejaVuSerif-61" x="56.005859"/>
      <use xlink:href="#DejaVuSerif-6e" x="115.625"/>
      <use xlink:href="#DejaVuSerif-61" x="180.029297"/>
      <use xlink:href="#DejaVuSerif-6c" x="239.648438"/>
      <use xlink:href="#DejaVuSerif-20" x="271.630859"/>
      <use xlink:href="#DejaVuSerif-49" x="303.417969"/>
     </g>
    </g>
   </g>
   <g id="line2d_1">
    <path d="M 32.65759 51.671166 
L 33.800869 51.671166 
L 33.800869 52.980249 
L 34.944147 52.980249 
L 34.944147 48.475586 
L 36.087426 48.475586 
L 36.087426 52.092331 
L 37.230704 52.092331 
L 37.230704 47.627189 
L 38.373983 47.627189 
L 38.373983 53.432873 
L 39.517261 53.432873 
L 39.517261 50.810189 
L 40.66054 50.810189 
L 40.66054 52.136644 
L 41.803818 52.136644 
L 41.803818 50.496543 
L 42.947097 50.496543 
L 42.947097 49.06722 
L 44.090375 49.06722 
L 44.090375 51.538193 
L 45.233653 51.538193 
L 45.233653 51.848218 
L 46.376932 51.848218 
L 46.376932 52.733808 
L 47.52021 52.733808 
L 47.52021 51.18638 
L 48.663489 51.18638 
L 48.663489 53.137597 
L 49.806767 53.137597 
L 49.806767 50.741776 
L 50.950046 50.741776 
L 50.950046 48.7878 
L 52.093324 48.7878 
L 52.093324 49.693297 
L 53.236603 49.693297 
L 53.236603 51.111671 
L 54.379881 51.111671 
L 54.379881 48.983495 
L 55.52316 48.983495 
L 55.52316 51.502249 
L 56.666438 51.502249 
L 56.666438 53.620071 
L 57.809717 53.620071 
L 57.809717 52.615396 
L 58.952995 52.615396 
L 58.952995 53.563446 
L 60.096274 53.563446 
L 60.096274 56.07757 
L 61.239552 56.07757 
L 61.239552 50.756154 
L 62.382831 50.756154 
L 62.382831 49.99584 
L 63.526109 49.99584 
L 63.526109 49.535654 
L 64.669388 49.535654 
L 64.669388 52.349111 
L 65.812666 52.349111 
L 65.812666 50.109161 
L 66.955944 50.109161 
L 66.955944 49.149687 
L 68.099223 49.149687 
L 68.099223 52.734176 
L 69.242501 52.734176 
L 69.242501 52.495098 
L 70.38578 52.495098 
L 70.38578 52.215968 
L 71.529058 52.215968 
L 71.529058 50.254409 
L 72.672337 50.254409 
L 72.672337 49.850141 
L 73.815615 49.850141 
L 73.815615 49.007464 
L 74.958894 49.007464 
L 74.958894 51.662489 
L 76.102172 51.662489 
L 76.102172 50.758008 
L 77.245451 50.758008 
L 77.245451 49.156243 
L 78.388729 49.156243 
L 78.388729 50.173138 
L 79.532008 50.173138 
L 79.532008 50.416428 
L 80.675286 50.416428 
L 80.675286 47.076364 
L 81.818565 47.076364 
L 81.818565 52.366106 
L 82.961843 52.366106 
L 82.961843 51.369844 
L 84.105122 51.369844 
L 84.105122 50.523011 
L 85.2484 50.523011 
L 85.2484 53.708499 
L 86.391679 53.708499 
L 86.391679 50.606617 
L 87.534957 50.606617 
L 87.534957 51.197019 
L 88.678235 51.197019 
L 88.678235 51.675341 
L 90.964792 51.756663 
L 90.964792 49.972491 
L 92.108071 49.972491 
L 92.108071 50.52256 
L 93.251349 50.52256 
L 93.251349 49.899417 
L 94.394628 49.899417 
L 94.394628 54.572508 
L 95.537906 54.572508 
L 95.537906 50.938389 
L 96.681185 50.938389 
L 96.681185 51.401213 
L 97.824463 51.401213 
L 97.824463 52.048036 
L 98.967742 52.048036 
L 98.967742 50.656707 
L 100.11102 50.656707 
L 100.11102 54.689072 
L 101.254299 54.689072 
L 101.254299 48.862922 
L 102.397577 48.862922 
L 102.397577 50.980796 
L 103.540856 50.980796 
L 103.540856 52.007116 
L 104.684134 52.007116 
L 104.684134 48.665121 
L 105.827413 48.665121 
L 105.827413 49.558513 
L 106.970691 49.558513 
L 106.970691 50.406666 
L 108.11397 50.406666 
L 108.11397 51.387219 
L 109.257248 51.387219 
L 109.257248 49.201851 
L 110.400526 49.201851 
L 110.400526 48.416262 
L 111.543805 48.416262 
L 111.543805 51.557573 
L 112.687083 51.557573 
L 112.687083 50.744849 
L 113.830362 50.744849 
L 113.830362 49.47012 
L 114.97364 49.47012 
L 114.97364 50.203448 
L 116.116919 50.203448 
L 116.116919 51.981544 
L 117.260197 51.981544 
L 117.260197 52.095094 
L 118.403476 52.095094 
L 118.403476 51.284537 
L 119.546754 51.284537 
L 119.546754 49.365887 
L 120.690033 49.365887 
L 120.690033 50.531768 
L 121.833311 50.531768 
L 121.833311 51.072136 
L 122.97659 51.072136 
L 122.97659 54.034645 
L 124.119868 54.034645 
L 124.119868 52.675907 
L 125.263147 52.675907 
L 125.263147 51.674038 
L 126.406425 51.674038 
L 126.406425 50.982036 
L 127.549704 50.982036 
L 127.549704 52.93846 
L 128.692982 52.93846 
L 128.692982 53.5242 
L 129.836261 53.5242 
L 129.836261 48.402854 
L 130.979539 48.402854 
L 130.979539 53.07036 
L 132.122817 53.07036 
L 132.122817 49.894031 
L 133.266096 49.894031 
L 133.266096 52.728512 
L 134.409374 52.728512 
L 134.409374 50.667619 
L 135.552653 50.667619 
L 135.552653 51.622374 
L 136.695931 51.622374 
L 136.695931 51.308066 
L 137.83921 51.308066 
L 137.83921 51.851321 
L 138.982488 51.851321 
L 138.982488 47.276282 
L 140.125767 47.276282 
L 140.125767 50.558714 
L 141.269045 50.558714 
L 141.269045 52.531436 
L 142.412324 52.531436 
L 142.412324 53.278321 
L 143.555602 53.278321 
L 143.555602 52.074876 
L 144.698881 52.074876 
L 144.698881 51.665773 
L 145.842159 51.665773 
L 145.842159 47.277402 
L 146.985438 47.277402 
L 146.985438 49.799398 
L 148.128716 49.799398 
L 148.128716 51.726542 
L 149.271995 51.726542 
L 149.271995 54.965993 
L 150.415273 54.965993 
L 150.415273 51.827282 
L 151.558552 51.827282 
L 151.558552 51.604824 
L 153.845108 51.579264 
L 153.845108 51.247738 
L 154.988387 51.247738 
L 154.988387 49.364418 
L 156.131665 49.364418 
L 156.131665 49.680881 
L 157.274944 49.680881 
L 157.274944 50.217049 
L 158.418222 50.217049 
L 158.418222 48.971418 
L 159.561501 48.971418 
L 159.561501 53.457127 
L 160.704779 53.457127 
L 160.704779 50.044825 
L 162.991336 50.0947 
L 162.991336 50.985152 
L 164.134615 50.985152 
L 164.134615 49.820149 
L 165.277893 49.820149 
L 165.277893 50.593943 
L 166.421172 50.593943 
L 166.421172 49.781744 
L 167.56445 49.781744 
L 167.56445 51.059358 
L 168.707729 51.059358 
L 168.707729 47.470135 
L 169.851007 47.470135 
L 169.851007 49.360655 
L 170.994286 49.360655 
L 170.994286 53.048698 
L 172.137564 53.048698 
L 172.137564 50.020161 
L 174.424121 50.010782 
L 174.424121 50.386875 
L 175.567399 50.386875 
L 175.567399 49.230221 
L 176.710678 49.230221 
L 176.710678 50.721426 
L 177.853956 50.721426 
L 177.853956 51.822947 
L 178.997235 51.822947 
L 178.997235 50.862863 
L 180.140513 50.862863 
L 180.140513 52.012769 
L 181.283792 52.012769 
L 181.283792 50.339019 
L 182.42707 50.339019 
L 182.42707 49.883068 
L 183.570349 49.883068 
L 183.570349 52.583217 
L 184.713627 52.583217 
L 184.713627 49.284625 
L 185.856906 49.284625 
L 185.856906 48.265523 
L 187.000184 48.265523 
L 187.000184 51.208364 
L 188.143463 51.208364 
L 188.143463 50.896309 
L 189.286741 50.896309 
L 189.286741 50.555616 
L 190.43002 50.555616 
L 190.43002 49.59162 
L 191.573298 49.59162 
L 191.573298 53.288574 
L 192.716577 53.288574 
L 192.716577 41.068705 
L 193.859855 41.068705 
L 193.859855 74.310517 
L 195.003134 74.310517 
L 195.003134 52.300392 
L 196.146412 52.300392 
L 196.146412 26.344979 
L 197.28969 26.344979 
L 197.28969 39.329106 
L 198.432969 39.329106 
L 198.432969 27.278565 
L 199.576247 27.278565 
L 199.576247 55.082907 
L 200.719526 55.082907 
L 200.719526 75.265156 
L 201.862804 75.265156 
L 201.862804 38.383844 
L 203.006083 38.383844 
L 203.006083 49.506629 
L 204.149361 49.506629 
L 204.149361 62.897165 
L 205.29264 62.897165 
L 205.29264 51.245199 
L 206.435918 51.245199 
L 206.435918 49.625908 
L 207.579197 49.625908 
L 207.579197 48.545941 
L 208.722475 48.545941 
L 208.722475 64.680732 
L 209.865754 64.680732 
L 209.865754 51.06813 
L 211.009032 51.06813 
L 211.009032 41.975236 
L 212.152311 41.975236 
L 212.152311 74.592582 
L 213.295589 74.592582 
L 213.295589 54.56712 
L 214.438868 54.56712 
L 214.438868 27.454759 
L 215.582146 27.454759 
L 215.582146 38.121539 
L 216.725425 38.121539 
L 216.725425 29.336685 
L 217.868703 29.336685 
L 217.868703 53.051584 
L 219.011981 53.051584 
L 219.011981 73.394409 
L 220.15526 73.394409 
L 220.15526 43.902815 
L 221.298538 43.902815 
L 221.298538 52.092448 
L 222.441817 52.092448 
L 222.441817 64.93699 
L 223.585095 64.93699 
L 223.585095 50.411838 
L 224.728374 50.411838 
L 224.728374 52.085469 
L 225.871652 52.085469 
L 225.871652 53.120599 
L 227.014931 53.120599 
L 227.014931 63.329094 
L 228.158209 63.329094 
L 228.158209 50.557577 
L 229.301488 50.557577 
L 229.301488 41.272769 
L 230.444766 41.272769 
L 230.444766 75.22262 
L 231.588045 75.22262 
L 231.588045 53.631118 
L 232.731323 53.631118 
L 232.731323 28.657313 
L 233.874602 28.657313 
L 233.874602 38.078461 
L 235.01788 38.078461 
L 235.01788 25.005045 
L 236.161159 25.005045 
L 236.161159 51.264314 
L 237.304437 51.264314 
L 237.304437 73.225295 
L 238.447716 73.225295 
L 238.447716 42.878373 
L 239.590994 42.878373 
L 239.590994 47.520844 
L 240.734272 47.520844 
L 240.734272 62.89952 
L 241.877551 62.89952 
L 241.877551 54.886767 
L 243.020829 54.886767 
L 243.020829 51.730034 
L 244.164108 51.730034 
L 244.164108 54.399075 
L 245.307386 54.399075 
L 245.307386 61.588421 
L 246.450665 61.588421 
L 246.450665 50.353353 
L 247.593943 50.353353 
L 247.593943 44.776576 
L 248.737222 44.776576 
L 248.737222 73.801282 
L 249.8805 73.801282 
L 249.8805 54.498219 
L 251.023779 54.498219 
L 251.023779 22.899825 
L 252.167057 22.899825 
L 252.167057 34.864884 
L 253.310336 34.864884 
L 253.310336 26.449148 
L 254.453614 26.449148 
L 254.453614 53.262231 
L 255.596893 53.262231 
L 255.596893 75.312472 
L 256.740171 75.312472 
L 256.740171 42.218923 
L 257.88345 42.218923 
L 257.88345 51.595671 
L 259.026728 51.595671 
L 259.026728 64.111456 
L 260.170007 64.111456 
L 260.170007 53.768262 
L 261.313285 53.768262 
L 261.313285 50.318497 
L 262.456563 50.318497 
L 262.456563 50.451523 
L 263.599842 50.451523 
L 263.599842 60.345529 
L 264.74312 60.345529 
L 264.74312 51.945578 
L 265.886399 51.945578 
L 265.886399 41.318863 
L 267.029677 41.318863 
L 267.029677 73.493666 
L 268.172956 73.493666 
L 268.172956 50.805414 
L 269.316234 50.805414 
L 269.316234 24.774369 
L 270.459513 24.774369 
L 270.459513 37.113902 
L 271.602791 37.113902 
L 271.602791 30.294357 
L 272.74607 30.294357 
L 272.74607 54.501721 
L 273.889348 54.501721 
L 273.889348 72.98041 
L 275.032627 72.98041 
L 275.032627 43.105828 
L 276.175905 43.105828 
L 276.175905 49.104549 
L 277.319184 49.104549 
L 277.319184 64.867162 
L 278.462462 64.867162 
L 278.462462 54.158945 
L 279.605741 54.158945 
L 279.605741 52.446535 
L 280.749019 52.446535 
L 280.749019 53.387735 
L 281.892298 53.387735 
L 281.892298 63.632578 
L 283.035576 63.632578 
L 283.035576 48.398068 
L 284.178854 48.398068 
L 284.178854 42.457948 
L 285.322133 42.457948 
L 285.322133 75.18187 
L 286.465411 75.18187 
L 286.465411 53.372096 
L 287.60869 53.372096 
L 287.60869 27.102273 
L 288.751968 27.102273 
L 288.751968 34.520401 
L 289.895247 34.520401 
L 289.895247 28.486727 
L 291.038525 28.486727 
L 291.038525 51.96512 
L 292.181804 51.96512 
L 292.181804 71.99337 
L 293.325082 71.99337 
L 293.325082 46.241933 
L 294.468361 46.241933 
L 294.468361 52.180489 
L 295.611639 52.180489 
L 295.611639 62.998227 
L 296.754918 62.998227 
L 296.754918 50.845972 
L 297.898196 50.845972 
L 297.898196 52.090942 
L 299.041475 52.090942 
L 299.041475 55.000114 
L 300.184753 55.000114 
L 300.184753 64.761417 
L 301.328032 64.761417 
L 301.328032 54.233606 
L 302.47131 54.233606 
L 302.47131 43.233142 
L 303.614589 43.233142 
L 303.614589 74.588308 
L 304.757867 74.588308 
L 304.757867 53.482342 
L 305.901146 53.482342 
L 305.901146 26.9831 
L 307.044424 26.9831 
L 307.044424 35.342723 
L 308.187702 35.342723 
L 308.187702 24.882136 
L 309.330981 24.882136 
L 309.330981 55.090888 
L 310.474259 55.090888 
L 310.474259 73.046559 
L 311.617538 73.046559 
L 311.617538 42.862155 
L 312.760816 42.862155 
L 312.760816 52.34622 
L 313.904095 52.34622 
L 313.904095 64.989286 
L 315.047373 64.989286 
L 315.047373 54.572373 
L 316.190652 54.572373 
L 316.190652 54.963211 
L 317.33393 54.963211 
L 317.33393 54.282213 
L 318.477209 54.282213 
L 318.477209 64.430315 
L 319.620487 64.430315 
L 319.620487 49.50551 
L 320.763766 49.50551 
L 320.763766 42.231699 
L 321.907044 42.231699 
L 321.907044 74.22497 
L 323.050323 74.22497 
L 323.050323 51.819742 
L 324.193601 51.819742 
L 324.193601 25.879047 
L 325.33688 25.879047 
L 325.33688 36.229698 
L 326.480158 36.229698 
L 326.480158 22.397499 
L 327.623437 22.397499 
L 327.623437 55.943955 
L 328.766715 55.943955 
L 328.766715 73.829291 
L 329.909993 73.829291 
L 329.909993 44.277993 
L 331.053272 44.277993 
L 331.053272 52.257601 
L 332.19655 52.257601 
L 332.19655 65.634525 
L 333.339829 65.634525 
L 333.339829 56.10569 
L 334.483107 56.10569 
L 334.483107 52.205166 
L 335.626386 52.205166 
L 335.626386 53.377585 
L 336.769664 53.377585 
L 336.769664 64.917532 
L 337.912943 64.917532 
L 337.912943 52.087436 
L 339.056221 52.087436 
L 339.056221 42.717729 
L 340.1995 42.717729 
L 340.1995 76.615867 
L 341.342778 76.615867 
L 341.342778 52.042117 
L 342.486057 52.042117 
L 342.486057 23.483708 
L 343.629335 23.483708 
L 343.629335 30.934913 
L 344.772614 30.934913 
L 344.772614 22.435575 
L 345.915892 22.435575 
L 345.915892 53.517307 
L 347.059171 53.517307 
L 347.059171 74.567941 
L 348.202449 74.567941 
L 348.202449 41.930914 
L 349.345728 41.930914 
L 349.345728 52.34215 
L 350.489006 52.34215 
L 350.489006 63.622831 
L 351.632284 63.622831 
L 351.632284 53.007259 
L 352.775563 53.007259 
L 352.775563 49.681674 
L 353.918841 49.681674 
L 353.918841 53.970786 
L 355.06212 53.970786 
L 355.06212 64.498114 
L 356.205398 64.498114 
L 356.205398 53.083951 
L 357.348677 53.083951 
L 357.348677 40.910244 
L 358.491955 40.910244 
L 358.491955 76.128136 
L 359.635234 76.128136 
L 359.635234 55.475377 
L 360.778512 55.475377 
L 360.778512 27.7726 
L 361.921791 27.7726 
L 361.921791 35.557203 
L 363.065069 35.557203 
L 363.065069 26.402815 
L 364.208348 26.402815 
L 364.208348 53.713067 
L 365.351626 53.713067 
L 365.351626 73.870375 
L 366.494905 73.870375 
L 366.494905 46.015975 
L 367.638183 46.015975 
L 367.638183 50.584295 
L 368.781462 50.584295 
L 368.781462 65.792193 
L 369.92474 65.792193 
L 369.92474 52.784479 
L 371.068019 52.784479 
L 371.068019 49.218164 
L 372.211297 49.218164 
L 372.211297 54.028893 
L 373.354575 54.028893 
L 373.354575 59.706929 
L 374.497854 59.706929 
L 374.497854 52.916127 
L 375.641132 52.916127 
L 375.641132 76.123778 
L 376.784411 76.123778 
L 376.784411 48.931759 
L 377.927689 48.931759 
L 377.927689 33.896335 
L 379.070968 33.896335 
L 379.070968 67.31644 
L 380.214246 67.31644 
L 380.214246 53.355046 
L 381.357525 53.355046 
L 381.357525 38.189609 
L 382.500803 38.189609 
L 382.500803 72.436972 
L 383.644082 72.436972 
L 383.644082 72.870886 
L 384.78736 72.870886 
L 384.78736 55.976564 
L 385.930639 55.976564 
L 385.930639 62.070123 
L 387.073917 62.070123 
L 387.073917 63.021051 
L 388.217196 63.021051 
L 388.217196 37.835985 
L 389.360474 37.835985 
L 389.360474 37.438369 
L 390.503753 37.438369 
L 390.503753 75.347219 
L 391.647031 75.347219 
L 391.647031 59.348556 
L 392.79031 59.348556 
L 392.79031 43.534733 
L 393.933588 43.534733 
L 393.933588 43.223996 
L 395.076866 43.223996 
L 395.076866 31.415416 
L 396.220145 31.415416 
L 396.220145 52.34079 
L 397.363423 52.34079 
L 397.363423 41.696788 
L 398.506702 41.696788 
L 398.506702 46.47804 
L 399.64998 46.47804 
L 399.64998 71.218373 
L 400.793259 71.218373 
L 400.793259 53.953965 
L 401.936537 53.953965 
L 401.936537 39.379722 
L 403.079816 39.379722 
L 403.079816 35.68985 
L 404.223094 35.68985 
L 404.223094 57.877321 
L 405.366373 57.877321 
L 405.366373 68.404747 
L 406.509651 68.404747 
L 406.509651 41.945893 
L 407.65293 41.945893 
L 407.65293 48.457411 
L 408.796208 48.457411 
L 408.796208 33.130513 
L 409.939487 33.130513 
L 409.939487 45.178147 
L 411.082765 45.178147 
L 411.082765 51.648613 
L 412.226044 51.648613 
L 412.226044 23.598303 
L 413.369322 23.598303 
L 413.369322 51.438989 
L 414.512601 51.438989 
L 414.512601 43.361793 
L 415.655879 43.361793 
L 415.655879 33.597514 
L 416.799157 33.597514 
L 416.799157 47.845731 
L 417.942436 47.845731 
L 417.942436 41.363915 
L 419.085714 41.363915 
L 419.085714 68.656099 
L 420.228993 68.656099 
L 420.228993 58.528782 
L 421.372271 58.528782 
L 421.372271 32.485239 
L 422.51555 32.485239 
L 422.51555 42.039456 
L 423.658828 42.039456 
L 423.658828 47.324569 
L 424.802107 47.324569 
L 424.802107 76.148808 
L 425.945385 76.148808 
L 425.945385 44.604002 
L 427.088664 44.604002 
L 427.088664 42.455938 
L 428.231942 42.455938 
L 428.231942 53.685342 
L 429.375221 53.685342 
L 429.375221 31.410656 
L 430.518499 31.410656 
L 430.518499 36.024471 
L 431.661778 36.024471 
L 431.661778 45.88079 
L 432.805056 45.88079 
L 432.805056 60.519666 
L 433.948335 60.519666 
L 433.948335 72.602106 
L 435.091613 72.602106 
L 435.091613 36.535434 
L 436.234892 36.535434 
L 436.234892 37.684085 
L 437.37817 37.684085 
L 437.37817 62.230844 
L 438.521448 62.230844 
L 438.521448 61.307079 
L 439.664727 61.307079 
L 439.664727 53.861956 
L 440.808005 53.861956 
L 440.808005 72.496516 
L 441.951284 72.496516 
L 441.951284 70.458043 
L 443.094562 70.458043 
L 443.094562 37.45036 
L 444.237841 37.45036 
L 444.237841 50.465103 
L 445.381119 50.465103 
L 445.381119 64.368549 
L 446.524398 64.368549 
L 446.524398 36.024154 
L 447.667676 36.024154 
L 447.667676 47.657662 
L 448.810955 47.657662 
L 448.810955 76.665768 
L 449.954233 76.665768 
L 449.954233 49.952709 
L 451.097512 49.952709 
L 451.097512 33.147027 
L 452.24079 33.147027 
L 452.24079 63.367042 
L 453.384069 63.367042 
L 453.384069 53.153046 
L 454.527347 53.153046 
L 454.527347 42.14768 
L 455.670626 42.14768 
L 455.670626 71.892164 
L 456.813904 71.892164 
L 456.813904 74.311598 
L 457.957183 74.311598 
L 457.957183 59.82084 
L 460.243739 59.713273 
L 460.243739 61.406044 
L 461.387018 61.406044 
L 461.387018 40.369115 
L 462.530296 40.369115 
L 462.530296 38.580716 
L 463.673575 38.580716 
L 463.673575 71.165104 
L 464.816853 71.165104 
L 464.816853 62.882927 
L 465.960132 62.882927 
L 465.960132 47.239074 
L 467.10341 47.239074 
L 467.10341 40.410839 
L 468.246689 40.410839 
L 468.246689 29.410352 
L 469.389967 29.410352 
L 469.389967 53.720404 
L 470.533246 53.720404 
L 470.533246 38.233561 
L 471.676524 38.233561 
L 471.676524 46.149978 
L 472.819803 46.149978 
L 472.819803 73.234076 
L 473.963081 73.234076 
L 473.963081 48.913112 
L 475.10636 48.913112 
L 475.10636 44.086235 
L 476.249638 44.086235 
L 476.249638 34.847342 
L 477.392917 34.847342 
L 477.392917 56.605678 
L 478.536195 56.605678 
L 478.536195 74.571126 
L 479.679474 74.571126 
L 479.679474 42.613157 
L 480.822752 42.613157 
L 480.822752 47.987295 
L 481.96603 47.987295 
L 481.96603 34.636745 
L 483.109309 34.636745 
L 483.109309 40.409759 
L 484.252587 40.409759 
L 484.252587 49.300363 
L 485.395866 49.300363 
L 485.395866 21.710043 
L 486.539144 21.710043 
L 486.539144 52.692386 
L 487.682423 52.692386 
L 487.682423 45.270836 
L 488.825701 45.270836 
L 488.825701 35.532644 
L 489.96898 35.532644 
L 489.96898 47.829028 
L 491.112258 47.829028 
L 491.112258 39.24749 
L 492.255537 39.24749 
L 492.255537 72.710139 
L 493.398815 72.710139 
L 493.398815 56.174777 
L 494.542094 56.174777 
L 494.542094 37.019361 
L 495.685372 37.019361 
L 495.685372 39.755197 
L 496.828651 39.755197 
L 496.828651 51.239409 
L 497.971929 51.239409 
L 497.971929 74.315619 
L 499.115208 74.315619 
L 499.115208 47.860305 
L 500.258486 47.860305 
L 500.258486 40.485402 
L 501.401765 40.485402 
L 501.401765 57.199195 
L 502.545043 57.199195 
L 502.545043 31.262915 
L 503.688321 31.262915 
L 503.688321 37.354667 
L 504.8316 37.354667 
L 504.8316 47.866425 
L 505.974878 47.866425 
L 505.974878 61.914074 
L 507.118157 61.914074 
L 507.118157 74.716265 
L 508.261435 74.716265 
L 508.261435 37.594384 
L 509.404714 37.594384 
L 509.404714 41.92499 
L 510.547992 41.92499 
L 510.547992 57.781686 
L 511.691271 57.781686 
L 511.691271 61.575439 
L 512.834549 61.575439 
L 512.834549 58.229655 
L 513.977828 58.229655 
L 513.977828 73.848274 
L 515.121106 73.848274 
L 515.121106 74.418673 
L 516.264385 74.418673 
L 516.264385 36.380943 
L 517.407663 36.380943 
L 517.407663 48.623745 
L 518.550942 48.623745 
L 518.550942 66.451684 
L 519.69422 66.451684 
L 519.69422 35.482285 
L 520.837499 35.482285 
L 520.837499 49.031737 
L 521.980777 49.031737 
L 521.980777 77.193401 
L 523.124056 77.193401 
L 523.124056 49.744057 
L 524.267334 49.744057 
L 524.267334 36.810358 
L 525.410612 36.810358 
L 525.410612 66.920573 
L 526.553891 66.920573 
L 526.553891 50.683403 
L 527.697169 50.683403 
L 527.697169 40.636477 
L 528.840448 40.636477 
L 528.840448 71.619141 
L 529.983726 71.619141 
L 529.983726 73.931597 
L 531.127005 73.931597 
L 531.127005 55.821946 
L 532.270283 55.821946 
L 532.270283 60.05669 
L 533.413562 60.05669 
L 533.413562 62.144197 
L 534.55684 62.144197 
L 534.55684 40.358851 
L 535.700119 40.358851 
L 535.700119 34.62488 
L 536.843397 34.62488 
L 536.843397 78.889957 
L 537.986676 78.889957 
L 537.986676 65.138182 
L 539.129954 65.138182 
L 539.129954 45.447562 
L 540.273233 45.447562 
L 540.273233 40.491675 
L 541.416511 40.491675 
L 541.416511 29.430631 
L 542.55979 29.430631 
L 542.55979 54.757293 
L 543.703068 54.757293 
L 543.703068 43.282121 
L 544.846347 43.282121 
L 544.846347 44.773375 
L 545.989625 44.773375 
L 545.989625 75.604925 
L 547.132903 75.604925 
L 547.132903 55.101895 
L 548.276182 55.101895 
L 548.276182 40.976001 
L 549.41946 40.976001 
L 549.41946 37.0894 
L 550.562739 37.0894 
L 550.562739 58.767678 
L 551.706017 58.767678 
L 551.706017 71.24521 
L 552.849296 71.24521 
L 552.849296 40.730607 
L 553.992574 40.730607 
L 553.992574 46.947552 
L 555.135853 46.947552 
L 555.135853 33.475027 
L 556.279131 33.475027 
L 556.279131 44.211877 
L 557.42241 44.211877 
L 557.42241 49.321969 
L 557.42241 49.321969 
" clip-path="url(#pbec4830280)" style="fill: none; stroke: #a1c9f4"/>
   </g>
   <g id="patch_3">
    <path d="M 16.914646 80.605354 
L 16.914646 19.994646 
" style="fill: none; stroke: #adb2b7; stroke-linejoin: miter; stroke-linecap: square"/>
   </g>
   <g id="patch_4">
    <path d="M 16.914646 80.605354 
L 573.165354 80.605354 
" style="fill: none; stroke: #adb2b7; stroke-linejoin: miter; stroke-linecap: square"/>
   </g>
   <g id="text_2">
    <!-- Correlación Short Training Sequence -->
    <g style="fill: #adb2b7" transform="translate(162.183281 13.994646) scale(0.14 -0.14)">
     <defs>
      <path id="DejaVuSerif-43" d="M 4513 1234 
Q 4306 581 3820 245 
Q 3334 -91 2591 -91 
Q 2134 -91 1743 65 
Q 1353 222 1050 525 
Q 700 875 529 1320 
Q 359 1766 359 2328 
Q 359 3416 987 4083 
Q 1616 4750 2644 4750 
Q 3025 4750 3456 4650 
Q 3888 4550 4384 4347 
L 4384 3272 
L 4031 3272 
Q 3916 3859 3567 4137 
Q 3219 4416 2591 4416 
Q 1844 4416 1459 3886 
Q 1075 3356 1075 2328 
Q 1075 1303 1459 773 
Q 1844 244 2591 244 
Q 3113 244 3450 492 
Q 3788 741 3938 1234 
L 4513 1234 
z
" transform="scale(0.015625)"/>
      <path id="DejaVuSerif-6f" d="M 1925 219 
Q 2388 219 2623 584 
Q 2859 950 2859 1663 
Q 2859 2375 2623 2739 
Q 2388 3103 1925 3103 
Q 1463 3103 1227 2739 
Q 991 2375 991 1663 
Q 991 950 1228 584 
Q 1466 219 1925 219 
z
M 1925 -91 
Q 1200 -91 759 389 
Q 319 869 319 1663 
Q 319 2456 758 2934 
Q 1197 3413 1925 3413 
Q 2653 3413 3092 2934 
Q 3531 2456 3531 1663 
Q 3531 869 3092 389 
Q 2653 -91 1925 -91 
z
" transform="scale(0.015625)"/>
      <path id="DejaVuSerif-72" d="M 3059 3328 
L 3059 2497 
L 2728 2497 
Q 2713 2744 2591 2866 
Q 2469 2988 2234 2988 
Q 1809 2988 1582 2694 
Q 1356 2400 1356 1850 
L 1356 331 
L 2022 331 
L 2022 0 
L 263 0 
L 263 331 
L 781 331 
L 781 2994 
L 231 2994 
L 231 3322 
L 1356 3322 
L 1356 2731 
Q 1525 3078 1790 3245 
Q 2056 3413 2438 3413 
Q 2578 3413 2733 3391 
Q 2888 3369 3059 3328 
z
" transform="scale(0.015625)"/>
      <path id="DejaVuSerif-65" d="M 3469 1600 
L 991 1600 
L 991 1575 
Q 991 903 1244 561 
Q 1497 219 1991 219 
Q 2369 219 2611 417 
Q 2853 616 2950 1006 
L 3413 1006 
Q 3275 459 2904 184 
Q 2534 -91 1931 -91 
Q 1203 -91 761 389 
Q 319 869 319 1663 
Q 319 2450 753 2931 
Q 1188 3413 1894 3413 
Q 2647 3413 3050 2948 
Q 3453 2484 3469 1600 
z
M 2791 1931 
Q 2772 2513 2545 2808 
Q 2319 3103 1894 3103 
Q 1497 3103 1269 2806 
Q 1041 2509 991 1931 
L 2791 1931 
z
" transform="scale(0.015625)"/>
      <path id="DejaVuSerif-69" d="M 622 4353 
Q 622 4497 726 4603 
Q 831 4709 978 4709 
Q 1122 4709 1226 4603 
Q 1331 4497 1331 4353 
Q 1331 4206 1228 4103 
Q 1125 4000 978 4000 
Q 831 4000 726 4103 
Q 622 4206 622 4353 
z
M 1356 331 
L 1900 331 
L 1900 0 
L 231 0 
L 231 331 
L 781 331 
L 781 2988 
L 231 2988 
L 231 3322 
L 1356 3322 
L 1356 331 
z
" transform="scale(0.015625)"/>
      <path id="DejaVuSerif-f3" d="M 1925 219 
Q 2388 219 2623 584 
Q 2859 950 2859 1663 
Q 2859 2375 2623 2739 
Q 2388 3103 1925 3103 
Q 1463 3103 1227 2739 
Q 991 2375 991 1663 
Q 991 950 1228 584 
Q 1466 219 1925 219 
z
M 1925 -91 
Q 1200 -91 759 389 
Q 319 869 319 1663 
Q 319 2456 758 2934 
Q 1197 3413 1925 3413 
Q 2653 3413 3092 2934 
Q 3531 2456 3531 1663 
Q 3531 869 3092 389 
Q 2653 -91 1925 -91 
z
M 2362 5119 
L 2984 5119 
L 1922 3944 
L 1556 3944 
L 2362 5119 
z
" transform="scale(0.015625)"/>
      <path id="DejaVuSerif-53" d="M 594 225 
L 594 1288 
L 953 1284 
Q 969 753 1261 498 
Q 1553 244 2150 244 
Q 2706 244 2998 464 
Q 3291 684 3291 1106 
Q 3291 1444 3114 1625 
Q 2938 1806 2369 1978 
L 1753 2163 
Q 1084 2366 811 2669 
Q 538 2972 538 3500 
Q 538 4094 959 4422 
Q 1381 4750 2144 4750 
Q 2469 4750 2856 4679 
Q 3244 4609 3681 4475 
L 3681 3481 
L 3328 3481 
Q 3275 3975 2998 4195 
Q 2722 4416 2156 4416 
Q 1663 4416 1405 4214 
Q 1147 4013 1147 3628 
Q 1147 3294 1340 3103 
Q 1534 2913 2163 2725 
L 2741 2553 
Q 3375 2363 3645 2067 
Q 3916 1772 3916 1275 
Q 3916 597 3481 253 
Q 3047 -91 2188 -91 
Q 1803 -91 1404 -12 
Q 1006 66 594 225 
z
" transform="scale(0.015625)"/>
      <path id="DejaVuSerif-68" d="M 263 0 
L 263 331 
L 781 331 
L 781 4531 
L 231 4531 
L 231 4863 
L 1356 4863 
L 1356 2731 
Q 1516 3069 1770 3241 
Q 2025 3413 2363 3413 
Q 2913 3413 3172 3097 
Q 3431 2781 3431 2113 
L 3431 331 
L 3944 331 
L 3944 0 
L 2356 0 
L 2356 331 
L 2853 331 
L 2853 1931 
Q 2853 2541 2704 2764 
Q 2556 2988 2175 2988 
Q 1775 2988 1565 2697 
Q 1356 2406 1356 1850 
L 1356 331 
L 1856 331 
L 1856 0 
L 263 0 
z
" transform="scale(0.015625)"/>
      <path id="DejaVuSerif-74" d="M 691 2988 
L 184 2988 
L 184 3322 
L 691 3322 
L 691 4353 
L 1269 4353 
L 1269 3322 
L 2350 3322 
L 2350 2988 
L 1269 2988 
L 1269 878 
Q 1269 456 1350 337 
Q 1431 219 1650 219 
Q 1875 219 1978 351 
Q 2081 484 2088 781 
L 2522 781 
Q 2497 328 2275 118 
Q 2053 -91 1600 -91 
Q 1103 -91 897 129 
Q 691 350 691 878 
L 691 2988 
z
" transform="scale(0.015625)"/>
      <path id="DejaVuSerif-54" d="M 1222 0 
L 1222 331 
L 1819 331 
L 1819 4294 
L 447 4294 
L 447 3566 
L 63 3566 
L 63 4666 
L 4206 4666 
L 4206 3566 
L 3822 3566 
L 3822 4294 
L 2450 4294 
L 2450 331 
L 3047 331 
L 3047 0 
L 1222 0 
z
" transform="scale(0.015625)"/>
      <path id="DejaVuSerif-67" d="M 3359 2988 
L 3359 72 
Q 3359 -644 2965 -1033 
Q 2572 -1422 1844 -1422 
Q 1516 -1422 1216 -1362 
Q 916 -1303 641 -1184 
L 641 -488 
L 941 -488 
Q 997 -813 1206 -963 
Q 1416 -1113 1806 -1113 
Q 2313 -1113 2548 -827 
Q 2784 -541 2784 72 
L 2784 519 
Q 2616 206 2355 57 
Q 2094 -91 1709 -91 
Q 1097 -91 708 395 
Q 319 881 319 1663 
Q 319 2444 706 2928 
Q 1094 3413 1709 3413 
Q 2094 3413 2355 3264 
Q 2616 3116 2784 2803 
L 2784 3322 
L 3909 3322 
L 3909 2988 
L 3359 2988 
z
M 2784 1825 
Q 2784 2422 2554 2737 
Q 2325 3053 1888 3053 
Q 1444 3053 1217 2703 
Q 991 2353 991 1663 
Q 991 975 1217 622 
Q 1444 269 1888 269 
Q 2325 269 2554 583 
Q 2784 897 2784 1497 
L 2784 1825 
z
" transform="scale(0.015625)"/>
      <path id="DejaVuSerif-71" d="M 3359 2988 
L 3359 -997 
L 3909 -997 
L 3909 -1331 
L 2241 -1331 
L 2241 -997 
L 2784 -997 
L 2784 519 
Q 2616 206 2355 57 
Q 2094 -91 1709 -91 
Q 1097 -91 708 395 
Q 319 881 319 1663 
Q 319 2444 706 2928 
Q 1094 3413 1709 3413 
Q 2094 3413 2355 3264 
Q 2616 3116 2784 2803 
L 2784 3322 
L 3909 3322 
L 3909 2988 
L 3359 2988 
z
M 2784 1825 
Q 2784 2422 2554 2737 
Q 2325 3053 1888 3053 
Q 1444 3053 1217 2703 
Q 991 2353 991 1663 
Q 991 975 1217 622 
Q 1444 269 1888 269 
Q 2325 269 2554 583 
Q 2784 897 2784 1497 
L 2784 1825 
z
" transform="scale(0.015625)"/>
      <path id="DejaVuSerif-75" d="M 2266 3322 
L 3341 3322 
L 3341 331 
L 3884 331 
L 3884 0 
L 2766 0 
L 2766 588 
Q 2606 256 2353 82 
Q 2100 -91 1766 -91 
Q 1213 -91 952 223 
Q 691 538 691 1209 
L 691 2988 
L 172 2988 
L 172 3322 
L 1269 3322 
L 1269 1388 
Q 1269 781 1417 556 
Q 1566 331 1947 331 
Q 2347 331 2556 625 
Q 2766 919 2766 1478 
L 2766 2988 
L 2266 2988 
L 2266 3322 
z
" transform="scale(0.015625)"/>
     </defs>
     <use xlink:href="#DejaVuSerif-43"/>
     <use xlink:href="#DejaVuSerif-6f" x="76.513672"/>
     <use xlink:href="#DejaVuSerif-72" x="136.71875"/>
     <use xlink:href="#DejaVuSerif-72" x="184.521484"/>
     <use xlink:href="#DejaVuSerif-65" x="232.324219"/>
     <use xlink:href="#DejaVuSerif-6c" x="291.503906"/>
     <use xlink:href="#DejaVuSerif-61" x="323.486328"/>
     <use xlink:href="#DejaVuSerif-63" x="383.105469"/>
     <use xlink:href="#DejaVuSerif-69" x="439.111328"/>
     <use xlink:href="#DejaVuSerif-f3" x="471.09375"/>
     <use xlink:href="#DejaVuSerif-6e" x="531.298828"/>
     <use xlink:href="#DejaVuSerif-20" x="595.703125"/>
     <use xlink:href="#DejaVuSerif-53" x="627.490234"/>
     <use xlink:href="#DejaVuSerif-68" x="695.996094"/>
     <use xlink:href="#DejaVuSerif-6f" x="760.400391"/>
     <use xlink:href="#DejaVuSerif-72" x="820.605469"/>
     <use xlink:href="#DejaVuSerif-74" x="868.408203"/>
     <use xlink:href="#DejaVuSerif-20" x="908.59375"/>
     <use xlink:href="#DejaVuSerif-54" x="940.380859"/>
     <use xlink:href="#DejaVuSerif-72" x="1007.080078"/>
     <use xlink:href="#DejaVuSerif-61" x="1054.882812"/>
     <use xlink:href="#DejaVuSerif-69" x="1114.501953"/>
     <use xlink:href="#DejaVuSerif-6e" x="1146.484375"/>
     <use xlink:href="#DejaVuSerif-69" x="1210.888672"/>
     <use xlink:href="#DejaVuSerif-6e" x="1242.871094"/>
     <use xlink:href="#DejaVuSerif-67" x="1307.275391"/>
     <use xlink:href="#DejaVuSerif-20" x="1371.289062"/>
     <use xlink:href="#DejaVuSerif-53" x="1403.076172"/>
     <use xlink:href="#DejaVuSerif-65" x="1471.582031"/>
     <use xlink:href="#DejaVuSerif-71" x="1530.761719"/>
     <use xlink:href="#DejaVuSerif-75" x="1594.775391"/>
     <use xlink:href="#DejaVuSerif-65" x="1659.179688"/>
     <use xlink:href="#DejaVuSerif-6e" x="1718.359375"/>
     <use xlink:href="#DejaVuSerif-63" x="1782.763672"/>
     <use xlink:href="#DejaVuSerif-65" x="1838.769531"/>
    </g>
   </g>
  </g>
  <g id="axes_2">
   <g id="patch_5">
    <path d="M 16.914646 146.885354 
L 573.165354 146.885354 
L 573.165354 86.274646 
L 16.914646 86.274646 
z
" style="fill: #21252b"/>
   </g>
   <g id="matplotlib.axis_3"/>
   <g id="matplotlib.axis_4">
    <g id="text_3">
     <!-- canal Q -->
     <g style="fill: #9eb1be" transform="translate(10.626989 137.777344) rotate(-90) scale(0.11 -0.11)">
      <defs>
       <path id="DejaVuSerif-51" d="M 2700 -91 
Q 1628 -91 993 567 
Q 359 1225 359 2328 
Q 359 2894 529 3339 
Q 700 3784 1050 4134 
Q 1356 4441 1750 4595 
Q 2144 4750 2625 4750 
Q 3641 4750 4266 4084 
Q 4891 3419 4891 2328 
Q 4891 1403 4422 773 
Q 3953 144 3128 -38 
Q 3297 -247 3539 -347 
Q 3781 -447 4122 -447 
L 4219 -447 
L 4219 -1025 
Q 3691 -1000 3314 -767 
Q 2938 -534 2700 -91 
z
M 2625 244 
Q 3391 244 3781 770 
Q 4172 1297 4172 2328 
Q 4172 3363 3781 3889 
Q 3391 4416 2625 4416 
Q 1856 4416 1465 3889 
Q 1075 3363 1075 2328 
Q 1075 1297 1465 770 
Q 1856 244 2625 244 
z
" transform="scale(0.015625)"/>
      </defs>
      <use xlink:href="#DejaVuSerif-63"/>
      <use xlink:href="#DejaVuSerif-61" x="56.005859"/>
      <use xlink:href="#DejaVuSerif-6e" x="115.625"/>
      <use xlink:href="#DejaVuSerif-61" x="180.029297"/>
      <use xlink:href="#DejaVuSerif-6c" x="239.648438"/>
      <use xlink:href="#DejaVuSerif-20" x="271.630859"/>
      <use xlink:href="#DejaVuSerif-51" x="303.417969"/>
     </g>
    </g>
   </g>
   <g id="line2d_2">
    <path d="M 32.65759 119.583333 
L 33.800869 119.583333 
L 33.800869 120.061006 
L 34.944147 120.061006 
L 34.944147 119.86381 
L 36.087426 119.86381 
L 36.087426 115.108078 
L 37.230704 115.108078 
L 37.230704 119.283867 
L 38.373983 119.283867 
L 38.373983 119.409083 
L 39.517261 119.409083 
L 39.517261 113.54438 
L 40.66054 113.54438 
L 40.66054 115.851698 
L 41.803818 115.851698 
L 41.803818 116.611475 
L 42.947097 116.611475 
L 42.947097 115.778055 
L 44.090375 115.778055 
L 44.090375 120.653521 
L 45.233653 120.653521 
L 45.233653 116.51185 
L 46.376932 116.51185 
L 46.376932 116.286456 
L 47.52021 116.286456 
L 47.52021 117.597921 
L 48.663489 117.597921 
L 48.663489 116.668898 
L 49.806767 116.668898 
L 49.806767 117.853932 
L 53.236603 117.803845 
L 53.236603 118.479028 
L 54.379881 118.479028 
L 54.379881 114.26464 
L 55.52316 114.26464 
L 55.52316 118.077495 
L 56.666438 118.077495 
L 56.666438 116.187479 
L 57.809717 116.187479 
L 57.809717 117.827741 
L 58.952995 117.827741 
L 58.952995 117.967162 
L 60.096274 117.967162 
L 60.096274 119.755237 
L 61.239552 119.755237 
L 61.239552 113.995875 
L 62.382831 113.995875 
L 62.382831 118.784125 
L 63.526109 118.784125 
L 63.526109 115.320597 
L 64.669388 115.320597 
L 64.669388 117.581826 
L 65.812666 117.581826 
L 65.812666 117.966602 
L 66.955944 117.966602 
L 66.955944 117.776792 
L 68.099223 117.776792 
L 68.099223 115.438801 
L 69.242501 115.438801 
L 69.242501 117.35569 
L 70.38578 117.35569 
L 70.38578 116.570165 
L 71.529058 116.570165 
L 71.529058 120.571482 
L 72.672337 120.571482 
L 72.672337 116.534389 
L 73.815615 116.534389 
L 73.815615 119.080555 
L 74.958894 119.080555 
L 74.958894 118.045685 
L 76.102172 118.045685 
L 76.102172 119.279288 
L 77.245451 119.279288 
L 77.245451 117.475101 
L 78.388729 117.475101 
L 78.388729 119.715505 
L 79.532008 119.715505 
L 79.532008 117.759907 
L 80.675286 117.759907 
L 80.675286 117.280302 
L 81.818565 117.280302 
L 81.818565 118.577881 
L 82.961843 118.577881 
L 82.961843 113.160637 
L 84.105122 113.160637 
L 84.105122 116.477703 
L 85.2484 116.477703 
L 85.2484 114.481175 
L 86.391679 114.481175 
L 86.391679 117.100638 
L 87.534957 117.100638 
L 87.534957 119.218501 
L 88.678235 119.218501 
L 88.678235 114.566235 
L 89.821514 114.566235 
L 89.821514 117.030521 
L 90.964792 117.030521 
L 90.964792 117.944696 
L 92.108071 117.944696 
L 92.108071 121.218133 
L 93.251349 121.218133 
L 93.251349 120.503974 
L 94.394628 120.503974 
L 94.394628 119.150801 
L 95.537906 119.150801 
L 95.537906 119.711441 
L 96.681185 119.711441 
L 96.681185 117.669043 
L 98.967742 117.63785 
L 98.967742 119.231646 
L 100.11102 119.231646 
L 100.11102 118.809715 
L 101.254299 118.809715 
L 101.254299 118.208814 
L 102.397577 118.208814 
L 102.397577 119.098109 
L 103.540856 119.098109 
L 103.540856 115.135232 
L 104.684134 115.135232 
L 104.684134 117.951388 
L 105.827413 117.951388 
L 105.827413 117.280416 
L 106.970691 117.280416 
L 106.970691 116.303844 
L 108.11397 116.303844 
L 108.11397 117.655535 
L 109.257248 117.655535 
L 109.257248 121.269091 
L 110.400526 121.269091 
L 110.400526 117.734365 
L 111.543805 117.734365 
L 111.543805 118.87682 
L 112.687083 118.87682 
L 112.687083 115.37821 
L 113.830362 115.37821 
L 113.830362 118.282951 
L 114.97364 118.282951 
L 114.97364 115.837433 
L 117.260197 115.901711 
L 117.260197 118.757559 
L 118.403476 118.757559 
L 118.403476 117.096631 
L 119.546754 117.096631 
L 119.546754 116.290175 
L 120.690033 116.290175 
L 120.690033 115.286763 
L 121.833311 115.286763 
L 121.833311 118.439593 
L 122.97659 118.439593 
L 122.97659 116.655288 
L 124.119868 116.655288 
L 124.119868 113.513068 
L 125.263147 113.513068 
L 125.263147 119.059942 
L 126.406425 119.059942 
L 126.406425 119.258137 
L 127.549704 119.258137 
L 127.549704 116.149446 
L 128.692982 116.149446 
L 128.692982 117.024706 
L 130.979539 117.133022 
L 130.979539 117.485525 
L 132.122817 117.485525 
L 132.122817 117.986747 
L 133.266096 117.986747 
L 133.266096 117.356555 
L 134.409374 117.356555 
L 134.409374 117.749142 
L 135.552653 117.749142 
L 135.552653 117.063752 
L 136.695931 117.063752 
L 136.695931 115.809688 
L 137.83921 115.809688 
L 137.83921 118.450746 
L 138.982488 118.450746 
L 138.982488 119.484902 
L 141.269045 119.510034 
L 141.269045 116.655325 
L 142.412324 116.655325 
L 142.412324 117.118457 
L 143.555602 117.118457 
L 143.555602 117.688627 
L 144.698881 117.688627 
L 144.698881 117.818128 
L 145.842159 117.818128 
L 145.842159 117.034807 
L 146.985438 117.034807 
L 146.985438 117.640526 
L 148.128716 117.640526 
L 148.128716 119.46797 
L 149.271995 119.46797 
L 149.271995 115.082563 
L 150.415273 115.082563 
L 150.415273 115.246951 
L 151.558552 115.246951 
L 151.558552 119.372881 
L 152.70183 119.372881 
L 152.70183 116.42735 
L 153.845108 116.42735 
L 153.845108 118.236634 
L 154.988387 118.236634 
L 154.988387 116.706611 
L 157.274944 116.79982 
L 157.274944 119.294279 
L 158.418222 119.294279 
L 158.418222 115.249164 
L 159.561501 115.249164 
L 159.561501 119.406825 
L 160.704779 119.406825 
L 160.704779 117.271948 
L 161.848058 117.271948 
L 161.848058 118.569919 
L 162.991336 118.569919 
L 162.991336 117.316632 
L 164.134615 117.316632 
L 164.134615 119.197096 
L 165.277893 119.197096 
L 165.277893 117.729578 
L 166.421172 117.729578 
L 166.421172 118.157272 
L 167.56445 118.157272 
L 167.56445 118.817732 
L 168.707729 118.817732 
L 168.707729 116.550848 
L 169.851007 116.550848 
L 169.851007 117.955434 
L 170.994286 117.955434 
L 170.994286 115.117508 
L 172.137564 115.117508 
L 172.137564 117.244754 
L 173.280843 117.244754 
L 173.280843 118.412356 
L 174.424121 118.412356 
L 174.424121 117.498031 
L 175.567399 117.498031 
L 175.567399 119.358767 
L 176.710678 119.358767 
L 176.710678 117.225415 
L 177.853956 117.225415 
L 177.853956 118.032304 
L 178.997235 118.032304 
L 178.997235 115.809655 
L 180.140513 115.809655 
L 180.140513 114.459965 
L 181.283792 114.459965 
L 181.283792 116.096052 
L 182.42707 116.096052 
L 182.42707 119.204627 
L 183.570349 119.204627 
L 183.570349 118.424291 
L 184.713627 118.424291 
L 184.713627 116.64538 
L 185.856906 116.64538 
L 185.856906 119.238019 
L 187.000184 119.238019 
L 187.000184 118.915269 
L 188.143463 118.915269 
L 188.143463 116.556181 
L 189.286741 116.556181 
L 189.286741 117.956136 
L 190.43002 117.956136 
L 190.43002 118.089087 
L 191.573298 118.089087 
L 191.573298 116.976533 
L 192.716577 116.976533 
L 192.716577 110.157214 
L 193.859855 110.157214 
L 193.859855 120.980775 
L 195.003134 120.980775 
L 195.003134 132.629453 
L 196.146412 132.629453 
L 196.146412 122.864244 
L 197.28969 122.864244 
L 197.28969 115.419793 
L 198.432969 115.419793 
L 198.432969 120.438244 
L 199.576247 120.438244 
L 199.576247 129.472268 
L 200.719526 129.472268 
L 200.719526 116.214677 
L 201.862804 116.214677 
L 201.862804 111.224955 
L 203.006083 111.224955 
L 203.006083 138.268175 
L 204.149361 138.268175 
L 204.149361 121.799778 
L 205.29264 121.799778 
L 205.29264 93.735685 
L 206.435918 93.735685 
L 206.435918 100.44406 
L 207.579197 100.44406 
L 207.579197 95.220754 
L 208.722475 95.220754 
L 208.722475 119.795745 
L 209.865754 119.795745 
L 209.865754 139.035606 
L 211.009032 139.035606 
L 211.009032 110.374862 
L 212.152311 110.374862 
L 212.152311 121.37181 
L 213.295589 121.37181 
L 213.295589 130.701784 
L 214.438868 130.701784 
L 214.438868 119.047666 
L 215.582146 119.047666 
L 215.582146 115.223953 
L 216.725425 115.223953 
L 216.725425 121.619254 
L 217.868703 121.619254 
L 217.868703 132.418612 
L 219.011981 132.418612 
L 219.011981 116.674751 
L 220.15526 116.674751 
L 220.15526 109.643441 
L 221.298538 109.643441 
L 221.298538 138.821816 
L 222.441817 138.821816 
L 222.441817 119.165897 
L 223.585095 119.165897 
L 223.585095 95.182641 
L 224.728374 95.182641 
L 224.728374 103.680541 
L 225.871652 103.680541 
L 225.871652 95.725817 
L 227.014931 95.725817 
L 227.014931 117.163886 
L 228.158209 117.163886 
L 228.158209 138.858052 
L 229.301488 138.858052 
L 229.301488 109.778114 
L 230.444766 109.778114 
L 230.444766 116.776797 
L 231.588045 116.776797 
L 231.588045 129.77019 
L 232.731323 129.77019 
L 232.731323 118.895985 
L 233.874602 118.895985 
L 233.874602 117.613999 
L 235.01788 117.613999 
L 235.01788 120.057333 
L 236.161159 120.057333 
L 236.161159 132.119895 
L 237.304437 132.119895 
L 237.304437 117.548863 
L 238.447716 117.548863 
L 238.447716 111.478333 
L 239.590994 111.478333 
L 239.590994 140.744977 
L 240.734272 140.744977 
L 240.734272 120.978212 
L 241.877551 120.978212 
L 241.877551 92.834491 
L 243.020829 92.834491 
L 243.020829 100.098685 
L 244.164108 100.098685 
L 244.164108 94.959866 
L 245.307386 94.959866 
L 245.307386 117.375022 
L 246.450665 117.375022 
L 246.450665 136.27675 
L 247.593943 136.27675 
L 247.593943 106.505068 
L 248.737222 106.505068 
L 248.737222 118.115711 
L 249.8805 118.115711 
L 249.8805 134.213708 
L 251.023779 134.213708 
L 251.023779 118.209008 
L 252.167057 118.209008 
L 252.167057 117.313943 
L 253.310336 117.313943 
L 253.310336 119.14241 
L 254.453614 119.14241 
L 254.453614 131.20085 
L 255.596893 131.20085 
L 255.596893 117.677036 
L 256.740171 117.677036 
L 256.740171 112.058564 
L 257.88345 112.058564 
L 257.88345 141.670754 
L 259.026728 141.670754 
L 259.026728 119.605311 
L 260.170007 119.605311 
L 260.170007 91.823873 
L 261.313285 91.823873 
L 261.313285 102.7893 
L 262.456563 102.7893 
L 262.456563 94.00656 
L 263.599842 94.00656 
L 263.599842 119.929505 
L 264.74312 119.929505 
L 264.74312 139.913562 
L 265.886399 139.913562 
L 265.886399 111.021223 
L 267.029677 111.021223 
L 267.029677 118.409578 
L 268.172956 118.409578 
L 268.172956 133.69418 
L 269.316234 133.69418 
L 269.316234 119.81992 
L 270.459513 119.81992 
L 270.459513 117.98476 
L 271.602791 117.98476 
L 271.602791 122.113931 
L 272.74607 122.113931 
L 272.74607 133.948738 
L 273.889348 133.948738 
L 273.889348 116.86292 
L 275.032627 116.86292 
L 275.032627 108.733545 
L 276.175905 108.733545 
L 276.175905 138.632476 
L 277.319184 138.632476 
L 277.319184 122.796365 
L 278.462462 122.796365 
L 278.462462 92.810376 
L 279.605741 92.810376 
L 279.605741 102.610232 
L 280.749019 102.610232 
L 280.749019 96.436045 
L 281.892298 96.436045 
L 281.892298 119.239754 
L 283.035576 119.239754 
L 283.035576 140.828282 
L 284.178854 140.828282 
L 284.178854 107.473196 
L 285.322133 107.473196 
L 285.322133 117.559864 
L 286.465411 117.559864 
L 286.465411 127.211582 
L 287.60869 127.211582 
L 287.60869 119.347532 
L 288.751968 119.347532 
L 288.751968 118.017768 
L 289.895247 118.017768 
L 289.895247 117.790041 
L 291.038525 117.790041 
L 291.038525 130.852652 
L 292.181804 130.852652 
L 292.181804 115.699717 
L 293.325082 115.699717 
L 293.325082 111.581268 
L 294.468361 111.581268 
L 294.468361 140.785051 
L 295.611639 140.785051 
L 295.611639 119.156213 
L 296.754918 119.156213 
L 296.754918 92.325901 
L 297.898196 92.325901 
L 297.898196 102.062016 
L 299.041475 102.062016 
L 299.041475 92.336541 
L 300.184753 92.336541 
L 300.184753 117.689651 
L 301.328032 117.689651 
L 301.328032 138.10866 
L 302.47131 138.10866 
L 302.47131 111.882181 
L 303.614589 111.882181 
L 303.614589 116.193134 
L 304.757867 116.193134 
L 304.757867 130.831184 
L 305.901146 130.831184 
L 305.901146 119.704091 
L 307.044424 119.704091 
L 307.044424 116.665985 
L 308.187702 116.665985 
L 308.187702 121.142364 
L 309.330981 121.142364 
L 309.330981 131.619276 
L 310.474259 131.619276 
L 310.474259 118.511925 
L 311.617538 118.511925 
L 311.617538 108.534496 
L 312.760816 108.534496 
L 312.760816 136.631667 
L 313.904095 136.631667 
L 313.904095 120.989936 
L 315.047373 120.989936 
L 315.047373 94.897734 
L 316.190652 94.897734 
L 316.190652 105.637789 
L 317.33393 105.637789 
L 317.33393 94.157582 
L 318.477209 94.157582 
L 318.477209 118.831999 
L 319.620487 118.831999 
L 319.620487 141.846799 
L 320.763766 141.846799 
L 320.763766 109.230791 
L 321.907044 109.230791 
L 321.907044 116.235306 
L 323.050323 116.235306 
L 323.050323 129.210732 
L 324.193601 129.210732 
L 324.193601 119.057295 
L 325.33688 119.057295 
L 325.33688 118.165286 
L 326.480158 118.165286 
L 326.480158 118.559433 
L 327.623437 118.559433 
L 327.623437 129.638801 
L 328.766715 129.638801 
L 328.766715 115.907554 
L 329.909993 115.907554 
L 329.909993 112.626981 
L 331.053272 112.626981 
L 331.053272 137.68478 
L 332.19655 137.68478 
L 332.19655 122.149906 
L 333.339829 122.149906 
L 333.339829 96.26412 
L 334.483107 96.26412 
L 334.483107 100.739092 
L 335.626386 100.739092 
L 335.626386 95.042695 
L 336.769664 95.042695 
L 336.769664 118.068107 
L 337.912943 118.068107 
L 337.912943 139.840658 
L 339.056221 139.840658 
L 339.056221 111.646938 
L 340.1995 111.646938 
L 340.1995 116.932006 
L 341.342778 116.932006 
L 341.342778 131.435337 
L 342.486057 131.435337 
L 342.486057 118.471772 
L 343.629335 118.471772 
L 343.629335 115.331274 
L 344.772614 115.331274 
L 344.772614 119.341441 
L 345.915892 119.341441 
L 345.915892 129.607146 
L 347.059171 129.607146 
L 347.059171 117.589166 
L 348.202449 117.589166 
L 348.202449 108.349746 
L 349.345728 108.349746 
L 349.345728 139.997684 
L 350.489006 139.997684 
L 350.489006 121.182237 
L 351.632284 121.182237 
L 351.632284 93.312689 
L 352.775563 93.312689 
L 352.775563 102.416544 
L 353.918841 102.416544 
L 353.918841 95.92095 
L 355.06212 95.92095 
L 355.06212 119.701349 
L 356.205398 119.701349 
L 356.205398 138.753563 
L 357.348677 138.753563 
L 357.348677 108.631669 
L 358.491955 108.631669 
L 358.491955 119.678438 
L 359.635234 119.678438 
L 359.635234 132.077658 
L 360.778512 132.077658 
L 360.778512 120.885595 
L 361.921791 120.885595 
L 361.921791 119.006299 
L 364.208348 118.949506 
L 364.208348 128.111876 
L 365.351626 128.111876 
L 365.351626 119.261444 
L 366.494905 119.261444 
L 366.494905 109.144075 
L 367.638183 109.144075 
L 367.638183 137.034862 
L 368.781462 137.034862 
L 368.781462 117.127414 
L 369.92474 117.127414 
L 369.92474 92.300112 
L 371.068019 92.300112 
L 371.068019 103.839153 
L 372.211297 103.839153 
L 372.211297 96.085154 
L 373.354575 96.085154 
L 373.354575 119.704668 
L 374.497854 119.704668 
L 374.497854 141.919129 
L 375.641132 141.919129 
L 375.641132 118.044875 
L 376.784411 118.044875 
L 376.784411 136.247191 
L 377.927689 136.247191 
L 377.927689 136.925265 
L 379.070968 136.925265 
L 379.070968 139.743792 
L 380.214246 139.743792 
L 380.214246 128.956428 
L 381.357525 128.956428 
L 381.357525 105.096497 
L 382.500803 105.096497 
L 382.500803 113.934205 
L 383.644082 113.934205 
L 383.644082 117.620003 
L 384.78736 117.620003 
L 384.78736 93.323076 
L 385.930639 93.323076 
L 385.930639 112.512736 
L 387.073917 112.512736 
L 387.073917 132.46331 
L 388.217196 132.46331 
L 388.217196 120.270776 
L 389.360474 120.270776 
L 389.360474 130.319024 
L 390.503753 130.319024 
L 390.503753 129.932264 
L 391.647031 129.932264 
L 391.647031 120.738508 
L 392.79031 120.738508 
L 392.79031 131.067895 
L 393.933588 131.067895 
L 393.933588 106.962795 
L 395.076866 106.962795 
L 395.076866 117.843687 
L 396.220145 117.843687 
L 396.220145 145.169957 
L 397.363423 145.169957 
L 397.363423 116.140598 
L 398.506702 116.140598 
L 398.506702 107.905275 
L 399.64998 107.905275 
L 399.64998 113.233853 
L 400.793259 113.233853 
L 400.793259 101.268637 
L 401.936537 101.268637 
L 401.936537 117.198968 
L 403.079816 117.198968 
L 403.079816 113.299649 
L 404.223094 113.299649 
L 404.223094 101.015066 
L 405.366373 101.015066 
L 405.366373 106.84549 
L 406.509651 106.84549 
L 406.509651 104.28371 
L 407.65293 104.28371 
L 407.65293 125.819831 
L 408.796208 125.819831 
L 408.796208 131.1495 
L 409.939487 131.1495 
L 409.939487 98.344503 
L 411.082765 98.344503 
L 411.082765 97.313219 
L 412.226044 97.313219 
L 412.226044 118.197759 
L 413.369322 118.197759 
L 413.369322 138.054957 
L 414.512601 138.054957 
L 414.512601 134.993417 
L 415.655879 134.993417 
L 415.655879 100.920364 
L 416.799157 100.920364 
L 416.799157 111.980713 
L 417.942436 111.980713 
L 417.942436 133.37836 
L 419.085714 133.37836 
L 419.085714 127.069396 
L 420.228993 127.069396 
L 420.228993 134.318367 
L 421.372271 134.318367 
L 421.372271 122.245338 
L 422.51555 122.245338 
L 422.51555 118.346295 
L 423.658828 118.346295 
L 423.658828 138.63389 
L 424.802107 138.63389 
L 424.802107 125.740626 
L 425.945385 125.740626 
L 425.945385 128.262418 
L 427.088664 128.262418 
L 427.088664 117.944194 
L 428.231942 117.944194 
L 428.231942 87.990043 
L 429.375221 87.990043 
L 429.375221 119.05476 
L 430.518499 119.05476 
L 430.518499 128.720085 
L 431.661778 128.720085 
L 431.661778 101.298412 
L 432.805056 101.298412 
L 432.805056 113.866513 
L 433.948335 113.866513 
L 433.948335 108.991903 
L 435.091613 108.991903 
L 435.091613 101.411537 
L 436.234892 101.411537 
L 436.234892 114.233389 
L 437.37817 114.233389 
L 437.37817 102.732248 
L 438.521448 102.732248 
L 438.521448 117.238473 
L 439.664727 117.238473 
L 439.664727 141.933978 
L 440.808005 141.933978 
L 440.808005 116.930638 
L 441.951284 116.930638 
L 441.951284 121.309746 
L 443.094562 121.309746 
L 443.094562 132.378818 
L 444.237841 132.378818 
L 444.237841 106.536345 
L 445.381119 106.536345 
L 445.381119 98.342478 
L 446.524398 98.342478 
L 446.524398 97.226412 
L 447.667676 97.226412 
L 447.667676 104.582073 
L 448.810955 104.582073 
L 448.810955 119.26862 
L 449.954233 119.26862 
L 449.954233 134.693303 
L 451.097512 134.693303 
L 451.097512 133.635816 
L 452.24079 133.635816 
L 452.24079 134.555575 
L 453.384069 134.555575 
L 453.384069 126.8981 
L 454.527347 126.8981 
L 454.527347 106.263828 
L 455.670626 106.263828 
L 455.670626 114.632639 
L 456.813904 114.632639 
L 456.813904 113.002475 
L 457.957183 113.002475 
L 457.957183 91.679253 
L 459.100461 91.679253 
L 459.100461 113.154668 
L 460.243739 113.154668 
L 460.243739 129.691027 
L 461.387018 129.691027 
L 461.387018 118.998845 
L 462.530296 118.998845 
L 462.530296 134.641908 
L 463.673575 134.641908 
L 463.673575 126.954798 
L 464.816853 126.954798 
L 464.816853 126.695468 
L 465.960132 126.695468 
L 465.960132 133.402135 
L 467.10341 133.402135 
L 467.10341 108.328328 
L 468.246689 108.328328 
L 468.246689 118.043822 
L 469.389967 118.043822 
L 469.389967 144.64378 
L 470.533246 144.64378 
L 470.533246 115.55276 
L 471.676524 115.55276 
L 471.676524 108.711561 
L 472.819803 108.711561 
L 472.819803 108.27226 
L 473.963081 108.27226 
L 473.963081 96.793438 
L 475.10636 96.793438 
L 475.10636 116.693997 
L 476.249638 116.693997 
L 476.249638 113.992288 
L 477.392917 113.992288 
L 477.392917 102.183238 
L 478.536195 102.183238 
L 478.536195 110.798267 
L 479.679474 110.798267 
L 479.679474 104.721049 
L 480.822752 104.721049 
L 480.822752 122.814332 
L 481.96603 122.814332 
L 481.96603 132.621236 
L 483.109309 132.621236 
L 483.109309 98.648609 
L 484.252587 98.648609 
L 484.252587 97.633143 
L 485.395866 97.633143 
L 485.395866 116.389137 
L 486.539144 116.389137 
L 486.539144 140.28992 
L 487.682423 140.28992 
L 487.682423 139.043092 
L 488.825701 139.043092 
L 488.825701 101.744227 
L 489.96898 101.744227 
L 489.96898 116.182673 
L 491.112258 116.182673 
L 491.112258 133.413157 
L 492.255537 133.413157 
L 492.255537 124.650024 
L 493.398815 124.650024 
L 493.398815 132.499204 
L 494.542094 132.499204 
L 494.542094 123.449792 
L 495.685372 123.449792 
L 495.685372 115.642093 
L 496.828651 115.642093 
L 496.828651 136.303924 
L 497.971929 136.303924 
L 497.971929 125.819159 
L 499.115208 125.819159 
L 499.115208 123.908244 
L 500.258486 123.908244 
L 500.258486 120.470822 
L 501.401765 120.470822 
L 501.401765 90.377933 
L 502.545043 90.377933 
L 502.545043 121.817645 
L 503.688321 121.817645 
L 503.688321 127.3954 
L 504.8316 127.3954 
L 504.8316 101.013717 
L 505.974878 101.013717 
L 505.974878 111.257178 
L 507.118157 111.257178 
L 507.118157 104.849309 
L 508.261435 104.849309 
L 508.261435 103.619446 
L 509.404714 103.619446 
L 509.404714 116.982351 
L 510.547992 116.982351 
L 510.547992 104.656122 
L 511.691271 104.656122 
L 511.691271 122.60415 
L 512.834549 122.60415 
L 512.834549 141.953258 
L 513.977828 141.953258 
L 513.977828 121.445598 
L 515.121106 121.445598 
L 515.121106 120.804396 
L 516.264385 120.804396 
L 516.264385 131.873776 
L 517.407663 131.873776 
L 517.407663 105.827421 
L 518.550942 105.827421 
L 518.550942 98.171273 
L 519.69422 98.171273 
L 519.69422 98.671344 
L 520.837499 98.671344 
L 520.837499 99.736389 
L 521.980777 99.736389 
L 521.980777 122.807092 
L 523.124056 122.807092 
L 523.124056 134.397353 
L 524.267334 134.397353 
L 524.267334 133.02087 
L 525.410612 133.02087 
L 525.410612 136.658543 
L 526.553891 136.658543 
L 526.553891 129.127697 
L 527.697169 129.127697 
L 527.697169 107.089585 
L 528.840448 107.089585 
L 528.840448 116.679397 
L 529.983726 116.679397 
L 529.983726 114.778394 
L 531.127005 114.778394 
L 531.127005 92.67088 
L 532.270283 92.67088 
L 532.270283 116.132676 
L 533.413562 116.132676 
L 533.413562 134.055007 
L 534.55684 134.055007 
L 534.55684 121.266275 
L 535.700119 121.266275 
L 535.700119 133.483746 
L 536.843397 133.483746 
L 536.843397 128.52523 
L 537.986676 128.52523 
L 537.986676 122.395851 
L 539.129954 122.395851 
L 539.129954 136.239366 
L 540.273233 136.239366 
L 540.273233 108.138111 
L 541.416511 108.138111 
L 541.416511 115.450162 
L 542.55979 115.450162 
L 542.55979 144.118268 
L 543.703068 144.118268 
L 543.703068 116.125715 
L 544.846347 116.125715 
L 544.846347 110.827783 
L 545.989625 110.827783 
L 545.989625 108.739636 
L 547.132903 108.739636 
L 547.132903 98.744451 
L 548.276182 98.744451 
L 548.276182 119.26578 
L 549.41946 119.26578 
L 549.41946 113.509516 
L 550.562739 113.509516 
L 550.562739 101.529489 
L 551.706017 101.529489 
L 551.706017 107.445328 
L 552.849296 107.445328 
L 552.849296 102.601942 
L 553.992574 102.601942 
L 553.992574 121.833068 
L 555.135853 121.833068 
L 555.135853 131.125492 
L 556.279131 131.125492 
L 556.279131 100.393371 
L 557.42241 100.393371 
L 557.42241 98.970212 
L 557.42241 98.970212 
" clip-path="url(#p07c02cbc50)" style="fill: none; stroke: #a1c9f4"/>
   </g>
   <g id="patch_6">
    <path d="M 16.914646 146.885354 
L 16.914646 86.274646 
" style="fill: none; stroke: #adb2b7; stroke-linejoin: miter; stroke-linecap: square"/>
   </g>
   <g id="patch_7">
    <path d="M 16.914646 146.885354 
L 573.165354 146.885354 
" style="fill: none; stroke: #adb2b7; stroke-linejoin: miter; stroke-linecap: square"/>
   </g>
  </g>
  <g id="axes_3">
   <g id="patch_8">
    <path d="M 16.914646 213.165354 
L 573.165354 213.165354 
L 573.165354 152.554646 
L 16.914646 152.554646 
z
" style="fill: #21252b"/>
   </g>
   <g id="matplotlib.axis_5"/>
   <g id="matplotlib.axis_6">
    <g id="text_4">
     <!-- Mag -->
     <g style="fill: #9eb1be" transform="translate(10.470583 195.291719) rotate(-90) scale(0.11 -0.11)">
      <defs>
       <path id="DejaVuSerif-4d" d="M 353 0 
L 353 331 
L 947 331 
L 947 4331 
L 319 4331 
L 319 4666 
L 1678 4666 
L 3316 1344 
L 4953 4666 
L 6228 4666 
L 6228 4331 
L 5606 4331 
L 5606 331 
L 6203 331 
L 6203 0 
L 4378 0 
L 4378 331 
L 4972 331 
L 4972 3938 
L 3372 684 
L 2931 684 
L 1331 3938 
L 1331 331 
L 1925 331 
L 1925 0 
L 353 0 
z
" transform="scale(0.015625)"/>
      </defs>
      <use xlink:href="#DejaVuSerif-4d"/>
      <use xlink:href="#DejaVuSerif-61" x="102.392578"/>
      <use xlink:href="#DejaVuSerif-67" x="162.011719"/>
     </g>
    </g>
   </g>
   <g id="line2d_3">
    <path d="M 32.65759 210.582752 
L 33.800869 210.582752 
L 33.800869 210.907622 
L 34.944147 210.907622 
L 34.944147 210.200868 
L 37.230704 210.20036 
L 37.230704 210.046196 
L 38.373983 210.046196 
L 38.373983 210.241759 
L 39.517261 210.241759 
L 39.517261 210.683493 
L 40.66054 210.683493 
L 40.66054 211.040707 
L 41.803818 211.040707 
L 41.803818 209.336902 
L 42.947097 209.336902 
L 42.947097 211.104983 
L 44.090375 211.104983 
L 44.090375 207.931906 
L 45.233653 207.931906 
L 45.233653 209.653696 
L 46.376932 209.653696 
L 46.376932 200.799973 
L 47.52021 200.799973 
L 47.52021 210.545221 
L 48.663489 210.545221 
L 48.663489 208.696858 
L 49.806767 208.696858 
L 49.806767 209.211038 
L 50.950046 209.211038 
L 50.950046 209.81189 
L 52.093324 209.81189 
L 52.093324 210.482293 
L 53.236603 210.482293 
L 53.236603 210.190323 
L 54.379881 210.190323 
L 54.379881 209.538676 
L 55.52316 209.538676 
L 55.52316 209.94058 
L 56.666438 209.94058 
L 56.666438 209.482485 
L 57.809717 209.482485 
L 57.809717 210.440524 
L 58.952995 210.440524 
L 58.952995 210.68374 
L 60.096274 210.68374 
L 60.096274 208.142959 
L 61.239552 208.142959 
L 61.239552 210.888709 
L 62.382831 210.888709 
L 62.382831 206.339143 
L 63.526109 206.339143 
L 63.526109 209.109943 
L 64.669388 209.109943 
L 64.669388 195.157783 
L 65.812666 195.157783 
L 65.812666 209.686871 
L 66.955944 209.686871 
L 66.955944 206.92417 
L 68.099223 206.92417 
L 68.099223 208.613777 
L 69.242501 208.613777 
L 69.242501 209.222824 
L 70.38578 209.222824 
L 70.38578 210.027617 
L 72.672337 210.046884 
L 72.672337 208.598925 
L 73.815615 208.598925 
L 73.815615 209.83908 
L 74.958894 209.83908 
L 74.958894 208.728694 
L 76.102172 208.728694 
L 76.102172 210.103555 
L 77.245451 210.103555 
L 77.245451 210.306813 
L 78.388729 210.306813 
L 78.388729 207.004044 
L 79.532008 207.004044 
L 79.532008 210.752926 
L 80.675286 210.752926 
L 80.675286 204.892598 
L 81.818565 204.892598 
L 81.818565 208.12193 
L 82.961843 208.12193 
L 82.961843 189.030946 
L 84.105122 189.030946 
L 84.105122 208.536133 
L 85.2484 208.536133 
L 85.2484 205.115585 
L 86.391679 205.115585 
L 86.391679 208.408086 
L 87.534957 208.408086 
L 87.534957 208.052649 
L 88.678235 208.052649 
L 88.678235 209.340375 
L 89.821514 209.340375 
L 89.821514 209.655314 
L 90.964792 209.655314 
L 90.964792 207.793484 
L 92.108071 207.793484 
L 92.108071 210.181731 
L 93.251349 210.181731 
L 93.251349 207.639782 
L 94.394628 207.639782 
L 94.394628 209.828275 
L 95.537906 209.828275 
L 95.537906 209.996618 
L 96.681185 209.996618 
L 96.681185 206.323405 
L 97.824463 206.323405 
L 97.824463 209.882988 
L 98.967742 209.882988 
L 98.967742 203.646128 
L 100.11102 203.646128 
L 100.11102 207.227951 
L 101.254299 207.227951 
L 101.254299 183.320928 
L 102.397577 183.320928 
L 102.397577 207.936033 
L 103.540856 207.936033 
L 103.540856 203.124009 
L 104.684134 203.124009 
L 104.684134 207.933483 
L 105.827413 207.933483 
L 105.827413 207.29089 
L 106.970691 207.29089 
L 106.970691 208.977329 
L 108.11397 208.977329 
L 108.11397 209.38171 
L 109.257248 209.38171 
L 109.257248 206.996363 
L 110.400526 206.996363 
L 110.400526 210.474228 
L 111.543805 210.474228 
L 111.543805 206.714093 
L 112.687083 206.714093 
L 112.687083 210.094149 
L 113.830362 210.094149 
L 113.830362 209.746342 
L 114.97364 209.746342 
L 114.97364 205.401852 
L 116.116919 205.401852 
L 116.116919 209.80783 
L 117.260197 209.80783 
L 117.260197 201.899665 
L 118.403476 201.899665 
L 118.403476 206.408495 
L 119.546754 206.408495 
L 119.546754 177.775479 
L 120.690033 177.775479 
L 120.690033 206.866796 
L 121.833311 206.866796 
L 121.833311 201.727957 
L 122.97659 201.727957 
L 122.97659 207.632573 
L 124.119868 207.632573 
L 124.119868 206.17028 
L 125.263147 206.17028 
L 125.263147 208.299033 
L 126.406425 208.299033 
L 126.406425 209.187403 
L 127.549704 209.187403 
L 127.549704 206.22948 
L 128.692982 206.22948 
L 128.692982 210.43604 
L 129.836261 210.43604 
L 129.836261 205.580336 
L 130.979539 205.580336 
L 130.979539 209.759898 
L 132.122817 209.759898 
L 132.122817 209.572197 
L 133.266096 209.572197 
L 133.266096 204.244506 
L 134.409374 204.244506 
L 134.409374 209.405569 
L 135.552653 209.405569 
L 135.552653 200.57144 
L 136.695931 200.57144 
L 136.695931 205.45697 
L 137.83921 205.45697 
L 137.83921 172.008802 
L 138.982488 172.008802 
L 138.982488 206.052639 
L 140.125767 206.052639 
L 140.125767 200.11157 
L 141.269045 200.11157 
L 141.269045 207.250448 
L 142.412324 207.250448 
L 142.412324 205.172797 
L 143.555602 205.172797 
L 143.555602 208.221745 
L 144.698881 208.221745 
L 144.698881 208.901558 
L 145.842159 208.901558 
L 145.842159 205.148074 
L 146.985438 205.148074 
L 146.985438 210.058376 
L 148.128716 210.058376 
L 148.128716 204.646693 
L 149.271995 204.646693 
L 149.271995 209.753625 
L 150.415273 209.753625 
L 150.415273 209.3041 
L 151.558552 209.3041 
L 151.558552 203.266982 
L 152.70183 203.266982 
L 152.70183 209.30556 
L 153.845108 209.30556 
L 153.845108 198.749613 
L 154.988387 198.749613 
L 154.988387 204.704499 
L 156.131665 204.704499 
L 156.131665 166.181128 
L 157.274944 166.181128 
L 157.274944 204.707637 
L 158.418222 204.707637 
L 158.418222 198.55218 
L 159.561501 198.55218 
L 159.561501 207.256239 
L 160.704779 207.256239 
L 160.704779 203.988554 
L 161.848058 203.988554 
L 161.848058 207.812489 
L 162.991336 207.812489 
L 162.991336 208.724138 
L 164.134615 208.724138 
L 164.134615 204.306704 
L 165.277893 204.306704 
L 165.277893 209.569415 
L 166.421172 209.569415 
L 166.421172 203.849873 
L 167.56445 203.849873 
L 167.56445 209.470365 
L 168.707729 209.470365 
L 168.707729 208.992151 
L 169.851007 208.992151 
L 169.851007 202.132907 
L 170.994286 202.132907 
L 170.994286 208.931639 
L 172.137564 208.931639 
L 172.137564 197.246204 
L 173.280843 197.246204 
L 173.280843 203.73025 
L 174.424121 203.73025 
L 174.424121 160.200128 
L 175.567399 160.200128 
L 175.567399 203.798355 
L 176.710678 203.798355 
L 176.710678 196.735518 
L 177.853956 196.735518 
L 177.853956 206.875103 
L 178.997235 206.875103 
L 178.997235 203.15806 
L 180.140513 203.15806 
L 180.140513 207.566547 
L 181.283792 207.566547 
L 181.283792 208.227834 
L 182.42707 208.227834 
L 182.42707 203.312245 
L 183.570349 203.312245 
L 183.570349 209.311312 
L 184.713627 209.311312 
L 184.713627 202.783549 
L 185.856906 202.783549 
L 185.856906 209.215609 
L 187.000184 209.215609 
L 187.000184 208.722792 
L 188.143463 208.722792 
L 188.143463 201.101089 
L 189.286741 201.101089 
L 189.286741 208.508967 
L 190.43002 208.508967 
L 190.43002 195.769331 
L 191.573298 195.769331 
L 191.573298 202.825054 
L 192.716577 202.825054 
L 192.716577 154.270043 
L 193.859855 154.270043 
L 193.859855 202.732194 
L 195.003134 202.732194 
L 195.003134 195.96712 
L 196.146412 195.96712 
L 196.146412 207.392865 
L 197.28969 207.392865 
L 197.28969 201.374213 
L 198.432969 201.374213 
L 198.432969 207.748005 
L 199.576247 207.748005 
L 199.576247 208.055635 
L 200.719526 208.055635 
L 200.719526 201.491178 
L 201.862804 201.491178 
L 201.862804 209.541088 
L 203.006083 209.541088 
L 203.006083 203.991007 
L 204.149361 203.991007 
L 204.149361 209.003031 
L 205.29264 209.003031 
L 205.29264 208.638046 
L 206.435918 208.638046 
L 206.435918 203.609255 
L 207.579197 203.609255 
L 207.579197 206.568932 
L 208.722475 206.568932 
L 208.722475 196.852573 
L 209.865754 196.852573 
L 209.865754 203.629073 
L 211.009032 203.629073 
L 211.009032 159.510471 
L 212.152311 159.510471 
L 212.152311 204.509578 
L 213.295589 204.509578 
L 213.295589 196.426828 
L 214.438868 196.426828 
L 214.438868 207.35949 
L 215.582146 207.35949 
L 215.582146 201.122344 
L 216.725425 201.122344 
L 216.725425 206.850558 
L 217.868703 206.850558 
L 217.868703 208.332743 
L 219.011981 208.332743 
L 219.011981 201.422788 
L 220.15526 201.422788 
L 220.15526 208.827141 
L 221.298538 208.827141 
L 221.298538 205.898615 
L 222.441817 205.898615 
L 222.441817 207.30708 
L 223.585095 207.30708 
L 223.585095 209.460801 
L 224.728374 209.460801 
L 224.728374 206.501509 
L 227.014931 206.600306 
L 227.014931 200.195321 
L 228.158209 200.195321 
L 228.158209 204.460833 
L 229.301488 204.460833 
L 229.301488 166.384763 
L 230.444766 166.384763 
L 230.444766 206.121861 
L 231.588045 206.121861 
L 231.588045 197.467091 
L 232.731323 197.467091 
L 232.731323 206.309796 
L 233.874602 206.309796 
L 233.874602 202.140241 
L 235.01788 202.140241 
L 235.01788 205.110613 
L 236.161159 205.110613 
L 236.161159 206.989141 
L 237.304437 206.989141 
L 237.304437 201.870684 
L 238.447716 201.870684 
L 238.447716 208.527762 
L 239.590994 208.527762 
L 239.590994 206.307571 
L 240.734272 206.307571 
L 240.734272 206.564219 
L 241.877551 206.564219 
L 241.877551 208.981142 
L 243.020829 208.981142 
L 243.020829 207.503495 
L 244.164108 207.503495 
L 244.164108 205.967058 
L 245.307386 205.967058 
L 245.307386 201.719176 
L 246.450665 201.719176 
L 246.450665 206.264252 
L 247.593943 206.264252 
L 247.593943 170.806212 
L 248.737222 170.806212 
L 248.737222 206.649281 
L 249.8805 206.649281 
L 249.8805 197.958959 
L 251.023779 197.958959 
L 251.023779 206.935409 
L 252.167057 206.935409 
L 252.167057 203.433284 
L 253.310336 203.433284 
L 253.310336 205.863009 
L 254.453614 205.863009 
L 254.453614 206.742295 
L 255.596893 206.742295 
L 255.596893 202.131088 
L 256.740171 202.131088 
L 256.740171 208.912421 
L 257.88345 208.912421 
L 257.88345 208.170177 
L 259.026728 208.170177 
L 259.026728 207.988488 
L 260.170007 207.988488 
L 260.170007 207.841294 
L 261.313285 207.841294 
L 261.313285 209.806841 
L 262.456563 209.806841 
L 262.456563 206.943032 
L 263.599842 206.943032 
L 263.599842 201.237306 
L 264.74312 201.237306 
L 264.74312 207.444835 
L 265.886399 207.444835 
L 265.886399 177.062409 
L 267.029677 177.062409 
L 267.029677 206.16021 
L 268.172956 206.16021 
L 268.172956 202.602729 
L 269.316234 202.602729 
L 269.316234 206.913593 
L 270.459513 206.913593 
L 270.459513 202.512399 
L 271.602791 202.512399 
L 271.602791 205.281879 
L 272.74607 205.281879 
L 272.74607 206.427209 
L 273.889348 206.427209 
L 273.889348 200.703792 
L 275.032627 200.703792 
L 275.032627 208.881787 
L 276.175905 208.881787 
L 276.175905 206.917111 
L 277.319184 206.917111 
L 277.319184 208.254824 
L 278.462462 208.254824 
L 278.462462 207.217849 
L 279.605741 207.217849 
L 279.605741 209.452766 
L 280.749019 209.452766 
L 280.749019 206.485049 
L 281.892298 206.485049 
L 281.892298 202.680302 
L 283.035576 202.680302 
L 283.035576 207.609001 
L 284.178854 207.609001 
L 284.178854 182.206804 
L 285.322133 182.206804 
L 285.322133 208.193969 
L 286.465411 208.193969 
L 286.465411 202.624045 
L 287.60869 202.624045 
L 287.60869 207.032662 
L 288.751968 207.032662 
L 288.751968 201.779874 
L 289.895247 201.779874 
L 289.895247 204.443623 
L 291.038525 204.443623 
L 291.038525 207.029547 
L 292.181804 207.029547 
L 292.181804 200.280758 
L 293.325082 200.280758 
L 293.325082 207.887702 
L 294.468361 207.887702 
L 294.468361 206.534301 
L 295.611639 206.534301 
L 295.611639 206.754616 
L 296.754918 206.754616 
L 296.754918 207.9921 
L 297.898196 207.9921 
L 297.898196 208.400011 
L 299.041475 208.400011 
L 299.041475 206.354839 
L 300.184753 206.354839 
L 300.184753 206.224921 
L 301.328032 206.224921 
L 301.328032 208.878864 
L 302.47131 208.878864 
L 302.47131 189.160363 
L 303.614589 189.160363 
L 303.614589 209.582857 
L 304.757867 209.582857 
L 304.757867 203.202467 
L 305.901146 203.202467 
L 305.901146 205.74667 
L 307.044424 205.74667 
L 307.044424 202.661238 
L 308.187702 202.661238 
L 308.187702 202.513654 
L 309.330981 202.513654 
L 309.330981 205.148901 
L 310.474259 205.148901 
L 310.474259 200.229163 
L 311.617538 200.229163 
L 311.617538 205.452375 
L 313.904095 205.551769 
L 313.904095 205.293202 
L 316.190652 205.242194 
L 316.190652 207.326745 
L 317.33393 207.326745 
L 317.33393 205.330037 
L 318.477209 205.330037 
L 318.477209 207.544973 
L 319.620487 207.544973 
L 319.620487 210.389988 
L 320.763766 210.389988 
L 320.763766 193.537782 
L 321.907044 193.537782 
L 321.907044 209.774482 
L 323.050323 209.774482 
L 323.050323 204.020346 
L 324.193601 204.020346 
L 324.193601 206.301903 
L 325.33688 206.301903 
L 325.33688 203.009666 
L 327.623437 203.017927 
L 327.623437 204.632126 
L 328.766715 204.632126 
L 328.766715 200.670124 
L 329.909993 200.670124 
L 329.909993 205.263067 
L 331.053272 205.263067 
L 331.053272 203.792835 
L 332.19655 203.792835 
L 332.19655 206.278673 
L 333.339829 206.278673 
L 333.339829 204.135992 
L 334.483107 204.135992 
L 334.483107 205.406698 
L 335.626386 205.406698 
L 335.626386 206.396743 
L 336.769664 206.396743 
L 336.769664 206.978864 
L 337.912943 206.978864 
L 337.912943 211.449957 
L 339.056221 211.449957 
L 339.056221 199.670871 
L 340.1995 199.670871 
L 340.1995 209.780449 
L 341.342778 209.780449 
L 341.342778 208.366232 
L 342.486057 208.366232 
L 342.486057 206.063281 
L 343.629335 206.063281 
L 343.629335 201.70444 
L 344.772614 201.70444 
L 344.772614 202.181916 
L 345.915892 202.181916 
L 345.915892 204.349986 
L 347.059171 204.349986 
L 347.059171 199.468271 
L 348.202449 199.468271 
L 348.202449 205.500034 
L 349.345728 205.500034 
L 349.345728 200.921193 
L 350.489006 200.921193 
L 350.489006 205.624952 
L 351.632284 205.624952 
L 351.632284 203.242768 
L 352.775563 203.242768 
L 352.775563 202.850134 
L 353.918841 202.850134 
L 353.918841 206.029629 
L 355.06212 206.029629 
L 355.06212 208.496025 
L 356.205398 208.496025 
L 356.205398 210.331508 
L 357.348677 210.331508 
L 357.348677 204.982846 
L 358.491955 204.982846 
L 358.491955 210.92872 
L 359.635234 210.92872 
L 359.635234 207.458275 
L 360.778512 207.458275 
L 360.778512 206.067694 
L 361.921791 206.067694 
L 361.921791 200.667759 
L 363.065069 200.667759 
L 363.065069 201.497772 
L 364.208348 201.497772 
L 364.208348 205.480212 
L 365.351626 205.480212 
L 365.351626 198.45623 
L 366.494905 198.45623 
L 366.494905 205.165397 
L 367.638183 205.165397 
L 367.638183 199.19335 
L 368.781462 199.19335 
L 368.781462 204.635323 
L 369.92474 204.635323 
L 369.92474 203.546143 
L 371.068019 203.546143 
L 371.068019 200.28607 
L 372.211297 200.28607 
L 372.211297 206.216201 
L 373.354575 206.216201 
L 373.354575 211.11826 
L 374.497854 211.11826 
L 374.497854 209.15161 
L 375.641132 209.15161 
L 375.641132 210.704022 
L 376.784411 210.704022 
L 376.784411 208.932406 
L 377.927689 208.932406 
L 377.927689 207.795741 
L 379.070968 207.795741 
L 379.070968 205.585302 
L 380.214246 205.585302 
L 380.214246 202.209957 
L 381.357525 202.209957 
L 381.357525 200.826147 
L 382.500803 200.826147 
L 382.500803 204.220225 
L 383.644082 204.220225 
L 383.644082 199.79753 
L 384.78736 199.79753 
L 384.78736 202.683884 
L 385.930639 202.683884 
L 385.930639 199.910767 
L 387.073917 199.910767 
L 387.073917 203.644965 
L 388.217196 203.644965 
L 388.217196 202.358114 
L 390.503753 202.339081 
L 390.503753 206.15936 
L 391.647031 206.15936 
L 391.647031 209.706917 
L 393.933588 209.696121 
L 393.933588 210.106499 
L 395.076866 210.106499 
L 395.076866 209.89985 
L 396.220145 209.89985 
L 396.220145 209.704218 
L 397.363423 209.704218 
L 397.363423 205.578017 
L 398.506702 205.578017 
L 398.506702 203.587735 
L 399.64998 203.587735 
L 399.64998 201.923 
L 400.793259 201.923 
L 400.793259 203.881979 
L 401.936537 203.881979 
L 401.936537 201.440633 
L 403.079816 201.440633 
L 403.079816 202.989618 
L 404.223094 202.989618 
L 404.223094 200.684973 
L 405.366373 200.684973 
L 405.366373 204.347166 
L 406.509651 204.347166 
L 406.509651 202.136836 
L 407.65293 202.136836 
L 407.65293 203.955145 
L 408.796208 203.955145 
L 408.796208 205.965677 
L 409.939487 205.965677 
L 409.939487 210.635789 
L 411.082765 210.635789 
L 411.082765 209.96434 
L 412.226044 209.96434 
L 412.226044 210.770972 
L 413.369322 210.770972 
L 413.369322 211.024178 
L 414.512601 211.024178 
L 414.512601 209.91857 
L 415.655879 209.91857 
L 415.655879 207.628379 
L 416.799157 207.628379 
L 416.799157 203.299218 
L 417.942436 203.299218 
L 417.942436 204.042512 
L 419.085714 204.042512 
L 419.085714 205.9851 
L 420.228993 205.9851 
L 420.228993 201.760064 
L 421.372271 201.760064 
L 421.372271 205.7955 
L 422.51555 205.7955 
L 422.51555 200.884929 
L 423.658828 200.884929 
L 423.658828 206.660375 
L 424.802107 206.660375 
L 424.802107 204.561845 
L 425.945385 204.561845 
L 425.945385 203.37808 
L 427.088664 203.37808 
L 427.088664 207.931903 
L 428.231942 207.931903 
L 428.231942 210.733577 
L 430.518499 210.794319 
L 430.518499 209.870283 
L 431.661778 209.870283 
L 431.661778 211.1767 
L 432.805056 211.1767 
L 432.805056 208.933582 
L 433.948335 208.933582 
L 433.948335 207.95103 
L 435.091613 207.95103 
L 435.091613 204.567484 
L 436.234892 204.567484 
L 436.234892 203.958499 
L 437.37817 203.958499 
L 437.37817 207.077128 
L 438.521448 207.077128 
L 438.521448 202.997564 
L 439.664727 202.997564 
L 439.664727 206.265179 
L 440.808005 206.265179 
L 440.808005 202.388018 
L 441.951284 202.388018 
L 441.951284 205.828176 
L 443.094562 205.828176 
L 443.094562 205.993878 
L 444.237841 205.993878 
L 444.237841 204.93487 
L 445.381119 204.93487 
L 445.381119 208.265871 
L 446.524398 208.265871 
L 446.524398 209.273482 
L 447.667676 209.273482 
L 447.667676 210.302389 
L 448.810955 210.302389 
L 448.810955 211.111402 
L 449.954233 211.111402 
L 449.954233 210.059765 
L 451.097512 210.059765 
L 451.097512 207.821256 
L 452.24079 207.821256 
L 452.24079 208.366625 
L 453.384069 208.366625 
L 453.384069 205.959327 
L 454.527347 205.959327 
L 454.527347 204.910678 
L 455.670626 204.910678 
L 455.670626 207.549943 
L 456.813904 207.549943 
L 456.813904 205.128009 
L 457.957183 205.128009 
L 457.957183 206.1847 
L 459.100461 206.1847 
L 459.100461 204.509818 
L 460.243739 204.509818 
L 460.243739 206.376537 
L 461.387018 206.376537 
L 461.387018 206.697445 
L 462.530296 206.697445 
L 462.530296 206.327577 
L 463.673575 206.327577 
L 463.673575 208.67126 
L 464.816853 208.67126 
L 464.816853 209.794568 
L 465.960132 209.794568 
L 465.960132 210.565502 
L 467.10341 210.565502 
L 467.10341 210.368747 
L 468.246689 210.368747 
L 468.246689 211.107134 
L 469.389967 211.107134 
L 469.389967 209.89005 
L 470.533246 209.89005 
L 470.533246 208.14786 
L 471.676524 208.14786 
L 471.676524 206.931843 
L 472.819803 206.931843 
L 472.819803 206.018241 
L 473.963081 206.018241 
L 473.963081 206.831744 
L 475.10636 206.831744 
L 475.10636 206.597497 
L 476.249638 206.597497 
L 476.249638 206.884948 
L 477.392917 206.884948 
L 477.392917 205.679976 
L 478.536195 205.679976 
L 478.536195 207.449425 
L 479.679474 207.449425 
L 479.679474 206.245087 
L 480.822752 206.245087 
L 480.822752 207.736938 
L 481.96603 207.736938 
L 481.96603 208.452205 
L 483.109309 208.452205 
L 483.109309 211.178768 
L 484.252587 211.178768 
L 484.252587 210.786259 
L 488.825701 210.892011 
L 488.825701 210.196366 
L 489.96898 210.196366 
L 489.96898 207.065972 
L 491.112258 207.065972 
L 491.112258 208.332207 
L 492.255537 208.332207 
L 492.255537 208.961445 
L 493.398815 208.961445 
L 493.398815 206.810442 
L 494.542094 206.810442 
L 494.542094 209.502886 
L 495.685372 209.502886 
L 495.685372 206.066591 
L 496.828651 206.066591 
L 496.828651 209.831162 
L 497.971929 209.831162 
L 497.971929 208.832252 
L 499.115208 208.832252 
L 499.115208 207.846758 
L 500.258486 207.846758 
L 500.258486 210.604166 
L 501.401765 210.604166 
L 501.401765 211.147247 
L 502.545043 211.147247 
L 502.545043 211.264155 
L 503.688321 211.264155 
L 503.688321 210.092378 
L 504.8316 210.092378 
L 504.8316 210.525265 
L 505.974878 210.525265 
L 505.974878 209.468022 
L 507.118157 209.468022 
L 507.118157 209.910036 
L 508.261435 209.910036 
L 508.261435 208.329721 
L 509.404714 208.329721 
L 509.404714 207.623842 
L 510.547992 207.623842 
L 510.547992 209.953099 
L 511.691271 209.953099 
L 511.691271 207.540733 
L 512.834549 207.540733 
L 512.834549 209.647688 
L 513.977828 209.647688 
L 513.977828 207.510443 
L 515.121106 207.510443 
L 515.121106 208.768813 
L 516.264385 208.768813 
L 516.264385 209.85965 
L 517.407663 209.85965 
L 517.407663 209.334953 
L 518.550942 209.334953 
L 518.550942 210.356396 
L 519.69422 210.356396 
L 519.69422 208.696254 
L 520.837499 208.696254 
L 520.837499 210.53473 
L 521.980777 210.53473 
L 521.980777 211.36018 
L 523.124056 211.36018 
L 523.124056 210.188073 
L 524.267334 210.188073 
L 524.267334 208.611578 
L 525.410612 208.611578 
L 525.410612 210.260836 
L 526.553891 210.260836 
L 526.553891 210.115425 
L 527.697169 210.115425 
L 527.697169 208.602871 
L 528.840448 208.602871 
L 528.840448 210.745308 
L 529.983726 210.745308 
L 529.983726 209.376902 
L 531.127005 209.376902 
L 531.127005 209.552456 
L 532.270283 209.552456 
L 532.270283 209.082182 
L 533.413562 209.082182 
L 533.413562 209.603635 
L 534.55684 209.603635 
L 534.55684 210.504287 
L 535.700119 210.504287 
L 535.700119 210.205408 
L 536.843397 210.205408 
L 536.843397 210.987645 
L 537.986676 210.987645 
L 537.986676 209.204263 
L 539.129954 209.204263 
L 539.129954 211.427041 
L 540.273233 211.427041 
L 540.273233 210.591918 
L 541.416511 210.591918 
L 541.416511 210.987228 
L 542.55979 210.987228 
L 542.55979 210.114141 
L 544.846347 210.126417 
L 544.846347 211.175678 
L 545.989625 211.175678 
L 545.989625 209.655739 
L 547.132903 209.655739 
L 547.132903 209.822141 
L 548.276182 209.822141 
L 548.276182 210.818272 
L 549.41946 210.818272 
L 549.41946 210.166986 
L 551.706017 210.116367 
L 551.706017 210.587665 
L 552.849296 210.587665 
L 552.849296 209.925108 
L 553.992574 209.925108 
L 553.992574 210.432823 
L 555.135853 210.432823 
L 555.135853 210.728347 
L 556.279131 210.728347 
L 556.279131 211.277954 
L 557.42241 211.277954 
L 557.42241 210.834483 
L 557.42241 210.834483 
" clip-path="url(#pd2a2a23f37)" style="fill: none; stroke: #a1c9f4"/>
   </g>
   <g id="patch_9">
    <path d="M 16.914646 213.165354 
L 16.914646 152.554646 
" style="fill: none; stroke: #adb2b7; stroke-linejoin: miter; stroke-linecap: square"/>
   </g>
   <g id="patch_10">
    <path d="M 16.914646 213.165354 
L 573.165354 213.165354 
" style="fill: none; stroke: #adb2b7; stroke-linejoin: miter; stroke-linecap: square"/>
   </g>
  </g>
 </g>
 <defs>
  <clipPath id="pbec4830280">
   <rect x="16.914646" y="19.994646" width="556.250709" height="60.610709"/>
  </clipPath>
  <clipPath id="p07c02cbc50">
   <rect x="16.914646" y="86.274646" width="556.250709" height="60.610709"/>
  </clipPath>
  <clipPath id="pd2a2a23f37">
   <rect x="16.914646" y="152.554646" width="556.250709" height="60.610709"/>
  </clipPath>
 </defs>
</svg>
