<?xml version="1.0" encoding="utf-8" standalone="no"?>
<!DOCTYPE svg PUBLIC "-//W3C//DTD SVG 1.1//EN"
  "http://www.w3.org/Graphics/SVG/1.1/DTD/svg11.dtd">
<svg xmlns:xlink="http://www.w3.org/1999/xlink" width="432pt" height="288pt" viewBox="0 0 432 288" xmlns="http://www.w3.org/2000/svg" version="1.1">
 <metadata>
  <rdf:RDF xmlns:dc="http://purl.org/dc/elements/1.1/" xmlns:cc="http://creativecommons.org/ns#" xmlns:rdf="http://www.w3.org/1999/02/22-rdf-syntax-ns#">
   <cc:Work>
    <dc:type rdf:resource="http://purl.org/dc/dcmitype/StillImage"/>
    <dc:date>2023-11-08T14:13:20.890013</dc:date>
    <dc:format>image/svg+xml</dc:format>
    <dc:creator>
     <cc:Agent>
      <dc:title>Matplotlib v3.7.1, https://matplotlib.org/</dc:title>
     </cc:Agent>
    </dc:creator>
   </cc:Work>
  </rdf:RDF>
 </metadata>
 <defs>
  <style type="text/css">*{stroke-linejoin: round; stroke-linecap: butt}</style>
 </defs>
 <g id="figure_1">
  <g id="patch_1">
   <path d="M 0 288 
L 432 288 
L 432 0 
L 0 0 
z
" style="fill: #1b3041"/>
  </g>
  <g id="axes_1">
   <g id="patch_2">
    <path d="M 2.834646 285.165354 
L 429.165354 285.165354 
L 429.165354 18.914646 
L 2.834646 18.914646 
z
" style="fill: #21252b"/>
   </g>
   <g id="matplotlib.axis_1"/>
   <g id="matplotlib.axis_2"/>
   <g id="line2d_1">
    <path d="M 14.900609 114.761767 
L 17.430161 114.761767 
L 17.430161 277.629957 
L 19.959713 277.629957 
L 19.959713 169.042633 
L 22.489265 169.042633 
L 22.489265 26.450043 
L 25.018817 26.450043 
L 25.018817 72.777738 
L 27.54837 72.777738 
L 27.54837 26.450043 
L 30.077922 26.450043 
L 30.077922 169.042633 
L 32.607474 169.042633 
L 32.607474 277.629957 
L 35.137026 277.629957 
L 35.137026 114.761767 
L 37.666578 114.761767 
L 37.666578 154.610401 
L 40.19613 154.610401 
L 40.19613 228.417016 
L 42.725682 228.417016 
L 42.725682 168.292782 
L 45.255234 168.292782 
L 45.255234 156.745796 
L 47.784786 156.745796 
L 47.784786 168.292782 
L 50.314338 168.292782 
L 50.314338 228.417016 
L 52.84389 228.417016 
L 52.84389 154.610401 
L 55.373443 154.610401 
L 55.373443 114.761767 
L 57.902995 114.761767 
L 57.902995 277.629957 
L 60.432547 277.629957 
L 60.432547 169.042633 
L 62.962099 169.042633 
L 62.962099 26.450043 
L 65.491651 26.450043 
L 65.491651 72.777738 
L 68.021203 72.777738 
L 68.021203 26.450043 
L 70.550755 26.450043 
L 70.550755 169.042633 
L 73.080307 169.042633 
L 73.080307 277.629957 
L 75.609859 277.629957 
L 75.609859 114.761767 
L 78.139411 114.761767 
L 78.139411 154.610401 
L 80.668963 154.610401 
L 80.668963 228.417016 
L 83.198515 228.417016 
L 83.198515 168.292782 
L 85.728068 168.292782 
L 85.728068 156.745796 
L 88.25762 156.745796 
L 88.25762 168.292782 
L 90.787172 168.292782 
L 90.787172 228.417016 
L 93.316724 228.417016 
L 93.316724 154.610401 
L 95.846276 154.610401 
L 95.846276 114.761767 
L 98.375828 114.761767 
L 98.375828 277.629957 
L 100.90538 277.629957 
L 100.90538 169.042633 
L 103.434932 169.042633 
L 103.434932 26.450043 
L 105.964484 26.450043 
L 105.964484 72.777738 
L 108.494036 72.777738 
L 108.494036 26.450043 
L 111.023588 26.450043 
L 111.023588 169.042633 
L 113.55314 169.042633 
L 113.55314 277.629957 
L 116.082693 277.629957 
L 116.082693 114.761767 
L 118.612245 114.761767 
L 118.612245 154.610401 
L 121.141797 154.610401 
L 121.141797 228.417016 
L 123.671349 228.417016 
L 123.671349 168.292782 
L 126.200901 168.292782 
L 126.200901 156.745796 
L 128.730453 156.745796 
L 128.730453 168.292782 
L 131.260005 168.292782 
L 131.260005 228.417016 
L 133.789557 228.417016 
L 133.789557 154.610401 
L 136.319109 154.610401 
L 136.319109 114.761767 
L 138.848661 114.761767 
L 138.848661 277.629957 
L 141.378213 277.629957 
L 141.378213 169.042633 
L 143.907766 169.042633 
L 143.907766 26.450043 
L 146.437318 26.450043 
L 146.437318 72.777738 
L 148.96687 72.777738 
L 148.96687 26.450043 
L 151.496422 26.450043 
L 151.496422 169.042633 
L 154.025974 169.042633 
L 154.025974 277.629957 
L 156.555526 277.629957 
L 156.555526 114.761767 
L 159.085078 114.761767 
L 159.085078 154.610401 
L 161.61463 154.610401 
L 161.61463 228.417016 
L 164.144182 228.417016 
L 164.144182 168.292782 
L 166.673734 168.292782 
L 166.673734 156.745796 
L 169.203286 156.745796 
L 169.203286 168.292782 
L 171.732838 168.292782 
L 171.732838 228.417016 
L 174.262391 228.417016 
L 174.262391 154.610401 
L 176.791943 154.610401 
L 176.791943 114.761767 
L 179.321495 114.761767 
L 179.321495 277.629957 
L 181.851047 277.629957 
L 181.851047 169.042633 
L 184.380599 169.042633 
L 184.380599 26.450043 
L 186.910151 26.450043 
L 186.910151 72.777738 
L 189.439703 72.777738 
L 189.439703 26.450043 
L 191.969255 26.450043 
L 191.969255 169.042633 
L 194.498807 169.042633 
L 194.498807 277.629957 
L 197.028359 277.629957 
L 197.028359 114.761767 
L 199.557911 114.761767 
L 199.557911 154.610401 
L 202.087464 154.610401 
L 202.087464 228.417016 
L 204.617016 228.417016 
L 204.617016 168.292782 
L 207.146568 168.292782 
L 207.146568 156.745796 
L 209.67612 156.745796 
L 209.67612 168.292782 
L 212.205672 168.292782 
L 212.205672 228.417016 
L 214.735224 228.417016 
L 214.735224 154.610401 
L 217.264776 154.610401 
L 217.264776 114.761767 
L 219.794328 114.761767 
L 219.794328 277.629957 
L 222.32388 277.629957 
L 222.32388 169.042633 
L 224.853432 169.042633 
L 224.853432 26.450043 
L 227.382984 26.450043 
L 227.382984 72.777738 
L 229.912536 72.777738 
L 229.912536 26.450043 
L 232.442089 26.450043 
L 232.442089 169.042633 
L 234.971641 169.042633 
L 234.971641 277.629957 
L 237.501193 277.629957 
L 237.501193 114.761767 
L 240.030745 114.761767 
L 240.030745 154.610401 
L 242.560297 154.610401 
L 242.560297 228.417016 
L 245.089849 228.417016 
L 245.089849 168.292782 
L 247.619401 168.292782 
L 247.619401 156.745796 
L 250.148953 156.745796 
L 250.148953 168.292782 
L 252.678505 168.292782 
L 252.678505 228.417016 
L 255.208057 228.417016 
L 255.208057 154.610401 
L 257.737609 154.610401 
L 257.737609 114.761767 
L 260.267162 114.761767 
L 260.267162 277.629957 
L 262.796714 277.629957 
L 262.796714 169.042633 
L 265.326266 169.042633 
L 265.326266 26.450043 
L 267.855818 26.450043 
L 267.855818 72.777738 
L 270.38537 72.777738 
L 270.38537 26.450043 
L 272.914922 26.450043 
L 272.914922 169.042633 
L 275.444474 169.042633 
L 275.444474 277.629957 
L 277.974026 277.629957 
L 277.974026 114.761767 
L 280.503578 114.761767 
L 280.503578 154.610401 
L 283.03313 154.610401 
L 283.03313 228.417016 
L 285.562682 228.417016 
L 285.562682 168.292782 
L 288.092234 168.292782 
L 288.092234 156.745796 
L 290.621787 156.745796 
L 290.621787 168.292782 
L 293.151339 168.292782 
L 293.151339 228.417016 
L 295.680891 228.417016 
L 295.680891 154.610401 
L 298.210443 154.610401 
L 298.210443 114.761767 
L 300.739995 114.761767 
L 300.739995 277.629957 
L 303.269547 277.629957 
L 303.269547 169.042633 
L 305.799099 169.042633 
L 305.799099 26.450043 
L 308.328651 26.450043 
L 308.328651 72.777738 
L 310.858203 72.777738 
L 310.858203 26.450043 
L 313.387755 26.450043 
L 313.387755 169.042633 
L 315.917307 169.042633 
L 315.917307 277.629957 
L 318.44686 277.629957 
L 318.44686 114.761767 
L 320.976412 114.761767 
L 320.976412 154.610401 
L 323.505964 154.610401 
L 323.505964 228.417016 
L 326.035516 228.417016 
L 326.035516 168.292782 
L 328.565068 168.292782 
L 328.565068 156.745796 
L 331.09462 156.745796 
L 331.09462 168.292782 
L 333.624172 168.292782 
L 333.624172 228.417016 
L 336.153724 228.417016 
L 336.153724 154.610401 
L 338.683276 154.610401 
L 338.683276 114.761767 
L 341.212828 114.761767 
L 341.212828 277.629957 
L 343.74238 277.629957 
L 343.74238 169.042633 
L 346.271932 169.042633 
L 346.271932 26.450043 
L 348.801485 26.450043 
L 348.801485 72.777738 
L 351.331037 72.777738 
L 351.331037 26.450043 
L 353.860589 26.450043 
L 353.860589 169.042633 
L 356.390141 169.042633 
L 356.390141 277.629957 
L 358.919693 277.629957 
L 358.919693 114.761767 
L 361.449245 114.761767 
L 361.449245 154.610401 
L 363.978797 154.610401 
L 363.978797 228.417016 
L 366.508349 228.417016 
L 366.508349 168.292782 
L 369.037901 168.292782 
L 369.037901 156.745796 
L 371.567453 156.745796 
L 371.567453 168.292782 
L 374.097005 168.292782 
L 374.097005 228.417016 
L 376.626557 228.417016 
L 376.626557 154.610401 
L 379.15611 154.610401 
L 379.15611 114.761767 
L 381.685662 114.761767 
L 381.685662 277.629957 
L 384.215214 277.629957 
L 384.215214 169.042633 
L 386.744766 169.042633 
L 386.744766 26.450043 
L 389.274318 26.450043 
L 389.274318 72.777738 
L 391.80387 72.777738 
L 391.80387 26.450043 
L 394.333422 26.450043 
L 394.333422 169.042633 
L 396.862974 169.042633 
L 396.862974 277.629957 
L 399.392526 277.629957 
L 399.392526 114.761767 
L 401.922078 114.761767 
L 401.922078 154.610401 
L 404.45163 154.610401 
L 404.45163 228.417016 
L 406.981183 228.417016 
L 406.981183 168.292782 
L 409.510735 168.292782 
L 409.510735 156.745796 
L 412.040287 156.745796 
L 412.040287 168.292782 
L 414.569839 168.292782 
L 414.569839 228.417016 
L 417.099391 228.417016 
L 417.099391 154.610401 
L 417.099391 154.610401 
" clip-path="url(#pf3f5822f71)" style="fill: none; stroke: #a1c9f4; stroke-width: 1.5"/>
   </g>
   <g id="patch_3">
    <path d="M 2.834646 285.165354 
L 2.834646 18.914646 
" style="fill: none; stroke: #adb2b7; stroke-linejoin: miter; stroke-linecap: square"/>
   </g>
   <g id="patch_4">
    <path d="M 2.834646 285.165354 
L 429.165354 285.165354 
" style="fill: none; stroke: #adb2b7; stroke-linejoin: miter; stroke-linecap: square"/>
   </g>
   <g id="text_1">
    <!-- Referencia -->
    <g style="fill: #adb2b7" transform="translate(177.521875 12.914646) scale(0.14 -0.14)">
     <defs>
      <path id="DejaVuSerif-52" d="M 3066 2316 
Q 3284 2256 3442 2114 
Q 3600 1972 3725 1716 
L 4403 331 
L 4972 331 
L 4972 0 
L 3872 0 
L 3144 1484 
Q 2934 1916 2759 2042 
Q 2584 2169 2278 2169 
L 1581 2169 
L 1581 331 
L 2241 331 
L 2241 0 
L 353 0 
L 353 331 
L 947 331 
L 947 4331 
L 353 4331 
L 353 4666 
L 2719 4666 
Q 3400 4666 3770 4341 
Q 4141 4016 4141 3419 
Q 4141 2938 3870 2661 
Q 3600 2384 3066 2316 
z
M 1581 2503 
L 2503 2503 
Q 2975 2503 3200 2726 
Q 3425 2950 3425 3419 
Q 3425 3888 3200 4109 
Q 2975 4331 2503 4331 
L 1581 4331 
L 1581 2503 
z
" transform="scale(0.015625)"/>
      <path id="DejaVuSerif-65" d="M 3469 1600 
L 991 1600 
L 991 1575 
Q 991 903 1244 561 
Q 1497 219 1991 219 
Q 2369 219 2611 417 
Q 2853 616 2950 1006 
L 3413 1006 
Q 3275 459 2904 184 
Q 2534 -91 1931 -91 
Q 1203 -91 761 389 
Q 319 869 319 1663 
Q 319 2450 753 2931 
Q 1188 3413 1894 3413 
Q 2647 3413 3050 2948 
Q 3453 2484 3469 1600 
z
M 2791 1931 
Q 2772 2513 2545 2808 
Q 2319 3103 1894 3103 
Q 1497 3103 1269 2806 
Q 1041 2509 991 1931 
L 2791 1931 
z
" transform="scale(0.015625)"/>
      <path id="DejaVuSerif-66" d="M 2753 4078 
L 2450 4078 
Q 2447 4313 2317 4434 
Q 2188 4556 1941 4556 
Q 1619 4556 1487 4379 
Q 1356 4203 1356 3750 
L 1356 3322 
L 2284 3322 
L 2284 2988 
L 1356 2988 
L 1356 331 
L 2094 331 
L 2094 0 
L 231 0 
L 231 331 
L 781 331 
L 781 2988 
L 231 2988 
L 231 3322 
L 781 3322 
L 781 3738 
Q 781 4294 1070 4578 
Q 1359 4863 1919 4863 
Q 2128 4863 2337 4825 
Q 2547 4788 2753 4709 
L 2753 4078 
z
" transform="scale(0.015625)"/>
      <path id="DejaVuSerif-72" d="M 3059 3328 
L 3059 2497 
L 2728 2497 
Q 2713 2744 2591 2866 
Q 2469 2988 2234 2988 
Q 1809 2988 1582 2694 
Q 1356 2400 1356 1850 
L 1356 331 
L 2022 331 
L 2022 0 
L 263 0 
L 263 331 
L 781 331 
L 781 2994 
L 231 2994 
L 231 3322 
L 1356 3322 
L 1356 2731 
Q 1525 3078 1790 3245 
Q 2056 3413 2438 3413 
Q 2578 3413 2733 3391 
Q 2888 3369 3059 3328 
z
" transform="scale(0.015625)"/>
      <path id="DejaVuSerif-6e" d="M 263 0 
L 263 331 
L 781 331 
L 781 2988 
L 231 2988 
L 231 3322 
L 1356 3322 
L 1356 2731 
Q 1516 3069 1770 3241 
Q 2025 3413 2363 3413 
Q 2913 3413 3172 3097 
Q 3431 2781 3431 2113 
L 3431 331 
L 3944 331 
L 3944 0 
L 2356 0 
L 2356 331 
L 2853 331 
L 2853 1931 
Q 2853 2541 2703 2767 
Q 2553 2994 2175 2994 
Q 1775 2994 1565 2701 
Q 1356 2409 1356 1850 
L 1356 331 
L 1856 331 
L 1856 0 
L 263 0 
z
" transform="scale(0.015625)"/>
      <path id="DejaVuSerif-63" d="M 3291 997 
Q 3169 466 2822 187 
Q 2475 -91 1925 -91 
Q 1200 -91 759 389 
Q 319 869 319 1663 
Q 319 2459 759 2936 
Q 1200 3413 1925 3413 
Q 2241 3413 2553 3339 
Q 2866 3266 3181 3116 
L 3181 2266 
L 2847 2266 
Q 2781 2703 2561 2903 
Q 2341 3103 1931 3103 
Q 1466 3103 1228 2742 
Q 991 2381 991 1663 
Q 991 944 1227 581 
Q 1463 219 1931 219 
Q 2303 219 2525 412 
Q 2747 606 2828 997 
L 3291 997 
z
" transform="scale(0.015625)"/>
      <path id="DejaVuSerif-69" d="M 622 4353 
Q 622 4497 726 4603 
Q 831 4709 978 4709 
Q 1122 4709 1226 4603 
Q 1331 4497 1331 4353 
Q 1331 4206 1228 4103 
Q 1125 4000 978 4000 
Q 831 4000 726 4103 
Q 622 4206 622 4353 
z
M 1356 331 
L 1900 331 
L 1900 0 
L 231 0 
L 231 331 
L 781 331 
L 781 2988 
L 231 2988 
L 231 3322 
L 1356 3322 
L 1356 331 
z
" transform="scale(0.015625)"/>
      <path id="DejaVuSerif-61" d="M 2547 1044 
L 2547 1747 
L 1806 1747 
Q 1378 1747 1168 1562 
Q 959 1378 959 997 
Q 959 650 1171 447 
Q 1384 244 1747 244 
Q 2106 244 2326 466 
Q 2547 688 2547 1044 
z
M 3122 2075 
L 3122 331 
L 3634 331 
L 3634 0 
L 2547 0 
L 2547 359 
Q 2356 128 2106 18 
Q 1856 -91 1522 -91 
Q 969 -91 644 203 
Q 319 497 319 997 
Q 319 1513 691 1797 
Q 1063 2081 1741 2081 
L 2547 2081 
L 2547 2309 
Q 2547 2688 2317 2895 
Q 2088 3103 1672 3103 
Q 1328 3103 1125 2947 
Q 922 2791 872 2484 
L 575 2484 
L 575 3156 
Q 875 3284 1158 3348 
Q 1441 3413 1709 3413 
Q 2400 3413 2761 3070 
Q 3122 2728 3122 2075 
z
" transform="scale(0.015625)"/>
     </defs>
     <use xlink:href="#DejaVuSerif-52"/>
     <use xlink:href="#DejaVuSerif-65" x="75.292969"/>
     <use xlink:href="#DejaVuSerif-66" x="134.472656"/>
     <use xlink:href="#DejaVuSerif-65" x="171.484375"/>
     <use xlink:href="#DejaVuSerif-72" x="230.664062"/>
     <use xlink:href="#DejaVuSerif-65" x="278.466797"/>
     <use xlink:href="#DejaVuSerif-6e" x="337.646484"/>
     <use xlink:href="#DejaVuSerif-63" x="402.050781"/>
     <use xlink:href="#DejaVuSerif-69" x="458.056641"/>
     <use xlink:href="#DejaVuSerif-61" x="490.039062"/>
    </g>
   </g>
   <g id="legend_1">
    <g id="patch_5">
     <path d="M 380.355354 43.570896 
L 425.165354 43.570896 
L 425.165354 22.914646 
L 380.355354 22.914646 
z
" style="fill: #1b3041; stroke: #9eb1be; stroke-linejoin: miter"/>
    </g>
    <g id="line2d_2">
     <path d="M 386.755354 32.593396 
L 394.755354 32.593396 
L 402.755354 32.593396 
" style="fill: none; stroke: #a1c9f4; stroke-linejoin: miter"/>
    </g>
    <g id="text_2">
     <!-- y1 -->
     <g style="fill: #adb2b7" transform="translate(409.155354 35.393396) scale(0.08 -0.08)">
      <defs>
       <path id="DejaVuSerif-79" d="M 1381 -609 
L 1600 -56 
L 359 2988 
L -19 2988 
L -19 3322 
L 1509 3322 
L 1509 2988 
L 978 2988 
L 1913 703 
L 2847 2988 
L 2350 2988 
L 2350 3322 
L 3597 3322 
L 3597 2988 
L 3225 2988 
L 1703 -750 
Q 1547 -1138 1356 -1280 
Q 1166 -1422 819 -1422 
Q 672 -1422 517 -1397 
Q 363 -1372 206 -1325 
L 206 -691 
L 500 -691 
Q 519 -903 608 -995 
Q 697 -1088 884 -1088 
Q 1056 -1088 1161 -992 
Q 1266 -897 1381 -609 
z
" transform="scale(0.015625)"/>
       <path id="DejaVuSerif-31" d="M 909 0 
L 909 331 
L 1722 331 
L 1722 4213 
L 781 3603 
L 781 4013 
L 1919 4750 
L 2350 4750 
L 2350 331 
L 3163 331 
L 3163 0 
L 909 0 
z
" transform="scale(0.015625)"/>
      </defs>
      <use xlink:href="#DejaVuSerif-79"/>
      <use xlink:href="#DejaVuSerif-31" x="56.494141"/>
     </g>
    </g>
   </g>
  </g>
 </g>
 <defs>
  <clipPath id="pf3f5822f71">
   <rect x="2.834646" y="18.914646" width="426.330709" height="266.250709"/>
  </clipPath>
 </defs>
</svg>
