<?xml version="1.0" encoding="utf-8"?>
<svg xmlns="http://www.w3.org/2000/svg" xmlns:xlink="http://www.w3.org/1999/xlink" width="1000" height="300" viewBox="0 0 4000 1200">
<defs>
  <clipPath id="clip810">
    <rect x="0" y="0" width="4000" height="1200"/>
  </clipPath>
</defs>
<path clip-path="url(#clip810)" d="M0 1200 L4000 1200 L4000 0 L0 0  Z" fill="#1b3041" fill-rule="evenodd" fill-opacity="1"/>
<defs>
  <clipPath id="clip811">
    <rect x="800" y="0" width="2801" height="1200"/>
  </clipPath>
</defs>
<path clip-path="url(#clip810)" d="M47.2441 552.756 L3952.76 552.756 L3952.76 90.2081 L47.2441 90.2081  Z" fill="#21252b" fill-rule="evenodd" fill-opacity="1"/>
<defs>
  <clipPath id="clip812">
    <rect x="47" y="90" width="3907" height="464"/>
  </clipPath>
</defs>
<polyline clip-path="url(#clip810)" style="stroke:#adb2b7; stroke-linecap:round; stroke-linejoin:round; stroke-width:4; stroke-opacity:1; fill:none" points="47.2441,552.756 3952.76,552.756 "/>
<polyline clip-path="url(#clip810)" style="stroke:#adb2b7; stroke-linecap:round; stroke-linejoin:round; stroke-width:4; stroke-opacity:1; fill:none" points="47.2441,552.756 47.2441,90.2081 "/>
<path clip-path="url(#clip810)" d="M1740.74 14.0809 L1740.74 22.0612 Q1736.08 19.8332 1731.95 18.7395 Q1727.82 17.6457 1723.97 17.6457 Q1717.29 17.6457 1713.64 20.2383 Q1710.04 22.8309 1710.04 27.611 Q1710.04 31.6214 1712.43 33.6873 Q1714.86 35.7128 1721.58 36.9686 L1726.52 37.9813 Q1735.68 39.7232 1740.01 44.1387 Q1744.39 48.5136 1744.39 55.8863 Q1744.39 64.6767 1738.47 69.2137 Q1732.6 73.7508 1721.22 73.7508 Q1716.92 73.7508 1712.06 72.7785 Q1707.24 71.8063 1702.06 69.9024 L1702.06 61.4765 Q1707.04 64.2716 1711.82 65.6895 Q1716.6 67.1073 1721.22 67.1073 Q1728.22 67.1073 1732.03 64.3527 Q1735.84 61.598 1735.84 56.4939 Q1735.84 52.0379 1733.09 49.5264 Q1730.37 47.0148 1724.13 45.759 L1719.15 44.7868 Q1710 42.9639 1705.9 39.075 Q1701.81 35.1862 1701.81 28.2591 Q1701.81 20.2383 1707.44 15.6203 Q1713.11 11.0023 1723.04 11.0023 Q1727.29 11.0023 1731.71 11.7719 Q1736.12 12.5416 1740.74 14.0809 Z" fill="#adb2b7" fill-rule="nonzero" fill-opacity="1" /><path clip-path="url(#clip810)" d="M1795.63 48.0275 L1795.63 51.6733 L1761.36 51.6733 Q1761.85 59.3701 1765.98 63.421 Q1770.15 67.4314 1777.56 67.4314 Q1781.86 67.4314 1785.87 66.3781 Q1789.92 65.3249 1793.89 63.2184 L1793.89 70.267 Q1789.88 71.9684 1785.67 72.8596 Q1781.45 73.7508 1777.12 73.7508 Q1766.26 73.7508 1759.9 67.4314 Q1753.58 61.1119 1753.58 50.3365 Q1753.58 39.1965 1759.58 32.6746 Q1765.61 26.1121 1775.82 26.1121 Q1784.98 26.1121 1790.28 32.0264 Q1795.63 37.9003 1795.63 48.0275 M1788.18 45.84 Q1788.1 39.7232 1784.73 36.0774 Q1781.41 32.4315 1775.9 32.4315 Q1769.67 32.4315 1765.9 35.9558 Q1762.17 39.4801 1761.6 45.8805 L1788.18 45.84 Z" fill="#adb2b7" fill-rule="nonzero" fill-opacity="1" /><path clip-path="url(#clip810)" d="M1845.58 45.1919 L1845.58 72.576 L1838.13 72.576 L1838.13 45.4349 Q1838.13 38.994 1835.61 35.7938 Q1833.1 32.5936 1828.08 32.5936 Q1822.04 32.5936 1818.56 36.4419 Q1815.08 40.2903 1815.08 46.9338 L1815.08 72.576 L1807.58 72.576 L1807.58 27.2059 L1815.08 27.2059 L1815.08 34.2544 Q1817.75 30.163 1821.36 28.1376 Q1825 26.1121 1829.74 26.1121 Q1837.56 26.1121 1841.57 30.9732 Q1845.58 35.7938 1845.58 45.1919 M1826.78 17.0786 L1824.47 14.8506 Q1823.58 14.0404 1822.89 13.6759 Q1822.25 13.2708 1821.72 13.2708 Q1820.18 13.2708 1819.45 14.7696 Q1818.72 16.2279 1818.64 19.5497 L1813.58 19.5497 Q1813.66 14.0809 1815.72 11.1238 Q1817.79 8.12611 1821.48 8.12611 Q1823.02 8.12611 1824.31 8.69324 Q1825.61 9.26037 1827.11 10.5972 L1829.42 12.8252 Q1830.31 13.6353 1830.96 14.0404 Q1831.64 14.405 1832.17 14.405 Q1833.71 14.405 1834.44 12.9467 Q1835.17 11.4479 1835.25 8.12611 L1840.31 8.12611 Q1840.23 13.5948 1838.17 16.5925 Q1836.1 19.5497 1832.41 19.5497 Q1830.87 19.5497 1829.58 18.9825 Q1828.28 18.4154 1826.78 17.0786 Z" fill="#adb2b7" fill-rule="nonzero" fill-opacity="1" /><path clip-path="url(#clip810)" d="M1881.07 49.7694 Q1872.03 49.7694 1868.55 51.8354 Q1865.06 53.9013 1865.06 58.8839 Q1865.06 62.8538 1867.66 65.2034 Q1870.29 67.5124 1874.79 67.5124 Q1880.98 67.5124 1884.71 63.1374 Q1888.48 58.7219 1888.48 51.4303 L1888.48 49.7694 L1881.07 49.7694 M1895.93 46.6907 L1895.93 72.576 L1888.48 72.576 L1888.48 65.6895 Q1885.93 69.8214 1882.12 71.8063 Q1878.31 73.7508 1872.8 73.7508 Q1865.83 73.7508 1861.7 69.8619 Q1857.61 65.9325 1857.61 59.3701 Q1857.61 51.7138 1862.71 47.825 Q1867.86 43.9361 1878.03 43.9361 L1888.48 43.9361 L1888.48 43.2069 Q1888.48 38.0623 1885.08 35.2672 Q1881.71 32.4315 1875.6 32.4315 Q1871.71 32.4315 1868.02 33.3632 Q1864.34 34.295 1860.93 36.1584 L1860.93 29.2718 Q1865.02 27.692 1868.87 26.9223 Q1872.72 26.1121 1876.37 26.1121 Q1886.21 26.1121 1891.07 31.2163 Q1895.93 36.3204 1895.93 46.6907 Z" fill="#adb2b7" fill-rule="nonzero" fill-opacity="1" /><path clip-path="url(#clip810)" d="M1911.29 9.54393 L1918.74 9.54393 L1918.74 72.576 L1911.29 72.576 L1911.29 9.54393 Z" fill="#adb2b7" fill-rule="nonzero" fill-opacity="1" /><path clip-path="url(#clip810)" d="M1989.71 44.2197 Q1992.34 45.1109 1994.81 48.0275 Q1997.33 50.9442 1999.84 56.0483 L2008.14 72.576 L1999.35 72.576 L1991.61 57.061 Q1988.62 50.9847 1985.78 48.9997 Q1982.99 47.0148 1978.13 47.0148 L1969.21 47.0148 L1969.21 72.576 L1961.03 72.576 L1961.03 12.096 L1979.5 12.096 Q1989.87 12.096 1994.98 16.4305 Q2000.08 20.7649 2000.08 29.5149 Q2000.08 35.2267 1997.41 38.994 Q1994.77 42.7613 1989.71 44.2197 M1969.21 18.8205 L1969.21 40.2903 L1979.5 40.2903 Q1985.42 40.2903 1988.41 37.5762 Q1991.45 34.8216 1991.45 29.5149 Q1991.45 24.2082 1988.41 21.5346 Q1985.42 18.8205 1979.5 18.8205 L1969.21 18.8205 Z" fill="#adb2b7" fill-rule="nonzero" fill-opacity="1" /><path clip-path="url(#clip810)" d="M2053.43 48.0275 L2053.43 51.6733 L2019.16 51.6733 Q2019.65 59.3701 2023.78 63.421 Q2027.95 67.4314 2035.36 67.4314 Q2039.66 67.4314 2043.67 66.3781 Q2047.72 65.3249 2051.69 63.2184 L2051.69 70.267 Q2047.68 71.9684 2043.47 72.8596 Q2039.25 73.7508 2034.92 73.7508 Q2024.06 73.7508 2017.7 67.4314 Q2011.38 61.1119 2011.38 50.3365 Q2011.38 39.1965 2017.38 32.6746 Q2023.41 26.1121 2033.62 26.1121 Q2042.78 26.1121 2048.08 32.0264 Q2053.43 37.9003 2053.43 48.0275 M2045.98 45.84 Q2045.9 39.7232 2042.53 36.0774 Q2039.21 32.4315 2033.7 32.4315 Q2027.47 32.4315 2023.7 35.9558 Q2019.97 39.4801 2019.4 45.8805 L2045.98 45.84 Z" fill="#adb2b7" fill-rule="nonzero" fill-opacity="1" /><path clip-path="url(#clip810)" d="M2098.32 28.9478 L2098.32 35.9153 Q2095.16 34.1734 2091.96 33.3227 Q2088.8 32.4315 2085.56 32.4315 Q2078.3 32.4315 2074.29 37.0496 Q2070.28 41.6271 2070.28 49.9314 Q2070.28 58.2358 2074.29 62.8538 Q2078.3 67.4314 2085.56 67.4314 Q2088.8 67.4314 2091.96 66.5807 Q2095.16 65.6895 2098.32 63.9476 L2098.32 70.8341 Q2095.2 72.2924 2091.83 73.0216 Q2088.51 73.7508 2084.74 73.7508 Q2074.5 73.7508 2068.46 67.3098 Q2062.42 60.8689 2062.42 49.9314 Q2062.42 38.832 2068.5 32.472 Q2074.62 26.1121 2085.23 26.1121 Q2088.67 26.1121 2091.96 26.8413 Q2095.24 27.5299 2098.32 28.9478 Z" fill="#adb2b7" fill-rule="nonzero" fill-opacity="1" /><path clip-path="url(#clip810)" d="M2111.28 27.2059 L2118.73 27.2059 L2118.73 72.576 L2111.28 72.576 L2111.28 27.2059 M2111.28 9.54393 L2118.73 9.54393 L2118.73 18.9825 L2111.28 18.9825 L2111.28 9.54393 Z" fill="#adb2b7" fill-rule="nonzero" fill-opacity="1" /><path clip-path="url(#clip810)" d="M2166.9 49.9314 Q2166.9 41.7081 2163.49 37.0496 Q2160.13 32.3505 2154.22 32.3505 Q2148.3 32.3505 2144.9 37.0496 Q2141.54 41.7081 2141.54 49.9314 Q2141.54 58.1548 2144.9 62.8538 Q2148.3 67.5124 2154.22 67.5124 Q2160.13 67.5124 2163.49 62.8538 Q2166.9 58.1548 2166.9 49.9314 M2141.54 34.0924 Q2143.89 30.0415 2147.45 28.0971 Q2151.06 26.1121 2156.04 26.1121 Q2164.3 26.1121 2169.45 32.6746 Q2174.63 39.2371 2174.63 49.9314 Q2174.63 60.6258 2169.45 67.1883 Q2164.3 73.7508 2156.04 73.7508 Q2151.06 73.7508 2147.45 71.8063 Q2143.89 69.8214 2141.54 65.7705 L2141.54 72.576 L2134.04 72.576 L2134.04 9.54393 L2141.54 9.54393 L2141.54 34.0924 Z" fill="#adb2b7" fill-rule="nonzero" fill-opacity="1" /><path clip-path="url(#clip810)" d="M2186.99 27.2059 L2194.44 27.2059 L2194.44 72.576 L2186.99 72.576 L2186.99 27.2059 M2186.99 9.54393 L2194.44 9.54393 L2194.44 18.9825 L2186.99 18.9825 L2186.99 9.54393 Z" fill="#adb2b7" fill-rule="nonzero" fill-opacity="1" /><path clip-path="url(#clip810)" d="M2239.89 34.0924 L2239.89 9.54393 L2247.35 9.54393 L2247.35 72.576 L2239.89 72.576 L2239.89 65.7705 Q2237.55 69.8214 2233.94 71.8063 Q2230.37 73.7508 2225.35 73.7508 Q2217.13 73.7508 2211.94 67.1883 Q2206.8 60.6258 2206.8 49.9314 Q2206.8 39.2371 2211.94 32.6746 Q2217.13 26.1121 2225.35 26.1121 Q2230.37 26.1121 2233.94 28.0971 Q2237.55 30.0415 2239.89 34.0924 M2214.5 49.9314 Q2214.5 58.1548 2217.86 62.8538 Q2221.26 67.5124 2227.17 67.5124 Q2233.09 67.5124 2236.49 62.8538 Q2239.89 58.1548 2239.89 49.9314 Q2239.89 41.7081 2236.49 37.0496 Q2233.09 32.3505 2227.17 32.3505 Q2221.26 32.3505 2217.86 37.0496 Q2214.5 41.7081 2214.5 49.9314 Z" fill="#adb2b7" fill-rule="nonzero" fill-opacity="1" /><path clip-path="url(#clip810)" d="M2283.32 49.7694 Q2274.29 49.7694 2270.8 51.8354 Q2267.32 53.9013 2267.32 58.8839 Q2267.32 62.8538 2269.91 65.2034 Q2272.54 67.5124 2277.04 67.5124 Q2283.24 67.5124 2286.97 63.1374 Q2290.73 58.7219 2290.73 51.4303 L2290.73 49.7694 L2283.32 49.7694 M2298.19 46.6907 L2298.19 72.576 L2290.73 72.576 L2290.73 65.6895 Q2288.18 69.8214 2284.37 71.8063 Q2280.57 73.7508 2275.06 73.7508 Q2268.09 73.7508 2263.96 69.8619 Q2259.87 65.9325 2259.87 59.3701 Q2259.87 51.7138 2264.97 47.825 Q2270.11 43.9361 2280.28 43.9361 L2290.73 43.9361 L2290.73 43.2069 Q2290.73 38.0623 2287.33 35.2672 Q2283.97 32.4315 2277.85 32.4315 Q2273.96 32.4315 2270.28 33.3632 Q2266.59 34.295 2263.19 36.1584 L2263.19 29.2718 Q2267.28 27.692 2271.13 26.9223 Q2274.98 26.1121 2278.62 26.1121 Q2288.46 26.1121 2293.33 31.2163 Q2298.19 36.3204 2298.19 46.6907 Z" fill="#adb2b7" fill-rule="nonzero" fill-opacity="1" /><polyline clip-path="url(#clip812)" style="stroke:#a1c9f4; stroke-linecap:round; stroke-linejoin:round; stroke-width:4; stroke-opacity:1; fill:none" points="157.777,319.119 169.291,319.119 169.291,264.763 180.805,264.763 180.805,492 192.319,492 192.319,349.559 203.833,349.559 203.833,125.294 215.347,125.294 215.347,206.71 226.861,206.71 226.861,133.975 238.375,133.975 238.375,341.958 249.889,341.958 249.889,501.282 261.402,501.282 261.402,285.449 272.916,285.449 272.916,323.351 284.43,323.351 284.43,439.894 295.944,439.894 295.944,349.11 307.458,349.11 307.458,318.638 318.972,318.638 318.972,369.371 330.486,369.371 330.486,435.056 342,435.056 342,309.682 353.514,309.682 353.514,254.237 365.027,254.237 365.027,524.762 376.541,524.762 376.541,349.165 388.055,349.165 388.055,137.463 399.569,137.463 399.569,211.524 411.083,211.524 411.083,133.347 422.597,133.347 422.597,343.67 434.111,343.67 434.111,504.14 445.625,504.14 445.625,263.306 457.139,263.306 457.139,331.885 468.653,331.885 468.653,425.927 480.166,425.927 480.166,359.6 491.68,359.6 491.68,332.782 503.194,332.782 503.194,374.352 514.708,374.352 514.708,440.187 526.222,440.187 526.222,333.257 537.736,333.257 537.736,261.098 549.25,261.098 549.25,503.543 560.764,503.543 560.764,343.235 572.278,343.235 572.278,132.879 583.791,132.879 583.791,199.384 595.305,199.384 595.305,149.559 606.819,149.559 606.819,339.872 618.333,339.872 618.333,480.243 629.847,480.243 629.847,276.537 641.361,276.537 641.361,314.35 652.875,314.35 652.875,425.012 664.389,425.012 664.389,332.244 675.903,332.244 675.903,316.528 687.416,316.528 687.416,347.021 698.93,347.021 698.93,426.317 710.444,426.317 710.444,324.362 721.958,324.362 721.958,269.301 733.472,269.301 733.472,496.713 744.986,496.713 744.986,320.404 756.5,320.404 756.5,128.612 768.014,128.612 768.014,190.697 779.528,190.697 779.528,126.393 791.041,126.393 791.041,335.034 802.555,335.034 802.555,503.493 814.069,503.493 814.069,285.381 825.583,285.381 825.583,339.594 837.097,339.594 837.097,428.299 848.611,428.299 848.611,315.469 860.125,315.469 860.125,334.815 871.639,334.815 871.639,324.478 883.153,324.478 883.153,436.743 894.666,436.743 894.666,305.857 906.18,305.857 906.18,288.064 917.694,288.064 917.694,487.398 929.208,487.398 929.208,326.128 940.722,326.128 940.722,115.971 952.236,115.971 952.236,197.05 963.75,197.05 963.75,148.343 975.264,148.343 975.264,365.398 986.778,365.398 986.778,496.498 998.291,496.498 998.291,269.246 1009.81,269.246 1009.81,332.231 1021.32,332.231 1021.32,405.282 1032.83,405.282 1032.83,332.725 1044.35,332.725 1044.35,322.363 1055.86,322.363 1055.86,320.082 1067.37,320.082 1067.37,404.252 1078.89,404.252 1078.89,313.053 1090.4,313.053 1090.4,276.922 1101.92,276.922 1101.92,482.716 1113.43,482.716 1113.43,341.2 1124.94,341.2 1124.94,116.334 1136.46,116.334 1136.46,217.159 1147.97,217.159 1147.97,122.923 1159.49,122.923 1159.49,341.46 1171,341.46 1171,502.612 1182.51,502.612 1182.51,284.933 1194.03,284.933 1194.03,332.048 1205.54,332.048 1205.54,433.758 1217.06,433.758 1217.06,339.148 1228.57,339.148 1228.57,332.468 1240.08,332.468 1240.08,344.914 1251.6,344.914 1251.6,433.857 1263.11,433.857 1263.11,358.581 1274.62,358.581 1274.62,255.753 1286.14,255.753 1286.14,472.644 1297.65,472.644 1297.65,354.364 1309.17,354.364 1309.17,138.319 1320.68,138.319 1320.68,206.144 1332.19,206.144 1332.19,137.404 1343.71,137.404 1343.71,329.588 1355.22,329.588 1355.22,494.978 1366.74,494.978 1366.74,273.714 1378.25,273.714 1378.25,324.475 1389.76,324.475 1389.76,441.779 1401.28,441.779 1401.28,324.225 1412.79,324.225 1412.79,337.189 1424.31,337.189 1424.31,355.284 1435.82,355.284 1435.82,434.724 1447.33,434.724 1447.33,319.342 1458.85,319.342 1458.85,285.267 1470.36,285.267 1470.36,529.432 1481.87,529.432 1481.87,321.983 1493.39,321.983 1493.39,155.516 1504.9,155.516 1504.9,198.526 1516.42,198.526 1516.42,123.104 1527.93,123.104 1527.93,351.026 1539.44,351.026 1539.44,495.936 1550.96,495.936 1550.96,281.536 1562.47,281.536 1562.47,286.385 1573.99,286.385 1573.99,438.679 1585.5,438.679 1585.5,344.646 1597.01,344.646 1597.01,333.356 1608.53,333.356 1608.53,332.017 1620.04,332.017 1620.04,404.943 1631.56,404.943 1631.56,316.692 1643.07,316.692 1643.07,255.061 1654.58,255.061 1654.58,521.25 1666.1,521.25 1666.1,359.169 1677.61,359.169 1677.61,103.299 1689.12,103.299 1689.12,185.532 1700.64,185.532 1700.64,131.081 1712.15,131.081 1712.15,348.673 1723.67,348.673 1723.67,507.779 1735.18,507.779 1735.18,269.795 1746.69,269.795 1746.69,315.548 1758.21,315.548 1758.21,402.489 1769.72,402.489 1769.72,340.976 1781.24,340.976 1781.24,319.487 1792.75,319.487 1792.75,361.973 1804.26,361.973 1804.26,433.393 1815.78,433.393 1815.78,297.026 1827.29,297.026 1827.29,268.237 1838.81,268.237 1838.81,488.066 1850.32,488.066 1850.32,343.628 1861.83,343.628 1861.83,148.406 1873.35,148.406 1873.35,213.857 1884.86,213.857 1884.86,152.574 1896.37,152.574 1896.37,347.944 1907.89,347.944 1907.89,498.658 1919.4,498.658 1919.4,262.685 1930.92,262.685 1930.92,299.376 1942.43,299.376 1942.43,430.863 1953.94,430.863 1953.94,321.617 1965.46,321.617 1965.46,331.803 1976.97,331.803 1976.97,327.726 1988.49,327.726 1988.49,441.442 2000,441.442 2000,319.555 2011.51,319.555 2011.51,537.755 2023.03,537.755 2023.03,296.239 2034.54,296.239 2034.54,206.855 2046.06,206.855 2046.06,425.192 2057.57,425.192 2057.57,342.071 2069.08,342.071 2069.08,237.215 2080.6,237.215 2080.6,487.9 2092.11,487.9 2092.11,477.4 2103.63,477.4 2103.63,376.013 2115.14,376.013 2115.14,376.878 2126.65,376.878 2126.65,421.601 2138.17,421.601 2138.17,237.946 2149.68,237.946 2149.68,225.204 2161.19,225.204 2161.19,493.627 2172.71,493.627 2172.71,416.879 2184.22,416.879 2184.22,258.713 2195.74,258.713 2195.74,255.182 2207.25,255.182 2207.25,170.724 2218.76,170.724 2218.76,342.995 2230.28,342.995 2230.28,231.056 2241.79,231.056 2241.79,288.46 2253.31,288.46 2253.31,505.333 2264.82,505.333 2264.82,315.806 2276.33,315.806 2276.33,234.192 2287.85,234.192 2287.85,199.968 2299.36,199.968 2299.36,380.348 2310.88,380.348 2310.88,489.94 2322.39,489.94 2322.39,257.429 2333.9,257.429 2333.9,298.557 2345.42,298.557 2345.42,200.977 2356.93,200.977 2356.93,279.141 2368.44,279.141 2368.44,317.584 2379.96,317.584 2379.96,104.541 2391.47,104.541 2391.47,339.042 2402.99,339.042 2402.99,277.369 2414.5,277.369 2414.5,189.285 2426.01,189.285 2426.01,307.436 2437.53,307.436 2437.53,247.65 2449.04,247.65 2449.04,467.456 2460.56,467.456 2460.56,370.74 2472.07,370.74 2472.07,191.243 2483.58,191.243 2483.58,251.022 2495.1,251.022 2495.1,320.133 2506.61,320.133 2506.61,501.991 2518.13,501.991 2518.13,294.887 2529.64,294.887 2529.64,248.565 2541.15,248.565 2541.15,373.378 2552.67,373.378 2552.67,155.118 2564.18,155.118 2564.18,251.275 2575.69,251.275 2575.69,272.471 2587.21,272.471 2587.21,399.471 2598.72,399.471 2598.72,494.086 2610.24,494.086 2610.24,227.316 2621.75,227.316 2621.75,234.16 2633.26,234.16 2633.26,398.171 2644.78,398.171 2644.78,398.871 2656.29,398.871 2656.29,380.194 2667.81,380.194 2667.81,490.72 2679.32,490.72 2679.32,494.985 2690.83,494.985 2690.83,223.526 2702.35,223.526 2702.35,331.379 2713.86,331.379 2713.86,436.287 2725.38,436.287 2725.38,207.981 2736.89,207.981 2736.89,306.014 2748.4,306.014 2748.4,539.665 2759.92,539.665 2759.92,311.643 2771.43,311.643 2771.43,214.119 2782.94,214.119 2782.94,423.935 2794.46,423.935 2794.46,379.787 2805.97,379.787 2805.97,212.805 2817.49,212.805 2817.49,479.401 2829,479.401 2829,468.447 2840.51,468.447 2840.51,374.595 2852.03,374.595 2852.03,388.446 2863.54,388.446 2863.54,414.324 2875.06,414.324 2875.06,224.903 2886.57,224.903 2886.57,199.308 2898.08,199.308 2898.08,533.986 2909.6,533.986 2909.6,397.991 2921.11,397.991 2921.11,278.948 2932.63,278.948 2932.63,251.271 2944.14,251.271 2944.14,181.3 2955.65,181.3 2955.65,375.205 2967.17,375.205 2967.17,244.449 2978.68,244.449 2978.68,303.261 2990.19,303.261 2990.19,494.713 3001.71,494.713 3001.71,303.251 3013.22,303.251 3013.22,244.225 3024.74,244.225 3024.74,180.445 3036.25,180.445 3036.25,384.086 3047.76,384.086 3047.76,480.232 3059.28,480.232 3059.28,255.275 3070.79,255.275 3070.79,299.378 3082.31,299.378 3082.31,208.621 3093.82,208.621 3093.82,248.393 3105.33,248.393 3105.33,326.83 3116.85,326.83 3116.85,130.271 3128.36,130.271 3128.36,327.954 3139.88,327.954 3139.88,251.958 3151.39,251.958 3151.39,204.166 3162.9,204.166 3162.9,310.411 3174.42,310.411 3174.42,238.688 3185.93,238.688 3185.93,497.29 3197.44,497.29 3197.44,391.391 3208.96,391.391 3208.96,194.015 3220.47,194.015 3220.47,278.313 3231.99,278.313 3231.99,340.794 3243.5,340.794 3243.5,511.085 3255.01,511.085 3255.01,277.888 3266.53,277.888 3266.53,234.681 3278.04,234.681 3278.04,358.429 3289.56,358.429 3289.56,177.171 3301.07,177.171 3301.07,236.06 3312.58,236.06 3312.58,285.883 3324.1,285.883 3324.1,372.645 3335.61,372.645 3335.61,477.521 3347.13,477.521 3347.13,228.11 3358.64,228.11 3358.64,231.188 3370.15,231.188 3370.15,421.566 3381.67,421.566 3381.67,397.892 3393.18,397.892 3393.18,372.411 3404.69,372.411 3404.69,489.247 3416.21,489.247 3416.21,492.234 3427.72,492.234 3427.72,219.816 3439.24,219.816 3439.24,305.364 3450.75,305.364 3450.75,446.633 3462.26,446.633 3462.26,189.279 3473.78,189.279 3473.78,311.882 3485.29,311.882 3485.29,526.073 3496.81,526.073 3496.81,300.04 3508.32,300.04 3508.32,233.586 3519.83,233.586 3519.83,478.717 3531.35,478.717 3531.35,341.206 3542.86,341.206 3542.86,227.614 3554.38,227.614 3554.38,468.505 3565.89,468.505 3565.89,468.387 3577.4,468.387 3577.4,391.47 3588.92,391.47 3588.92,400.624 3600.43,400.624 3600.43,394.848 3611.94,394.848 3611.94,260.912 3623.46,260.912 3623.46,191.924 3634.97,191.924 3634.97,462.551 3646.49,462.551 3646.49,417.047 3658,417.047 3658,298.421 3669.51,298.421 3669.51,242.218 3681.03,242.218 3681.03,198.964 3692.54,198.964 3692.54,367.213 3704.06,367.213 3704.06,230.49 3715.57,230.49 3715.57,295.695 3727.08,295.695 3727.08,516.432 3738.6,516.432 3738.6,313.608 3750.11,313.608 3750.11,251.627 3761.63,251.627 3761.63,218.331 3773.14,218.331 3773.14,370.534 3784.65,370.534 3784.65,470.068 3796.17,470.068 3796.17,254.936 3807.68,254.936 3807.68,309.349 3819.19,309.349 3819.19,203.687 3830.71,203.687 3830.71,248.417 3842.22,248.417 3842.22,332.972 "/>
<polyline clip-path="url(#clip812)" style="stroke:#c0c0c0; stroke-linecap:round; stroke-linejoin:round; stroke-width:4; stroke-opacity:1; fill:none" points="157.777,539.665 157.777,103.299 "/>
<polyline clip-path="url(#clip812)" style="stroke:#c0c0c0; stroke-linecap:round; stroke-linejoin:round; stroke-width:4; stroke-opacity:1; fill:none" stroke-dasharray="16, 10" points="1078.89,539.665 1078.89,103.299 "/>
<polyline clip-path="url(#clip812)" style="stroke:#c0c0c0; stroke-linecap:round; stroke-linejoin:round; stroke-width:4; stroke-opacity:1; fill:none" points="2000,539.665 2000,103.299 "/>
<path clip-path="url(#clip810)" d="M47.2441 1152.76 L1952.76 1152.76 L1952.76 690.208 L47.2441 690.208  Z" fill="#21252b" fill-rule="evenodd" fill-opacity="1"/>
<defs>
  <clipPath id="clip813">
    <rect x="47" y="690" width="1907" height="464"/>
  </clipPath>
</defs>
<polyline clip-path="url(#clip810)" style="stroke:#adb2b7; stroke-linecap:round; stroke-linejoin:round; stroke-width:4; stroke-opacity:1; fill:none" points="47.2441,1152.76 1952.76,1152.76 "/>
<polyline clip-path="url(#clip810)" style="stroke:#adb2b7; stroke-linecap:round; stroke-linejoin:round; stroke-width:4; stroke-opacity:1; fill:none" points="47.2441,1152.76 47.2441,690.208 "/>
<path clip-path="url(#clip810)" d="M817.304 672.576 L794.214 612.096 L802.761 612.096 L821.922 663.016 L841.124 612.096 L849.63 612.096 L826.581 672.576 L817.304 672.576 Z" fill="#adb2b7" fill-rule="nonzero" fill-opacity="1" /><path clip-path="url(#clip810)" d="M890.504 648.028 L890.504 651.673 L856.233 651.673 Q856.72 659.37 860.851 663.421 Q865.024 667.431 872.437 667.431 Q876.731 667.431 880.741 666.378 Q884.792 665.325 888.762 663.218 L888.762 670.267 Q884.752 671.968 880.539 672.86 Q876.326 673.751 871.991 673.751 Q861.135 673.751 854.775 667.431 Q848.456 661.112 848.456 650.337 Q848.456 639.197 854.451 632.675 Q860.487 626.112 870.695 626.112 Q879.85 626.112 885.157 632.026 Q890.504 637.9 890.504 648.028 M883.05 645.84 Q882.969 639.723 879.607 636.077 Q876.285 632.432 870.776 632.432 Q864.538 632.432 860.77 635.956 Q857.044 639.48 856.476 645.881 L883.05 645.84 Z" fill="#adb2b7" fill-rule="nonzero" fill-opacity="1" /><path clip-path="url(#clip810)" d="M940.452 645.192 L940.452 672.576 L932.998 672.576 L932.998 645.435 Q932.998 638.994 930.486 635.794 Q927.975 632.594 922.952 632.594 Q916.916 632.594 913.432 636.442 Q909.948 640.29 909.948 646.934 L909.948 672.576 L902.454 672.576 L902.454 627.206 L909.948 627.206 L909.948 634.254 Q912.622 630.163 916.227 628.138 Q919.873 626.112 924.613 626.112 Q932.431 626.112 936.441 630.973 Q940.452 635.794 940.452 645.192 Z" fill="#adb2b7" fill-rule="nonzero" fill-opacity="1" /><path clip-path="url(#clip810)" d="M962.691 614.324 L962.691 627.206 L978.044 627.206 L978.044 632.999 L962.691 632.999 L962.691 657.628 Q962.691 663.178 964.19 664.758 Q965.729 666.338 970.388 666.338 L978.044 666.338 L978.044 672.576 L970.388 672.576 Q961.759 672.576 958.478 669.376 Q955.197 666.135 955.197 657.628 L955.197 632.999 L949.728 632.999 L949.728 627.206 L955.197 627.206 L955.197 614.324 L962.691 614.324 Z" fill="#adb2b7" fill-rule="nonzero" fill-opacity="1" /><path clip-path="url(#clip810)" d="M1008.47 649.769 Q999.433 649.769 995.949 651.835 Q992.465 653.901 992.465 658.884 Q992.465 662.854 995.058 665.203 Q997.691 667.512 1002.19 667.512 Q1008.39 667.512 1012.11 663.137 Q1015.88 658.722 1015.88 651.43 L1015.88 649.769 L1008.47 649.769 M1023.33 646.691 L1023.33 672.576 L1015.88 672.576 L1015.88 665.689 Q1013.33 669.821 1009.52 671.806 Q1005.71 673.751 1000.2 673.751 Q993.235 673.751 989.103 669.862 Q985.012 665.933 985.012 659.37 Q985.012 651.714 990.116 647.825 Q995.26 643.936 1005.43 643.936 L1015.88 643.936 L1015.88 643.207 Q1015.88 638.062 1012.48 635.267 Q1009.11 632.432 1003 632.432 Q999.109 632.432 995.422 633.363 Q991.736 634.295 988.333 636.158 L988.333 629.272 Q992.425 627.692 996.273 626.922 Q1000.12 626.112 1003.77 626.112 Q1013.61 626.112 1018.47 631.216 Q1023.33 636.32 1023.33 646.691 Z" fill="#adb2b7" fill-rule="nonzero" fill-opacity="1" /><path clip-path="url(#clip810)" d="M1076.4 645.192 L1076.4 672.576 L1068.95 672.576 L1068.95 645.435 Q1068.95 638.994 1066.43 635.794 Q1063.92 632.594 1058.9 632.594 Q1052.86 632.594 1049.38 636.442 Q1045.9 640.29 1045.9 646.934 L1045.9 672.576 L1038.4 672.576 L1038.4 627.206 L1045.9 627.206 L1045.9 634.254 Q1048.57 630.163 1052.18 628.138 Q1055.82 626.112 1060.56 626.112 Q1068.38 626.112 1072.39 630.973 Q1076.4 635.794 1076.4 645.192 Z" fill="#adb2b7" fill-rule="nonzero" fill-opacity="1" /><path clip-path="url(#clip810)" d="M1111.89 649.769 Q1102.85 649.769 1099.37 651.835 Q1095.88 653.901 1095.88 658.884 Q1095.88 662.854 1098.48 665.203 Q1101.11 667.512 1105.61 667.512 Q1111.8 667.512 1115.53 663.137 Q1119.3 658.722 1119.3 651.43 L1119.3 649.769 L1111.89 649.769 M1126.75 646.691 L1126.75 672.576 L1119.3 672.576 L1119.3 665.689 Q1116.75 669.821 1112.94 671.806 Q1109.13 673.751 1103.62 673.751 Q1096.65 673.751 1092.52 669.862 Q1088.43 665.933 1088.43 659.37 Q1088.43 651.714 1093.54 647.825 Q1098.68 643.936 1108.85 643.936 L1119.3 643.936 L1119.3 643.207 Q1119.3 638.062 1115.9 635.267 Q1112.53 632.432 1106.42 632.432 Q1102.53 632.432 1098.84 633.363 Q1095.16 634.295 1091.75 636.158 L1091.75 629.272 Q1095.84 627.692 1099.69 626.922 Q1103.54 626.112 1107.19 626.112 Q1117.03 626.112 1121.89 631.216 Q1126.75 636.32 1126.75 646.691 Z" fill="#adb2b7" fill-rule="nonzero" fill-opacity="1" /><path clip-path="url(#clip810)" d="M1170.95 665.689 L1184.32 665.689 L1184.32 619.55 L1169.77 622.466 L1169.77 615.013 L1184.24 612.096 L1192.42 612.096 L1192.42 665.689 L1205.79 665.689 L1205.79 672.576 L1170.95 672.576 L1170.95 665.689 Z" fill="#adb2b7" fill-rule="nonzero" fill-opacity="1" /><polyline clip-path="url(#clip813)" style="stroke:#a1c9f4; stroke-linecap:round; stroke-linejoin:round; stroke-width:4; stroke-opacity:1; fill:none" points="101.174,918.978 123.644,918.978 123.644,861.36 146.115,861.36 146.115,1102.23 168.586,1102.23 168.586,951.244 191.056,951.244 191.056,713.523 213.527,713.523 213.527,799.824 235.998,799.824 235.998,722.724 258.468,722.724 258.468,943.187 280.939,943.187 280.939,1112.07 303.41,1112.07 303.41,883.286 325.88,883.286 325.88,923.463 348.351,923.463 348.351,1047 370.822,1047 370.822,950.767 393.292,950.767 393.292,918.467 415.763,918.467 415.763,972.244 438.234,972.244 438.234,1041.87 460.704,1041.87 460.704,908.974 483.175,908.974 483.175,850.202 505.646,850.202 505.646,1136.96 528.116,1136.96 528.116,950.826 550.587,950.826 550.587,726.421 573.057,726.421 573.057,804.927 595.528,804.927 595.528,722.059 617.999,722.059 617.999,945.001 640.469,945.001 640.469,1115.1 662.94,1115.1 662.94,859.815 685.411,859.815 685.411,932.509 707.881,932.509 707.881,1032.19 730.352,1032.19 730.352,961.887 752.823,961.887 752.823,933.46 775.293,933.46 775.293,977.525 797.764,977.525 797.764,1047.31 820.235,1047.31 820.235,933.964 842.705,933.964 842.705,857.475 865.176,857.475 865.176,1114.47 887.647,1114.47 887.647,944.54 910.117,944.54 910.117,721.562 932.588,721.562 932.588,792.058 955.059,792.058 955.059,739.244 977.529,739.244 977.529,940.976 1000,940.976 1000,1089.77 1022.47,1089.77 1022.47,873.84 1044.94,873.84 1044.94,913.922 1067.41,913.922 1067.41,1031.22 1089.88,1031.22 1089.88,932.889 1112.35,932.889 1112.35,916.23 1134.82,916.23 1134.82,948.554 1157.29,948.554 1157.29,1032.61 1179.77,1032.61 1179.77,924.535 1202.24,924.535 1202.24,866.17 1224.71,866.17 1224.71,1107.23 1247.18,1107.23 1247.18,920.34 1269.65,920.34 1269.65,717.04 1292.12,717.04 1292.12,782.85 1314.59,782.85 1314.59,714.687 1337.06,714.687 1337.06,935.847 1359.53,935.847 1359.53,1114.41 1382,1114.41 1382,883.215 1404.47,883.215 1404.47,940.681 1426.94,940.681 1426.94,1034.71 1449.41,1034.71 1449.41,915.108 1471.88,915.108 1471.88,935.615 1494.35,935.615 1494.35,924.658 1516.83,924.658 1516.83,1043.66 1539.3,1043.66 1539.3,904.92 1561.77,904.92 1561.77,886.059 1584.24,886.059 1584.24,1097.35 1606.71,1097.35 1606.71,926.407 1629.18,926.407 1629.18,703.64 1651.65,703.64 1651.65,789.584 1674.12,789.584 1674.12,737.954 1696.59,737.954 1696.59,968.033 1719.06,968.033 1719.06,1107 1741.53,1107 1741.53,866.112 1764,866.112 1764,932.875 1786.47,932.875 1786.47,1010.31 1808.94,1010.31 1808.94,933.4 1831.41,933.4 1831.41,922.415 1853.89,922.415 1853.89,919.998 1876.36,919.998 1876.36,1009.22 1898.83,1009.22 1898.83,912.548 "/>
<path clip-path="url(#clip810)" d="M2047.24 1152.76 L3952.76 1152.76 L3952.76 690.208 L2047.24 690.208  Z" fill="#21252b" fill-rule="evenodd" fill-opacity="1"/>
<defs>
  <clipPath id="clip814">
    <rect x="2047" y="690" width="1907" height="464"/>
  </clipPath>
</defs>
<polyline clip-path="url(#clip810)" style="stroke:#adb2b7; stroke-linecap:round; stroke-linejoin:round; stroke-width:4; stroke-opacity:1; fill:none" points="2047.24,1152.76 3952.76,1152.76 "/>
<polyline clip-path="url(#clip810)" style="stroke:#adb2b7; stroke-linecap:round; stroke-linejoin:round; stroke-width:4; stroke-opacity:1; fill:none" points="2047.24,1152.76 2047.24,690.208 "/>
<path clip-path="url(#clip810)" d="M2817.63 672.576 L2794.54 612.096 L2803.09 612.096 L2822.25 663.016 L2841.45 612.096 L2849.95 612.096 L2826.9 672.576 L2817.63 672.576 Z" fill="#adb2b7" fill-rule="nonzero" fill-opacity="1" /><path clip-path="url(#clip810)" d="M2890.83 648.028 L2890.83 651.673 L2856.56 651.673 Q2857.04 659.37 2861.18 663.421 Q2865.35 667.431 2872.76 667.431 Q2877.06 667.431 2881.07 666.378 Q2885.12 665.325 2889.09 663.218 L2889.09 670.267 Q2885.08 671.968 2880.86 672.86 Q2876.65 673.751 2872.32 673.751 Q2861.46 673.751 2855.1 667.431 Q2848.78 661.112 2848.78 650.337 Q2848.78 639.197 2854.78 632.675 Q2860.81 626.112 2871.02 626.112 Q2880.17 626.112 2885.48 632.026 Q2890.83 637.9 2890.83 648.028 M2883.37 645.84 Q2883.29 639.723 2879.93 636.077 Q2876.61 632.432 2871.1 632.432 Q2864.86 632.432 2861.09 635.956 Q2857.37 639.48 2856.8 645.881 L2883.37 645.84 Z" fill="#adb2b7" fill-rule="nonzero" fill-opacity="1" /><path clip-path="url(#clip810)" d="M2940.78 645.192 L2940.78 672.576 L2933.32 672.576 L2933.32 645.435 Q2933.32 638.994 2930.81 635.794 Q2928.3 632.594 2923.28 632.594 Q2917.24 632.594 2913.76 636.442 Q2910.27 640.29 2910.27 646.934 L2910.27 672.576 L2902.78 672.576 L2902.78 627.206 L2910.27 627.206 L2910.27 634.254 Q2912.95 630.163 2916.55 628.138 Q2920.2 626.112 2924.94 626.112 Q2932.75 626.112 2936.77 630.973 Q2940.78 635.794 2940.78 645.192 Z" fill="#adb2b7" fill-rule="nonzero" fill-opacity="1" /><path clip-path="url(#clip810)" d="M2963.02 614.324 L2963.02 627.206 L2978.37 627.206 L2978.37 632.999 L2963.02 632.999 L2963.02 657.628 Q2963.02 663.178 2964.51 664.758 Q2966.05 666.338 2970.71 666.338 L2978.37 666.338 L2978.37 672.576 L2970.71 672.576 Q2962.08 672.576 2958.8 669.376 Q2955.52 666.135 2955.52 657.628 L2955.52 632.999 L2950.05 632.999 L2950.05 627.206 L2955.52 627.206 L2955.52 614.324 L2963.02 614.324 Z" fill="#adb2b7" fill-rule="nonzero" fill-opacity="1" /><path clip-path="url(#clip810)" d="M3008.79 649.769 Q2999.76 649.769 2996.27 651.835 Q2992.79 653.901 2992.79 658.884 Q2992.79 662.854 2995.38 665.203 Q2998.02 667.512 3002.51 667.512 Q3008.71 667.512 3012.44 663.137 Q3016.2 658.722 3016.2 651.43 L3016.2 649.769 L3008.79 649.769 M3023.66 646.691 L3023.66 672.576 L3016.2 672.576 L3016.2 665.689 Q3013.65 669.821 3009.84 671.806 Q3006.04 673.751 3000.53 673.751 Q2993.56 673.751 2989.43 669.862 Q2985.34 665.933 2985.34 659.37 Q2985.34 651.714 2990.44 647.825 Q2995.58 643.936 3005.75 643.936 L3016.2 643.936 L3016.2 643.207 Q3016.2 638.062 3012.8 635.267 Q3009.44 632.432 3003.32 632.432 Q2999.43 632.432 2995.75 633.363 Q2992.06 634.295 2988.66 636.158 L2988.66 629.272 Q2992.75 627.692 2996.6 626.922 Q3000.45 626.112 3004.09 626.112 Q3013.94 626.112 3018.8 631.216 Q3023.66 636.32 3023.66 646.691 Z" fill="#adb2b7" fill-rule="nonzero" fill-opacity="1" /><path clip-path="url(#clip810)" d="M3076.72 645.192 L3076.72 672.576 L3069.27 672.576 L3069.27 645.435 Q3069.27 638.994 3066.76 635.794 Q3064.25 632.594 3059.22 632.594 Q3053.19 632.594 3049.7 636.442 Q3046.22 640.29 3046.22 646.934 L3046.22 672.576 L3038.73 672.576 L3038.73 627.206 L3046.22 627.206 L3046.22 634.254 Q3048.89 630.163 3052.5 628.138 Q3056.15 626.112 3060.89 626.112 Q3068.7 626.112 3072.71 630.973 Q3076.72 635.794 3076.72 645.192 Z" fill="#adb2b7" fill-rule="nonzero" fill-opacity="1" /><path clip-path="url(#clip810)" d="M3112.21 649.769 Q3103.18 649.769 3099.69 651.835 Q3096.21 653.901 3096.21 658.884 Q3096.21 662.854 3098.8 665.203 Q3101.43 667.512 3105.93 667.512 Q3112.13 667.512 3115.86 663.137 Q3119.62 658.722 3119.62 651.43 L3119.62 649.769 L3112.21 649.769 M3127.08 646.691 L3127.08 672.576 L3119.62 672.576 L3119.62 665.689 Q3117.07 669.821 3113.26 671.806 Q3109.46 673.751 3103.95 673.751 Q3096.98 673.751 3092.85 669.862 Q3088.76 665.933 3088.76 659.37 Q3088.76 651.714 3093.86 647.825 Q3099 643.936 3109.17 643.936 L3119.62 643.936 L3119.62 643.207 Q3119.62 638.062 3116.22 635.267 Q3112.86 632.432 3106.74 632.432 Q3102.85 632.432 3099.17 633.363 Q3095.48 634.295 3092.08 636.158 L3092.08 629.272 Q3096.17 627.692 3100.02 626.922 Q3103.87 626.112 3107.51 626.112 Q3117.35 626.112 3122.22 631.216 Q3127.08 636.32 3127.08 646.691 Z" fill="#adb2b7" fill-rule="nonzero" fill-opacity="1" /><path clip-path="url(#clip810)" d="M3176.9 665.689 L3205.46 665.689 L3205.46 672.576 L3167.06 672.576 L3167.06 665.689 Q3171.72 660.869 3179.74 652.767 Q3187.8 644.625 3189.87 642.275 Q3193.8 637.86 3195.33 634.822 Q3196.91 631.743 3196.91 628.786 Q3196.91 623.965 3193.51 620.927 Q3190.15 617.889 3184.72 617.889 Q3180.87 617.889 3176.58 619.226 Q3172.33 620.562 3167.46 623.276 L3167.46 615.013 Q3172.41 613.028 3176.7 612.015 Q3180.99 611.002 3184.56 611.002 Q3193.96 611.002 3199.55 615.701 Q3205.14 620.4 3205.14 628.259 Q3205.14 631.986 3203.72 635.348 Q3202.34 638.67 3198.66 643.207 Q3197.64 644.382 3192.22 650.012 Q3186.79 655.603 3176.9 665.689 Z" fill="#adb2b7" fill-rule="nonzero" fill-opacity="1" /><polyline clip-path="url(#clip814)" style="stroke:#a1c9f4; stroke-linecap:round; stroke-linejoin:round; stroke-width:4; stroke-opacity:1; fill:none" points="2101.17,912.548 2123.64,912.548 2123.64,874.249 2146.11,874.249 2146.11,1092.39 2168.59,1092.39 2168.59,942.383 2191.06,942.383 2191.06,704.025 2213.53,704.025 2213.53,810.899 2236,810.899 2236,711.01 2258.47,711.01 2258.47,942.658 2280.94,942.658 2280.94,1113.48 2303.41,1113.48 2303.41,882.74 2325.88,882.74 2325.88,932.682 2348.35,932.682 2348.35,1040.49 2370.82,1040.49 2370.82,940.208 2393.29,940.208 2393.29,933.127 2415.76,933.127 2415.76,946.32 2438.23,946.32 2438.23,1040.6 2460.7,1040.6 2460.7,960.807 2483.17,960.807 2483.17,851.809 2505.65,851.809 2505.65,1081.71 2528.12,1081.71 2528.12,956.337 2550.59,956.337 2550.59,727.329 2573.06,727.329 2573.06,799.224 2595.53,799.224 2595.53,726.359 2618,726.359 2618,930.074 2640.47,930.074 2640.47,1105.39 2662.94,1105.39 2662.94,870.848 2685.41,870.848 2685.41,924.654 2707.88,924.654 2707.88,1049 2730.35,1049 2730.35,924.389 2752.82,924.389 2752.82,938.131 2775.29,938.131 2775.29,957.312 2797.76,957.312 2797.76,1041.52 2820.23,1041.52 2820.23,919.214 2842.71,919.214 2842.71,883.094 2865.18,883.094 2865.18,1141.91 2887.65,1141.91 2887.65,922.013 2910.12,922.013 2910.12,745.558 2932.59,745.558 2932.59,791.149 2955.06,791.149 2955.06,711.202 2977.53,711.202 2977.53,952.799 3000,952.799 3000,1106.4 3022.47,1106.4 3022.47,879.139 3044.94,879.139 3044.94,884.28 3067.41,884.28 3067.41,1045.71 3089.88,1045.71 3089.88,946.036 3112.35,946.036 3112.35,934.068 3134.82,934.068 3134.82,932.649 3157.29,932.649 3157.29,1009.95 3179.77,1009.95 3179.77,916.405 3202.24,916.405 3202.24,851.076 3224.71,851.076 3224.71,1133.24 3247.18,1133.24 3247.18,961.431 3269.65,961.431 3269.65,690.208 3292.12,690.208 3292.12,777.375 3314.59,777.375 3314.59,719.657 3337.06,719.657 3337.06,950.304 3359.53,950.304 3359.53,1118.96 3382,1118.96 3382,866.694 3404.47,866.694 3404.47,915.192 3426.94,915.192 3426.94,1007.35 3449.41,1007.35 3449.41,942.145 3471.88,942.145 3471.88,919.367 3494.35,919.367 3494.35,964.402 3516.83,964.402 3516.83,1040.11 3539.3,1040.11 3539.3,895.559 3561.77,895.559 3561.77,865.042 3584.24,865.042 3584.24,1098.06 3606.71,1098.06 3606.71,944.957 3629.18,944.957 3629.18,738.022 3651.65,738.022 3651.65,807.4 3674.12,807.4 3674.12,742.439 3696.59,742.439 3696.59,949.531 3719.06,949.531 3719.06,1109.29 3741.53,1109.29 3741.53,859.157 3764,859.157 3764,898.05 3786.47,898.05 3786.47,1037.43 3808.94,1037.43 3808.94,921.625 3831.41,921.625 3831.41,932.423 3853.89,932.423 3853.89,928.1 3876.36,928.1 3876.36,1048.64 3898.83,1048.64 3898.83,919.439 "/>
</svg>
