<?xml version="1.0" encoding="utf-8" standalone="no"?>
<!DOCTYPE svg PUBLIC "-//W3C//DTD SVG 1.1//EN"
  "http://www.w3.org/Graphics/SVG/1.1/DTD/svg11.dtd">
<svg xmlns:xlink="http://www.w3.org/1999/xlink" width="576pt" height="259.2pt" viewBox="0 0 576 259.2" xmlns="http://www.w3.org/2000/svg" version="1.1">
 <metadata>
  <rdf:RDF xmlns:dc="http://purl.org/dc/elements/1.1/" xmlns:cc="http://creativecommons.org/ns#" xmlns:rdf="http://www.w3.org/1999/02/22-rdf-syntax-ns#">
   <cc:Work>
    <dc:type rdf:resource="http://purl.org/dc/dcmitype/StillImage"/>
    <dc:date>2023-09-09T20:24:26.755024</dc:date>
    <dc:format>image/svg+xml</dc:format>
    <dc:creator>
     <cc:Agent>
      <dc:title>Matplotlib v3.7.1, https://matplotlib.org/</dc:title>
     </cc:Agent>
    </dc:creator>
   </cc:Work>
  </rdf:RDF>
 </metadata>
 <defs>
  <style type="text/css">*{stroke-linejoin: round; stroke-linecap: butt}</style>
 </defs>
 <g id="figure_1">
  <g id="patch_1">
   <path d="M 0 259.2 
L 576 259.2 
L 576 0 
L 0 0 
z
" style="fill: #1b3041"/>
  </g>
  <g id="axes_1">
   <g id="patch_2">
    <path d="M 20.730646 94.285354 
L 573.165354 94.285354 
L 573.165354 18.914646 
L 20.730646 18.914646 
z
" style="fill: #21252b"/>
   </g>
   <g id="matplotlib.axis_1"/>
   <g id="matplotlib.axis_2">
    <g id="text_1">
     <!-- $y$ -->
     <g style="fill: #9eb1be" transform="translate(14.200646 59.735) rotate(-90) scale(0.11 -0.11)">
      <defs>
       <path id="DejaVuSerif-Italic-79" d="M 3681 3294 
Q 3372 1506 2828 563 
Q 2031 -822 1391 -1238 
Q 1106 -1422 356 -1422 
Q 209 -1422 60 -1397 
Q -88 -1372 -238 -1325 
L -113 -691 
L 181 -691 
Q 175 -741 175 -788 
Q 175 -919 231 -994 
Q 309 -1100 513 -1100 
Q 1063 -1100 1541 -622 
L 756 2988 
L 378 2988 
L 444 3322 
L 1303 3322 
L 2041 25 
Q 2544 778 2666 1088 
Q 3059 2059 3138 2959 
L 2759 2959 
L 2825 3294 
L 3681 3294 
z
" transform="scale(0.015625)"/>
      </defs>
      <use xlink:href="#DejaVuSerif-Italic-79" transform="translate(0 0.09375)"/>
     </g>
    </g>
   </g>
   <g id="line2d_1">
    <path d="M 21.79302 53.147327 
L 22.855395 53.147327 
L 22.855395 55.970446 
L 23.917769 55.970446 
L 23.917769 63.53793 
L 24.980143 63.53793 
L 24.980143 60.673784 
L 26.042518 60.673784 
L 26.042518 52.843274 
L 27.104892 52.843274 
L 27.104892 55.159532 
L 28.167267 55.159532 
L 28.167267 56.005131 
L 29.229641 56.005131 
L 29.229641 59.164501 
L 30.292016 59.164501 
L 30.292016 56.299803 
L 31.35439 56.299803 
L 31.35439 57.283858 
L 32.416765 57.283858 
L 32.416765 55.318184 
L 33.479139 55.318184 
L 33.479139 54.970094 
L 34.541513 54.970094 
L 34.541513 59.776076 
L 35.603888 59.776076 
L 35.603888 56.683683 
L 36.666262 56.683683 
L 36.666262 53.762079 
L 37.728637 53.762079 
L 37.728637 57.403521 
L 38.791011 57.403521 
L 38.791011 55.556502 
L 39.853386 55.556502 
L 39.853386 55.967749 
L 40.91576 55.967749 
L 40.91576 54.949358 
L 41.978134 54.949358 
L 41.978134 56.370429 
L 43.040509 56.370429 
L 43.040509 54.977843 
L 44.102883 54.977843 
L 44.102883 55.598584 
L 45.165258 55.598584 
L 45.165258 58.139433 
L 46.227632 58.139433 
L 46.227632 58.627017 
L 47.290007 58.627017 
L 47.290007 53.034889 
L 48.352381 53.034889 
L 48.352381 55.510796 
L 49.414756 55.510796 
L 49.414756 55.375998 
L 50.47713 55.375998 
L 50.47713 54.039706 
L 51.539504 54.039706 
L 51.539504 57.943582 
L 52.601879 57.943582 
L 52.601879 60.098933 
L 53.664253 60.098933 
L 53.664253 56.983196 
L 54.726628 56.983196 
L 54.726628 60.433258 
L 55.789002 60.433258 
L 55.789002 59.173259 
L 56.851377 59.173259 
L 56.851377 52.814023 
L 57.913751 52.814023 
L 57.913751 58.700393 
L 58.976125 58.700393 
L 58.976125 59.623313 
L 60.0385 59.623313 
L 60.0385 57.730783 
L 62.163249 57.65631 
L 62.163249 55.06691 
L 64.287998 55.02644 
L 64.287998 51.400697 
L 65.350372 51.400697 
L 65.350372 54.121811 
L 66.412747 54.121811 
L 66.412747 56.11487 
L 67.475121 56.11487 
L 67.475121 62.749743 
L 68.537495 62.749743 
L 68.537495 54.913014 
L 69.59987 54.913014 
L 69.59987 55.085843 
L 70.662244 55.085843 
L 70.662244 53.943771 
L 71.724619 53.943771 
L 71.724619 55.411608 
L 72.786993 55.411608 
L 72.786993 56.017481 
L 73.849368 56.017481 
L 73.849368 55.007062 
L 74.911742 55.007062 
L 74.911742 59.40537 
L 75.974117 59.40537 
L 75.974117 57.897365 
L 77.036491 57.897365 
L 77.036491 57.008418 
L 78.098865 57.008418 
L 78.098865 56.393583 
L 79.16124 56.393583 
L 79.16124 54.765592 
L 80.223614 54.765592 
L 80.223614 54.949143 
L 81.285989 54.949143 
L 81.285989 56.905307 
L 82.348363 56.905307 
L 82.348363 57.511207 
L 83.410738 57.511207 
L 83.410738 55.019179 
L 84.473112 55.019179 
L 84.473112 57.616642 
L 85.535486 57.616642 
L 85.535486 59.151288 
L 86.597861 59.151288 
L 86.597861 54.029469 
L 87.660235 54.029469 
L 87.660235 56.64928 
L 88.72261 56.64928 
L 88.72261 61.318861 
L 89.784984 61.318861 
L 89.784984 60.065412 
L 90.847359 60.065412 
L 90.847359 55.895622 
L 91.909733 55.895622 
L 91.909733 54.930142 
L 92.972108 54.930142 
L 92.972108 55.94109 
L 94.034482 55.94109 
L 94.034482 53.722134 
L 95.096856 53.722134 
L 95.096856 52.465404 
L 96.159231 52.465404 
L 96.159231 54.060774 
L 97.221605 54.060774 
L 97.221605 56.867563 
L 98.28398 56.867563 
L 98.28398 54.514854 
L 99.346354 54.514854 
L 99.346354 55.365583 
L 100.408729 55.365583 
L 100.408729 54.763229 
L 101.471103 54.763229 
L 101.471103 55.782019 
L 102.533478 55.782019 
L 102.533478 58.179477 
L 103.595852 58.179477 
L 103.595852 60.386006 
L 104.658226 60.386006 
L 104.658226 57.062838 
L 105.720601 57.062838 
L 105.720601 58.72274 
L 106.782975 58.72274 
L 106.782975 58.866612 
L 107.84535 58.866612 
L 107.84535 53.178618 
L 108.907724 53.178618 
L 108.907724 56.4642 
L 109.970099 56.4642 
L 109.970099 56.784265 
L 111.032473 56.784265 
L 111.032473 57.184456 
L 112.094847 57.184456 
L 112.094847 53.564988 
L 113.157222 53.564988 
L 113.157222 56.24855 
L 114.219596 56.24855 
L 114.219596 52.435071 
L 115.281971 52.435071 
L 115.281971 60.570059 
L 116.344345 60.570059 
L 116.344345 56.466838 
L 117.40672 56.466838 
L 117.40672 54.728828 
L 118.469094 54.728828 
L 118.469094 57.954451 
L 119.531469 57.954451 
L 119.531469 54.679499 
L 120.593843 54.679499 
L 120.593843 52.992017 
L 121.656217 52.992017 
L 121.656217 55.762263 
L 122.718592 55.762263 
L 122.718592 57.378991 
L 123.780966 57.378991 
L 123.780966 53.252032 
L 124.843341 53.252032 
L 124.843341 56.797365 
L 125.905715 56.797365 
L 125.905715 55.511286 
L 128.030464 55.590791 
L 128.030464 56.944822 
L 129.092839 56.944822 
L 129.092839 56.283484 
L 130.155213 56.283484 
L 130.155213 54.290625 
L 131.217587 54.290625 
L 131.217587 56.034298 
L 132.279962 56.034298 
L 132.279962 58.806809 
L 133.342336 58.806809 
L 133.342336 54.336319 
L 134.404711 54.336319 
L 134.404711 56.753547 
L 135.467085 56.753547 
L 135.467085 51.706546 
L 136.52946 51.706546 
L 136.52946 57.173322 
L 138.654208 57.261275 
L 138.654208 51.905835 
L 139.716583 51.905835 
L 139.716583 57.407051 
L 140.778957 57.407051 
L 140.778957 54.510513 
L 141.841332 54.510513 
L 141.841332 57.353474 
L 142.903706 57.353474 
L 142.903706 56.830563 
L 143.966081 56.830563 
L 143.966081 53.318545 
L 145.028455 53.318545 
L 145.028455 53.661652 
L 146.09083 53.661652 
L 146.09083 56.486496 
L 147.153204 56.486496 
L 147.153204 56.883851 
L 148.215578 56.883851 
L 148.215578 59.748613 
L 149.277953 59.748613 
L 149.277953 54.860175 
L 150.340327 54.860175 
L 150.340327 58.063173 
L 151.402702 58.063173 
L 151.402702 55.347013 
L 152.465076 55.347013 
L 152.465076 55.201747 
L 153.527451 55.201747 
L 153.527451 57.458595 
L 154.589825 57.458595 
L 154.589825 54.673082 
L 156.714574 54.719026 
L 156.714574 53.767825 
L 157.776948 53.767825 
L 157.776948 57.725947 
L 158.839323 57.725947 
L 158.839323 56.315659 
L 159.901697 56.315659 
L 159.901697 59.030069 
L 160.964072 59.030069 
L 160.964072 54.412039 
L 162.026446 54.412039 
L 162.026446 53.99793 
L 163.088821 53.99793 
L 163.088821 53.011439 
L 164.151195 53.011439 
L 164.151195 56.236165 
L 165.213569 56.236165 
L 165.213569 57.295352 
L 166.275944 57.295352 
L 166.275944 54.121229 
L 167.338318 54.121229 
L 167.338318 53.669487 
L 168.400693 53.669487 
L 168.400693 57.262219 
L 169.463067 57.262219 
L 169.463067 55.782716 
L 170.525442 55.782716 
L 170.525442 46.413171 
L 171.587816 46.413171 
L 171.587816 87.753052 
L 172.650191 87.753052 
L 172.650191 59.22042 
L 173.712565 59.22042 
L 173.712565 26.859801 
L 174.774939 26.859801 
L 174.774939 35.796786 
L 175.837314 35.796786 
L 175.837314 27.280759 
L 176.899688 27.280759 
L 176.899688 57.977545 
L 177.962063 57.977545 
L 177.962063 87.343927 
L 179.024437 87.343927 
L 179.024437 45.714449 
L 180.086812 45.714449 
L 180.086812 57.246659 
L 181.149186 57.246659 
L 181.149186 74.039014 
L 182.211561 74.039014 
L 182.211561 62.498142 
L 183.273935 62.498142 
L 183.273935 56.605586 
L 184.336309 56.605586 
L 184.336309 58.674243 
L 185.398684 58.674243 
L 185.398684 69.236431 
L 186.461058 69.236431 
L 186.461058 54.038714 
L 187.523433 54.038714 
L 187.523433 45.410542 
L 188.585807 45.410542 
L 188.585807 85.282487 
L 189.648182 85.282487 
L 189.648182 62.423296 
L 190.710556 62.423296 
L 190.710556 23.557188 
L 191.77293 23.557188 
L 191.77293 33.735018 
L 192.835305 33.735018 
L 192.835305 28.523325 
L 193.897679 28.523325 
L 193.897679 55.996599 
L 194.960054 55.996599 
L 194.960054 86.628802 
L 196.022428 86.628802 
L 196.022428 52.036273 
L 197.084803 52.036273 
L 197.084803 53.476926 
L 198.147177 53.476926 
L 198.147177 69.684708 
L 199.209552 69.684708 
L 199.209552 62.608274 
L 200.271926 62.608274 
L 200.271926 59.422861 
L 201.3343 59.422861 
L 201.3343 65.914202 
L 202.396675 65.914202 
L 202.396675 73.490026 
L 203.459049 73.490026 
L 203.459049 52.643995 
L 204.521424 52.643995 
L 204.521424 47.878448 
L 205.583798 47.878448 
L 205.583798 85.931552 
L 206.646173 85.931552 
L 206.646173 56.938376 
L 207.708547 56.938376 
L 207.708547 26.28912 
L 208.770922 26.28912 
L 208.770922 40.001012 
L 209.833296 40.001012 
L 209.833296 24.540717 
L 210.89567 24.540717 
L 210.89567 55.686983 
L 211.958045 55.686983 
L 211.958045 84.128255 
L 213.020419 84.128255 
L 213.020419 46.95663 
L 214.082794 46.95663 
L 214.082794 48.848901 
L 215.145168 48.848901 
L 215.145168 70.264202 
L 216.207543 70.264202 
L 216.207543 64.041635 
L 217.269917 64.041635 
L 217.269917 62.870778 
L 218.332291 62.870778 
L 218.332291 67.949929 
L 219.394666 67.949929 
L 219.394666 70.880161 
L 220.45704 70.880161 
L 220.45704 51.073403 
L 221.519415 51.073403 
L 221.519415 50.099583 
L 222.581789 50.099583 
L 222.581789 82.823389 
L 223.644164 82.823389 
L 223.644164 56.399323 
L 224.706538 56.399323 
L 224.706538 26.97254 
L 225.768913 26.97254 
L 225.768913 41.75516 
L 226.831287 41.75516 
L 226.831287 24.656842 
L 227.893661 24.656842 
L 227.893661 50.052602 
L 228.956036 50.052602 
L 228.956036 80.522569 
L 230.01841 80.522569 
L 230.01841 48.776859 
L 231.080785 48.776859 
L 231.080785 46.677542 
L 232.143159 46.677542 
L 232.143159 76.675425 
L 233.205534 76.675425 
L 233.205534 65.681686 
L 234.267908 65.681686 
L 234.267908 60.148352 
L 235.330282 60.148352 
L 235.330282 68.735045 
L 236.392657 68.735045 
L 236.392657 72.315471 
L 237.455031 72.315471 
L 237.455031 47.927548 
L 238.517406 47.927548 
L 238.517406 47.771169 
L 239.57978 47.771169 
L 239.57978 85.248319 
L 240.642155 85.248319 
L 240.642155 53.861442 
L 241.704529 53.861442 
L 241.704529 25.102374 
L 242.766904 25.102374 
L 242.766904 39.468128 
L 243.829278 39.468128 
L 243.829278 23.993632 
L 244.891652 23.993632 
L 244.891652 53.018645 
L 245.954027 53.018645 
L 245.954027 85.09448 
L 247.016401 85.09448 
L 247.016401 51.809087 
L 248.078776 51.809087 
L 248.078776 47.986695 
L 249.14115 47.986695 
L 249.14115 73.76495 
L 250.203525 73.76495 
L 250.203525 69.397759 
L 251.265899 69.397759 
L 251.265899 63.895818 
L 252.328274 63.895818 
L 252.328274 69.36854 
L 253.390648 69.36854 
L 253.390648 71.024014 
L 254.453022 71.024014 
L 254.453022 45.010977 
L 255.515397 45.010977 
L 255.515397 48.378532 
L 256.577771 48.378532 
L 256.577771 78.177635 
L 257.640146 78.177635 
L 257.640146 54.787511 
L 258.70252 54.787511 
L 258.70252 28.564253 
L 259.764895 28.564253 
L 259.764895 38.17995 
L 260.827269 38.17995 
L 260.827269 26.515827 
L 261.889643 26.515827 
L 261.889643 53.136921 
L 262.952018 53.136921 
L 262.952018 82.966506 
L 264.014392 82.966506 
L 264.014392 54.198395 
L 265.076767 54.198395 
L 265.076767 43.977943 
L 266.139141 43.977943 
L 266.139141 69.477373 
L 267.201516 69.477373 
L 267.201516 75.593461 
L 268.26389 75.593461 
L 268.26389 60.234997 
L 269.326265 60.234997 
L 269.326265 73.16916 
L 270.388639 73.16916 
L 270.388639 69.273261 
L 271.451013 69.273261 
L 271.451013 43.428349 
L 272.513388 43.428349 
L 272.513388 49.649837 
L 273.575762 49.649837 
L 273.575762 84.674049 
L 274.638137 84.674049 
L 274.638137 55.199422 
L 275.700511 55.199422 
L 275.700511 24.974631 
L 276.762886 24.974631 
L 276.762886 39.633777 
L 277.82526 39.633777 
L 277.82526 27.119748 
L 278.887635 27.119748 
L 278.887635 54.531079 
L 279.950009 54.531079 
L 279.950009 80.641586 
L 281.012383 80.641586 
L 281.012383 49.617382 
L 282.074758 49.617382 
L 282.074758 43.282228 
L 283.137132 43.282228 
L 283.137132 68.309237 
L 284.199507 68.309237 
L 284.199507 76.402255 
L 285.261881 76.402255 
L 285.261881 66.382307 
L 286.324256 66.382307 
L 286.324256 75.546096 
L 287.38663 75.546096 
L 287.38663 68.2493 
L 288.449004 68.2493 
L 288.449004 39.741073 
L 289.511379 39.741073 
L 289.511379 54.087984 
L 290.573753 54.087984 
L 290.573753 79.232487 
L 291.636128 79.232487 
L 291.636128 51.243312 
L 292.698502 51.243312 
L 292.698502 33.498681 
L 293.760877 33.498681 
L 293.760877 38.446645 
L 294.823251 38.446645 
L 294.823251 29.719357 
L 295.885626 29.719357 
L 295.885626 46.196208 
L 296.948 46.196208 
L 296.948 79.353832 
L 298.010374 79.353832 
L 298.010374 51.771617 
L 299.072749 51.771617 
L 299.072749 39.337889 
L 300.135123 39.337889 
L 300.135123 68.407263 
L 301.197498 68.407263 
L 301.197498 75.385773 
L 302.259872 75.385773 
L 302.259872 69.758251 
L 303.322247 69.758251 
L 303.322247 76.830667 
L 304.384621 76.830667 
L 304.384621 69.171344 
L 305.446996 69.171344 
L 305.446996 38.163705 
L 306.50937 38.163705 
L 306.50937 55.138407 
L 307.571744 55.138407 
L 307.571744 78.919623 
L 308.634119 78.919623 
L 308.634119 49.307668 
L 309.696493 49.307668 
L 309.696493 31.872206 
L 310.758868 31.872206 
L 310.758868 40.935282 
L 311.821242 40.935282 
L 311.821242 31.704194 
L 312.883617 31.704194 
L 312.883617 47.289198 
L 313.945991 47.289198 
L 313.945991 80.527432 
L 315.008365 80.527432 
L 315.008365 52.861355 
L 316.07074 52.861355 
L 316.07074 36.2411 
L 317.133114 36.2411 
L 317.133114 65.711725 
L 318.195489 65.711725 
L 318.195489 79.464599 
L 319.257863 79.464599 
L 319.257863 71.111682 
L 320.320238 71.111682 
L 320.320238 76.378465 
L 321.382612 76.378465 
L 321.382612 70.005454 
L 322.444987 70.005454 
L 322.444987 34.92398 
L 323.507361 34.92398 
L 323.507361 57.255757 
L 324.569735 57.255757 
L 324.569735 74.873509 
L 325.63211 74.873509 
L 325.63211 46.797489 
L 326.694484 46.797489 
L 326.694484 33.07206 
L 327.756859 33.07206 
L 327.756859 44.261061 
L 328.819233 44.261061 
L 328.819233 32.083997 
L 329.881608 32.083997 
L 329.881608 46.765339 
L 330.943982 46.765339 
L 330.943982 79.097635 
L 332.006357 79.097635 
L 332.006357 51.506172 
L 333.068731 51.506172 
L 333.068731 35.501517 
L 334.131105 35.501517 
L 334.131105 68.003015 
L 335.19348 68.003015 
L 335.19348 83.393382 
L 336.255854 83.393382 
L 336.255854 70.85122 
L 337.318229 70.85122 
L 337.318229 77.337622 
L 338.380603 77.337622 
L 338.380603 67.903558 
L 339.442978 67.903558 
L 339.442978 35.350247 
L 340.505352 35.350247 
L 340.505352 78.815434 
L 341.567726 78.815434 
L 341.567726 40.857495 
L 342.630101 40.857495 
L 342.630101 29.349877 
L 343.692475 29.349877 
L 343.692475 51.140186 
L 344.75485 51.140186 
L 344.75485 47.849388 
L 345.817224 47.849388 
L 345.817224 58.337106 
L 346.879599 58.337106 
L 346.879599 74.840684 
L 347.941973 74.840684 
L 347.941973 78.434908 
L 349.004348 78.434908 
L 349.004348 85.011254 
L 350.066722 85.011254 
L 350.066722 67.771069 
L 351.129096 67.771069 
L 351.129096 51.390648 
L 352.191471 51.390648 
L 352.191471 45.416646 
L 353.253845 45.416646 
L 353.253845 34.003731 
L 354.31622 34.003731 
L 354.31622 64.877244 
L 355.378594 64.877244 
L 355.378594 60.236752 
L 356.440969 60.236752 
L 356.440969 36.342655 
L 357.503343 36.342655 
L 357.503343 58.745644 
L 358.565718 58.745644 
L 358.565718 41.618587 
L 359.628092 41.618587 
L 359.628092 30.636143 
L 360.690466 30.636143 
L 360.690466 55.101286 
L 361.752841 55.101286 
L 361.752841 62.356519 
L 362.815215 62.356519 
L 362.815215 82.226143 
L 363.87759 82.226143 
L 363.87759 79.595816 
L 364.939964 79.595816 
L 364.939964 47.070984 
L 366.002339 47.070984 
L 366.002339 47.805412 
L 367.064713 47.805412 
L 367.064713 78.843006 
L 368.127087 78.843006 
L 368.127087 77.587846 
L 369.189462 77.587846 
L 369.189462 65.779682 
L 370.251836 65.779682 
L 370.251836 50.360471 
L 371.314211 50.360471 
L 371.314211 29.245528 
L 372.376585 29.245528 
L 372.376585 70.621156 
L 373.43896 70.621156 
L 373.43896 78.568645 
L 374.501334 78.568645 
L 374.501334 36.712503 
L 375.563709 36.712503 
L 375.563709 33.80452 
L 376.626083 33.80452 
L 376.626083 35.53347 
L 377.688457 35.53347 
L 377.688457 56.780461 
L 378.750832 56.780461 
L 378.750832 61.17325 
L 379.813206 61.17325 
L 379.813206 33.041247 
L 380.875581 33.041247 
L 380.875581 61.597655 
L 381.937955 61.597655 
L 381.937955 41.071211 
L 383.00033 41.071211 
L 383.00033 42.825469 
L 384.062704 42.825469 
L 384.062704 48.461057 
L 385.125078 48.461057 
L 385.125078 38.634053 
L 386.187453 38.634053 
L 386.187453 63.857501 
L 387.249827 63.857501 
L 387.249827 44.880578 
L 388.312202 44.880578 
L 388.312202 44.641684 
L 389.374576 44.641684 
L 389.374576 88.188093 
L 390.436951 88.188093 
L 390.436951 42.52645 
L 392.5617 42.430918 
L 392.5617 69.433852 
L 393.624074 69.433852 
L 393.624074 68.45347 
L 394.686448 68.45347 
L 394.686448 84.331378 
L 395.748823 84.331378 
L 395.748823 65.720341 
L 396.811197 65.720341 
L 396.811197 53.996132 
L 397.873572 53.996132 
L 397.873572 77.885774 
L 398.935946 77.885774 
L 398.935946 58.542699 
L 399.998321 58.542699 
L 399.998321 31.789569 
L 401.060695 31.789569 
L 401.060695 66.737533 
L 402.12307 66.737533 
L 402.12307 66.329533 
L 403.185444 66.329533 
L 403.185444 40.225317 
L 404.247818 40.225317 
L 404.247818 66.911077 
L 405.310193 66.911077 
L 405.310193 86.605867 
L 406.372567 86.605867 
L 406.372567 67.177853 
L 407.434942 67.177853 
L 407.434942 74.031372 
L 408.497316 74.031372 
L 408.497316 69.381843 
L 409.559691 69.381843 
L 409.559691 35.194795 
L 410.622065 35.194795 
L 410.622065 26.948371 
L 411.684439 26.948371 
L 411.684439 40.636879 
L 412.746814 40.636879 
L 412.746814 42.748085 
L 413.809188 42.748085 
L 413.809188 65.540573 
L 414.871563 65.540573 
L 414.871563 72.893855 
L 415.933937 72.893855 
L 415.933937 69.739647 
L 416.996312 69.739647 
L 416.996312 91.596517 
L 418.058686 91.596517 
L 418.058686 64.525234 
L 419.121061 64.525234 
L 419.121061 40.766263 
L 420.183435 40.766263 
L 420.183435 46.396337 
L 421.245809 46.396337 
L 421.245809 32.812961 
L 422.308184 32.812961 
L 422.308184 51.190427 
L 423.370558 51.190427 
L 423.370558 57.164016 
L 424.432933 57.164016 
L 424.432933 33.704345 
L 425.495307 33.704345 
L 425.495307 64.015712 
L 426.557682 64.015712 
L 426.557682 49.888658 
L 427.620056 49.888658 
L 427.620056 21.047779 
L 428.682431 21.047779 
L 428.682431 51.73641 
L 429.744805 51.73641 
L 429.744805 67.7483 
L 430.807179 67.7483 
L 430.807179 80.251324 
L 431.869554 80.251324 
L 431.869554 78.554489 
L 432.931928 78.554489 
L 432.931928 52.899393 
L 433.994303 52.899393 
L 433.994303 53.232906 
L 435.056677 53.232906 
L 435.056677 83.899277 
L 436.119052 83.899277 
L 436.119052 74.29808 
L 437.181426 74.29808 
L 437.181426 71.186896 
L 438.2438 71.186896 
L 438.2438 48.323141 
L 439.306175 48.323141 
L 439.306175 31.576386 
L 440.368549 31.576386 
L 440.368549 76.24111 
L 441.430924 76.24111 
L 441.430924 82.75905 
L 442.493298 82.75905 
L 442.493298 49.85214 
L 443.555673 49.85214 
L 443.555673 31.573744 
L 444.618047 31.573744 
L 444.618047 32.564733 
L 445.680422 32.564733 
L 445.680422 70.601556 
L 446.742796 70.601556 
L 446.742796 59.205664 
L 447.80517 59.205664 
L 447.80517 34.032016 
L 448.867545 34.032016 
L 448.867545 51.71625 
L 449.929919 51.71625 
L 449.929919 36.847804 
L 450.992294 36.847804 
L 450.992294 48.080244 
L 452.054668 48.080244 
L 452.054668 55.76884 
L 453.117043 55.76884 
L 453.117043 29.410228 
L 454.179417 29.410228 
L 454.179417 56.037437 
L 455.241792 56.037437 
L 455.241792 40.135963 
L 456.304166 40.135963 
L 456.304166 50.753624 
L 457.36654 50.753624 
L 457.36654 92.152221 
L 458.428915 92.152221 
L 458.428915 51.114504 
L 459.491289 51.114504 
L 459.491289 40.563372 
L 460.553664 40.563372 
L 460.553664 75.494594 
L 461.616038 75.494594 
L 461.616038 66.350536 
L 462.678413 66.350536 
L 462.678413 77.292037 
L 463.740787 77.292037 
L 463.740787 70.911952 
L 464.803161 70.911952 
L 464.803161 55.898461 
L 465.865536 55.898461 
L 465.865536 77.675699 
L 466.92791 77.675699 
L 466.92791 55.374806 
L 467.990285 55.374806 
L 467.990285 24.646853 
L 469.052659 24.646853 
L 469.052659 58.701373 
L 470.115034 58.701373 
L 470.115034 58.023711 
L 471.177408 58.023711 
L 471.177408 40.794218 
L 472.239783 40.794218 
L 472.239783 70.233812 
L 473.302157 70.233812 
L 473.302157 85.508951 
L 474.364531 85.508951 
L 474.364531 78.434505 
L 475.426906 78.434505 
L 475.426906 80.804997 
L 476.48928 80.804997 
L 476.48928 64.02995 
L 477.551655 64.02995 
L 477.551655 36.138762 
L 478.614029 36.138762 
L 478.614029 33.300246 
L 479.676404 33.300246 
L 479.676404 33.869054 
L 480.738778 33.869054 
L 480.738778 45.296864 
L 481.801153 45.296864 
L 481.801153 75.114464 
L 482.863527 75.114464 
L 482.863527 60.940179 
L 483.925901 60.940179 
L 483.925901 60.778286 
L 484.988276 60.778286 
L 484.988276 88.719366 
L 486.05065 88.719366 
L 486.05065 61.409783 
L 487.113025 61.409783 
L 487.113025 41.235413 
L 488.175399 41.235413 
L 488.175399 51.975202 
L 489.237774 51.975202 
L 489.237774 31.769643 
L 490.300148 31.769643 
L 490.300148 44.757836 
L 491.362522 44.757836 
L 491.362522 46.320386 
L 492.424897 46.320386 
L 492.424897 32.865315 
L 493.487271 32.865315 
L 493.487271 67.45113 
L 494.549646 67.45113 
L 494.549646 58.259172 
L 495.61202 58.259172 
L 495.61202 21.499403 
L 496.674395 21.499403 
L 496.674395 57.896885 
L 497.736769 57.896885 
L 497.736769 71.811373 
L 498.799144 71.811373 
L 498.799144 67.640265 
L 499.861518 67.640265 
L 499.861518 81.673488 
L 500.923892 81.673488 
L 500.923892 54.820715 
L 501.986267 54.820715 
L 501.986267 63.808738 
L 503.048641 63.808738 
L 503.048641 79.521194 
L 504.111016 79.521194 
L 504.111016 67.333361 
L 505.17339 67.333361 
L 505.17339 73.952916 
L 506.235765 73.952916 
L 506.235765 52.820431 
L 507.298139 52.820431 
L 507.298139 40.992339 
L 508.360514 40.992339 
L 508.360514 81.243229 
L 509.422888 81.243229 
L 509.422888 82.401137 
L 510.485262 82.401137 
L 510.485262 55.347994 
L 511.547637 55.347994 
L 511.547637 57.625529 
L 512.610011 57.625529 
L 512.610011 59.216181 
L 513.672386 59.216181 
L 513.672386 55.094321 
L 514.73476 55.094321 
L 514.73476 54.965269 
L 515.797135 54.965269 
L 515.797135 58.372139 
L 516.859509 58.372139 
L 516.859509 55.697791 
L 517.921883 55.697791 
L 517.921883 58.919347 
L 518.984258 58.919347 
L 518.984258 55.264568 
L 520.046632 55.264568 
L 520.046632 57.625978 
L 521.109007 57.625978 
L 521.109007 59.813367 
L 522.171381 59.813367 
L 522.171381 56.455192 
L 523.233756 56.455192 
L 523.233756 54.722863 
L 524.29613 54.722863 
L 524.29613 59.253947 
L 525.358505 59.253947 
L 525.358505 55.069528 
L 526.420879 55.069528 
L 526.420879 56.548021 
L 527.483253 56.548021 
L 527.483253 56.796553 
L 528.545628 56.796553 
L 528.545628 57.258173 
L 529.608002 57.258173 
L 529.608002 58.255318 
L 530.670377 58.255318 
L 530.670377 56.186071 
L 531.732751 56.186071 
L 531.732751 57.105542 
L 532.795126 57.105542 
L 532.795126 57.907867 
L 533.8575 57.907867 
L 533.8575 56.901895 
L 534.919875 56.901895 
L 534.919875 56.420796 
L 535.982249 56.420796 
L 535.982249 57.181259 
L 537.044623 57.181259 
L 537.044623 59.873092 
L 538.106998 59.873092 
L 538.106998 58.562762 
L 539.169372 58.562762 
L 539.169372 55.570581 
L 540.231747 55.570581 
L 540.231747 54.4665 
L 541.294121 54.4665 
L 541.294121 59.006591 
L 542.356496 59.006591 
L 542.356496 57.190656 
L 543.41887 57.190656 
L 543.41887 56.873828 
L 544.481244 56.873828 
L 544.481244 57.219054 
L 545.543619 57.219054 
L 545.543619 60.01446 
L 546.605993 60.01446 
L 546.605993 60.561874 
L 547.668368 60.561874 
L 547.668368 58.688729 
L 548.730742 58.688729 
L 548.730742 58.189979 
L 549.793117 58.189979 
L 549.793117 57.210471 
L 550.855491 57.210471 
L 550.855491 58.71243 
L 551.917866 58.71243 
L 551.917866 54.059678 
L 552.98024 54.059678 
L 552.98024 64.085103 
L 554.042614 64.085103 
L 554.042614 57.615076 
L 555.104989 57.615076 
L 555.104989 55.988827 
L 556.167363 55.988827 
L 556.167363 58.640539 
L 557.229738 58.640539 
L 557.229738 57.239469 
L 558.292112 57.239469 
L 558.292112 59.2917 
L 559.354487 59.2917 
L 559.354487 59.407776 
L 560.416861 59.407776 
L 560.416861 56.004746 
L 561.479235 56.004746 
L 561.479235 57.186727 
L 562.54161 57.186727 
L 562.54161 61.432195 
L 563.603984 61.432195 
L 563.603984 56.449826 
L 564.666359 56.449826 
L 564.666359 56.680615 
L 565.728733 56.680615 
L 565.728733 55.839991 
L 566.791108 55.839991 
L 566.791108 57.176011 
L 567.853482 57.176011 
L 567.853482 57.663761 
L 568.915857 57.663761 
L 568.915857 54.989004 
L 569.978231 54.989004 
L 569.978231 56.880337 
L 571.040605 56.880337 
L 571.040605 53.582738 
L 572.10298 53.582738 
L 572.10298 55.071899 
L 574.227729 54.985085 
L 574.227729 59.507392 
L 575.290103 59.507392 
L 575.290103 53.756672 
L 576.352478 53.756672 
L 576.352478 59.627566 
L 577 59.627566 
L 577 59.627566 
" clip-path="url(#pf1ad16d7fe)" style="fill: none; stroke: #a1c9f4"/>
   </g>
   <g id="line2d_2">
    <path d="M 169.463067 92.152221 
L 169.463067 21.047779 
" clip-path="url(#pf1ad16d7fe)" style="fill: none; stroke-dasharray: 3.7,1.6; stroke-dashoffset: 0; stroke: #c0c0c0"/>
   </g>
   <g id="patch_3">
    <path d="M 20.730646 94.285354 
L 20.730646 18.914646 
" style="fill: none; stroke: #adb2b7; stroke-linejoin: miter; stroke-linecap: square"/>
   </g>
   <g id="patch_4">
    <path d="M 20.730646 94.285354 
L 573.165354 94.285354 
" style="fill: none; stroke: #adb2b7; stroke-linejoin: miter; stroke-linecap: square"/>
   </g>
   <g id="line2d_3">
    <path d="M 339.442978 92.152221 
L 339.442978 21.047779 
" clip-path="url(#pf1ad16d7fe)" style="fill: none; stroke-dasharray: 3.7,1.6; stroke-dashoffset: 0; stroke: #c0c0c0"/>
   </g>
   <g id="text_2">
    <!-- canal I -->
    <g style="fill: #adb2b7" transform="translate(272.943469 12.914646) scale(0.14 -0.14)">
     <defs>
      <path id="DejaVuSerif-63" d="M 3291 997 
Q 3169 466 2822 187 
Q 2475 -91 1925 -91 
Q 1200 -91 759 389 
Q 319 869 319 1663 
Q 319 2459 759 2936 
Q 1200 3413 1925 3413 
Q 2241 3413 2553 3339 
Q 2866 3266 3181 3116 
L 3181 2266 
L 2847 2266 
Q 2781 2703 2561 2903 
Q 2341 3103 1931 3103 
Q 1466 3103 1228 2742 
Q 991 2381 991 1663 
Q 991 944 1227 581 
Q 1463 219 1931 219 
Q 2303 219 2525 412 
Q 2747 606 2828 997 
L 3291 997 
z
" transform="scale(0.015625)"/>
      <path id="DejaVuSerif-61" d="M 2547 1044 
L 2547 1747 
L 1806 1747 
Q 1378 1747 1168 1562 
Q 959 1378 959 997 
Q 959 650 1171 447 
Q 1384 244 1747 244 
Q 2106 244 2326 466 
Q 2547 688 2547 1044 
z
M 3122 2075 
L 3122 331 
L 3634 331 
L 3634 0 
L 2547 0 
L 2547 359 
Q 2356 128 2106 18 
Q 1856 -91 1522 -91 
Q 969 -91 644 203 
Q 319 497 319 997 
Q 319 1513 691 1797 
Q 1063 2081 1741 2081 
L 2547 2081 
L 2547 2309 
Q 2547 2688 2317 2895 
Q 2088 3103 1672 3103 
Q 1328 3103 1125 2947 
Q 922 2791 872 2484 
L 575 2484 
L 575 3156 
Q 875 3284 1158 3348 
Q 1441 3413 1709 3413 
Q 2400 3413 2761 3070 
Q 3122 2728 3122 2075 
z
" transform="scale(0.015625)"/>
      <path id="DejaVuSerif-6e" d="M 263 0 
L 263 331 
L 781 331 
L 781 2988 
L 231 2988 
L 231 3322 
L 1356 3322 
L 1356 2731 
Q 1516 3069 1770 3241 
Q 2025 3413 2363 3413 
Q 2913 3413 3172 3097 
Q 3431 2781 3431 2113 
L 3431 331 
L 3944 331 
L 3944 0 
L 2356 0 
L 2356 331 
L 2853 331 
L 2853 1931 
Q 2853 2541 2703 2767 
Q 2553 2994 2175 2994 
Q 1775 2994 1565 2701 
Q 1356 2409 1356 1850 
L 1356 331 
L 1856 331 
L 1856 0 
L 263 0 
z
" transform="scale(0.015625)"/>
      <path id="DejaVuSerif-6c" d="M 1313 331 
L 1856 331 
L 1856 0 
L 184 0 
L 184 331 
L 738 331 
L 738 4531 
L 184 4531 
L 184 4863 
L 1313 4863 
L 1313 331 
z
" transform="scale(0.015625)"/>
      <path id="DejaVuSerif-20" transform="scale(0.015625)"/>
      <path id="DejaVuSerif-49" d="M 1581 331 
L 2175 331 
L 2175 0 
L 353 0 
L 353 331 
L 947 331 
L 947 4331 
L 353 4331 
L 353 4666 
L 2175 4666 
L 2175 4331 
L 1581 4331 
L 1581 331 
z
" transform="scale(0.015625)"/>
     </defs>
     <use xlink:href="#DejaVuSerif-63"/>
     <use xlink:href="#DejaVuSerif-61" x="56.005859"/>
     <use xlink:href="#DejaVuSerif-6e" x="115.625"/>
     <use xlink:href="#DejaVuSerif-61" x="180.029297"/>
     <use xlink:href="#DejaVuSerif-6c" x="239.648438"/>
     <use xlink:href="#DejaVuSerif-20" x="271.630859"/>
     <use xlink:href="#DejaVuSerif-49" x="303.417969"/>
    </g>
   </g>
  </g>
  <g id="axes_2">
   <g id="patch_5">
    <path d="M 20.730646 175.325354 
L 573.165354 175.325354 
L 573.165354 99.954646 
L 20.730646 99.954646 
z
" style="fill: #21252b"/>
   </g>
   <g id="matplotlib.axis_3"/>
   <g id="matplotlib.axis_4">
    <g id="text_3">
     <!-- $|R_{y_1,x_2}|$ -->
     <g style="fill: #9eb1be" transform="translate(13.210646 155.57) rotate(-90) scale(0.11 -0.11)">
      <defs>
       <path id="DejaVuSerif-7c" d="M 1331 4891 
L 1331 -1509 
L 825 -1509 
L 825 4891 
L 1331 4891 
z
" transform="scale(0.015625)"/>
       <path id="DejaVuSerif-Italic-52" d="M 3066 2316 
Q 3272 2256 3403 2114 
Q 3534 1972 3609 1716 
L 4016 331 
L 4584 331 
L 4522 0 
L 3422 0 
L 2981 1484 
Q 2856 1916 2706 2042 
Q 2556 2169 2250 2169 
L 1553 2169 
L 1194 331 
L 1853 331 
L 1791 0 
L -97 0 
L -34 331 
L 559 331 
L 1338 4331 
L 744 4331 
L 809 4666 
L 3175 4666 
Q 3856 4666 4164 4341 
Q 4472 4016 4356 3419 
Q 4263 2938 3938 2661 
Q 3613 2384 3066 2316 
z
M 1619 2503 
L 2541 2503 
Q 3013 2503 3280 2726 
Q 3547 2950 3639 3419 
Q 3731 3888 3548 4109 
Q 3366 4331 2894 4331 
L 1972 4331 
L 1619 2503 
z
" transform="scale(0.015625)"/>
       <path id="DejaVuSerif-31" d="M 909 0 
L 909 331 
L 1722 331 
L 1722 4213 
L 781 3603 
L 781 4013 
L 1919 4750 
L 2350 4750 
L 2350 331 
L 3163 331 
L 3163 0 
L 909 0 
z
" transform="scale(0.015625)"/>
       <path id="DejaVuSerif-2c" d="M 231 -622 
Q 525 -406 662 -114 
Q 800 178 800 594 
L 800 709 
L 1416 709 
Q 1391 175 1164 -208 
Q 938 -591 481 -872 
L 231 -622 
z
" transform="scale(0.015625)"/>
       <path id="DejaVuSerif-Italic-78" d="M 409 0 
L 19 0 
L 1484 1594 
L 747 2988 
L 338 2988 
L 400 3322 
L 1244 3322 
L 1934 2028 
L 3125 3322 
L 3516 3322 
L 2078 1759 
L 2838 331 
L 3272 331 
L 3209 0 
L 2338 0 
L 1631 1325 
L 409 0 
z
" transform="scale(0.015625)"/>
       <path id="DejaVuSerif-32" d="M 819 3553 
L 469 3553 
L 469 4384 
Q 803 4563 1142 4656 
Q 1481 4750 1806 4750 
Q 2534 4750 2956 4397 
Q 3378 4044 3378 3438 
Q 3378 2753 2422 1800 
Q 2347 1728 2309 1691 
L 1131 513 
L 3078 513 
L 3078 1088 
L 3444 1088 
L 3444 0 
L 434 0 
L 434 341 
L 1850 1753 
Q 2319 2222 2519 2614 
Q 2719 3006 2719 3438 
Q 2719 3909 2473 4175 
Q 2228 4441 1797 4441 
Q 1350 4441 1106 4219 
Q 863 3997 819 3553 
z
" transform="scale(0.015625)"/>
      </defs>
      <use xlink:href="#DejaVuSerif-7c" transform="translate(0 0.578125)"/>
      <use xlink:href="#DejaVuSerif-Italic-52" transform="translate(33.691406 0.578125)"/>
      <use xlink:href="#DejaVuSerif-Italic-79" transform="translate(108.984375 -14.99375) scale(0.7)"/>
      <use xlink:href="#DejaVuSerif-31" transform="translate(148.530273 -25.894062) scale(0.49)"/>
      <use xlink:href="#DejaVuSerif-2c" transform="translate(181.522285 -14.99375) scale(0.7)"/>
      <use xlink:href="#DejaVuSerif-Italic-78" transform="translate(217.048652 -14.99375) scale(0.7)"/>
      <use xlink:href="#DejaVuSerif-32" transform="translate(256.526191 -25.894062) scale(0.49)"/>
      <use xlink:href="#DejaVuSerif-7c" transform="translate(292.113516 0.578125)"/>
     </g>
    </g>
   </g>
   <g id="line2d_4">
    <path d="M 21.79302 174.365046 
L 22.855395 174.365046 
L 22.855395 174.509201 
L 35.603888 174.476772 
L 35.603888 174.337287 
L 45.165258 174.271191 
L 45.165258 174.217531 
L 48.352381 174.124858 
L 48.352381 174.106271 
L 53.664253 174.076123 
L 53.664253 173.992475 
L 80.223614 174.000981 
L 80.223614 173.872061 
L 82.348363 173.858115 
L 82.348363 173.690197 
L 85.535486 173.682873 
L 85.535486 173.990993 
L 86.597861 173.990993 
L 86.597861 175.003375 
L 88.72261 174.974584 
L 88.72261 173.802275 
L 89.784984 173.802275 
L 89.784984 173.100418 
L 90.847359 173.100418 
L 90.847359 171.845482 
L 91.909733 171.845482 
L 91.909733 171.550027 
L 92.972108 171.550027 
L 92.972108 170.462032 
L 94.034482 170.462032 
L 94.034482 170.1199 
L 95.096856 170.1199 
L 95.096856 169.103068 
L 96.159231 169.103068 
L 96.159231 168.608826 
L 97.221605 168.608826 
L 97.221605 167.123017 
L 98.28398 167.123017 
L 98.28398 166.419658 
L 99.346354 166.419658 
L 99.346354 165.219308 
L 100.408729 165.219308 
L 100.408729 165.012626 
L 101.471103 165.012626 
L 101.471103 163.754982 
L 102.533478 163.754982 
L 102.533478 163.391852 
L 103.595852 163.391852 
L 103.595852 162.250278 
L 104.658226 162.250278 
L 104.658226 162.054887 
L 105.720601 162.054887 
L 105.720601 160.626435 
L 106.782975 160.626435 
L 106.782975 159.943014 
L 107.84535 159.943014 
L 107.84535 158.778726 
L 108.907724 158.778726 
L 108.907724 158.533114 
L 109.970099 158.533114 
L 109.970099 157.571526 
L 111.032473 157.571526 
L 111.032473 157.379362 
L 112.094847 157.379362 
L 112.094847 156.178692 
L 113.157222 156.178692 
L 113.157222 155.902867 
L 114.219596 155.902867 
L 114.219596 154.692767 
L 115.281971 154.692767 
L 115.281971 154.295602 
L 116.344345 154.295602 
L 116.344345 152.988907 
L 117.40672 152.988907 
L 117.40672 152.581512 
L 118.469094 152.581512 
L 118.469094 151.369717 
L 119.531469 151.369717 
L 119.531469 151.104061 
L 120.593843 151.104061 
L 120.593843 150.098762 
L 121.656217 150.098762 
L 121.656217 149.581317 
L 122.718592 149.581317 
L 122.718592 148.544656 
L 123.780966 148.544656 
L 123.780966 148.010645 
L 124.843341 148.010645 
L 124.843341 146.805389 
L 125.905715 146.805389 
L 125.905715 146.45168 
L 126.96809 146.45168 
L 126.96809 145.454739 
L 128.030464 145.454739 
L 128.030464 145.185006 
L 129.092839 145.185006 
L 129.092839 144.299094 
L 130.155213 144.299094 
L 130.155213 143.932328 
L 131.217587 143.932328 
L 131.217587 142.644394 
L 132.279962 142.644394 
L 132.279962 142.052639 
L 133.342336 142.052639 
L 133.342336 140.870806 
L 134.404711 140.870806 
L 134.404711 140.438198 
L 135.467085 140.438198 
L 135.467085 139.196649 
L 136.52946 139.196649 
L 136.52946 138.85725 
L 137.591834 138.85725 
L 137.591834 137.889409 
L 138.654208 137.889409 
L 138.654208 137.501711 
L 139.716583 137.501711 
L 139.716583 136.322618 
L 140.778957 136.322618 
L 140.778957 135.846923 
L 141.841332 135.846923 
L 141.841332 134.743853 
L 142.903706 134.743853 
L 142.903706 134.437652 
L 143.966081 134.437652 
L 143.966081 133.524779 
L 145.028455 133.524779 
L 145.028455 133.1268 
L 146.09083 133.1268 
L 146.09083 132.105334 
L 147.153204 132.105334 
L 147.153204 131.623977 
L 148.215578 131.623977 
L 148.215578 130.518447 
L 149.277953 130.518447 
L 149.277953 130.152985 
L 150.340327 130.152985 
L 150.340327 129.088961 
L 151.402702 129.088961 
L 151.402702 128.711372 
L 152.465076 128.711372 
L 152.465076 127.688776 
L 153.527451 127.688776 
L 153.527451 127.278905 
L 154.589825 127.278905 
L 154.589825 126.180774 
L 155.6522 126.180774 
L 155.6522 125.717618 
L 156.714574 125.717618 
L 156.714574 124.449163 
L 157.776948 124.449163 
L 157.776948 124.086354 
L 158.839323 124.086354 
L 158.839323 122.788684 
L 159.901697 122.788684 
L 159.901697 122.492652 
L 160.964072 122.492652 
L 160.964072 121.338594 
L 162.026446 121.338594 
L 162.026446 121.017131 
L 163.088821 121.017131 
L 163.088821 120.053722 
L 164.151195 120.053722 
L 164.151195 119.627022 
L 165.213569 119.627022 
L 165.213569 118.360429 
L 166.275944 118.360429 
L 166.275944 117.794124 
L 167.338318 117.794124 
L 167.338318 116.775435 
L 168.400693 116.775435 
L 168.400693 116.123341 
L 169.463067 116.123341 
L 169.463067 115.028787 
L 170.525442 115.028787 
L 170.525442 115.555259 
L 171.587816 115.555259 
L 171.587816 115.88682 
L 172.650191 115.88682 
L 172.650191 116.482539 
L 173.712565 116.482539 
L 173.712565 117.444849 
L 174.774939 117.444849 
L 174.774939 118.681556 
L 176.899688 118.722682 
L 176.899688 119.801843 
L 177.962063 119.801843 
L 177.962063 119.070254 
L 179.024437 119.070254 
L 179.024437 119.689283 
L 180.086812 119.689283 
L 180.086812 120.175496 
L 181.149186 120.175496 
L 181.149186 120.74121 
L 182.211561 120.74121 
L 182.211561 121.270729 
L 183.273935 121.270729 
L 183.273935 123.083845 
L 184.336309 123.083845 
L 184.336309 124.087105 
L 185.398684 124.087105 
L 185.398684 124.991656 
L 186.461058 124.991656 
L 186.461058 124.443612 
L 187.523433 124.443612 
L 187.523433 125.368143 
L 188.585807 125.368143 
L 188.585807 126.622706 
L 189.648182 126.622706 
L 189.648182 127.11541 
L 191.77293 127.016798 
L 191.77293 128.293696 
L 192.835305 128.293696 
L 192.835305 130.122589 
L 193.897679 130.122589 
L 193.897679 131.622944 
L 194.960054 131.622944 
L 194.960054 132.431708 
L 196.022428 132.431708 
L 196.022428 133.110245 
L 197.084803 133.110245 
L 197.084803 134.097694 
L 198.147177 134.097694 
L 198.147177 134.856044 
L 199.209552 134.856044 
L 199.209552 134.381751 
L 200.271926 134.381751 
L 200.271926 135.668802 
L 201.3343 135.668802 
L 201.3343 136.872082 
L 202.396675 136.872082 
L 202.396675 138.312561 
L 203.459049 138.312561 
L 203.459049 139.492785 
L 204.521424 139.492785 
L 204.521424 140.259795 
L 205.583798 140.259795 
L 205.583798 140.52052 
L 206.646173 140.52052 
L 206.646173 141.074361 
L 207.708547 141.074361 
L 207.708547 140.702606 
L 208.770922 140.702606 
L 208.770922 141.628364 
L 210.89567 141.53204 
L 210.89567 142.5894 
L 213.020419 142.600654 
L 213.020419 143.436041 
L 214.082794 143.436041 
L 214.082794 143.572847 
L 215.145168 143.572847 
L 215.145168 144.339463 
L 216.207543 144.339463 
L 216.207543 144.952651 
L 217.269917 144.952651 
L 217.269917 146.506179 
L 218.332291 146.506179 
L 218.332291 147.404989 
L 219.394666 147.404989 
L 219.394666 148.576735 
L 220.45704 148.576735 
L 220.45704 148.779408 
L 221.519415 148.779408 
L 221.519415 150.067781 
L 222.581789 150.067781 
L 222.581789 150.661546 
L 223.644164 150.661546 
L 223.644164 151.750157 
L 224.706538 151.750157 
L 224.706538 153.259425 
L 225.768913 153.259425 
L 225.768913 153.833724 
L 227.893661 153.780105 
L 227.893661 155.234986 
L 228.956036 155.234986 
L 228.956036 154.925523 
L 230.01841 154.925523 
L 230.01841 156.379665 
L 231.080785 156.379665 
L 231.080785 156.779103 
L 232.143159 156.779103 
L 232.143159 157.331022 
L 233.205534 157.331022 
L 233.205534 158.28792 
L 234.267908 158.28792 
L 234.267908 159.111774 
L 235.330282 159.111774 
L 235.330282 158.659095 
L 236.392657 158.659095 
L 236.392657 160.300249 
L 237.455031 160.300249 
L 237.455031 161.438938 
L 238.517406 161.438938 
L 238.517406 162.813481 
L 239.57978 162.813481 
L 239.57978 163.066131 
L 240.642155 163.066131 
L 240.642155 163.594642 
L 241.704529 163.594642 
L 241.704529 164.777894 
L 242.766904 164.777894 
L 242.766904 166.172684 
L 243.829278 166.172684 
L 243.829278 166.032252 
L 244.891652 166.032252 
L 244.891652 167.36659 
L 245.954027 167.36659 
L 245.954027 166.65399 
L 247.016401 166.65399 
L 247.016401 167.638495 
L 248.078776 167.638495 
L 248.078776 168.062898 
L 249.14115 168.062898 
L 249.14115 168.941452 
L 250.203525 168.941452 
L 250.203525 169.672437 
L 251.265899 169.672437 
L 251.265899 171.424846 
L 252.328274 171.424846 
L 252.328274 172.157535 
L 253.390648 172.157535 
L 253.390648 172.763465 
L 254.453022 172.763465 
L 254.453022 172.284946 
L 255.515397 172.284946 
L 255.515397 173.867983 
L 256.577771 173.867983 
L 256.577771 173.286685 
L 257.640146 173.286685 
L 257.640146 172.700153 
L 258.70252 172.700153 
L 258.70252 173.362509 
L 259.764895 173.362509 
L 259.764895 173.115966 
L 260.827269 173.115966 
L 260.827269 172.568614 
L 261.889643 172.568614 
L 261.889643 173.852122 
L 262.952018 173.852122 
L 262.952018 174.021317 
L 264.014392 174.021317 
L 264.014392 175.125054 
L 265.076767 175.125054 
L 265.076767 174.579532 
L 266.139141 174.579532 
L 266.139141 174.154079 
L 268.26389 174.209574 
L 268.26389 174.888375 
L 269.326265 174.888375 
L 269.326265 174.022655 
L 270.388639 174.022655 
L 270.388639 174.814464 
L 272.513388 174.713847 
L 272.513388 174.001492 
L 273.575762 174.001492 
L 273.575762 173.129992 
L 274.638137 173.129992 
L 274.638137 173.99707 
L 276.762886 173.936574 
L 276.762886 173.609307 
L 277.82526 173.609307 
L 277.82526 173.849482 
L 278.887635 173.849482 
L 278.887635 174.646901 
L 279.950009 174.646901 
L 279.950009 174.328024 
L 281.012383 174.328024 
L 281.012383 173.412963 
L 282.074758 173.412963 
L 282.074758 173.629222 
L 283.137132 173.629222 
L 283.137132 173.484611 
L 284.199507 173.484611 
L 284.199507 174.133303 
L 286.324256 174.087435 
L 286.324256 173.422304 
L 287.38663 173.422304 
L 287.38663 171.480361 
L 288.449004 171.480361 
L 288.449004 171.736292 
L 289.511379 171.736292 
L 289.511379 170.870789 
L 290.573753 170.870789 
L 290.573753 171.316345 
L 291.636128 171.316345 
L 291.636128 172.308089 
L 293.760877 172.411827 
L 293.760877 173.212572 
L 294.823251 173.212572 
L 294.823251 172.870215 
L 295.885626 172.870215 
L 295.885626 173.078316 
L 296.948 173.078316 
L 296.948 172.949753 
L 298.010374 172.949753 
L 298.010374 174.498673 
L 299.072749 174.498673 
L 299.072749 174.621977 
L 300.135123 174.621977 
L 300.135123 174.886921 
L 301.197498 174.886921 
L 301.197498 174.73682 
L 302.259872 174.73682 
L 302.259872 173.997328 
L 303.322247 173.997328 
L 303.322247 174.367446 
L 304.384621 174.367446 
L 304.384621 174.004533 
L 305.446996 174.004533 
L 305.446996 174.675294 
L 306.50937 174.675294 
L 306.50937 174.383764 
L 307.571744 174.383764 
L 307.571744 174.225017 
L 308.634119 174.225017 
L 308.634119 174.538702 
L 309.696493 174.538702 
L 309.696493 173.946501 
L 310.758868 173.946501 
L 310.758868 174.504105 
L 311.821242 174.504105 
L 311.821242 174.762803 
L 312.883617 174.762803 
L 312.883617 174.574099 
L 313.945991 174.574099 
L 313.945991 174.014927 
L 315.008365 174.014927 
L 315.008365 174.618032 
L 316.07074 174.618032 
L 316.07074 175.104887 
L 317.133114 175.104887 
L 317.133114 173.700674 
L 319.257863 173.634498 
L 319.257863 173.318773 
L 320.320238 173.318773 
L 320.320238 172.065606 
L 321.382612 172.065606 
L 321.382612 172.888755 
L 322.444987 172.888755 
L 322.444987 172.559166 
L 323.507361 172.559166 
L 323.507361 173.074947 
L 325.63211 173.007437 
L 325.63211 174.208055 
L 326.694484 174.208055 
L 326.694484 174.922182 
L 327.756859 174.922182 
L 327.756859 173.717963 
L 328.819233 173.717963 
L 328.819233 172.52272 
L 329.881608 172.52272 
L 329.881608 174.163516 
L 330.943982 174.163516 
L 330.943982 173.360607 
L 333.068731 173.340467 
L 333.068731 173.694498 
L 336.255854 173.734501 
L 336.255854 174.314695 
L 337.318229 174.314695 
L 337.318229 173.639056 
L 338.380603 173.639056 
L 338.380603 174.58813 
L 339.442978 174.58813 
L 339.442978 173.52185 
L 340.505352 173.52185 
L 340.505352 172.737709 
L 341.567726 172.737709 
L 341.567726 173.202935 
L 343.692475 173.1721 
L 343.692475 172.138902 
L 344.75485 172.138902 
L 344.75485 172.510969 
L 345.817224 172.510969 
L 345.817224 172.885849 
L 346.879599 172.885849 
L 346.879599 173.122154 
L 349.004348 173.223143 
L 349.004348 173.60834 
L 350.066722 173.60834 
L 350.066722 173.310973 
L 351.129096 173.310973 
L 351.129096 173.01989 
L 352.191471 173.01989 
L 352.191471 172.206611 
L 353.253845 172.206611 
L 353.253845 172.341415 
L 354.31622 172.341415 
L 354.31622 172.080622 
L 355.378594 172.080622 
L 355.378594 172.864451 
L 356.440969 172.864451 
L 356.440969 173.033795 
L 357.503343 173.033795 
L 357.503343 173.718348 
L 358.565718 173.718348 
L 358.565718 173.050632 
L 359.628092 173.050632 
L 359.628092 172.443355 
L 360.690466 172.443355 
L 360.690466 172.159126 
L 361.752841 172.159126 
L 361.752841 171.78105 
L 362.815215 171.78105 
L 362.815215 171.667989 
L 363.87759 171.667989 
L 363.87759 172.661477 
L 364.939964 172.661477 
L 364.939964 173.037648 
L 367.064713 172.981151 
L 367.064713 172.442747 
L 369.189462 172.348091 
L 369.189462 172.825396 
L 370.251836 172.825396 
L 370.251836 173.293447 
L 372.376585 173.243659 
L 372.376585 172.595004 
L 373.43896 172.595004 
L 373.43896 171.567498 
L 374.501334 171.567498 
L 374.501334 171.901862 
L 375.563709 171.901862 
L 375.563709 171.488854 
L 376.626083 171.488854 
L 376.626083 172.265974 
L 377.688457 172.265974 
L 377.688457 172.549248 
L 378.750832 172.549248 
L 378.750832 172.828378 
L 379.813206 172.828378 
L 379.813206 172.589157 
L 380.875581 172.589157 
L 380.875581 172.098957 
L 381.937955 172.098957 
L 381.937955 172.276884 
L 383.00033 172.276884 
L 383.00033 171.726557 
L 384.062704 171.726557 
L 384.062704 171.519622 
L 385.125078 171.519622 
L 385.125078 172.001708 
L 386.187453 172.001708 
L 386.187453 171.746313 
L 387.249827 171.746313 
L 387.249827 172.379759 
L 388.312202 172.379759 
L 388.312202 172.706308 
L 389.374576 172.706308 
L 389.374576 173.271553 
L 390.436951 173.271553 
L 390.436951 172.146791 
L 391.499325 172.146791 
L 391.499325 172.44988 
L 392.5617 172.44988 
L 392.5617 172.679453 
L 393.624074 172.679453 
L 393.624074 173.002767 
L 394.686448 173.002767 
L 394.686448 173.33818 
L 395.748823 173.33818 
L 395.748823 173.509935 
L 396.811197 173.509935 
L 396.811197 173.9075 
L 397.873572 173.9075 
L 397.873572 173.556095 
L 398.935946 173.556095 
L 398.935946 172.984999 
L 399.998321 172.984999 
L 399.998321 172.47372 
L 401.060695 172.47372 
L 401.060695 173.704847 
L 402.12307 173.704847 
L 402.12307 173.321399 
L 403.185444 173.321399 
L 403.185444 172.829107 
L 404.247818 172.829107 
L 404.247818 172.36827 
L 405.310193 172.36827 
L 405.310193 172.751545 
L 406.372567 172.751545 
L 406.372567 172.02158 
L 407.434942 172.02158 
L 407.434942 172.682261 
L 408.497316 172.682261 
L 408.497316 173.267545 
L 409.559691 173.267545 
L 409.559691 174.069531 
L 410.622065 174.069531 
L 410.622065 173.761125 
L 411.684439 173.761125 
L 411.684439 173.12241 
L 412.746814 173.12241 
L 412.746814 173.411287 
L 413.809188 173.411287 
L 413.809188 173.719637 
L 414.871563 173.719637 
L 414.871563 173.460089 
L 415.933937 173.460089 
L 415.933937 174.142049 
L 416.996312 174.142049 
L 416.996312 174.500414 
L 419.121061 174.399519 
L 419.121061 174.024376 
L 420.183435 174.024376 
L 420.183435 173.438692 
L 421.245809 173.438692 
L 421.245809 173.669958 
L 422.308184 173.669958 
L 422.308184 173.542413 
L 423.370558 173.542413 
L 423.370558 174.309262 
L 424.432933 174.309262 
L 424.432933 174.444038 
L 425.495307 174.444038 
L 425.495307 175.021391 
L 437.181426 174.937098 
L 437.181426 174.832646 
L 442.493298 174.938085 
L 442.493298 174.970625 
L 444.618047 174.984583 
L 444.618047 175.11382 
L 455.241792 175.031605 
L 455.241792 174.994251 
L 462.678413 174.917403 
L 462.678413 174.841414 
L 473.302157 174.90202 
L 473.302157 174.955204 
L 475.426906 174.911798 
L 475.426906 175.079348 
L 480.738778 175.14661 
L 480.738778 175.194678 
L 490.300148 175.103958 
L 490.300148 174.98634 
L 493.487271 175.020357 
L 493.487271 175.125489 
L 499.861518 175.186245 
L 499.861518 175.251398 
L 577 175.325354 
L 577 175.325354 
" clip-path="url(#p8db045ca36)" style="fill: none; stroke: #a1c9f4"/>
   </g>
   <g id="line2d_5">
    <path d="M 169.463067 175.325354 
L 169.463067 99.954646 
" clip-path="url(#p8db045ca36)" style="fill: none; stroke-dasharray: 3.7,1.6; stroke-dashoffset: 0; stroke: #c0c0c0"/>
   </g>
   <g id="patch_6">
    <path d="M 20.730646 175.325354 
L 20.730646 99.954646 
" style="fill: none; stroke: #adb2b7; stroke-linejoin: miter; stroke-linecap: square"/>
   </g>
   <g id="patch_7">
    <path d="M 20.730646 175.325354 
L 573.165354 175.325354 
" style="fill: none; stroke: #adb2b7; stroke-linejoin: miter; stroke-linecap: square"/>
   </g>
  </g>
  <g id="axes_3">
   <g id="patch_8">
    <path d="M 20.730646 256.365354 
L 573.165354 256.365354 
L 573.165354 180.994646 
L 20.730646 180.994646 
z
" style="fill: #21252b"/>
   </g>
   <g id="matplotlib.axis_5"/>
   <g id="matplotlib.axis_6">
    <g id="text_4">
     <!-- $\phi\{R_{y_1,y_2}\}$ -->
     <g style="fill: #9eb1be" transform="translate(13.210646 243.65) rotate(-90) scale(0.11 -0.11)">
      <defs>
       <path id="DejaVuSerif-Italic-3d5" d="M 2169 234 
Q 2731 297 2975 584 
Q 3281 950 3420 1662 
Q 3559 2375 3394 2738 
Q 3263 3031 2722 3091 
L 2169 234 
z
M 1863 -1331 
L 1284 -1331 
L 1528 -81 
Q 706 -16 413 388 
Q 66 869 220 1662 
Q 375 2456 906 2934 
Q 1356 3338 2206 3403 
L 2491 4863 
L 3069 4863 
L 2784 3403 
Q 3606 3338 3900 2934 
Q 4247 2456 4092 1662 
Q 3938 869 3403 388 
Q 2953 -16 2106 -81 
L 1863 -1331 
z
M 1591 234 
L 2144 3091 
Q 1581 3031 1338 2738 
Q 1031 2375 892 1662 
Q 753 950 922 584 
Q 1050 297 1591 234 
z
" transform="scale(0.015625)"/>
       <path id="DejaVuSerif-7b" d="M 3272 -716 
L 3272 -1044 
L 3078 -1044 
Q 2300 -1044 2036 -812 
Q 1772 -581 1772 109 
L 1772 916 
Q 1772 1384 1603 1565 
Q 1434 1747 991 1747 
L 800 1747 
L 800 2075 
L 991 2075 
Q 1434 2075 1603 2256 
Q 1772 2438 1772 2906 
L 1772 3713 
Q 1772 4403 2036 4633 
Q 2300 4863 3078 4863 
L 3272 4863 
L 3272 4538 
L 3059 4538 
Q 2619 4538 2484 4400 
Q 2350 4263 2350 3822 
L 2350 2925 
Q 2350 2431 2194 2218 
Q 2038 2006 1631 1913 
Q 2044 1806 2197 1597 
Q 2350 1388 2350 897 
L 2350 0 
Q 2350 -441 2484 -578 
Q 2619 -716 3059 -716 
L 3272 -716 
z
" transform="scale(0.015625)"/>
       <path id="DejaVuSerif-7d" d="M 800 -716 
L 1019 -716 
Q 1456 -716 1589 -580 
Q 1722 -444 1722 0 
L 1722 897 
Q 1722 1388 1875 1597 
Q 2028 1806 2438 1913 
Q 2031 2006 1876 2218 
Q 1722 2431 1722 2925 
L 1722 3822 
Q 1722 4266 1589 4402 
Q 1456 4538 1019 4538 
L 800 4538 
L 800 4863 
L 997 4863 
Q 1775 4863 2036 4633 
Q 2297 4403 2297 3713 
L 2297 2906 
Q 2297 2438 2465 2256 
Q 2634 2075 3078 2075 
L 3272 2075 
L 3272 1747 
L 3078 1747 
Q 2634 1747 2465 1565 
Q 2297 1384 2297 916 
L 2297 109 
Q 2297 -581 2036 -812 
Q 1775 -1044 997 -1044 
L 800 -1044 
L 800 -716 
z
" transform="scale(0.015625)"/>
      </defs>
      <use xlink:href="#DejaVuSerif-Italic-3d5" transform="translate(0 0.015625)"/>
      <use xlink:href="#DejaVuSerif-7b" transform="translate(68.164062 0.015625)"/>
      <use xlink:href="#DejaVuSerif-Italic-52" transform="translate(131.787109 0.015625)"/>
      <use xlink:href="#DejaVuSerif-Italic-79" transform="translate(207.080078 -15.55625) scale(0.7)"/>
      <use xlink:href="#DejaVuSerif-31" transform="translate(246.625977 -26.456562) scale(0.49)"/>
      <use xlink:href="#DejaVuSerif-2c" transform="translate(279.617988 -15.55625) scale(0.7)"/>
      <use xlink:href="#DejaVuSerif-Italic-79" transform="translate(315.144355 -15.55625) scale(0.7)"/>
      <use xlink:href="#DejaVuSerif-32" transform="translate(354.690254 -26.456562) scale(0.49)"/>
      <use xlink:href="#DejaVuSerif-7d" transform="translate(390.277578 0.015625)"/>
     </g>
    </g>
   </g>
   <g id="line2d_6">
    <path d="M 21.79302 253.45793 
L 22.855395 253.45793 
L 22.855395 254.912009 
L 24.980143 254.856669 
L 24.980143 252.683603 
L 26.042518 252.683603 
L 26.042518 252.352058 
L 27.104892 252.352058 
L 27.104892 250.260366 
L 28.167267 250.260366 
L 28.167267 250.023871 
L 29.229641 250.023871 
L 29.229641 252.451534 
L 30.292016 252.451534 
L 30.292016 250.786877 
L 31.35439 250.786877 
L 31.35439 251.014502 
L 32.416765 251.014502 
L 32.416765 249.824804 
L 33.479139 249.824804 
L 33.479139 250.839558 
L 34.541513 250.839558 
L 34.541513 251.28508 
L 35.603888 251.28508 
L 35.603888 250.983618 
L 36.666262 250.983618 
L 36.666262 250.710887 
L 40.91576 250.741504 
L 40.91576 250.399799 
L 41.978134 250.399799 
L 41.978134 250.112377 
L 43.040509 250.112377 
L 43.040509 250.231503 
L 45.165258 250.190864 
L 45.165258 251.058865 
L 46.227632 251.058865 
L 46.227632 251.502405 
L 47.290007 251.502405 
L 47.290007 251.060411 
L 48.352381 251.060411 
L 48.352381 251.995315 
L 50.47713 252.096751 
L 50.47713 250.043196 
L 51.539504 250.043196 
L 51.539504 250.304962 
L 53.664253 250.293619 
L 53.664253 249.583944 
L 55.789002 249.580164 
L 55.789002 249.399319 
L 56.851377 249.399319 
L 56.851377 249.660148 
L 60.0385 249.75555 
L 60.0385 249.507946 
L 62.163249 249.492965 
L 62.163249 250.073493 
L 63.225623 250.073493 
L 63.225623 248.965703 
L 65.350372 248.924782 
L 65.350372 248.124679 
L 66.412747 248.124679 
L 66.412747 248.977586 
L 67.475121 248.977586 
L 67.475121 248.794815 
L 68.537495 248.794815 
L 68.537495 248.647678 
L 69.59987 248.647678 
L 69.59987 248.897864 
L 70.662244 248.897864 
L 70.662244 248.594181 
L 71.724619 248.594181 
L 71.724619 248.223552 
L 72.786993 248.223552 
L 72.786993 247.918137 
L 73.849368 247.918137 
L 73.849368 249.753129 
L 74.911742 249.753129 
L 74.911742 250.248256 
L 75.974117 250.248256 
L 75.974117 250.127821 
L 77.036491 250.127821 
L 77.036491 249.585814 
L 78.098865 249.585814 
L 78.098865 248.626636 
L 79.16124 248.626636 
L 79.16124 248.859508 
L 81.285989 248.827783 
L 81.285989 249.374572 
L 82.348363 249.374572 
L 82.348363 250.348692 
L 83.410738 250.348692 
L 83.410738 250.57899 
L 84.473112 250.57899 
L 84.473112 250.325588 
L 85.535486 250.325588 
L 85.535486 248.980093 
L 86.597861 248.980093 
L 86.597861 247.304435 
L 87.660235 247.304435 
L 87.660235 222.618216 
L 88.72261 222.618216 
L 88.72261 216.710991 
L 89.784984 216.710991 
L 89.784984 216.539477 
L 90.847359 216.539477 
L 90.847359 215.809211 
L 91.909733 215.809211 
L 91.909733 215.655624 
L 92.972108 215.655624 
L 92.972108 215.253965 
L 94.034482 215.253965 
L 94.034482 214.659229 
L 95.096856 214.659229 
L 95.096856 214.506659 
L 96.159231 214.506659 
L 96.159231 214.218127 
L 98.28398 214.171078 
L 98.28398 214.356141 
L 108.907724 214.437187 
L 108.907724 214.5605 
L 113.157222 214.45192 
L 113.157222 214.409348 
L 118.469094 214.367643 
L 118.469094 214.218643 
L 136.52946 214.112583 
L 136.52946 214.052376 
L 141.841332 214.128788 
L 141.841332 214.17948 
L 153.527451 214.09393 
L 153.527451 214.064097 
L 170.525442 214.012073 
L 170.525442 213.934564 
L 171.587816 213.934564 
L 171.587816 213.785097 
L 173.712565 213.7094 
L 173.712565 213.896632 
L 182.211561 213.867931 
L 182.211561 214.019856 
L 183.273935 214.019856 
L 183.273935 214.152471 
L 184.336309 214.152471 
L 184.336309 213.837862 
L 187.523433 213.750512 
L 187.523433 213.715643 
L 190.710556 213.649512 
L 190.710556 213.565156 
L 191.77293 213.565156 
L 191.77293 213.448714 
L 199.209552 213.47991 
L 199.209552 213.608307 
L 201.3343 213.64899 
L 201.3343 213.893718 
L 202.396675 213.893718 
L 202.396675 214.014049 
L 204.521424 214.023085 
L 204.521424 214.25131 
L 205.583798 214.25131 
L 205.583798 213.945283 
L 206.646173 213.945283 
L 206.646173 213.825312 
L 207.708547 213.825312 
L 207.708547 213.630589 
L 209.833296 213.575985 
L 209.833296 213.819874 
L 210.89567 213.819874 
L 210.89567 214.042805 
L 211.958045 214.042805 
L 211.958045 213.749764 
L 214.082794 213.82719 
L 214.082794 213.633347 
L 215.145168 213.633347 
L 215.145168 213.455573 
L 216.207543 213.455573 
L 216.207543 212.957475 
L 218.332291 212.943713 
L 218.332291 213.130016 
L 219.394666 213.130016 
L 219.394666 213.485571 
L 220.45704 213.485571 
L 220.45704 213.101593 
L 221.519415 213.101593 
L 221.519415 213.260821 
L 222.581789 213.260821 
L 222.581789 213.560585 
L 224.706538 213.559963 
L 224.706538 213.303997 
L 225.768913 213.303997 
L 225.768913 212.950261 
L 226.831287 212.950261 
L 226.831287 212.742415 
L 228.956036 212.686894 
L 228.956036 212.542019 
L 230.01841 212.542019 
L 230.01841 212.669061 
L 231.080785 212.669061 
L 231.080785 213.251072 
L 232.143159 213.251072 
L 232.143159 213.381659 
L 233.205534 213.381659 
L 233.205534 213.747043 
L 234.267908 213.747043 
L 234.267908 213.864931 
L 235.330282 213.864931 
L 235.330282 213.32915 
L 236.392657 213.32915 
L 236.392657 213.630979 
L 237.455031 213.630979 
L 237.455031 213.462068 
L 238.517406 213.462068 
L 238.517406 213.016404 
L 239.57978 213.016404 
L 239.57978 212.254512 
L 240.642155 212.254512 
L 240.642155 211.848505 
L 241.704529 211.848505 
L 241.704529 212.800496 
L 242.766904 212.800496 
L 242.766904 213.126112 
L 243.829278 213.126112 
L 243.829278 212.186646 
L 244.891652 212.186646 
L 244.891652 213.01166 
L 245.954027 213.01166 
L 245.954027 213.16644 
L 247.016401 213.16644 
L 247.016401 212.103281 
L 248.078776 212.103281 
L 248.078776 212.56947 
L 249.14115 212.56947 
L 249.14115 211.902961 
L 250.203525 211.902961 
L 250.203525 212.758731 
L 251.265899 212.758731 
L 251.265899 213.531689 
L 252.328274 213.531689 
L 252.328274 210.102367 
L 253.390648 210.102367 
L 253.390648 209.127978 
L 254.453022 209.127978 
L 254.453022 208.033516 
L 255.515397 208.033516 
L 255.515397 205.097909 
L 256.577771 205.097909 
L 256.577771 206.022147 
L 257.640146 206.022147 
L 257.640146 215.435275 
L 258.70252 215.435275 
L 258.70252 216.43908 
L 259.764895 216.43908 
L 259.764895 210.496103 
L 260.827269 210.496103 
L 260.827269 204.444635 
L 261.889643 204.444635 
L 261.889643 210.324666 
L 262.952018 210.324666 
L 262.952018 204.501298 
L 264.014392 204.501298 
L 264.014392 187.605214 
L 265.076767 187.605214 
L 265.076767 238.990431 
L 266.139141 238.990431 
L 266.139141 231.638757 
L 267.201516 231.638757 
L 267.201516 234.187769 
L 268.26389 234.187769 
L 268.26389 224.165585 
L 269.326265 224.165585 
L 269.326265 197.346703 
L 270.388639 197.346703 
L 270.388639 221.580395 
L 271.451013 221.580395 
L 271.451013 248.530118 
L 272.513388 248.530118 
L 272.513388 242.650509 
L 273.575762 242.650509 
L 273.575762 240.382646 
L 274.638137 240.382646 
L 274.638137 227.205024 
L 275.700511 227.205024 
L 275.700511 228.71839 
L 276.762886 228.71839 
L 276.762886 231.928657 
L 277.82526 231.928657 
L 277.82526 238.39185 
L 278.887635 238.39185 
L 278.887635 225.111544 
L 279.950009 225.111544 
L 279.950009 222.281489 
L 281.012383 222.281489 
L 281.012383 220.163422 
L 282.074758 220.163422 
L 282.074758 223.032358 
L 283.137132 223.032358 
L 283.137132 213.429322 
L 284.199507 213.429322 
L 284.199507 204.841706 
L 285.261881 204.841706 
L 285.261881 197.409136 
L 286.324256 197.409136 
L 286.324256 200.80746 
L 287.38663 200.80746 
L 287.38663 203.756877 
L 288.449004 203.756877 
L 288.449004 204.539854 
L 289.511379 204.539854 
L 289.511379 208.138411 
L 290.573753 208.138411 
L 290.573753 204.290621 
L 291.636128 204.290621 
L 291.636128 206.920445 
L 292.698502 206.920445 
L 292.698502 201.777282 
L 293.760877 201.777282 
L 293.760877 201.3351 
L 295.885626 201.361919 
L 295.885626 199.210347 
L 296.948 199.210347 
L 296.948 199.394303 
L 298.010374 199.394303 
L 298.010374 204.365866 
L 299.072749 204.365866 
L 299.072749 194.459759 
L 300.135123 194.459759 
L 300.135123 233.268307 
L 301.197498 233.268307 
L 301.197498 248.21981 
L 302.259872 248.21981 
L 302.259872 236.542351 
L 303.322247 236.542351 
L 303.322247 240.522514 
L 304.384621 240.522514 
L 304.384621 227.278937 
L 305.446996 227.278937 
L 305.446996 207.051463 
L 306.50937 207.051463 
L 306.50937 233.793123 
L 307.571744 233.793123 
L 307.571744 238.844465 
L 308.634119 238.844465 
L 308.634119 247.719133 
L 309.696493 247.719133 
L 309.696493 192.096322 
L 310.758868 192.096322 
L 310.758868 201.175415 
L 311.821242 201.175415 
L 311.821242 201.789384 
L 312.883617 201.789384 
L 312.883617 200.356165 
L 313.945991 200.356165 
L 313.945991 206.993424 
L 315.008365 206.993424 
L 315.008365 246.770082 
L 316.07074 246.770082 
L 316.07074 217.65942 
L 317.133114 217.65942 
L 317.133114 200.805954 
L 318.195489 200.805954 
L 318.195489 198.502713 
L 319.257863 198.502713 
L 319.257863 198.892194 
L 320.320238 198.892194 
L 320.320238 198.1807 
L 321.382612 198.1807 
L 321.382612 192.085806 
L 322.444987 192.085806 
L 322.444987 191.956139 
L 323.507361 191.956139 
L 323.507361 191.690995 
L 324.569735 191.690995 
L 324.569735 194.38696 
L 325.63211 194.38696 
L 325.63211 207.032568 
L 326.694484 207.032568 
L 326.694484 197.853897 
L 327.756859 197.853897 
L 327.756859 198.338003 
L 328.819233 198.338003 
L 328.819233 195.622124 
L 329.881608 195.622124 
L 329.881608 191.224407 
L 330.943982 191.224407 
L 330.943982 190.457392 
L 332.006357 190.457392 
L 332.006357 181.702587 
L 333.068731 181.702587 
L 333.068731 250.880274 
L 334.131105 250.880274 
L 334.131105 247.791749 
L 336.255854 247.778473 
L 336.255854 253.881759 
L 337.318229 253.881759 
L 337.318229 189.07561 
L 338.380603 189.07561 
L 338.380603 181.195335 
L 339.442978 181.195335 
L 339.442978 254.82459 
L 340.505352 254.82459 
L 340.505352 251.98711 
L 341.567726 251.98711 
L 341.567726 255.124343 
L 342.630101 255.124343 
L 342.630101 251.243414 
L 343.692475 251.243414 
L 343.692475 254.85359 
L 344.75485 254.85359 
L 344.75485 253.55765 
L 346.879599 253.471588 
L 346.879599 248.310253 
L 347.941973 248.310253 
L 347.941973 252.7855 
L 349.004348 252.7855 
L 349.004348 253.09776 
L 350.066722 253.09776 
L 350.066722 183.307032 
L 351.129096 183.307032 
L 351.129096 183.747063 
L 352.191471 183.747063 
L 352.191471 185.972112 
L 353.253845 185.972112 
L 353.253845 184.240508 
L 354.31622 184.240508 
L 354.31622 183.263697 
L 355.378594 183.263697 
L 355.378594 255.299077 
L 356.440969 255.299077 
L 356.440969 182.304494 
L 357.503343 182.304494 
L 357.503343 183.212181 
L 358.565718 183.212181 
L 358.565718 184.269709 
L 359.628092 184.269709 
L 359.628092 187.123174 
L 360.690466 187.123174 
L 360.690466 182.911865 
L 361.752841 182.911865 
L 361.752841 181.762328 
L 362.815215 181.762328 
L 362.815215 182.002046 
L 363.87759 182.002046 
L 363.87759 256.099883 
L 364.939964 256.099883 
L 364.939964 251.579001 
L 366.002339 251.579001 
L 366.002339 253.509406 
L 367.064713 253.509406 
L 367.064713 254.333142 
L 368.127087 254.333142 
L 368.127087 255.338519 
L 369.189462 255.338519 
L 369.189462 251.43156 
L 370.251836 251.43156 
L 370.251836 247.812451 
L 371.314211 247.812451 
L 371.314211 248.783994 
L 372.376585 248.783994 
L 372.376585 247.627814 
L 373.43896 247.627814 
L 373.43896 247.456248 
L 374.501334 247.456248 
L 374.501334 249.779198 
L 375.563709 249.779198 
L 375.563709 251.625507 
L 376.626083 251.625507 
L 376.626083 250.139655 
L 377.688457 250.139655 
L 377.688457 250.81498 
L 378.750832 250.81498 
L 378.750832 246.134836 
L 379.813206 246.134836 
L 379.813206 247.26933 
L 380.875581 247.26933 
L 380.875581 245.601899 
L 381.937955 245.601899 
L 381.937955 248.5502 
L 383.00033 248.5502 
L 383.00033 250.326197 
L 384.062704 250.326197 
L 384.062704 252.903069 
L 385.125078 252.903069 
L 385.125078 253.358379 
L 386.187453 253.358379 
L 386.187453 255.842826 
L 387.249827 255.842826 
L 387.249827 253.983316 
L 388.312202 253.983316 
L 388.312202 253.660831 
L 389.374576 253.660831 
L 389.374576 252.702965 
L 390.436951 252.702965 
L 390.436951 256.169492 
L 391.499325 256.169492 
L 391.499325 253.458774 
L 392.5617 253.458774 
L 392.5617 255.790366 
L 393.624074 255.790366 
L 393.624074 182.762368 
L 394.686448 182.762368 
L 394.686448 184.313735 
L 395.748823 184.313735 
L 395.748823 250.892051 
L 396.811197 250.892051 
L 396.811197 252.273408 
L 397.873572 252.273408 
L 397.873572 249.967203 
L 398.935946 249.967203 
L 398.935946 248.190963 
L 399.998321 248.190963 
L 399.998321 249.219941 
L 401.060695 249.219941 
L 401.060695 253.380887 
L 402.12307 253.380887 
L 402.12307 254.29803 
L 403.185444 254.29803 
L 403.185444 251.090612 
L 404.247818 251.090612 
L 404.247818 250.743102 
L 405.310193 250.743102 
L 405.310193 252.302018 
L 406.372567 252.302018 
L 406.372567 247.620718 
L 407.434942 247.620718 
L 407.434942 246.543083 
L 408.497316 246.543083 
L 408.497316 246.306823 
L 409.559691 246.306823 
L 409.559691 246.841342 
L 410.622065 246.841342 
L 410.622065 242.807409 
L 411.684439 242.807409 
L 411.684439 250.480146 
L 412.746814 250.480146 
L 412.746814 247.607807 
L 413.809188 247.607807 
L 413.809188 246.51354 
L 414.871563 246.51354 
L 414.871563 240.207701 
L 415.933937 240.207701 
L 415.933937 246.375055 
L 416.996312 246.375055 
L 416.996312 244.949567 
L 418.058686 244.949567 
L 418.058686 184.140063 
L 419.121061 184.140063 
L 419.121061 184.332723 
L 420.183435 184.332723 
L 420.183435 188.184617 
L 421.245809 188.184617 
L 421.245809 185.93291 
L 422.308184 185.93291 
L 422.308184 183.720979 
L 423.370558 183.720979 
L 423.370558 253.314871 
L 424.432933 253.314871 
L 424.432933 183.850448 
L 425.495307 183.850448 
L 425.495307 195.295239 
L 426.557682 195.295239 
L 426.557682 197.824353 
L 427.620056 197.824353 
L 427.620056 196.07255 
L 428.682431 196.07255 
L 428.682431 199.855901 
L 429.744805 199.855901 
L 429.744805 196.76121 
L 430.807179 196.76121 
L 430.807179 198.650058 
L 431.869554 198.650058 
L 431.869554 195.515298 
L 432.931928 195.515298 
L 432.931928 196.049739 
L 433.994303 196.049739 
L 433.994303 195.439499 
L 435.056677 195.439499 
L 435.056677 195.566521 
L 436.119052 195.566521 
L 436.119052 193.966395 
L 437.181426 193.966395 
L 437.181426 192.52901 
L 438.2438 192.52901 
L 438.2438 192.772946 
L 439.306175 192.772946 
L 439.306175 191.380294 
L 440.368549 191.380294 
L 440.368549 192.534409 
L 441.430924 192.534409 
L 441.430924 194.231039 
L 443.555673 194.151145 
L 443.555673 196.00723 
L 444.618047 196.00723 
L 444.618047 196.997295 
L 445.680422 196.997295 
L 445.680422 199.335087 
L 446.742796 199.335087 
L 446.742796 195.765892 
L 448.867545 195.78442 
L 448.867545 195.938507 
L 449.929919 195.938507 
L 449.929919 191.079093 
L 450.992294 191.079093 
L 450.992294 191.404336 
L 452.054668 191.404336 
L 452.054668 192.297237 
L 453.117043 192.297237 
L 453.117043 192.875756 
L 454.179417 192.875756 
L 454.179417 196.408512 
L 455.241792 196.408512 
L 455.241792 190.910443 
L 456.304166 190.910443 
L 456.304166 190.594129 
L 457.36654 190.594129 
L 457.36654 188.900375 
L 458.428915 188.900375 
L 458.428915 189.866804 
L 459.491289 189.866804 
L 459.491289 191.159775 
L 460.553664 191.159775 
L 460.553664 190.780917 
L 461.616038 190.780917 
L 461.616038 187.577804 
L 463.740787 187.512116 
L 463.740787 188.73298 
L 464.803161 188.73298 
L 464.803161 187.545709 
L 465.865536 187.545709 
L 465.865536 188.215477 
L 466.92791 188.215477 
L 466.92791 189.14869 
L 467.990285 189.14869 
L 467.990285 188.784245 
L 469.052659 188.784245 
L 469.052659 197.506679 
L 470.115034 197.506679 
L 470.115034 200.276577 
L 471.177408 200.276577 
L 471.177408 199.450084 
L 472.239783 199.450084 
L 472.239783 199.263064 
L 473.302157 199.263064 
L 473.302157 199.748236 
L 474.364531 199.748236 
L 474.364531 195.624115 
L 475.426906 195.624115 
L 475.426906 193.56529 
L 476.48928 193.56529 
L 476.48928 193.36906 
L 477.551655 193.36906 
L 477.551655 192.311761 
L 478.614029 192.311761 
L 478.614029 200.108082 
L 479.676404 200.108082 
L 479.676404 198.342967 
L 480.738778 198.342967 
L 480.738778 202.629054 
L 481.801153 202.629054 
L 481.801153 201.301596 
L 482.863527 201.301596 
L 482.863527 200.102912 
L 483.925901 200.102912 
L 483.925901 194.133872 
L 484.988276 194.133872 
L 484.988276 195.043891 
L 486.05065 195.043891 
L 486.05065 199.285829 
L 487.113025 199.285829 
L 487.113025 200.072425 
L 488.175399 200.072425 
L 488.175399 197.812719 
L 489.237774 197.812719 
L 489.237774 200.431708 
L 490.300148 200.431708 
L 490.300148 206.107312 
L 491.362522 206.107312 
L 491.362522 210.138814 
L 492.424897 210.138814 
L 492.424897 210.713196 
L 494.549646 210.789909 
L 494.549646 212.51634 
L 495.61202 212.51634 
L 495.61202 208.256623 
L 496.674395 208.256623 
L 496.674395 209.69884 
L 497.736769 209.69884 
L 497.736769 207.432274 
L 498.799144 207.432274 
L 498.799144 199.25921 
L 499.861518 199.25921 
L 499.861518 200.087606 
L 500.923892 200.087606 
L 500.923892 205.686994 
L 501.986267 205.686994 
L 501.986267 199.007205 
L 503.048641 199.007205 
L 503.048641 234.264921 
L 504.111016 234.264921 
L 504.111016 235.119006 
L 505.17339 235.119006 
L 505.17339 208.005792 
L 506.235765 208.005792 
L 506.235765 199.826965 
L 507.298139 199.826965 
L 507.298139 204.417442 
L 509.422888 204.524883 
L 509.422888 193.291127 
L 510.485262 193.291127 
L 510.485262 188.831654 
L 511.547637 188.831654 
L 511.547637 186.044369 
L 512.610011 186.044369 
L 512.610011 184.629619 
L 513.672386 184.629619 
L 513.672386 182.021733 
L 514.73476 182.021733 
L 514.73476 186.158834 
L 515.797135 186.158834 
L 515.797135 189.590424 
L 516.859509 189.590424 
L 516.859509 192.179801 
L 517.921883 192.179801 
L 517.921883 189.477045 
L 518.984258 189.477045 
L 518.984258 188.62626 
L 520.046632 188.62626 
L 520.046632 185.999038 
L 521.109007 185.999038 
L 521.109007 189.609303 
L 522.171381 189.609303 
L 522.171381 193.929094 
L 523.233756 193.929094 
L 523.233756 192.434935 
L 524.29613 192.434935 
L 524.29613 188.834616 
L 525.358505 188.834616 
L 525.358505 190.585829 
L 526.420879 190.585829 
L 526.420879 195.435534 
L 527.483253 195.435534 
L 527.483253 193.573773 
L 528.545628 193.573773 
L 528.545628 198.728564 
L 529.608002 198.728564 
L 529.608002 189.242979 
L 530.670377 189.242979 
L 530.670377 192.961672 
L 531.732751 192.961672 
L 531.732751 195.686546 
L 532.795126 195.686546 
L 532.795126 195.542929 
L 533.8575 195.542929 
L 533.8575 194.470198 
L 534.919875 194.470198 
L 534.919875 190.904904 
L 535.982249 190.904904 
L 535.982249 194.040358 
L 537.044623 194.040358 
L 537.044623 201.825564 
L 538.106998 201.825564 
L 538.106998 204.701966 
L 539.169372 204.701966 
L 539.169372 204.515942 
L 540.231747 204.515942 
L 540.231747 202.605988 
L 541.294121 202.605988 
L 541.294121 203.977162 
L 542.356496 203.977162 
L 542.356496 203.452725 
L 543.41887 203.452725 
L 543.41887 203.938244 
L 544.481244 203.938244 
L 544.481244 202.636543 
L 545.543619 202.636543 
L 545.543619 202.398036 
L 546.605993 202.398036 
L 546.605993 201.385259 
L 547.668368 201.385259 
L 547.668368 199.319678 
L 548.730742 199.319678 
L 548.730742 200.961269 
L 549.793117 200.961269 
L 549.793117 200.815206 
L 551.917866 200.752776 
L 551.917866 201.86517 
L 552.98024 201.86517 
L 552.98024 200.236669 
L 554.042614 200.236669 
L 554.042614 197.023631 
L 555.104989 197.023631 
L 555.104989 194.559379 
L 556.167363 194.559379 
L 556.167363 191.947055 
L 557.229738 191.947055 
L 557.229738 189.591815 
L 558.292112 189.591815 
L 558.292112 187.313507 
L 559.354487 187.313507 
L 559.354487 183.111845 
L 560.416861 183.111845 
L 560.416861 181.844451 
L 561.479235 181.844451 
L 561.479235 182.498501 
L 562.54161 182.498501 
L 562.54161 182.748837 
L 563.603984 182.748837 
L 563.603984 184.391491 
L 564.666359 184.391491 
L 564.666359 183.647194 
L 565.728733 183.647194 
L 565.728733 184.044513 
L 566.791108 184.044513 
L 566.791108 184.535948 
L 567.853482 184.535948 
L 567.853482 184.672691 
L 568.915857 184.672691 
L 568.915857 185.311649 
L 569.978231 185.311649 
L 569.978231 186.257404 
L 572.10298 186.209514 
L 572.10298 181.040059 
L 573.165354 181.040059 
L 573.165354 254.37084 
L 574.227729 254.37084 
L 574.227729 218.68 
L 577 218.68 
L 577 218.68 
" clip-path="url(#p7b1a82252b)" style="fill: none; stroke: #a1c9f4"/>
   </g>
   <g id="line2d_7">
    <path d="M 169.463067 256.365354 
L 169.463067 180.994646 
" clip-path="url(#p7b1a82252b)" style="fill: none; stroke-dasharray: 3.7,1.6; stroke-dashoffset: 0; stroke: #c0c0c0"/>
   </g>
   <g id="patch_9">
    <path d="M 20.730646 256.365354 
L 20.730646 180.994646 
" style="fill: none; stroke: #adb2b7; stroke-linejoin: miter; stroke-linecap: square"/>
   </g>
   <g id="patch_10">
    <path d="M 20.730646 256.365354 
L 573.165354 256.365354 
" style="fill: none; stroke: #adb2b7; stroke-linejoin: miter; stroke-linecap: square"/>
   </g>
  </g>
 </g>
 <defs>
  <clipPath id="pf1ad16d7fe">
   <rect x="20.730646" y="18.914646" width="552.434709" height="75.370709"/>
  </clipPath>
  <clipPath id="p8db045ca36">
   <rect x="20.730646" y="99.954646" width="552.434709" height="75.370709"/>
  </clipPath>
  <clipPath id="p7b1a82252b">
   <rect x="20.730646" y="180.994646" width="552.434709" height="75.370709"/>
  </clipPath>
 </defs>
</svg>
