<?xml version="1.0" encoding="utf-8" standalone="no"?>
<!DOCTYPE svg PUBLIC "-//W3C//DTD SVG 1.1//EN"
  "http://www.w3.org/Graphics/SVG/1.1/DTD/svg11.dtd">
<svg xmlns:xlink="http://www.w3.org/1999/xlink" width="576pt" height="216pt" viewBox="0 0 576 216" xmlns="http://www.w3.org/2000/svg" version="1.1">
 <metadata>
  <rdf:RDF xmlns:dc="http://purl.org/dc/elements/1.1/" xmlns:cc="http://creativecommons.org/ns#" xmlns:rdf="http://www.w3.org/1999/02/22-rdf-syntax-ns#">
   <cc:Work>
    <dc:type rdf:resource="http://purl.org/dc/dcmitype/StillImage"/>
    <dc:date>2023-11-08T14:13:18.467240</dc:date>
    <dc:format>image/svg+xml</dc:format>
    <dc:creator>
     <cc:Agent>
      <dc:title>Matplotlib v3.7.1, https://matplotlib.org/</dc:title>
     </cc:Agent>
    </dc:creator>
   </cc:Work>
  </rdf:RDF>
 </metadata>
 <defs>
  <style type="text/css">*{stroke-linejoin: round; stroke-linecap: butt}</style>
 </defs>
 <g id="figure_1">
  <g id="patch_1">
   <path d="M 0 216 
L 576 216 
L 576 0 
L 0 0 
z
" style="fill: #1b3041"/>
  </g>
  <g id="axes_1">
   <g id="patch_2">
    <path d="M 16.914646 63.765354 
L 573.165354 63.765354 
L 573.165354 19.634646 
L 16.914646 19.634646 
z
" style="fill: #21252b"/>
   </g>
   <g id="matplotlib.axis_1"/>
   <g id="matplotlib.axis_2">
    <g id="text_1">
     <!-- canal I -->
     <g style="fill: #9eb1be" transform="translate(10.626989 60.560703) rotate(-90) scale(0.11 -0.11)">
      <defs>
       <path id="DejaVuSerif-63" d="M 3291 997 
Q 3169 466 2822 187 
Q 2475 -91 1925 -91 
Q 1200 -91 759 389 
Q 319 869 319 1663 
Q 319 2459 759 2936 
Q 1200 3413 1925 3413 
Q 2241 3413 2553 3339 
Q 2866 3266 3181 3116 
L 3181 2266 
L 2847 2266 
Q 2781 2703 2561 2903 
Q 2341 3103 1931 3103 
Q 1466 3103 1228 2742 
Q 991 2381 991 1663 
Q 991 944 1227 581 
Q 1463 219 1931 219 
Q 2303 219 2525 412 
Q 2747 606 2828 997 
L 3291 997 
z
" transform="scale(0.015625)"/>
       <path id="DejaVuSerif-61" d="M 2547 1044 
L 2547 1747 
L 1806 1747 
Q 1378 1747 1168 1562 
Q 959 1378 959 997 
Q 959 650 1171 447 
Q 1384 244 1747 244 
Q 2106 244 2326 466 
Q 2547 688 2547 1044 
z
M 3122 2075 
L 3122 331 
L 3634 331 
L 3634 0 
L 2547 0 
L 2547 359 
Q 2356 128 2106 18 
Q 1856 -91 1522 -91 
Q 969 -91 644 203 
Q 319 497 319 997 
Q 319 1513 691 1797 
Q 1063 2081 1741 2081 
L 2547 2081 
L 2547 2309 
Q 2547 2688 2317 2895 
Q 2088 3103 1672 3103 
Q 1328 3103 1125 2947 
Q 922 2791 872 2484 
L 575 2484 
L 575 3156 
Q 875 3284 1158 3348 
Q 1441 3413 1709 3413 
Q 2400 3413 2761 3070 
Q 3122 2728 3122 2075 
z
" transform="scale(0.015625)"/>
       <path id="DejaVuSerif-6e" d="M 263 0 
L 263 331 
L 781 331 
L 781 2988 
L 231 2988 
L 231 3322 
L 1356 3322 
L 1356 2731 
Q 1516 3069 1770 3241 
Q 2025 3413 2363 3413 
Q 2913 3413 3172 3097 
Q 3431 2781 3431 2113 
L 3431 331 
L 3944 331 
L 3944 0 
L 2356 0 
L 2356 331 
L 2853 331 
L 2853 1931 
Q 2853 2541 2703 2767 
Q 2553 2994 2175 2994 
Q 1775 2994 1565 2701 
Q 1356 2409 1356 1850 
L 1356 331 
L 1856 331 
L 1856 0 
L 263 0 
z
" transform="scale(0.015625)"/>
       <path id="DejaVuSerif-6c" d="M 1313 331 
L 1856 331 
L 1856 0 
L 184 0 
L 184 331 
L 738 331 
L 738 4531 
L 184 4531 
L 184 4863 
L 1313 4863 
L 1313 331 
z
" transform="scale(0.015625)"/>
       <path id="DejaVuSerif-20" transform="scale(0.015625)"/>
       <path id="DejaVuSerif-49" d="M 1581 331 
L 2175 331 
L 2175 0 
L 353 0 
L 353 331 
L 947 331 
L 947 4331 
L 353 4331 
L 353 4666 
L 2175 4666 
L 2175 4331 
L 1581 4331 
L 1581 331 
z
" transform="scale(0.015625)"/>
      </defs>
      <use xlink:href="#DejaVuSerif-63"/>
      <use xlink:href="#DejaVuSerif-61" x="56.005859"/>
      <use xlink:href="#DejaVuSerif-6e" x="115.625"/>
      <use xlink:href="#DejaVuSerif-61" x="180.029297"/>
      <use xlink:href="#DejaVuSerif-6c" x="239.648438"/>
      <use xlink:href="#DejaVuSerif-20" x="271.630859"/>
      <use xlink:href="#DejaVuSerif-49" x="303.417969"/>
     </g>
    </g>
   </g>
   <g id="line2d_1">
    <path d="M 32.65759 42.698347 
L 33.800869 42.698347 
L 33.800869 43.651492 
L 34.944147 43.651492 
L 34.944147 40.371643 
L 36.087426 40.371643 
L 36.087426 43.004998 
L 37.230704 43.004998 
L 37.230704 39.753924 
L 38.373983 39.753924 
L 38.373983 43.981048 
L 39.517261 43.981048 
L 39.517261 42.071469 
L 40.66054 42.071469 
L 40.66054 43.037262 
L 41.803818 43.037262 
L 41.803818 41.843103 
L 42.947097 41.843103 
L 42.947097 40.802412 
L 44.090375 40.802412 
L 44.090375 42.601529 
L 45.233653 42.601529 
L 45.233653 42.827259 
L 46.376932 42.827259 
L 46.376932 43.472058 
L 47.52021 43.472058 
L 47.52021 42.345374 
L 48.663489 42.345374 
L 48.663489 43.766057 
L 49.806767 43.766057 
L 49.806767 42.021657 
L 50.950046 42.021657 
L 50.950046 40.598966 
L 52.093324 40.598966 
L 52.093324 41.258259 
L 53.236603 41.258259 
L 53.236603 42.290978 
L 54.379881 42.290978 
L 54.379881 40.741452 
L 55.52316 40.741452 
L 55.52316 42.575359 
L 56.666438 42.575359 
L 56.666438 44.117347 
L 57.809717 44.117347 
L 57.809717 43.385842 
L 58.952995 43.385842 
L 58.952995 44.076118 
L 60.096274 44.076118 
L 60.096274 45.906653 
L 61.239552 45.906653 
L 61.239552 42.032126 
L 62.382831 42.032126 
L 62.382831 41.478541 
L 63.526109 41.478541 
L 63.526109 41.143479 
L 64.669388 41.143479 
L 64.669388 43.191959 
L 65.812666 43.191959 
L 65.812666 41.56105 
L 66.955944 41.56105 
L 66.955944 40.862456 
L 68.099223 40.862456 
L 68.099223 43.472325 
L 69.242501 43.472325 
L 69.242501 43.298252 
L 70.38578 43.298252 
L 70.38578 43.095018 
L 71.529058 43.095018 
L 71.529058 41.666805 
L 72.672337 41.666805 
L 72.672337 41.372457 
L 73.815615 41.372457 
L 73.815615 40.758903 
L 74.958894 40.758903 
L 74.958894 42.692029 
L 76.102172 42.692029 
L 76.102172 42.033476 
L 77.245451 42.033476 
L 77.245451 40.86723 
L 78.388729 40.86723 
L 78.388729 41.607632 
L 79.532008 41.607632 
L 79.532008 41.784772 
L 80.675286 41.784772 
L 80.675286 39.352868 
L 81.818565 39.352868 
L 81.818565 43.204334 
L 82.961843 43.204334 
L 82.961843 42.478954 
L 84.105122 42.478954 
L 84.105122 41.862374 
L 85.2484 41.862374 
L 85.2484 44.181731 
L 86.391679 44.181731 
L 86.391679 41.923248 
L 87.534957 41.923248 
L 87.534957 42.35312 
L 88.678235 42.35312 
L 88.678235 42.701387 
L 90.964792 42.760598 
L 90.964792 41.46154 
L 92.108071 41.46154 
L 92.108071 41.862046 
L 93.251349 41.862046 
L 93.251349 41.408335 
L 94.394628 41.408335 
L 94.394628 44.810817 
L 95.537906 44.810817 
L 95.537906 42.164812 
L 96.681185 42.164812 
L 96.681185 42.501794 
L 97.824463 42.501794 
L 97.824463 42.972747 
L 98.967742 42.972747 
L 98.967742 41.959719 
L 100.11102 41.959719 
L 100.11102 44.895687 
L 101.254299 44.895687 
L 101.254299 40.653662 
L 102.397577 40.653662 
L 102.397577 42.195688 
L 103.540856 42.195688 
L 103.540856 42.942953 
L 104.684134 42.942953 
L 104.684134 40.509643 
L 105.827413 40.509643 
L 105.827413 41.160122 
L 106.970691 41.160122 
L 106.970691 41.777664 
L 108.11397 41.777664 
L 108.11397 42.491605 
L 109.257248 42.491605 
L 109.257248 40.900437 
L 110.400526 40.900437 
L 110.400526 40.328449 
L 111.543805 40.328449 
L 111.543805 42.61564 
L 112.687083 42.61564 
L 112.687083 42.023895 
L 113.830362 42.023895 
L 113.830362 41.095764 
L 114.97364 41.095764 
L 114.97364 41.6297 
L 116.116919 41.6297 
L 116.116919 42.924334 
L 118.403476 43.007009 
L 118.403476 42.416842 
L 119.546754 42.416842 
L 119.546754 41.019871 
L 120.690033 41.019871 
L 120.690033 41.86875 
L 121.833311 41.86875 
L 121.833311 42.262193 
L 122.97659 42.262193 
L 122.97659 44.419198 
L 124.119868 44.419198 
L 124.119868 43.4299 
L 125.263147 43.4299 
L 125.263147 42.700438 
L 126.406425 42.700438 
L 126.406425 42.196591 
L 127.549704 42.196591 
L 127.549704 43.621065 
L 128.692982 43.621065 
L 128.692982 44.047543 
L 129.836261 44.047543 
L 129.836261 40.318686 
L 130.979539 40.318686 
L 130.979539 43.717102 
L 132.122817 43.717102 
L 132.122817 41.404414 
L 133.266096 41.404414 
L 133.266096 43.468201 
L 134.409374 43.468201 
L 134.409374 41.967664 
L 135.552653 41.967664 
L 135.552653 42.662822 
L 136.695931 42.662822 
L 136.695931 42.433974 
L 137.83921 42.433974 
L 137.83921 42.829518 
L 138.982488 42.829518 
L 138.982488 39.498428 
L 140.125767 39.498428 
L 140.125767 41.88837 
L 141.269045 41.88837 
L 141.269045 43.32471 
L 142.412324 43.32471 
L 142.412324 43.868518 
L 143.555602 43.868518 
L 143.555602 42.992289 
L 144.698881 42.992289 
L 144.698881 42.694421 
L 145.842159 42.694421 
L 145.842159 39.499244 
L 146.985438 39.499244 
L 146.985438 41.335512 
L 148.128716 41.335512 
L 148.128716 42.738666 
L 149.271995 42.738666 
L 149.271995 45.097313 
L 150.415273 45.097313 
L 150.415273 42.812015 
L 151.558552 42.812015 
L 151.558552 42.650044 
L 153.845108 42.631433 
L 153.845108 42.390049 
L 154.988387 42.390049 
L 154.988387 41.018802 
L 156.131665 41.018802 
L 156.131665 41.249219 
L 157.274944 41.249219 
L 157.274944 41.639603 
L 158.418222 41.639603 
L 158.418222 40.732658 
L 159.561501 40.732658 
L 159.561501 43.998707 
L 160.704779 43.998707 
L 160.704779 41.514207 
L 162.991336 41.550521 
L 162.991336 42.19886 
L 164.134615 42.19886 
L 164.134615 41.35062 
L 165.277893 41.35062 
L 165.277893 41.91402 
L 166.421172 41.91402 
L 166.421172 41.322657 
L 167.56445 41.322657 
L 167.56445 42.252889 
L 168.707729 42.252889 
L 168.707729 39.639573 
L 169.851007 39.639573 
L 169.851007 41.016062 
L 170.994286 41.016062 
L 170.994286 43.701329 
L 172.137564 43.701329 
L 172.137564 41.496249 
L 174.424121 41.48942 
L 174.424121 41.763253 
L 175.567399 41.763253 
L 175.567399 40.921093 
L 176.710678 40.921093 
L 176.710678 42.006841 
L 177.853956 42.006841 
L 177.853956 42.808859 
L 178.997235 42.808859 
L 178.997235 42.109821 
L 180.140513 42.109821 
L 180.140513 42.947068 
L 181.283792 42.947068 
L 181.283792 41.72841 
L 182.42707 41.72841 
L 182.42707 41.396432 
L 183.570349 41.396432 
L 183.570349 43.362412 
L 184.713627 43.362412 
L 184.713627 40.960705 
L 185.856906 40.960705 
L 185.856906 40.218695 
L 187.000184 40.218695 
L 187.000184 42.36138 
L 188.143463 42.36138 
L 188.143463 42.134173 
L 189.286741 42.134173 
L 189.286741 41.886114 
L 190.43002 41.886114 
L 190.43002 41.184228 
L 191.573298 41.184228 
L 191.573298 43.875983 
L 192.716577 43.875983 
L 192.716577 34.978687 
L 193.859855 34.978687 
L 193.859855 59.182078 
L 195.003134 59.182078 
L 195.003134 43.156487 
L 196.146412 43.156487 
L 196.146412 24.258328 
L 197.28969 24.258328 
L 197.28969 33.712083 
L 198.432969 33.712083 
L 198.432969 24.938073 
L 199.576247 24.938073 
L 199.576247 45.182439 
L 200.719526 45.182439 
L 200.719526 59.877151 
L 201.862804 59.877151 
L 201.862804 33.023836 
L 203.006083 33.023836 
L 203.006083 41.122346 
L 204.149361 41.122346 
L 204.149361 50.872007 
L 205.29264 50.872007 
L 205.29264 42.3882 
L 206.435918 42.3882 
L 206.435918 41.209193 
L 207.579197 41.209193 
L 207.579197 40.422868 
L 208.722475 40.422868 
L 208.722475 52.170623 
L 209.865754 52.170623 
L 209.865754 42.259276 
L 211.009032 42.259276 
L 211.009032 35.638732 
L 212.152311 35.638732 
L 212.152311 59.387449 
L 213.295589 59.387449 
L 213.295589 44.806894 
L 214.438868 44.806894 
L 214.438868 25.066361 
L 215.582146 25.066361 
L 215.582146 32.832852 
L 216.725425 32.832852 
L 216.725425 26.436592 
L 217.868703 26.436592 
L 217.868703 43.703431 
L 219.011981 43.703431 
L 219.011981 58.515059 
L 220.15526 58.515059 
L 220.15526 37.042204 
L 221.298538 37.042204 
L 221.298538 43.005083 
L 222.441817 43.005083 
L 222.441817 52.357205 
L 223.585095 52.357205 
L 223.585095 41.781429 
L 224.728374 41.781429 
L 224.728374 43.000002 
L 225.871652 43.000002 
L 225.871652 43.753681 
L 227.014931 43.753681 
L 227.014931 51.186495 
L 228.158209 51.186495 
L 228.158209 41.887542 
L 229.301488 41.887542 
L 229.301488 35.127265 
L 230.444766 35.127265 
L 230.444766 59.846181 
L 231.588045 59.846181 
L 231.588045 44.12539 
L 232.731323 44.12539 
L 232.731323 25.941941 
L 233.874602 25.941941 
L 233.874602 32.801487 
L 235.01788 32.801487 
L 235.01788 23.282721 
L 236.161159 23.282721 
L 236.161159 42.402118 
L 237.304437 42.402118 
L 237.304437 58.391927 
L 238.447716 58.391927 
L 238.447716 36.296307 
L 239.590994 36.296307 
L 239.590994 39.676494 
L 240.734272 39.676494 
L 240.734272 50.873721 
L 241.877551 50.873721 
L 241.877551 45.039629 
L 243.020829 45.039629 
L 243.020829 42.741209 
L 244.164108 42.741209 
L 244.164108 44.68454 
L 245.307386 44.68454 
L 245.307386 49.919109 
L 246.450665 49.919109 
L 246.450665 41.738847 
L 247.593943 41.738847 
L 247.593943 37.67839 
L 248.737222 37.67839 
L 248.737222 58.811304 
L 249.8805 58.811304 
L 249.8805 44.756726 
L 251.023779 44.756726 
L 251.023779 21.749909 
L 252.167057 21.749909 
L 252.167057 30.461679 
L 253.310336 30.461679 
L 253.310336 24.334174 
L 254.453614 24.334174 
L 254.453614 43.856803 
L 255.596893 43.856803 
L 255.596893 59.911602 
L 256.740171 59.911602 
L 256.740171 35.816161 
L 257.88345 35.816161 
L 257.88345 42.643379 
L 259.026728 42.643379 
L 259.026728 51.756133 
L 260.170007 51.756133 
L 260.170007 44.225244 
L 261.313285 44.225244 
L 261.313285 41.713467 
L 263.599842 41.810324 
L 263.599842 49.014158 
L 264.74312 49.014158 
L 264.74312 42.898147 
L 265.886399 42.898147 
L 265.886399 35.160826 
L 267.029677 35.160826 
L 267.029677 58.587328 
L 268.172956 58.587328 
L 268.172956 42.067992 
L 269.316234 42.067992 
L 269.316234 23.114766 
L 270.459513 23.114766 
L 270.459513 32.099191 
L 271.602791 32.099191 
L 271.602791 27.133875 
L 272.74607 27.133875 
L 272.74607 44.759276 
L 273.889348 44.759276 
L 273.889348 58.213626 
L 275.032627 58.213626 
L 275.032627 36.461917 
L 276.175905 36.461917 
L 276.175905 40.829591 
L 277.319184 40.829591 
L 277.319184 52.306363 
L 278.462462 52.306363 
L 278.462462 44.509701 
L 279.605741 44.509701 
L 279.605741 43.262894 
L 280.749019 43.262894 
L 280.749019 43.948182 
L 281.892298 43.948182 
L 281.892298 51.407461 
L 283.035576 51.407461 
L 283.035576 40.315202 
L 284.178854 40.315202 
L 284.178854 35.990195 
L 285.322133 35.990195 
L 285.322133 59.816511 
L 286.465411 59.816511 
L 286.465411 43.936796 
L 287.60869 43.936796 
L 287.60869 24.809715 
L 288.751968 24.809715 
L 288.751968 30.210861 
L 289.895247 30.210861 
L 289.895247 25.817737 
L 291.038525 25.817737 
L 291.038525 42.912375 
L 292.181804 42.912375 
L 292.181804 57.494961 
L 293.325082 57.494961 
L 293.325082 38.745318 
L 294.468361 38.745318 
L 294.468361 43.069186 
L 295.611639 43.069186 
L 295.611639 50.94559 
L 296.754918 50.94559 
L 296.754918 42.097522 
L 297.898196 42.097522 
L 297.898196 43.003986 
L 299.041475 43.003986 
L 299.041475 45.122157 
L 300.184753 45.122157 
L 300.184753 52.22937 
L 301.328032 52.22937 
L 301.328032 44.564062 
L 302.47131 44.564062 
L 302.47131 36.554614 
L 303.614589 36.554614 
L 303.614589 59.384338 
L 304.757867 59.384338 
L 304.757867 44.017066 
L 305.901146 44.017066 
L 305.901146 24.722945 
L 307.044424 24.722945 
L 307.044424 30.809594 
L 308.187702 30.809594 
L 308.187702 23.193231 
L 309.330981 23.193231 
L 309.330981 45.18825 
L 310.474259 45.18825 
L 310.474259 58.261789 
L 311.617538 58.261789 
L 311.617538 36.284499 
L 312.760816 36.284499 
L 312.760816 43.189854 
L 313.904095 43.189854 
L 313.904095 52.395281 
L 315.047373 52.395281 
L 315.047373 44.810719 
L 316.190652 44.810719 
L 316.190652 45.095288 
L 317.33393 45.095288 
L 317.33393 44.599453 
L 318.477209 44.599453 
L 318.477209 51.988295 
L 319.620487 51.988295 
L 319.620487 41.121531 
L 320.763766 41.121531 
L 320.763766 35.825463 
L 321.907044 35.825463 
L 321.907044 59.119791 
L 323.050323 59.119791 
L 323.050323 42.806525 
L 324.193601 42.806525 
L 324.193601 23.919083 
L 325.33688 23.919083 
L 325.33688 31.455401 
L 326.480158 31.455401 
L 326.480158 21.384165 
L 327.623437 21.384165 
L 327.623437 45.809368 
L 328.766715 45.809368 
L 328.766715 58.831697 
L 329.909993 58.831697 
L 329.909993 37.315372 
L 331.053272 37.315372 
L 331.053272 43.125331 
L 332.19655 43.125331 
L 332.19655 52.865081 
L 333.339829 52.865081 
L 333.339829 45.927128 
L 334.483107 45.927128 
L 334.483107 43.087153 
L 335.626386 43.087153 
L 335.626386 43.940792 
L 336.769664 43.940792 
L 336.769664 52.343037 
L 337.912943 52.343037 
L 337.912943 43.001433 
L 339.056221 43.001433 
L 339.056221 36.179342 
L 340.1995 36.179342 
L 340.1995 60.860605 
L 341.342778 60.860605 
L 341.342778 42.968437 
L 342.486057 42.968437 
L 342.486057 22.175035 
L 343.629335 22.175035 
L 343.629335 27.600263 
L 344.772614 27.600263 
L 344.772614 21.411888 
L 345.915892 21.411888 
L 345.915892 44.042524 
L 347.059171 44.042524 
L 347.059171 59.369508 
L 348.202449 59.369508 
L 348.202449 35.606461 
L 349.345728 35.606461 
L 349.345728 43.186891 
L 350.489006 43.186891 
L 350.489006 51.400364 
L 351.632284 51.400364 
L 351.632284 43.671158 
L 352.775563 43.671158 
L 352.775563 41.249797 
L 353.918841 41.249797 
L 353.918841 44.372703 
L 355.06212 44.372703 
L 355.06212 52.037659 
L 356.205398 52.037659 
L 356.205398 43.726997 
L 357.348677 43.726997 
L 357.348677 34.863311 
L 358.491955 34.863311 
L 358.491955 60.505488 
L 359.635234 60.505488 
L 359.635234 45.468196 
L 360.778512 45.468196 
L 360.778512 25.297781 
L 361.921791 25.297781 
L 361.921791 30.965757 
L 363.065069 30.965757 
L 363.065069 24.300439 
L 364.208348 24.300439 
L 364.208348 44.185057 
L 365.351626 44.185057 
L 365.351626 58.86161 
L 366.494905 58.86161 
L 366.494905 38.580798 
L 367.638183 38.580798 
L 367.638183 41.906995 
L 368.781462 41.906995 
L 368.781462 52.979879 
L 369.92474 52.979879 
L 369.92474 43.508951 
L 371.068019 43.508951 
L 371.068019 40.912314 
L 372.211297 40.912314 
L 372.211297 44.41501 
L 373.354575 44.41501 
L 373.354575 48.549193 
L 374.497854 48.549193 
L 374.497854 43.604805 
L 375.641132 43.604805 
L 375.641132 60.502315 
L 376.784411 60.502315 
L 376.784411 40.703783 
L 377.927689 40.703783 
L 377.927689 29.756478 
L 379.070968 29.756478 
L 379.070968 54.089685 
L 380.214246 54.089685 
L 380.214246 43.924382 
L 381.357525 43.924382 
L 381.357525 32.882414 
L 382.500803 32.882414 
L 382.500803 57.817948 
L 383.644082 57.817948 
L 383.644082 58.133882 
L 384.78736 58.133882 
L 384.78736 45.833111 
L 385.930639 45.833111 
L 385.930639 50.269837 
L 387.073917 50.269837 
L 387.073917 50.962208 
L 388.217196 50.962208 
L 388.217196 32.62494 
L 389.360474 32.62494 
L 389.360474 32.335436 
L 390.503753 32.335436 
L 390.503753 59.936901 
L 391.647031 59.936901 
L 391.647031 48.288261 
L 392.79031 48.288261 
L 392.79031 36.774203 
L 393.933588 36.774203 
L 393.933588 36.547956 
L 395.076866 36.547956 
L 395.076866 27.950118 
L 396.220145 27.950118 
L 396.220145 43.185901 
L 397.363423 43.185901 
L 397.363423 35.435994 
L 398.506702 35.435994 
L 398.506702 38.917227 
L 399.64998 38.917227 
L 399.64998 56.930685 
L 400.793259 56.930685 
L 400.793259 44.360455 
L 401.936537 44.360455 
L 401.936537 33.748936 
L 403.079816 33.748936 
L 403.079816 31.062337 
L 404.223094 31.062337 
L 404.223094 47.217054 
L 405.366373 47.217054 
L 405.366373 54.882082 
L 406.509651 54.882082 
L 406.509651 35.617367 
L 407.65293 35.617367 
L 407.65293 40.358409 
L 408.796208 40.358409 
L 408.796208 29.198882 
L 409.939487 29.198882 
L 409.939487 37.970774 
L 411.082765 37.970774 
L 411.082765 42.681926 
L 412.226044 42.681926 
L 412.226044 22.258472 
L 413.369322 22.258472 
L 413.369322 42.529299 
L 414.512601 42.529299 
L 414.512601 36.648285 
L 415.655879 36.648285 
L 415.655879 29.538906 
L 416.799157 29.538906 
L 416.799157 39.913044 
L 417.942436 39.913044 
L 417.942436 35.193629 
L 419.085714 35.193629 
L 419.085714 55.065092 
L 420.228993 55.065092 
L 420.228993 47.691383 
L 421.372271 47.691383 
L 421.372271 28.729058 
L 422.51555 28.729058 
L 422.51555 35.685491 
L 423.658828 35.685491 
L 423.658828 39.533586 
L 424.802107 39.533586 
L 424.802107 60.520539 
L 425.945385 60.520539 
L 425.945385 37.552739 
L 427.088664 37.552739 
L 427.088664 35.988732 
L 428.231942 35.988732 
L 428.231942 44.164871 
L 429.375221 44.164871 
L 429.375221 27.946653 
L 430.518499 27.946653 
L 430.518499 31.305975 
L 431.661778 31.305975 
L 431.661778 38.482369 
L 432.805056 38.482369 
L 432.805056 49.140948 
L 433.948335 49.140948 
L 433.948335 57.938182 
L 435.091613 57.938182 
L 435.091613 31.678008 
L 436.234892 31.678008 
L 436.234892 32.514342 
L 437.37817 32.514342 
L 437.37817 50.386858 
L 438.521448 50.386858 
L 438.521448 49.714264 
L 439.664727 49.714264 
L 439.664727 44.293463 
L 440.808005 44.293463 
L 440.808005 57.861302 
L 441.951284 57.861302 
L 441.951284 56.377088 
L 443.094562 56.377088 
L 443.094562 32.344166 
L 444.237841 32.344166 
L 444.237841 41.820212 
L 445.381119 41.820212 
L 445.381119 51.943323 
L 446.524398 51.943323 
L 446.524398 31.305745 
L 447.667676 31.305745 
L 447.667676 39.776112 
L 448.810955 39.776112 
L 448.810955 60.896938 
L 449.954233 60.896938 
L 449.954233 41.447137 
L 451.097512 41.447137 
L 451.097512 29.210906 
L 452.24079 29.210906 
L 452.24079 51.214124 
L 453.384069 51.214124 
L 453.384069 43.777305 
L 454.527347 43.777305 
L 454.527347 35.764289 
L 455.670626 35.764289 
L 455.670626 57.421273 
L 456.813904 57.421273 
L 456.813904 59.182865 
L 457.957183 59.182865 
L 457.957183 48.632132 
L 460.243739 48.553812 
L 460.243739 49.78632 
L 461.387018 49.78632 
L 461.387018 34.469314 
L 462.530296 34.469314 
L 462.530296 33.167179 
L 463.673575 33.167179 
L 463.673575 56.8919 
L 464.816853 56.8919 
L 464.816853 50.86164 
L 465.960132 50.86164 
L 465.960132 39.471337 
L 467.10341 39.471337 
L 467.10341 34.499693 
L 468.246689 34.499693 
L 468.246689 26.490229 
L 469.389967 26.490229 
L 469.389967 44.190399 
L 470.533246 44.190399 
L 470.533246 32.914416 
L 471.676524 32.914416 
L 471.676524 38.678365 
L 472.819803 38.678365 
L 472.819803 58.398321 
L 473.963081 58.398321 
L 473.963081 40.690206 
L 475.10636 40.690206 
L 475.10636 37.175753 
L 476.249638 37.175753 
L 476.249638 30.448906 
L 477.392917 30.448906 
L 477.392917 46.291169 
L 478.536195 46.291169 
L 478.536195 59.371827 
L 479.679474 59.371827 
L 479.679474 36.103203 
L 480.822752 36.103203 
L 480.822752 40.016118 
L 481.96603 40.016118 
L 481.96603 30.295571 
L 483.109309 30.295571 
L 483.109309 34.498907 
L 484.252587 34.498907 
L 484.252587 40.972164 
L 485.395866 40.972164 
L 485.395866 20.883628 
L 486.539144 20.883628 
L 486.539144 43.441898 
L 487.682423 43.441898 
L 487.682423 38.038262 
L 488.825701 38.038262 
L 488.825701 30.947876 
L 489.96898 30.947876 
L 489.96898 39.900883 
L 491.112258 39.900883 
L 491.112258 33.652658 
L 492.255537 33.652658 
L 492.255537 58.016841 
L 493.398815 58.016841 
L 493.398815 45.97743 
L 494.542094 45.97743 
L 494.542094 32.030355 
L 495.685372 32.030355 
L 495.685372 34.02232 
L 496.828651 34.02232 
L 496.828651 42.383984 
L 497.971929 42.383984 
L 497.971929 59.185793 
L 499.115208 59.185793 
L 499.115208 39.923656 
L 500.258486 39.923656 
L 500.258486 34.553983 
L 501.401765 34.553983 
L 501.401765 46.723309 
L 502.545043 46.723309 
L 502.545043 27.839082 
L 503.688321 27.839082 
L 503.688321 32.274492 
L 504.8316 32.274492 
L 504.8316 39.928112 
L 505.974878 39.928112 
L 505.974878 50.156217 
L 507.118157 50.156217 
L 507.118157 59.477503 
L 508.261435 59.477503 
L 508.261435 32.44903 
L 509.404714 32.44903 
L 509.404714 35.602148 
L 510.547992 35.602148 
L 510.547992 47.147422 
L 511.691271 47.147422 
L 511.691271 49.909657 
L 512.834549 49.909657 
L 512.834549 47.473589 
L 513.977828 47.473589 
L 513.977828 58.845518 
L 515.121106 58.845518 
L 515.121106 59.260826 
L 516.264385 59.260826 
L 516.264385 31.565522 
L 517.407663 31.565522 
L 517.407663 40.479517 
L 518.550942 40.479517 
L 518.550942 53.460055 
L 519.69422 53.460055 
L 519.69422 30.911209 
L 520.837499 30.911209 
L 520.837499 40.776577 
L 521.980777 40.776577 
L 521.980777 61.281108 
L 523.124056 61.281108 
L 523.124056 41.295217 
L 524.267334 41.295217 
L 524.267334 31.87818 
L 525.410612 31.87818 
L 525.410612 53.801453 
L 526.553891 53.801453 
L 526.553891 41.979156 
L 527.697169 41.979156 
L 527.697169 34.663981 
L 528.840448 34.663981 
L 528.840448 57.222485 
L 529.983726 57.222485 
L 529.983726 58.906186 
L 531.127005 58.906186 
L 531.127005 45.720533 
L 532.270283 45.720533 
L 532.270283 48.803854 
L 533.413562 48.803854 
L 533.413562 50.32377 
L 534.55684 50.32377 
L 534.55684 34.461841 
L 535.700119 34.461841 
L 535.700119 30.286932 
L 536.843397 30.286932 
L 536.843397 62.516372 
L 537.986676 62.516372 
L 537.986676 52.503693 
L 539.129954 52.503693 
L 539.129954 38.166936 
L 540.273233 38.166936 
L 540.273233 34.55855 
L 541.416511 34.55855 
L 541.416511 26.504994 
L 542.55979 26.504994 
L 542.55979 44.945359 
L 543.703068 44.945359 
L 543.703068 36.590276 
L 544.846347 36.590276 
L 544.846347 37.67606 
L 545.989625 37.67606 
L 545.989625 60.124538 
L 547.132903 60.124538 
L 547.132903 45.196264 
L 548.276182 45.196264 
L 548.276182 34.911189 
L 549.41946 34.911189 
L 549.41946 32.081351 
L 550.562739 32.081351 
L 550.562739 47.865323 
L 551.706017 47.865323 
L 551.706017 56.950225 
L 552.849296 56.950225 
L 552.849296 34.732517 
L 553.992574 34.732517 
L 553.992574 39.25908 
L 555.135853 39.25908 
L 555.135853 29.449723 
L 556.279131 29.449723 
L 556.279131 37.267233 
L 557.42241 37.267233 
L 557.42241 40.987895 
L 557.42241 40.987895 
" clip-path="url(#pa16f0cc698)" style="fill: none; stroke: #a1c9f4"/>
   </g>
   <g id="patch_3">
    <path d="M 16.914646 63.765354 
L 16.914646 19.634646 
" style="fill: none; stroke: #adb2b7; stroke-linejoin: miter; stroke-linecap: square"/>
   </g>
   <g id="patch_4">
    <path d="M 16.914646 63.765354 
L 573.165354 63.765354 
" style="fill: none; stroke: #adb2b7; stroke-linejoin: miter; stroke-linecap: square"/>
   </g>
   <g id="text_2">
    <!-- Estadístico Delay and Correlate -->
    <g style="fill: #adb2b7" transform="translate(182.119062 13.634646) scale(0.14 -0.14)">
     <defs>
      <path id="DejaVuSerif-45" d="M 353 0 
L 353 331 
L 947 331 
L 947 4331 
L 353 4331 
L 353 4666 
L 4109 4666 
L 4109 3628 
L 3725 3628 
L 3725 4281 
L 1581 4281 
L 1581 2719 
L 3109 2719 
L 3109 3303 
L 3494 3303 
L 3494 1753 
L 3109 1753 
L 3109 2338 
L 1581 2338 
L 1581 384 
L 3775 384 
L 3775 1038 
L 4159 1038 
L 4159 0 
L 353 0 
z
" transform="scale(0.015625)"/>
      <path id="DejaVuSerif-73" d="M 359 184 
L 359 959 
L 691 959 
Q 703 588 923 403 
Q 1144 219 1575 219 
Q 1963 219 2166 364 
Q 2369 509 2369 788 
Q 2369 1006 2220 1140 
Q 2072 1275 1594 1428 
L 1178 1569 
Q 750 1706 558 1912 
Q 366 2119 366 2438 
Q 366 2894 700 3153 
Q 1034 3413 1625 3413 
Q 1888 3413 2178 3344 
Q 2469 3275 2778 3144 
L 2778 2419 
L 2447 2419 
Q 2434 2741 2221 2922 
Q 2009 3103 1644 3103 
Q 1281 3103 1095 2975 
Q 909 2847 909 2591 
Q 909 2381 1050 2254 
Q 1191 2128 1613 1997 
L 2069 1856 
Q 2541 1709 2748 1489 
Q 2956 1269 2956 922 
Q 2956 450 2595 179 
Q 2234 -91 1600 -91 
Q 1278 -91 972 -22 
Q 666 47 359 184 
z
" transform="scale(0.015625)"/>
      <path id="DejaVuSerif-74" d="M 691 2988 
L 184 2988 
L 184 3322 
L 691 3322 
L 691 4353 
L 1269 4353 
L 1269 3322 
L 2350 3322 
L 2350 2988 
L 1269 2988 
L 1269 878 
Q 1269 456 1350 337 
Q 1431 219 1650 219 
Q 1875 219 1978 351 
Q 2081 484 2088 781 
L 2522 781 
Q 2497 328 2275 118 
Q 2053 -91 1600 -91 
Q 1103 -91 897 129 
Q 691 350 691 878 
L 691 2988 
z
" transform="scale(0.015625)"/>
      <path id="DejaVuSerif-64" d="M 3359 331 
L 3909 331 
L 3909 0 
L 2784 0 
L 2784 519 
Q 2616 206 2355 57 
Q 2094 -91 1709 -91 
Q 1097 -91 708 395 
Q 319 881 319 1663 
Q 319 2444 706 2928 
Q 1094 3413 1709 3413 
Q 2094 3413 2355 3264 
Q 2616 3116 2784 2803 
L 2784 4531 
L 2241 4531 
L 2241 4863 
L 3359 4863 
L 3359 331 
z
M 2784 1497 
L 2784 1825 
Q 2784 2422 2554 2737 
Q 2325 3053 1888 3053 
Q 1444 3053 1217 2703 
Q 991 2353 991 1663 
Q 991 975 1217 622 
Q 1444 269 1888 269 
Q 2325 269 2554 583 
Q 2784 897 2784 1497 
z
" transform="scale(0.015625)"/>
      <path id="DejaVuSerif-ed" d="M 1356 331 
L 1900 331 
L 1900 0 
L 231 0 
L 231 331 
L 781 331 
L 781 2988 
L 231 2988 
L 231 3322 
L 1356 3322 
L 1356 331 
z
M 1458 5119 
L 2080 5119 
L 1018 3944 
L 652 3944 
L 1458 5119 
z
" transform="scale(0.015625)"/>
      <path id="DejaVuSerif-69" d="M 622 4353 
Q 622 4497 726 4603 
Q 831 4709 978 4709 
Q 1122 4709 1226 4603 
Q 1331 4497 1331 4353 
Q 1331 4206 1228 4103 
Q 1125 4000 978 4000 
Q 831 4000 726 4103 
Q 622 4206 622 4353 
z
M 1356 331 
L 1900 331 
L 1900 0 
L 231 0 
L 231 331 
L 781 331 
L 781 2988 
L 231 2988 
L 231 3322 
L 1356 3322 
L 1356 331 
z
" transform="scale(0.015625)"/>
      <path id="DejaVuSerif-6f" d="M 1925 219 
Q 2388 219 2623 584 
Q 2859 950 2859 1663 
Q 2859 2375 2623 2739 
Q 2388 3103 1925 3103 
Q 1463 3103 1227 2739 
Q 991 2375 991 1663 
Q 991 950 1228 584 
Q 1466 219 1925 219 
z
M 1925 -91 
Q 1200 -91 759 389 
Q 319 869 319 1663 
Q 319 2456 758 2934 
Q 1197 3413 1925 3413 
Q 2653 3413 3092 2934 
Q 3531 2456 3531 1663 
Q 3531 869 3092 389 
Q 2653 -91 1925 -91 
z
" transform="scale(0.015625)"/>
      <path id="DejaVuSerif-44" d="M 1581 331 
L 2163 331 
Q 3072 331 3558 850 
Q 4044 1369 4044 2338 
Q 4044 3306 3559 3818 
Q 3075 4331 2163 4331 
L 1581 4331 
L 1581 331 
z
M 353 0 
L 353 331 
L 947 331 
L 947 4331 
L 353 4331 
L 353 4666 
L 2209 4666 
Q 3416 4666 4089 4050 
Q 4763 3434 4763 2338 
Q 4763 1238 4088 619 
Q 3413 0 2209 0 
L 353 0 
z
" transform="scale(0.015625)"/>
      <path id="DejaVuSerif-65" d="M 3469 1600 
L 991 1600 
L 991 1575 
Q 991 903 1244 561 
Q 1497 219 1991 219 
Q 2369 219 2611 417 
Q 2853 616 2950 1006 
L 3413 1006 
Q 3275 459 2904 184 
Q 2534 -91 1931 -91 
Q 1203 -91 761 389 
Q 319 869 319 1663 
Q 319 2450 753 2931 
Q 1188 3413 1894 3413 
Q 2647 3413 3050 2948 
Q 3453 2484 3469 1600 
z
M 2791 1931 
Q 2772 2513 2545 2808 
Q 2319 3103 1894 3103 
Q 1497 3103 1269 2806 
Q 1041 2509 991 1931 
L 2791 1931 
z
" transform="scale(0.015625)"/>
      <path id="DejaVuSerif-79" d="M 1381 -609 
L 1600 -56 
L 359 2988 
L -19 2988 
L -19 3322 
L 1509 3322 
L 1509 2988 
L 978 2988 
L 1913 703 
L 2847 2988 
L 2350 2988 
L 2350 3322 
L 3597 3322 
L 3597 2988 
L 3225 2988 
L 1703 -750 
Q 1547 -1138 1356 -1280 
Q 1166 -1422 819 -1422 
Q 672 -1422 517 -1397 
Q 363 -1372 206 -1325 
L 206 -691 
L 500 -691 
Q 519 -903 608 -995 
Q 697 -1088 884 -1088 
Q 1056 -1088 1161 -992 
Q 1266 -897 1381 -609 
z
" transform="scale(0.015625)"/>
      <path id="DejaVuSerif-43" d="M 4513 1234 
Q 4306 581 3820 245 
Q 3334 -91 2591 -91 
Q 2134 -91 1743 65 
Q 1353 222 1050 525 
Q 700 875 529 1320 
Q 359 1766 359 2328 
Q 359 3416 987 4083 
Q 1616 4750 2644 4750 
Q 3025 4750 3456 4650 
Q 3888 4550 4384 4347 
L 4384 3272 
L 4031 3272 
Q 3916 3859 3567 4137 
Q 3219 4416 2591 4416 
Q 1844 4416 1459 3886 
Q 1075 3356 1075 2328 
Q 1075 1303 1459 773 
Q 1844 244 2591 244 
Q 3113 244 3450 492 
Q 3788 741 3938 1234 
L 4513 1234 
z
" transform="scale(0.015625)"/>
      <path id="DejaVuSerif-72" d="M 3059 3328 
L 3059 2497 
L 2728 2497 
Q 2713 2744 2591 2866 
Q 2469 2988 2234 2988 
Q 1809 2988 1582 2694 
Q 1356 2400 1356 1850 
L 1356 331 
L 2022 331 
L 2022 0 
L 263 0 
L 263 331 
L 781 331 
L 781 2994 
L 231 2994 
L 231 3322 
L 1356 3322 
L 1356 2731 
Q 1525 3078 1790 3245 
Q 2056 3413 2438 3413 
Q 2578 3413 2733 3391 
Q 2888 3369 3059 3328 
z
" transform="scale(0.015625)"/>
     </defs>
     <use xlink:href="#DejaVuSerif-45"/>
     <use xlink:href="#DejaVuSerif-73" x="72.998047"/>
     <use xlink:href="#DejaVuSerif-74" x="124.316406"/>
     <use xlink:href="#DejaVuSerif-61" x="164.501953"/>
     <use xlink:href="#DejaVuSerif-64" x="224.121094"/>
     <use xlink:href="#DejaVuSerif-ed" x="288.134766"/>
     <use xlink:href="#DejaVuSerif-73" x="320.117188"/>
     <use xlink:href="#DejaVuSerif-74" x="371.435547"/>
     <use xlink:href="#DejaVuSerif-69" x="411.621094"/>
     <use xlink:href="#DejaVuSerif-63" x="443.603516"/>
     <use xlink:href="#DejaVuSerif-6f" x="499.609375"/>
     <use xlink:href="#DejaVuSerif-20" x="559.814453"/>
     <use xlink:href="#DejaVuSerif-44" x="591.601562"/>
     <use xlink:href="#DejaVuSerif-65" x="671.777344"/>
     <use xlink:href="#DejaVuSerif-6c" x="730.957031"/>
     <use xlink:href="#DejaVuSerif-61" x="762.939453"/>
     <use xlink:href="#DejaVuSerif-79" x="822.558594"/>
     <use xlink:href="#DejaVuSerif-20" x="879.052734"/>
     <use xlink:href="#DejaVuSerif-61" x="910.839844"/>
     <use xlink:href="#DejaVuSerif-6e" x="970.458984"/>
     <use xlink:href="#DejaVuSerif-64" x="1034.863281"/>
     <use xlink:href="#DejaVuSerif-20" x="1098.876953"/>
     <use xlink:href="#DejaVuSerif-43" x="1130.664062"/>
     <use xlink:href="#DejaVuSerif-6f" x="1207.177734"/>
     <use xlink:href="#DejaVuSerif-72" x="1267.382812"/>
     <use xlink:href="#DejaVuSerif-72" x="1315.185547"/>
     <use xlink:href="#DejaVuSerif-65" x="1362.988281"/>
     <use xlink:href="#DejaVuSerif-6c" x="1422.167969"/>
     <use xlink:href="#DejaVuSerif-61" x="1454.150391"/>
     <use xlink:href="#DejaVuSerif-74" x="1513.769531"/>
     <use xlink:href="#DejaVuSerif-65" x="1553.955078"/>
    </g>
   </g>
  </g>
  <g id="axes_2">
   <g id="patch_5">
    <path d="M 16.914646 113.565354 
L 573.165354 113.565354 
L 573.165354 69.434646 
L 16.914646 69.434646 
z
" style="fill: #21252b"/>
   </g>
   <g id="matplotlib.axis_3"/>
   <g id="matplotlib.axis_4">
    <g id="text_3">
     <!-- canal Q -->
     <g style="fill: #9eb1be" transform="translate(10.626989 112.697344) rotate(-90) scale(0.11 -0.11)">
      <defs>
       <path id="DejaVuSerif-51" d="M 2700 -91 
Q 1628 -91 993 567 
Q 359 1225 359 2328 
Q 359 2894 529 3339 
Q 700 3784 1050 4134 
Q 1356 4441 1750 4595 
Q 2144 4750 2625 4750 
Q 3641 4750 4266 4084 
Q 4891 3419 4891 2328 
Q 4891 1403 4422 773 
Q 3953 144 3128 -38 
Q 3297 -247 3539 -347 
Q 3781 -447 4122 -447 
L 4219 -447 
L 4219 -1025 
Q 3691 -1000 3314 -767 
Q 2938 -534 2700 -91 
z
M 2625 244 
Q 3391 244 3781 770 
Q 4172 1297 4172 2328 
Q 4172 3363 3781 3889 
Q 3391 4416 2625 4416 
Q 1856 4416 1465 3889 
Q 1075 3363 1075 2328 
Q 1075 1297 1465 770 
Q 1856 244 2625 244 
z
" transform="scale(0.015625)"/>
      </defs>
      <use xlink:href="#DejaVuSerif-63"/>
      <use xlink:href="#DejaVuSerif-61" x="56.005859"/>
      <use xlink:href="#DejaVuSerif-6e" x="115.625"/>
      <use xlink:href="#DejaVuSerif-61" x="180.029297"/>
      <use xlink:href="#DejaVuSerif-6c" x="239.648438"/>
      <use xlink:href="#DejaVuSerif-20" x="271.630859"/>
      <use xlink:href="#DejaVuSerif-51" x="303.417969"/>
     </g>
    </g>
   </g>
   <g id="line2d_2">
    <path d="M 32.65759 93.68673 
L 33.800869 93.68673 
L 33.800869 94.034524 
L 34.944147 94.034524 
L 34.944147 93.890945 
L 36.087426 93.890945 
L 36.087426 90.428292 
L 37.230704 90.428292 
L 37.230704 93.468688 
L 39.517261 93.559858 
L 39.517261 89.289763 
L 40.66054 89.289763 
L 40.66054 90.969723 
L 41.803818 90.969723 
L 41.803818 91.522917 
L 42.947097 91.522917 
L 42.947097 90.916103 
L 44.090375 90.916103 
L 44.090375 94.465934 
L 45.233653 94.465934 
L 45.233653 91.45038 
L 46.376932 91.45038 
L 46.376932 91.286271 
L 47.52021 91.286271 
L 47.52021 92.241149 
L 48.663489 92.241149 
L 48.663489 91.564727 
L 49.806767 91.564727 
L 49.806767 92.427551 
L 53.236603 92.391082 
L 53.236603 92.882684 
L 54.379881 92.882684 
L 54.379881 89.814185 
L 55.52316 89.814185 
L 55.52316 92.590327 
L 56.666438 92.590327 
L 56.666438 91.214205 
L 57.809717 91.214205 
L 57.809717 92.408481 
L 60.096274 92.509994 
L 60.096274 93.811892 
L 61.239552 93.811892 
L 61.239552 89.618496 
L 62.382831 89.618496 
L 62.382831 93.104825 
L 63.526109 93.104825 
L 63.526109 90.583028 
L 64.669388 90.583028 
L 64.669388 92.229431 
L 65.812666 92.229431 
L 65.812666 92.509586 
L 66.955944 92.509586 
L 66.955944 92.371385 
L 68.099223 92.371385 
L 68.099223 90.669092 
L 69.242501 90.669092 
L 69.242501 92.06478 
L 70.38578 92.06478 
L 70.38578 91.492839 
L 71.529058 91.492839 
L 71.529058 94.406201 
L 72.672337 94.406201 
L 72.672337 91.466791 
L 73.815615 91.466791 
L 73.815615 93.320656 
L 74.958894 93.320656 
L 74.958894 92.567167 
L 76.102172 92.567167 
L 76.102172 93.465354 
L 77.245451 93.465354 
L 77.245451 92.151724 
L 78.388729 92.151724 
L 78.388729 93.782964 
L 79.532008 93.782964 
L 79.532008 92.359091 
L 80.675286 92.359091 
L 80.675286 92.00989 
L 81.818565 92.00989 
L 81.818565 92.954659 
L 82.961843 92.954659 
L 82.961843 89.010359 
L 84.105122 89.010359 
L 84.105122 91.425518 
L 85.2484 91.425518 
L 85.2484 89.971844 
L 86.391679 89.971844 
L 86.391679 91.879077 
L 87.534957 91.879077 
L 87.534957 93.421095 
L 88.678235 93.421095 
L 88.678235 90.033776 
L 89.821514 90.033776 
L 89.821514 91.828025 
L 90.964792 91.828025 
L 90.964792 92.493636 
L 92.108071 92.493636 
L 92.108071 94.877029 
L 93.251349 94.877029 
L 93.251349 94.357049 
L 94.394628 94.357049 
L 94.394628 93.371802 
L 95.537906 93.371802 
L 95.537906 93.780005 
L 96.681185 93.780005 
L 96.681185 92.292933 
L 98.967742 92.270222 
L 98.967742 93.430666 
L 100.11102 93.430666 
L 100.11102 93.123457 
L 101.254299 93.123457 
L 101.254299 92.685941 
L 102.397577 92.685941 
L 102.397577 93.333438 
L 103.540856 93.333438 
L 103.540856 90.448063 
L 104.684134 90.448063 
L 104.684134 92.498509 
L 105.827413 92.498509 
L 105.827413 92.009973 
L 106.970691 92.009973 
L 106.970691 91.298931 
L 108.11397 91.298931 
L 108.11397 92.283098 
L 109.257248 92.283098 
L 109.257248 94.914131 
L 110.400526 94.914131 
L 110.400526 92.340494 
L 111.543805 92.340494 
L 111.543805 93.172316 
L 112.687083 93.172316 
L 112.687083 90.624976 
L 113.830362 90.624976 
L 113.830362 92.73992 
L 114.97364 92.73992 
L 114.97364 90.959337 
L 117.260197 91.006137 
L 117.260197 93.085482 
L 118.403476 93.085482 
L 118.403476 91.87616 
L 119.546754 91.87616 
L 119.546754 91.288978 
L 120.690033 91.288978 
L 120.690033 90.558393 
L 121.833311 90.558393 
L 121.833311 92.853971 
L 122.97659 92.853971 
L 122.97659 91.554817 
L 124.119868 91.554817 
L 124.119868 89.266964 
L 125.263147 89.266964 
L 125.263147 93.305648 
L 126.406425 93.305648 
L 126.406425 93.449954 
L 127.549704 93.449954 
L 127.549704 91.186513 
L 128.692982 91.186513 
L 128.692982 91.823791 
L 130.979539 91.902656 
L 130.979539 92.159314 
L 132.122817 92.159314 
L 132.122817 92.524253 
L 133.266096 92.524253 
L 133.266096 92.06541 
L 134.409374 92.06541 
L 134.409374 92.351253 
L 135.552653 92.351253 
L 135.552653 91.85222 
L 136.695931 91.85222 
L 136.695931 90.939135 
L 137.83921 90.939135 
L 137.83921 92.862092 
L 138.982488 92.862092 
L 138.982488 93.615061 
L 141.269045 93.63336 
L 141.269045 91.554844 
L 142.412324 91.554844 
L 142.412324 91.892051 
L 143.555602 91.892051 
L 143.555602 92.307193 
L 145.842159 92.401482 
L 145.842159 91.831145 
L 146.985438 91.831145 
L 146.985438 92.27217 
L 148.128716 92.27217 
L 148.128716 93.602734 
L 149.271995 93.602734 
L 149.271995 90.409715 
L 150.415273 90.409715 
L 150.415273 90.529406 
L 151.558552 90.529406 
L 151.558552 93.533499 
L 152.70183 93.533499 
L 152.70183 91.388856 
L 153.845108 91.388856 
L 153.845108 92.706197 
L 154.988387 92.706197 
L 154.988387 91.592186 
L 157.274944 91.660051 
L 157.274944 93.476269 
L 158.418222 93.476269 
L 158.418222 90.531017 
L 159.561501 90.531017 
L 159.561501 93.558214 
L 160.704779 93.558214 
L 160.704779 92.003808 
L 161.848058 92.003808 
L 161.848058 92.948862 
L 162.991336 92.948862 
L 162.991336 92.036343 
L 164.134615 92.036343 
L 164.134615 93.40551 
L 165.277893 93.40551 
L 165.277893 92.337009 
L 166.421172 92.337009 
L 166.421172 92.648413 
L 167.56445 92.648413 
L 167.56445 93.129295 
L 168.707729 93.129295 
L 168.707729 91.478775 
L 169.851007 91.478775 
L 169.851007 92.501454 
L 170.994286 92.501454 
L 170.994286 90.435159 
L 172.137564 90.435159 
L 172.137564 91.984008 
L 173.280843 91.984008 
L 173.280843 92.83414 
L 174.424121 92.83414 
L 174.424121 92.168419 
L 175.567399 92.168419 
L 175.567399 93.523223 
L 176.710678 93.523223 
L 176.710678 91.969927 
L 177.853956 91.969927 
L 177.853956 92.557423 
L 178.997235 92.557423 
L 178.997235 90.939111 
L 180.140513 90.939111 
L 180.140513 89.9564 
L 181.283792 89.9564 
L 181.283792 91.147637 
L 182.42707 91.147637 
L 182.42707 93.410993 
L 183.570349 93.410993 
L 183.570349 92.84283 
L 184.713627 92.84283 
L 184.713627 91.547604 
L 185.856906 91.547604 
L 185.856906 93.435306 
L 187.000184 93.435306 
L 187.000184 93.200311 
L 188.143463 93.200311 
L 188.143463 91.482657 
L 189.286741 91.482657 
L 189.286741 92.501966 
L 191.573298 92.598767 
L 191.573298 91.788716 
L 192.716577 91.788716 
L 192.716577 86.823564 
L 193.859855 86.823564 
L 193.859855 94.704208 
L 195.003134 94.704208 
L 195.003134 103.18562 
L 196.146412 103.18562 
L 196.146412 96.075563 
L 197.28969 96.075563 
L 197.28969 90.655252 
L 198.432969 90.655252 
L 198.432969 94.309191 
L 199.576247 94.309191 
L 199.576247 100.886872 
L 200.719526 100.886872 
L 200.719526 91.234008 
L 201.862804 91.234008 
L 201.862804 87.600987 
L 203.006083 87.600987 
L 203.006083 107.291178 
L 204.149361 107.291178 
L 204.149361 95.300525 
L 205.29264 95.300525 
L 205.29264 74.867035 
L 206.435918 74.867035 
L 206.435918 79.751409 
L 207.579197 79.751409 
L 207.579197 75.948315 
L 208.722475 75.948315 
L 208.722475 93.841387 
L 209.865754 93.841387 
L 209.865754 107.849946 
L 211.009032 107.849946 
L 211.009032 86.982033 
L 212.152311 86.982033 
L 212.152311 94.988921 
L 213.295589 94.988921 
L 213.295589 101.782083 
L 214.438868 101.782083 
L 214.438868 93.29671 
L 215.582146 93.29671 
L 215.582146 90.512661 
L 216.725425 90.512661 
L 216.725425 95.169085 
L 217.868703 95.169085 
L 217.868703 103.032107 
L 219.011981 103.032107 
L 219.011981 91.568989 
L 220.15526 91.568989 
L 220.15526 86.449486 
L 221.298538 86.449486 
L 221.298538 107.694285 
L 222.441817 107.694285 
L 222.441817 93.382794 
L 223.585095 93.382794 
L 223.585095 75.920564 
L 224.728374 75.920564 
L 224.728374 82.107893 
L 225.871652 82.107893 
L 225.871652 76.316051 
L 227.014931 76.316051 
L 227.014931 91.925128 
L 228.158209 91.925128 
L 228.158209 107.720668 
L 229.301488 107.720668 
L 229.301488 86.547541 
L 230.444766 86.547541 
L 230.444766 91.643288 
L 231.588045 91.643288 
L 231.588045 101.103789 
L 232.731323 101.103789 
L 232.731323 93.186271 
L 233.874602 93.186271 
L 233.874602 92.252856 
L 235.01788 92.252856 
L 235.01788 94.031849 
L 236.161159 94.031849 
L 236.161159 102.814611 
L 237.304437 102.814611 
L 237.304437 92.20543 
L 238.447716 92.20543 
L 238.447716 87.785472 
L 239.590994 87.785472 
L 239.590994 109.09454 
L 240.734272 109.09454 
L 240.734272 94.702342 
L 241.877551 94.702342 
L 241.877551 74.210875 
L 243.020829 74.210875 
L 243.020829 79.49994 
L 244.164108 79.49994 
L 244.164108 75.758362 
L 245.307386 75.758362 
L 245.307386 92.078856 
L 246.450665 92.078856 
L 246.450665 105.84122 
L 247.593943 105.84122 
L 247.593943 84.164433 
L 248.737222 84.164433 
L 248.737222 92.618153 
L 249.8805 92.618153 
L 249.8805 104.339118 
L 251.023779 104.339118 
L 251.023779 92.686082 
L 252.167057 92.686082 
L 252.167057 92.034385 
L 253.310336 92.034385 
L 253.310336 93.365693 
L 254.453614 93.365693 
L 254.453614 102.145453 
L 255.596893 102.145453 
L 255.596893 92.298753 
L 256.740171 92.298753 
L 256.740171 88.207939 
L 257.88345 88.207939 
L 257.88345 109.768599 
L 259.026728 109.768599 
L 259.026728 93.702732 
L 260.170007 93.702732 
L 260.170007 73.475043 
L 261.313285 73.475043 
L 261.313285 81.45898 
L 262.456563 81.45898 
L 262.456563 75.064259 
L 263.599842 75.064259 
L 263.599842 93.938777 
L 264.74312 93.938777 
L 264.74312 108.489186 
L 265.886399 108.489186 
L 265.886399 87.45265 
L 267.029677 87.45265 
L 267.029677 92.832117 
L 268.172956 92.832117 
L 268.172956 103.960849 
L 269.316234 103.960849 
L 269.316234 93.858989 
L 270.459513 93.858989 
L 270.459513 92.522807 
L 271.602791 92.522807 
L 271.602791 95.52926 
L 272.74607 95.52926 
L 272.74607 104.146193 
L 273.889348 104.146193 
L 273.889348 91.705994 
L 275.032627 91.705994 
L 275.032627 85.786989 
L 276.175905 85.786989 
L 276.175905 107.556426 
L 277.319184 107.556426 
L 277.319184 96.02614 
L 278.462462 96.02614 
L 278.462462 74.193317 
L 279.605741 74.193317 
L 279.605741 81.3286 
L 280.749019 81.3286 
L 280.749019 76.833169 
L 281.892298 76.833169 
L 281.892298 93.436569 
L 283.035576 93.436569 
L 283.035576 109.155195 
L 284.178854 109.155195 
L 284.178854 84.869328 
L 285.322133 84.869328 
L 285.322133 92.21344 
L 286.465411 92.21344 
L 286.465411 99.240864 
L 287.60869 99.240864 
L 287.60869 93.515042 
L 288.751968 93.515042 
L 288.751968 92.54684 
L 289.895247 92.54684 
L 289.895247 92.381032 
L 291.038525 92.381032 
L 291.038525 101.89193 
L 292.181804 101.89193 
L 292.181804 90.859065 
L 293.325082 90.859065 
L 293.325082 87.860419 
L 294.468361 87.860419 
L 294.468361 109.123719 
L 295.611639 109.123719 
L 295.611639 93.375743 
L 296.754918 93.375743 
L 296.754918 73.84057 
L 297.898196 73.84057 
L 297.898196 80.929443 
L 299.041475 80.929443 
L 299.041475 73.848317 
L 300.184753 73.848317 
L 300.184753 92.307938 
L 301.328032 92.307938 
L 301.328032 107.175035 
L 302.47131 107.175035 
L 302.47131 88.079514 
L 303.614589 88.079514 
L 303.614589 91.218323 
L 304.757867 91.218323 
L 304.757867 101.876299 
L 305.901146 101.876299 
L 305.901146 93.774653 
L 307.044424 93.774653 
L 307.044424 91.562606 
L 308.187702 91.562606 
L 308.187702 94.821861 
L 309.330981 94.821861 
L 309.330981 102.45011 
L 310.474259 102.45011 
L 310.474259 92.906636 
L 311.617538 92.906636 
L 311.617538 85.642062 
L 312.760816 85.642062 
L 312.760816 106.099636 
L 313.904095 106.099636 
L 313.904095 94.710878 
L 315.047373 94.710878 
L 315.047373 75.713124 
L 316.190652 75.713124 
L 316.190652 83.532967 
L 317.33393 83.532967 
L 317.33393 75.174218 
L 318.477209 75.174218 
L 318.477209 93.139682 
L 319.620487 93.139682 
L 319.620487 109.896778 
L 320.763766 109.896778 
L 320.763766 86.149035 
L 321.907044 86.149035 
L 321.907044 91.249028 
L 323.050323 91.249028 
L 323.050323 100.696447 
L 324.193601 100.696447 
L 324.193601 93.303721 
L 325.33688 93.303721 
L 325.33688 92.654248 
L 326.480158 92.654248 
L 326.480158 92.941227 
L 327.623437 92.941227 
L 327.623437 101.008124 
L 328.766715 101.008124 
L 328.766715 91.010392 
L 329.909993 91.010392 
L 329.909993 88.621804 
L 331.053272 88.621804 
L 331.053272 106.866409 
L 332.19655 106.866409 
L 332.19655 95.555453 
L 333.339829 95.555453 
L 333.339829 76.707991 
L 334.483107 76.707991 
L 334.483107 79.966222 
L 335.626386 79.966222 
L 335.626386 75.81867 
L 336.769664 75.81867 
L 336.769664 92.583492 
L 337.912943 92.583492 
L 337.912943 108.436105 
L 339.056221 108.436105 
L 339.056221 87.908233 
L 340.1995 87.908233 
L 340.1995 91.756296 
L 341.342778 91.756296 
L 341.342778 102.316183 
L 342.486057 102.316183 
L 342.486057 92.877401 
L 343.629335 92.877401 
L 343.629335 90.590802 
L 344.772614 90.590802 
L 344.772614 93.510608 
L 345.915892 93.510608 
L 345.915892 100.985076 
L 347.059171 100.985076 
L 347.059171 92.234774 
L 348.202449 92.234774 
L 348.202449 85.507545 
L 349.345728 85.507545 
L 349.345728 108.550436 
L 350.489006 108.550436 
L 350.489006 94.850892 
L 351.632284 94.850892 
L 351.632284 74.559051 
L 352.775563 74.559051 
L 352.775563 81.187576 
L 353.918841 81.187576 
L 353.918841 76.458128 
L 355.06212 76.458128 
L 355.06212 93.772657 
L 356.205398 93.772657 
L 356.205398 107.64459 
L 357.348677 107.64459 
L 357.348677 85.712814 
L 358.491955 85.712814 
L 358.491955 93.755976 
L 359.635234 93.755976 
L 359.635234 102.783858 
L 360.778512 102.783858 
L 360.778512 94.634908 
L 361.921791 94.634908 
L 361.921791 93.26659 
L 364.208348 93.22524 
L 364.208348 99.896369 
L 365.351626 99.896369 
L 365.351626 93.452362 
L 366.494905 93.452362 
L 366.494905 86.085896 
L 367.638183 86.085896 
L 367.638183 106.393203 
L 368.781462 106.393203 
L 368.781462 91.898573 
L 369.92474 91.898573 
L 369.92474 73.821793 
L 371.068019 73.821793 
L 371.068019 82.223378 
L 372.211297 82.223378 
L 372.211297 76.577685 
L 373.354575 76.577685 
L 373.354575 93.775074 
L 374.497854 93.775074 
L 374.497854 109.949442 
L 375.641132 109.949442 
L 375.641132 92.566577 
L 376.784411 92.566577 
L 376.784411 105.819699 
L 377.927689 105.819699 
L 377.927689 106.313405 
L 379.070968 106.313405 
L 379.070968 108.365577 
L 380.214246 108.365577 
L 380.214246 100.511287 
L 381.357525 100.511287 
L 381.357525 83.138852 
L 382.500803 83.138852 
L 382.500803 89.573595 
L 383.644082 89.573595 
L 383.644082 92.257227 
L 384.78736 92.257227 
L 384.78736 74.566614 
L 385.930639 74.566614 
L 385.930639 88.538622 
L 387.073917 88.538622 
L 387.073917 103.064651 
L 388.217196 103.064651 
L 388.217196 94.187257 
L 389.360474 94.187257 
L 389.360474 101.503395 
L 390.503753 101.503395 
L 390.503753 101.221794 
L 391.647031 101.221794 
L 391.647031 94.527813 
L 392.79031 94.527813 
L 392.79031 102.048649 
L 393.933588 102.048649 
L 393.933588 84.497705 
L 395.076866 84.497705 
L 395.076866 92.420092 
L 396.220145 92.420092 
L 396.220145 112.316372 
L 397.363423 112.316372 
L 397.363423 91.180071 
L 398.506702 91.180071 
L 398.506702 85.183925 
L 399.64998 85.183925 
L 399.64998 89.063668 
L 400.793259 89.063668 
L 400.793259 80.351784 
L 401.936537 80.351784 
L 401.936537 91.950671 
L 403.079816 91.950671 
L 403.079816 89.111573 
L 404.223094 89.111573 
L 404.223094 80.167158 
L 405.366373 80.167158 
L 405.366373 84.412295 
L 406.509651 84.412295 
L 406.509651 82.547061 
L 407.65293 82.547061 
L 407.65293 98.227528 
L 408.796208 98.227528 
L 408.796208 102.108065 
L 409.939487 102.108065 
L 409.939487 78.222719 
L 411.082765 78.222719 
L 411.082765 77.47184 
L 412.226044 77.47184 
L 412.226044 92.677891 
L 413.369322 92.677891 
L 413.369322 107.135935 
L 414.512601 107.135935 
L 414.512601 104.906825 
L 415.655879 104.906825 
L 415.655879 80.098206 
L 416.799157 80.098206 
L 416.799157 88.151255 
L 417.942436 88.151255 
L 417.942436 103.7309 
L 419.085714 103.7309 
L 419.085714 99.137339 
L 420.228993 99.137339 
L 420.228993 104.41532 
L 421.372271 104.41532 
L 421.372271 95.624937 
L 422.51555 95.624937 
L 422.51555 92.786041 
L 423.658828 92.786041 
L 423.658828 107.557456 
L 424.802107 107.557456 
L 424.802107 98.16986 
L 425.945385 98.16986 
L 425.945385 100.005978 
L 427.088664 100.005978 
L 427.088664 92.49327 
L 428.231942 92.49327 
L 428.231942 70.683628 
L 429.375221 70.683628 
L 429.375221 93.301875 
L 430.518499 93.301875 
L 430.518499 100.339206 
L 431.661778 100.339206 
L 431.661778 80.373463 
L 432.805056 80.373463 
L 432.805056 89.524308 
L 433.948335 89.524308 
L 433.948335 85.9751 
L 435.091613 85.9751 
L 435.091613 80.455829 
L 436.234892 80.455829 
L 436.234892 89.791431 
L 437.37817 89.791431 
L 437.37817 81.41744 
L 438.521448 81.41744 
L 438.521448 91.979435 
L 439.664727 91.979435 
L 439.664727 109.960253 
L 440.808005 109.960253 
L 440.808005 91.755299 
L 441.951284 91.755299 
L 441.951284 94.943732 
L 443.094562 94.943732 
L 443.094562 103.003133 
L 444.237841 103.003133 
L 444.237841 84.187206 
L 445.381119 84.187206 
L 445.381119 78.221245 
L 446.524398 78.221245 
L 446.524398 77.408636 
L 447.667676 77.408636 
L 447.667676 82.764299 
L 448.810955 82.764299 
L 448.810955 93.457587 
L 449.954233 93.457587 
L 449.954233 104.688311 
L 451.097512 104.688311 
L 451.097512 103.918354 
L 452.24079 103.918354 
L 452.24079 104.588032 
L 453.384069 104.588032 
L 453.384069 99.012617 
L 454.527347 99.012617 
L 454.527347 83.988787 
L 455.670626 83.988787 
L 455.670626 90.082125 
L 456.813904 90.082125 
L 456.813904 88.895201 
L 457.957183 88.895201 
L 457.957183 73.369745 
L 459.100461 73.369745 
L 459.100461 89.006013 
L 460.243739 89.006013 
L 460.243739 101.04615 
L 461.387018 101.04615 
L 461.387018 93.261163 
L 462.530296 93.261163 
L 462.530296 104.650891 
L 463.673575 104.650891 
L 463.673575 99.0539 
L 464.816853 99.0539 
L 464.816853 98.865081 
L 465.960132 98.865081 
L 465.960132 103.748211 
L 467.10341 103.748211 
L 467.10341 85.491951 
L 468.246689 85.491951 
L 468.246689 92.56581 
L 469.389967 92.56581 
L 469.389967 111.933262 
L 470.533246 111.933262 
L 470.533246 90.752066 
L 471.676524 90.752066 
L 471.676524 85.770983 
L 472.819803 85.770983 
L 472.819803 85.451127 
L 473.963081 85.451127 
L 473.963081 77.093387 
L 475.10636 77.093387 
L 475.10636 91.583001 
L 476.249638 91.583001 
L 476.249638 89.615884 
L 477.392917 89.615884 
L 477.392917 81.017706 
L 478.536195 81.017706 
L 478.536195 87.290315 
L 479.679474 87.290315 
L 479.679474 82.865488 
L 480.822752 82.865488 
L 480.822752 96.039223 
L 481.96603 96.039223 
L 481.96603 103.179638 
L 483.109309 103.179638 
L 483.109309 78.444139 
L 484.252587 78.444139 
L 484.252587 77.704777 
L 485.395866 77.704777 
L 485.395866 91.361032 
L 486.539144 91.361032 
L 486.539144 108.763213 
L 487.682423 108.763213 
L 487.682423 107.855397 
L 488.825701 107.855397 
L 488.825701 80.698061 
L 489.96898 80.698061 
L 489.96898 91.210706 
L 491.112258 91.210706 
L 491.112258 103.756236 
L 492.255537 103.756236 
L 492.255537 97.375791 
L 493.398815 97.375791 
L 493.398815 103.090786 
L 494.542094 103.090786 
L 494.542094 96.501901 
L 495.685372 96.501901 
L 495.685372 90.817109 
L 496.828651 90.817109 
L 496.828651 105.861006 
L 497.971929 105.861006 
L 497.971929 98.22704 
L 499.115208 98.22704 
L 499.115208 96.835701 
L 500.258486 96.835701 
L 500.258486 94.332911 
L 501.401765 94.332911 
L 501.401765 72.422253 
L 502.545043 72.422253 
L 502.545043 95.313534 
L 503.688321 95.313534 
L 503.688321 99.374702 
L 504.8316 99.374702 
L 504.8316 80.166176 
L 505.974878 80.166176 
L 505.974878 87.624449 
L 507.118157 87.624449 
L 507.118157 82.958874 
L 508.261435 82.958874 
L 508.261435 82.063409 
L 509.404714 82.063409 
L 509.404714 91.792952 
L 510.547992 91.792952 
L 510.547992 82.818214 
L 511.691271 82.818214 
L 511.691271 95.886189 
L 512.834549 95.886189 
L 512.834549 109.974291 
L 513.977828 109.974291 
L 513.977828 95.042646 
L 515.121106 95.042646 
L 515.121106 94.575786 
L 516.264385 94.575786 
L 516.264385 102.635411 
L 517.407663 102.635411 
L 517.407663 83.671038 
L 518.550942 83.671038 
L 518.550942 78.09659 
L 519.69422 78.09659 
L 519.69422 78.460692 
L 520.837499 78.460692 
L 520.837499 79.236152 
L 521.980777 79.236152 
L 521.980777 96.033951 
L 523.124056 96.033951 
L 523.124056 104.47283 
L 524.267334 104.47283 
L 524.267334 103.470611 
L 525.410612 103.470611 
L 525.410612 106.119205 
L 526.553891 106.119205 
L 526.553891 100.635989 
L 527.697169 100.635989 
L 527.697169 84.590021 
L 528.840448 84.590021 
L 528.840448 91.572371 
L 529.983726 91.572371 
L 529.983726 90.188249 
L 531.127005 90.188249 
L 531.127005 74.091749 
L 532.270283 74.091749 
L 532.270283 91.174303 
L 533.413562 91.174303 
L 533.413562 104.223568 
L 534.55684 104.223568 
L 534.55684 94.912081 
L 535.700119 94.912081 
L 535.700119 103.807632 
L 536.843397 103.807632 
L 536.843397 100.197332 
L 537.986676 100.197332 
L 537.986676 95.734526 
L 539.129954 95.734526 
L 539.129954 105.814001 
L 540.273233 105.814001 
L 540.273233 85.353453 
L 541.416511 85.353453 
L 541.416511 90.677364 
L 542.55979 90.677364 
L 542.55979 111.550636 
L 543.703068 111.550636 
L 543.703068 91.169234 
L 544.846347 91.169234 
L 544.846347 87.311806 
L 545.989625 87.311806 
L 545.989625 85.791424 
L 547.132903 85.791424 
L 547.132903 78.513922 
L 548.276182 78.513922 
L 548.276182 93.455519 
L 549.41946 93.455519 
L 549.41946 89.264378 
L 550.562739 89.264378 
L 550.562739 80.54171 
L 551.706017 80.54171 
L 551.706017 84.849037 
L 552.849296 84.849037 
L 552.849296 81.322564 
L 553.992574 81.322564 
L 553.992574 95.324763 
L 555.135853 95.324763 
L 555.135853 102.090585 
L 556.279131 102.090585 
L 556.279131 79.714502 
L 557.42241 79.714502 
L 557.42241 78.678299 
L 557.42241 78.678299 
" clip-path="url(#p26e823f54e)" style="fill: none; stroke: #a1c9f4"/>
   </g>
   <g id="patch_6">
    <path d="M 16.914646 113.565354 
L 16.914646 69.434646 
" style="fill: none; stroke: #adb2b7; stroke-linejoin: miter; stroke-linecap: square"/>
   </g>
   <g id="patch_7">
    <path d="M 16.914646 113.565354 
L 573.165354 113.565354 
" style="fill: none; stroke: #adb2b7; stroke-linejoin: miter; stroke-linecap: square"/>
   </g>
  </g>
  <g id="axes_3">
   <g id="patch_8">
    <path d="M 16.914646 163.365354 
L 573.165354 163.365354 
L 573.165354 119.234646 
L 16.914646 119.234646 
z
" style="fill: #21252b"/>
   </g>
   <g id="matplotlib.axis_5"/>
   <g id="matplotlib.axis_6">
    <g id="text_4">
     <!-- Mag -->
     <g style="fill: #9eb1be" transform="translate(10.470583 153.731719) rotate(-90) scale(0.11 -0.11)">
      <defs>
       <path id="DejaVuSerif-4d" d="M 353 0 
L 353 331 
L 947 331 
L 947 4331 
L 319 4331 
L 319 4666 
L 1678 4666 
L 3316 1344 
L 4953 4666 
L 6228 4666 
L 6228 4331 
L 5606 4331 
L 5606 331 
L 6203 331 
L 6203 0 
L 4378 0 
L 4378 331 
L 4972 331 
L 4972 3938 
L 3372 684 
L 2931 684 
L 1331 3938 
L 1331 331 
L 1925 331 
L 1925 0 
L 353 0 
z
" transform="scale(0.015625)"/>
       <path id="DejaVuSerif-67" d="M 3359 2988 
L 3359 72 
Q 3359 -644 2965 -1033 
Q 2572 -1422 1844 -1422 
Q 1516 -1422 1216 -1362 
Q 916 -1303 641 -1184 
L 641 -488 
L 941 -488 
Q 997 -813 1206 -963 
Q 1416 -1113 1806 -1113 
Q 2313 -1113 2548 -827 
Q 2784 -541 2784 72 
L 2784 519 
Q 2616 206 2355 57 
Q 2094 -91 1709 -91 
Q 1097 -91 708 395 
Q 319 881 319 1663 
Q 319 2444 706 2928 
Q 1094 3413 1709 3413 
Q 2094 3413 2355 3264 
Q 2616 3116 2784 2803 
L 2784 3322 
L 3909 3322 
L 3909 2988 
L 3359 2988 
z
M 2784 1825 
Q 2784 2422 2554 2737 
Q 2325 3053 1888 3053 
Q 1444 3053 1217 2703 
Q 991 2353 991 1663 
Q 991 975 1217 622 
Q 1444 269 1888 269 
Q 2325 269 2554 583 
Q 2784 897 2784 1497 
L 2784 1825 
z
" transform="scale(0.015625)"/>
      </defs>
      <use xlink:href="#DejaVuSerif-4d"/>
      <use xlink:href="#DejaVuSerif-61" x="102.392578"/>
      <use xlink:href="#DejaVuSerif-67" x="162.011719"/>
     </g>
    </g>
   </g>
   <g id="line2d_3">
    <path d="M 32.65759 161.990715 
L 88.678235 161.885976 
L 88.678235 161.781224 
L 92.108071 161.690906 
L 92.108071 161.667665 
L 94.394628 161.607578 
L 94.394628 161.536552 
L 101.254299 161.539208 
L 101.254299 161.719473 
L 102.397577 161.719473 
L 102.397577 161.377703 
L 103.540856 161.377703 
L 103.540856 161.22208 
L 104.684134 161.22208 
L 104.684134 160.441231 
L 105.827413 160.441231 
L 105.827413 160.24972 
L 106.970691 160.24972 
L 106.970691 159.563373 
L 108.11397 159.563373 
L 108.11397 159.361999 
L 109.257248 159.361999 
L 109.257248 158.654465 
L 110.400526 158.654465 
L 110.400526 158.447719 
L 111.543805 158.447719 
L 111.543805 157.784025 
L 112.687083 157.784025 
L 112.687083 157.608976 
L 113.830362 157.608976 
L 113.830362 156.660578 
L 114.97364 156.660578 
L 114.97364 156.233028 
L 116.116919 156.233028 
L 116.116919 155.440283 
L 117.260197 155.440283 
L 117.260197 155.244612 
L 118.403476 155.244612 
L 118.403476 154.614127 
L 119.546754 154.614127 
L 119.546754 154.424951 
L 120.690033 154.424951 
L 120.690033 153.699091 
L 121.833311 153.699091 
L 121.833311 153.399608 
L 122.97659 153.399608 
L 122.97659 152.617964 
L 124.119868 152.617964 
L 124.119868 152.231741 
L 125.263147 152.231741 
L 125.263147 151.416204 
L 126.406425 151.416204 
L 126.406425 151.086969 
L 127.549704 151.086969 
L 127.549704 150.442842 
L 128.692982 150.442842 
L 128.692982 150.304826 
L 129.836261 150.304826 
L 129.836261 149.692843 
L 130.979539 149.692843 
L 130.979539 149.397366 
L 132.122817 149.397366 
L 132.122817 148.657562 
L 133.266096 148.657562 
L 133.266096 148.387835 
L 134.409374 148.387835 
L 134.409374 147.602472 
L 135.552653 147.602472 
L 135.552653 147.377795 
L 136.695931 147.377795 
L 136.695931 146.622811 
L 137.83921 146.622811 
L 137.83921 146.33432 
L 138.982488 146.33432 
L 138.982488 145.538498 
L 140.125767 145.538498 
L 140.125767 145.200068 
L 141.269045 145.200068 
L 141.269045 144.442242 
L 142.412324 144.442242 
L 142.412324 144.127244 
L 143.555602 144.127244 
L 143.555602 143.046667 
L 144.698881 143.046667 
L 144.698881 142.754124 
L 145.842159 142.754124 
L 145.842159 142.054785 
L 146.985438 142.054785 
L 146.985438 141.810878 
L 148.128716 141.810878 
L 148.128716 141.143843 
L 149.271995 141.143843 
L 149.271995 140.938479 
L 150.415273 140.938479 
L 150.415273 140.149746 
L 151.558552 140.149746 
L 151.558552 139.792988 
L 152.70183 139.792988 
L 152.70183 138.955207 
L 153.845108 138.955207 
L 153.845108 138.804081 
L 154.988387 138.804081 
L 154.988387 138.192626 
L 156.131665 138.192626 
L 156.131665 137.984592 
L 157.274944 137.984592 
L 157.274944 137.209134 
L 158.418222 137.209134 
L 158.418222 136.841655 
L 159.561501 136.841655 
L 159.561501 135.688376 
L 160.704779 135.688376 
L 160.704779 135.140911 
L 161.848058 135.140911 
L 161.848058 134.182287 
L 162.991336 134.182287 
L 162.991336 133.971599 
L 164.134615 133.971599 
L 164.134615 133.171689 
L 165.277893 133.171689 
L 165.277893 132.934697 
L 166.421172 132.934697 
L 166.421172 132.141161 
L 167.56445 132.141161 
L 167.56445 131.917295 
L 168.707729 131.917295 
L 168.707729 130.950805 
L 169.851007 130.950805 
L 169.851007 130.635055 
L 170.994286 130.635055 
L 170.994286 129.84981 
L 173.280843 129.766898 
L 173.280843 129.049938 
L 174.424121 129.049938 
L 174.424121 128.836876 
L 175.567399 128.836876 
L 175.567399 128.069247 
L 176.710678 128.069247 
L 176.710678 127.672379 
L 177.853956 127.672379 
L 177.853956 126.797683 
L 178.997235 126.797683 
L 178.997235 126.469854 
L 180.140513 126.469854 
L 180.140513 125.754711 
L 181.283792 125.754711 
L 181.283792 125.442815 
L 182.42707 125.442815 
L 182.42707 124.707018 
L 183.570349 124.707018 
L 183.570349 124.493177 
L 184.713627 124.493177 
L 184.713627 123.862657 
L 185.856906 123.862657 
L 185.856906 123.55498 
L 187.000184 123.55498 
L 187.000184 122.541225 
L 188.143463 122.541225 
L 188.143463 122.182946 
L 189.286741 122.182946 
L 189.286741 121.500604 
L 190.43002 121.500604 
L 190.43002 121.340101 
L 191.573298 121.340101 
L 191.573298 120.483628 
L 192.716577 120.483628 
L 192.716577 120.749337 
L 193.859855 120.749337 
L 193.859855 121.06075 
L 195.003134 121.06075 
L 195.003134 121.609128 
L 196.146412 121.609128 
L 196.146412 122.328223 
L 197.28969 122.328223 
L 197.28969 123.214541 
L 198.432969 123.214541 
L 198.432969 123.075595 
L 199.576247 123.075595 
L 199.576247 123.876055 
L 200.719526 123.876055 
L 200.719526 123.477772 
L 201.862804 123.477772 
L 201.862804 123.985863 
L 203.006083 123.985863 
L 203.006083 124.301094 
L 204.149361 124.301094 
L 204.149361 124.781282 
L 205.29264 124.781282 
L 205.29264 125.073978 
L 206.435918 125.073978 
L 206.435918 126.313754 
L 207.579197 126.313754 
L 207.579197 127.062272 
L 208.722475 127.062272 
L 208.722475 127.76255 
L 209.865754 127.76255 
L 209.865754 127.643842 
L 211.009032 127.643842 
L 211.009032 128.108721 
L 212.152311 128.108721 
L 212.152311 128.916854 
L 213.295589 128.916854 
L 213.295589 129.127384 
L 215.582146 129.081389 
L 215.582146 129.749543 
L 216.725425 129.749543 
L 216.725425 130.787284 
L 217.868703 130.787284 
L 217.868703 131.932822 
L 219.011981 131.932822 
L 219.011981 132.603813 
L 220.15526 132.603813 
L 220.15526 133.05064 
L 221.298538 133.05064 
L 221.298538 133.718283 
L 222.441817 133.718283 
L 222.441817 134.041028 
L 223.585095 134.041028 
L 223.585095 133.89371 
L 224.728374 133.89371 
L 224.728374 134.834566 
L 225.871652 134.834566 
L 225.871652 135.645401 
L 227.014931 135.645401 
L 227.014931 136.567441 
L 228.158209 136.567441 
L 228.158209 137.537253 
L 229.301488 137.537253 
L 229.301488 137.947981 
L 230.444766 137.947981 
L 230.444766 138.242322 
L 231.588045 138.242322 
L 231.588045 138.737376 
L 232.731323 138.737376 
L 232.731323 138.376376 
L 233.874602 138.376376 
L 233.874602 139.09943 
L 235.01788 139.09943 
L 235.01788 138.955439 
L 236.161159 138.955439 
L 236.161159 139.702367 
L 238.447716 139.788103 
L 238.447716 140.344873 
L 239.590994 140.344873 
L 239.590994 140.47349 
L 240.734272 140.47349 
L 240.734272 141.089569 
L 241.877551 141.089569 
L 241.877551 141.395134 
L 243.020829 141.395134 
L 243.020829 142.524465 
L 244.164108 142.524465 
L 244.164108 143.028577 
L 245.307386 143.028577 
L 245.307386 143.802752 
L 246.450665 143.802752 
L 246.450665 143.970643 
L 247.593943 143.970643 
L 247.593943 144.519336 
L 248.737222 144.519336 
L 248.737222 144.87253 
L 249.8805 144.87253 
L 249.8805 145.746137 
L 251.023779 145.746137 
L 251.023779 146.918635 
L 252.167057 146.918635 
L 252.167057 147.515644 
L 254.453614 147.439556 
L 254.453614 148.663967 
L 256.740171 148.576799 
L 256.740171 149.755277 
L 257.88345 149.755277 
L 257.88345 149.939049 
L 259.026728 149.939049 
L 259.026728 150.383908 
L 260.170007 150.383908 
L 260.170007 151.16576 
L 261.313285 151.16576 
L 261.313285 151.871299 
L 262.456563 151.871299 
L 262.456563 151.549386 
L 263.599842 151.549386 
L 263.599842 152.63357 
L 264.74312 152.63357 
L 264.74312 153.245041 
L 265.886399 153.245041 
L 265.886399 154.354628 
L 267.029677 154.354628 
L 267.029677 154.598232 
L 268.172956 154.598232 
L 268.172956 155.132001 
L 269.316234 155.132001 
L 269.316234 155.807054 
L 270.459513 155.807054 
L 270.459513 156.692 
L 272.74607 156.705849 
L 272.74607 157.399863 
L 273.889348 157.399863 
L 273.889348 156.928374 
L 275.032627 156.928374 
L 275.032627 157.35005 
L 276.175905 157.35005 
L 276.175905 157.647402 
L 277.319184 157.647402 
L 277.319184 158.074346 
L 278.462462 158.074346 
L 278.462462 158.400829 
L 279.605741 158.400829 
L 279.605741 159.629075 
L 280.749019 159.629075 
L 280.749019 160.250891 
L 281.892298 160.250891 
L 281.892298 160.789955 
L 283.035576 160.789955 
L 283.035576 160.368789 
L 284.178854 160.368789 
L 284.178854 161.587888 
L 285.322133 161.587888 
L 285.322133 161.172328 
L 286.465411 161.172328 
L 286.465411 160.13092 
L 287.60869 160.13092 
L 287.60869 160.634435 
L 291.038525 160.686379 
L 291.038525 161.129556 
L 292.181804 161.129556 
L 292.181804 161.364969 
L 294.468361 161.458118 
L 294.468361 161.044638 
L 295.611639 161.044638 
L 295.611639 160.68668 
L 297.898196 160.780618 
L 297.898196 161.043636 
L 299.041475 161.043636 
L 299.041475 161.356044 
L 300.184753 161.356044 
L 300.184753 160.900162 
L 301.328032 160.900162 
L 301.328032 161.382562 
L 302.47131 161.382562 
L 302.47131 160.703304 
L 303.614589 160.703304 
L 303.614589 160.04159 
L 304.757867 160.04159 
L 304.757867 159.746313 
L 305.901146 159.746313 
L 305.901146 160.021365 
L 308.187702 160.068525 
L 308.187702 160.435096 
L 310.474259 160.504116 
L 310.474259 160.273725 
L 311.617538 160.273725 
L 311.617538 159.661744 
L 312.760816 159.661744 
L 312.760816 159.791956 
L 313.904095 159.791956 
L 313.904095 160.054493 
L 315.047373 160.054493 
L 315.047373 160.982113 
L 316.190652 160.982113 
L 316.190652 161.356118 
L 317.33393 161.356118 
L 317.33393 160.862756 
L 318.477209 160.862756 
L 318.477209 159.313621 
L 320.763766 159.396584 
L 320.763766 158.253897 
L 321.907044 158.253897 
L 321.907044 158.983328 
L 323.050323 158.983328 
L 323.050323 159.388884 
L 324.193601 159.388884 
L 324.193601 159.756261 
L 325.33688 159.756261 
L 325.33688 160.307313 
L 327.623437 160.256223 
L 327.623437 160.622811 
L 329.909993 160.663508 
L 329.909993 160.758493 
L 331.053272 160.758493 
L 331.053272 161.173881 
L 332.19655 161.173881 
L 332.19655 160.400157 
L 333.339829 160.400157 
L 333.339829 160.740344 
L 334.483107 160.740344 
L 334.483107 160.076106 
L 335.626386 160.076106 
L 335.626386 160.442013 
L 336.769664 160.442013 
L 336.769664 159.710057 
L 337.912943 159.710057 
L 337.912943 160.604223 
L 339.056221 160.604223 
L 339.056221 159.875024 
L 340.1995 159.875024 
L 340.1995 160.080849 
L 341.342778 160.080849 
L 341.342778 160.831414 
L 342.486057 160.831414 
L 342.486057 161.640517 
L 343.629335 161.640517 
L 343.629335 160.83468 
L 345.915892 160.756125 
L 345.915892 161.065299 
L 347.059171 161.065299 
L 347.059171 160.833143 
L 348.202449 160.833143 
L 348.202449 161.175968 
L 352.775563 161.176834 
L 352.775563 160.818288 
L 353.918841 160.818288 
L 353.918841 160.166546 
L 355.06212 160.166546 
L 355.06212 160.508116 
L 356.205398 160.508116 
L 356.205398 160.348966 
L 357.348677 160.348966 
L 357.348677 160.751095 
L 358.491955 160.751095 
L 358.491955 160.502146 
L 359.635234 160.502146 
L 359.635234 161.264613 
L 360.778512 161.264613 
L 360.778512 161.701537 
L 361.921791 161.701537 
L 361.921791 161.258754 
L 363.065069 161.258754 
L 363.065069 160.707318 
L 364.208348 160.707318 
L 364.208348 161.569531 
L 367.638183 161.481613 
L 367.638183 161.454741 
L 371.068019 161.487647 
L 371.068019 161.890114 
L 372.211297 161.890114 
L 372.211297 161.22444 
L 373.354575 161.22444 
L 373.354575 161.777163 
L 374.497854 161.777163 
L 374.497854 161.173084 
L 375.641132 161.173084 
L 375.641132 160.585496 
L 376.784411 160.585496 
L 376.784411 160.913238 
L 379.070968 160.925664 
L 379.070968 160.25493 
L 380.214246 160.25493 
L 380.214246 160.611349 
L 381.357525 160.611349 
L 381.357525 160.808998 
L 384.78736 160.88026 
L 384.78736 161.090747 
L 385.930639 161.090747 
L 385.930639 160.871175 
L 387.073917 160.871175 
L 387.073917 160.523622 
L 388.217196 160.523622 
L 388.217196 159.943852 
L 391.647031 159.848066 
L 391.647031 160.537067 
L 393.933588 160.642168 
L 393.933588 160.955496 
L 395.076866 160.955496 
L 395.076866 160.554975 
L 396.220145 160.554975 
L 396.220145 160.244114 
L 397.363423 160.244114 
L 397.363423 159.685065 
L 398.506702 159.685065 
L 398.506702 159.520954 
L 400.793259 159.496396 
L 400.793259 160.137517 
L 401.936537 160.137517 
L 401.936537 160.267688 
L 405.366373 160.161545 
L 405.366373 160.120583 
L 406.509651 160.120583 
L 406.509651 160.371791 
L 407.65293 160.371791 
L 407.65293 160.762697 
L 409.939487 160.710387 
L 409.939487 160.353786 
L 411.082765 160.353786 
L 411.082765 159.549432 
L 412.226044 159.549432 
L 412.226044 159.882198 
L 413.369322 159.882198 
L 413.369322 159.392253 
L 414.512601 159.392253 
L 414.512601 159.899651 
L 415.655879 159.899651 
L 415.655879 160.230696 
L 416.799157 160.230696 
L 416.799157 160.369026 
L 417.942436 160.369026 
L 417.942436 160.227888 
L 419.085714 160.227888 
L 419.085714 160.031002 
L 420.228993 160.031002 
L 420.228993 160.184913 
L 421.372271 160.184913 
L 421.372271 159.879853 
L 423.658828 159.919366 
L 423.658828 160.152939 
L 424.802107 160.152939 
L 424.802107 160.004089 
L 425.945385 160.004089 
L 425.945385 160.613968 
L 427.088664 160.613968 
L 427.088664 160.943821 
L 428.231942 160.943821 
L 428.231942 161.145038 
L 429.375221 161.145038 
L 429.375221 160.171438 
L 430.518499 160.171438 
L 430.518499 160.366863 
L 431.661778 160.366863 
L 431.661778 160.718284 
L 432.805056 160.718284 
L 432.805056 160.88283 
L 433.948335 160.88283 
L 433.948335 161.209115 
L 435.091613 161.209115 
L 435.091613 161.365473 
L 436.234892 161.365473 
L 436.234892 161.558206 
L 437.37817 161.558206 
L 437.37817 161.288207 
L 438.521448 161.288207 
L 438.521448 160.905345 
L 439.664727 160.905345 
L 439.664727 160.612355 
L 440.808005 160.612355 
L 440.808005 161.502092 
L 441.951284 161.502092 
L 441.951284 161.259655 
L 443.094562 161.259655 
L 443.094562 160.865437 
L 444.237841 160.865437 
L 444.237841 160.519792 
L 445.381119 160.519792 
L 445.381119 160.790838 
L 446.524398 160.790838 
L 446.524398 160.178167 
L 448.810955 160.215834 
L 448.810955 160.580789 
L 449.954233 160.580789 
L 449.954233 161.095343 
L 451.097512 161.095343 
L 451.097512 160.586744 
L 452.24079 160.586744 
L 452.24079 160.992687 
L 455.670626 161.082135 
L 455.670626 160.666755 
L 456.813904 160.666755 
L 456.813904 161.04596 
L 457.957183 161.04596 
L 457.957183 161.194263 
L 459.100461 161.194263 
L 459.100461 161.711067 
L 460.243739 161.711067 
L 460.243739 161.569939 
L 462.530296 161.495241 
L 462.530296 161.453308 
L 463.673575 161.453308 
L 463.673575 161.232545 
L 465.960132 161.278156 
L 465.960132 161.64888 
L 493.398815 161.738943 
L 493.398815 161.87962 
L 496.828651 161.943689 
L 496.828651 162.002982 
L 499.115208 161.957484 
L 499.115208 161.864121 
L 505.974878 161.937596 
L 505.974878 161.984741 
L 510.547992 162.056133 
L 510.547992 162.09794 
L 513.977828 162.067816 
L 513.977828 161.982221 
L 541.416511 162.088909 
L 541.416511 162.116372 
L 547.132903 162.021687 
L 547.132903 161.982705 
L 557.42241 162.000695 
L 557.42241 162.07756 
" clip-path="url(#pfec033cbfc)" style="fill: none; stroke: #a1c9f4"/>
   </g>
   <g id="patch_9">
    <path d="M 16.914646 163.365354 
L 16.914646 119.234646 
" style="fill: none; stroke: #adb2b7; stroke-linejoin: miter; stroke-linecap: square"/>
   </g>
   <g id="patch_10">
    <path d="M 16.914646 163.365354 
L 573.165354 163.365354 
" style="fill: none; stroke: #adb2b7; stroke-linejoin: miter; stroke-linecap: square"/>
   </g>
  </g>
  <g id="axes_4">
   <g id="patch_11">
    <path d="M 16.914646 213.165354 
L 573.165354 213.165354 
L 573.165354 169.034646 
L 16.914646 169.034646 
z
" style="fill: #21252b"/>
   </g>
   <g id="matplotlib.axis_7"/>
   <g id="matplotlib.axis_8">
    <g id="text_5">
     <!-- Fase -->
     <g style="fill: #9eb1be" transform="translate(10.626989 203.902109) rotate(-90) scale(0.11 -0.11)">
      <defs>
       <path id="DejaVuSerif-46" d="M 353 0 
L 353 331 
L 947 331 
L 947 4331 
L 353 4331 
L 353 4666 
L 4172 4666 
L 4172 3628 
L 3788 3628 
L 3788 4281 
L 1581 4281 
L 1581 2719 
L 3175 2719 
L 3175 3303 
L 3559 3303 
L 3559 1753 
L 3175 1753 
L 3175 2338 
L 1581 2338 
L 1581 331 
L 2328 331 
L 2328 0 
L 353 0 
z
" transform="scale(0.015625)"/>
      </defs>
      <use xlink:href="#DejaVuSerif-46"/>
      <use xlink:href="#DejaVuSerif-61" x="62.634766"/>
      <use xlink:href="#DejaVuSerif-73" x="122.253906"/>
      <use xlink:href="#DejaVuSerif-65" x="173.572266"/>
     </g>
    </g>
   </g>
   <g id="line2d_4">
    <path d="M 32.65759 194.824784 
L 33.800869 194.824784 
L 33.800869 192.972277 
L 36.087426 192.982859 
L 36.087426 190.943544 
L 37.230704 190.943544 
L 37.230704 192.272027 
L 38.373983 192.272027 
L 38.373983 194.691795 
L 39.517261 194.691795 
L 39.517261 193.928584 
L 40.66054 193.928584 
L 40.66054 193.34453 
L 41.803818 193.34453 
L 41.803818 193.914027 
L 42.947097 193.914027 
L 42.947097 193.66853 
L 44.090375 193.66853 
L 44.090375 193.279529 
L 45.233653 193.279529 
L 45.233653 193.658717 
L 46.376932 193.658717 
L 46.376932 193.887535 
L 47.52021 193.887535 
L 47.52021 199.382059 
L 48.663489 199.382059 
L 48.663489 198.432229 
L 49.806767 198.432229 
L 49.806767 200.395185 
L 50.950046 200.395185 
L 50.950046 201.729629 
L 52.093324 201.729629 
L 52.093324 202.655903 
L 54.379881 202.651604 
L 54.379881 206.370029 
L 55.52316 206.370029 
L 55.52316 206.927738 
L 56.666438 206.927738 
L 56.666438 206.184233 
L 57.809717 206.184233 
L 57.809717 205.872573 
L 58.952995 205.872573 
L 58.952995 196.917551 
L 60.096274 196.917551 
L 60.096274 200.775644 
L 61.239552 200.775644 
L 61.239552 198.05555 
L 62.382831 198.05555 
L 62.382831 198.678698 
L 63.526109 198.678698 
L 63.526109 200.857594 
L 64.669388 200.857594 
L 64.669388 199.65508 
L 65.812666 199.65508 
L 65.812666 201.080375 
L 66.955944 201.080375 
L 66.955944 203.501111 
L 68.099223 203.501111 
L 68.099223 207.026438 
L 69.242501 207.026438 
L 69.242501 205.997146 
L 70.38578 205.997146 
L 70.38578 205.537713 
L 71.529058 205.537713 
L 71.529058 205.764605 
L 74.958894 205.82829 
L 74.958894 204.924861 
L 76.102172 204.924861 
L 76.102172 204.632565 
L 77.245451 204.632565 
L 77.245451 206.184257 
L 78.388729 206.184257 
L 78.388729 207.850171 
L 79.532008 207.850171 
L 79.532008 202.09418 
L 80.675286 202.09418 
L 80.675286 202.712202 
L 81.818565 202.712202 
L 81.818565 202.039558 
L 82.961843 202.039558 
L 82.961843 201.542874 
L 84.105122 201.542874 
L 84.105122 203.167347 
L 85.2484 203.167347 
L 85.2484 203.463195 
L 86.391679 203.463195 
L 86.391679 204.309878 
L 87.534957 204.309878 
L 87.534957 203.8122 
L 88.678235 203.8122 
L 88.678235 203.974849 
L 89.821514 203.974849 
L 89.821514 204.840042 
L 90.964792 204.840042 
L 90.964792 205.061813 
L 92.108071 205.061813 
L 92.108071 205.301113 
L 95.537906 205.35756 
L 95.537906 205.491272 
L 96.681185 205.491272 
L 96.681185 205.316935 
L 97.824463 205.316935 
L 97.824463 205.467882 
L 98.967742 205.467882 
L 98.967742 205.628872 
L 100.11102 205.628872 
L 100.11102 206.37892 
L 101.254299 206.37892 
L 101.254299 204.421346 
L 102.397577 204.421346 
L 102.397577 196.265491 
L 103.540856 196.265491 
L 103.540856 195.159407 
L 104.684134 195.159407 
L 104.684134 192.83213 
L 106.970691 192.826933 
L 106.970691 192.128768 
L 108.11397 192.128768 
L 108.11397 191.778935 
L 110.400526 191.700519 
L 110.400526 191.335689 
L 111.543805 191.335689 
L 111.543805 191.464268 
L 116.116919 191.494826 
L 116.116919 191.246297 
L 120.690033 191.311518 
L 120.690033 191.429905 
L 130.979539 191.324866 
L 130.979539 191.258627 
L 134.409374 191.174929 
L 134.409374 191.140711 
L 193.859855 191.061085 
L 193.859855 190.965878 
L 197.28969 191.019934 
L 197.28969 191.084432 
L 206.435918 191.146275 
L 206.435918 191.199702 
L 207.579197 191.199702 
L 207.579197 191.030818 
L 214.438868 190.921685 
L 214.438868 190.909244 
L 223.585095 190.998835 
L 223.585095 191.095127 
L 225.871652 191.128678 
L 225.871652 191.283678 
L 228.158209 191.394303 
L 228.158209 191.407034 
L 231.588045 191.337466 
L 231.588045 191.295517 
L 232.731323 191.295517 
L 232.731323 191.119796 
L 235.01788 191.083777 
L 235.01788 191.262621 
L 239.590994 191.203418 
L 239.590994 191.123899 
L 240.734272 191.123899 
L 240.734272 190.934642 
L 241.877551 190.934642 
L 241.877551 190.666107 
L 244.164108 190.711308 
L 244.164108 190.804317 
L 245.307386 190.804317 
L 245.307386 190.996366 
L 246.450665 190.996366 
L 246.450665 190.770394 
L 248.737222 190.841829 
L 248.737222 191.04264 
L 252.167057 190.976522 
L 252.167057 190.77349 
L 256.740171 190.805111 
L 256.740171 190.926686 
L 257.88345 190.926686 
L 257.88345 191.323008 
L 260.170007 191.33392 
L 260.170007 191.637654 
L 262.456563 191.65434 
L 262.456563 191.416035 
L 263.599842 191.416035 
L 263.599842 191.786764 
L 265.886399 191.773516 
L 265.886399 191.56616 
L 267.029677 191.56616 
L 267.029677 191.067531 
L 268.172956 191.067531 
L 268.172956 190.657382 
L 269.316234 190.657382 
L 269.316234 191.146934 
L 270.459513 191.146934 
L 270.459513 191.347795 
L 271.602791 191.347795 
L 271.602791 190.803956 
L 272.74607 190.803956 
L 272.74607 191.37732 
L 273.889348 191.37732 
L 273.889348 191.601853 
L 275.032627 191.601853 
L 275.032627 191.336799 
L 276.175905 191.336799 
L 276.175905 191.750831 
L 277.319184 191.750831 
L 277.319184 191.32634 
L 278.462462 191.32634 
L 278.462462 191.829553 
L 279.605741 191.829553 
L 279.605741 192.848957 
L 280.749019 192.848957 
L 280.749019 190.828784 
L 281.892298 190.828784 
L 281.892298 190.434854 
L 283.035576 190.434854 
L 283.035576 189.99774 
L 284.178854 189.99774 
L 284.178854 189.823174 
L 285.322133 189.823174 
L 285.322133 188.946455 
L 286.465411 188.946455 
L 286.465411 194.759452 
L 287.60869 194.759452 
L 287.60869 195.872989 
L 288.751968 195.872989 
L 288.751968 191.822555 
L 289.895247 191.822555 
L 289.895247 187.863879 
L 291.038525 187.863879 
L 291.038525 193.628614 
L 292.181804 193.628614 
L 292.181804 191.220237 
L 293.325082 191.220237 
L 293.325082 199.632016 
L 294.468361 199.632016 
L 294.468361 200.268687 
L 295.611639 200.268687 
L 295.611639 198.692451 
L 296.754918 198.692451 
L 296.754918 199.113166 
L 297.898196 199.113166 
L 297.898196 196.780482 
L 299.041475 196.780482 
L 299.041475 188.974257 
L 300.184753 188.974257 
L 300.184753 196.299278 
L 301.328032 196.299278 
L 301.328032 198.40387 
L 302.47131 198.40387 
L 302.47131 200.034183 
L 303.614589 200.034183 
L 303.614589 201.211497 
L 304.757867 201.211497 
L 304.757867 196.695634 
L 305.901146 196.695634 
L 305.901146 197.161864 
L 307.044424 197.161864 
L 307.044424 198.058388 
L 308.187702 198.058388 
L 308.187702 199.621595 
L 309.330981 199.621595 
L 309.330981 196.396301 
L 310.474259 196.396301 
L 310.474259 196.034019 
L 311.617538 196.034019 
L 311.617538 195.329335 
L 312.760816 195.329335 
L 312.760816 196.138654 
L 313.904095 196.138654 
L 313.904095 194.204264 
L 315.047373 194.204264 
L 315.047373 192.817373 
L 316.190652 192.817373 
L 316.190652 190.420666 
L 317.33393 190.420666 
L 317.33393 189.97315 
L 318.477209 189.97315 
L 318.477209 188.264588 
L 319.620487 188.264588 
L 319.620487 188.739949 
L 320.763766 188.739949 
L 320.763766 190.139514 
L 321.907044 190.139514 
L 321.907044 188.988024 
L 323.050323 188.988024 
L 323.050323 190.812408 
L 324.193601 190.812408 
L 324.193601 188.617182 
L 325.33688 188.617182 
L 325.33688 190.439606 
L 326.480158 190.439606 
L 326.480158 190.138362 
L 327.623437 190.138362 
L 327.623437 188.968955 
L 328.766715 188.968955 
L 328.766715 188.737159 
L 329.909993 188.737159 
L 329.909993 194.758405 
L 331.053272 194.758405 
L 331.053272 195.574785 
L 332.19655 195.574785 
L 332.19655 198.628982 
L 333.339829 198.628982 
L 333.339829 199.91508 
L 334.483107 199.91508 
L 334.483107 200.700149 
L 335.626386 200.700149 
L 335.626386 200.166092 
L 336.769664 200.166092 
L 336.769664 198.171354 
L 337.912943 198.171354 
L 337.912943 195.891245 
L 339.056221 195.891245 
L 339.056221 199.479259 
L 340.1995 199.479259 
L 340.1995 200.83143 
L 341.342778 200.83143 
L 341.342778 201.017438 
L 342.486057 201.017438 
L 342.486057 195.929194 
L 343.629335 195.929194 
L 343.629335 196.225497 
L 344.772614 196.225497 
L 344.772614 197.87112 
L 345.915892 197.87112 
L 345.915892 198.008778 
L 347.059171 198.008778 
L 347.059171 194.956346 
L 348.202449 194.956346 
L 348.202449 202.314164 
L 349.345728 202.314164 
L 349.345728 197.395737 
L 350.489006 197.395737 
L 350.489006 188.663874 
L 351.632284 188.663874 
L 351.632284 187.286079 
L 352.775563 187.286079 
L 352.775563 187.485256 
L 353.918841 187.485256 
L 353.918841 184.483586 
L 355.06212 184.483586 
L 355.06212 180.481959 
L 358.491955 180.582997 
L 358.491955 182.022596 
L 359.635234 182.022596 
L 359.635234 189.254534 
L 360.778512 189.254534 
L 360.778512 192.033899 
L 361.921791 192.033899 
L 361.921791 186.131815 
L 363.065069 186.131815 
L 363.065069 183.220316 
L 364.208348 183.220316 
L 364.208348 186.671847 
L 365.351626 186.671847 
L 365.351626 181.706032 
L 366.494905 181.706032 
L 366.494905 173.171664 
L 367.638183 173.171664 
L 367.638183 210.435493 
L 368.781462 210.435493 
L 368.781462 206.908108 
L 369.92474 206.908108 
L 369.92474 207.324476 
L 371.068019 207.324476 
L 371.068019 211.612879 
L 372.211297 211.612879 
L 372.211297 178.814061 
L 373.354575 178.814061 
L 373.354575 170.66384 
L 374.497854 170.66384 
L 374.497854 170.848357 
L 375.641132 170.848357 
L 375.641132 211.608214 
L 376.784411 211.608214 
L 376.784411 171.592088 
L 377.927689 171.592088 
L 377.927689 209.766561 
L 379.070968 209.766561 
L 379.070968 171.512953 
L 380.214246 171.512953 
L 380.214246 170.360601 
L 381.357525 170.360601 
L 381.357525 211.585077 
L 382.500803 211.585077 
L 382.500803 208.579682 
L 383.644082 208.579682 
L 383.644082 211.841428 
L 385.930639 211.750843 
L 385.930639 173.060993 
L 387.073917 173.060993 
L 387.073917 173.624883 
L 388.217196 173.624883 
L 388.217196 174.958879 
L 389.360474 174.958879 
L 389.360474 174.11262 
L 390.503753 174.11262 
L 390.503753 173.898348 
L 391.647031 173.898348 
L 391.647031 171.515319 
L 392.79031 171.515319 
L 392.79031 172.719745 
L 393.933588 172.719745 
L 393.933588 171.536219 
L 395.076866 171.536219 
L 395.076866 173.123633 
L 396.220145 173.123633 
L 396.220145 175.122948 
L 397.363423 175.122948 
L 397.363423 173.001854 
L 398.506702 173.001854 
L 398.506702 172.364474 
L 400.793259 172.371159 
L 400.793259 171.524792 
L 401.936537 171.524792 
L 401.936537 211.093019 
L 403.079816 211.093019 
L 403.079816 211.916372 
L 404.223094 211.916372 
L 404.223094 170.8412 
L 405.366373 170.8412 
L 405.366373 171.543975 
L 406.509651 171.543975 
L 406.509651 211.807106 
L 407.65293 211.807106 
L 407.65293 210.149681 
L 408.796208 210.149681 
L 408.796208 210.336186 
L 411.082765 210.309793 
L 411.082765 209.705889 
L 412.226044 209.705889 
L 412.226044 211.145576 
L 413.369322 211.145576 
L 413.369322 170.316892 
L 414.512601 170.316892 
L 414.512601 211.880899 
L 415.655879 211.880899 
L 415.655879 170.650306 
L 416.799157 170.650306 
L 416.799157 209.056317 
L 417.942436 209.056317 
L 417.942436 209.340281 
L 419.085714 209.340281 
L 419.085714 208.958278 
L 420.228993 208.958278 
L 420.228993 210.185376 
L 421.372271 210.185376 
L 421.372271 210.946697 
L 422.51555 210.946697 
L 422.51555 170.962511 
L 423.658828 170.962511 
L 423.658828 171.231582 
L 424.802107 171.231582 
L 424.802107 173.609031 
L 425.945385 173.609031 
L 425.945385 171.875725 
L 427.088664 171.875725 
L 427.088664 170.926748 
L 428.231942 170.926748 
L 428.231942 211.403725 
L 429.375221 211.403725 
L 429.375221 172.493445 
L 430.518499 172.493445 
L 430.518499 170.965481 
L 431.661778 170.965481 
L 431.661778 173.489273 
L 432.805056 173.489273 
L 432.805056 175.42546 
L 433.948335 175.42546 
L 433.948335 176.623162 
L 435.091613 176.623162 
L 435.091613 170.566691 
L 436.234892 170.566691 
L 436.234892 173.458751 
L 437.37817 173.458751 
L 437.37817 171.130727 
L 438.521448 171.130727 
L 438.521448 210.824644 
L 439.664727 210.824644 
L 439.664727 211.326688 
L 440.808005 211.326688 
L 440.808005 171.553152 
L 441.951284 171.553152 
L 441.951284 171.165893 
L 443.094562 171.165893 
L 443.094562 210.566377 
L 444.237841 210.566377 
L 444.237841 210.06637 
L 445.381119 210.06637 
L 445.381119 211.214065 
L 446.524398 211.214065 
L 446.524398 207.768152 
L 447.667676 207.768152 
L 447.667676 205.912761 
L 448.810955 205.912761 
L 448.810955 204.992556 
L 449.954233 204.992556 
L 449.954233 203.778016 
L 451.097512 203.778016 
L 451.097512 203.049208 
L 452.24079 203.049208 
L 452.24079 207.272049 
L 453.384069 207.272049 
L 453.384069 205.80849 
L 454.527347 205.80849 
L 454.527347 205.476854 
L 455.670626 205.476854 
L 455.670626 203.346518 
L 456.813904 203.346518 
L 456.813904 205.650858 
L 457.957183 205.650858 
L 457.957183 203.947435 
L 459.100461 203.947435 
L 459.100461 207.138884 
L 460.243739 207.138884 
L 460.243739 208.725445 
L 461.387018 208.725445 
L 461.387018 173.461561 
L 462.530296 173.461561 
L 462.530296 170.576156 
L 463.673575 170.576156 
L 463.673575 170.791365 
L 464.816853 170.791365 
L 464.816853 206.737134 
L 465.960132 206.737134 
L 465.960132 205.423155 
L 467.10341 205.423155 
L 467.10341 199.887869 
L 468.246689 199.887869 
L 468.246689 199.56338 
L 469.389967 199.56338 
L 469.389967 199.316861 
L 470.533246 199.316861 
L 470.533246 200.511482 
L 471.676524 200.511482 
L 471.676524 200.779431 
L 472.819803 200.779431 
L 472.819803 200.322596 
L 473.963081 200.322596 
L 473.963081 200.585707 
L 475.10636 200.585707 
L 475.10636 199.755708 
L 476.249638 199.755708 
L 476.249638 199.427429 
L 477.392917 199.427429 
L 477.392917 199.308685 
L 478.536195 199.308685 
L 478.536195 198.023942 
L 479.679474 198.023942 
L 479.679474 197.885044 
L 483.109309 197.97494 
L 483.109309 197.47394 
L 484.252587 197.47394 
L 484.252587 197.823137 
L 485.395866 197.823137 
L 485.395866 198.008513 
L 486.539144 198.008513 
L 486.539144 195.948452 
L 487.682423 195.948452 
L 487.682423 196.583102 
L 488.825701 196.583102 
L 488.825701 196.227454 
L 491.112258 196.248181 
L 491.112258 196.380477 
L 492.255537 196.380477 
L 492.255537 196.147029 
L 493.398815 196.147029 
L 493.398815 196.582848 
L 494.542094 196.582848 
L 494.542094 195.276189 
L 495.685372 195.276189 
L 495.685372 194.439406 
L 496.828651 194.439406 
L 496.828651 194.115507 
L 497.971929 194.115507 
L 497.971929 191.053598 
L 499.115208 191.053598 
L 499.115208 191.916546 
L 500.258486 191.916546 
L 500.258486 192.064958 
L 501.401765 192.064958 
L 501.401765 193.015831 
L 502.545043 193.015831 
L 502.545043 193.727648 
L 504.8316 193.775205 
L 504.8316 195.090191 
L 505.974878 195.090191 
L 505.974878 193.318787 
L 507.118157 193.318787 
L 507.118157 194.445679 
L 508.261435 194.445679 
L 508.261435 193.664761 
L 509.404714 193.664761 
L 509.404714 197.384022 
L 510.547992 197.384022 
L 510.547992 197.243537 
L 512.834549 197.22054 
L 512.834549 195.516723 
L 513.977828 195.516723 
L 513.977828 192.440199 
L 515.121106 192.440199 
L 515.121106 188.421634 
L 516.264385 188.421634 
L 516.264385 188.710951 
L 517.407663 188.710951 
L 517.407663 188.506652 
L 518.550942 188.506652 
L 518.550942 188.734879 
L 519.69422 188.734879 
L 519.69422 178.595596 
L 520.837499 178.595596 
L 520.837499 177.647196 
L 521.980777 177.647196 
L 521.980777 181.944048 
L 523.124056 181.944048 
L 523.124056 172.599287 
L 524.267334 172.599287 
L 524.267334 173.090956 
L 525.410612 173.090956 
L 525.410612 170.283628 
L 527.697169 170.334518 
L 527.697169 210.415999 
L 529.983726 210.488419 
L 529.983726 209.672132 
L 531.127005 209.672132 
L 531.127005 204.270402 
L 533.413562 204.319116 
L 533.413562 204.064952 
L 534.55684 204.064952 
L 534.55684 205.592164 
L 535.700119 205.592164 
L 535.700119 205.966541 
L 536.843397 205.966541 
L 536.843397 205.672225 
L 537.986676 205.672225 
L 537.986676 203.702307 
L 539.129954 203.702307 
L 539.129954 201.856267 
L 540.273233 201.856267 
L 540.273233 199.166449 
L 541.416511 199.166449 
L 541.416511 207.541972 
L 542.55979 207.541972 
L 542.55979 207.665114 
L 543.703068 207.665114 
L 543.703068 205.553803 
L 544.846347 205.553803 
L 544.846347 205.025858 
L 545.989625 205.025858 
L 545.989625 206.511626 
L 547.132903 206.511626 
L 547.132903 203.384957 
L 548.276182 203.384957 
L 548.276182 205.275853 
L 549.41946 205.275853 
L 549.41946 204.48917 
L 550.562739 204.48917 
L 550.562739 203.452549 
L 552.849296 203.506273 
L 552.849296 210.276715 
L 553.992574 210.276715 
L 553.992574 206.670645 
L 555.135853 206.670645 
L 555.135853 207.508844 
L 556.279131 207.508844 
L 556.279131 204.016249 
L 557.42241 204.016249 
L 557.42241 206.023954 
L 557.42241 206.023954 
" clip-path="url(#p7eaedf8bae)" style="fill: none; stroke: #a1c9f4"/>
   </g>
   <g id="patch_12">
    <path d="M 16.914646 213.165354 
L 16.914646 169.034646 
" style="fill: none; stroke: #adb2b7; stroke-linejoin: miter; stroke-linecap: square"/>
   </g>
   <g id="patch_13">
    <path d="M 16.914646 213.165354 
L 573.165354 213.165354 
" style="fill: none; stroke: #adb2b7; stroke-linejoin: miter; stroke-linecap: square"/>
   </g>
  </g>
 </g>
 <defs>
  <clipPath id="pa16f0cc698">
   <rect x="16.914646" y="19.634646" width="556.250709" height="44.130709"/>
  </clipPath>
  <clipPath id="p26e823f54e">
   <rect x="16.914646" y="69.434646" width="556.250709" height="44.130709"/>
  </clipPath>
  <clipPath id="pfec033cbfc">
   <rect x="16.914646" y="119.234646" width="556.250709" height="44.130709"/>
  </clipPath>
  <clipPath id="p7eaedf8bae">
   <rect x="16.914646" y="169.034646" width="556.250709" height="44.130709"/>
  </clipPath>
 </defs>
</svg>
