<?xml version="1.0" encoding="utf-8" standalone="no"?>
<!DOCTYPE svg PUBLIC "-//W3C//DTD SVG 1.1//EN"
  "http://www.w3.org/Graphics/SVG/1.1/DTD/svg11.dtd">
<svg xmlns:xlink="http://www.w3.org/1999/xlink" width="432pt" height="288pt" viewBox="0 0 432 288" xmlns="http://www.w3.org/2000/svg" version="1.1">
 <metadata>
  <rdf:RDF xmlns:dc="http://purl.org/dc/elements/1.1/" xmlns:cc="http://creativecommons.org/ns#" xmlns:rdf="http://www.w3.org/1999/02/22-rdf-syntax-ns#">
   <cc:Work>
    <dc:type rdf:resource="http://purl.org/dc/dcmitype/StillImage"/>
    <dc:date>2023-09-12T17:04:39.317766</dc:date>
    <dc:format>image/svg+xml</dc:format>
    <dc:creator>
     <cc:Agent>
      <dc:title>Matplotlib v3.7.1, https://matplotlib.org/</dc:title>
     </cc:Agent>
    </dc:creator>
   </cc:Work>
  </rdf:RDF>
 </metadata>
 <defs>
  <style type="text/css">*{stroke-linejoin: round; stroke-linecap: butt}</style>
 </defs>
 <g id="figure_1">
  <g id="patch_1">
   <path d="M 0 288 
L 432 288 
L 432 0 
L 0 0 
z
" style="fill: #1b3041"/>
  </g>
  <g id="axes_1">
   <g id="patch_2">
    <path d="M 16.914646 134.295354 
L 429.165354 134.295354 
L 429.165354 18.914646 
L 16.914646 18.914646 
z
" style="fill: #21252b"/>
   </g>
   <g id="matplotlib.axis_1"/>
   <g id="matplotlib.axis_2">
    <g id="text_1">
     <!-- canal I -->
     <g style="fill: #9eb1be" transform="translate(10.626989 95.465703) rotate(-90) scale(0.11 -0.11)">
      <defs>
       <path id="DejaVuSerif-63" d="M 3291 997 
Q 3169 466 2822 187 
Q 2475 -91 1925 -91 
Q 1200 -91 759 389 
Q 319 869 319 1663 
Q 319 2459 759 2936 
Q 1200 3413 1925 3413 
Q 2241 3413 2553 3339 
Q 2866 3266 3181 3116 
L 3181 2266 
L 2847 2266 
Q 2781 2703 2561 2903 
Q 2341 3103 1931 3103 
Q 1466 3103 1228 2742 
Q 991 2381 991 1663 
Q 991 944 1227 581 
Q 1463 219 1931 219 
Q 2303 219 2525 412 
Q 2747 606 2828 997 
L 3291 997 
z
" transform="scale(0.015625)"/>
       <path id="DejaVuSerif-61" d="M 2547 1044 
L 2547 1747 
L 1806 1747 
Q 1378 1747 1168 1562 
Q 959 1378 959 997 
Q 959 650 1171 447 
Q 1384 244 1747 244 
Q 2106 244 2326 466 
Q 2547 688 2547 1044 
z
M 3122 2075 
L 3122 331 
L 3634 331 
L 3634 0 
L 2547 0 
L 2547 359 
Q 2356 128 2106 18 
Q 1856 -91 1522 -91 
Q 969 -91 644 203 
Q 319 497 319 997 
Q 319 1513 691 1797 
Q 1063 2081 1741 2081 
L 2547 2081 
L 2547 2309 
Q 2547 2688 2317 2895 
Q 2088 3103 1672 3103 
Q 1328 3103 1125 2947 
Q 922 2791 872 2484 
L 575 2484 
L 575 3156 
Q 875 3284 1158 3348 
Q 1441 3413 1709 3413 
Q 2400 3413 2761 3070 
Q 3122 2728 3122 2075 
z
" transform="scale(0.015625)"/>
       <path id="DejaVuSerif-6e" d="M 263 0 
L 263 331 
L 781 331 
L 781 2988 
L 231 2988 
L 231 3322 
L 1356 3322 
L 1356 2731 
Q 1516 3069 1770 3241 
Q 2025 3413 2363 3413 
Q 2913 3413 3172 3097 
Q 3431 2781 3431 2113 
L 3431 331 
L 3944 331 
L 3944 0 
L 2356 0 
L 2356 331 
L 2853 331 
L 2853 1931 
Q 2853 2541 2703 2767 
Q 2553 2994 2175 2994 
Q 1775 2994 1565 2701 
Q 1356 2409 1356 1850 
L 1356 331 
L 1856 331 
L 1856 0 
L 263 0 
z
" transform="scale(0.015625)"/>
       <path id="DejaVuSerif-6c" d="M 1313 331 
L 1856 331 
L 1856 0 
L 184 0 
L 184 331 
L 738 331 
L 738 4531 
L 184 4531 
L 184 4863 
L 1313 4863 
L 1313 331 
z
" transform="scale(0.015625)"/>
       <path id="DejaVuSerif-20" transform="scale(0.015625)"/>
       <path id="DejaVuSerif-49" d="M 1581 331 
L 2175 331 
L 2175 0 
L 353 0 
L 353 331 
L 947 331 
L 947 4331 
L 353 4331 
L 353 4666 
L 2175 4666 
L 2175 4331 
L 1581 4331 
L 1581 331 
z
" transform="scale(0.015625)"/>
      </defs>
      <use xlink:href="#DejaVuSerif-63"/>
      <use xlink:href="#DejaVuSerif-61" x="56.005859"/>
      <use xlink:href="#DejaVuSerif-6e" x="115.625"/>
      <use xlink:href="#DejaVuSerif-61" x="180.029297"/>
      <use xlink:href="#DejaVuSerif-6c" x="239.648438"/>
      <use xlink:href="#DejaVuSerif-20" x="271.630859"/>
      <use xlink:href="#DejaVuSerif-49" x="303.417969"/>
     </g>
    </g>
   </g>
   <g id="line2d_1">
    <path d="M 28.582119 76.639337 
L 30.140899 76.673366 
L 30.140899 77.147049 
L 31.69968 77.130039 
L 31.69968 76.892159 
L 32.47907 76.892159 
L 32.47907 76.69104 
L 33.25846 76.69104 
L 33.25846 76.967245 
L 34.037851 76.967245 
L 34.037851 77.236598 
L 34.817241 77.236598 
L 34.817241 77.011066 
L 35.596631 77.011066 
L 35.596631 76.787653 
L 36.376022 76.787653 
L 36.376022 77.176064 
L 37.155412 77.176064 
L 37.155412 76.583352 
L 37.934802 76.583352 
L 37.934802 76.833725 
L 38.714193 76.833725 
L 38.714193 76.5222 
L 39.493583 76.5222 
L 39.493583 75.978109 
L 40.272973 75.978109 
L 40.272973 77.116932 
L 41.052363 77.116932 
L 41.052363 76.90213 
L 41.831754 76.90213 
L 41.831754 76.64418 
L 42.611144 76.64418 
L 42.611144 77.148271 
L 43.390534 77.148271 
L 43.390534 76.626 
L 44.949315 76.715497 
L 44.949315 77.026991 
L 45.728705 77.026991 
L 45.728705 76.393799 
L 46.508096 76.393799 
L 46.508096 77.392022 
L 47.287486 77.392022 
L 47.287486 76.463888 
L 48.846267 76.399435 
L 48.846267 77.130274 
L 49.625657 77.130274 
L 49.625657 76.962143 
L 50.405047 76.962143 
L 50.405047 76.063756 
L 51.184437 76.063756 
L 51.184437 77.188119 
L 51.963828 77.188119 
L 51.963828 75.841632 
L 52.743218 75.841632 
L 52.743218 76.941046 
L 54.301999 76.952633 
L 54.301999 77.134648 
L 55.081389 77.134648 
L 55.081389 76.588683 
L 55.860779 76.588683 
L 55.860779 77.464348 
L 56.64017 77.464348 
L 56.64017 76.480378 
L 57.41956 76.480378 
L 57.41956 76.218556 
L 58.19895 76.218556 
L 58.19895 76.346261 
L 58.978341 76.346261 
L 58.978341 77.019274 
L 59.757731 77.019274 
L 59.757731 76.621719 
L 61.316511 76.718495 
L 61.316511 77.088889 
L 62.095902 77.088889 
L 62.095902 76.374072 
L 62.875292 76.374072 
L 62.875292 76.5519 
L 63.654682 76.5519 
L 63.654682 77.412853 
L 64.434073 77.412853 
L 64.434073 77.029317 
L 65.992853 77.100094 
L 65.992853 76.498723 
L 66.772244 76.498723 
L 66.772244 76.714063 
L 67.551634 76.714063 
L 67.551634 76.273404 
L 68.331024 76.273404 
L 68.331024 77.105697 
L 69.110414 77.105697 
L 69.110414 76.707557 
L 69.889805 76.707557 
L 69.889805 77.041457 
L 70.669195 77.041457 
L 70.669195 76.291747 
L 71.448585 76.291747 
L 71.448585 76.175701 
L 72.227976 76.175701 
L 72.227976 76.011988 
L 73.007366 76.011988 
L 73.007366 77.476456 
L 73.786756 77.476456 
L 73.786756 76.865339 
L 74.566147 76.865339 
L 74.566147 77.214226 
L 75.345537 77.214226 
L 75.345537 76.931839 
L 76.904318 76.991931 
L 76.904318 76.760959 
L 77.683708 76.760959 
L 77.683708 77.498591 
L 79.242488 77.39876 
L 79.242488 77.044758 
L 80.021879 77.044758 
L 80.021879 77.264795 
L 80.801269 77.264795 
L 80.801269 76.457887 
L 82.36005 76.563878 
L 82.36005 76.211511 
L 83.13944 76.211511 
L 83.13944 76.502161 
L 83.91883 76.502161 
L 83.91883 76.887743 
L 84.698221 76.887743 
L 84.698221 77.051237 
L 85.477611 77.051237 
L 85.477611 76.453635 
L 86.257001 76.453635 
L 86.257001 76.642388 
L 87.815782 76.618304 
L 87.815782 77.260173 
L 88.595172 77.260173 
L 88.595172 76.965551 
L 89.374562 76.965551 
L 89.374562 76.593668 
L 90.153953 76.593668 
L 90.153953 76.750357 
L 90.933343 76.750357 
L 90.933343 75.88491 
L 91.712733 75.88491 
L 91.712733 75.765841 
L 92.492124 75.765841 
L 92.492124 76.783499 
L 94.050904 76.722177 
L 94.050904 77.01555 
L 94.830295 77.01555 
L 94.830295 76.538563 
L 95.609685 76.538563 
L 95.609685 77.300145 
L 96.389075 77.300145 
L 96.389075 77.016115 
L 97.947856 76.941696 
L 97.947856 76.765045 
L 98.727246 76.765045 
L 98.727246 76.629154 
L 99.506636 76.629154 
L 99.506636 76.868568 
L 100.286027 76.868568 
L 100.286027 76.526107 
L 102.624198 76.624203 
L 102.624198 76.380771 
L 103.403588 76.380771 
L 103.403588 77.078562 
L 104.182978 77.078562 
L 104.182978 76.54294 
L 104.962369 76.54294 
L 104.962369 76.909852 
L 106.521149 76.870031 
L 106.521149 76.430939 
L 107.30054 76.430939 
L 107.30054 75.688281 
L 108.07993 75.688281 
L 108.07993 76.994971 
L 108.85932 76.994971 
L 108.85932 76.637873 
L 109.63871 76.637873 
L 109.63871 76.293413 
L 110.418101 76.293413 
L 110.418101 77.033358 
L 111.197491 77.033358 
L 111.197491 76.05738 
L 111.976881 76.05738 
L 111.976881 77.036102 
L 112.756272 77.036102 
L 112.756272 76.208781 
L 113.535662 76.208781 
L 113.535662 76.637898 
L 116.653223 76.580199 
L 116.653223 76.320603 
L 117.432613 76.320603 
L 117.432613 77.439779 
L 118.212004 77.439779 
L 118.212004 77.212032 
L 118.991394 77.212032 
L 118.991394 76.349937 
L 119.770784 76.349937 
L 119.770784 76.773837 
L 120.550175 76.773837 
L 120.550175 77.116157 
L 121.329565 77.116157 
L 121.329565 76.561077 
L 122.108955 76.561077 
L 122.108955 60.547623 
L 122.888346 60.547623 
L 122.888346 122.466644 
L 123.667736 122.466644 
L 123.667736 82.340396 
L 124.447126 82.340396 
L 124.447126 28.056331 
L 125.226517 28.056331 
L 125.226517 45.011364 
L 126.005907 45.011364 
L 126.005907 27.576213 
L 126.785297 27.576213 
L 126.785297 81.492281 
L 127.564687 81.492281 
L 127.564687 122.666127 
L 128.344078 122.666127 
L 128.344078 61.355342 
L 129.123468 61.355342 
L 129.123468 75.288752 
L 129.902858 75.288752 
L 129.902858 103.940529 
L 130.682249 103.940529 
L 130.682249 81.081635 
L 131.461639 81.081635 
L 131.461639 76.975202 
L 132.241029 76.975202 
L 132.241029 81.087702 
L 133.02042 81.087702 
L 133.02042 103.929789 
L 133.79981 103.929789 
L 133.79981 75.799635 
L 134.5792 75.799635 
L 134.5792 60.944931 
L 135.358591 60.944931 
L 135.358591 121.939877 
L 136.137981 121.939877 
L 136.137981 81.334492 
L 136.917371 81.334492 
L 136.917371 27.747488 
L 137.696761 27.747488 
L 137.696761 44.420885 
L 138.476152 44.420885 
L 138.476152 27.245738 
L 139.255542 27.245738 
L 139.255542 81.067825 
L 140.034932 81.067825 
L 140.034932 122.874262 
L 140.814323 122.874262 
L 140.814323 60.675741 
L 141.593713 60.675741 
L 141.593713 75.683982 
L 142.373103 75.683982 
L 142.373103 104.369876 
L 143.152494 104.369876 
L 143.152494 81.31838 
L 143.931884 81.31838 
L 143.931884 76.76457 
L 144.711274 76.76457 
L 144.711274 81.537788 
L 145.490665 81.537788 
L 145.490665 104.066073 
L 146.270055 104.066073 
L 146.270055 75.525672 
L 147.049445 75.525672 
L 147.049445 61.121389 
L 147.828835 61.121389 
L 147.828835 121.964456 
L 148.608226 121.964456 
L 148.608226 80.776591 
L 149.387616 80.776591 
L 149.387616 27.489892 
L 150.167006 27.489892 
L 150.167006 45.089381 
L 150.946397 45.089381 
L 150.946397 27.277028 
L 151.725787 27.277028 
L 151.725787 81.010707 
L 152.505177 81.010707 
L 152.505177 122.90183 
L 153.284568 122.90183 
L 153.284568 60.718932 
L 154.063958 60.718932 
L 154.063958 76.274921 
L 154.843348 76.274921 
L 154.843348 104.144878 
L 155.622738 104.144878 
L 155.622738 81.166176 
L 156.402129 81.166176 
L 156.402129 77.333042 
L 157.181519 77.333042 
L 157.181519 81.343679 
L 157.960909 81.343679 
L 157.960909 103.936262 
L 158.7403 103.936262 
L 158.7403 75.945789 
L 159.51969 75.945789 
L 159.51969 61.150968 
L 160.29908 61.150968 
L 160.29908 122.106648 
L 161.078471 122.106648 
L 161.078471 81.71687 
L 161.857861 81.71687 
L 161.857861 27.128073 
L 162.637251 27.128073 
L 162.637251 44.737646 
L 163.416642 44.737646 
L 163.416642 27.675664 
L 164.196032 27.675664 
L 164.196032 81.432779 
L 164.975422 81.432779 
L 164.975422 122.718486 
L 165.754812 122.718486 
L 165.754812 60.308232 
L 166.534203 60.308232 
L 166.534203 76.330107 
L 167.313593 76.330107 
L 167.313593 104.207307 
L 168.092983 104.207307 
L 168.092983 80.793254 
L 168.872374 80.793254 
L 168.872374 76.489556 
L 169.651764 76.489556 
L 169.651764 81.28298 
L 170.431154 81.28298 
L 170.431154 103.98377 
L 171.210545 103.98377 
L 171.210545 76.138525 
L 171.989935 76.138525 
L 171.989935 60.690829 
L 172.769325 60.690829 
L 172.769325 122.34186 
L 173.548716 122.34186 
L 173.548716 81.334462 
L 174.328106 81.334462 
L 174.328106 26.85263 
L 175.107496 26.85263 
L 175.107496 44.553973 
L 175.886886 44.553973 
L 175.886886 27.486713 
L 176.666277 27.486713 
L 176.666277 81.859989 
L 177.445667 81.859989 
L 177.445667 122.352878 
L 178.225057 122.352878 
L 178.225057 60.893766 
L 179.004448 60.893766 
L 179.004448 76.335547 
L 179.783838 76.335547 
L 179.783838 104.013158 
L 180.563228 104.013158 
L 180.563228 80.680102 
L 181.342619 80.680102 
L 181.342619 76.554358 
L 182.122009 76.554358 
L 182.122009 81.190516 
L 182.901399 81.190516 
L 182.901399 103.567326 
L 183.68079 103.567326 
L 183.68079 75.802206 
L 184.46018 75.802206 
L 184.46018 60.542096 
L 185.23957 60.542096 
L 185.23957 123.192785 
L 186.01896 123.192785 
L 186.01896 81.054057 
L 186.798351 81.054057 
L 186.798351 26.685485 
L 187.577741 26.685485 
L 187.577741 45.347825 
L 188.357131 45.347825 
L 188.357131 27.128117 
L 189.136522 27.128117 
L 189.136522 81.220778 
L 189.915912 81.220778 
L 189.915912 122.816997 
L 190.695302 122.816997 
L 190.695302 60.518724 
L 191.474693 60.518724 
L 191.474693 75.651403 
L 192.254083 75.651403 
L 192.254083 104.278117 
L 193.033473 104.278117 
L 193.033473 81.088069 
L 193.812864 81.088069 
L 193.812864 77.015649 
L 194.592254 77.015649 
L 194.592254 81.064261 
L 195.371644 81.064261 
L 195.371644 103.997478 
L 196.151034 103.997478 
L 196.151034 75.821075 
L 196.930425 75.821075 
L 196.930425 61.013519 
L 197.709815 61.013519 
L 197.709815 122.664805 
L 198.489205 122.664805 
L 198.489205 81.986935 
L 199.268596 81.986935 
L 199.268596 27.667498 
L 200.047986 27.667498 
L 200.047986 44.815899 
L 200.827376 44.815899 
L 200.827376 27.362862 
L 201.606767 27.362862 
L 201.606767 81.127784 
L 202.386157 81.127784 
L 202.386157 122.806265 
L 203.165547 122.806265 
L 203.165547 60.511359 
L 203.944937 60.511359 
L 203.944937 75.564738 
L 204.724328 75.564738 
L 204.724328 103.509579 
L 205.503718 103.509579 
L 205.503718 81.004808 
L 206.283108 81.004808 
L 206.283108 76.068552 
L 207.062499 76.068552 
L 207.062499 80.731268 
L 207.841889 80.731268 
L 207.841889 104.057611 
L 208.621279 104.057611 
L 208.621279 76.439444 
L 209.40067 76.439444 
L 209.40067 60.357059 
L 210.18006 60.357059 
L 210.18006 122.516644 
L 210.95945 122.516644 
L 210.95945 80.869494 
L 211.738841 80.869494 
L 211.738841 27.705016 
L 212.518231 27.705016 
L 212.518231 44.98736 
L 213.297621 44.98736 
L 213.297621 27.310031 
L 214.077011 27.310031 
L 214.077011 81.806279 
L 214.856402 81.806279 
L 214.856402 121.795811 
L 215.635792 121.795811 
L 215.635792 60.62498 
L 216.415182 60.62498 
L 216.415182 76.115062 
L 217.194573 76.115062 
L 217.194573 104.043702 
L 217.973963 104.043702 
L 217.973963 80.998099 
L 218.753353 80.998099 
L 218.753353 76.895983 
L 219.532744 76.895983 
L 219.532744 80.763303 
L 220.312134 80.763303 
L 220.312134 103.972606 
L 221.091524 103.972606 
L 221.091524 76.017602 
L 221.870915 76.017602 
L 221.870915 60.81093 
L 222.650305 60.81093 
L 222.650305 122.858741 
L 223.429695 122.858741 
L 223.429695 81.592572 
L 224.209085 81.592572 
L 224.209085 27.647936 
L 224.988476 27.647936 
L 224.988476 44.450635 
L 225.767866 44.450635 
L 225.767866 27.435526 
L 226.547256 27.435526 
L 226.547256 81.367541 
L 227.326647 81.367541 
L 227.326647 122.422408 
L 228.106037 122.422408 
L 228.106037 60.859174 
L 228.885427 60.859174 
L 228.885427 75.63657 
L 229.664818 75.63657 
L 229.664818 103.703285 
L 230.444208 103.703285 
L 230.444208 80.892802 
L 231.223598 80.892802 
L 231.223598 76.906271 
L 232.002989 76.906271 
L 232.002989 81.309479 
L 232.782379 81.309479 
L 232.782379 103.943604 
L 233.561769 103.943604 
L 233.561769 75.793427 
L 234.341159 75.793427 
L 234.341159 60.90673 
L 235.12055 60.90673 
L 235.12055 122.276169 
L 235.89994 122.276169 
L 235.89994 81.882478 
L 236.67933 81.882478 
L 236.67933 27.213439 
L 237.458721 27.213439 
L 237.458721 45.431131 
L 238.238111 45.431131 
L 238.238111 27.656672 
L 239.017501 27.656672 
L 239.017501 81.565767 
L 239.796892 81.565767 
L 239.796892 122.028902 
L 240.576282 122.028902 
L 240.576282 61.059439 
L 241.355672 61.059439 
L 241.355672 76.298055 
L 242.135063 76.298055 
L 242.135063 103.230321 
L 242.914453 103.230321 
L 242.914453 81.057584 
L 243.693843 81.057584 
L 243.693843 76.007898 
L 244.473233 76.007898 
L 244.473233 81.234356 
L 245.252624 81.234356 
L 245.252624 104.058558 
L 246.032014 104.058558 
L 246.032014 76.153721 
L 246.811404 76.153721 
L 246.811404 131.029863 
L 247.590795 131.029863 
L 247.590795 72.347694 
L 248.370185 72.347694 
L 248.370185 45.137295 
L 249.149575 45.137295 
L 249.149575 108.609785 
L 249.928966 108.609785 
L 249.928966 77.784414 
L 250.708356 77.784414 
L 250.708356 50.458052 
L 251.487746 50.458052 
L 251.487746 120.602969 
L 252.267136 120.602969 
L 252.267136 118.942506 
L 253.046527 118.942506 
L 253.046527 88.028343 
L 253.825917 88.028343 
L 253.825917 96.158874 
L 254.605307 96.158874 
L 254.605307 97.983151 
L 255.384698 97.983151 
L 255.384698 52.499991 
L 256.164088 52.499991 
L 256.164088 48.177923 
L 256.943478 48.177923 
L 256.943478 121.533196 
L 257.722869 121.533196 
L 257.722869 96.524822 
L 258.502259 96.524822 
L 258.502259 64.755755 
L 259.281649 64.755755 
L 259.281649 55.251148 
L 260.06104 55.251148 
L 260.06104 35.647092 
L 260.84043 35.647092 
L 260.84043 84.324708 
L 261.61982 84.324708 
L 261.61982 57.074689 
L 262.39921 57.074689 
L 262.39921 68.503601 
L 263.178601 68.503601 
L 263.178601 123.93816 
L 263.957991 123.93816 
L 263.957991 76.575598 
L 264.737381 76.575598 
L 264.737381 58.323432 
L 265.516772 58.323432 
L 265.516772 42.801218 
L 266.296162 42.801218 
L 266.296162 89.702733 
L 267.075552 89.702733 
L 267.075552 116.709311 
L 267.854943 116.709311 
L 267.854943 56.381863 
L 268.634333 56.381863 
L 268.634333 69.456959 
L 269.413723 69.456959 
L 269.413723 42.537736 
L 270.193114 42.537736 
L 270.193114 62.858208 
L 270.972504 62.858208 
L 270.972504 78.506019 
L 271.751894 78.506019 
L 271.751894 22.180137 
L 272.531284 22.180137 
L 272.531284 78.37551 
L 273.310675 78.37551 
L 273.310675 63.367936 
L 274.090065 63.367936 
L 274.090065 43.455231 
L 274.869455 43.455231 
L 274.869455 69.585829 
L 275.648846 69.585829 
L 275.648846 55.900974 
L 276.428236 55.900974 
L 276.428236 116.865321 
L 277.207626 116.865321 
L 277.207626 89.818391 
L 277.987017 89.818391 
L 277.987017 43.532466 
L 278.766407 43.532466 
L 278.766407 58.222751 
L 279.545797 58.222751 
L 279.545797 76.582072 
L 280.325188 76.582072 
L 280.325188 123.524558 
L 281.104578 123.524558 
L 281.104578 67.734238 
L 281.883968 67.734238 
L 281.883968 56.268575 
L 282.663358 56.268575 
L 282.663358 84.95885 
L 283.442749 84.95885 
L 283.442749 35.431396 
L 284.222139 35.431396 
L 284.222139 54.788298 
L 285.001529 54.788298 
L 285.001529 64.309681 
L 285.78092 64.309681 
L 285.78092 96.365909 
L 286.56031 96.365909 
L 286.56031 122.7606 
L 287.3397 122.7606 
L 287.3397 48.472614 
L 288.119091 48.472614 
L 288.119091 52.092545 
L 288.898481 52.092545 
L 288.898481 97.253675 
L 289.677871 97.253675 
L 289.677871 96.583025 
L 290.457262 96.583025 
L 290.457262 89.209745 
L 291.236652 89.209745 
L 291.236652 118.413381 
L 292.016042 118.413381 
L 292.016042 121.246333 
L 292.795432 121.246333 
L 292.795432 50.789927 
L 293.574823 50.789927 
L 293.574823 77.817895 
L 294.354213 77.817895 
L 294.354213 108.423322 
L 295.133603 108.423322 
L 295.133603 44.368736 
L 295.912994 44.368736 
L 295.912994 73.024754 
L 296.692384 73.024754 
L 296.692384 130.699153 
L 297.471774 130.699153 
L 297.471774 72.716967 
L 298.251165 72.716967 
L 298.251165 45.026492 
L 299.030555 45.026492 
L 299.030555 108.870201 
L 299.809945 108.870201 
L 299.809945 77.356298 
L 300.589335 77.356298 
L 300.589335 50.977111 
L 301.368726 50.977111 
L 301.368726 120.59991 
L 302.148116 120.59991 
L 302.148116 119.006192 
L 302.927506 119.006192 
L 302.927506 88.825713 
L 303.706897 88.825713 
L 303.706897 95.71016 
L 304.486287 95.71016 
L 304.486287 97.755149 
L 305.265677 97.755149 
L 305.265677 52.365481 
L 306.045068 52.365481 
L 306.045068 48.676195 
L 306.824458 48.676195 
L 306.824458 122.066712 
L 307.603848 122.066712 
L 307.603848 96.609296 
L 308.383239 96.609296 
L 308.383239 64.225217 
L 309.162629 64.225217 
L 309.162629 55.288908 
L 309.942019 55.288908 
L 309.942019 35.042376 
L 310.721409 35.042376 
L 310.721409 84.093947 
L 311.5008 84.093947 
L 311.5008 56.236827 
L 312.28019 56.236827 
L 312.28019 68.450369 
L 313.05958 68.450369 
L 313.05958 124.141763 
L 313.838971 124.141763 
L 313.838971 76.263013 
L 314.618361 76.263013 
L 314.618361 58.451451 
L 315.397751 58.451451 
L 315.397751 42.693271 
L 316.177142 42.693271 
L 316.177142 90.406694 
L 316.956532 90.406694 
L 316.956532 116.749451 
L 317.735922 116.749451 
L 317.735922 55.723169 
L 318.515313 55.723169 
L 318.515313 69.889064 
L 319.294703 69.889064 
L 319.294703 43.027969 
L 320.074093 43.027969 
L 320.074093 62.878796 
L 320.853483 62.878796 
L 320.853483 78.721937 
L 321.632874 78.721937 
L 321.632874 23.579326 
L 322.412264 23.579326 
L 322.412264 78.139496 
L 323.191654 78.139496 
L 323.191654 62.292002 
L 323.971045 62.292002 
L 323.971045 43.405538 
L 324.750435 43.405538 
L 324.750435 69.34502 
L 325.529825 69.34502 
L 325.529825 56.039137 
L 326.309216 56.039137 
L 326.309216 116.41238 
L 327.088606 116.41238 
L 327.088606 89.667552 
L 327.867996 89.667552 
L 327.867996 42.74608 
L 328.647387 42.74608 
L 328.647387 58.160445 
L 329.426777 58.160445 
L 329.426777 76.57592 
L 330.206167 76.57592 
L 330.206167 123.829664 
L 330.985557 123.829664 
L 330.985557 68.404711 
L 331.764948 68.404711 
L 331.764948 56.346558 
L 332.544338 56.346558 
L 332.544338 84.766718 
L 333.323728 84.766718 
L 333.323728 35.425541 
L 334.103119 35.425541 
L 334.103119 55.168494 
L 334.882509 55.168494 
L 334.882509 64.564367 
L 335.661899 64.564367 
L 335.661899 96.520365 
L 336.44129 96.520365 
L 336.44129 121.958451 
L 337.22068 121.958451 
L 337.22068 48.447417 
L 338.00007 48.447417 
L 338.00007 52.941393 
L 338.77946 52.941393 
L 338.77946 96.912555 
L 339.558851 96.912555 
L 339.558851 96.006078 
L 340.338241 96.006078 
L 340.338241 88.70065 
L 341.117631 88.70065 
L 341.117631 118.511389 
L 341.897022 118.511389 
L 341.897022 120.837108 
L 342.676412 120.837108 
L 342.676412 50.315473 
L 343.455802 50.315473 
L 343.455802 77.445893 
L 344.235193 77.445893 
L 344.235193 107.877803 
L 345.014583 107.877803 
L 345.014583 44.730639 
L 345.793973 44.730639 
L 345.793973 72.485473 
L 346.573364 72.485473 
L 346.573364 130.812729 
L 347.352754 130.812729 
L 347.352754 72.33524 
L 348.132144 72.33524 
L 348.132144 44.949582 
L 348.911534 44.949582 
L 348.911534 108.567456 
L 349.690925 108.567456 
L 349.690925 77.789784 
L 350.470315 77.789784 
L 350.470315 50.805404 
L 351.249705 50.805404 
L 351.249705 120.365813 
L 352.029096 120.365813 
L 352.029096 118.375803 
L 352.808486 118.375803 
L 352.808486 89.134943 
L 353.587876 89.134943 
L 353.587876 96.409461 
L 354.367267 96.409461 
L 354.367267 97.663279 
L 355.146657 97.663279 
L 355.146657 52.358257 
L 355.926047 52.358257 
L 355.926047 47.873214 
L 356.705438 47.873214 
L 356.705438 122.050767 
L 357.484828 122.050767 
L 357.484828 97.013703 
L 358.264218 97.013703 
L 358.264218 63.746947 
L 359.043608 63.746947 
L 359.043608 55.08699 
L 359.822999 55.08699 
L 359.822999 35.101264 
L 360.602389 35.101264 
L 360.602389 84.426225 
L 361.381779 84.426225 
L 361.381779 55.733174 
L 362.16117 55.733174 
L 362.16117 68.168027 
L 362.94056 68.168027 
L 362.94056 124.005127 
L 363.71995 124.005127 
L 363.71995 76.729132 
L 364.499341 76.729132 
L 364.499341 58.293835 
L 365.278731 58.293835 
L 365.278731 43.344871 
L 366.058121 43.344871 
L 366.058121 90.071602 
L 366.837512 90.071602 
L 366.837512 116.687914 
L 367.616902 116.687914 
L 367.616902 55.783226 
L 368.396292 55.783226 
L 368.396292 69.069474 
L 369.175682 69.069474 
L 369.175682 43.342264 
L 369.955073 43.342264 
L 369.955073 62.842614 
L 370.734463 62.842614 
L 370.734463 78.684498 
L 371.513853 78.684498 
L 371.513853 76.654331 
L 372.293244 76.654331 
L 372.293244 77.423163 
L 373.072634 77.423163 
L 373.072634 76.716438 
L 373.852024 76.716438 
L 373.852024 77.022152 
L 375.410805 76.922726 
L 375.410805 76.544843 
L 377.748976 76.592128 
L 377.748976 77.281562 
L 379.307756 77.309721 
L 379.307756 76.969058 
L 380.087147 76.969058 
L 380.087147 76.488471 
L 380.866537 76.488471 
L 380.866537 77.120874 
L 381.645927 77.120874 
L 381.645927 77.240294 
L 382.425318 77.240294 
L 382.425318 76.621559 
L 384.763489 76.584296 
L 384.763489 76.943791 
L 385.542879 76.943791 
L 385.542879 77.14514 
L 386.322269 77.14514 
L 386.322269 76.790175 
L 387.101659 76.790175 
L 387.101659 77.173417 
L 387.88105 77.173417 
L 387.88105 76.279293 
L 388.66044 76.279293 
L 388.66044 76.532088 
L 389.43983 76.532088 
L 389.43983 77.013902 
L 390.219221 77.013902 
L 390.219221 76.605006 
L 390.998611 76.605006 
L 390.998611 76.37622 
L 391.778001 76.37622 
L 391.778001 76.501543 
L 392.557392 76.501543 
L 392.557392 76.954648 
L 393.336782 76.954648 
L 393.336782 76.757063 
L 394.116172 76.757063 
L 394.116172 76.544264 
L 394.895563 76.544264 
L 394.895563 77.303246 
L 395.674953 77.303246 
L 395.674953 76.487965 
L 396.454343 76.487965 
L 396.454343 76.752016 
L 398.013124 76.685621 
L 398.013124 76.6141 
L 398.792514 76.6141 
L 398.792514 76.885297 
L 399.571904 76.885297 
L 399.571904 76.754081 
L 400.351295 76.754081 
L 400.351295 77.022407 
L 401.130685 77.022407 
L 401.130685 77.294535 
L 401.910075 77.294535 
L 401.910075 77.017429 
L 402.689466 77.017429 
L 402.689466 76.68621 
L 403.468856 76.68621 
L 403.468856 77.056936 
L 404.248246 77.056936 
L 404.248246 76.681 
L 407.365807 76.661837 
L 407.365807 76.464366 
L 408.145198 76.464366 
L 408.145198 76.675955 
L 408.924588 76.675955 
L 408.924588 76.061764 
L 409.703978 76.061764 
L 409.703978 77.084796 
L 410.483369 77.084796 
L 410.483369 76.462245 
L 411.262759 76.462245 
L 411.262759 76.729606 
L 412.042149 76.729606 
L 412.042149 77.6407 
L 412.82154 77.6407 
L 412.82154 76.000454 
L 413.60093 76.000454 
L 413.60093 76.491987 
L 415.159711 76.573754 
L 415.159711 76.135729 
L 415.939101 76.135729 
L 415.939101 76.758455 
L 416.718491 76.758455 
L 416.718491 76.974592 
L 417.497881 76.974592 
L 417.497881 76.813975 
L 417.497881 76.813975 
" clip-path="url(#pb384518f4b)" style="fill: none; stroke: #a1c9f4"/>
   </g>
   <g id="patch_3">
    <path d="M 16.914646 134.295354 
L 16.914646 18.914646 
" style="fill: none; stroke: #adb2b7; stroke-linejoin: miter; stroke-linecap: square"/>
   </g>
   <g id="patch_4">
    <path d="M 16.914646 134.295354 
L 429.165354 134.295354 
" style="fill: none; stroke: #adb2b7; stroke-linejoin: miter; stroke-linecap: square"/>
   </g>
   <g id="text_2">
    <!-- Incerteza en Tiempo -->
    <g style="fill: #adb2b7" transform="translate(150.054062 12.914646) scale(0.14 -0.14)">
     <defs>
      <path id="DejaVuSerif-65" d="M 3469 1600 
L 991 1600 
L 991 1575 
Q 991 903 1244 561 
Q 1497 219 1991 219 
Q 2369 219 2611 417 
Q 2853 616 2950 1006 
L 3413 1006 
Q 3275 459 2904 184 
Q 2534 -91 1931 -91 
Q 1203 -91 761 389 
Q 319 869 319 1663 
Q 319 2450 753 2931 
Q 1188 3413 1894 3413 
Q 2647 3413 3050 2948 
Q 3453 2484 3469 1600 
z
M 2791 1931 
Q 2772 2513 2545 2808 
Q 2319 3103 1894 3103 
Q 1497 3103 1269 2806 
Q 1041 2509 991 1931 
L 2791 1931 
z
" transform="scale(0.015625)"/>
      <path id="DejaVuSerif-72" d="M 3059 3328 
L 3059 2497 
L 2728 2497 
Q 2713 2744 2591 2866 
Q 2469 2988 2234 2988 
Q 1809 2988 1582 2694 
Q 1356 2400 1356 1850 
L 1356 331 
L 2022 331 
L 2022 0 
L 263 0 
L 263 331 
L 781 331 
L 781 2994 
L 231 2994 
L 231 3322 
L 1356 3322 
L 1356 2731 
Q 1525 3078 1790 3245 
Q 2056 3413 2438 3413 
Q 2578 3413 2733 3391 
Q 2888 3369 3059 3328 
z
" transform="scale(0.015625)"/>
      <path id="DejaVuSerif-74" d="M 691 2988 
L 184 2988 
L 184 3322 
L 691 3322 
L 691 4353 
L 1269 4353 
L 1269 3322 
L 2350 3322 
L 2350 2988 
L 1269 2988 
L 1269 878 
Q 1269 456 1350 337 
Q 1431 219 1650 219 
Q 1875 219 1978 351 
Q 2081 484 2088 781 
L 2522 781 
Q 2497 328 2275 118 
Q 2053 -91 1600 -91 
Q 1103 -91 897 129 
Q 691 350 691 878 
L 691 2988 
z
" transform="scale(0.015625)"/>
      <path id="DejaVuSerif-7a" d="M 256 0 
L 256 269 
L 2338 2988 
L 691 2988 
L 691 2413 
L 359 2413 
L 359 3322 
L 3078 3322 
L 3078 3053 
L 997 331 
L 2803 331 
L 2803 934 
L 3138 934 
L 3138 0 
L 256 0 
z
" transform="scale(0.015625)"/>
      <path id="DejaVuSerif-54" d="M 1222 0 
L 1222 331 
L 1819 331 
L 1819 4294 
L 447 4294 
L 447 3566 
L 63 3566 
L 63 4666 
L 4206 4666 
L 4206 3566 
L 3822 3566 
L 3822 4294 
L 2450 4294 
L 2450 331 
L 3047 331 
L 3047 0 
L 1222 0 
z
" transform="scale(0.015625)"/>
      <path id="DejaVuSerif-69" d="M 622 4353 
Q 622 4497 726 4603 
Q 831 4709 978 4709 
Q 1122 4709 1226 4603 
Q 1331 4497 1331 4353 
Q 1331 4206 1228 4103 
Q 1125 4000 978 4000 
Q 831 4000 726 4103 
Q 622 4206 622 4353 
z
M 1356 331 
L 1900 331 
L 1900 0 
L 231 0 
L 231 331 
L 781 331 
L 781 2988 
L 231 2988 
L 231 3322 
L 1356 3322 
L 1356 331 
z
" transform="scale(0.015625)"/>
      <path id="DejaVuSerif-6d" d="M 3316 2675 
Q 3481 3041 3739 3227 
Q 3997 3413 4341 3413 
Q 4863 3413 5119 3089 
Q 5375 2766 5375 2113 
L 5375 331 
L 5894 331 
L 5894 0 
L 4300 0 
L 4300 331 
L 4800 331 
L 4800 2047 
Q 4800 2556 4650 2772 
Q 4500 2988 4153 2988 
Q 3769 2988 3567 2697 
Q 3366 2406 3366 1850 
L 3366 331 
L 3866 331 
L 3866 0 
L 2291 0 
L 2291 331 
L 2791 331 
L 2791 2069 
Q 2791 2566 2641 2777 
Q 2491 2988 2144 2988 
Q 1759 2988 1557 2697 
Q 1356 2406 1356 1850 
L 1356 331 
L 1856 331 
L 1856 0 
L 263 0 
L 263 331 
L 781 331 
L 781 2994 
L 231 2994 
L 231 3322 
L 1356 3322 
L 1356 2731 
Q 1516 3063 1762 3238 
Q 2009 3413 2322 3413 
Q 2709 3413 2968 3220 
Q 3228 3028 3316 2675 
z
" transform="scale(0.015625)"/>
      <path id="DejaVuSerif-70" d="M 1313 1825 
L 1313 1497 
Q 1313 897 1542 583 
Q 1772 269 2209 269 
Q 2650 269 2876 622 
Q 3103 975 3103 1663 
Q 3103 2353 2876 2703 
Q 2650 3053 2209 3053 
Q 1772 3053 1542 2737 
Q 1313 2422 1313 1825 
z
M 738 2988 
L 184 2988 
L 184 3322 
L 1313 3322 
L 1313 2803 
Q 1481 3116 1742 3264 
Q 2003 3413 2388 3413 
Q 3000 3413 3387 2928 
Q 3775 2444 3775 1663 
Q 3775 881 3387 395 
Q 3000 -91 2388 -91 
Q 2003 -91 1742 57 
Q 1481 206 1313 519 
L 1313 -997 
L 1856 -997 
L 1856 -1331 
L 184 -1331 
L 184 -997 
L 738 -997 
L 738 2988 
z
" transform="scale(0.015625)"/>
      <path id="DejaVuSerif-6f" d="M 1925 219 
Q 2388 219 2623 584 
Q 2859 950 2859 1663 
Q 2859 2375 2623 2739 
Q 2388 3103 1925 3103 
Q 1463 3103 1227 2739 
Q 991 2375 991 1663 
Q 991 950 1228 584 
Q 1466 219 1925 219 
z
M 1925 -91 
Q 1200 -91 759 389 
Q 319 869 319 1663 
Q 319 2456 758 2934 
Q 1197 3413 1925 3413 
Q 2653 3413 3092 2934 
Q 3531 2456 3531 1663 
Q 3531 869 3092 389 
Q 2653 -91 1925 -91 
z
" transform="scale(0.015625)"/>
     </defs>
     <use xlink:href="#DejaVuSerif-49"/>
     <use xlink:href="#DejaVuSerif-6e" x="39.501953"/>
     <use xlink:href="#DejaVuSerif-63" x="103.90625"/>
     <use xlink:href="#DejaVuSerif-65" x="159.912109"/>
     <use xlink:href="#DejaVuSerif-72" x="219.091797"/>
     <use xlink:href="#DejaVuSerif-74" x="266.894531"/>
     <use xlink:href="#DejaVuSerif-65" x="307.080078"/>
     <use xlink:href="#DejaVuSerif-7a" x="366.259766"/>
     <use xlink:href="#DejaVuSerif-61" x="418.945312"/>
     <use xlink:href="#DejaVuSerif-20" x="478.564453"/>
     <use xlink:href="#DejaVuSerif-65" x="510.351562"/>
     <use xlink:href="#DejaVuSerif-6e" x="569.53125"/>
     <use xlink:href="#DejaVuSerif-20" x="633.935547"/>
     <use xlink:href="#DejaVuSerif-54" x="665.722656"/>
     <use xlink:href="#DejaVuSerif-69" x="732.421875"/>
     <use xlink:href="#DejaVuSerif-65" x="764.404297"/>
     <use xlink:href="#DejaVuSerif-6d" x="823.583984"/>
     <use xlink:href="#DejaVuSerif-70" x="918.408203"/>
     <use xlink:href="#DejaVuSerif-6f" x="982.421875"/>
    </g>
   </g>
  </g>
  <g id="axes_2">
   <g id="patch_5">
    <path d="M 16.914646 255.345354 
L 429.165354 255.345354 
L 429.165354 139.964646 
L 16.914646 139.964646 
z
" style="fill: #21252b"/>
   </g>
   <g id="matplotlib.axis_3">
    <g id="xtick_1">
     <g id="line2d_2">
      <path d="M 28.582119 255.345354 
L 28.582119 139.964646 
" clip-path="url(#p3abeac62e4)" style="fill: none; stroke: #adb2b7; stroke-opacity: 0.1; stroke-width: 0.5; stroke-linecap: square"/>
     </g>
     <g id="line2d_3">
      <defs>
       <path id="m2ec562274e" d="M 0 0 
L 0 -2.5 
" style="stroke: #adb2b7; stroke-width: 0.5"/>
      </defs>
      <g>
       <use xlink:href="#m2ec562274e" x="28.582119" y="255.345354" style="fill: #adb2b7; stroke: #adb2b7; stroke-width: 0.5"/>
      </g>
     </g>
     <g id="text_3">
      <!-- $0$ -->
      <g style="fill: #9eb1be" transform="translate(26.022119 264.924104) scale(0.08 -0.08)">
       <defs>
        <path id="DejaVuSerif-30" d="M 2034 219 
Q 2513 219 2750 744 
Q 2988 1269 2988 2328 
Q 2988 3391 2750 3916 
Q 2513 4441 2034 4441 
Q 1556 4441 1318 3916 
Q 1081 3391 1081 2328 
Q 1081 1269 1318 744 
Q 1556 219 2034 219 
z
M 2034 -91 
Q 1275 -91 848 546 
Q 422 1184 422 2328 
Q 422 3475 848 4112 
Q 1275 4750 2034 4750 
Q 2797 4750 3222 4112 
Q 3647 3475 3647 2328 
Q 3647 1184 3222 546 
Q 2797 -91 2034 -91 
z
" transform="scale(0.015625)"/>
       </defs>
       <use xlink:href="#DejaVuSerif-30" transform="translate(0 0.78125)"/>
      </g>
     </g>
    </g>
    <g id="xtick_2">
     <g id="line2d_4">
      <path d="M 106.365271 255.345354 
L 106.365271 139.964646 
" clip-path="url(#p3abeac62e4)" style="fill: none; stroke: #adb2b7; stroke-opacity: 0.1; stroke-width: 0.5; stroke-linecap: square"/>
     </g>
     <g id="line2d_5">
      <g>
       <use xlink:href="#m2ec562274e" x="106.365271" y="255.345354" style="fill: #adb2b7; stroke: #adb2b7; stroke-width: 0.5"/>
      </g>
     </g>
     <g id="text_4">
      <!-- $5$ -->
      <g style="fill: #9eb1be" transform="translate(103.805271 264.924104) scale(0.08 -0.08)">
       <defs>
        <path id="DejaVuSerif-35" d="M 3219 4666 
L 3219 4153 
L 1081 4153 
L 1081 2816 
Q 1244 2928 1461 2984 
Q 1678 3041 1947 3041 
Q 2703 3041 3140 2622 
Q 3578 2203 3578 1478 
Q 3578 738 3136 323 
Q 2694 -91 1894 -91 
Q 1572 -91 1234 -12 
Q 897 66 544 225 
L 544 1131 
L 897 1131 
Q 925 688 1179 453 
Q 1434 219 1894 219 
Q 2388 219 2653 544 
Q 2919 869 2919 1478 
Q 2919 2084 2655 2407 
Q 2391 2731 1894 2731 
Q 1613 2731 1398 2631 
Q 1184 2531 1019 2322 
L 750 2322 
L 750 4666 
L 3219 4666 
z
" transform="scale(0.015625)"/>
       </defs>
       <use xlink:href="#DejaVuSerif-35" transform="translate(0 0.09375)"/>
      </g>
     </g>
    </g>
    <g id="xtick_3">
     <g id="line2d_6">
      <path d="M 184.148424 255.345354 
L 184.148424 139.964646 
" clip-path="url(#p3abeac62e4)" style="fill: none; stroke: #adb2b7; stroke-opacity: 0.1; stroke-width: 0.5; stroke-linecap: square"/>
     </g>
     <g id="line2d_7">
      <g>
       <use xlink:href="#m2ec562274e" x="184.148424" y="255.345354" style="fill: #adb2b7; stroke: #adb2b7; stroke-width: 0.5"/>
      </g>
     </g>
     <g id="text_5">
      <!-- $10$ -->
      <g style="fill: #9eb1be" transform="translate(179.028424 264.924104) scale(0.08 -0.08)">
       <defs>
        <path id="DejaVuSerif-31" d="M 909 0 
L 909 331 
L 1722 331 
L 1722 4213 
L 781 3603 
L 781 4013 
L 1919 4750 
L 2350 4750 
L 2350 331 
L 3163 331 
L 3163 0 
L 909 0 
z
" transform="scale(0.015625)"/>
       </defs>
       <use xlink:href="#DejaVuSerif-31" transform="translate(0 0.78125)"/>
       <use xlink:href="#DejaVuSerif-30" transform="translate(63.623047 0.78125)"/>
      </g>
     </g>
    </g>
    <g id="xtick_4">
     <g id="line2d_8">
      <path d="M 261.931576 255.345354 
L 261.931576 139.964646 
" clip-path="url(#p3abeac62e4)" style="fill: none; stroke: #adb2b7; stroke-opacity: 0.1; stroke-width: 0.5; stroke-linecap: square"/>
     </g>
     <g id="line2d_9">
      <g>
       <use xlink:href="#m2ec562274e" x="261.931576" y="255.345354" style="fill: #adb2b7; stroke: #adb2b7; stroke-width: 0.5"/>
      </g>
     </g>
     <g id="text_6">
      <!-- $15$ -->
      <g style="fill: #9eb1be" transform="translate(256.811576 264.924104) scale(0.08 -0.08)">
       <use xlink:href="#DejaVuSerif-31" transform="translate(0 0.78125)"/>
       <use xlink:href="#DejaVuSerif-35" transform="translate(63.623047 0.78125)"/>
      </g>
     </g>
    </g>
    <g id="xtick_5">
     <g id="line2d_10">
      <path d="M 339.714729 255.345354 
L 339.714729 139.964646 
" clip-path="url(#p3abeac62e4)" style="fill: none; stroke: #adb2b7; stroke-opacity: 0.1; stroke-width: 0.5; stroke-linecap: square"/>
     </g>
     <g id="line2d_11">
      <g>
       <use xlink:href="#m2ec562274e" x="339.714729" y="255.345354" style="fill: #adb2b7; stroke: #adb2b7; stroke-width: 0.5"/>
      </g>
     </g>
     <g id="text_7">
      <!-- $20$ -->
      <g style="fill: #9eb1be" transform="translate(334.594729 264.924104) scale(0.08 -0.08)">
       <defs>
        <path id="DejaVuSerif-32" d="M 819 3553 
L 469 3553 
L 469 4384 
Q 803 4563 1142 4656 
Q 1481 4750 1806 4750 
Q 2534 4750 2956 4397 
Q 3378 4044 3378 3438 
Q 3378 2753 2422 1800 
Q 2347 1728 2309 1691 
L 1131 513 
L 3078 513 
L 3078 1088 
L 3444 1088 
L 3444 0 
L 434 0 
L 434 341 
L 1850 1753 
Q 2319 2222 2519 2614 
Q 2719 3006 2719 3438 
Q 2719 3909 2473 4175 
Q 2228 4441 1797 4441 
Q 1350 4441 1106 4219 
Q 863 3997 819 3553 
z
" transform="scale(0.015625)"/>
       </defs>
       <use xlink:href="#DejaVuSerif-32" transform="translate(0 0.78125)"/>
       <use xlink:href="#DejaVuSerif-30" transform="translate(63.623047 0.78125)"/>
      </g>
     </g>
    </g>
    <g id="xtick_6">
     <g id="line2d_12">
      <path d="M 417.497881 255.345354 
L 417.497881 139.964646 
" clip-path="url(#p3abeac62e4)" style="fill: none; stroke: #adb2b7; stroke-opacity: 0.1; stroke-width: 0.5; stroke-linecap: square"/>
     </g>
     <g id="line2d_13">
      <g>
       <use xlink:href="#m2ec562274e" x="417.497881" y="255.345354" style="fill: #adb2b7; stroke: #adb2b7; stroke-width: 0.5"/>
      </g>
     </g>
     <g id="text_8">
      <!-- $25$ -->
      <g style="fill: #9eb1be" transform="translate(412.377881 264.924104) scale(0.08 -0.08)">
       <use xlink:href="#DejaVuSerif-32" transform="translate(0 0.78125)"/>
       <use xlink:href="#DejaVuSerif-35" transform="translate(63.623047 0.78125)"/>
      </g>
     </g>
    </g>
    <g id="text_9">
     <!-- $t$ (μs) -->
     <g style="fill: #9eb1be" transform="translate(208.355 278.947854) scale(0.11 -0.11)">
      <defs>
       <path id="DejaVuSerif-Italic-74" d="M 856 2988 
L 350 2988 
L 416 3322 
L 922 3322 
L 1122 4353 
L 1700 4353 
L 1500 3322 
L 2581 3322 
L 2516 2988 
L 1434 2988 
L 1025 878 
Q 978 631 978 488 
Q 978 388 1000 338 
Q 1059 219 1278 219 
Q 1503 219 1633 351 
Q 1763 484 1825 781 
L 2259 781 
Q 2147 328 1884 118 
Q 1622 -91 1169 -91 
Q 672 -91 506 131 
Q 406 266 406 516 
Q 406 675 447 878 
L 856 2988 
z
" transform="scale(0.015625)"/>
       <path id="DejaVuSerif-28" d="M 2041 -997 
Q 1281 -656 893 83 
Q 506 822 506 1931 
Q 506 3044 893 3783 
Q 1281 4522 2041 4863 
L 2041 4556 
Q 1559 4225 1350 3623 
Q 1141 3022 1141 1931 
Q 1141 844 1350 242 
Q 1559 -359 2041 -691 
L 2041 -997 
z
" transform="scale(0.015625)"/>
       <path id="DejaVuSerif-3bc" d="M 2309 3322 
L 3384 3322 
L 3384 325 
L 3928 325 
L 3928 0 
L 2809 0 
L 2809 588 
Q 2647 256 2417 82 
Q 2188 -91 1906 -91 
Q 1728 -91 1581 -34 
Q 1434 22 1313 134 
L 1313 -1331 
L 738 -1331 
L 738 2988 
L 219 2988 
L 219 3322 
L 1313 3322 
L 1313 1388 
Q 1313 781 1463 556 
Q 1613 331 1991 331 
Q 2391 331 2600 625 
Q 2809 919 2809 1478 
L 2809 2988 
L 2309 2988 
L 2309 3322 
z
" transform="scale(0.015625)"/>
       <path id="DejaVuSerif-73" d="M 359 184 
L 359 959 
L 691 959 
Q 703 588 923 403 
Q 1144 219 1575 219 
Q 1963 219 2166 364 
Q 2369 509 2369 788 
Q 2369 1006 2220 1140 
Q 2072 1275 1594 1428 
L 1178 1569 
Q 750 1706 558 1912 
Q 366 2119 366 2438 
Q 366 2894 700 3153 
Q 1034 3413 1625 3413 
Q 1888 3413 2178 3344 
Q 2469 3275 2778 3144 
L 2778 2419 
L 2447 2419 
Q 2434 2741 2221 2922 
Q 2009 3103 1644 3103 
Q 1281 3103 1095 2975 
Q 909 2847 909 2591 
Q 909 2381 1050 2254 
Q 1191 2128 1613 1997 
L 2069 1856 
Q 2541 1709 2748 1489 
Q 2956 1269 2956 922 
Q 2956 450 2595 179 
Q 2234 -91 1600 -91 
Q 1278 -91 972 -22 
Q 666 47 359 184 
z
" transform="scale(0.015625)"/>
       <path id="DejaVuSerif-29" d="M 453 -997 
L 453 -691 
Q 934 -359 1145 242 
Q 1356 844 1356 1931 
Q 1356 3022 1145 3623 
Q 934 4225 453 4556 
L 453 4863 
Q 1216 4522 1603 3783 
Q 1991 3044 1991 1931 
Q 1991 822 1603 83 
Q 1216 -656 453 -997 
z
" transform="scale(0.015625)"/>
      </defs>
      <use xlink:href="#DejaVuSerif-Italic-74" transform="translate(0 0.015625)"/>
      <use xlink:href="#DejaVuSerif-20" transform="translate(40.185547 0.015625)"/>
      <use xlink:href="#DejaVuSerif-28" transform="translate(71.972656 0.015625)"/>
      <use xlink:href="#DejaVuSerif-3bc" transform="translate(110.986328 0.015625)"/>
      <use xlink:href="#DejaVuSerif-73" transform="translate(175.976562 0.015625)"/>
      <use xlink:href="#DejaVuSerif-29" transform="translate(227.294922 0.015625)"/>
     </g>
    </g>
   </g>
   <g id="matplotlib.axis_4">
    <g id="text_10">
     <!-- canal Q -->
     <g style="fill: #9eb1be" transform="translate(10.626989 218.852344) rotate(-90) scale(0.11 -0.11)">
      <defs>
       <path id="DejaVuSerif-51" d="M 2700 -91 
Q 1628 -91 993 567 
Q 359 1225 359 2328 
Q 359 2894 529 3339 
Q 700 3784 1050 4134 
Q 1356 4441 1750 4595 
Q 2144 4750 2625 4750 
Q 3641 4750 4266 4084 
Q 4891 3419 4891 2328 
Q 4891 1403 4422 773 
Q 3953 144 3128 -38 
Q 3297 -247 3539 -347 
Q 3781 -447 4122 -447 
L 4219 -447 
L 4219 -1025 
Q 3691 -1000 3314 -767 
Q 2938 -534 2700 -91 
z
M 2625 244 
Q 3391 244 3781 770 
Q 4172 1297 4172 2328 
Q 4172 3363 3781 3889 
Q 3391 4416 2625 4416 
Q 1856 4416 1465 3889 
Q 1075 3363 1075 2328 
Q 1075 1297 1465 770 
Q 1856 244 2625 244 
z
" transform="scale(0.015625)"/>
      </defs>
      <use xlink:href="#DejaVuSerif-63"/>
      <use xlink:href="#DejaVuSerif-61" x="56.005859"/>
      <use xlink:href="#DejaVuSerif-6e" x="115.625"/>
      <use xlink:href="#DejaVuSerif-61" x="180.029297"/>
      <use xlink:href="#DejaVuSerif-6c" x="239.648438"/>
      <use xlink:href="#DejaVuSerif-20" x="271.630859"/>
      <use xlink:href="#DejaVuSerif-51" x="303.417969"/>
     </g>
    </g>
   </g>
   <g id="line2d_14">
    <path d="M 28.582119 197.902065 
L 29.361509 197.902065 
L 29.361509 197.668275 
L 30.140899 197.668275 
L 30.140899 197.509167 
L 30.920289 197.509167 
L 30.920289 197.740981 
L 31.69968 197.740981 
L 31.69968 197.947988 
L 33.25846 197.866474 
L 33.25846 198.25847 
L 35.596631 198.195546 
L 35.596631 198.823743 
L 36.376022 198.823743 
L 36.376022 197.82155 
L 37.155412 197.82155 
L 37.155412 198.054183 
L 39.493583 198.144881 
L 39.493583 197.544252 
L 40.272973 197.544252 
L 40.272973 198.507591 
L 41.052363 198.507591 
L 41.052363 197.65716 
L 41.831754 197.65716 
L 41.831754 198.037893 
L 42.611144 198.037893 
L 42.611144 198.314139 
L 43.390534 198.314139 
L 43.390534 198.42724 
L 44.169925 198.42724 
L 44.169925 198.174857 
L 44.949315 198.174857 
L 44.949315 197.90577 
L 46.508096 197.858313 
L 46.508096 198.089222 
L 47.287486 198.089222 
L 47.287486 198.339234 
L 48.066876 198.339234 
L 48.066876 197.850494 
L 48.846267 197.850494 
L 48.846267 198.077633 
L 50.405047 198.098442 
L 50.405047 198.520639 
L 51.184437 198.520639 
L 51.184437 197.958372 
L 52.743218 197.972932 
L 52.743218 197.430324 
L 53.522608 197.430324 
L 53.522608 198.106995 
L 55.081389 198.036176 
L 55.081389 197.79206 
L 55.860779 197.79206 
L 55.860779 198.213488 
L 57.41956 198.103192 
L 57.41956 198.373995 
L 58.19895 198.373995 
L 58.19895 197.899303 
L 58.978341 197.899303 
L 58.978341 198.238865 
L 59.757731 198.238865 
L 59.757731 198.060634 
L 60.537121 198.060634 
L 60.537121 198.697594 
L 61.316511 198.697594 
L 61.316511 198.08514 
L 62.095902 198.08514 
L 62.095902 197.606612 
L 62.875292 197.606612 
L 62.875292 197.949154 
L 63.654682 197.949154 
L 63.654682 197.814814 
L 64.434073 197.814814 
L 64.434073 197.97018 
L 65.213463 197.97018 
L 65.213463 197.440753 
L 67.551634 197.535359 
L 67.551634 197.697967 
L 69.110414 197.737603 
L 69.110414 197.988452 
L 69.889805 197.988452 
L 69.889805 198.313716 
L 70.669195 198.313716 
L 70.669195 198.116609 
L 71.448585 198.116609 
L 71.448585 198.356139 
L 72.227976 198.356139 
L 72.227976 198.211137 
L 73.007366 198.211137 
L 73.007366 197.961438 
L 73.786756 197.961438 
L 73.786756 198.237017 
L 74.566147 198.237017 
L 74.566147 198.42842 
L 76.124927 198.388675 
L 76.124927 198.615899 
L 77.683708 198.557159 
L 77.683708 198.021073 
L 78.463098 198.021073 
L 78.463098 197.811391 
L 79.242488 197.811391 
L 79.242488 197.580592 
L 80.021879 197.580592 
L 80.021879 198.016433 
L 80.801269 198.016433 
L 80.801269 197.902278 
L 81.580659 197.902278 
L 81.580659 198.341173 
L 83.13944 198.444981 
L 83.13944 198.084928 
L 83.91883 198.084928 
L 83.91883 197.945472 
L 84.698221 197.945472 
L 84.698221 198.349469 
L 85.477611 198.349469 
L 85.477611 197.732907 
L 86.257001 197.732907 
L 86.257001 197.909799 
L 87.036392 197.909799 
L 87.036392 198.100984 
L 87.815782 198.100984 
L 87.815782 197.907668 
L 89.374562 197.848548 
L 89.374562 198.516018 
L 90.153953 198.516018 
L 90.153953 197.951525 
L 91.712733 197.940686 
L 91.712733 198.33667 
L 92.492124 198.33667 
L 92.492124 197.56738 
L 93.271514 197.56738 
L 93.271514 198.644463 
L 94.050904 198.644463 
L 94.050904 198.358081 
L 94.830295 198.358081 
L 94.830295 197.898251 
L 95.609685 197.898251 
L 95.609685 198.211256 
L 96.389075 198.211256 
L 96.389075 197.807434 
L 97.168466 197.807434 
L 97.168466 197.370203 
L 97.947856 197.370203 
L 97.947856 198.198723 
L 98.727246 198.198723 
L 98.727246 197.731081 
L 99.506636 197.731081 
L 99.506636 198.015133 
L 100.286027 198.015133 
L 100.286027 198.195121 
L 101.065417 198.195121 
L 101.065417 197.407949 
L 101.844807 197.407949 
L 101.844807 198.395265 
L 104.962369 198.442387 
L 104.962369 197.452537 
L 105.741759 197.452537 
L 105.741759 197.592294 
L 106.521149 197.592294 
L 106.521149 198.360506 
L 107.30054 198.360506 
L 107.30054 198.058853 
L 108.07993 198.058853 
L 108.07993 198.434645 
L 108.85932 198.434645 
L 108.85932 198.148868 
L 109.63871 198.148868 
L 109.63871 198.266564 
L 111.197491 198.365656 
L 111.197491 197.939558 
L 111.976881 197.939558 
L 111.976881 197.764215 
L 112.756272 197.764215 
L 112.756272 197.990814 
L 113.535662 197.990814 
L 113.535662 198.28208 
L 115.094443 198.180363 
L 115.094443 197.38779 
L 115.873833 197.38779 
L 115.873833 198.310524 
L 116.653223 198.310524 
L 116.653223 198.061454 
L 117.432613 198.061454 
L 117.432613 197.727127 
L 118.212004 197.727127 
L 118.212004 198.260932 
L 118.991394 198.260932 
L 118.991394 197.810922 
L 119.770784 197.810922 
L 119.770784 198.31278 
L 120.550175 198.31278 
L 120.550175 198.118398 
L 121.329565 198.118398 
L 121.329565 197.710186 
L 122.108955 197.710186 
L 122.108955 182.646922 
L 122.888346 182.646922 
L 122.888346 197.358864 
L 123.667736 197.358864 
L 123.667736 224.631585 
L 124.447126 224.631585 
L 124.447126 202.44213 
L 125.226517 202.44213 
L 125.226517 197.832726 
L 126.005907 197.832726 
L 126.005907 202.537657 
L 126.785297 202.537657 
L 126.785297 224.502397 
L 127.564687 224.502397 
L 127.564687 197.015459 
L 128.344078 197.015459 
L 128.344078 181.984539 
L 129.123468 181.984539 
L 129.123468 242.405854 
L 129.902858 242.405854 
L 129.902858 202.913867 
L 130.682249 202.913867 
L 130.682249 149.896218 
L 131.461639 149.896218 
L 131.461639 166.548379 
L 132.241029 166.548379 
L 132.241029 150.434466 
L 133.02042 150.434466 
L 133.02042 202.871975 
L 133.79981 202.871975 
L 133.79981 242.414629 
L 134.5792 242.414629 
L 134.5792 182.617045 
L 135.358591 182.617045 
L 135.358591 196.655579 
L 136.137981 196.655579 
L 136.137981 224.61199 
L 136.917371 224.61199 
L 136.917371 202.510303 
L 137.696761 202.510303 
L 137.696761 197.786113 
L 138.476152 197.786113 
L 138.476152 202.789555 
L 139.255542 202.789555 
L 139.255542 224.543592 
L 140.034932 224.543592 
L 140.034932 197.044287 
L 140.814323 197.044287 
L 140.814323 182.180486 
L 141.593713 182.180486 
L 141.593713 243.466079 
L 142.373103 243.466079 
L 142.373103 202.482725 
L 143.152494 202.482725 
L 143.152494 149.652184 
L 143.931884 149.652184 
L 143.931884 167.161839 
L 144.711274 167.161839 
L 144.711274 149.941926 
L 145.490665 149.941926 
L 145.490665 202.111915 
L 146.270055 202.111915 
L 146.270055 242.825336 
L 147.049445 242.825336 
L 147.049445 182.239478 
L 147.828835 182.239478 
L 147.828835 197.317662 
L 148.608226 197.317662 
L 148.608226 224.754855 
L 149.387616 224.754855 
L 149.387616 201.532069 
L 150.167006 201.532069 
L 150.167006 198.097653 
L 150.946397 198.097653 
L 150.946397 201.517518 
L 151.725787 201.517518 
L 151.725787 223.879952 
L 152.505177 223.879952 
L 152.505177 196.788822 
L 153.284568 196.788822 
L 153.284568 182.664576 
L 154.063958 182.664576 
L 154.063958 243.198357 
L 154.843348 243.198357 
L 154.843348 203.040233 
L 155.622738 203.040233 
L 155.622738 149.666104 
L 156.402129 149.666104 
L 156.402129 166.55349 
L 157.181519 166.55349 
L 157.181519 150.256394 
L 157.960909 150.256394 
L 157.960909 202.180734 
L 158.7403 202.180734 
L 158.7403 242.986079 
L 159.51969 242.986079 
L 159.51969 182.439523 
L 160.29908 182.439523 
L 160.29908 197.497209 
L 161.078471 197.497209 
L 161.078471 224.47877 
L 161.857861 224.47877 
L 161.857861 202.278301 
L 162.637251 202.278301 
L 162.637251 198.890079 
L 163.416642 198.890079 
L 163.416642 202.290476 
L 164.196032 202.290476 
L 164.196032 224.950504 
L 164.975422 224.950504 
L 164.975422 197.528308 
L 165.754812 197.528308 
L 165.754812 182.653328 
L 166.534203 182.653328 
L 166.534203 242.854918 
L 167.313593 242.854918 
L 167.313593 202.612327 
L 168.092983 202.612327 
L 168.092983 149.6388 
L 168.872374 149.6388 
L 168.872374 166.711753 
L 169.651764 166.711753 
L 169.651764 149.734365 
L 170.431154 149.734365 
L 170.431154 202.467853 
L 171.210545 202.467853 
L 171.210545 242.699807 
L 171.989935 242.699807 
L 171.989935 182.929659 
L 172.769325 182.929659 
L 172.769325 197.636075 
L 173.548716 197.636075 
L 173.548716 224.28713 
L 174.328106 224.28713 
L 174.328106 202.307346 
L 175.107496 202.307346 
L 175.107496 198.186348 
L 175.886886 198.186348 
L 175.886886 202.130441 
L 176.666277 202.130441 
L 176.666277 224.385095 
L 177.445667 224.385095 
L 177.445667 197.278311 
L 178.225057 197.278311 
L 178.225057 183.165403 
L 179.004448 183.165403 
L 179.004448 242.388682 
L 179.783838 242.388682 
L 179.783838 203.16911 
L 180.563228 203.16911 
L 180.563228 149.40277 
L 181.342619 149.40277 
L 181.342619 167.281522 
L 182.122009 167.281522 
L 182.122009 149.747935 
L 182.901399 149.747935 
L 182.901399 201.821919 
L 183.68079 201.821919 
L 183.68079 242.787332 
L 184.46018 242.787332 
L 184.46018 182.570194 
L 185.23957 182.570194 
L 185.23957 197.396874 
L 186.01896 197.396874 
L 186.01896 224.63527 
L 186.798351 224.63527 
L 186.798351 202.140981 
L 187.577741 202.140981 
L 187.577741 198.126559 
L 188.357131 198.126559 
L 188.357131 201.747582 
L 189.136522 201.747582 
L 189.136522 225.012612 
L 189.915912 225.012612 
L 189.915912 197.56408 
L 190.695302 197.56408 
L 190.695302 182.595968 
L 191.474693 182.595968 
L 191.474693 243.689087 
L 192.254083 243.689087 
L 192.254083 203.094204 
L 193.033473 203.094204 
L 193.033473 149.937266 
L 193.812864 149.937266 
L 193.812864 166.200811 
L 194.592254 166.200811 
L 194.592254 149.853266 
L 195.371644 149.853266 
L 195.371644 202.380779 
L 196.151034 202.380779 
L 196.151034 243.260201 
L 196.930425 243.260201 
L 196.930425 182.294509 
L 197.709815 182.294509 
L 197.709815 197.546202 
L 198.489205 197.546202 
L 198.489205 225.055537 
L 199.268596 225.055537 
L 199.268596 202.628275 
L 200.047986 202.628275 
L 200.047986 198.351094 
L 200.827376 198.351094 
L 200.827376 202.17564 
L 201.606767 202.17564 
L 201.606767 224.206084 
L 202.386157 224.206084 
L 202.386157 197.35539 
L 203.165547 197.35539 
L 203.165547 182.29838 
L 203.944937 182.29838 
L 203.944937 242.095025 
L 204.724328 242.095025 
L 204.724328 202.957617 
L 205.503718 202.957617 
L 205.503718 149.291253 
L 206.283108 149.291253 
L 206.283108 166.929036 
L 207.062499 166.929036 
L 207.062499 149.441207 
L 207.841889 149.441207 
L 207.841889 202.438142 
L 208.621279 202.438142 
L 208.621279 242.510142 
L 209.40067 242.510142 
L 209.40067 182.292934 
L 210.18006 182.292934 
L 210.18006 197.181643 
L 210.95945 197.181643 
L 210.95945 224.347546 
L 211.738841 224.347546 
L 211.738841 203.101023 
L 212.518231 203.101023 
L 212.518231 198.734978 
L 213.297621 198.734978 
L 213.297621 202.45023 
L 214.077011 202.45023 
L 214.077011 224.190447 
L 214.856402 224.190447 
L 214.856402 197.459031 
L 215.635792 197.459031 
L 215.635792 182.258186 
L 216.415182 182.258186 
L 216.415182 243.095577 
L 217.194573 243.095577 
L 217.194573 203.017631 
L 217.973963 203.017631 
L 217.973963 149.782145 
L 218.753353 149.782145 
L 218.753353 167.246655 
L 219.532744 167.246655 
L 219.532744 149.288536 
L 220.312134 149.288536 
L 220.312134 202.437197 
L 221.091524 202.437197 
L 221.091524 242.582884 
L 221.870915 242.582884 
L 221.870915 182.38068 
L 222.650305 182.38068 
L 222.650305 196.813004 
L 223.429695 196.813004 
L 223.429695 225.170555 
L 224.209085 225.170555 
L 224.209085 201.795503 
L 224.988476 201.795503 
L 224.988476 198.031428 
L 225.767866 198.031428 
L 225.767866 202.505008 
L 226.547256 202.505008 
L 226.547256 224.608531 
L 227.326647 224.608531 
L 227.326647 197.109579 
L 228.106037 197.109579 
L 228.106037 182.65433 
L 228.885427 182.65433 
L 228.885427 242.902729 
L 229.664818 242.902729 
L 229.664818 202.156338 
L 230.444208 202.156338 
L 230.444208 149.980751 
L 231.223598 149.980751 
L 231.223598 167.083714 
L 232.002989 167.083714 
L 232.002989 150.396671 
L 232.782379 150.396671 
L 232.782379 202.512776 
L 233.561769 202.512776 
L 233.561769 242.664739 
L 234.341159 242.664739 
L 234.341159 182.232122 
L 235.12055 182.232122 
L 235.12055 196.48137 
L 235.89994 196.48137 
L 235.89994 225.043939 
L 236.67933 225.043939 
L 236.67933 201.730948 
L 237.458721 201.730948 
L 237.458721 198.018784 
L 238.238111 198.018784 
L 238.238111 201.927568 
L 239.017501 201.927568 
L 239.017501 224.551522 
L 239.796892 224.551522 
L 239.796892 197.1373 
L 240.576282 197.1373 
L 240.576282 182.485596 
L 241.355672 182.485596 
L 241.355672 242.907604 
L 242.135063 242.907604 
L 242.135063 202.736286 
L 242.914453 202.736286 
L 242.914453 149.92425 
L 243.693843 149.92425 
L 243.693843 166.766149 
L 244.473233 166.766149 
L 244.473233 149.515604 
L 245.252624 149.515604 
L 245.252624 202.767497 
L 246.032014 202.767497 
L 246.032014 242.995963 
L 246.811404 242.995963 
L 246.811404 197.563934 
L 247.590795 197.563934 
L 247.590795 231.008735 
L 248.370185 231.008735 
L 248.370185 233.658973 
L 249.149575 233.658973 
L 249.149575 236.847839 
L 249.928966 236.847839 
L 249.928966 215.705097 
L 250.708356 215.705097 
L 250.708356 173.156598 
L 251.487746 173.156598 
L 251.487746 190.665562 
L 252.267136 190.665562 
L 252.267136 192.185457 
L 253.046527 192.185457 
L 253.046527 146.815605 
L 253.825917 146.815605 
L 253.825917 190.796448 
L 254.605307 190.796448 
L 254.605307 225.95439 
L 255.384698 225.95439 
L 255.384698 202.880859 
L 256.164088 202.880859 
L 256.164088 229.537799 
L 256.943478 229.537799 
L 256.943478 220.011304 
L 257.722869 220.011304 
L 257.722869 211.842774 
L 258.502259 211.842774 
L 258.502259 231.006429 
L 259.281649 231.006429 
L 259.281649 176.122966 
L 260.06104 176.122966 
L 260.06104 196.468445 
L 260.84043 196.468445 
L 260.84043 251.837771 
L 261.61982 251.837771 
L 261.61982 192.907892 
L 262.39921 192.907892 
L 262.39921 178.351932 
L 263.178601 178.351932 
L 263.178601 182.083924 
L 263.957991 182.083924 
L 263.957991 159.055792 
L 264.737381 159.055792 
L 264.737381 199.179439 
L 265.516772 199.179439 
L 265.516772 189.00206 
L 266.296162 189.00206 
L 266.296162 162.346847 
L 267.075552 162.346847 
L 267.075552 179.491668 
L 267.854943 179.491668 
L 267.854943 168.43218 
L 268.634333 168.43218 
L 268.634333 207.54701 
L 269.413723 207.54701 
L 269.413723 226.299997 
L 270.193114 226.299997 
L 270.193114 160.540889 
L 270.972504 160.540889 
L 270.972504 157.687374 
L 271.751894 157.687374 
L 271.751894 197.936247 
L 272.531284 197.936247 
L 272.531284 239.019346 
L 273.310675 239.019346 
L 273.310675 235.912423 
L 274.090065 235.912423 
L 274.090065 169.684824 
L 274.869455 169.684824 
L 274.869455 188.428266 
L 275.648846 188.428266 
L 275.648846 227.774729 
L 276.428236 227.774729 
L 276.428236 216.488838 
L 277.207626 216.488838 
L 277.207626 233.849294 
L 277.987017 233.849294 
L 277.987017 206.894521 
L 278.766407 206.894521 
L 278.766407 196.392946 
L 279.545797 196.392946 
L 279.545797 237.227686 
L 280.325188 237.227686 
L 280.325188 214.204672 
L 281.104578 214.204672 
L 281.104578 218.177564 
L 281.883968 218.177564 
L 281.883968 202.749143 
L 282.663358 202.749143 
L 282.663358 143.489205 
L 283.442749 143.489205 
L 283.442749 198.88651 
L 284.222139 198.88651 
L 284.222139 219.674757 
L 285.001529 219.674757 
L 285.001529 164.652383 
L 285.78092 164.652383 
L 285.78092 184.346499 
L 286.56031 184.346499 
L 286.56031 175.778303 
L 287.3397 175.778303 
L 287.3397 167.273342 
L 288.119091 167.273342 
L 288.119091 193.509184 
L 288.898481 193.509184 
L 288.898481 170.279591 
L 289.677871 170.279591 
L 289.677871 205.110178 
L 290.457262 205.110178 
L 290.457262 249.054917 
L 291.236652 249.054917 
L 291.236652 204.038043 
L 292.016042 204.038043 
L 292.016042 205.103127 
L 292.795432 205.103127 
L 292.795432 222.985404 
L 293.574823 222.985404 
L 293.574823 179.871718 
L 294.354213 179.871718 
L 294.354213 158.612679 
L 295.133603 158.612679 
L 295.133603 162.115788 
L 295.912994 162.115788 
L 295.912994 165.085398 
L 296.692384 165.085398 
L 296.692384 197.330872 
L 297.471774 197.330872 
L 297.471774 231.011024 
L 298.251165 231.011024 
L 298.251165 233.93139 
L 299.030555 233.93139 
L 299.030555 237.015106 
L 299.809945 237.015106 
L 299.809945 215.795424 
L 300.589335 215.795424 
L 300.589335 172.43773 
L 301.368726 172.43773 
L 301.368726 191.4155 
L 302.148116 191.4155 
L 302.148116 192.602546 
L 302.927506 192.602546 
L 302.927506 146.865536 
L 303.706897 146.865536 
L 303.706897 190.965292 
L 304.486287 190.965292 
L 304.486287 225.451662 
L 305.265677 225.451662 
L 305.265677 202.989713 
L 306.045068 202.989713 
L 306.045068 229.016005 
L 306.824458 229.016005 
L 306.824458 219.741841 
L 307.603848 219.741841 
L 307.603848 211.571385 
L 308.383239 211.571385 
L 308.383239 231.346786 
L 309.162629 231.346786 
L 309.162629 176.818493 
L 309.942019 176.818493 
L 309.942019 196.301273 
L 310.721409 196.301273 
L 310.721409 251.611779 
L 311.5008 251.611779 
L 311.5008 193.56743 
L 312.28019 193.56743 
L 312.28019 178.283253 
L 313.05958 178.283253 
L 313.05958 181.588141 
L 313.838971 181.588141 
L 313.838971 158.994812 
L 314.618361 158.994812 
L 314.618361 199.594741 
L 315.397751 199.594741 
L 315.397751 189.015842 
L 316.177142 189.015842 
L 316.177142 161.975206 
L 316.956532 161.975206 
L 316.956532 178.416262 
L 317.735922 178.416262 
L 317.735922 169.255996 
L 318.515313 169.255996 
L 318.515313 207.460916 
L 319.294703 207.460916 
L 319.294703 226.897613 
L 320.074093 226.897613 
L 320.074093 160.513366 
L 320.853483 160.513366 
L 320.853483 157.47738 
L 321.632874 157.47738 
L 321.632874 198.027814 
L 322.412264 198.027814 
L 322.412264 239.442535 
L 323.191654 239.442535 
L 323.191654 235.644681 
L 323.971045 235.644681 
L 323.971045 169.326476 
L 324.750435 169.326476 
L 324.750435 188.742703 
L 325.529825 188.742703 
L 325.529825 228.328996 
L 326.309216 228.328996 
L 326.309216 216.672741 
L 327.088606 216.672741 
L 327.088606 233.613604 
L 327.867996 233.613604 
L 327.867996 206.605286 
L 328.647387 206.605286 
L 328.647387 197.126152 
L 329.426777 197.126152 
L 329.426777 236.48086 
L 330.206167 236.48086 
L 330.206167 214.430721 
L 330.985557 214.430721 
L 330.985557 218.558341 
L 331.764948 218.558341 
L 331.764948 203.810249 
L 332.544338 203.810249 
L 332.544338 143.230137 
L 333.323728 143.230137 
L 333.323728 199.701238 
L 334.103119 199.701238 
L 334.103119 219.648707 
L 334.882509 219.648707 
L 334.882509 164.718984 
L 335.661899 164.718984 
L 335.661899 184.509891 
L 336.44129 184.509891 
L 336.44129 176.018716 
L 337.22068 176.018716 
L 337.22068 166.271218 
L 338.00007 166.271218 
L 338.00007 193.268006 
L 338.77946 193.268006 
L 338.77946 170.597831 
L 339.558851 170.597831 
L 339.558851 205.991364 
L 340.338241 205.991364 
L 340.338241 248.827155 
L 341.117631 248.827155 
L 341.117631 204.002221 
L 341.897022 204.002221 
L 341.897022 204.969048 
L 342.676412 204.969048 
L 342.676412 223.413124 
L 343.455802 223.413124 
L 343.455802 179.773113 
L 344.235193 179.773113 
L 344.235193 158.76003 
L 345.014583 158.76003 
L 345.014583 162.494187 
L 345.793973 162.494187 
L 345.793973 164.940604 
L 346.573364 164.940604 
L 346.573364 198.357173 
L 347.352754 198.357173 
L 347.352754 231.124721 
L 348.132144 231.124721 
L 348.132144 233.996518 
L 348.911534 233.996518 
L 348.911534 236.910604 
L 349.690925 236.910604 
L 349.690925 216.575847 
L 350.470315 216.575847 
L 350.470315 173.278002 
L 351.249705 173.278002 
L 351.249705 191.51051 
L 352.029096 191.51051 
L 352.029096 192.171082 
L 352.808486 192.171082 
L 352.808486 147.047194 
L 353.587876 147.047194 
L 353.587876 190.662305 
L 354.367267 190.662305 
L 354.367267 225.578464 
L 355.146657 225.578464 
L 355.146657 202.742722 
L 355.926047 202.742722 
L 355.926047 229.51061 
L 356.705438 229.51061 
L 356.705438 220.559309 
L 357.484828 220.559309 
L 357.484828 211.601918 
L 358.264218 211.601918 
L 358.264218 231.403099 
L 359.043608 231.403099 
L 359.043608 176.5541 
L 359.822999 176.5541 
L 359.822999 196.531392 
L 360.602389 196.531392 
L 360.602389 252.079863 
L 361.381779 252.079863 
L 361.381779 192.656542 
L 362.16117 192.656542 
L 362.16117 179.229203 
L 362.94056 179.229203 
L 362.94056 181.816568 
L 363.71995 181.816568 
L 363.71995 159.209115 
L 364.499341 159.209115 
L 364.499341 198.863817 
L 365.278731 198.863817 
L 365.278731 189.663673 
L 366.058121 189.663673 
L 366.058121 161.911939 
L 366.837512 161.911939 
L 366.837512 179.388555 
L 367.616902 179.388555 
L 367.616902 168.525635 
L 368.396292 168.525635 
L 368.396292 207.282337 
L 369.175682 207.282337 
L 369.175682 226.326897 
L 369.955073 226.326897 
L 369.955073 160.662625 
L 370.734463 160.662625 
L 370.734463 157.56757 
L 371.513853 157.56757 
L 371.513853 197.900798 
L 372.293244 197.900798 
L 372.293244 197.752393 
L 373.072634 197.752393 
L 373.072634 198.371598 
L 373.852024 198.371598 
L 373.852024 197.990679 
L 374.631415 197.990679 
L 374.631415 198.468569 
L 375.410805 198.468569 
L 375.410805 197.852191 
L 376.190195 197.852191 
L 376.190195 198.13682 
L 377.748976 198.231178 
L 377.748976 197.692091 
L 378.528366 197.692091 
L 378.528366 198.1714 
L 379.307756 198.1714 
L 379.307756 197.946206 
L 380.087147 197.946206 
L 380.087147 197.636518 
L 380.866537 197.636518 
L 380.866537 198.711685 
L 381.645927 198.711685 
L 381.645927 198.395342 
L 383.204708 198.488519 
L 383.204708 197.949911 
L 383.984098 197.949911 
L 383.984098 198.313798 
L 384.763489 198.313798 
L 384.763489 197.746838 
L 385.542879 197.746838 
L 385.542879 198.38594 
L 386.322269 198.38594 
L 386.322269 198.597067 
L 387.101659 198.597067 
L 387.101659 198.791506 
L 387.88105 198.791506 
L 387.88105 197.770656 
L 388.66044 197.770656 
L 388.66044 198.302489 
L 389.43983 198.302489 
L 389.43983 198.030618 
L 390.219221 198.030618 
L 390.219221 197.632509 
L 390.998611 197.632509 
L 390.998611 198.340189 
L 391.778001 198.340189 
L 391.778001 197.890467 
L 392.557392 197.890467 
L 392.557392 198.350738 
L 394.116172 198.390064 
L 394.116172 198.084281 
L 394.895563 198.084281 
L 394.895563 198.771774 
L 395.674953 198.771774 
L 395.674953 198.229631 
L 397.233733 198.130282 
L 397.233733 197.244838 
L 398.013124 197.244838 
L 398.013124 197.834774 
L 399.571904 197.873849 
L 399.571904 198.317774 
L 400.351295 198.317774 
L 400.351295 198.122219 
L 401.130685 198.122219 
L 401.130685 197.788452 
L 401.910075 197.788452 
L 401.910075 197.561832 
L 402.689466 197.561832 
L 402.689466 197.750278 
L 403.468856 197.750278 
L 403.468856 198.003564 
L 404.248246 198.003564 
L 404.248246 198.419059 
L 405.807027 198.36731 
L 405.807027 197.640403 
L 406.586417 197.640403 
L 406.586417 198.018145 
L 407.365807 198.018145 
L 407.365807 197.784556 
L 408.145198 197.784556 
L 408.145198 197.628741 
L 408.924588 197.628741 
L 408.924588 198.186729 
L 409.703978 198.186729 
L 409.703978 197.708902 
L 410.483369 197.708902 
L 410.483369 198.024112 
L 411.262759 198.024112 
L 411.262759 197.344032 
L 412.042149 197.344032 
L 412.042149 197.921609 
L 413.60093 197.994968 
L 413.60093 197.72068 
L 414.38032 197.72068 
L 414.38032 197.910238 
L 415.159711 197.910238 
L 415.159711 198.256062 
L 415.939101 198.256062 
L 415.939101 198.861959 
L 416.718491 198.861959 
L 416.718491 198.035928 
L 417.497881 198.035928 
L 417.497881 197.904789 
L 417.497881 197.904789 
" clip-path="url(#p3abeac62e4)" style="fill: none; stroke: #a1c9f4"/>
   </g>
   <g id="patch_6">
    <path d="M 16.914646 255.345354 
L 16.914646 139.964646 
" style="fill: none; stroke: #adb2b7; stroke-linejoin: miter; stroke-linecap: square"/>
   </g>
   <g id="patch_7">
    <path d="M 16.914646 255.345354 
L 429.165354 255.345354 
" style="fill: none; stroke: #adb2b7; stroke-linejoin: miter; stroke-linecap: square"/>
   </g>
  </g>
 </g>
 <defs>
  <clipPath id="pb384518f4b">
   <rect x="16.914646" y="18.914646" width="412.250709" height="115.380709"/>
  </clipPath>
  <clipPath id="p3abeac62e4">
   <rect x="16.914646" y="139.964646" width="412.250709" height="115.380709"/>
  </clipPath>
 </defs>
</svg>
