<?xml version="1.0" encoding="UTF-8" standalone="no"?>
<!-- Created with Inkscape (http://www.inkscape.org/) -->

<svg
   width="210mm"
   height="297mm"
   viewBox="0 0 210 297"
   version="1.1"
   id="svg1"
   inkscape:version="1.3.2 (091e20ef0f, 2023-11-25, custom)"
   sodipodi:docname="drawing.svg"
   xmlns:inkscape="http://www.inkscape.org/namespaces/inkscape"
   xmlns:sodipodi="http://sodipodi.sourceforge.net/DTD/sodipodi-0.dtd"
   xmlns="http://www.w3.org/2000/svg"
   xmlns:svg="http://www.w3.org/2000/svg">
  <sodipodi:namedview
     id="namedview1"
     pagecolor="#ffffff"
     bordercolor="#000000"
     borderopacity="0.25"
     inkscape:showpageshadow="2"
     inkscape:pageopacity="0.0"
     inkscape:pagecheckerboard="0"
     inkscape:deskcolor="#d1d1d1"
     inkscape:document-units="mm"
     showgrid="true"
     inkscape:zoom="11.309745"
     inkscape:cx="403.63421"
     inkscape:cy="565.97209"
     inkscape:window-width="1920"
     inkscape:window-height="1130"
     inkscape:window-x="0"
     inkscape:window-y="0"
     inkscape:window-maximized="1"
     inkscape:current-layer="layer1">
    <inkscape:grid
       id="grid1"
       units="px"
       originx="0"
       originy="0"
       spacingx="0.26458333"
       spacingy="0.26458334"
       empcolor="#0099e5"
       empopacity="0.30196078"
       color="#0099e5"
       opacity="0.14901961"
       empspacing="5"
       dotted="false"
       gridanglex="30"
       gridanglez="30"
       visible="true" />
  </sodipodi:namedview>
  <defs
     id="defs1" />
  <g
     inkscape:label="Layer 1"
     inkscape:groupmode="layer"
     id="layer1">
    <rect
       style="fill:#cccccc;fill-rule:evenodd;stroke-width:0.502123"
       id="rect1"
       width="13.841288"
       height="13.841288"
       x="-35.732368"
       y="174.20113"
       ry="2.5242331"
       transform="matrix(0.68766381,-0.72602926,0.68766381,0.72602926,0,0)" />
    <path
       d="m 111.56291,150.63551 c -0.0445,-0.0872 -0.091,-0.17036 -0.13941,-0.25055 -1.04874,-1.73768 -2.9705,-1.92741 -4.25375,-1.64397 l -0.37842,1.53129 c 0.84715,0.69054 2.13177,1.28969 3.49532,0.96124 0.33417,-0.0805 0.67306,-0.21668 1.01143,-0.42089 0.0887,-0.0536 0.17654,-0.11355 0.26487,-0.17715 z m -4.23948,-0.54963 0.23088,-0.9339 c 0.72654,-0.10193 2.37937,-0.14271 3.37035,1.32822 -1.19702,0.65317 -2.49883,0.39436 -3.60123,-0.39432 z m 0.3566,1.29286 c -0.14214,-0.065 -0.27642,-0.13386 -0.40262,-0.20573 -0.2027,0.0707 -0.45296,0.0907 -0.70069,0.0505 0.11633,-0.0705 0.21393,-0.17396 0.29698,-0.30162 -0.10559,-0.0726 -0.20208,-0.1438 -0.29111,-0.21399 -0.26469,0.34177 -0.60161,0.35958 -0.95083,0.32166 0.17773,0.24999 0.4718,0.44737 0.81892,0.533 0.37463,0.0928 0.81033,0.0533 1.22935,-0.18383 z m -0.1342,-3.17686 c -0.0142,-0.15115 -0.0527,-0.28708 -0.12244,-0.40357 0.2354,0.0792 0.44582,0.2118 0.59215,0.36668 0.14995,-0.004 0.30313,9.9e-4 0.45667,0.0105 -0.25981,-0.40533 -0.62745,-0.6433 -1.00222,-0.73634 -0.34689,-0.0858 -0.69914,-0.0478 -0.97279,0.0902 0.32694,0.12905 0.61693,0.30229 0.69127,0.72808 0.11633,-0.0223 0.23532,-0.0412 0.35736,-0.0556 z m 0.80959,1.64405 c 0.031,-0.12687 0.15896,-0.2041 0.28565,-0.1724 0.12644,0.0313 0.20353,0.159 0.1724,0.28565 -0.0313,0.12671 -0.15936,0.20398 -0.28588,0.17252 -0.12671,-0.0313 -0.20385,-0.15912 -0.17217,-0.28577 z m 1.60334,0.39642 c 0.0625,-0.25282 -0.092,-0.50879 -0.3448,-0.5713 -0.25295,-0.0627 -0.50915,0.0919 -0.57152,0.34495 -0.0627,0.25294 0.0918,0.50891 0.34492,0.5715 0.25269,0.0623 0.50889,-0.0923 0.5714,-0.34515 z m -0.6186,-0.15296 c 0.0221,-0.0884 0.11178,-0.14255 0.20002,-0.12072 0.0883,0.0215 0.14271,0.11162 0.12101,0.2005 -0.022,0.088 -0.11175,0.14197 -0.20005,0.12071 -0.0885,-0.0223 -0.1428,-0.11215 -0.12098,-0.20049 z"
       id="path1"
       style="fill:#000080;stroke-width:0.264583"
       sodipodi:nodetypes="csccsscccccccccccccccccccccccscccscccscccccc" />
    <text
       xml:space="preserve"
       style="font-size:6.35px;line-height:0.95;font-family:'TexMaths Symbols';-inkscape-font-specification:'TexMaths Symbols, Normal';fill:#000000;fill-rule:evenodd;stroke-width:0.3175"
       x="113.33718"
       y="136.15582"
       id="text1"><tspan
         sodipodi:role="line"
         id="tspan1"
         x="113.33718"
         y="136.15582"
         style="font-style:normal;font-variant:normal;font-weight:normal;font-stretch:normal;font-size:6.35px;font-family:P052;-inkscape-font-specification:'P052, Normal';font-variant-ligatures:normal;font-variant-caps:normal;font-variant-numeric:normal;font-variant-east-asian:normal;stroke:none;stroke-width:0.3175">eV</tspan></text>
    <path
       style="fill:none;fill-rule:evenodd;stroke:#000080;stroke-width:0.365;stroke-dasharray:0.73, 0.73;stroke-dashoffset:0"
       d="m 97.987624,154.78125 c 0,0 1.829838,0.44758 2.554036,0 1.67756,-1.03679 0.96154,-4.26587 2.64584,-5.29166 1.07093,-0.65223 3.76143,0.0492 3.76143,0.0492"
       id="path2"
       sodipodi:nodetypes="caac" />
    <g
       id="g3"
       transform="matrix(0.01689335,0,0,0.01689335,98.965146,148.42982)"
       style="fill:#000080">
	<g
   id="g2"
   style="fill:#000080">
		<path
   d="m 473.82,289.179 c -50.905,-50.908 -133.739,-50.908 -184.644,0 -50.906,50.906 -50.906,133.738 0,184.644 25.452,25.453 58.888,38.18 92.323,38.18 33.435,0 66.869,-12.726 92.323,-38.18 50.905,-50.906 50.905,-133.737 -0.002,-184.644 z M 381.498,284.7 c 7.839,0 15.677,0.949 23.33,2.836 -1.303,5.529 -5.134,10.216 -10.513,12.532 -4.463,1.922 -9.407,1.992 -13.923,0.194 -4.516,-1.797 -8.06,-5.244 -9.981,-9.708 -0.707,-1.64 -1.156,-3.34 -1.361,-5.033 4.131,-0.531 8.288,-0.821 12.448,-0.821 z m -73.375,142.9 c -2.46,2.46 -5.269,4.428 -8.321,5.883 -10.994,-17.277 -15.991,-37.291 -14.963,-57.061 8.51,-0.586 17.025,2.464 23.283,8.72 11.706,11.707 11.706,30.752 10e-4,42.458 z m 141.856,22.382 c -34.542,34.542 -88.889,37.464 -126.809,8.809 3.111,-2.164 6.056,-4.61 8.794,-7.348 24.852,-24.852 24.852,-65.29 0,-90.142 -10.782,-10.782 -24.719,-17.098 -39.245,-18.43 4.701,-10.841 11.449,-21 20.299,-29.85 7.148,-7.148 15.148,-12.937 23.672,-17.379 0.686,2.802 1.594,5.558 2.752,8.247 5.484,12.735 15.599,22.573 28.481,27.7 6.215,2.474 12.714,3.709 19.208,3.709 6.966,-10e-4 13.929,-1.423 20.519,-4.261 13.346,-5.747 23.364,-16.609 28.19,-29.684 4.982,3.381 9.729,7.256 14.14,11.667 37.759,37.761 37.759,99.202 -0.001,136.962 z"
   id="path1-5"
   style="fill:#000080" />

	</g>

</g>
    <g
       id="g10"
       transform="matrix(0.01689335,0,0,0.01689335,98.965146,148.42982)"
       style="fill:#000080">
	<g
   id="g9"
   style="fill:#000080">
		<path
   d="m 446.386,365.775 c -17.389,-17.388 -45.678,-17.385 -63.063,0 -17.387,17.387 -17.387,45.676 0,63.062 8.692,8.692 20.111,13.04 31.53,13.04 11.419,0 22.839,-4.346 31.534,-13.04 17.383,-17.386 17.383,-45.675 -10e-4,-63.062 z m -23.843,39.22 c -4.241,4.24 -11.14,4.239 -15.38,10e-4 -4.239,-4.239 -4.239,-11.139 0,-15.38 2.121,-2.12 4.904,-3.18 7.69,-3.18 2.785,0 5.57,1.06 7.69,3.181 4.239,4.241 4.239,11.14 0,15.378 z"
   id="path8"
   style="fill:#000080" />

	</g>

</g>
  </g>
</svg>
