<?xml version='1.0' encoding='UTF-8'?>
<!DOCTYPE svg PUBLIC "-//W3C//DTD SVG 1.0//EN" "http://www.w3.org/TR/2001/REC-SVG-20010904/DTD/svg10.dtd">
<svg viewBox="0 0 1600 260" xmlns="http://www.w3.org/2000/svg" xmlns:inkspace="http://www.inkscape.org/namespaces/inkscape" xmlns:xlink="http://www.w3.org/1999/xlink" width="1600px" height="260px">
  <defs id="defs_block">
    <filter height="1.504" id="filter_blur" inkspace:collect="always" width="1.1575" x="-0.07875" y="-0.252">
      <feGaussianBlur id="feGaussianBlur3780" inkspace:collect="always" stdDeviation="4.2" />
    </filter>
  </defs>
  <title>blockdiag</title>
  <desc>{
  default_fontsize = 20
  node_height = 70
  default_group_color = none
  default_linecolor = white
  default_textcolor = white
  default_node_color = none

  OP [label="- Ondas
Piloto"]
  GI [label="- Guard
Interval"]
  FIL [label="Filtro
Salida"]

  DEMOD &lt;- OP &lt;- EQ &lt;- FFT &lt;- GI &lt;- ADC &lt;- FIL &lt;- RX
  group {
    orientation = portrait
    GI &lt;- SYNC 
  }
  SYNC &lt;- ADC
  group {
    orientation = portrait
    EQ &lt;- EST
  }
  EST &lt;- FFT
}</desc>
  <rect fill="none" height="200" style="filter:url(#filter_blur)" width="144" x="824" y="30" />
  <rect fill="none" height="200" style="filter:url(#filter_blur)" width="144" x="440" y="30" />
  <rect fill="none" height="70" stroke="rgb(255,255,255)" width="128" x="256" y="40" />
  <text fill="rgb(255,255,255)" font-family="sans-serif" font-size="20" font-style="normal" font-weight="normal" text-anchor="middle" textLength="77" x="320.5" y="74">- Ondas</text>
  <text fill="rgb(255,255,255)" font-family="sans-serif" font-size="20" font-style="normal" font-weight="normal" text-anchor="middle" textLength="57" x="320.5" y="95">Piloto</text>
  <rect fill="none" height="70" stroke="rgb(255,255,255)" width="128" x="832" y="40" />
  <text fill="rgb(255,255,255)" font-family="sans-serif" font-size="20" font-style="normal" font-weight="normal" text-anchor="middle" textLength="77" x="896.5" y="74">- Guard</text>
  <text fill="rgb(255,255,255)" font-family="sans-serif" font-size="20" font-style="normal" font-weight="normal" text-anchor="middle" textLength="80" x="896.0" y="95">Interval</text>
  <rect fill="none" height="70" stroke="rgb(255,255,255)" width="128" x="832" y="150" />
  <text fill="rgb(255,255,255)" font-family="sans-serif" font-size="20" font-style="normal" font-weight="normal" text-anchor="middle" textLength="60" x="896.0" y="195">SYNC</text>
  <rect fill="none" height="70" stroke="rgb(255,255,255)" width="128" x="1216" y="40" />
  <text fill="rgb(255,255,255)" font-family="sans-serif" font-size="20" font-style="normal" font-weight="normal" text-anchor="middle" textLength="56" x="1280.0" y="74">Filtro</text>
  <text fill="rgb(255,255,255)" font-family="sans-serif" font-size="20" font-style="normal" font-weight="normal" text-anchor="middle" textLength="63" x="1280.5" y="95">Salida</text>
  <rect fill="none" height="70" stroke="rgb(255,255,255)" width="128" x="64" y="40" />
  <text fill="rgb(255,255,255)" font-family="sans-serif" font-size="20" font-style="normal" font-weight="normal" text-anchor="middle" textLength="83" x="128.5" y="85">DEMOD</text>
  <rect fill="none" height="70" stroke="rgb(255,255,255)" width="128" x="448" y="40" />
  <text fill="rgb(255,255,255)" font-family="sans-serif" font-size="20" font-style="normal" font-weight="normal" text-anchor="middle" textLength="31" x="512.5" y="86">EQ</text>
  <rect fill="none" height="70" stroke="rgb(255,255,255)" width="128" x="448" y="150" />
  <text fill="rgb(255,255,255)" font-family="sans-serif" font-size="20" font-style="normal" font-weight="normal" text-anchor="middle" textLength="43" x="512.5" y="195">EST</text>
  <rect fill="none" height="70" stroke="rgb(255,255,255)" width="128" x="640" y="40" />
  <text fill="rgb(255,255,255)" font-family="sans-serif" font-size="20" font-style="normal" font-weight="normal" text-anchor="middle" textLength="42" x="704.0" y="85">FFT</text>
  <rect fill="none" height="70" stroke="rgb(255,255,255)" width="128" x="1024" y="40" />
  <text fill="rgb(255,255,255)" font-family="sans-serif" font-size="20" font-style="normal" font-weight="normal" text-anchor="middle" textLength="46" x="1088.0" y="85">ADC</text>
  <rect fill="none" height="70" stroke="rgb(255,255,255)" width="128" x="1408" y="40" />
  <text fill="rgb(255,255,255)" font-family="sans-serif" font-size="20" font-style="normal" font-weight="normal" text-anchor="middle" textLength="30" x="1472.0" y="85">RX</text>
  <path d="M 392 75 L 448 75" fill="none" stroke="rgb(255,255,255)" />
  <polygon fill="rgb(255,255,255)" points="385,75 392,71 392,79 385,75" stroke="rgb(255,255,255)" />
  <path d="M 1352 75 L 1408 75" fill="none" stroke="rgb(255,255,255)" />
  <polygon fill="rgb(255,255,255)" points="1345,75 1352,71 1352,79 1345,75" stroke="rgb(255,255,255)" />
  <path d="M 200 75 L 256 75" fill="none" stroke="rgb(255,255,255)" />
  <polygon fill="rgb(255,255,255)" points="193,75 200,71 200,79 193,75" stroke="rgb(255,255,255)" />
  <path d="M 776 75 L 780.0 75" fill="none" stroke="rgb(255,255,255)" />
  <path d="M 780.0 75.0 A4.0,4.0 0 0 1 788.0 75.0" fill="none" stroke="rgb(255,255,255)" />
  <path d="M 788.0 75 L 832 75" fill="none" stroke="rgb(255,255,255)" />
  <polygon fill="rgb(255,255,255)" points="769,75 776,71 776,79 769,75" stroke="rgb(255,255,255)" />
  <path d="M 1160 75 L 1164.0 75" fill="none" stroke="rgb(255,255,255)" />
  <path d="M 1164.0 75.0 A4.0,4.0 0 0 1 1172.0 75.0" fill="none" stroke="rgb(255,255,255)" />
  <path d="M 1172.0 75 L 1216 75" fill="none" stroke="rgb(255,255,255)" />
  <polygon fill="rgb(255,255,255)" points="1153,75 1160,71 1160,79 1153,75" stroke="rgb(255,255,255)" />
  <path d="M 968 75 L 1024 75" fill="none" stroke="rgb(255,255,255)" />
  <polygon fill="rgb(255,255,255)" points="961,75 968,71 968,79 961,75" stroke="rgb(255,255,255)" />
  <path d="M 896 118 L 896 150" fill="none" stroke="rgb(255,255,255)" />
  <polygon fill="rgb(255,255,255)" points="896,111 892,118 900,118 896,111" stroke="rgb(255,255,255)" />
  <path d="M 896 228 L 896 240" fill="none" stroke="rgb(255,255,255)" />
  <path d="M 896 240 L 1168 240" fill="none" stroke="rgb(255,255,255)" />
  <path d="M 1168 240 L 1168 25" fill="none" stroke="rgb(255,255,255)" />
  <path d="M 1088 25 L 1168 25" fill="none" stroke="rgb(255,255,255)" />
  <path d="M 1088 25 L 1088 40" fill="none" stroke="rgb(255,255,255)" />
  <polygon fill="rgb(255,255,255)" points="896,221 892,228 900,228 896,221" stroke="rgb(255,255,255)" />
  <path d="M 584 75 L 640 75" fill="none" stroke="rgb(255,255,255)" />
  <polygon fill="rgb(255,255,255)" points="577,75 584,71 584,79 577,75" stroke="rgb(255,255,255)" />
  <path d="M 512 118 L 512 150" fill="none" stroke="rgb(255,255,255)" />
  <polygon fill="rgb(255,255,255)" points="512,111 508,118 516,118 512,111" stroke="rgb(255,255,255)" />
  <path d="M 512 228 L 512 240" fill="none" stroke="rgb(255,255,255)" />
  <path d="M 512 240 L 784 240" fill="none" stroke="rgb(255,255,255)" />
  <path d="M 784 240 L 784 25" fill="none" stroke="rgb(255,255,255)" />
  <path d="M 704 25 L 784 25" fill="none" stroke="rgb(255,255,255)" />
  <path d="M 704 25 L 704 40" fill="none" stroke="rgb(255,255,255)" />
  <polygon fill="rgb(255,255,255)" points="512,221 508,228 516,228 512,221" stroke="rgb(255,255,255)" />
</svg>