<svg xmlns="http://www.w3.org/2000/svg" width="264" height="208">
  <style>
    line, path, circle, rect, polygon{stroke:black;stroke-width:2;stroke-opacity:1;fill-opacity:1;stroke-linecap:round;stroke-linejoin:miter;}text{font-family:Iosevka Fixed, monospace;font-size:14px;}rect.backdrop{stroke:none;fill:white;}.broken{stroke-dasharray:8;}.filled{fill:black;}.bg_filled{fill:white;}.nofill{fill:white;}.end_marked_arrow{marker-end:url(#arrow);}.start_marked_arrow{marker-start:url(#arrow);}.end_marked_diamond{marker-end:url(#diamond);}.start_marked_diamond{marker-start:url(#diamond);}.end_marked_circle{marker-end:url(#circle);}.start_marked_circle{marker-start:url(#circle);}.end_marked_open_circle{marker-end:url(#open_circle);}.start_marked_open_circle{marker-start:url(#open_circle);}.end_marked_big_open_circle{marker-end:url(#big_open_circle);}.start_marked_big_open_circle{marker-start:url(#big_open_circle);}
    <!--separator-->
    
  </style>
  <defs>
    <marker id="arrow" viewBox="-2 -2 8 8" refX="4" refY="2" markerWidth="7" markerHeight="7" orient="auto-start-reverse">
      <polygon points="0,0 0,4 4,2 0,0"></polygon>
    </marker>
    <marker id="diamond" viewBox="-2 -2 8 8" refX="4" refY="2" markerWidth="7" markerHeight="7" orient="auto-start-reverse">
      <polygon points="0,2 2,0 4,2 2,4 0,2"></polygon>
    </marker>
    <marker id="circle" viewBox="0 0 8 8" refX="4" refY="4" markerWidth="7" markerHeight="7" orient="auto-start-reverse">
      <circle cx="4" cy="4" r="2" class="filled"></circle>
    </marker>
    <marker id="open_circle" viewBox="0 0 8 8" refX="4" refY="4" markerWidth="7" markerHeight="7" orient="auto-start-reverse">
      <circle cx="4" cy="4" r="2" class="bg_filled"></circle>
    </marker>
    <marker id="big_open_circle" viewBox="0 0 8 8" refX="4" refY="4" markerWidth="7" markerHeight="7" orient="auto-start-reverse">
      <circle cx="4" cy="4" r="3" class="bg_filled"></circle>
    </marker>
  </defs>
  <rect class="backdrop" x="0" y="0" width="264" height="208"></rect>
  <text x="74" y="28" >0</text>
  <text x="114" y="28" >FFT</text>
  <text x="162" y="28" >0</text>
  <text x="74" y="44" >1</text>
  <text x="162" y="44" >1</text>
  <text x="194" y="60" >:</text>
  <text x="74" y="76" >26</text>
  <text x="154" y="76" >26</text>
  <text x="74" y="92" >27</text>
  <text x="154" y="92" >27</text>
  <text x="74" y="124" >37</text>
  <text x="154" y="124" >37</text>
  <text x="74" y="140" >38</text>
  <text x="154" y="140" >38</text>
  <text x="194" y="156" >:</text>
  <text x="74" y="172" >63</text>
  <text x="154" y="172" >63</text>
  <text x="210" y="44" >x[1]</text>
  <text x="210" y="76" >x[26]</text>
  <text x="2" y="92" >Rx</text>
  <text x="210" y="140" >x[</text>
  <line x1="224" y1="136" x2="232" y2="136" class="solid"></line>
  <text x="234" y="140" >26]</text>
  <text x="210" y="172" >x[</text>
  <line x1="224" y1="168" x2="232" y2="168" class="solid"></line>
  <text x="234" y="172" >1]</text>
  <g>
    <line x1="68" y1="8" x2="172" y2="8" class="solid"></line>
    <line x1="68" y1="8" x2="68" y2="184" class="solid"></line>
    <line x1="172" y1="8" x2="172" y2="184" class="solid"></line>
    <line x1="40" y1="24" x2="68" y2="24" class="solid"></line>
    <line x1="40" y1="40" x2="68" y2="40" class="solid"></line>
    <line x1="172" y1="40" x2="200" y2="40" class="solid"></line>
    <line x1="40" y1="72" x2="68" y2="72" class="solid"></line>
    <line x1="172" y1="72" x2="200" y2="72" class="solid"></line>
    <line x1="40" y1="88" x2="68" y2="88" class="solid"></line>
    <line x1="40" y1="120" x2="68" y2="120" class="solid"></line>
    <line x1="40" y1="136" x2="68" y2="136" class="solid"></line>
    <line x1="172" y1="136" x2="200" y2="136" class="solid"></line>
    <line x1="40" y1="168" x2="68" y2="168" class="solid"></line>
    <line x1="172" y1="168" x2="200" y2="168" class="solid"></line>
    <line x1="68" y1="184" x2="172" y2="184" class="solid"></line>
  </g>
  <g>
    <line x1="28" y1="16" x2="28" y2="164" class="solid"></line>
    <polygon points="24,164 32,164 28,176" class="filled"></polygon>
  </g>
</svg>
