<?xml version='1.0' encoding='UTF-8'?>
<!DOCTYPE svg PUBLIC "-//W3C//DTD SVG 1.0//EN" "http://www.w3.org/TR/2001/REC-SVG-20010904/DTD/svg10.dtd">
<svg viewBox="0 0 848 170" xmlns="http://www.w3.org/2000/svg" xmlns:inkspace="http://www.inkscape.org/namespaces/inkscape" xmlns:xlink="http://www.w3.org/1999/xlink" width="848px" height="170px">
  <defs id="defs_block">
    <filter height="1.504" id="filter_blur" inkspace:collect="always" width="1.1575" x="-0.07875" y="-0.252">
      <feGaussianBlur id="feGaussianBlur3780" inkspace:collect="always" stdDeviation="4.2" />
    </filter>
  </defs>
  <title>blockdiag</title>
  <desc>{
  default_linecolor = white
  default_node_color = none
  default_textcolor = white
  colwidth = 40
  node_height = 50
  node_width = 18
  default_fontsize = 18
  scale_interval = 8
  * RATE [len=4, label="RATE
4 bits"]
  * RES [len=1, rotate=90]
  * LENGTH [len=12, label="LENGTH
12 bits"]
  * PAR [len=1, rotate=90]
  * TAIL [len=6, label="TAIL
6 bits"]
  * SERVICE [len=16, label="SERVICE
16 bits"]
}</desc>
  <path d="M 64 48 L 64 80" fill="none" stroke="rgb(255,255,255)" />
  <text fill="rgb(255,255,255)" font-family="sans-serif" font-size="11" font-style="normal" font-weight="normal" text-anchor="middle" textLength="7" x="64.5" y="42">0</text>
  <path d="M 82 64 L 82 80" fill="none" stroke="rgb(255,255,255)" />
  <path d="M 100 64 L 100 80" fill="none" stroke="rgb(255,255,255)" />
  <path d="M 118 64 L 118 80" fill="none" stroke="rgb(255,255,255)" />
  <path d="M 136 64 L 136 80" fill="none" stroke="rgb(255,255,255)" />
  <path d="M 154 64 L 154 80" fill="none" stroke="rgb(255,255,255)" />
  <path d="M 172 64 L 172 80" fill="none" stroke="rgb(255,255,255)" />
  <path d="M 190 64 L 190 80" fill="none" stroke="rgb(255,255,255)" />
  <path d="M 208 64 L 208 80" fill="none" stroke="rgb(255,255,255)" />
  <text fill="rgb(255,255,255)" font-family="sans-serif" font-size="11" font-style="normal" font-weight="normal" text-anchor="middle" textLength="7" x="208.5" y="58">8</text>
  <path d="M 226 64 L 226 80" fill="none" stroke="rgb(255,255,255)" />
  <path d="M 244 48 L 244 80" fill="none" stroke="rgb(255,255,255)" />
  <path d="M 262 64 L 262 80" fill="none" stroke="rgb(255,255,255)" />
  <path d="M 280 64 L 280 80" fill="none" stroke="rgb(255,255,255)" />
  <path d="M 298 64 L 298 80" fill="none" stroke="rgb(255,255,255)" />
  <path d="M 316 64 L 316 80" fill="none" stroke="rgb(255,255,255)" />
  <path d="M 334 64 L 334 80" fill="none" stroke="rgb(255,255,255)" />
  <path d="M 352 64 L 352 80" fill="none" stroke="rgb(255,255,255)" />
  <text fill="rgb(255,255,255)" font-family="sans-serif" font-size="11" font-style="normal" font-weight="normal" text-anchor="middle" textLength="14" x="352.0" y="58">16</text>
  <path d="M 370 64 L 370 80" fill="none" stroke="rgb(255,255,255)" />
  <path d="M 388 64 L 388 80" fill="none" stroke="rgb(255,255,255)" />
  <path d="M 406 64 L 406 80" fill="none" stroke="rgb(255,255,255)" />
  <path d="M 424 48 L 424 80" fill="none" stroke="rgb(255,255,255)" />
  <path d="M 442 64 L 442 80" fill="none" stroke="rgb(255,255,255)" />
  <path d="M 460 64 L 460 80" fill="none" stroke="rgb(255,255,255)" />
  <path d="M 478 64 L 478 80" fill="none" stroke="rgb(255,255,255)" />
  <path d="M 496 64 L 496 80" fill="none" stroke="rgb(255,255,255)" />
  <text fill="rgb(255,255,255)" font-family="sans-serif" font-size="11" font-style="normal" font-weight="normal" text-anchor="middle" textLength="14" x="496.0" y="58">24</text>
  <path d="M 514 64 L 514 80" fill="none" stroke="rgb(255,255,255)" />
  <path d="M 532 64 L 532 80" fill="none" stroke="rgb(255,255,255)" />
  <path d="M 550 64 L 550 80" fill="none" stroke="rgb(255,255,255)" />
  <path d="M 568 64 L 568 80" fill="none" stroke="rgb(255,255,255)" />
  <path d="M 586 64 L 586 80" fill="none" stroke="rgb(255,255,255)" />
  <path d="M 604 48 L 604 80" fill="none" stroke="rgb(255,255,255)" />
  <path d="M 622 64 L 622 80" fill="none" stroke="rgb(255,255,255)" />
  <path d="M 640 64 L 640 80" fill="none" stroke="rgb(255,255,255)" />
  <text fill="rgb(255,255,255)" font-family="sans-serif" font-size="11" font-style="normal" font-weight="normal" text-anchor="middle" textLength="14" x="640.0" y="58">32</text>
  <path d="M 658 64 L 658 80" fill="none" stroke="rgb(255,255,255)" />
  <path d="M 676 64 L 676 80" fill="none" stroke="rgb(255,255,255)" />
  <path d="M 694 64 L 694 80" fill="none" stroke="rgb(255,255,255)" />
  <path d="M 712 64 L 712 80" fill="none" stroke="rgb(255,255,255)" />
  <path d="M 730 64 L 730 80" fill="none" stroke="rgb(255,255,255)" />
  <path d="M 748 64 L 748 80" fill="none" stroke="rgb(255,255,255)" />
  <path d="M 766 64 L 766 80" fill="none" stroke="rgb(255,255,255)" />
  <path d="M 784 48 L 784 80" fill="none" stroke="rgb(255,255,255)" />
  <text fill="rgb(255,255,255)" font-family="sans-serif" font-size="11" font-style="normal" font-weight="normal" text-anchor="middle" textLength="14" x="784.0" y="42">40</text>
  <rect fill="none" height="50" stroke="none" width="72" x="64" y="80" />
  <path d="M 64 80 L 136 80" fill="none" stroke="rgb(255,255,255)" />
  <path d="M 136 80 L 136 130" fill="none" stroke="rgb(255,255,255)" />
  <path d="M 136 130 L 64 130" fill="none" stroke="rgb(255,255,255)" />
  <path d="M 64 130 L 64 80" fill="none" stroke="rgb(255,255,255)" />
  <text fill="rgb(255,255,255)" font-family="sans-serif" font-size="18" font-style="normal" font-weight="normal" text-anchor="middle" textLength="52" x="100.0" y="104">RATE</text>
  <text fill="rgb(255,255,255)" font-family="sans-serif" font-size="18" font-style="normal" font-weight="normal" text-anchor="middle" textLength="51" x="100.5" y="123">4 bits</text>
  <rect fill="none" height="50" stroke="none" width="18" x="136" y="80" />
  <path d="M 136 80 L 154 80" fill="none" stroke="rgb(255,255,255)" />
  <path d="M 154 80 L 154 130" fill="none" stroke="rgb(255,255,255)" />
  <path d="M 154 130 L 136 130" fill="none" stroke="rgb(255,255,255)" />
  <path d="M 136 130 L 136 80" fill="none" stroke="rgb(255,255,255)" />
  <g transform="rotate(90,154,80)">
    <text fill="rgb(255,255,255)" font-family="sans-serif" font-size="14" font-style="normal" font-weight="normal" text-anchor="middle" textLength="31" x="179.5" y="96">RES</text>
  </g>
  <rect fill="none" height="50" stroke="none" width="216" x="154" y="80" />
  <path d="M 154 80 L 370 80" fill="none" stroke="rgb(255,255,255)" />
  <path d="M 370 80 L 370 130" fill="none" stroke="rgb(255,255,255)" />
  <path d="M 370 130 L 154 130" fill="none" stroke="rgb(255,255,255)" />
  <path d="M 154 130 L 154 80" fill="none" stroke="rgb(255,255,255)" />
  <text fill="rgb(255,255,255)" font-family="sans-serif" font-size="18" font-style="normal" font-weight="normal" text-anchor="middle" textLength="83" x="262.5" y="104">LENGTH</text>
  <text fill="rgb(255,255,255)" font-family="sans-serif" font-size="18" font-style="normal" font-weight="normal" text-anchor="middle" textLength="62" x="262.0" y="123">12 bits</text>
  <rect fill="none" height="50" stroke="none" width="18" x="370" y="80" />
  <path d="M 370 80 L 388 80" fill="none" stroke="rgb(255,255,255)" />
  <path d="M 388 80 L 388 130" fill="none" stroke="rgb(255,255,255)" />
  <path d="M 388 130 L 370 130" fill="none" stroke="rgb(255,255,255)" />
  <path d="M 370 130 L 370 80" fill="none" stroke="rgb(255,255,255)" />
  <g transform="rotate(90,388,80)">
    <text fill="rgb(255,255,255)" font-family="sans-serif" font-size="14" font-style="normal" font-weight="normal" text-anchor="middle" textLength="30" x="413.0" y="96">PAR</text>
  </g>
  <rect fill="none" height="50" stroke="none" width="108" x="388" y="80" />
  <path d="M 388 80 L 496 80" fill="none" stroke="rgb(255,255,255)" />
  <path d="M 496 80 L 496 130" fill="none" stroke="rgb(255,255,255)" />
  <path d="M 496 130 L 388 130" fill="none" stroke="rgb(255,255,255)" />
  <path d="M 388 130 L 388 80" fill="none" stroke="rgb(255,255,255)" />
  <text fill="rgb(255,255,255)" font-family="sans-serif" font-size="18" font-style="normal" font-weight="normal" text-anchor="middle" textLength="44" x="442.0" y="104">TAIL</text>
  <text fill="rgb(255,255,255)" font-family="sans-serif" font-size="18" font-style="normal" font-weight="normal" text-anchor="middle" textLength="51" x="442.5" y="123">6 bits</text>
  <rect fill="none" height="50" stroke="none" width="288" x="496" y="80" />
  <path d="M 496 80 L 784 80" fill="none" stroke="rgb(255,255,255)" />
  <path d="M 784 80 L 784 130" fill="none" stroke="rgb(255,255,255)" />
  <path d="M 784 130 L 496 130" fill="none" stroke="rgb(255,255,255)" />
  <path d="M 496 130 L 496 80" fill="none" stroke="rgb(255,255,255)" />
  <text fill="rgb(255,255,255)" font-family="sans-serif" font-size="18" font-style="normal" font-weight="normal" text-anchor="middle" textLength="86" x="640.0" y="104">SERVICE</text>
  <text fill="rgb(255,255,255)" font-family="sans-serif" font-size="18" font-style="normal" font-weight="normal" text-anchor="middle" textLength="62" x="640.0" y="123">16 bits</text>
</svg>