<?xml version="1.0" encoding="UTF-8" standalone="no"?>
<!-- Created with Inkscape (http://www.inkscape.org/) -->

<svg
   version="1.1"
   id="svg1"
   width="555.67908"
   height="45"
   viewBox="0 0 555.67907 44.999999"
   sodipodi:docname="asignacion_subportadoras.svg"
   inkscape:version="1.3.2 (091e20ef0f, 2023-11-25, custom)"
   xmlns:inkscape="http://www.inkscape.org/namespaces/inkscape"
   xmlns:sodipodi="http://sodipodi.sourceforge.net/DTD/sodipodi-0.dtd"
   xmlns="http://www.w3.org/2000/svg"
   xmlns:svg="http://www.w3.org/2000/svg">
  <defs
     id="defs1" />
  <sodipodi:namedview
     id="namedview1"
     pagecolor="#ffffff"
     bordercolor="#000000"
     borderopacity="0.25"
     inkscape:showpageshadow="2"
     inkscape:pageopacity="0.0"
     inkscape:pagecheckerboard="0"
     inkscape:deskcolor="#d1d1d1"
     inkscape:zoom="3.4839671"
     inkscape:cx="457.81144"
     inkscape:cy="51.95227"
     inkscape:window-width="1920"
     inkscape:window-height="1130"
     inkscape:window-x="0"
     inkscape:window-y="0"
     inkscape:window-maximized="1"
     inkscape:current-layer="g1"
     showgrid="true">
    <inkscape:page
       x="0"
       y="0"
       inkscape:label="1"
       id="page1"
       width="555.67908"
       height="45"
       margin="0"
       bleed="0" />
    <inkscape:grid
       id="grid79"
       units="px"
       originx="6.8668129e-09"
       originy="5"
       spacingx="0.99999999"
       spacingy="0.99999998"
       empcolor="#0099e5"
       empopacity="0.30196078"
       color="#0099e5"
       opacity="0.14901961"
       empspacing="5"
       dotted="false"
       gridanglex="30"
       gridanglez="30"
       visible="true" />
  </sodipodi:namedview>
  <g
     id="g1"
     inkscape:groupmode="layer"
     inkscape:label="1"
     transform="translate(91.991484,5.4408121)">
    <path
       id="path1"
       d="m 5.898,15.828 h 5.625"
       style="fill:none;stroke:#000000;stroke-width:0.749999;stroke-linecap:butt;stroke-linejoin:miter;stroke-miterlimit:4;stroke-dasharray:none;stroke-opacity:1"
       transform="scale(1.3333333)" />
    <path
       id="path2"
       d="m 7.586,15.828 c 0,0.934 -0.758,1.688 -1.687,1.688 -0.934,0 -1.688,-0.754 -1.688,-1.688 0,-0.93 0.774,-1.687 1.688,-1.687 0.929,0 1.687,0.757 1.687,1.687 z"
       style="fill:none;stroke:#000000;stroke-width:0.674999;stroke-linecap:butt;stroke-linejoin:miter;stroke-miterlimit:4;stroke-dasharray:none;stroke-opacity:1"
       transform="matrix(1.3333333,2.0157467e-5,-2.0157467e-5,1.3333333,0,0)" />
    <path
       id="path3"
       d="M 34.023,15.828 H 28.398"
       style="fill:none;stroke:#000000;stroke-width:0.749999;stroke-linecap:butt;stroke-linejoin:miter;stroke-miterlimit:4;stroke-dasharray:none;stroke-opacity:1"
       transform="scale(1.3333333)" />
    <path
       id="path4"
       d="m -32.336,-15.829 c 0,0.93 -0.754,1.688 -1.687,1.688 -0.93,0 -1.688,-0.758 -1.688,-1.688 0,-0.933 0.778,-1.687 1.688,-1.687 0.933,0 1.687,0.754 1.687,1.687 z"
       style="fill:none;stroke:#000000;stroke-width:0.674999;stroke-linecap:butt;stroke-linejoin:miter;stroke-miterlimit:4;stroke-dasharray:none;stroke-opacity:1"
       transform="matrix(-1.3333333,2.0157467e-5,-2.0157467e-5,-1.3333333,0,0)" />
    <path
       id="path5"
       d="m 50.898,15.828 c -16.875,0 -16.875,0 -16.875,0"
       style="fill:none;stroke:#000000;stroke-width:0.749999;stroke-linecap:butt;stroke-linejoin:miter;stroke-miterlimit:4;stroke-dasharray:none;stroke-opacity:1"
       transform="scale(1.3333333)" />
    <path
       id="path6"
       d="m -49.211,-15.828 c 0,0.93 -0.754,1.687 -1.687,1.687 -0.93,0 -1.688,-0.757 -1.688,-1.687 0,-0.934 0.777,-1.688 1.688,-1.688 0.933,0 1.687,0.754 1.687,1.688 z"
       style="fill:none;stroke:#000000;stroke-width:0.674999;stroke-linecap:butt;stroke-linejoin:miter;stroke-miterlimit:4;stroke-dasharray:none;stroke-opacity:1"
       transform="scale(-1.3333333)" />
    <path
       id="path7"
       d="m 67.773,15.828 c -16.875,0 -16.875,0 -16.875,0"
       style="fill:none;stroke:#000000;stroke-width:0.749999;stroke-linecap:butt;stroke-linejoin:miter;stroke-miterlimit:4;stroke-dasharray:none;stroke-opacity:1"
       transform="scale(1.3333333)" />
    <path
       id="path8"
       d="m -66.086,-15.828 c 0,0.93 -0.754,1.687 -1.687,1.687 -0.93,0 -1.688,-0.757 -1.688,-1.687 0,-0.934 0.777,-1.688 1.688,-1.688 0.933,0 1.687,0.754 1.687,1.688 z"
       style="fill:none;stroke:#000000;stroke-width:0.674999;stroke-linecap:butt;stroke-linejoin:miter;stroke-miterlimit:4;stroke-dasharray:none;stroke-opacity:1"
       transform="scale(-1.3333333)" />
    <path
       id="path9"
       d="M 11.523,15.828 H 28.398"
       style="fill:none;stroke:#000000;stroke-width:0.749999;stroke-linecap:butt;stroke-linejoin:miter;stroke-miterlimit:4;stroke-dasharray:2.25002, 2.25002;stroke-dashoffset:0;stroke-opacity:1"
       transform="scale(1.3333333)" />
    <path
       id="path10"
       d="m 67.773,15.828 h 5.625"
       style="fill:none;stroke:#000000;stroke-width:0.749999;stroke-linecap:butt;stroke-linejoin:miter;stroke-miterlimit:4;stroke-dasharray:none;stroke-opacity:1"
       transform="scale(1.3333333)" />
    <path
       id="path11"
       d="m 69.461,15.827 c 0,0.934 -0.758,1.688 -1.687,1.688 -0.934,0 -1.688,-0.754 -1.688,-1.688 0,-0.93 0.774,-1.687 1.688,-1.687 0.929,0 1.687,0.757 1.687,1.687 z"
       style="fill:none;stroke:#000000;stroke-width:0.674999;stroke-linecap:butt;stroke-linejoin:miter;stroke-miterlimit:4;stroke-dasharray:none;stroke-opacity:1"
       transform="matrix(1.3333333,2.0157467e-5,-2.0157467e-5,1.3333333,0,0)" />
    <path
       id="path12"
       d="M 95.898,15.828 H 90.273"
       style="fill:none;stroke:#000000;stroke-width:0.749999;stroke-linecap:butt;stroke-linejoin:miter;stroke-miterlimit:4;stroke-dasharray:none;stroke-opacity:1"
       transform="scale(1.3333333)" />
    <path
       id="path13"
       d="m -94.211,-15.83 c 0,0.93 -0.754,1.688 -1.687,1.688 -0.93,0 -1.688,-0.758 -1.688,-1.688 0,-0.933 0.778,-1.687 1.688,-1.687 0.933,0 1.687,0.754 1.687,1.687 z"
       style="fill:none;stroke:#000000;stroke-width:0.674999;stroke-linecap:butt;stroke-linejoin:miter;stroke-miterlimit:4;stroke-dasharray:none;stroke-opacity:1"
       transform="matrix(-1.3333333,2.0157467e-5,-2.0157467e-5,-1.3333333,0,0)" />
    <path
       id="path14"
       d="m 112.773,15.828 c -16.875,0 -16.875,0 -16.875,0"
       style="fill:none;stroke:#000000;stroke-width:0.749999;stroke-linecap:butt;stroke-linejoin:miter;stroke-miterlimit:4;stroke-dasharray:none;stroke-opacity:1"
       transform="scale(1.3333333)" />
    <path
       id="path15"
       d="m -111.086,-15.828 c 0,0.93 -0.754,1.687 -1.687,1.687 -0.93,0 -1.688,-0.757 -1.688,-1.687 0,-0.934 0.777,-1.688 1.688,-1.688 0.933,0 1.687,0.754 1.687,1.688 z"
       style="fill:none;stroke:#000000;stroke-width:0.674999;stroke-linecap:butt;stroke-linejoin:miter;stroke-miterlimit:4;stroke-dasharray:none;stroke-opacity:1"
       transform="scale(-1.3333333)" />
    <path
       id="path16"
       d="m 129.648,15.828 c -16.875,0 -16.875,0 -16.875,0"
       style="fill:none;stroke:#000000;stroke-width:0.749999;stroke-linecap:butt;stroke-linejoin:miter;stroke-miterlimit:4;stroke-dasharray:none;stroke-opacity:1"
       transform="scale(1.3333333)" />
    <path
       id="path17"
       d="m -127.961,-15.828 c 0,0.93 -0.758,1.687 -1.687,1.687 -0.934,0 -1.688,-0.757 -1.688,-1.687 0,-0.934 0.777,-1.688 1.688,-1.688 0.929,0 1.687,0.754 1.687,1.688 z"
       style="fill:none;stroke:#000000;stroke-width:0.674999;stroke-linecap:butt;stroke-linejoin:miter;stroke-miterlimit:4;stroke-dasharray:none;stroke-opacity:1"
       transform="scale(-1.3333333)" />
    <path
       id="path18"
       d="M 73.398,15.828 H 90.273"
       style="fill:none;stroke:#000000;stroke-width:0.749999;stroke-linecap:butt;stroke-linejoin:miter;stroke-miterlimit:4;stroke-dasharray:2.25002, 2.25002;stroke-dashoffset:0;stroke-opacity:1"
       transform="scale(1.3333333)" />
    <text
       id="text18"
       xml:space="preserve"
       transform="matrix(1.3333333,0,0,1.3333333,-0.1289048,36.035293)"><tspan
         style="font-variant:normal;font-weight:normal;font-size:9px;font-family:'TexMaths Symbols';writing-mode:lr-tb;fill:#000000;fill-opacity:1;fill-rule:nonzero;stroke:none"
         x="0 2.9882812 7.4882812"
         y="0"
         sodipodi:role="line"
         id="tspan18">-26</tspan><tspan
         style="font-variant:normal;font-weight:normal;font-size:9px;font-family:'TexMaths Symbols';writing-mode:lr-tb;fill:#000000;fill-opacity:1;fill-rule:nonzero;stroke:none"
         x="28.12501 31.113291 35.613289 45.00029 47.988571 52.488571"
         y="0.052466221"
         sodipodi:role="line"
         id="tspan19">-22-21</tspan><tspan
         style="font-variant:normal;font-weight:normal;font-size:9px;font-family:'TexMaths Symbols';writing-mode:lr-tb;fill:#000000;fill-opacity:1;fill-rule:nonzero;stroke:none"
         x="61.159195 64.147476 68.647476"
         y="0.075001143"
         sodipodi:role="line"
         id="tspan20">-20</tspan><tspan
         style="font-variant:normal;font-weight:normal;font-size:9px;font-family:'TexMaths Symbols';writing-mode:lr-tb;fill:#000000;fill-opacity:1;fill-rule:nonzero;stroke:none"
         x="92.249992 95.238274"
         y="0.052336439"
         sodipodi:role="line"
         id="tspan21">-8</tspan></text>
    <path
       id="path21"
       d="m 253.398,15.828 h 5.625"
       style="fill:none;stroke:#000000;stroke-width:0.749999;stroke-linecap:butt;stroke-linejoin:miter;stroke-miterlimit:4;stroke-dasharray:none;stroke-opacity:1"
       transform="scale(1.3333333)" />
    <path
       id="path22"
       d="m 255.086,15.824 c 0,0.934 -0.758,1.688 -1.687,1.688 -0.934,0 -1.688,-0.754 -1.688,-1.688 0,-0.929 0.774,-1.687 1.688,-1.687 0.929,0 1.687,0.758 1.687,1.687 z"
       style="fill:none;stroke:#000000;stroke-width:0.674999;stroke-linecap:butt;stroke-linejoin:miter;stroke-miterlimit:4;stroke-dasharray:none;stroke-opacity:1"
       transform="matrix(1.3333333,2.0157467e-5,-2.0157467e-5,1.3333333,0,0)" />
    <path
       id="path23"
       d="m 281.523,15.828 h -5.625"
       style="fill:none;stroke:#000000;stroke-width:0.749999;stroke-linecap:butt;stroke-linejoin:miter;stroke-miterlimit:4;stroke-dasharray:none;stroke-opacity:1"
       transform="scale(1.3333333)" />
    <path
       id="path24"
       d="m -279.836,-15.832 c 0,0.929 -0.754,1.687 -1.687,1.687 -0.93,0 -1.688,-0.758 -1.688,-1.687 0,-0.934 0.778,-1.688 1.688,-1.688 0.933,0 1.687,0.754 1.687,1.688 z"
       style="fill:none;stroke:#000000;stroke-width:0.674999;stroke-linecap:butt;stroke-linejoin:miter;stroke-miterlimit:4;stroke-dasharray:none;stroke-opacity:1"
       transform="matrix(-1.3333333,2.0157467e-5,-2.0157467e-5,-1.3333333,0,0)" />
    <path
       id="path25"
       d="m 298.398,15.828 c -16.875,0 -16.875,0 -16.875,0"
       style="fill:none;stroke:#000000;stroke-width:0.749999;stroke-linecap:butt;stroke-linejoin:miter;stroke-miterlimit:4;stroke-dasharray:none;stroke-opacity:1"
       transform="scale(1.3333333)" />
    <path
       id="path26"
       d="m -296.711,-15.828 c 0,0.93 -0.754,1.687 -1.687,1.687 -0.93,0 -1.688,-0.757 -1.688,-1.687 0,-0.934 0.777,-1.688 1.688,-1.688 0.933,0 1.687,0.754 1.687,1.688 z"
       style="fill:none;stroke:#000000;stroke-width:0.674999;stroke-linecap:butt;stroke-linejoin:miter;stroke-miterlimit:4;stroke-dasharray:none;stroke-opacity:1"
       transform="scale(-1.3333333)" />
    <path
       id="path27"
       d="m 315.273,15.828 c -16.875,0 -16.875,0 -16.875,0"
       style="fill:none;stroke:#000000;stroke-width:0.749999;stroke-linecap:butt;stroke-linejoin:miter;stroke-miterlimit:4;stroke-dasharray:none;stroke-opacity:1"
       transform="scale(1.3333333)" />
    <path
       id="path28"
       d="m -313.586,-15.828 c 0,0.93 -0.758,1.687 -1.687,1.687 -0.934,0 -1.688,-0.757 -1.688,-1.687 0,-0.934 0.773,-1.688 1.688,-1.688 0.929,0 1.687,0.754 1.687,1.688 z"
       style="fill:none;stroke:#000000;stroke-width:0.674999;stroke-linecap:butt;stroke-linejoin:miter;stroke-miterlimit:4;stroke-dasharray:none;stroke-opacity:1"
       transform="scale(-1.3333333)" />
    <path
       id="path29"
       d="m 259.023,15.828 h 16.875"
       style="fill:none;stroke:#000000;stroke-width:0.749999;stroke-linecap:butt;stroke-linejoin:miter;stroke-miterlimit:4;stroke-dasharray:2.25002, 2.25002;stroke-dashoffset:0;stroke-opacity:1"
       transform="scale(1.3333333)" />
    <path
       id="path30"
       d="m 315.273,15.828 h 5.625"
       style="fill:none;stroke:#000000;stroke-width:0.749999;stroke-linecap:butt;stroke-linejoin:miter;stroke-miterlimit:4;stroke-dasharray:none;stroke-opacity:1"
       transform="scale(1.3333333)" />
    <path
       id="path31"
       d="m 316.961,15.823 c 0,0.934 -0.758,1.688 -1.687,1.688 -0.934,0 -1.688,-0.754 -1.688,-1.688 0,-0.929 0.774,-1.687 1.688,-1.687 0.929,0 1.687,0.758 1.687,1.687 z"
       style="fill:none;stroke:#000000;stroke-width:0.674999;stroke-linecap:butt;stroke-linejoin:miter;stroke-miterlimit:4;stroke-dasharray:none;stroke-opacity:1"
       transform="matrix(1.3333333,2.0157467e-5,-2.0157467e-5,1.3333333,0,0)" />
    <path
       id="path32"
       d="m 343.398,15.828 h -5.625"
       style="fill:none;stroke:#000000;stroke-width:0.749999;stroke-linecap:butt;stroke-linejoin:miter;stroke-miterlimit:4;stroke-dasharray:none;stroke-opacity:1"
       transform="scale(1.3333333)" />
    <path
       id="path33"
       d="m -341.711,-15.833 c 0,0.929 -0.754,1.687 -1.687,1.687 -0.93,0 -1.688,-0.758 -1.688,-1.687 0,-0.934 0.778,-1.688 1.688,-1.688 0.933,0 1.687,0.754 1.687,1.688 z"
       style="fill:none;stroke:#000000;stroke-width:0.674999;stroke-linecap:butt;stroke-linejoin:miter;stroke-miterlimit:4;stroke-dasharray:none;stroke-opacity:1"
       transform="matrix(-1.3333333,2.01572e-5,-2.01572e-5,-1.3333333,0,0)" />
    <path
       id="path34"
       d="m 320.898,15.828 h 16.875"
       style="fill:none;stroke:#000000;stroke-width:0.749999;stroke-linecap:butt;stroke-linejoin:miter;stroke-miterlimit:4;stroke-dasharray:2.25002, 2.25002;stroke-dashoffset:0;stroke-opacity:1"
       transform="scale(1.3333333)" />
    <text
       id="text34"
       xml:space="preserve"
       transform="matrix(1.3333333,0,0,1.3333333,334.86323,36.03512)"><tspan
         style="font-variant:normal;font-weight:normal;font-size:9px;font-family:'TexMaths Symbols';writing-mode:lr-tb;fill:#000000;fill-opacity:1;fill-rule:nonzero;stroke:none"
         x="0"
         y="0"
         id="tspan34">8</tspan><tspan
         style="font-variant:normal;font-weight:normal;font-size:9px;font-family:'TexMaths Symbols';writing-mode:lr-tb;fill:#000000;fill-opacity:1;fill-rule:nonzero;stroke:none"
         x="25.875046 30.375046 42.750046 47.250046"
         y="0.052466221"
         sodipodi:role="line"
         id="tspan35">2021</tspan><tspan
         style="font-variant:normal;font-weight:normal;font-size:9px;font-family:'TexMaths Symbols';writing-mode:lr-tb;fill:#000000;fill-opacity:1;fill-rule:nonzero;stroke:none"
         x="58.909229 63.409229"
         y="0.075001143"
         sodipodi:role="line"
         id="tspan36">22</tspan><tspan
         style="font-variant:normal;font-weight:normal;font-size:9px;font-family:'TexMaths Symbols';writing-mode:lr-tb;fill:#000000;fill-opacity:1;fill-rule:nonzero;stroke:none"
         x="87.750031 92.250031"
         y="0.05242293"
         sodipodi:role="line"
         id="tspan37">26</tspan><tspan
         style="font-variant:normal;font-weight:normal;font-size:9px;font-family:'TexMaths Symbols';writing-mode:lr-tb;fill:#000000;fill-opacity:1;fill-rule:nonzero;stroke:none"
         x="-142.11728 -139.129"
         y="0.17997722"
         sodipodi:role="line"
         id="tspan38">-7</tspan><tspan
         style="font-variant:normal;font-weight:normal;font-size:9px;font-family:'TexMaths Symbols';writing-mode:lr-tb;fill:#000000;fill-opacity:1;fill-rule:nonzero;stroke:none"
         x="-125.44551 -122.45723"
         y="0.20246895"
         sodipodi:role="line"
         id="tspan39">-6</tspan></text>
    <path
       id="path39"
       d="m 129.645,15.828 h 5.628"
       style="fill:none;stroke:#000000;stroke-width:0.749999;stroke-linecap:butt;stroke-linejoin:miter;stroke-miterlimit:4;stroke-dasharray:none;stroke-opacity:1"
       transform="scale(1.3333333)" />
    <path
       id="path40"
       d="m 131.332,15.826 c 0,0.934 -0.754,1.688 -1.687,1.688 -0.93,0 -1.688,-0.754 -1.688,-1.688 0,-0.929 0.778,-1.687 1.688,-1.687 0.933,0 1.687,0.757 1.687,1.687 z"
       style="fill:none;stroke:#000000;stroke-width:0.674999;stroke-linecap:butt;stroke-linejoin:miter;stroke-miterlimit:4;stroke-dasharray:none;stroke-opacity:1"
       transform="matrix(1.3333333,2.0151067e-5,-2.0151067e-5,1.3333333,0,0)" />
    <path
       id="path41"
       d="m 157.77,15.828 h -5.622"
       style="fill:none;stroke:#000000;stroke-width:0.749999;stroke-linecap:butt;stroke-linejoin:miter;stroke-miterlimit:4;stroke-dasharray:none;stroke-opacity:1"
       transform="scale(1.3333333)" />
    <path
       id="path42"
       d="m -156.082,-15.83 c 0,0.929 -0.758,1.687 -1.687,1.687 -0.934,0 -1.688,-0.758 -1.688,-1.688 0,-0.933 0.774,-1.687 1.688,-1.687 0.929,0 1.687,0.754 1.687,1.688 z"
       style="fill:none;stroke:#000000;stroke-width:0.674999;stroke-linecap:butt;stroke-linejoin:miter;stroke-miterlimit:4;stroke-dasharray:none;stroke-opacity:1"
       transform="matrix(-1.3333333,2.0163867e-5,-2.0163867e-5,-1.3333333,0,0)" />
    <path
       id="path43"
       d="m 174.645,15.828 c -16.875,0 -16.875,0 -16.875,0"
       style="fill:none;stroke:#000000;stroke-width:0.749999;stroke-linecap:butt;stroke-linejoin:miter;stroke-miterlimit:4;stroke-dasharray:none;stroke-opacity:1"
       transform="scale(1.3333333)" />
    <path
       id="path44"
       d="m -172.957,-15.828 c 0,0.93 -0.758,1.687 -1.688,1.687 -0.933,0 -1.687,-0.757 -1.687,-1.687 0,-0.934 0.773,-1.688 1.687,-1.688 0.93,0 1.688,0.754 1.688,1.688 z"
       style="fill:none;stroke:#000000;stroke-width:0.674999;stroke-linecap:butt;stroke-linejoin:miter;stroke-miterlimit:4;stroke-dasharray:none;stroke-opacity:1"
       transform="scale(-1.3333333)" />
    <path
       id="path45"
       d="m 191.523,15.828 c -16.875,0 -16.875,0 -16.875,0"
       style="fill:none;stroke:#000000;stroke-width:0.749999;stroke-linecap:butt;stroke-linejoin:miter;stroke-miterlimit:4;stroke-dasharray:none;stroke-opacity:1"
       transform="scale(1.3333333)" />
    <path
       id="path46"
       d="m -189.836,-15.828 c 0,0.93 -0.754,1.687 -1.687,1.687 -0.93,0 -1.688,-0.757 -1.688,-1.687 0,-0.934 0.777,-1.688 1.688,-1.688 0.933,0 1.687,0.754 1.687,1.688 z"
       style="fill:none;stroke:#000000;stroke-width:0.674999;stroke-linecap:butt;stroke-linejoin:miter;stroke-miterlimit:4;stroke-dasharray:none;stroke-opacity:1"
       transform="scale(-1.3333333)" />
    <path
       id="path47"
       d="m 135.273,15.828 h 16.875"
       style="fill:none;stroke:#000000;stroke-width:0.749999;stroke-linecap:butt;stroke-linejoin:miter;stroke-miterlimit:4;stroke-dasharray:2.25002, 2.25002;stroke-dashoffset:0;stroke-opacity:1"
       transform="scale(1.3333333)" />
    <path
       id="path48"
       d="m 191.52,15.828 h 5.628"
       style="fill:none;stroke:#000000;stroke-width:0.749999;stroke-linecap:butt;stroke-linejoin:miter;stroke-miterlimit:4;stroke-dasharray:none;stroke-opacity:1"
       transform="scale(1.3333333)" />
    <path
       id="path49"
       d="m 193.207,15.825 c 0,0.934 -0.754,1.688 -1.687,1.688 -0.93,0 -1.688,-0.754 -1.688,-1.688 0,-0.929 0.778,-1.687 1.688,-1.687 0.933,0 1.687,0.758 1.687,1.687 z"
       style="fill:none;stroke:#000000;stroke-width:0.674999;stroke-linecap:butt;stroke-linejoin:miter;stroke-miterlimit:4;stroke-dasharray:none;stroke-opacity:1"
       transform="matrix(1.3333333,2.0151067e-5,-2.0151067e-5,1.3333333,0,0)" />
    <path
       id="path50"
       d="m 219.645,15.828 h -5.622"
       style="fill:none;stroke:#000000;stroke-width:0.749999;stroke-linecap:butt;stroke-linejoin:miter;stroke-miterlimit:4;stroke-dasharray:none;stroke-opacity:1"
       transform="scale(1.3333333)" />
    <path
       id="path51"
       d="m -217.957,-15.831 c 0,0.929 -0.758,1.687 -1.687,1.687 -0.934,0 -1.688,-0.758 -1.688,-1.687 0,-0.934 0.774,-1.688 1.688,-1.688 0.929,0 1.687,0.754 1.687,1.688 z"
       style="fill:none;stroke:#000000;stroke-width:0.674999;stroke-linecap:butt;stroke-linejoin:miter;stroke-miterlimit:4;stroke-dasharray:none;stroke-opacity:1"
       transform="matrix(-1.3333333,2.0163867e-5,-2.0163867e-5,-1.3333333,0,0)" />
    <path
       id="path52"
       d="m 236.52,15.828 c -16.875,0 -16.875,0 -16.875,0"
       style="fill:none;stroke:#000000;stroke-width:0.749999;stroke-linecap:butt;stroke-linejoin:miter;stroke-miterlimit:4;stroke-dasharray:none;stroke-opacity:1"
       transform="scale(1.3333333)" />
    <path
       id="path53"
       d="m -234.832,-15.828 c 0,0.93 -0.758,1.687 -1.688,1.687 -0.933,0 -1.687,-0.757 -1.687,-1.687 0,-0.934 0.773,-1.688 1.687,-1.688 0.93,0 1.688,0.754 1.688,1.688 z"
       style="fill:none;stroke:#000000;stroke-width:0.674999;stroke-linecap:butt;stroke-linejoin:miter;stroke-miterlimit:4;stroke-dasharray:none;stroke-opacity:1"
       transform="scale(-1.3333333)" />
    <path
       id="path54"
       d="m 253.398,15.828 c -16.875,0 -16.875,0 -16.875,0"
       style="fill:none;stroke:#000000;stroke-width:0.749999;stroke-linecap:butt;stroke-linejoin:miter;stroke-miterlimit:4;stroke-dasharray:none;stroke-opacity:1"
       transform="scale(1.3333333)" />
    <path
       id="path55"
       d="m -251.711,-15.828 c 0,0.93 -0.754,1.687 -1.687,1.687 -0.93,0 -1.688,-0.757 -1.688,-1.687 0,-0.934 0.777,-1.688 1.688,-1.688 0.933,0 1.687,0.754 1.687,1.688 z"
       style="fill:none;stroke:#000000;stroke-width:0.674999;stroke-linecap:butt;stroke-linejoin:miter;stroke-miterlimit:4;stroke-dasharray:none;stroke-opacity:1"
       transform="scale(-1.3333333)" />
    <path
       id="path56"
       d="m 197.148,15.828 h 16.875"
       style="fill:none;stroke:#000000;stroke-width:0.749999;stroke-linecap:butt;stroke-linejoin:miter;stroke-miterlimit:4;stroke-dasharray:2.25002, 2.25002;stroke-dashoffset:0;stroke-opacity:1"
       transform="scale(1.3333333)" />
    <text
       id="text56"
       xml:space="preserve"
       transform="matrix(1.3333333,0,0,1.3333333,205.3687,36.105075)"><tspan
         style="font-variant:normal;font-weight:normal;font-size:9px;font-family:'TexMaths Symbols';writing-mode:lr-tb;fill:#000000;fill-opacity:1;fill-rule:nonzero;stroke:none"
         x="0 2.9882812 18.369282"
         y="0"
         sodipodi:role="line"
         id="tspan56">-10</tspan><tspan
         style="font-variant:normal;font-weight:normal;font-size:9px;font-family:'TexMaths Symbols';writing-mode:lr-tb;fill:#000000;fill-opacity:1;fill-rule:nonzero;stroke:none"
         x="34.52832"
         y="0.02257821"
         id="tspan57">1</tspan><tspan
         style="font-variant:normal;font-weight:normal;font-size:9px;font-family:'TexMaths Symbols';writing-mode:lr-tb;fill:#000000;fill-opacity:1;fill-rule:nonzero;stroke:none"
         x="63.369099"
         y="0"
         id="tspan58">6</tspan><tspan
         style="font-variant:normal;font-weight:normal;font-size:9px;font-family:'TexMaths Symbols';writing-mode:lr-tb;fill:#000000;fill-opacity:1;fill-rule:nonzero;stroke:none"
         x="80.245934"
         y="0.1275102"
         id="tspan59">7</tspan><tspan
         style="font-variant:normal;font-weight:normal;font-size:9px;font-family:'TexMaths Symbols';writing-mode:lr-tb;fill:#000000;fill-opacity:1;fill-rule:nonzero;stroke:none"
         x="-148.78462"
         y="-20.991655"
         id="tspan60">0</tspan><tspan
         style="font-variant:normal;font-weight:normal;font-size:9px;font-family:'TexMaths Symbols';writing-mode:lr-tb;fill:#000000;fill-opacity:1;fill-rule:nonzero;stroke:none"
         x="-122.25407"
         y="-20.864166"
         id="tspan61">4</tspan><tspan
         style="font-variant:normal;font-weight:normal;font-size:9px;font-family:'TexMaths Roman';writing-mode:lr-tb;fill:#000000;fill-opacity:1;fill-rule:nonzero;stroke:none"
         x="-106.18767"
         y="-20.841654"
         id="tspan62">P</tspan><tspan
         style="font-variant:normal;font-weight:normal;font-size:9px;font-family:'TexMaths Symbols';writing-mode:lr-tb;fill:#000000;fill-opacity:1;fill-rule:nonzero;stroke:none"
         x="-88.451576"
         y="-20.987892"
         id="tspan63">5</tspan></text>
    <path
       id="path63"
       d="M 95.898,15.828 H 90.273"
       style="fill:none;stroke:#000000;stroke-width:0.749999;stroke-linecap:butt;stroke-linejoin:miter;stroke-miterlimit:4;stroke-dasharray:none;stroke-opacity:1"
       transform="scale(1.3333333)" />
    <path
       id="path64"
       d="m -94.211,-15.83 c 0,0.93 -0.754,1.688 -1.687,1.688 -0.93,0 -1.688,-0.758 -1.688,-1.688 0,-0.933 0.778,-1.687 1.688,-1.687 0.933,0 1.687,0.754 1.687,1.687 z"
       style="fill:none;stroke:#000000;stroke-width:0.674999;stroke-linecap:butt;stroke-linejoin:miter;stroke-miterlimit:4;stroke-dasharray:none;stroke-opacity:1"
       transform="matrix(-1.3333333,2.0157467e-5,-2.0157467e-5,-1.3333333,0,0)" />
    <text
       id="text64"
       xml:space="preserve"
       transform="matrix(1.3333333,0,0,1.3333333,121.86209,8.2861347)"><tspan
         style="font-variant:normal;font-weight:normal;font-size:9px;font-family:'TexMaths Symbols';writing-mode:lr-tb;fill:#000000;fill-opacity:1;fill-rule:nonzero;stroke:none"
         x="0 4.5"
         y="0"
         sodipodi:role="line"
         id="tspan64">17</tspan><tspan
         style="font-variant:normal;font-weight:normal;font-size:9px;font-family:'TexMaths Roman';writing-mode:lr-tb;fill:#000000;fill-opacity:1;fill-rule:nonzero;stroke:none"
         x="18.316404"
         y="0.02249172"
         id="tspan65">P</tspan><tspan
         style="font-variant:normal;font-weight:normal;font-size:9px;font-family:'TexMaths Symbols';writing-mode:lr-tb;fill:#000000;fill-opacity:1;fill-rule:nonzero;stroke:none"
         x="33.802479 38.302479"
         y="-0.12374748"
         sodipodi:role="line"
         id="tspan66">18</tspan></text>
    <path
       id="path66"
       d="m 191.52,15.828 h 5.625"
       style="fill:none;stroke:#000000;stroke-width:0.749999;stroke-linecap:butt;stroke-linejoin:miter;stroke-miterlimit:4;stroke-dasharray:none;stroke-opacity:1"
       transform="scale(1.3333333)" />
    <path
       id="path67"
       d="m 193.207,15.825 c 0,0.934 -0.754,1.688 -1.687,1.688 -0.93,0 -1.688,-0.754 -1.688,-1.688 0,-0.929 0.778,-1.687 1.688,-1.687 0.933,0 1.687,0.758 1.687,1.687 z"
       style="fill:none;stroke:#000000;stroke-width:0.674999;stroke-linecap:butt;stroke-linejoin:miter;stroke-miterlimit:4;stroke-dasharray:none;stroke-opacity:1"
       transform="matrix(1.3333333,2.0157467e-5,-2.0157467e-5,1.3333333,0,0)" />
    <text
       id="text67"
       xml:space="preserve"
       transform="matrix(1.3333333,0,0,1.3333333,204.36083,8.28602)"><tspan
         style="font-variant:normal;font-weight:normal;font-size:9px;font-family:'TexMaths Symbols';writing-mode:lr-tb;fill:#000000;fill-opacity:1;fill-rule:nonzero;stroke:none"
         x="0 4.5"
         y="0"
         sodipodi:role="line"
         id="tspan67">23</tspan><tspan
         style="font-variant:normal;font-weight:normal;font-size:9px;font-family:'TexMaths Roman';writing-mode:lr-tb;fill:#000000;fill-opacity:1;fill-rule:nonzero;stroke:none"
         x="18"
         y="0.02249172"
         id="tspan68">N</tspan><tspan
         style="font-variant:normal;font-weight:normal;font-size:9px;font-family:'TexMaths Symbols';writing-mode:lr-tb;fill:#000000;fill-opacity:1;fill-rule:nonzero;stroke:none"
         x="33.802532 38.302532"
         y="-0.12370428"
         sodipodi:role="line"
         id="tspan69">24</tspan></text>
    <path
       id="path69"
       d="m 253.398,15.828 h 5.625"
       style="fill:none;stroke:#000000;stroke-width:0.749999;stroke-linecap:butt;stroke-linejoin:miter;stroke-miterlimit:4;stroke-dasharray:none;stroke-opacity:1"
       transform="scale(1.3333333)" />
    <path
       id="path70"
       d="m 255.086,15.824 c 0,0.934 -0.758,1.688 -1.687,1.688 -0.934,0 -1.688,-0.754 -1.688,-1.688 0,-0.929 0.774,-1.687 1.688,-1.687 0.929,0 1.687,0.758 1.687,1.687 z"
       style="fill:none;stroke:#000000;stroke-width:0.674999;stroke-linecap:butt;stroke-linejoin:miter;stroke-miterlimit:4;stroke-dasharray:none;stroke-opacity:1"
       transform="matrix(1.3333333,2.0157467e-5,-2.0157467e-5,1.3333333,0,0)" />
    <text
       id="text70"
       xml:space="preserve"
       transform="matrix(1.3333333,0,0,1.3333333,286.86323,8.2861347)"><tspan
         style="font-variant:normal;font-weight:normal;font-size:9px;font-family:'TexMaths Symbols';writing-mode:lr-tb;fill:#000000;fill-opacity:1;fill-rule:nonzero;stroke:none"
         x="0 4.5"
         y="0"
         sodipodi:role="line"
         id="tspan70">29</tspan><tspan
         style="font-variant:normal;font-weight:normal;font-size:9px;font-family:'TexMaths Roman';writing-mode:lr-tb;fill:#000000;fill-opacity:1;fill-rule:nonzero;stroke:none"
         x="18.316404"
         y="0.02249172"
         id="tspan71">P</tspan><tspan
         style="font-variant:normal;font-weight:normal;font-size:9px;font-family:'TexMaths Symbols';writing-mode:lr-tb;fill:#000000;fill-opacity:1;fill-rule:nonzero;stroke:none"
         x="33.802486 38.302486"
         y="-0.12374748"
         sodipodi:role="line"
         id="tspan72">30</tspan></text>
    <path
       id="path72"
       d="m 315.273,15.828 h 5.625"
       style="fill:none;stroke:#000000;stroke-width:0.749999;stroke-linecap:butt;stroke-linejoin:miter;stroke-miterlimit:4;stroke-dasharray:none;stroke-opacity:1"
       transform="scale(1.3333333)" />
    <path
       id="path73"
       d="m 316.961,15.823 c 0,0.934 -0.754,1.688 -1.687,1.688 -0.93,0 -1.688,-0.754 -1.688,-1.688 0,-0.929 0.777,-1.687 1.688,-1.687 0.933,0 1.687,0.758 1.687,1.687 z"
       style="fill:none;stroke:#000000;stroke-width:0.674999;stroke-linecap:butt;stroke-linejoin:miter;stroke-miterlimit:4;stroke-dasharray:none;stroke-opacity:1"
       transform="matrix(1.3333333,2.0157467e-5,-2.0157467e-5,1.3333333,0,0)" />
    <text
       id="text73"
       xml:space="preserve"
       transform="matrix(1.3333333,0,0,1.3333333,369.36571,8.28602)"><tspan
         style="font-variant:normal;font-weight:normal;font-size:9px;font-family:'TexMaths Symbols';writing-mode:lr-tb;fill:#000000;fill-opacity:1;fill-rule:nonzero;stroke:none"
         x="0 4.5"
         y="0"
         sodipodi:role="line"
         id="tspan73">42</tspan><tspan
         style="font-variant:normal;font-weight:normal;font-size:9px;font-family:'TexMaths Roman';writing-mode:lr-tb;fill:#000000;fill-opacity:1;fill-rule:nonzero;stroke:none"
         x="18.316404"
         y="0.02249172"
         id="tspan74">P</tspan><tspan
         style="font-variant:normal;font-weight:normal;font-size:9px;font-family:'TexMaths Symbols';writing-mode:lr-tb;fill:#000000;fill-opacity:1;fill-rule:nonzero;stroke:none"
         x="33.802532 38.302532"
         y="-0.12370428"
         sodipodi:role="line"
         id="tspan75">43</tspan></text>
    <path
       id="path75"
       d="m 343.398,15.828 h -5.625"
       style="fill:none;stroke:#000000;stroke-width:0.749999;stroke-linecap:butt;stroke-linejoin:miter;stroke-miterlimit:4;stroke-dasharray:none;stroke-opacity:1"
       transform="scale(1.3333333)" />
    <path
       id="path76"
       d="m -341.711,-15.833 c 0,0.929 -0.754,1.687 -1.687,1.687 -0.93,0 -1.688,-0.758 -1.688,-1.687 0,-0.934 0.778,-1.688 1.688,-1.688 0.933,0 1.687,0.754 1.687,1.688 z"
       style="fill:none;stroke:#000000;stroke-width:0.674999;stroke-linecap:butt;stroke-linejoin:miter;stroke-miterlimit:4;stroke-dasharray:none;stroke-opacity:1"
       transform="matrix(-1.3333333,2.0157467e-5,-2.0157467e-5,-1.3333333,0,0)" />
    <text
       id="text76"
       xml:space="preserve"
       transform="matrix(1.3333333,0,0,1.3333333,451.86337,8.28602)"><tspan
         style="font-variant:normal;font-weight:normal;font-size:9px;font-family:'TexMaths Symbols';writing-mode:lr-tb;fill:#000000;fill-opacity:1;fill-rule:nonzero;stroke:none"
         x="0 4.5"
         y="0"
         sodipodi:role="line"
         id="tspan76">47</tspan></text>
    <text
       xml:space="preserve"
       style="font-size:13.3333px;line-height:0.9;font-family:'TexMaths Symbols';-inkscape-font-specification:'TexMaths Symbols, Normal';text-align:center;text-anchor:middle;fill:#e6e6e6;fill-rule:evenodd;stroke:#ffdd55;stroke-width:0.999999"
       x="-92.369087"
       y="11.056555"
       id="text77"><tspan
         sodipodi:role="line"
         id="tspan77"
         x="-92.369087"
         y="11.056555"
         style="font-style:normal;font-variant:normal;font-weight:normal;font-stretch:normal;font-size:13.3333px;line-height:0.9;font-family:'TexMaths Roman';-inkscape-font-specification:'TexMaths Roman, Normal';font-variant-ligatures:normal;font-variant-caps:normal;font-variant-numeric:normal;font-variant-east-asian:normal;text-align:start;text-anchor:start;fill:#000000;stroke:none">Índice dato:</tspan><tspan
         sodipodi:role="line"
         x="-92.369087"
         y="23.056524"
         style="font-style:normal;font-variant:normal;font-weight:normal;font-stretch:normal;font-size:13.3333px;line-height:0.9;font-family:'TexMaths Roman';-inkscape-font-specification:'TexMaths Roman, Normal';font-variant-ligatures:normal;font-variant-caps:normal;font-variant-numeric:normal;font-variant-east-asian:normal;text-align:start;text-anchor:start;fill:#000000;stroke:none"
         id="tspan78" /><tspan
         sodipodi:role="line"
         x="-92.369087"
         y="35.056492"
         style="font-style:normal;font-variant:normal;font-weight:normal;font-stretch:normal;font-size:13.3333px;line-height:0.9;font-family:'TexMaths Roman';-inkscape-font-specification:'TexMaths Roman, Normal';font-variant-ligatures:normal;font-variant-caps:normal;font-variant-numeric:normal;font-variant-east-asian:normal;text-align:start;text-anchor:start;fill:#000000;stroke:none"
         id="tspan79">Subportadora:</tspan></text>
    <path
       style="fill:#000000;fill-rule:evenodd;stroke:none;stroke-width:0.999999"
       d="M 463.00853,39.559189 V -5.4408121"
       id="path79" />
  </g>
</svg>
