<?xml version="1.0" encoding="utf-8" standalone="no"?>
<!DOCTYPE svg PUBLIC "-//W3C//DTD SVG 1.1//EN"
  "http://www.w3.org/Graphics/SVG/1.1/DTD/svg11.dtd">
<svg xmlns:xlink="http://www.w3.org/1999/xlink" width="432pt" height="216pt" viewBox="0 0 432 216" xmlns="http://www.w3.org/2000/svg" version="1.1">
 <metadata>
  <rdf:RDF xmlns:dc="http://purl.org/dc/elements/1.1/" xmlns:cc="http://creativecommons.org/ns#" xmlns:rdf="http://www.w3.org/1999/02/22-rdf-syntax-ns#">
   <cc:Work>
    <dc:type rdf:resource="http://purl.org/dc/dcmitype/StillImage"/>
    <dc:date>2024-03-20T16:05:23.041205</dc:date>
    <dc:format>image/svg+xml</dc:format>
    <dc:creator>
     <cc:Agent>
      <dc:title>Matplotlib v3.7.1, https://matplotlib.org/</dc:title>
     </cc:Agent>
    </dc:creator>
   </cc:Work>
  </rdf:RDF>
 </metadata>
 <defs>
  <style type="text/css">*{stroke-linejoin: round; stroke-linecap: butt}</style>
 </defs>
 <g id="figure_1">
  <g id="patch_1">
   <path d="M 0 216 
L 432 216 
L 432 0 
L 0 0 
z
" style="fill: #ffffff"/>
  </g>
  <g id="axes_1">
   <g id="patch_2">
    <path d="M 37.423754 182.625354 
L 419.387322 182.625354 
L 419.387322 18.914646 
L 37.423754 18.914646 
z
" style="fill: #ffffff"/>
   </g>
   <g id="matplotlib.axis_1">
    <g id="xtick_1">
     <g id="line2d_1">
      <path d="M 37.423754 182.625354 
L 37.423754 18.914646 
" clip-path="url(#p9d6cc3549e)" style="fill: none; stroke: #222255; stroke-opacity: 0.1; stroke-width: 0.5; stroke-linecap: square"/>
     </g>
     <g id="line2d_2">
      <defs>
       <path id="m87834c8c95" d="M 0 0 
L 0 -2.5 
" style="stroke: #222255; stroke-opacity: 0.1; stroke-width: 0.5"/>
      </defs>
      <g>
       <use xlink:href="#m87834c8c95" x="37.423754" y="182.625354" style="fill: #222255; fill-opacity: 0.1; stroke: #222255; stroke-opacity: 0.1; stroke-width: 0.5"/>
      </g>
     </g>
     <g id="text_1">
      <!-- $10^{-12}$ -->
      <g transform="translate(26.263754 192.204104) scale(0.08 -0.08)">
       <defs>
        <path id="DejaVuSerif-31" d="M 909 0 
L 909 331 
L 1722 331 
L 1722 4213 
L 781 3603 
L 781 4013 
L 1919 4750 
L 2350 4750 
L 2350 331 
L 3163 331 
L 3163 0 
L 909 0 
z
" transform="scale(0.015625)"/>
        <path id="DejaVuSerif-30" d="M 2034 219 
Q 2513 219 2750 744 
Q 2988 1269 2988 2328 
Q 2988 3391 2750 3916 
Q 2513 4441 2034 4441 
Q 1556 4441 1318 3916 
Q 1081 3391 1081 2328 
Q 1081 1269 1318 744 
Q 1556 219 2034 219 
z
M 2034 -91 
Q 1275 -91 848 546 
Q 422 1184 422 2328 
Q 422 3475 848 4112 
Q 1275 4750 2034 4750 
Q 2797 4750 3222 4112 
Q 3647 3475 3647 2328 
Q 3647 1184 3222 546 
Q 2797 -91 2034 -91 
z
" transform="scale(0.015625)"/>
        <path id="DejaVuSerif-2212" d="M 678 2259 
L 4684 2259 
L 4684 1753 
L 678 1753 
L 678 2259 
z
" transform="scale(0.015625)"/>
        <path id="DejaVuSerif-32" d="M 819 3553 
L 469 3553 
L 469 4384 
Q 803 4563 1142 4656 
Q 1481 4750 1806 4750 
Q 2534 4750 2956 4397 
Q 3378 4044 3378 3438 
Q 3378 2753 2422 1800 
Q 2347 1728 2309 1691 
L 1131 513 
L 3078 513 
L 3078 1088 
L 3444 1088 
L 3444 0 
L 434 0 
L 434 341 
L 1850 1753 
Q 2319 2222 2519 2614 
Q 2719 3006 2719 3438 
Q 2719 3909 2473 4175 
Q 2228 4441 1797 4441 
Q 1350 4441 1106 4219 
Q 863 3997 819 3553 
z
" transform="scale(0.015625)"/>
       </defs>
       <use xlink:href="#DejaVuSerif-31" transform="translate(0 0.7125)"/>
       <use xlink:href="#DejaVuSerif-30" transform="translate(63.623047 0.7125)"/>
       <use xlink:href="#DejaVuSerif-2212" transform="translate(128.154453 37.046875) scale(0.7)"/>
       <use xlink:href="#DejaVuSerif-31" transform="translate(186.806797 37.046875) scale(0.7)"/>
       <use xlink:href="#DejaVuSerif-32" transform="translate(231.34293 37.046875) scale(0.7)"/>
      </g>
     </g>
    </g>
    <g id="xtick_2">
     <g id="line2d_3">
      <path d="M 164.744944 182.625354 
L 164.744944 18.914646 
" clip-path="url(#p9d6cc3549e)" style="fill: none; stroke: #222255; stroke-opacity: 0.1; stroke-width: 0.5; stroke-linecap: square"/>
     </g>
     <g id="line2d_4">
      <g>
       <use xlink:href="#m87834c8c95" x="164.744944" y="182.625354" style="fill: #222255; fill-opacity: 0.1; stroke: #222255; stroke-opacity: 0.1; stroke-width: 0.5"/>
      </g>
     </g>
     <g id="text_2">
      <!-- $10^{-9}$ -->
      <g transform="translate(155.384944 192.204104) scale(0.08 -0.08)">
       <defs>
        <path id="DejaVuSerif-39" d="M 2994 2091 
Q 2784 1856 2512 1740 
Q 2241 1625 1900 1625 
Q 1206 1625 804 2044 
Q 403 2463 403 3188 
Q 403 3897 839 4323 
Q 1275 4750 2003 4750 
Q 2794 4750 3217 4161 
Q 3641 3572 3641 2478 
Q 3641 1253 3137 581 
Q 2634 -91 1722 -91 
Q 1475 -91 1203 -44 
Q 931 3 647 97 
L 647 872 
L 997 872 
Q 1038 556 1241 387 
Q 1444 219 1784 219 
Q 2391 219 2687 676 
Q 2984 1134 2994 2091 
z
M 1978 4441 
Q 1534 4441 1298 4117 
Q 1063 3794 1063 3188 
Q 1063 2581 1298 2256 
Q 1534 1931 1978 1931 
Q 2422 1931 2658 2245 
Q 2894 2559 2894 3150 
Q 2894 3772 2656 4106 
Q 2419 4441 1978 4441 
z
" transform="scale(0.015625)"/>
       </defs>
       <use xlink:href="#DejaVuSerif-31" transform="translate(0 0.7125)"/>
       <use xlink:href="#DejaVuSerif-30" transform="translate(63.623047 0.7125)"/>
       <use xlink:href="#DejaVuSerif-2212" transform="translate(128.154453 37.046875) scale(0.7)"/>
       <use xlink:href="#DejaVuSerif-39" transform="translate(186.806797 37.046875) scale(0.7)"/>
      </g>
     </g>
    </g>
    <g id="xtick_3">
     <g id="line2d_5">
      <path d="M 292.066133 182.625354 
L 292.066133 18.914646 
" clip-path="url(#p9d6cc3549e)" style="fill: none; stroke: #222255; stroke-opacity: 0.1; stroke-width: 0.5; stroke-linecap: square"/>
     </g>
     <g id="line2d_6">
      <g>
       <use xlink:href="#m87834c8c95" x="292.066133" y="182.625354" style="fill: #222255; fill-opacity: 0.1; stroke: #222255; stroke-opacity: 0.1; stroke-width: 0.5"/>
      </g>
     </g>
     <g id="text_3">
      <!-- $10^{-6}$ -->
      <g transform="translate(282.706133 192.204104) scale(0.08 -0.08)">
       <defs>
        <path id="DejaVuSerif-36" d="M 2094 219 
Q 2534 219 2771 542 
Q 3009 866 3009 1472 
Q 3009 2078 2771 2401 
Q 2534 2725 2094 2725 
Q 1647 2725 1412 2412 
Q 1178 2100 1178 1509 
Q 1178 888 1415 553 
Q 1653 219 2094 219 
z
M 1075 2569 
Q 1288 2803 1556 2918 
Q 1825 3034 2163 3034 
Q 2859 3034 3264 2615 
Q 3669 2197 3669 1472 
Q 3669 763 3233 336 
Q 2797 -91 2069 -91 
Q 1278 -91 853 498 
Q 428 1088 428 2181 
Q 428 3406 931 4078 
Q 1434 4750 2350 4750 
Q 2597 4750 2869 4703 
Q 3141 4656 3425 4563 
L 3425 3794 
L 3072 3794 
Q 3034 4109 2831 4275 
Q 2628 4441 2284 4441 
Q 1678 4441 1381 3981 
Q 1084 3522 1075 2569 
z
" transform="scale(0.015625)"/>
       </defs>
       <use xlink:href="#DejaVuSerif-31" transform="translate(0 0.7125)"/>
       <use xlink:href="#DejaVuSerif-30" transform="translate(63.623047 0.7125)"/>
       <use xlink:href="#DejaVuSerif-2212" transform="translate(128.154453 37.046875) scale(0.7)"/>
       <use xlink:href="#DejaVuSerif-36" transform="translate(186.806797 37.046875) scale(0.7)"/>
      </g>
     </g>
    </g>
    <g id="xtick_4">
     <g id="line2d_7">
      <path d="M 419.387322 182.625354 
L 419.387322 18.914646 
" clip-path="url(#p9d6cc3549e)" style="fill: none; stroke: #222255; stroke-opacity: 0.1; stroke-width: 0.5; stroke-linecap: square"/>
     </g>
     <g id="line2d_8">
      <g>
       <use xlink:href="#m87834c8c95" x="419.387322" y="182.625354" style="fill: #222255; fill-opacity: 0.1; stroke: #222255; stroke-opacity: 0.1; stroke-width: 0.5"/>
      </g>
     </g>
     <g id="text_4">
      <!-- $10^{-3}$ -->
      <g transform="translate(410.027322 192.204104) scale(0.08 -0.08)">
       <defs>
        <path id="DejaVuSerif-33" d="M 622 4469 
Q 988 4606 1323 4678 
Q 1659 4750 1953 4750 
Q 2638 4750 3022 4454 
Q 3406 4159 3406 3634 
Q 3406 3213 3140 2930 
Q 2875 2647 2388 2547 
Q 2963 2466 3280 2130 
Q 3597 1794 3597 1259 
Q 3597 606 3158 257 
Q 2719 -91 1894 -91 
Q 1528 -91 1179 -12 
Q 831 66 488 225 
L 488 1131 
L 838 1131 
Q 869 681 1141 450 
Q 1413 219 1906 219 
Q 2384 219 2661 495 
Q 2938 772 2938 1253 
Q 2938 1803 2653 2086 
Q 2369 2369 1819 2369 
L 1522 2369 
L 1522 2688 
L 1678 2688 
Q 2225 2688 2498 2914 
Q 2772 3141 2772 3597 
Q 2772 4006 2547 4223 
Q 2322 4441 1900 4441 
Q 1478 4441 1245 4241 
Q 1013 4041 972 3647 
L 622 3647 
L 622 4469 
z
" transform="scale(0.015625)"/>
       </defs>
       <use xlink:href="#DejaVuSerif-31" transform="translate(0 0.7125)"/>
       <use xlink:href="#DejaVuSerif-30" transform="translate(63.623047 0.7125)"/>
       <use xlink:href="#DejaVuSerif-2212" transform="translate(128.154453 37.046875) scale(0.7)"/>
       <use xlink:href="#DejaVuSerif-33" transform="translate(186.806797 37.046875) scale(0.7)"/>
      </g>
     </g>
    </g>
    <g id="xtick_5">
     <g id="line2d_9">
      <path d="M 79.864151 182.625354 
L 79.864151 18.914646 
" clip-path="url(#p9d6cc3549e)" style="fill: none; stroke: #222255; stroke-opacity: 0.05; stroke-width: 0.5; stroke-linecap: square"/>
     </g>
     <g id="line2d_10">
      <defs>
       <path id="m76634afaeb" d="M 0 0 
L 0 -0.5 
" style="stroke: #222255; stroke-opacity: 0.1; stroke-width: 0.6"/>
      </defs>
      <g>
       <use xlink:href="#m76634afaeb" x="79.864151" y="182.625354" style="fill: #222255; fill-opacity: 0.1; stroke: #222255; stroke-opacity: 0.1; stroke-width: 0.6"/>
      </g>
     </g>
    </g>
    <g id="xtick_6">
     <g id="line2d_11">
      <path d="M 122.304547 182.625354 
L 122.304547 18.914646 
" clip-path="url(#p9d6cc3549e)" style="fill: none; stroke: #222255; stroke-opacity: 0.05; stroke-width: 0.5; stroke-linecap: square"/>
     </g>
     <g id="line2d_12">
      <g>
       <use xlink:href="#m76634afaeb" x="122.304547" y="182.625354" style="fill: #222255; fill-opacity: 0.1; stroke: #222255; stroke-opacity: 0.1; stroke-width: 0.6"/>
      </g>
     </g>
    </g>
    <g id="xtick_7">
     <g id="line2d_13">
      <path d="M 207.18534 182.625354 
L 207.18534 18.914646 
" clip-path="url(#p9d6cc3549e)" style="fill: none; stroke: #222255; stroke-opacity: 0.05; stroke-width: 0.5; stroke-linecap: square"/>
     </g>
     <g id="line2d_14">
      <g>
       <use xlink:href="#m76634afaeb" x="207.18534" y="182.625354" style="fill: #222255; fill-opacity: 0.1; stroke: #222255; stroke-opacity: 0.1; stroke-width: 0.6"/>
      </g>
     </g>
    </g>
    <g id="xtick_8">
     <g id="line2d_15">
      <path d="M 249.625736 182.625354 
L 249.625736 18.914646 
" clip-path="url(#p9d6cc3549e)" style="fill: none; stroke: #222255; stroke-opacity: 0.05; stroke-width: 0.5; stroke-linecap: square"/>
     </g>
     <g id="line2d_16">
      <g>
       <use xlink:href="#m76634afaeb" x="249.625736" y="182.625354" style="fill: #222255; fill-opacity: 0.1; stroke: #222255; stroke-opacity: 0.1; stroke-width: 0.6"/>
      </g>
     </g>
    </g>
    <g id="xtick_9">
     <g id="line2d_17">
      <path d="M 334.506529 182.625354 
L 334.506529 18.914646 
" clip-path="url(#p9d6cc3549e)" style="fill: none; stroke: #222255; stroke-opacity: 0.05; stroke-width: 0.5; stroke-linecap: square"/>
     </g>
     <g id="line2d_18">
      <g>
       <use xlink:href="#m76634afaeb" x="334.506529" y="182.625354" style="fill: #222255; fill-opacity: 0.1; stroke: #222255; stroke-opacity: 0.1; stroke-width: 0.6"/>
      </g>
     </g>
    </g>
    <g id="xtick_10">
     <g id="line2d_19">
      <path d="M 376.946926 182.625354 
L 376.946926 18.914646 
" clip-path="url(#p9d6cc3549e)" style="fill: none; stroke: #222255; stroke-opacity: 0.05; stroke-width: 0.5; stroke-linecap: square"/>
     </g>
     <g id="line2d_20">
      <g>
       <use xlink:href="#m76634afaeb" x="376.946926" y="182.625354" style="fill: #222255; fill-opacity: 0.1; stroke: #222255; stroke-opacity: 0.1; stroke-width: 0.6"/>
      </g>
     </g>
    </g>
    <g id="text_5">
     <!-- $P_{FA}$ -->
     <g transform="translate(219.055538 206.226136) scale(0.11 -0.11)">
      <defs>
       <path id="DejaVuSerif-Italic-50" d="M 1594 2375 
L 2419 2375 
Q 2884 2375 3176 2626 
Q 3469 2878 3559 3353 
Q 3653 3831 3458 4081 
Q 3263 4331 2797 4331 
L 1972 4331 
L 1594 2375 
z
M -97 0 
L -34 331 
L 559 331 
L 1338 4331 
L 744 4331 
L 809 4666 
L 3016 4666 
Q 3716 4666 4056 4311 
Q 4397 3956 4278 3353 
Q 4163 2753 3684 2397 
Q 3206 2041 2506 2041 
L 1528 2041 
L 1194 331 
L 1916 331 
L 1853 0 
L -97 0 
z
" transform="scale(0.015625)"/>
       <path id="DejaVuSerif-Italic-46" d="M -97 0 
L -34 331 
L 559 331 
L 1338 4331 
L 744 4331 
L 809 4666 
L 4628 4666 
L 4428 3628 
L 4044 3628 
L 4169 4281 
L 1963 4281 
L 1659 2719 
L 3253 2719 
L 3366 3303 
L 3750 3303 
L 3450 1753 
L 3066 1753 
L 3178 2338 
L 1584 2338 
L 1194 331 
L 1941 331 
L 1878 0 
L -97 0 
z
" transform="scale(0.015625)"/>
       <path id="DejaVuSerif-Italic-41" d="M 1159 1691 
L 2872 1691 
L 2447 3909 
L 1159 1691 
z
M -488 0 
L -425 331 
L -16 331 
L 2491 4666 
L 3016 4666 
L 3841 331 
L 4297 331 
L 4234 0 
L 2538 0 
L 2600 331 
L 3119 331 
L 2928 1356 
L 966 1356 
L 375 331 
L 888 331 
L 825 0 
L -488 0 
z
" transform="scale(0.015625)"/>
      </defs>
      <use xlink:href="#DejaVuSerif-Italic-50" transform="translate(0 0.09375)"/>
      <use xlink:href="#DejaVuSerif-Italic-46" transform="translate(67.285156 -15.478125) scale(0.7)"/>
      <use xlink:href="#DejaVuSerif-Italic-41" transform="translate(115.854492 -15.478125) scale(0.7)"/>
     </g>
    </g>
   </g>
   <g id="matplotlib.axis_2">
    <g id="ytick_1">
     <g id="line2d_21">
      <path d="M 37.423754 182.625354 
L 419.387322 182.625354 
" clip-path="url(#p9d6cc3549e)" style="fill: none; stroke: #222255; stroke-opacity: 0.1; stroke-width: 0.5; stroke-linecap: square"/>
     </g>
     <g id="line2d_22">
      <defs>
       <path id="m8b292c9478" d="M 0 0 
L 2.5 0 
" style="stroke: #222255; stroke-opacity: 0.1; stroke-width: 0.5"/>
      </defs>
      <g>
       <use xlink:href="#m8b292c9478" x="37.423754" y="182.625354" style="fill: #222255; fill-opacity: 0.1; stroke: #222255; stroke-opacity: 0.1; stroke-width: 0.5"/>
      </g>
     </g>
     <g id="text_6">
      <!-- $2^{-4}$ -->
      <g transform="translate(20.243754 185.664729) scale(0.08 -0.08)">
       <defs>
        <path id="DejaVuSerif-34" d="M 2234 1581 
L 2234 4063 
L 641 1581 
L 2234 1581 
z
M 3609 0 
L 1484 0 
L 1484 331 
L 2234 331 
L 2234 1247 
L 197 1247 
L 197 1588 
L 2241 4750 
L 2859 4750 
L 2859 1581 
L 3750 1581 
L 3750 1247 
L 2859 1247 
L 2859 331 
L 3609 331 
L 3609 0 
z
" transform="scale(0.015625)"/>
       </defs>
       <use xlink:href="#DejaVuSerif-32" transform="translate(0 0.7125)"/>
       <use xlink:href="#DejaVuSerif-2212" transform="translate(64.531406 37.046875) scale(0.7)"/>
       <use xlink:href="#DejaVuSerif-34" transform="translate(123.18375 37.046875) scale(0.7)"/>
      </g>
     </g>
    </g>
    <g id="ytick_2">
     <g id="line2d_23">
      <path d="M 37.423754 142.573441 
L 419.387322 142.573441 
" clip-path="url(#p9d6cc3549e)" style="fill: none; stroke: #222255; stroke-opacity: 0.1; stroke-width: 0.5; stroke-linecap: square"/>
     </g>
     <g id="line2d_24">
      <g>
       <use xlink:href="#m8b292c9478" x="37.423754" y="142.573441" style="fill: #222255; fill-opacity: 0.1; stroke: #222255; stroke-opacity: 0.1; stroke-width: 0.5"/>
      </g>
     </g>
     <g id="text_7">
      <!-- $2^{-3}$ -->
      <g transform="translate(20.243754 145.612816) scale(0.08 -0.08)">
       <use xlink:href="#DejaVuSerif-32" transform="translate(0 0.7125)"/>
       <use xlink:href="#DejaVuSerif-2212" transform="translate(64.531406 37.046875) scale(0.7)"/>
       <use xlink:href="#DejaVuSerif-33" transform="translate(123.18375 37.046875) scale(0.7)"/>
      </g>
     </g>
    </g>
    <g id="ytick_3">
     <g id="line2d_25">
      <path d="M 37.423754 102.521527 
L 419.387322 102.521527 
" clip-path="url(#p9d6cc3549e)" style="fill: none; stroke: #222255; stroke-opacity: 0.1; stroke-width: 0.5; stroke-linecap: square"/>
     </g>
     <g id="line2d_26">
      <g>
       <use xlink:href="#m8b292c9478" x="37.423754" y="102.521527" style="fill: #222255; fill-opacity: 0.1; stroke: #222255; stroke-opacity: 0.1; stroke-width: 0.5"/>
      </g>
     </g>
     <g id="text_8">
      <!-- $2^{-2}$ -->
      <g transform="translate(20.243754 105.560902) scale(0.08 -0.08)">
       <use xlink:href="#DejaVuSerif-32" transform="translate(0 0.7125)"/>
       <use xlink:href="#DejaVuSerif-2212" transform="translate(64.531406 37.046875) scale(0.7)"/>
       <use xlink:href="#DejaVuSerif-32" transform="translate(123.18375 37.046875) scale(0.7)"/>
      </g>
     </g>
    </g>
    <g id="ytick_4">
     <g id="line2d_27">
      <path d="M 37.423754 62.469613 
L 419.387322 62.469613 
" clip-path="url(#p9d6cc3549e)" style="fill: none; stroke: #222255; stroke-opacity: 0.1; stroke-width: 0.5; stroke-linecap: square"/>
     </g>
     <g id="line2d_28">
      <g>
       <use xlink:href="#m8b292c9478" x="37.423754" y="62.469613" style="fill: #222255; fill-opacity: 0.1; stroke: #222255; stroke-opacity: 0.1; stroke-width: 0.5"/>
      </g>
     </g>
     <g id="text_9">
      <!-- $2^{-1}$ -->
      <g transform="translate(20.243754 65.508988) scale(0.08 -0.08)">
       <use xlink:href="#DejaVuSerif-32" transform="translate(0 0.7125)"/>
       <use xlink:href="#DejaVuSerif-2212" transform="translate(64.531406 37.046875) scale(0.7)"/>
       <use xlink:href="#DejaVuSerif-31" transform="translate(123.18375 37.046875) scale(0.7)"/>
      </g>
     </g>
    </g>
    <g id="ytick_5">
     <g id="line2d_29">
      <path d="M 37.423754 22.4177 
L 419.387322 22.4177 
" clip-path="url(#p9d6cc3549e)" style="fill: none; stroke: #222255; stroke-opacity: 0.1; stroke-width: 0.5; stroke-linecap: square"/>
     </g>
     <g id="line2d_30">
      <g>
       <use xlink:href="#m8b292c9478" x="37.423754" y="22.4177" style="fill: #222255; fill-opacity: 0.1; stroke: #222255; stroke-opacity: 0.1; stroke-width: 0.5"/>
      </g>
     </g>
     <g id="text_10">
      <!-- $2^{0}$ -->
      <g transform="translate(24.963754 25.457075) scale(0.08 -0.08)">
       <use xlink:href="#DejaVuSerif-32" transform="translate(0 0.7125)"/>
       <use xlink:href="#DejaVuSerif-30" transform="translate(64.531406 37.046875) scale(0.7)"/>
      </g>
     </g>
    </g>
    <g id="text_11">
     <!-- $P_D$ -->
     <g transform="translate(13.956098 107.755) rotate(-90) scale(0.11 -0.11)">
      <defs>
       <path id="DejaVuSerif-Italic-44" d="M 1194 331 
L 1775 331 
Q 2684 331 3271 850 
Q 3859 1369 4048 2337 
Q 4238 3306 3852 3818 
Q 3466 4331 2553 4331 
L 1972 4331 
L 1194 331 
z
M -97 0 
L -34 331 
L 559 331 
L 1338 4331 
L 744 4331 
L 809 4666 
L 2666 4666 
Q 3872 4666 4426 4050 
Q 4981 3434 4766 2338 
Q 4553 1238 3758 619 
Q 2963 0 1759 0 
L -97 0 
z
" transform="scale(0.015625)"/>
      </defs>
      <use xlink:href="#DejaVuSerif-Italic-50" transform="translate(0 0.09375)"/>
      <use xlink:href="#DejaVuSerif-Italic-44" transform="translate(67.285156 -15.478125) scale(0.7)"/>
     </g>
    </g>
   </g>
   <g id="line2d_31">
    <path d="M 37.423754 22.4177 
L 41.667794 22.4177 
L 45.911834 22.4177 
L 50.155873 22.4177 
L 54.399913 22.4177 
L 58.643953 22.4177 
L 62.887992 22.4177 
L 67.132032 22.4177 
L 71.376072 22.4177 
L 75.620111 22.4177 
L 79.864151 22.4177 
L 84.10819 22.4177 
L 88.35223 22.4177 
L 92.59627 22.4177 
L 96.840309 22.4177 
L 101.084349 22.4177 
L 105.328389 22.4177 
L 109.572428 22.4177 
L 113.816468 22.4177 
L 118.060508 22.4177 
L 122.304547 22.4177 
L 126.548587 22.4177 
L 130.792627 22.4177 
L 135.036666 22.4177 
L 139.280706 22.4177 
L 143.524745 22.4177 
L 147.768785 22.4177 
L 152.012825 22.4177 
L 156.256864 22.4177 
L 160.500904 22.4177 
L 164.744944 22.4177 
L 168.988983 22.4177 
L 173.233023 22.4177 
L 177.477063 22.4177 
L 181.721102 22.4177 
L 185.965142 22.4177 
L 190.209181 22.4177 
L 194.453221 22.4177 
L 198.697261 22.4177 
L 202.9413 22.4177 
L 207.18534 22.4177 
L 211.42938 22.4177 
L 215.673419 22.4177 
L 219.917459 22.4177 
L 224.161499 22.4177 
L 228.405538 22.4177 
L 232.649578 22.4177 
L 236.893617 22.4177 
L 241.137657 22.4177 
L 245.381697 22.4177 
L 249.625736 22.4177 
L 253.869776 22.4177 
L 258.113816 22.4177 
L 262.357855 22.4177 
L 266.601895 22.4177 
L 270.845935 22.4177 
L 275.089974 22.4177 
L 279.334014 22.4177 
L 283.578053 22.4177 
L 287.822093 22.4177 
L 292.066133 22.4177 
L 296.310172 22.4177 
L 300.554212 22.4177 
L 304.798252 22.4177 
L 309.042291 22.4177 
L 313.286331 22.4177 
L 317.530371 22.4177 
L 321.77441 22.4177 
L 326.01845 22.4177 
L 330.26249 22.4177 
L 334.506529 22.4177 
L 338.750569 22.4177 
L 342.994608 22.4177 
L 347.238648 22.4177 
L 351.482688 22.4177 
L 355.726727 22.4177 
L 359.970767 22.4177 
L 364.214807 22.4177 
L 368.458846 22.4177 
L 372.702886 22.4177 
L 376.946926 22.4177 
L 381.190965 22.4177 
L 385.435005 22.4177 
L 389.679044 22.4177 
L 393.923084 22.4177 
L 398.167124 22.4177 
L 402.411163 22.4177 
L 406.655203 22.4177 
L 410.899243 22.4177 
L 415.143282 22.4177 
L 419.387322 22.4177 
" clip-path="url(#p9d6cc3549e)" style="fill: none; stroke: #4c72b0; stroke-width: 1.2"/>
   </g>
   <g id="line2d_32">
    <path d="M 37.423754 22.417704 
L 41.667794 22.417703 
L 45.911834 22.417702 
L 50.155873 22.417702 
L 54.399913 22.417702 
L 58.643953 22.417701 
L 62.887992 22.417701 
L 67.132032 22.417701 
L 71.376072 22.417701 
L 75.620111 22.417701 
L 79.864151 22.4177 
L 84.10819 22.4177 
L 88.35223 22.4177 
L 92.59627 22.4177 
L 96.840309 22.4177 
L 101.084349 22.4177 
L 105.328389 22.4177 
L 109.572428 22.4177 
L 113.816468 22.4177 
L 118.060508 22.4177 
L 122.304547 22.4177 
L 126.548587 22.4177 
L 130.792627 22.4177 
L 135.036666 22.4177 
L 139.280706 22.4177 
L 143.524745 22.4177 
L 147.768785 22.4177 
L 152.012825 22.4177 
L 156.256864 22.4177 
L 160.500904 22.4177 
L 164.744944 22.4177 
L 168.988983 22.4177 
L 173.233023 22.4177 
L 177.477063 22.4177 
L 181.721102 22.4177 
L 185.965142 22.4177 
L 190.209181 22.4177 
L 194.453221 22.4177 
L 198.697261 22.4177 
L 202.9413 22.4177 
L 207.18534 22.4177 
L 211.42938 22.4177 
L 215.673419 22.4177 
L 219.917459 22.4177 
L 224.161499 22.4177 
L 228.405538 22.4177 
L 232.649578 22.4177 
L 236.893617 22.4177 
L 241.137657 22.4177 
L 245.381697 22.4177 
L 249.625736 22.4177 
L 253.869776 22.4177 
L 258.113816 22.4177 
L 262.357855 22.4177 
L 266.601895 22.4177 
L 270.845935 22.4177 
L 275.089974 22.4177 
L 279.334014 22.4177 
L 283.578053 22.4177 
L 287.822093 22.4177 
L 292.066133 22.4177 
L 296.310172 22.4177 
L 300.554212 22.4177 
L 304.798252 22.4177 
L 309.042291 22.4177 
L 313.286331 22.4177 
L 317.530371 22.4177 
L 321.77441 22.4177 
L 326.01845 22.4177 
L 330.26249 22.4177 
L 334.506529 22.4177 
L 338.750569 22.4177 
L 342.994608 22.4177 
L 347.238648 22.4177 
L 351.482688 22.4177 
L 355.726727 22.4177 
L 359.970767 22.4177 
L 364.214807 22.4177 
L 368.458846 22.4177 
L 372.702886 22.4177 
L 376.946926 22.4177 
L 381.190965 22.4177 
L 385.435005 22.4177 
L 389.679044 22.4177 
L 393.923084 22.4177 
L 398.167124 22.4177 
L 402.411163 22.4177 
L 406.655203 22.4177 
L 410.899243 22.4177 
L 415.143282 22.4177 
L 419.387322 22.4177 
" clip-path="url(#p9d6cc3549e)" style="fill: none; stroke-dasharray: 1.2,1.98; stroke-dashoffset: 0; stroke: #4c72b0; stroke-width: 1.2"/>
   </g>
   <g id="line2d_33">
    <path d="M 37.423754 26.657941 
L 41.667794 25.496441 
L 45.911834 24.936473 
L 50.155873 25.236927 
L 54.399913 24.961114 
L 58.643953 24.961114 
L 62.887992 25.264714 
L 67.132032 24.109021 
L 71.376072 24.695145 
L 75.620111 24.986243 
L 79.864151 24.998994 
L 84.10819 24.415325 
L 88.35223 23.844506 
L 92.59627 23.269549 
L 96.840309 24.425241 
L 101.084349 23.561949 
L 105.328389 23.561949 
L 109.572428 23.273755 
L 113.816468 23.851587 
L 118.060508 23.567642 
L 122.304547 23.278004 
L 126.548587 23.278004 
L 130.792627 23.278004 
L 135.036666 22.704463 
L 139.280706 24.455588 
L 143.524745 23.282295 
L 147.768785 22.992657 
L 152.012825 22.992657 
L 156.256864 22.704463 
L 160.500904 22.704463 
L 164.744944 22.995532 
L 168.988983 22.705893 
L 173.233023 22.705893 
L 177.477063 22.4177 
L 181.721102 22.4177 
L 185.965142 22.4177 
L 190.209181 22.4177 
L 194.453221 22.705893 
L 198.697261 22.4177 
L 202.9413 22.705893 
L 207.18534 22.4177 
L 211.42938 22.705893 
L 215.673419 22.4177 
L 219.917459 22.4177 
L 224.161499 22.4177 
L 228.405538 22.705893 
L 232.649578 22.4177 
L 236.893617 22.4177 
L 241.137657 22.4177 
L 245.381697 22.705893 
L 249.625736 22.4177 
L 253.869776 22.4177 
L 258.113816 22.4177 
L 262.357855 22.4177 
L 266.601895 22.4177 
L 270.845935 22.4177 
L 275.089974 22.4177 
L 279.334014 22.4177 
L 283.578053 22.4177 
L 287.822093 22.4177 
L 292.066133 22.4177 
L 296.310172 22.4177 
L 300.554212 22.4177 
L 304.798252 22.4177 
L 309.042291 22.4177 
L 313.286331 22.4177 
L 317.530371 22.4177 
L 321.77441 22.4177 
L 326.01845 22.4177 
L 330.26249 22.4177 
L 334.506529 22.4177 
L 338.750569 22.4177 
L 342.994608 22.4177 
L 347.238648 22.4177 
L 351.482688 22.4177 
L 355.726727 22.4177 
L 359.970767 22.4177 
L 364.214807 22.4177 
L 368.458846 22.4177 
L 372.702886 22.4177 
L 376.946926 22.4177 
L 381.190965 22.4177 
L 385.435005 22.4177 
L 389.679044 22.4177 
L 393.923084 22.4177 
L 398.167124 22.4177 
L 402.411163 22.4177 
L 406.655203 22.4177 
L 410.899243 22.4177 
L 415.143282 22.4177 
L 419.387322 22.4177 
" clip-path="url(#p9d6cc3549e)" style="fill: none; stroke: #55a868; stroke-width: 1.2"/>
   </g>
   <g id="text_12">
    <!-- Probabilidad de Detección vs Falsa Alarma -->
    <g transform="translate(76.151163 12.914646) scale(0.14 -0.14)">
     <defs>
      <path id="DejaVuSerif-50" d="M 1581 2375 
L 2406 2375 
Q 2872 2375 3115 2626 
Q 3359 2878 3359 3353 
Q 3359 3831 3115 4081 
Q 2872 4331 2406 4331 
L 1581 4331 
L 1581 2375 
z
M 353 0 
L 353 331 
L 947 331 
L 947 4331 
L 353 4331 
L 353 4666 
L 2559 4666 
Q 3259 4666 3668 4311 
Q 4078 3956 4078 3353 
Q 4078 2753 3668 2397 
Q 3259 2041 2559 2041 
L 1581 2041 
L 1581 331 
L 2303 331 
L 2303 0 
L 353 0 
z
" transform="scale(0.015625)"/>
      <path id="DejaVuSerif-72" d="M 3059 3328 
L 3059 2497 
L 2728 2497 
Q 2713 2744 2591 2866 
Q 2469 2988 2234 2988 
Q 1809 2988 1582 2694 
Q 1356 2400 1356 1850 
L 1356 331 
L 2022 331 
L 2022 0 
L 263 0 
L 263 331 
L 781 331 
L 781 2994 
L 231 2994 
L 231 3322 
L 1356 3322 
L 1356 2731 
Q 1525 3078 1790 3245 
Q 2056 3413 2438 3413 
Q 2578 3413 2733 3391 
Q 2888 3369 3059 3328 
z
" transform="scale(0.015625)"/>
      <path id="DejaVuSerif-6f" d="M 1925 219 
Q 2388 219 2623 584 
Q 2859 950 2859 1663 
Q 2859 2375 2623 2739 
Q 2388 3103 1925 3103 
Q 1463 3103 1227 2739 
Q 991 2375 991 1663 
Q 991 950 1228 584 
Q 1466 219 1925 219 
z
M 1925 -91 
Q 1200 -91 759 389 
Q 319 869 319 1663 
Q 319 2456 758 2934 
Q 1197 3413 1925 3413 
Q 2653 3413 3092 2934 
Q 3531 2456 3531 1663 
Q 3531 869 3092 389 
Q 2653 -91 1925 -91 
z
" transform="scale(0.015625)"/>
      <path id="DejaVuSerif-62" d="M 738 331 
L 738 4531 
L 184 4531 
L 184 4863 
L 1313 4863 
L 1313 2803 
Q 1481 3116 1742 3264 
Q 2003 3413 2388 3413 
Q 3000 3413 3387 2928 
Q 3775 2444 3775 1663 
Q 3775 881 3387 395 
Q 3000 -91 2388 -91 
Q 2003 -91 1742 57 
Q 1481 206 1313 519 
L 1313 0 
L 184 0 
L 184 331 
L 738 331 
z
M 1313 1497 
Q 1313 897 1542 583 
Q 1772 269 2209 269 
Q 2650 269 2876 622 
Q 3103 975 3103 1663 
Q 3103 2353 2876 2703 
Q 2650 3053 2209 3053 
Q 1772 3053 1542 2737 
Q 1313 2422 1313 1825 
L 1313 1497 
z
" transform="scale(0.015625)"/>
      <path id="DejaVuSerif-61" d="M 2547 1044 
L 2547 1747 
L 1806 1747 
Q 1378 1747 1168 1562 
Q 959 1378 959 997 
Q 959 650 1171 447 
Q 1384 244 1747 244 
Q 2106 244 2326 466 
Q 2547 688 2547 1044 
z
M 3122 2075 
L 3122 331 
L 3634 331 
L 3634 0 
L 2547 0 
L 2547 359 
Q 2356 128 2106 18 
Q 1856 -91 1522 -91 
Q 969 -91 644 203 
Q 319 497 319 997 
Q 319 1513 691 1797 
Q 1063 2081 1741 2081 
L 2547 2081 
L 2547 2309 
Q 2547 2688 2317 2895 
Q 2088 3103 1672 3103 
Q 1328 3103 1125 2947 
Q 922 2791 872 2484 
L 575 2484 
L 575 3156 
Q 875 3284 1158 3348 
Q 1441 3413 1709 3413 
Q 2400 3413 2761 3070 
Q 3122 2728 3122 2075 
z
" transform="scale(0.015625)"/>
      <path id="DejaVuSerif-69" d="M 622 4353 
Q 622 4497 726 4603 
Q 831 4709 978 4709 
Q 1122 4709 1226 4603 
Q 1331 4497 1331 4353 
Q 1331 4206 1228 4103 
Q 1125 4000 978 4000 
Q 831 4000 726 4103 
Q 622 4206 622 4353 
z
M 1356 331 
L 1900 331 
L 1900 0 
L 231 0 
L 231 331 
L 781 331 
L 781 2988 
L 231 2988 
L 231 3322 
L 1356 3322 
L 1356 331 
z
" transform="scale(0.015625)"/>
      <path id="DejaVuSerif-6c" d="M 1313 331 
L 1856 331 
L 1856 0 
L 184 0 
L 184 331 
L 738 331 
L 738 4531 
L 184 4531 
L 184 4863 
L 1313 4863 
L 1313 331 
z
" transform="scale(0.015625)"/>
      <path id="DejaVuSerif-64" d="M 3359 331 
L 3909 331 
L 3909 0 
L 2784 0 
L 2784 519 
Q 2616 206 2355 57 
Q 2094 -91 1709 -91 
Q 1097 -91 708 395 
Q 319 881 319 1663 
Q 319 2444 706 2928 
Q 1094 3413 1709 3413 
Q 2094 3413 2355 3264 
Q 2616 3116 2784 2803 
L 2784 4531 
L 2241 4531 
L 2241 4863 
L 3359 4863 
L 3359 331 
z
M 2784 1497 
L 2784 1825 
Q 2784 2422 2554 2737 
Q 2325 3053 1888 3053 
Q 1444 3053 1217 2703 
Q 991 2353 991 1663 
Q 991 975 1217 622 
Q 1444 269 1888 269 
Q 2325 269 2554 583 
Q 2784 897 2784 1497 
z
" transform="scale(0.015625)"/>
      <path id="DejaVuSerif-20" transform="scale(0.015625)"/>
      <path id="DejaVuSerif-65" d="M 3469 1600 
L 991 1600 
L 991 1575 
Q 991 903 1244 561 
Q 1497 219 1991 219 
Q 2369 219 2611 417 
Q 2853 616 2950 1006 
L 3413 1006 
Q 3275 459 2904 184 
Q 2534 -91 1931 -91 
Q 1203 -91 761 389 
Q 319 869 319 1663 
Q 319 2450 753 2931 
Q 1188 3413 1894 3413 
Q 2647 3413 3050 2948 
Q 3453 2484 3469 1600 
z
M 2791 1931 
Q 2772 2513 2545 2808 
Q 2319 3103 1894 3103 
Q 1497 3103 1269 2806 
Q 1041 2509 991 1931 
L 2791 1931 
z
" transform="scale(0.015625)"/>
      <path id="DejaVuSerif-44" d="M 1581 331 
L 2163 331 
Q 3072 331 3558 850 
Q 4044 1369 4044 2338 
Q 4044 3306 3559 3818 
Q 3075 4331 2163 4331 
L 1581 4331 
L 1581 331 
z
M 353 0 
L 353 331 
L 947 331 
L 947 4331 
L 353 4331 
L 353 4666 
L 2209 4666 
Q 3416 4666 4089 4050 
Q 4763 3434 4763 2338 
Q 4763 1238 4088 619 
Q 3413 0 2209 0 
L 353 0 
z
" transform="scale(0.015625)"/>
      <path id="DejaVuSerif-74" d="M 691 2988 
L 184 2988 
L 184 3322 
L 691 3322 
L 691 4353 
L 1269 4353 
L 1269 3322 
L 2350 3322 
L 2350 2988 
L 1269 2988 
L 1269 878 
Q 1269 456 1350 337 
Q 1431 219 1650 219 
Q 1875 219 1978 351 
Q 2081 484 2088 781 
L 2522 781 
Q 2497 328 2275 118 
Q 2053 -91 1600 -91 
Q 1103 -91 897 129 
Q 691 350 691 878 
L 691 2988 
z
" transform="scale(0.015625)"/>
      <path id="DejaVuSerif-63" d="M 3291 997 
Q 3169 466 2822 187 
Q 2475 -91 1925 -91 
Q 1200 -91 759 389 
Q 319 869 319 1663 
Q 319 2459 759 2936 
Q 1200 3413 1925 3413 
Q 2241 3413 2553 3339 
Q 2866 3266 3181 3116 
L 3181 2266 
L 2847 2266 
Q 2781 2703 2561 2903 
Q 2341 3103 1931 3103 
Q 1466 3103 1228 2742 
Q 991 2381 991 1663 
Q 991 944 1227 581 
Q 1463 219 1931 219 
Q 2303 219 2525 412 
Q 2747 606 2828 997 
L 3291 997 
z
" transform="scale(0.015625)"/>
      <path id="DejaVuSerif-f3" d="M 1925 219 
Q 2388 219 2623 584 
Q 2859 950 2859 1663 
Q 2859 2375 2623 2739 
Q 2388 3103 1925 3103 
Q 1463 3103 1227 2739 
Q 991 2375 991 1663 
Q 991 950 1228 584 
Q 1466 219 1925 219 
z
M 1925 -91 
Q 1200 -91 759 389 
Q 319 869 319 1663 
Q 319 2456 758 2934 
Q 1197 3413 1925 3413 
Q 2653 3413 3092 2934 
Q 3531 2456 3531 1663 
Q 3531 869 3092 389 
Q 2653 -91 1925 -91 
z
M 2362 5119 
L 2984 5119 
L 1922 3944 
L 1556 3944 
L 2362 5119 
z
" transform="scale(0.015625)"/>
      <path id="DejaVuSerif-6e" d="M 263 0 
L 263 331 
L 781 331 
L 781 2988 
L 231 2988 
L 231 3322 
L 1356 3322 
L 1356 2731 
Q 1516 3069 1770 3241 
Q 2025 3413 2363 3413 
Q 2913 3413 3172 3097 
Q 3431 2781 3431 2113 
L 3431 331 
L 3944 331 
L 3944 0 
L 2356 0 
L 2356 331 
L 2853 331 
L 2853 1931 
Q 2853 2541 2703 2767 
Q 2553 2994 2175 2994 
Q 1775 2994 1565 2701 
Q 1356 2409 1356 1850 
L 1356 331 
L 1856 331 
L 1856 0 
L 263 0 
z
" transform="scale(0.015625)"/>
      <path id="DejaVuSerif-76" d="M 1581 0 
L 359 2988 
L -19 2988 
L -19 3322 
L 1509 3322 
L 1509 2988 
L 978 2988 
L 1913 703 
L 2847 2988 
L 2350 2988 
L 2350 3322 
L 3597 3322 
L 3597 2988 
L 3225 2988 
L 2003 0 
L 1581 0 
z
" transform="scale(0.015625)"/>
      <path id="DejaVuSerif-73" d="M 359 184 
L 359 959 
L 691 959 
Q 703 588 923 403 
Q 1144 219 1575 219 
Q 1963 219 2166 364 
Q 2369 509 2369 788 
Q 2369 1006 2220 1140 
Q 2072 1275 1594 1428 
L 1178 1569 
Q 750 1706 558 1912 
Q 366 2119 366 2438 
Q 366 2894 700 3153 
Q 1034 3413 1625 3413 
Q 1888 3413 2178 3344 
Q 2469 3275 2778 3144 
L 2778 2419 
L 2447 2419 
Q 2434 2741 2221 2922 
Q 2009 3103 1644 3103 
Q 1281 3103 1095 2975 
Q 909 2847 909 2591 
Q 909 2381 1050 2254 
Q 1191 2128 1613 1997 
L 2069 1856 
Q 2541 1709 2748 1489 
Q 2956 1269 2956 922 
Q 2956 450 2595 179 
Q 2234 -91 1600 -91 
Q 1278 -91 972 -22 
Q 666 47 359 184 
z
" transform="scale(0.015625)"/>
      <path id="DejaVuSerif-46" d="M 353 0 
L 353 331 
L 947 331 
L 947 4331 
L 353 4331 
L 353 4666 
L 4172 4666 
L 4172 3628 
L 3788 3628 
L 3788 4281 
L 1581 4281 
L 1581 2719 
L 3175 2719 
L 3175 3303 
L 3559 3303 
L 3559 1753 
L 3175 1753 
L 3175 2338 
L 1581 2338 
L 1581 331 
L 2328 331 
L 2328 0 
L 353 0 
z
" transform="scale(0.015625)"/>
      <path id="DejaVuSerif-41" d="M 1281 1691 
L 2994 1691 
L 2138 3909 
L 1281 1691 
z
M -38 0 
L -38 331 
L 372 331 
L 2034 4666 
L 2559 4666 
L 4225 331 
L 4684 331 
L 4684 0 
L 2988 0 
L 2988 331 
L 3506 331 
L 3116 1356 
L 1153 1356 
L 763 331 
L 1275 331 
L 1275 0 
L -38 0 
z
" transform="scale(0.015625)"/>
      <path id="DejaVuSerif-6d" d="M 3316 2675 
Q 3481 3041 3739 3227 
Q 3997 3413 4341 3413 
Q 4863 3413 5119 3089 
Q 5375 2766 5375 2113 
L 5375 331 
L 5894 331 
L 5894 0 
L 4300 0 
L 4300 331 
L 4800 331 
L 4800 2047 
Q 4800 2556 4650 2772 
Q 4500 2988 4153 2988 
Q 3769 2988 3567 2697 
Q 3366 2406 3366 1850 
L 3366 331 
L 3866 331 
L 3866 0 
L 2291 0 
L 2291 331 
L 2791 331 
L 2791 2069 
Q 2791 2566 2641 2777 
Q 2491 2988 2144 2988 
Q 1759 2988 1557 2697 
Q 1356 2406 1356 1850 
L 1356 331 
L 1856 331 
L 1856 0 
L 263 0 
L 263 331 
L 781 331 
L 781 2994 
L 231 2994 
L 231 3322 
L 1356 3322 
L 1356 2731 
Q 1516 3063 1762 3238 
Q 2009 3413 2322 3413 
Q 2709 3413 2968 3220 
Q 3228 3028 3316 2675 
z
" transform="scale(0.015625)"/>
     </defs>
     <use xlink:href="#DejaVuSerif-50"/>
     <use xlink:href="#DejaVuSerif-72" x="67.285156"/>
     <use xlink:href="#DejaVuSerif-6f" x="115.087891"/>
     <use xlink:href="#DejaVuSerif-62" x="175.292969"/>
     <use xlink:href="#DejaVuSerif-61" x="239.306641"/>
     <use xlink:href="#DejaVuSerif-62" x="298.925781"/>
     <use xlink:href="#DejaVuSerif-69" x="362.939453"/>
     <use xlink:href="#DejaVuSerif-6c" x="394.921875"/>
     <use xlink:href="#DejaVuSerif-69" x="426.904297"/>
     <use xlink:href="#DejaVuSerif-64" x="458.886719"/>
     <use xlink:href="#DejaVuSerif-61" x="522.900391"/>
     <use xlink:href="#DejaVuSerif-64" x="582.519531"/>
     <use xlink:href="#DejaVuSerif-20" x="646.533203"/>
     <use xlink:href="#DejaVuSerif-64" x="678.320312"/>
     <use xlink:href="#DejaVuSerif-65" x="742.333984"/>
     <use xlink:href="#DejaVuSerif-20" x="801.513672"/>
     <use xlink:href="#DejaVuSerif-44" x="833.300781"/>
     <use xlink:href="#DejaVuSerif-65" x="913.476562"/>
     <use xlink:href="#DejaVuSerif-74" x="972.65625"/>
     <use xlink:href="#DejaVuSerif-65" x="1012.841797"/>
     <use xlink:href="#DejaVuSerif-63" x="1072.021484"/>
     <use xlink:href="#DejaVuSerif-63" x="1128.027344"/>
     <use xlink:href="#DejaVuSerif-69" x="1184.033203"/>
     <use xlink:href="#DejaVuSerif-f3" x="1216.015625"/>
     <use xlink:href="#DejaVuSerif-6e" x="1276.220703"/>
     <use xlink:href="#DejaVuSerif-20" x="1340.625"/>
     <use xlink:href="#DejaVuSerif-76" x="1372.412109"/>
     <use xlink:href="#DejaVuSerif-73" x="1428.90625"/>
     <use xlink:href="#DejaVuSerif-20" x="1480.224609"/>
     <use xlink:href="#DejaVuSerif-46" x="1512.011719"/>
     <use xlink:href="#DejaVuSerif-61" x="1574.646484"/>
     <use xlink:href="#DejaVuSerif-6c" x="1634.265625"/>
     <use xlink:href="#DejaVuSerif-73" x="1666.248047"/>
     <use xlink:href="#DejaVuSerif-61" x="1717.566406"/>
     <use xlink:href="#DejaVuSerif-20" x="1777.185547"/>
     <use xlink:href="#DejaVuSerif-41" x="1808.972656"/>
     <use xlink:href="#DejaVuSerif-6c" x="1881.189453"/>
     <use xlink:href="#DejaVuSerif-61" x="1913.171875"/>
     <use xlink:href="#DejaVuSerif-72" x="1972.791016"/>
     <use xlink:href="#DejaVuSerif-6d" x="2020.59375"/>
     <use xlink:href="#DejaVuSerif-61" x="2115.417969"/>
    </g>
   </g>
   <g id="line2d_34">
    <path d="M 37.423754 25.722178 
L 41.667794 25.513927 
L 45.911834 25.315834 
L 50.155873 25.127591 
L 54.399913 24.948887 
L 58.643953 24.779413 
L 62.887992 24.618862 
L 67.132032 24.466926 
L 71.376072 24.3233 
L 75.620111 24.187681 
L 79.864151 24.059767 
L 84.10819 23.93926 
L 88.35223 23.825866 
L 92.59627 23.719292 
L 96.840309 23.619252 
L 101.084349 23.525463 
L 105.328389 23.437645 
L 109.572428 23.355525 
L 113.816468 23.278836 
L 118.060508 23.207315 
L 122.304547 23.140704 
L 126.548587 23.078755 
L 130.792627 23.021223 
L 135.036666 22.96787 
L 139.280706 22.918467 
L 143.524745 22.87279 
L 147.768785 22.830623 
L 152.012825 22.791757 
L 156.256864 22.755991 
L 160.500904 22.723132 
L 164.744944 22.692993 
L 168.988983 22.665395 
L 173.233023 22.640168 
L 177.477063 22.617149 
L 181.721102 22.596182 
L 185.965142 22.577119 
L 190.209181 22.559818 
L 194.453221 22.544147 
L 198.697261 22.52998 
L 202.9413 22.517198 
L 207.18534 22.505687 
L 211.42938 22.495344 
L 215.673419 22.486068 
L 219.917459 22.477768 
L 224.161499 22.470356 
L 228.405538 22.463753 
L 232.649578 22.457884 
L 236.893617 22.452678 
L 241.137657 22.448072 
L 245.381697 22.444007 
L 249.625736 22.440427 
L 253.869776 22.437283 
L 258.113816 22.434529 
L 262.357855 22.432123 
L 266.601895 22.430026 
L 270.845935 22.428203 
L 275.089974 22.426624 
L 279.334014 22.42526 
L 283.578053 22.424084 
L 287.822093 22.423074 
L 292.066133 22.422209 
L 296.310172 22.421471 
L 300.554212 22.420843 
L 304.798252 22.42031 
L 309.042291 22.41986 
L 313.286331 22.419481 
L 317.530371 22.419163 
L 321.77441 22.418897 
L 326.01845 22.418675 
L 330.26249 22.418491 
L 334.506529 22.418339 
L 338.750569 22.418214 
L 342.994608 22.418112 
L 347.238648 22.418028 
L 351.482688 22.41796 
L 355.726727 22.417905 
L 359.970767 22.417861 
L 364.214807 22.417826 
L 368.458846 22.417798 
L 372.702886 22.417775 
L 376.946926 22.417758 
L 381.190965 22.417744 
L 385.435005 22.417733 
L 389.679044 22.417725 
L 393.923084 22.417719 
L 398.167124 22.417714 
L 402.411163 22.41771 
L 406.655203 22.417707 
L 410.899243 22.417705 
L 415.143282 22.417704 
L 419.387322 22.417703 
" clip-path="url(#p9d6cc3549e)" style="fill: none; stroke-dasharray: 1.2,1.98; stroke-dashoffset: 0; stroke: #55a868; stroke-width: 1.2"/>
   </g>
   <g id="line2d_35">
    <path d="M 37.423754 126.672688 
L 41.667794 126.138919 
L 45.911834 121.492423 
L 50.155873 117.198274 
L 54.399913 119.560473 
L 58.643953 115.245995 
L 62.887992 114.944146 
L 67.132032 117.299749 
L 71.376072 118.057318 
L 75.620111 104.857888 
L 79.864151 102.662289 
L 84.10819 103.184433 
L 88.35223 102.292986 
L 92.59627 89.421409 
L 96.840309 97.38366 
L 101.084349 92.446918 
L 105.328389 88.829452 
L 109.572428 90.732628 
L 113.816468 86.479217 
L 118.060508 86.198652 
L 122.304547 83.168082 
L 126.548587 84.836269 
L 130.792627 80.704607 
L 135.036666 75.420916 
L 139.280706 67.292787 
L 143.524745 68.001434 
L 147.768785 66.528504 
L 152.012825 66.81214 
L 156.256864 62.875108 
L 160.500904 66.198823 
L 164.744944 63.917877 
L 168.988983 64.110007 
L 173.233023 62.469613 
L 177.477063 55.182553 
L 181.721102 56.126768 
L 185.965142 56.70991 
L 190.209181 53.179703 
L 194.453221 53.268311 
L 198.697261 49.858334 
L 202.9413 45.396894 
L 207.18534 48.297751 
L 211.42938 44.447402 
L 215.673419 43.02734 
L 219.917459 45.552507 
L 224.161499 41.221484 
L 228.405538 44.630045 
L 232.649578 39.529545 
L 236.893617 37.091265 
L 241.137657 38.537972 
L 245.381697 34.873786 
L 249.625736 37.935881 
L 253.869776 36.745423 
L 258.113816 36.122941 
L 262.357855 32.347671 
L 266.601895 34.197477 
L 270.845935 31.485005 
L 275.089974 33.049927 
L 279.334014 31.161251 
L 283.578053 29.285821 
L 287.822093 32.852327 
L 292.066133 29.413909 
L 296.310172 28.363217 
L 300.554212 27.280795 
L 304.798252 29.060339 
L 309.042291 29.092346 
L 313.286331 25.409472 
L 317.530371 24.598438 
L 321.77441 27.177318 
L 326.01845 27.494566 
L 330.26249 25.496441 
L 334.506529 24.084624 
L 338.750569 24.948734 
L 342.994608 24.672921 
L 347.238648 24.109021 
L 351.482688 24.695145 
L 355.726727 24.695145 
L 359.970767 23.55073 
L 364.214807 23.556312 
L 368.458846 22.984201 
L 372.702886 22.4177 
L 376.946926 23.273755 
L 381.190965 22.98981 
L 385.435005 23.567642 
L 389.679044 23.278004 
L 393.923084 23.573392 
L 398.167124 22.704463 
L 402.411163 22.992657 
L 406.655203 22.992657 
L 410.899243 22.4177 
L 415.143282 22.4177 
L 419.387322 22.705893 
" clip-path="url(#p9d6cc3549e)" style="fill: none; stroke: #c44e52; stroke-width: 1.2"/>
   </g>
   <g id="line2d_36">
    <path d="M 37.423754 130.015415 
L 41.667794 127.268746 
L 45.911834 124.555642 
L 50.155873 121.876322 
L 54.399913 119.231 
L 58.643953 116.619892 
L 62.887992 114.043211 
L 67.132032 111.501171 
L 71.376072 108.99398 
L 75.620111 106.521849 
L 79.864151 104.084982 
L 84.10819 101.683584 
L 88.35223 99.317857 
L 92.59627 96.987997 
L 96.840309 94.6942 
L 101.084349 92.436656 
L 105.328389 90.215553 
L 109.572428 88.031073 
L 113.816468 85.883392 
L 118.060508 83.772685 
L 122.304547 81.699116 
L 126.548587 79.662848 
L 130.792627 77.664033 
L 135.036666 75.702818 
L 139.280706 73.779344 
L 143.524745 71.89374 
L 147.768785 70.04613 
L 152.012825 68.236625 
L 156.256864 66.46533 
L 160.500904 64.732337 
L 164.744944 63.037727 
L 168.988983 61.38157 
L 173.233023 59.763922 
L 177.477063 58.184826 
L 181.721102 56.644312 
L 185.965142 55.142394 
L 190.209181 53.67907 
L 194.453221 52.254322 
L 198.697261 50.868115 
L 202.9413 49.520395 
L 207.18534 48.211088 
L 211.42938 46.940102 
L 215.673419 45.707322 
L 219.917459 44.512613 
L 224.161499 43.355815 
L 228.405538 42.236747 
L 232.649578 41.155201 
L 236.893617 40.110944 
L 241.137657 39.103718 
L 245.381697 38.133236 
L 249.625736 37.199185 
L 253.869776 36.301221 
L 258.113816 35.438973 
L 262.357855 34.612039 
L 266.601895 33.819985 
L 270.845935 33.062347 
L 275.089974 32.338631 
L 279.334014 31.648308 
L 283.578053 30.99082 
L 287.822093 30.365576 
L 292.066133 29.771952 
L 296.310172 29.209293 
L 300.554212 28.676915 
L 304.798252 28.174101 
L 309.042291 27.700104 
L 313.286331 27.25415 
L 317.530371 26.835435 
L 321.77441 26.443132 
L 326.01845 26.076386 
L 330.26249 25.734322 
L 334.506529 25.416043 
L 338.750569 25.120633 
L 342.994608 24.847161 
L 347.238648 24.594683 
L 351.482688 24.362243 
L 355.726727 24.14888 
L 359.970767 23.953627 
L 364.214807 23.775515 
L 368.458846 23.613581 
L 372.702886 23.466866 
L 376.946926 23.33442 
L 381.190965 23.215306 
L 385.435005 23.108606 
L 389.679044 23.013418 
L 393.923084 22.928867 
L 398.167124 22.854102 
L 402.411163 22.788302 
L 406.655203 22.730679 
L 410.899243 22.680476 
L 415.143282 22.636977 
L 419.387322 22.5995 
" clip-path="url(#p9d6cc3549e)" style="fill: none; stroke-dasharray: 1.2,1.98; stroke-dashoffset: 0; stroke: #c44e52; stroke-width: 1.2"/>
   </g>
   <g id="line2d_37">
    <path d="M 169.457312 217 
L 173.233023 208.598071 
L 177.477063 212.216772 
L 181.721102 207.379365 
L 185.965142 197.235427 
L 190.209181 198.442437 
L 194.453221 190.124157 
L 198.697261 178.123981 
L 202.9413 186.633227 
L 207.18534 174.33122 
L 211.42938 175.342382 
L 215.673419 171.774422 
L 219.917459 165.210752 
L 224.161499 162.931636 
L 228.405538 159.811202 
L 232.649578 153.090043 
L 236.893617 143.268231 
L 241.137657 139.658833 
L 245.381697 138.825437 
L 249.625736 142.5333 
L 253.869776 129.074545 
L 258.113816 123.800093 
L 262.357855 131.186166 
L 266.601895 120.10083 
L 270.845935 111.741158 
L 275.089974 109.855048 
L 279.334014 111.408129 
L 283.578053 106.884557 
L 287.822093 102.174899 
L 292.066133 101.501377 
L 296.310172 95.707065 
L 300.554212 96.894985 
L 304.798252 93.861961 
L 309.042291 89.083423 
L 313.286331 87.258137 
L 317.530371 84.700869 
L 321.77441 79.02215 
L 326.01845 76.202923 
L 330.26249 72.080102 
L 334.506529 71.989615 
L 338.750569 72.145595 
L 342.994608 69.675317 
L 347.238648 60.965127 
L 351.482688 63.63698 
L 355.726727 62.469613 
L 359.970767 58.838092 
L 364.214807 56.903342 
L 368.458846 52.894356 
L 372.702886 53.463003 
L 376.946926 47.212652 
L 381.190965 45.661069 
L 385.435005 43.219629 
L 389.679044 40.917843 
L 393.923084 39.312665 
L 398.167124 39.884304 
L 402.411163 39.255952 
L 406.655203 36.252914 
L 410.899243 35.199228 
L 415.143282 33.554399 
L 419.387322 35.252844 
" clip-path="url(#p9d6cc3549e)" style="fill: none; stroke: #8172b3; stroke-width: 1.2"/>
   </g>
   <g id="line2d_38">
    <path d="M 168.596913 217 
L 168.988983 216.570402 
L 173.233023 211.9602 
L 177.477063 207.390567 
L 181.721102 202.862012 
L 185.965142 198.375057 
L 190.209181 193.930231 
L 194.453221 189.528074 
L 198.697261 185.169133 
L 202.9413 180.853966 
L 207.18534 176.583138 
L 211.42938 172.357225 
L 215.673419 168.176814 
L 219.917459 164.042499 
L 224.161499 159.954885 
L 228.405538 155.914586 
L 232.649578 151.922225 
L 236.893617 147.978435 
L 241.137657 144.083861 
L 245.381697 140.239153 
L 249.625736 136.444974 
L 253.869776 132.701994 
L 258.113816 129.010893 
L 262.357855 125.372361 
L 266.601895 121.787093 
L 270.845935 118.255796 
L 275.089974 114.779183 
L 279.334014 111.357975 
L 283.578053 107.992898 
L 287.822093 104.684688 
L 292.066133 101.434084 
L 296.310172 98.24183 
L 300.554212 95.108674 
L 304.798252 92.035368 
L 309.042291 89.022666 
L 313.286331 86.07132 
L 317.530371 83.182085 
L 321.77441 80.35571 
L 326.01845 77.592943 
L 330.26249 74.894525 
L 334.506529 72.261186 
L 338.750569 69.69365 
L 342.994608 67.192624 
L 347.238648 64.758801 
L 351.482688 62.392854 
L 355.726727 60.095431 
L 359.970767 57.867157 
L 364.214807 55.708623 
L 368.458846 53.620386 
L 372.702886 51.60296 
L 376.946926 49.656815 
L 381.190965 47.78237 
L 385.435005 45.979981 
L 389.679044 44.249945 
L 393.923084 42.592481 
L 398.167124 41.007732 
L 402.411163 39.495749 
L 406.655203 38.05649 
L 410.899243 36.689804 
L 415.143282 35.395426 
L 419.387322 34.172964 
" clip-path="url(#p9d6cc3549e)" style="fill: none; stroke-dasharray: 1.2,1.98; stroke-dashoffset: 0; stroke: #8172b3; stroke-width: 1.2"/>
   </g>
   <g id="legend_1">
    <g id="patch_3">
     <path d="M 328.553572 178.625354 
L 415.387322 178.625354 
L 415.387322 122.855354 
L 328.553572 122.855354 
z
" style="fill: #ffffff; opacity: 0.9; stroke: #222255; stroke-linejoin: miter"/>
    </g>
    <g id="line2d_39">
     <path d="M 334.953572 132.534104 
L 342.953572 132.534104 
L 350.953572 132.534104 
" style="fill: none; stroke: #4c72b0; stroke-linejoin: miter"/>
    </g>
    <g id="text_13">
     <!-- SNR=-3 dB -->
     <g transform="translate(357.353572 135.334104) scale(0.08 -0.08)">
      <defs>
       <path id="DejaVuSerif-53" d="M 594 225 
L 594 1288 
L 953 1284 
Q 969 753 1261 498 
Q 1553 244 2150 244 
Q 2706 244 2998 464 
Q 3291 684 3291 1106 
Q 3291 1444 3114 1625 
Q 2938 1806 2369 1978 
L 1753 2163 
Q 1084 2366 811 2669 
Q 538 2972 538 3500 
Q 538 4094 959 4422 
Q 1381 4750 2144 4750 
Q 2469 4750 2856 4679 
Q 3244 4609 3681 4475 
L 3681 3481 
L 3328 3481 
Q 3275 3975 2998 4195 
Q 2722 4416 2156 4416 
Q 1663 4416 1405 4214 
Q 1147 4013 1147 3628 
Q 1147 3294 1340 3103 
Q 1534 2913 2163 2725 
L 2741 2553 
Q 3375 2363 3645 2067 
Q 3916 1772 3916 1275 
Q 3916 597 3481 253 
Q 3047 -91 2188 -91 
Q 1803 -91 1404 -12 
Q 1006 66 594 225 
z
" transform="scale(0.015625)"/>
       <path id="DejaVuSerif-4e" d="M 313 0 
L 313 331 
L 941 331 
L 941 4331 
L 313 4331 
L 313 4666 
L 1509 4666 
L 4306 984 
L 4306 4331 
L 3681 4331 
L 3681 4666 
L 5319 4666 
L 5319 4331 
L 4691 4331 
L 4691 -91 
L 4313 -91 
L 1325 3841 
L 1325 331 
L 1953 331 
L 1953 0 
L 313 0 
z
" transform="scale(0.015625)"/>
       <path id="DejaVuSerif-52" d="M 3066 2316 
Q 3284 2256 3442 2114 
Q 3600 1972 3725 1716 
L 4403 331 
L 4972 331 
L 4972 0 
L 3872 0 
L 3144 1484 
Q 2934 1916 2759 2042 
Q 2584 2169 2278 2169 
L 1581 2169 
L 1581 331 
L 2241 331 
L 2241 0 
L 353 0 
L 353 331 
L 947 331 
L 947 4331 
L 353 4331 
L 353 4666 
L 2719 4666 
Q 3400 4666 3770 4341 
Q 4141 4016 4141 3419 
Q 4141 2938 3870 2661 
Q 3600 2384 3066 2316 
z
M 1581 2503 
L 2503 2503 
Q 2975 2503 3200 2726 
Q 3425 2950 3425 3419 
Q 3425 3888 3200 4109 
Q 2975 4331 2503 4331 
L 1581 4331 
L 1581 2503 
z
" transform="scale(0.015625)"/>
       <path id="DejaVuSerif-3d" d="M 678 2894 
L 4684 2894 
L 4684 2394 
L 678 2394 
L 678 2894 
z
M 678 1619 
L 4684 1619 
L 4684 1119 
L 678 1119 
L 678 1619 
z
" transform="scale(0.015625)"/>
       <path id="DejaVuSerif-2d" d="M 281 1959 
L 1881 1959 
L 1881 1472 
L 281 1472 
L 281 1959 
z
" transform="scale(0.015625)"/>
       <path id="DejaVuSerif-42" d="M 1581 331 
L 2516 331 
Q 3078 331 3337 575 
Q 3597 819 3597 1350 
Q 3597 1878 3339 2120 
Q 3081 2363 2516 2363 
L 1581 2363 
L 1581 331 
z
M 1581 2694 
L 2375 2694 
Q 2888 2694 3123 2891 
Q 3359 3088 3359 3513 
Q 3359 3941 3123 4136 
Q 2888 4331 2375 4331 
L 1581 4331 
L 1581 2694 
z
M 353 0 
L 353 331 
L 947 331 
L 947 4331 
L 353 4331 
L 353 4666 
L 2656 4666 
Q 3363 4666 3720 4377 
Q 4078 4088 4078 3513 
Q 4078 3097 3829 2850 
Q 3581 2603 3103 2547 
Q 3697 2472 4005 2167 
Q 4313 1863 4313 1350 
Q 4313 656 3875 328 
Q 3438 0 2509 0 
L 353 0 
z
" transform="scale(0.015625)"/>
      </defs>
      <use xlink:href="#DejaVuSerif-53"/>
      <use xlink:href="#DejaVuSerif-4e" x="68.505859"/>
      <use xlink:href="#DejaVuSerif-52" x="156.005859"/>
      <use xlink:href="#DejaVuSerif-3d" x="231.298828"/>
      <use xlink:href="#DejaVuSerif-2d" x="315.087891"/>
      <use xlink:href="#DejaVuSerif-33" x="348.876953"/>
      <use xlink:href="#DejaVuSerif-20" x="412.5"/>
      <use xlink:href="#DejaVuSerif-64" x="444.287109"/>
      <use xlink:href="#DejaVuSerif-42" x="508.300781"/>
     </g>
    </g>
    <g id="line2d_40">
     <path d="M 334.953572 144.276604 
L 342.953572 144.276604 
L 350.953572 144.276604 
" style="fill: none; stroke: #55a868; stroke-linejoin: miter"/>
    </g>
    <g id="text_14">
     <!-- SNR=-6 dB -->
     <g transform="translate(357.353572 147.076604) scale(0.08 -0.08)">
      <use xlink:href="#DejaVuSerif-53"/>
      <use xlink:href="#DejaVuSerif-4e" x="68.505859"/>
      <use xlink:href="#DejaVuSerif-52" x="156.005859"/>
      <use xlink:href="#DejaVuSerif-3d" x="231.298828"/>
      <use xlink:href="#DejaVuSerif-2d" x="315.087891"/>
      <use xlink:href="#DejaVuSerif-36" x="348.876953"/>
      <use xlink:href="#DejaVuSerif-20" x="412.5"/>
      <use xlink:href="#DejaVuSerif-64" x="444.287109"/>
      <use xlink:href="#DejaVuSerif-42" x="508.300781"/>
     </g>
    </g>
    <g id="line2d_41">
     <path d="M 334.953572 156.019104 
L 342.953572 156.019104 
L 350.953572 156.019104 
" style="fill: none; stroke: #c44e52; stroke-linejoin: miter"/>
    </g>
    <g id="text_15">
     <!-- SNR=-9 dB -->
     <g transform="translate(357.353572 158.819104) scale(0.08 -0.08)">
      <use xlink:href="#DejaVuSerif-53"/>
      <use xlink:href="#DejaVuSerif-4e" x="68.505859"/>
      <use xlink:href="#DejaVuSerif-52" x="156.005859"/>
      <use xlink:href="#DejaVuSerif-3d" x="231.298828"/>
      <use xlink:href="#DejaVuSerif-2d" x="315.087891"/>
      <use xlink:href="#DejaVuSerif-39" x="348.876953"/>
      <use xlink:href="#DejaVuSerif-20" x="412.5"/>
      <use xlink:href="#DejaVuSerif-64" x="444.287109"/>
      <use xlink:href="#DejaVuSerif-42" x="508.300781"/>
     </g>
    </g>
    <g id="line2d_42">
     <path d="M 334.953572 167.761604 
L 342.953572 167.761604 
L 350.953572 167.761604 
" style="fill: none; stroke: #8172b3; stroke-linejoin: miter"/>
    </g>
    <g id="text_16">
     <!-- SNR=-12 dB -->
     <g transform="translate(357.353572 170.561604) scale(0.08 -0.08)">
      <use xlink:href="#DejaVuSerif-53"/>
      <use xlink:href="#DejaVuSerif-4e" x="68.505859"/>
      <use xlink:href="#DejaVuSerif-52" x="156.005859"/>
      <use xlink:href="#DejaVuSerif-3d" x="231.298828"/>
      <use xlink:href="#DejaVuSerif-2d" x="315.087891"/>
      <use xlink:href="#DejaVuSerif-31" x="348.876953"/>
      <use xlink:href="#DejaVuSerif-32" x="412.5"/>
      <use xlink:href="#DejaVuSerif-20" x="476.123047"/>
      <use xlink:href="#DejaVuSerif-64" x="507.910156"/>
      <use xlink:href="#DejaVuSerif-42" x="571.923828"/>
     </g>
    </g>
   </g>
  </g>
 </g>
 <defs>
  <clipPath id="p9d6cc3549e">
   <rect x="37.423754" y="18.914646" width="381.963567" height="163.710709"/>
  </clipPath>
 </defs>
</svg>
